# Blender 5.2.1 LTS
# www.blender.org
mtllib arched_opening.mtl
o arched_opening
v -1.250000 3.250000 -0.120000
v -1.250000 0.000000 -0.300000
v -1.250000 0.000000 -0.120000
v -1.250000 3.250000 -0.300000
v -0.900000 2.000000 -0.120000
v -0.900000 0.000000 -0.120000
v -0.887725 2.148135 -0.120000
v -0.851236 2.292229 -0.120000
v -0.791526 2.428353 -0.120000
v -0.710226 2.552791 -0.120000
v -0.609553 2.662152 -0.120000
v -0.492253 2.753450 -0.120000
v -0.361526 2.824196 -0.120000
v -0.220937 2.872460 -0.120000
v -0.074321 2.896926 -0.120000
v 0.900000 2.000000 -0.120000
v 0.900000 0.000000 -0.120000
v 1.250000 0.000000 -0.120000
v 0.074321 2.896926 -0.120000
v 1.250000 3.250000 -0.120000
v 0.220937 2.872460 -0.120000
v 0.361526 2.824196 -0.120000
v 0.492253 2.753450 -0.120000
v 0.609553 2.662152 -0.120000
v 0.710226 2.552791 -0.120000
v 0.791526 2.428353 -0.120000
v 0.851236 2.292229 -0.120000
v 0.887725 2.148135 -0.120000
v 1.250000 3.250000 -0.300000
v -0.900000 2.000000 -0.300000
v -0.900000 0.000000 -0.300000
v -0.887725 2.148135 -0.300000
v -0.851236 2.292229 -0.300000
v -0.791526 2.428353 -0.300000
v -0.710226 2.552791 -0.300000
v -0.609553 2.662152 -0.300000
v -0.492253 2.753450 -0.300000
v -0.361526 2.824196 -0.300000
v -0.220937 2.872460 -0.300000
v -0.074321 2.896926 -0.300000
v 0.900000 2.000000 -0.300000
v 1.250000 0.000000 -0.300000
v 0.900000 0.000000 -0.300000
v 0.074321 2.896926 -0.300000
v 0.220937 2.872460 -0.300000
v 0.361526 2.824196 -0.300000
v 0.492253 2.753450 -0.300000
v 0.609553 2.662152 -0.300000
v 0.710226 2.552791 -0.300000
v 0.791526 2.428353 -0.300000
v 0.851236 2.292229 -0.300000
v 0.887725 2.148135 -0.300000
v -1.040000 0.000000 -0.300000
v -1.040000 2.000000 -0.300000
v -1.028384 2.155004 -0.300000
v -0.888920 2.140791 -0.300000
v -0.993796 2.306545 -0.300000
v -0.855951 2.278115 -0.300000
v -0.937008 2.451239 -0.300000
v -0.801906 2.408592 -0.300000
v -0.859288 2.585853 -0.300000
v -0.728115 2.529007 -0.300000
v -0.762374 2.707380 -0.300000
v -0.636396 2.636396 -0.300000
v -0.648429 2.813105 -0.300000
v -0.529007 2.728115 -0.300000
v -0.520000 2.900666 -0.300000
v -0.408591 2.801906 -0.300000
v -0.379955 2.968109 -0.300000
v -0.278115 2.855951 -0.300000
v -0.231422 3.013925 -0.300000
v -0.140791 2.888920 -0.300000
v -0.077719 3.037092 -0.300000
v -0.000000 2.900000 -0.300000
v 1.040000 2.000000 -0.300000
v 1.040000 0.000000 -0.300000
v 0.077719 3.037092 -0.300000
v 0.140791 2.888920 -0.300000
v 1.028384 2.155004 -0.300000
v 0.888920 2.140791 -0.300000
v 0.231422 3.013925 -0.300000
v 0.278115 2.855951 -0.300000
v 0.993796 2.306545 -0.300000
v 0.855951 2.278115 -0.300000
v 0.379955 2.968109 -0.300000
v 0.408591 2.801906 -0.300000
v 0.937008 2.451239 -0.300000
v 0.801906 2.408592 -0.300000
v 0.520000 2.900666 -0.300000
v 0.529007 2.728115 -0.300000
v 0.859288 2.585853 -0.300000
v 0.728115 2.529007 -0.300000
v 0.648429 2.813105 -0.300000
v 0.636396 2.636396 -0.300000
v 0.762374 2.707380 -0.300000
v -0.900000 0.000000 -0.380000
v -1.040000 0.000000 -0.380000
v -0.900000 2.000000 -0.380000
v -0.888920 2.140791 -0.380000
v -0.855951 2.278115 -0.380000
v -0.801906 2.408592 -0.380000
v -0.728115 2.529007 -0.380000
v -0.636396 2.636396 -0.380000
v -0.529007 2.728115 -0.380000
v -0.408591 2.801906 -0.380000
v -0.278115 2.855951 -0.380000
v -0.140791 2.888920 -0.380000
v -0.000000 2.900000 -0.380000
v 0.140791 2.888920 -0.380000
v 0.278115 2.855951 -0.380000
v 0.408591 2.801906 -0.380000
v 0.529007 2.728115 -0.380000
v 0.636396 2.636396 -0.380000
v 0.728115 2.529007 -0.380000
v 0.801906 2.408592 -0.380000
v 0.855951 2.278115 -0.380000
v 0.888920 2.140791 -0.380000
v 0.900000 2.000000 -0.380000
v 0.900000 0.000000 -0.380000
v 1.040000 0.000000 -0.380000
v 1.040000 2.000000 -0.380000
v -1.028384 2.155004 -0.380000
v -1.040000 2.000000 -0.380000
v -0.993796 2.306545 -0.380000
v -0.937008 2.451239 -0.380000
v -0.859288 2.585853 -0.380000
v -0.762374 2.707380 -0.380000
v -0.648429 2.813105 -0.380000
v -0.520000 2.900666 -0.380000
v -0.379955 2.968109 -0.380000
v -0.231422 3.013925 -0.380000
v -0.077719 3.037092 -0.380000
v 0.077719 3.037092 -0.380000
v 0.231422 3.013925 -0.380000
v 0.379955 2.968109 -0.380000
v 0.520000 2.900666 -0.380000
v 0.648429 2.813105 -0.380000
v 0.762374 2.707380 -0.380000
v 0.859288 2.585853 -0.380000
v 0.937008 2.451239 -0.380000
v 0.993796 2.306545 -0.380000
v 1.028384 2.155004 -0.380000
v -0.122500 3.035000 -0.300000
v -0.122500 2.735000 -0.380000
v -0.122500 2.735000 -0.300000
v -0.122500 3.035000 -0.380000
v 0.122500 3.035000 -0.300000
v 0.122500 2.735000 -0.300000
v 0.122500 2.735000 -0.380000
v 0.122500 3.035000 -0.380000
v -1.197500 2.088000 -0.300000
v -1.197500 1.868000 -0.380000
v -1.197500 1.868000 -0.300000
v -1.197500 2.088000 -0.380000
v -0.952500 2.088000 -0.300000
v -0.952500 1.868000 -0.300000
v -0.952500 1.868000 -0.380000
v -0.952500 2.088000 -0.380000
v 0.952500 2.088000 -0.300000
v 0.952500 1.868000 -0.380000
v 0.952500 1.868000 -0.300000
v 0.952500 2.088000 -0.380000
v 1.197500 2.088000 -0.300000
v 1.197500 1.868000 -0.300000
v 1.197500 1.868000 -0.380000
v 1.197500 2.088000 -0.380000
v -0.900000 2.000000 -0.020000
v -0.900000 0.000000 -0.020000
v -0.900000 0.000000 0.000000
v -0.900000 2.000000 0.000000
v -0.888920 2.140791 -0.020000
v -0.888920 2.140791 0.000000
v -0.855951 2.278115 -0.020000
v -0.855951 2.278115 0.000000
v -0.801906 2.408592 -0.020000
v -0.801906 2.408592 0.000000
v -0.728115 2.529007 -0.020000
v -0.728115 2.529007 0.000000
v -0.636396 2.636396 -0.020000
v -0.636396 2.636396 0.000000
v -0.529007 2.728115 -0.020000
v -0.529007 2.728115 0.000000
v -0.408591 2.801906 -0.020000
v -0.408591 2.801906 0.000000
v -0.278115 2.855951 -0.020000
v -0.278115 2.855951 0.000000
v -0.140791 2.888920 -0.020000
v -0.140791 2.888920 0.000000
v -0.000000 2.900000 -0.020000
v -0.000000 2.900000 0.000000
v 0.140791 2.888920 -0.020000
v 0.140791 2.888920 0.000000
v 0.278115 2.855951 -0.020000
v 0.278115 2.855951 0.000000
v 0.408591 2.801906 -0.020000
v 0.408591 2.801906 0.000000
v 0.529007 2.728115 -0.020000
v 0.529007 2.728115 0.000000
v 0.636396 2.636396 -0.020000
v 0.636396 2.636396 0.000000
v 0.728115 2.529007 -0.020000
v 0.728115 2.529007 0.000000
v 0.801906 2.408592 -0.020000
v 0.801906 2.408592 0.000000
v 0.855951 2.278115 -0.020000
v 0.855951 2.278115 0.000000
v 0.888920 2.140791 -0.020000
v 0.888920 2.140791 0.000000
v 0.900000 2.000000 -0.020000
v 0.900000 2.000000 0.000000
v 0.900000 0.000000 -0.020000
v 0.900000 0.000000 0.000000
vn -0.4017 -0.9158 -0.0000
vn -0.5469 -0.8372 -0.0000
vn -0.0000 -0.0000 1.0000
vn -0.0000 -1.0000 -0.0000
vn -0.0000 -0.0000 -1.0000
vn 1.0000 -0.0000 -0.0000
vn 0.8262 0.5633 -0.0000
vn 0.9010 0.4339 -0.0000
vn -0.9556 0.2948 -0.0000
vn -0.9010 0.4339 -0.0000
vn -0.5878 0.8090 -0.0000
vn -0.4540 0.8910 -0.0000
vn -0.1564 -0.9877 -0.0000
vn -0.9511 -0.3090 -0.0000
vn -0.8910 -0.4540 -0.0000
vn 0.9888 0.1490 -0.0000
vn 0.9556 0.2948 -0.0000
vn -0.7331 0.6802 -0.0000
vn -0.6235 0.7818 -0.0000
vn -0.5000 0.8660 -0.0000
vn 0.5000 0.8660 -0.0000
vn 0.3653 0.9309 -0.0000
vn -0.9993 0.0374 -0.0000
vn -1.0000 -0.0000 -0.0000
vn 0.5878 -0.8090 -0.0000
vn 0.4540 -0.8910 -0.0000
vn -0.0747 0.9972 -0.0000
vn 0.0747 0.9972 -0.0000
vn -0.9458 -0.3247 -0.0000
vn -0.8795 -0.4759 -0.0000
vn -0.8090 -0.5878 -0.0000
vn -0.7071 -0.7071 -0.0000
vn -0.5878 -0.8090 -0.0000
vn 0.8090 -0.5878 -0.0000
vn 0.7071 -0.7071 -0.0000
vn -0.0000 1.0000 -0.0000
vn 0.1564 0.9877 -0.0000
vn -0.9888 0.1490 -0.0000
vn 0.9511 -0.3090 -0.0000
vn 0.8910 -0.4540 -0.0000
vn 0.8910 0.4540 -0.0000
vn 0.8090 0.5878 -0.0000
vn 0.9877 -0.1564 -0.0000
vn 0.9511 0.3090 -0.0000
vn -0.9877 0.1564 -0.0000
vn -0.9992 0.0393 -0.0000
vn -0.2225 0.9749 -0.0000
vn 0.9864 -0.1646 -0.0000
vn 0.9991 -0.0413 -0.0000
vn 0.9993 0.0374 -0.0000
vn 0.9458 -0.3247 -0.0000
vn 0.8795 -0.4759 -0.0000
vn 0.3090 -0.9511 -0.0000
vn 0.1564 -0.9877 -0.0000
vn -0.0826 -0.9966 -0.0000
vn -0.2455 -0.9694 -0.0000
vn -0.3090 -0.9511 -0.0000
vn -0.4540 -0.8910 -0.0000
vn 0.7891 -0.6142 -0.0000
vn 0.6773 -0.7357 -0.0000
vn -0.6773 -0.7357 -0.0000
vn -0.5470 -0.8372 -0.0000
vn 0.5470 -0.8372 -0.0000
vn 0.9992 -0.0393 -0.0000
vn 0.4017 -0.9158 -0.0000
vn 0.2455 -0.9694 -0.0000
vn 0.5469 -0.8372 -0.0000
vn -0.9991 -0.0413 -0.0000
vn -0.9864 -0.1646 -0.0000
vn -0.3090 0.9511 -0.0000
vn 0.0826 -0.9966 -0.0000
vn -0.8910 0.4540 -0.0000
vn -0.8090 0.5878 -0.0000
vn 0.7071 0.7071 -0.0000
vn 0.5878 0.8090 -0.0000
vn 0.2225 0.9749 -0.0000
vn -0.7891 -0.6142 -0.0000
vn -0.9877 -0.1564 -0.0000
vn 0.7331 0.6802 -0.0000
vn 0.6235 0.7818 -0.0000
vn -0.8262 0.5633 -0.0000
vn -0.9992 -0.0393 -0.0000
vn -0.9511 0.3090 -0.0000
vn -0.3653 0.9309 -0.0000
vn -0.7071 0.7071 -0.0000
vn -0.1564 0.9877 -0.0000
vn 0.3090 0.9511 -0.0000
vn 0.4540 0.8910 -0.0000
vn 0.9877 0.1564 -0.0000
vn 0.9992 0.0393 -0.0000
s 1
usemtl paint
f 46//1 23//2 22//1
f 5//3 3//3 6//3
f 1//3 5//3 7//3
f 1//3 7//3 8//3
f 1//3 8//3 9//3
f 1//3 9//3 10//3
f 1//3 3//3 5//3
f 11//3 1//3 10//3
f 12//3 1//3 11//3
f 13//3 1//3 12//3
f 14//3 1//3 13//3
f 15//3 1//3 14//3
f 16//3 17//3 18//3
f 19//3 1//3 15//3
f 20//3 19//3 21//3
f 20//3 21//3 22//3
f 20//3 22//3 23//3
f 20//3 23//3 24//3
f 20//3 24//3 25//3
f 20//3 25//3 26//3
f 20//3 26//3 27//3
f 20//3 27//3 28//3
f 20//3 28//3 16//3
f 20//3 1//3 19//3
f 20//3 16//3 18//3
f 30//5 31//5 2//5
f 4//5 32//5 30//5
f 4//5 33//5 32//5
f 4//5 34//5 33//5
f 4//5 35//5 34//5
f 4//5 30//5 2//5
f 36//5 35//5 4//5
f 37//5 36//5 4//5
f 38//5 37//5 4//5
f 39//5 38//5 4//5
f 40//5 39//5 4//5
f 41//5 42//5 43//5
f 44//5 40//5 4//5
f 29//5 45//5 44//5
f 29//5 46//5 45//5
f 29//5 47//5 46//5
f 29//5 48//5 47//5
f 29//5 49//5 48//5
f 29//5 50//5 49//5
f 29//5 51//5 50//5
f 29//5 52//5 51//5
f 29//5 41//5 52//5
f 29//5 44//5 4//5
f 29//5 42//5 41//5
f 18//4 43//4 42//4
f 27//29 50//30 51//29
f 6//4 2//4 31//4
f 20//36 4//36 1//36
f 7//48 30//49 32//48
f 33//51 9//52 8//51
f 4//24 3//24 1//24
f 5//49 31//6 30//49
f 44//55 21//56 19//55
f 35//59 11//60 10//59
f 34//52 10//59 9//52
f 24//61 47//62 48//61
f 36//60 12//63 11//60
f 38//65 14//66 13//65
f 37//67 13//65 12//63
f 32//48 8//51 7//48
f 16//68 52//69 41//68
f 19//55 40//71 44//55
f 39//66 15//71 14//66
f 29//6 18//6 42//6
f 26//30 49//77 50//30
f 28//69 51//29 52//69
f 45//56 22//1 21//56
f 25//77 48//61 49//77
f 17//24 41//68 43//24
f 46//1 47//62 23//2
f 18//4 17//4 43//4
f 27//29 26//30 50//30
f 6//4 3//4 2//4
f 20//36 29//36 4//36
f 7//48 5//49 30//49
f 33//51 34//52 9//52
f 4//24 2//24 3//24
f 5//49 6//6 31//6
f 44//55 45//56 21//56
f 35//59 36//60 11//60
f 34//52 35//59 10//59
f 24//61 23//2 47//62
f 36//60 37//67 12//63
f 38//65 39//66 14//66
f 37//67 38//65 13//65
f 32//48 33//51 8//51
f 16//68 28//69 52//69
f 19//55 15//71 40//71
f 39//66 40//71 15//71
f 29//6 20//6 18//6
f 26//30 25//77 49//77
f 28//69 27//29 51//29
f 45//56 46//1 22//1
f 25//77 24//61 48//61
f 17//24 16//68 41//68
usemtl trim
f 164//4 160//4 165//4
f 150//6 148//6 149//6
f 139//7 87//8 140//8
f 124//9 59//10 125//10
f 108//4 78//13 74//4
f 154//5 157//5 152//5
f 84//14 115//15 116//14
f 79//16 141//17 83//17
f 127//18 65//19 128//19
f 128//19 67//20 129//20
f 89//21 135//22 85//22
f 54//23 97//24 53//24
f 104//25 68//26 66//25
f 132//27 77//28 133//28
f 92//31 113//32 114//31
f 94//32 112//33 113//32
f 102//34 64//35 62//34
f 122//38 57//9 124//9
f 100//39 60//40 58//39
f 55//3 54//3 30//3
f 56//3 55//3 30//3
f 57//3 55//3 56//3
f 58//3 57//3 56//3
f 59//3 57//3 58//3
f 60//3 59//3 58//3
f 61//3 59//3 60//3
f 62//3 61//3 60//3
f 63//3 61//3 62//3
f 64//3 63//3 62//3
f 65//3 63//3 64//3
f 66//3 65//3 64//3
f 67//3 65//3 66//3
f 68//3 67//3 66//3
f 69//3 68//3 70//3
f 69//3 67//3 68//3
f 71//3 70//3 72//3
f 71//3 69//3 70//3
f 73//3 72//3 74//3
f 73//3 71//3 72//3
f 54//3 31//3 30//3
f 77//3 74//3 78//3
f 77//3 73//3 74//3
f 79//3 41//3 75//3
f 79//3 80//3 41//3
f 81//3 77//3 78//3
f 81//3 78//3 82//3
f 83//3 80//3 79//3
f 83//3 84//3 80//3
f 85//3 81//3 82//3
f 85//3 82//3 86//3
f 87//3 84//3 83//3
f 87//3 88//3 84//3
f 89//3 85//3 86//3
f 89//3 86//3 90//3
f 91//3 88//3 87//3
f 91//3 92//3 88//3
f 93//3 89//3 90//3
f 93//3 90//3 94//3
f 95//3 92//3 91//3
f 95//3 94//3 92//3
f 95//3 93//3 94//3
f 99//43 58//39 56//43
f 131//47 73//27 132//27
f 76//6 121//50 75//50
f 106//53 72//54 70//53
f 83//17 140//8 87//8
f 103//35 66//25 64//35
f 110//57 86//58 82//57
f 143//3 148//3 147//3
f 142//16 75//50 121//50
f 156//4 152//4 157//4
f 30//64 96//6 98//64
f 163//36 162//36 159//36
f 147//36 146//36 143//36
f 31//4 97//4 96//4
f 134//76 85//22 135//22
f 55//38 123//23 54//23
f 148//4 144//4 149//4
f 80//78 116//14 117//78
f 133//28 81//76 134//76
f 95//79 137//80 93//80
f 107//54 74//4 72//54
f 122//5 98//5 123//5
f 99//5 98//5 122//5
f 124//5 99//5 122//5
f 100//5 99//5 124//5
f 125//5 100//5 124//5
f 101//5 100//5 125//5
f 126//5 101//5 125//5
f 102//5 101//5 126//5
f 127//5 102//5 126//5
f 103//5 102//5 127//5
f 128//5 103//5 127//5
f 104//5 103//5 128//5
f 129//5 104//5 128//5
f 105//5 104//5 129//5
f 130//5 106//5 105//5
f 130//5 105//5 129//5
f 131//5 107//5 106//5
f 131//5 106//5 130//5
f 132//5 108//5 107//5
f 132//5 107//5 131//5
f 41//3 76//3 75//3
f 133//5 109//5 108//5
f 133//5 108//5 132//5
f 142//5 121//5 118//5
f 142//5 118//5 117//5
f 134//5 109//5 133//5
f 134//5 110//5 109//5
f 141//5 142//5 117//5
f 141//5 117//5 116//5
f 135//5 110//5 134//5
f 135//5 111//5 110//5
f 140//5 141//5 116//5
f 140//5 116//5 115//5
f 136//5 111//5 135//5
f 136//5 112//5 111//5
f 139//5 140//5 115//5
f 139//5 115//5 114//5
f 137//5 112//5 136//5
f 137//5 113//5 112//5
f 138//5 139//5 114//5
f 138//5 114//5 113//5
f 138//5 113//5 137//5
f 123//5 96//5 97//5
f 105//26 70//53 68//26
f 146//24 145//24 143//24
f 91//7 138//79 95//79
f 118//5 120//5 119//5
f 125//10 61//81 126//81
f 90//33 111//58 112//33
f 146//5 149//5 144//5
f 154//24 153//24 151//24
f 109//13 82//57 78//13
f 151//3 156//3 155//3
f 158//6 156//6 157//6
f 43//24 118//82 119//24
f 88//15 114//31 115//15
f 155//36 154//36 151//36
f 166//6 164//6 165//6
f 162//5 165//5 160//5
f 159//3 164//3 163//3
f 41//82 117//78 118//82
f 162//24 161//24 159//24
f 129//20 69//84 130//84
f 93//80 136//21 89//21
f 101//40 62//34 60//40
f 126//81 63//18 127//18
f 130//84 71//47 131//47
f 56//43 98//64 99//43
f 76//4 119//4 120//4
f 164//4 161//4 160//4
f 150//6 147//6 148//6
f 139//7 91//7 87//8
f 124//9 57//9 59//10
f 108//4 109//13 78//13
f 154//5 158//5 157//5
f 84//14 88//15 115//15
f 79//16 142//16 141//17
f 127//18 63//18 65//19
f 128//19 65//19 67//20
f 89//21 136//21 135//22
f 54//23 123//23 97//24
f 104//25 105//26 68//26
f 132//27 73//27 77//28
f 92//31 94//32 113//32
f 94//32 90//33 112//33
f 102//34 103//35 64//35
f 122//38 55//38 57//9
f 100//39 101//40 60//40
f 54//3 53//3 31//3
f 99//43 100//39 58//39
f 131//47 71//47 73//27
f 76//6 120//6 121//50
f 106//53 107//54 72//54
f 83//17 141//17 140//8
f 103//35 104//25 66//25
f 110//57 111//58 86//58
f 143//3 145//3 148//3
f 142//16 79//16 75//50
f 156//4 153//4 152//4
f 30//64 31//6 96//6
f 163//36 166//36 162//36
f 147//36 150//36 146//36
f 31//4 53//4 97//4
f 134//76 81//76 85//22
f 55//38 122//38 123//23
f 148//4 145//4 144//4
f 80//78 84//14 116//14
f 133//28 77//28 81//76
f 95//79 138//79 137//80
f 107//54 108//4 74//4
f 41//3 43//3 76//3
f 123//5 98//5 96//5
f 105//26 106//53 70//53
f 146//24 144//24 145//24
f 91//7 139//7 138//79
f 118//5 121//5 120//5
f 125//10 59//10 61//81
f 90//33 86//58 111//58
f 146//5 150//5 149//5
f 154//24 152//24 153//24
f 109//13 110//57 82//57
f 151//3 153//3 156//3
f 158//6 155//6 156//6
f 43//24 41//82 118//82
f 88//15 92//31 114//31
f 155//36 158//36 154//36
f 166//6 163//6 164//6
f 162//5 166//5 165//5
f 159//3 161//3 164//3
f 41//82 80//78 117//78
f 162//24 160//24 161//24
f 129//20 67//20 69//84
f 93//80 137//80 136//21
f 101//40 102//34 62//34
f 126//81 61//81 63//18
f 130//84 69//84 71//47
f 56//43 30//64 98//64
f 76//4 43//4 119//4
usemtl dark
f 181//11 184//12 183//12
f 189//36 192//37 191//37
f 204//41 201//42 202//42
f 203//41 206//44 205//44
f 172//45 167//46 170//46
f 183//12 186//70 185//70
f 175//72 178//73 177//73
f 200//74 197//75 198//75
f 211//5 167//5 209//5
f 212//3 170//3 169//3
f 173//83 176//72 175//72
f 170//46 168//24 169//24
f 179//85 182//11 181//11
f 177//73 180//85 179//85
f 171//45 174//83 173//83
f 185//70 188//86 187//86
f 191//37 194//87 193//87
f 198//75 195//88 196//88
f 193//87 196//88 195//88
f 187//86 190//36 189//36
f 207//89 210//90 209//90
f 202//42 199//74 200//74
f 205//44 208//89 207//89
f 175//5 167//5 171//5
f 175//5 171//5 173//5
f 179//5 175//5 177//5
f 183//5 179//5 181//5
f 183//5 175//5 179//5
f 169//4 211//4 212//4
f 189//5 185//5 187//5
f 191//5 183//5 185//5
f 191//5 185//5 189//5
f 201//5 203//5 205//5
f 201//5 205//5 207//5
f 201//5 207//5 209//5
f 197//5 191//5 193//5
f 197//5 193//5 195//5
f 199//5 183//5 191//5
f 199//5 167//5 175//5
f 199//5 175//5 183//5
f 199//5 209//5 167//5
f 199//5 201//5 209//5
f 199//5 191//5 197//5
f 176//3 172//3 170//3
f 176//3 174//3 172//3
f 180//3 178//3 176//3
f 184//3 182//3 180//3
f 184//3 180//3 176//3
f 212//6 209//90 210//90
f 190//3 188//3 186//3
f 192//3 186//3 184//3
f 192//3 190//3 186//3
f 202//3 206//3 204//3
f 202//3 208//3 206//3
f 202//3 210//3 208//3
f 198//3 194//3 192//3
f 198//3 196//3 194//3
f 200//3 192//3 184//3
f 200//3 176//3 170//3
f 200//3 184//3 176//3
f 200//3 170//3 210//3
f 200//3 210//3 202//3
f 200//3 198//3 192//3
f 181//11 182//11 184//12
f 189//36 190//36 192//37
f 204//41 203//41 201//42
f 203//41 204//41 206//44
f 172//45 171//45 167//46
f 183//12 184//12 186//70
f 175//72 176//72 178//73
f 200//74 199//74 197//75
f 211//5 168//5 167//5
f 212//3 210//3 170//3
f 173//83 174//83 176//72
f 170//46 167//46 168//24
f 179//85 180//85 182//11
f 177//73 178//73 180//85
f 171//45 172//45 174//83
f 185//70 186//70 188//86
f 191//37 192//37 194//87
f 198//75 197//75 195//88
f 193//87 194//87 196//88
f 187//86 188//86 190//36
f 207//89 208//89 210//90
f 202//42 201//42 199//74
f 205//44 206//44 208//89
f 169//4 168//4 211//4
f 212//6 211//6 209//90
