# Blender 5.2.1 LTS
# www.blender.org
mtllib balustrade_run.mtl
o balustrade_run
v -0.500000 0.075000 0.000000
v -0.500000 0.000000 -0.200000
v -0.500000 0.000000 0.000000
v -0.500000 0.075000 -0.200000
v 0.500000 0.075000 0.000000
v 0.500000 0.000000 0.000000
v 0.500000 0.000000 -0.200000
v 0.500000 0.075000 -0.200000
v -0.500000 0.100000 -0.020000
v -0.500000 0.075000 -0.180000
v -0.500000 0.075000 -0.020000
v -0.500000 0.100000 -0.180000
v 0.500000 0.100000 -0.020000
v 0.500000 0.075000 -0.020000
v 0.500000 0.075000 -0.180000
v 0.500000 0.100000 -0.180000
v -0.500000 0.917500 0.000000
v -0.500000 0.820000 -0.220000
v -0.500000 0.820000 0.000000
v -0.500000 0.917500 -0.220000
v 0.500000 0.917500 0.000000
v 0.500000 0.820000 0.000000
v 0.500000 0.820000 -0.220000
v 0.500000 0.917500 -0.220000
v -0.500000 0.950000 -0.020000
v -0.500000 0.917500 -0.200000
v -0.500000 0.917500 -0.020000
v -0.500000 0.950000 -0.200000
v 0.500000 0.950000 -0.020000
v 0.500000 0.917500 -0.020000
v 0.500000 0.917500 -0.200000
v 0.500000 0.950000 -0.200000
v -0.419710 0.100000 -0.132354
v -0.321476 0.100000 -0.113453
v -0.320540 0.100000 -0.089154
v -0.329305 0.100000 -0.130948
v -0.342646 0.100000 -0.144710
v -0.359889 0.100000 -0.153080
v -0.378955 0.100000 -0.155047
v -0.401698 0.100000 -0.148691
v -0.429460 0.100000 -0.110846
v -0.427587 0.100000 -0.082163
v -0.411623 0.100000 -0.058259
v -0.390111 0.100000 -0.046920
v -0.371045 0.100000 -0.044953
v -0.352457 0.100000 -0.049625
v -0.333259 0.100000 -0.063377
v -0.321784 0.169843 -0.114536
v -0.320039 0.170042 -0.100017
v -0.327411 0.170042 -0.127495
v -0.336310 0.170202 -0.139352
v -0.347535 0.170042 -0.147606
v -0.361169 0.170202 -0.153425
v -0.375017 0.170042 -0.154961
v -0.389735 0.170202 -0.153182
v -0.402495 0.170042 -0.147589
v -0.414352 0.170202 -0.138690
v -0.422606 0.170042 -0.127465
v -0.428425 0.170202 -0.113831
v -0.429961 0.170042 -0.099983
v -0.428182 0.170202 -0.085265
v -0.422589 0.170042 -0.072505
v -0.413690 0.170202 -0.060648
v -0.402465 0.170042 -0.052394
v -0.388831 0.170202 -0.046575
v -0.374983 0.170042 -0.045039
v -0.360265 0.170202 -0.046818
v -0.347505 0.170042 -0.052411
v -0.335648 0.170202 -0.061310
v -0.327394 0.170042 -0.072535
v -0.321575 0.170202 -0.086169
v -0.335006 0.199960 -0.103460
v -0.336723 0.199825 -0.087892
v -0.337337 0.199891 -0.113667
v -0.342090 0.199963 -0.122985
v -0.347185 0.199737 -0.128892
v -0.354934 0.199901 -0.134681
v -0.366327 0.199780 -0.139221
v -0.371549 0.199963 -0.139993
v -0.385384 0.199739 -0.138782
v -0.395002 0.199901 -0.134718
v -0.404662 0.199816 -0.127064
v -0.411360 0.199963 -0.117008
v -0.413928 0.199737 -0.109642
v -0.415068 0.199901 -0.100037
v -0.413269 0.199816 -0.087844
v -0.407910 0.199963 -0.077015
v -0.402815 0.199737 -0.071108
v -0.395066 0.199901 -0.065319
v -0.383673 0.199780 -0.060779
v -0.378451 0.199963 -0.060007
v -0.364616 0.199739 -0.061218
v -0.354998 0.199901 -0.065282
v -0.347185 0.199737 -0.071108
v -0.342090 0.199963 -0.077015
v -0.316750 0.337500 -0.102267
v -0.324710 0.279742 -0.100000
v -0.317881 0.337600 -0.089928
v -0.336476 0.279742 -0.132326
v -0.382727 0.234400 -0.143824
v -0.320182 0.337518 -0.119479
v -0.328061 0.337922 -0.134523
v -0.342230 0.337968 -0.148157
v -0.348250 0.303200 -0.146332
v -0.359609 0.338201 -0.156150
v -0.416816 0.234400 -0.115220
v -0.365106 0.336580 -0.157226
v -0.378626 0.338173 -0.158035
v -0.385292 0.336658 -0.157167
v -0.397528 0.338277 -0.153577
v -0.404219 0.336660 -0.150202
v -0.413863 0.338375 -0.143188
v -0.409089 0.234400 -0.071396
v -0.419623 0.336664 -0.137186
v -0.425867 0.338441 -0.128041
v -0.429648 0.336669 -0.119689
v -0.432241 0.338468 -0.109817
v -0.433087 0.336674 -0.099819
v -0.432297 0.338451 -0.090514
v -0.366267 0.279742 -0.050474
v -0.429525 0.336680 -0.079970
v -0.426025 0.338391 -0.072247
v -0.419392 0.336686 -0.062536
v -0.414095 0.338291 -0.057025
v -0.336476 0.279741 -0.067674
v -0.403909 0.336693 -0.049616
v -0.397792 0.338158 -0.046541
v -0.384941 0.336699 -0.042767
v -0.378883 0.338015 -0.041992
v -0.360420 0.337923 -0.043624
v -0.343570 0.337444 -0.050872
v -0.328219 0.337750 -0.065289
v -0.320193 0.337671 -0.080457
v -0.331373 0.432987 -0.113941
v -0.330000 0.439127 -0.100000
v -0.331387 0.433064 -0.086036
v -0.339987 0.438470 -0.128418
v -0.333989 0.452578 -0.115759
v -0.351188 0.439001 -0.138297
v -0.365472 0.439083 -0.144077
v -0.380502 0.437550 -0.144948
v -0.393177 0.432873 -0.141979
v -0.405802 0.433755 -0.133667
v -0.397320 0.442944 -0.138679
v -0.415037 0.434282 -0.121750
v -0.409234 0.442491 -0.128752
v -0.419907 0.434536 -0.107507
v -0.416978 0.442725 -0.115288
v -0.419900 0.434561 -0.092463
v -0.419657 0.442866 -0.100005
v -0.415016 0.434359 -0.078227
v -0.416984 0.442726 -0.084728
v -0.405770 0.433892 -0.066322
v -0.409205 0.442977 -0.071304
v -0.393141 0.433079 -0.058028
v -0.397321 0.443111 -0.061345
v -0.378449 0.431927 -0.054254
v -0.382767 0.442816 -0.056003
v -0.363527 0.432352 -0.055610
v -0.350870 0.438077 -0.061796
v -0.340000 0.438395 -0.071583
v -0.333947 0.451870 -0.084142
v -0.346846 0.646937 -0.100000
v -0.348741 0.646896 -0.109991
v -0.353742 0.646896 -0.118369
v -0.379878 0.647156 -0.127609
v -0.361339 0.647101 -0.124551
v -0.370527 0.647232 -0.127727
v -0.396741 0.647103 -0.117769
v -0.367608 0.468229 -0.058075
v -0.401364 0.647079 -0.109587
v -0.389106 0.646962 -0.124358
v -0.379856 0.647037 -0.072377
v -0.360974 0.647064 -0.075716
v -0.403099 0.647246 -0.100486
v -0.401553 0.646962 -0.090805
v -0.388642 0.647446 -0.075437
v -0.396533 0.647521 -0.081883
v -0.370088 0.647238 -0.072306
v -0.353711 0.647116 -0.081700
v -0.348735 0.646932 -0.090045
v -0.341624 0.769584 -0.110902
v -0.339952 0.769571 -0.100000
v -0.341620 0.769588 -0.089123
v -0.349115 0.769672 -0.123708
v -0.358275 0.769563 -0.130865
v -0.345043 0.769637 -0.118109
v -0.368509 0.769537 -0.134470
v -0.393637 0.769627 -0.129740
v -0.379371 0.769544 -0.134879
v -0.386749 0.769644 -0.132969
v -0.401973 0.769545 -0.122409
v -0.407624 0.769587 -0.087054
v -0.407624 0.769587 -0.112946
v -0.410078 0.769671 -0.101712
v -0.409668 0.769623 -0.095075
v -0.402004 0.769538 -0.077621
v -0.379716 0.769648 -0.065219
v -0.393940 0.769532 -0.070392
v -0.386749 0.769644 -0.067031
v -0.368552 0.769550 -0.065531
v -0.358275 0.769563 -0.069135
v -0.349388 0.769567 -0.075932
v -0.345043 0.769637 -0.081891
v -0.375000 0.820000 -0.100000
v -0.172466 0.100000 -0.128818
v -0.072413 0.100000 -0.117837
v -0.070540 0.100000 -0.089154
v -0.085374 0.100000 -0.138413
v -0.100901 0.100000 -0.149649
v -0.123776 0.100000 -0.155516
v -0.151698 0.100000 -0.148691
v -0.179897 0.100000 -0.105664
v -0.178524 0.100000 -0.086547
v -0.170695 0.100000 -0.069052
v -0.153818 0.100000 -0.052534
v -0.130664 0.100000 -0.045103
v -0.107163 0.100000 -0.047413
v -0.083259 0.100000 -0.063377
v -0.071784 0.169843 -0.114536
v -0.070039 0.170042 -0.100017
v -0.077411 0.170042 -0.127495
v -0.086310 0.170202 -0.139352
v -0.097535 0.170042 -0.147606
v -0.111169 0.170202 -0.153425
v -0.125017 0.170042 -0.154961
v -0.139735 0.170202 -0.153182
v -0.152495 0.170042 -0.147589
v -0.164352 0.170202 -0.138690
v -0.172606 0.170042 -0.127465
v -0.178425 0.170202 -0.113831
v -0.179961 0.170042 -0.099983
v -0.178182 0.170202 -0.085265
v -0.172589 0.170042 -0.072505
v -0.163690 0.170202 -0.060648
v -0.152465 0.170042 -0.052394
v -0.138831 0.170202 -0.046575
v -0.124983 0.170042 -0.045039
v -0.110265 0.170202 -0.046818
v -0.097505 0.170042 -0.052411
v -0.085648 0.170202 -0.061310
v -0.077394 0.170042 -0.072535
v -0.071575 0.170202 -0.086169
v -0.085006 0.199960 -0.103460
v -0.086723 0.199825 -0.087892
v -0.087337 0.199892 -0.113667
v -0.092090 0.199963 -0.122985
v -0.097185 0.199737 -0.128892
v -0.104934 0.199901 -0.134681
v -0.116327 0.199780 -0.139221
v -0.121549 0.199963 -0.139993
v -0.135384 0.199739 -0.138782
v -0.145002 0.199901 -0.134718
v -0.154630 0.199780 -0.127122
v -0.157910 0.199963 -0.122985
v -0.163778 0.199739 -0.110398
v -0.165068 0.199901 -0.100037
v -0.163269 0.199816 -0.087844
v -0.157910 0.199963 -0.077015
v -0.152815 0.199737 -0.071108
v -0.145066 0.199901 -0.065319
v -0.133673 0.199780 -0.060779
v -0.128451 0.199963 -0.060007
v -0.114616 0.199739 -0.061218
v -0.104998 0.199901 -0.065282
v -0.097185 0.199737 -0.071108
v -0.092090 0.199963 -0.077015
v -0.066750 0.337500 -0.102267
v -0.074710 0.279742 -0.100000
v -0.067881 0.337600 -0.089928
v -0.086476 0.279742 -0.132326
v -0.132727 0.234400 -0.143824
v -0.070182 0.337518 -0.119479
v -0.078060 0.337922 -0.134523
v -0.092230 0.337968 -0.148157
v -0.098250 0.303200 -0.146332
v -0.109609 0.338201 -0.156150
v -0.166816 0.234400 -0.115220
v -0.115106 0.336580 -0.157226
v -0.128626 0.338173 -0.158035
v -0.135292 0.336658 -0.157167
v -0.147528 0.338277 -0.153577
v -0.154219 0.336661 -0.150202
v -0.163863 0.338375 -0.143188
v -0.159089 0.234400 -0.071396
v -0.169623 0.336664 -0.137186
v -0.175867 0.338441 -0.128041
v -0.179648 0.336669 -0.119689
v -0.182241 0.338468 -0.109817
v -0.183087 0.336674 -0.099819
v -0.182297 0.338451 -0.090514
v -0.116267 0.279742 -0.050474
v -0.179525 0.336680 -0.079970
v -0.176025 0.338391 -0.072247
v -0.169392 0.336686 -0.062536
v -0.164095 0.338291 -0.057025
v -0.086476 0.279742 -0.067674
v -0.153909 0.336692 -0.049616
v -0.147792 0.338158 -0.046541
v -0.134941 0.336699 -0.042767
v -0.128883 0.338015 -0.041992
v -0.110420 0.337923 -0.043624
v -0.093570 0.337444 -0.050872
v -0.078219 0.337750 -0.065289
v -0.070193 0.337671 -0.080457
v -0.081373 0.432987 -0.113941
v -0.080000 0.439128 -0.100000
v -0.081387 0.433064 -0.086036
v -0.090166 0.439293 -0.128480
v -0.084036 0.453889 -0.115519
v -0.101188 0.439000 -0.138297
v -0.115086 0.437429 -0.144186
v -0.130502 0.437550 -0.144948
v -0.143177 0.432873 -0.141979
v -0.155802 0.433755 -0.133667
v -0.147328 0.442627 -0.138717
v -0.165037 0.434282 -0.121750
v -0.159212 0.442809 -0.128719
v -0.169907 0.434536 -0.107507
v -0.166978 0.442725 -0.115288
v -0.169900 0.434561 -0.092463
v -0.169716 0.442380 -0.100018
v -0.165015 0.434359 -0.078227
v -0.167022 0.442411 -0.084723
v -0.155770 0.433892 -0.066322
v -0.159222 0.442810 -0.071294
v -0.143141 0.433079 -0.058028
v -0.147357 0.442635 -0.061301
v -0.128449 0.431927 -0.054254
v -0.132767 0.442816 -0.056003
v -0.115083 0.437873 -0.055895
v -0.100870 0.438076 -0.061796
v -0.090000 0.438394 -0.071583
v -0.083947 0.451870 -0.084142
v -0.096917 0.647234 -0.100406
v -0.098481 0.646932 -0.090743
v -0.098751 0.647232 -0.109990
v -0.120141 0.647156 -0.127613
v -0.103742 0.647278 -0.118349
v -0.111357 0.647026 -0.124568
v -0.151355 0.647007 -0.090402
v -0.129548 0.647110 -0.127703
v -0.138721 0.646932 -0.124509
v -0.129501 0.646952 -0.072272
v -0.146240 0.646962 -0.118398
v -0.119767 0.647103 -0.072413
v -0.151254 0.647041 -0.110000
v -0.110606 0.646878 -0.075871
v -0.153117 0.647060 -0.099977
v -0.103259 0.647103 -0.082231
v -0.146790 0.647052 -0.082267
v -0.139075 0.646784 -0.075635
v -0.091508 0.769522 -0.110649
v -0.089935 0.769547 -0.100000
v -0.091620 0.769588 -0.089123
v -0.108244 0.769578 -0.130837
v -0.099388 0.769567 -0.124068
v -0.095043 0.769637 -0.118109
v -0.118509 0.769537 -0.134470
v -0.143686 0.769605 -0.129724
v -0.151939 0.769573 -0.122420
v -0.129371 0.769544 -0.134879
v -0.136749 0.769644 -0.132969
v -0.157624 0.769587 -0.087054
v -0.157617 0.769570 -0.112992
v -0.151950 0.769566 -0.077586
v -0.160103 0.769573 -0.102066
v -0.159668 0.769623 -0.095075
v -0.129701 0.769619 -0.065198
v -0.143637 0.769627 -0.070260
v -0.136749 0.769644 -0.067031
v -0.118552 0.769550 -0.065531
v -0.108229 0.769575 -0.069168
v -0.099334 0.769557 -0.075973
v -0.095043 0.769637 -0.081891
v -0.125000 0.820000 -0.100000
v 0.098302 0.100000 -0.148691
v 0.178524 0.100000 -0.113453
v 0.179460 0.100000 -0.089154
v 0.170695 0.100000 -0.130948
v 0.153818 0.100000 -0.147466
v 0.126224 0.100000 -0.155516
v 0.077534 0.100000 -0.128818
v 0.070103 0.100000 -0.105664
v 0.071476 0.100000 -0.086547
v 0.081685 0.100000 -0.065253
v 0.104862 0.100000 -0.048251
v 0.128955 0.100000 -0.044953
v 0.151698 0.100000 -0.051309
v 0.169710 0.100000 -0.067646
v 0.178216 0.169843 -0.114536
v 0.179961 0.170042 -0.100017
v 0.172589 0.170042 -0.127495
v 0.163690 0.170202 -0.139352
v 0.152465 0.170042 -0.147606
v 0.138831 0.170202 -0.153425
v 0.124983 0.170042 -0.154961
v 0.110265 0.170202 -0.153182
v 0.097505 0.170042 -0.147589
v 0.085648 0.170202 -0.138690
v 0.077394 0.170042 -0.127465
v 0.071575 0.170202 -0.113831
v 0.070039 0.170042 -0.099983
v 0.071818 0.170202 -0.085265
v 0.077411 0.170042 -0.072505
v 0.086310 0.170202 -0.060648
v 0.097535 0.170042 -0.052394
v 0.111169 0.170202 -0.046575
v 0.125017 0.170042 -0.045039
v 0.139735 0.170202 -0.046818
v 0.152495 0.170042 -0.052411
v 0.164352 0.170202 -0.061310
v 0.172606 0.170042 -0.072535
v 0.178425 0.170202 -0.086169
v 0.164994 0.199960 -0.103460
v 0.163277 0.199825 -0.087892
v 0.162663 0.199892 -0.113667
v 0.157910 0.199963 -0.122985
v 0.152815 0.199737 -0.128892
v 0.145066 0.199901 -0.134681
v 0.133673 0.199780 -0.139221
v 0.128451 0.199963 -0.139993
v 0.114616 0.199739 -0.138782
v 0.104998 0.199901 -0.134718
v 0.095370 0.199780 -0.127122
v 0.092090 0.199963 -0.122985
v 0.086222 0.199739 -0.110398
v 0.084932 0.199901 -0.100037
v 0.086731 0.199816 -0.087844
v 0.092090 0.199963 -0.077015
v 0.097185 0.199737 -0.071108
v 0.104934 0.199901 -0.065319
v 0.116327 0.199780 -0.060779
v 0.121549 0.199963 -0.060007
v 0.135384 0.199739 -0.061218
v 0.145002 0.199901 -0.065282
v 0.152815 0.199737 -0.071108
v 0.157910 0.199963 -0.077015
v 0.183250 0.337500 -0.102267
v 0.175290 0.279742 -0.100000
v 0.182119 0.337600 -0.089928
v 0.163524 0.279743 -0.132326
v 0.117273 0.234400 -0.143824
v 0.179818 0.337518 -0.119479
v 0.171940 0.337922 -0.134523
v 0.157770 0.337968 -0.148157
v 0.151750 0.303200 -0.146332
v 0.140391 0.338201 -0.156150
v 0.083184 0.234400 -0.115220
v 0.134894 0.336580 -0.157226
v 0.121374 0.338173 -0.158035
v 0.114708 0.336658 -0.157167
v 0.102472 0.338277 -0.153577
v 0.095781 0.336661 -0.150202
v 0.086137 0.338375 -0.143188
v 0.090911 0.234400 -0.071396
v 0.080377 0.336664 -0.137186
v 0.074133 0.338441 -0.128041
v 0.070352 0.336669 -0.119689
v 0.067759 0.338468 -0.109817
v 0.066913 0.336674 -0.099819
v 0.067703 0.338451 -0.090514
v 0.133733 0.279742 -0.050474
v 0.070475 0.336680 -0.079970
v 0.073975 0.338391 -0.072247
v 0.080608 0.336686 -0.062536
v 0.085905 0.338291 -0.057025
v 0.163524 0.279742 -0.067674
v 0.096091 0.336692 -0.049616
v 0.102208 0.338158 -0.046541
v 0.115060 0.336699 -0.042767
v 0.121117 0.338015 -0.041992
v 0.139580 0.337923 -0.043624
v 0.156430 0.337444 -0.050872
v 0.171781 0.337750 -0.065289
v 0.179807 0.337671 -0.080457
v 0.168627 0.432987 -0.113941
v 0.170000 0.439128 -0.100000
v 0.167689 0.439064 -0.085526
v 0.160013 0.438470 -0.128418
v 0.166012 0.452577 -0.115759
v 0.149157 0.437529 -0.138284
v 0.134914 0.437429 -0.144186
v 0.119498 0.437550 -0.144948
v 0.106823 0.432873 -0.141979
v 0.094198 0.433755 -0.133667
v 0.102680 0.442943 -0.138679
v 0.084963 0.434282 -0.121750
v 0.090766 0.442491 -0.128752
v 0.080093 0.434536 -0.107507
v 0.083022 0.442725 -0.115288
v 0.080100 0.434560 -0.092463
v 0.080322 0.442697 -0.100008
v 0.084985 0.434359 -0.078227
v 0.083016 0.442726 -0.084728
v 0.094230 0.433892 -0.066322
v 0.090778 0.442810 -0.071294
v 0.106859 0.433079 -0.058028
v 0.102667 0.442946 -0.061330
v 0.121551 0.431927 -0.054254
v 0.117244 0.443123 -0.056038
v 0.134917 0.437873 -0.055895
v 0.148819 0.439065 -0.061740
v 0.160294 0.439285 -0.072006
v 0.151413 0.647060 -0.109638
v 0.153051 0.647123 -0.100011
v 0.151512 0.647232 -0.090749
v 0.146258 0.646896 -0.118369
v 0.138708 0.646967 -0.124518
v 0.129501 0.646952 -0.127728
v 0.120122 0.647156 -0.127609
v 0.111321 0.647052 -0.124538
v 0.098751 0.647232 -0.090010
v 0.103733 0.646860 -0.118356
v 0.103773 0.647014 -0.081583
v 0.098749 0.646962 -0.110024
v 0.111357 0.647026 -0.075432
v 0.096871 0.647202 -0.099985
v 0.120144 0.647227 -0.072383
v 0.129548 0.647111 -0.072297
v 0.138716 0.647236 -0.075498
v 0.146586 0.646962 -0.081936
v 0.158492 0.769522 -0.110649
v 0.160050 0.769568 -0.099988
v 0.158497 0.769530 -0.089391
v 0.150885 0.769672 -0.123708
v 0.141725 0.769563 -0.130865
v 0.131364 0.769578 -0.134467
v 0.154957 0.769637 -0.118109
v 0.106314 0.769605 -0.129724
v 0.098047 0.769568 -0.122409
v 0.120629 0.769544 -0.134879
v 0.113251 0.769644 -0.132969
v 0.092376 0.769587 -0.112946
v 0.089917 0.769617 -0.098024
v 0.098061 0.769573 -0.077580
v 0.090332 0.769623 -0.104925
v 0.092454 0.769547 -0.086809
v 0.106337 0.769600 -0.070256
v 0.120613 0.769590 -0.065155
v 0.113251 0.769644 -0.067031
v 0.131448 0.769550 -0.065531
v 0.141542 0.769512 -0.069003
v 0.150890 0.769641 -0.076267
v 0.154957 0.769637 -0.081891
v 0.125000 0.820000 -0.100000
v 0.333259 0.100000 -0.136623
v 0.427587 0.100000 -0.117837
v 0.411623 0.100000 -0.141741
v 0.385846 0.100000 -0.154460
v 0.357163 0.100000 -0.152587
v 0.320540 0.100000 -0.110846
v 0.321476 0.100000 -0.086547
v 0.329305 0.100000 -0.069052
v 0.342646 0.100000 -0.055290
v 0.359889 0.100000 -0.046920
v 0.383435 0.100000 -0.045115
v 0.405948 0.100000 -0.054305
v 0.419710 0.100000 -0.067646
v 0.429460 0.100000 -0.089154
v 0.428216 0.169843 -0.114536
v 0.429961 0.170042 -0.100017
v 0.422589 0.170042 -0.127495
v 0.413690 0.170202 -0.139352
v 0.402465 0.170042 -0.147606
v 0.388831 0.170202 -0.153425
v 0.374983 0.170042 -0.154961
v 0.360265 0.170202 -0.153182
v 0.347505 0.170042 -0.147589
v 0.335648 0.170202 -0.138690
v 0.327394 0.170042 -0.127465
v 0.321575 0.170202 -0.113831
v 0.320039 0.170042 -0.099983
v 0.321818 0.170202 -0.085265
v 0.327411 0.170042 -0.072505
v 0.336310 0.170202 -0.060648
v 0.347535 0.170042 -0.052394
v 0.361169 0.170202 -0.046575
v 0.375017 0.170042 -0.045039
v 0.389735 0.170202 -0.046818
v 0.402495 0.170042 -0.052411
v 0.414352 0.170202 -0.061310
v 0.422606 0.170042 -0.072535
v 0.428425 0.170202 -0.086169
v 0.414994 0.199960 -0.103460
v 0.413277 0.199825 -0.087892
v 0.412663 0.199892 -0.113667
v 0.407910 0.199963 -0.122985
v 0.402815 0.199737 -0.128892
v 0.395066 0.199901 -0.134681
v 0.383673 0.199780 -0.139221
v 0.378451 0.199963 -0.139993
v 0.364616 0.199739 -0.138782
v 0.354998 0.199901 -0.134718
v 0.345338 0.199816 -0.127064
v 0.338640 0.199963 -0.117008
v 0.336072 0.199737 -0.109642
v 0.334932 0.199901 -0.100037
v 0.336731 0.199816 -0.087844
v 0.342090 0.199963 -0.077015
v 0.347185 0.199737 -0.071108
v 0.354934 0.199901 -0.065319
v 0.366393 0.199816 -0.060780
v 0.378451 0.199963 -0.060007
v 0.386114 0.199737 -0.061466
v 0.395002 0.199901 -0.065282
v 0.402815 0.199737 -0.071108
v 0.407910 0.199963 -0.077015
v 0.433250 0.337500 -0.102267
v 0.425290 0.279741 -0.100000
v 0.432119 0.337600 -0.089928
v 0.413524 0.279742 -0.132326
v 0.367273 0.234400 -0.143824
v 0.429818 0.337518 -0.119479
v 0.421939 0.337922 -0.134523
v 0.407770 0.337968 -0.148157
v 0.401750 0.303200 -0.146332
v 0.390391 0.338201 -0.156150
v 0.333184 0.234401 -0.115220
v 0.384894 0.336580 -0.157226
v 0.371374 0.338173 -0.158035
v 0.364708 0.336658 -0.157167
v 0.352472 0.338277 -0.153577
v 0.345781 0.336661 -0.150202
v 0.336137 0.338375 -0.143188
v 0.340911 0.234400 -0.071396
v 0.330377 0.336664 -0.137186
v 0.324133 0.338441 -0.128041
v 0.320352 0.336669 -0.119689
v 0.317759 0.338468 -0.109817
v 0.316913 0.336674 -0.099819
v 0.317703 0.338451 -0.090514
v 0.383733 0.279742 -0.050474
v 0.320475 0.336680 -0.079970
v 0.323976 0.338391 -0.072247
v 0.330608 0.336686 -0.062536
v 0.335905 0.338291 -0.057025
v 0.413524 0.279741 -0.067674
v 0.346091 0.336693 -0.049616
v 0.352208 0.338158 -0.046541
v 0.365059 0.336699 -0.042767
v 0.371117 0.338015 -0.041992
v 0.389580 0.337923 -0.043624
v 0.406430 0.337444 -0.050872
v 0.421781 0.337750 -0.065289
v 0.429807 0.337671 -0.080457
v 0.417542 0.439936 -0.114605
v 0.420000 0.439128 -0.100000
v 0.418613 0.433064 -0.086036
v 0.410124 0.439865 -0.128114
v 0.398575 0.439933 -0.138318
v 0.384528 0.439083 -0.144077
v 0.369498 0.437550 -0.144948
v 0.356823 0.432873 -0.141979
v 0.344198 0.433755 -0.133667
v 0.352672 0.442628 -0.138717
v 0.334963 0.434282 -0.121750
v 0.340766 0.442491 -0.128752
v 0.330093 0.434536 -0.107507
v 0.332990 0.442408 -0.115311
v 0.330100 0.434561 -0.092463
v 0.330284 0.442380 -0.100018
v 0.334985 0.434359 -0.078227
v 0.332978 0.442411 -0.084723
v 0.344230 0.433892 -0.066322
v 0.340778 0.442810 -0.071294
v 0.356859 0.433079 -0.058028
v 0.352679 0.443111 -0.061345
v 0.371551 0.431927 -0.054254
v 0.367233 0.442816 -0.056003
v 0.384917 0.437873 -0.055895
v 0.398819 0.439065 -0.061740
v 0.410000 0.438395 -0.071583
v 0.416053 0.451871 -0.084142
v 0.403092 0.647103 -0.100443
v 0.369721 0.646896 -0.127595
v 0.401225 0.647236 -0.110129
v 0.360973 0.647156 -0.124276
v 0.379422 0.647014 -0.127752
v 0.396231 0.647495 -0.118397
v 0.388641 0.647447 -0.124563
v 0.348463 0.646896 -0.109225
v 0.346908 0.646896 -0.099593
v 0.348739 0.646967 -0.090030
v 0.370482 0.647103 -0.072287
v 0.353425 0.646784 -0.118064
v 0.353742 0.647278 -0.081651
v 0.379884 0.647037 -0.072382
v 0.396484 0.647156 -0.081986
v 0.361423 0.647240 -0.075383
v 0.389088 0.647238 -0.075657
v 0.401446 0.646760 -0.090394
v 0.408351 0.769603 -0.110944
v 0.410053 0.769565 -0.100000
v 0.408354 0.769607 -0.089081
v 0.400612 0.769567 -0.124068
v 0.381364 0.769577 -0.134467
v 0.404957 0.769637 -0.118109
v 0.391612 0.769532 -0.130946
v 0.348064 0.769571 -0.122425
v 0.370299 0.769619 -0.134802
v 0.356097 0.769574 -0.129597
v 0.363251 0.769644 -0.132969
v 0.342393 0.769573 -0.086991
v 0.342383 0.769570 -0.112992
v 0.339912 0.769666 -0.101665
v 0.340332 0.769623 -0.095075
v 0.348002 0.769535 -0.077610
v 0.381364 0.769578 -0.065533
v 0.356337 0.769600 -0.070256
v 0.370613 0.769590 -0.065155
v 0.363251 0.769644 -0.067031
v 0.391564 0.769507 -0.069010
v 0.400666 0.769557 -0.075973
v 0.404957 0.769637 -0.081891
v 0.375000 0.820000 -0.100000
vn 0.8430 0.2271 -0.4876
vn 0.8292 -0.0070 -0.5589
vn 0.6844 0.2337 -0.6906
vn -0.9401 0.2322 -0.2496
vn -0.9782 -0.0131 -0.2071
vn -0.9733 0.2294 0.0069
vn 0.8182 -0.0092 0.5748
vn 0.6919 0.2338 0.6831
vn 0.5469 -0.0100 0.8372
vn 0.4889 0.2263 0.8424
vn 0.0033 0.2274 0.9738
vn 0.1545 -0.0095 0.9879
vn 0.2589 0.2321 0.9376
vn -0.0000 -1.0000 -0.0000
vn 0.9410 0.2319 0.2465
vn 0.9810 -0.0094 0.1936
vn 0.9734 0.2290 -0.0046
vn 0.2566 0.2331 0.9380
vn 0.4835 -0.0130 0.8753
vn 0.4908 0.2299 0.8404
vn -0.6862 0.2322 0.6893
vn -0.6685 -0.0131 0.7436
vn -0.4807 0.2293 0.8464
vn -0.2562 0.2320 -0.9384
vn -0.4807 -0.0185 -0.8767
vn -0.4917 0.2314 -0.8395
vn -0.9833 -0.0114 -0.1818
vn -0.9737 0.2277 0.0079
vn -0.4835 -0.0130 -0.8753
vn -0.6896 0.2321 -0.6859
vn 0.9416 0.2219 -0.2533
vn 0.9469 -0.0150 -0.3212
vn 0.8412 0.2264 -0.4911
vn 0.2509 0.2316 -0.9399
vn 0.1953 -0.0151 -0.9806
vn -0.0078 0.2257 -0.9742
vn -0.6895 0.2319 -0.6861
vn -0.8487 -0.0157 -0.5286
vn -0.8461 0.2290 -0.4813
vn 0.9823 0.1777 -0.0590
vn 0.9431 0.1813 0.2787
vn 0.9411 0.2203 -0.2565
vn 0.9243 0.1807 -0.3362
vn 0.8158 0.1656 -0.5541
vn 0.6717 0.1737 -0.7202
vn 0.4810 0.2294 -0.8462
vn 0.4833 0.1714 -0.8585
vn 0.2465 0.1826 -0.9518
vn 0.2480 0.2299 -0.9411
vn -0.0037 0.2263 -0.9741
vn -0.2445 0.1816 -0.9525
vn 0.0479 0.1813 -0.9823
vn -0.2566 0.2331 -0.9380
vn -0.4986 0.1732 -0.8494
vn -0.7243 0.1809 -0.6654
vn -0.8475 0.2263 -0.4802
vn -0.8834 0.1686 -0.4371
vn -0.9596 0.1767 -0.2191
vn -0.9848 0.1735 0.0095
vn -0.9384 0.1809 0.2946
vn -0.9394 0.2315 0.2526
vn -0.8395 0.2260 0.4942
vn -0.8203 0.1686 0.5465
vn -0.6696 0.1767 0.7214
vn -0.4848 0.1732 0.8573
vn -0.2510 0.1782 0.9515
vn -0.2480 0.2299 0.9411
vn 0.0037 0.2263 0.9741
vn -0.0415 0.1716 0.9843
vn 0.2418 0.1799 0.9535
vn 0.2568 0.2331 0.9379
vn 0.4922 0.2268 0.8404
vn 0.4898 0.1727 0.8546
vn 0.6714 0.1738 0.7205
vn 0.6907 0.2324 0.6848
vn 0.8461 0.2261 0.4827
vn 0.8196 0.1660 0.5484
vn 0.9915 -0.1300 -0.0043
vn 0.9993 -0.0067 -0.0381
vn 0.9745 -0.1448 0.1712
vn 0.7585 -0.1306 -0.6385
vn -0.1662 -0.1288 -0.9776
vn 0.9423 -0.0068 -0.3346
vn 0.5644 0.0024 -0.8255
vn 0.8018 -0.0013 -0.5977
vn 0.4909 -0.1376 -0.8603
vn 0.2812 0.0084 -0.9596
vn -0.9297 -0.1284 -0.3451
vn 0.1238 0.0438 -0.9913
vn -0.1696 -0.1738 -0.9701
vn -0.0044 -0.4825 -0.8759
vn -0.4923 -0.1710 -0.8535
vn -0.3052 -0.4682 -0.8292
vn -0.7637 -0.1284 0.6326
vn -0.7559 -0.1698 -0.6322
vn -0.5758 -0.4519 -0.6814
vn -0.9269 -0.1695 -0.3350
vn -0.7787 -0.4411 -0.4461
vn -0.9857 -0.1685 0.0034
vn -0.8865 -0.4366 -0.1533
vn 0.1762 -0.1307 0.9756
vn -0.9243 -0.1691 0.3421
vn -0.8846 -0.4385 0.1589
vn -0.7510 -0.1706 0.6379
vn -0.7732 -0.4472 0.4496
vn 0.7688 -0.1321 0.6257
vn -0.4868 -0.1715 0.8565
vn -0.5677 -0.4632 0.6806
vn -0.2016 -0.1582 0.9666
vn -0.2965 -0.4866 0.8217
vn 0.2477 -0.0032 0.9688
vn -0.0480 0.0135 0.9988
vn 0.5452 -0.0061 0.8383
vn 0.7972 -0.0032 0.6038
vn 0.9422 -0.0093 0.3350
vn 0.9422 0.1188 -0.3132
vn 0.9937 0.1124 0.0008
vn 0.7753 0.1011 -0.6235
vn -0.0694 0.1588 -0.9849
vn 0.5244 0.1036 -0.8452
vn 0.9342 0.0847 -0.3464
vn 0.2131 0.1033 -0.9716
vn -0.3865 0.1612 -0.9081
vn -0.2079 0.4039 -0.8909
vn -0.1262 0.1127 -0.9856
vn -0.6623 0.1619 -0.7315
vn -0.4879 0.4095 -0.7709
vn -0.3942 0.1303 -0.9097
vn -0.8649 0.1623 -0.4750
vn -0.7133 0.4119 -0.5671
vn -0.6689 0.1152 -0.7344
vn -0.9725 0.1625 -0.1666
vn -0.8591 0.4138 -0.3011
vn -0.8721 0.1165 -0.4754
vn -0.4896 0.1001 -0.8662
vn -0.9737 0.1625 0.1600
vn -0.9093 0.4161 -0.0023
vn -0.9795 0.1167 -0.1642
vn -0.7635 0.0986 -0.6382
vn -0.8680 0.1623 0.4693
vn -0.8582 0.4194 0.2960
vn -0.9794 0.1169 0.1648
vn -0.9356 0.0973 -0.3394
vn -0.6668 0.1620 0.7274
vn -0.7114 0.4242 0.5603
vn -0.8717 0.1164 0.4760
vn -0.9953 0.0971 -0.0002
vn -0.3914 0.1615 0.9059
vn -0.4856 0.4309 0.7606
vn -0.6687 0.1155 0.7346
vn -0.9357 0.0975 0.3392
vn -0.2071 0.4381 0.8748
vn -0.3926 0.1151 0.9125
vn -0.7636 0.0994 0.6379
vn -0.0751 0.1076 0.9914
vn -0.4995 0.1011 0.8604
vn 0.2468 0.1139 0.9624
vn -0.2023 0.1043 0.9738
vn 0.5322 0.1094 0.8395
vn -0.0038 1.0000 -0.0084
vn 0.7763 0.1018 0.6221
vn 0.9430 0.1173 0.3114
vn 0.9337 0.0845 0.3479
vn 0.9346 0.0123 -0.3555
vn 0.7571 0.0135 -0.6532
vn 0.9999 0.0108 -0.0000
vn -0.1756 0.0112 -0.9844
vn 0.4859 0.0116 -0.8739
vn 0.1598 0.0099 -0.9871
vn -0.7732 0.0110 -0.6340
vn -0.5010 0.0130 -0.8653
vn 0.1790 0.0846 0.9802
vn -0.9390 0.0122 -0.3436
vn -0.9444 0.0140 0.3285
vn -0.1708 0.0129 0.9852
vn -0.9998 0.0118 -0.0149
vn 0.4999 0.0127 0.8660
vn -0.7656 0.0092 0.6433
vn 0.7589 0.0132 0.6511
vn 0.1745 0.0100 0.9846
vn -0.4872 0.0105 0.8732
vn 0.9348 0.0129 0.3550
vn 0.7570 0.0119 -0.6534
vn 0.4875 0.0124 -0.8731
vn 0.4760 -0.0586 -0.8775
vn -0.1590 -0.0557 0.9857
vn 0.1809 -0.0567 0.9819
vn 0.0044 -0.9999 -0.0095
vn -0.5012 0.0112 -0.8653
vn -0.1594 -0.0559 -0.9856
vn -0.1891 0.0122 -0.9819
vn 0.7551 0.0108 -0.6555
vn 0.9404 -0.0575 -0.3351
vn 0.9332 0.0134 -0.3591
vn -0.5082 -0.0558 0.8594
vn -0.1719 0.0112 0.9851
vn -0.1533 -0.0560 0.9866
vn 0.1713 0.0104 -0.9852
vn -0.0334 -0.9965 -0.0765
vn 0.9983 -0.0587 0.0001
vn 0.9388 0.0125 -0.3441
vn 0.9427 -0.0572 -0.3287
vn 0.9407 -0.0559 0.3347
vn 0.4751 -0.0582 0.8780
vn 0.0148 -0.9999 -0.0082
vn -0.7571 0.0107 0.6532
vn -0.5074 -0.0561 0.8599
vn -0.7680 -0.0571 0.6378
vn 0.5002 0.0105 0.8658
vn 0.1799 -0.0586 0.9819
vn 0.1750 0.0122 0.9845
vn -0.7663 -0.0570 0.6400
vn -0.9350 0.0105 0.3544
vn -0.7562 0.0116 0.6542
vn -0.0178 -0.9973 0.0712
vn 0.7668 0.0117 0.6418
vn 0.9399 0.0145 0.3411
vn 0.9407 -0.0564 0.3345
vn 0.7481 -0.0560 0.6612
vn 0.0716 -0.9966 0.0406
vn 0.7851 0.5714 -0.2389
vn -0.0000 1.0000 -0.0000
vn 0.8212 0.5707 -0.0001
vn 0.7078 0.5707 -0.4164
vn 0.5897 0.5719 -0.5702
vn 0.3907 0.5713 -0.7218
vn 0.1530 0.5707 -0.8067
vn -0.0846 0.5716 -0.8162
vn -0.2751 0.5707 -0.7737
vn -0.4515 0.5716 -0.6852
vn -0.6320 0.5707 -0.5243
vn -0.7618 0.5714 -0.3052
vn -0.8178 0.5721 -0.0617
vn -0.8108 0.5707 0.1304
vn -0.7572 0.5713 0.3166
vn -0.6329 0.5707 0.5232
vn -0.4556 0.5714 0.6826
vn -0.2816 0.5707 0.7713
vn -0.0901 0.5717 0.8155
vn 0.1516 0.5708 0.8070
vn 0.3896 0.5713 0.7224
vn 0.5851 0.5717 0.5752
vn 0.7053 0.5707 0.4205
vn 0.7852 0.5714 0.2386
vn 0.2494 0.2319 -0.9402
vn 0.0220 -0.0185 -0.9996
vn -0.0062 0.2290 -0.9734
vn -0.9469 -0.0151 0.3212
vn -0.8093 -0.0111 -0.5873
vn 0.7606 -0.0114 0.6491
vn -0.8414 0.2266 0.4906
vn -0.8292 -0.0070 0.5589
vn -0.6844 0.2337 0.6906
vn -0.9408 0.2322 -0.2470
vn 0.9507 -0.0131 -0.3097
vn 0.8413 0.2280 -0.4901
vn 0.8225 -0.0089 -0.5687
vn 0.6846 0.2337 -0.6904
vn -0.9932 -0.0101 -0.1163
vn -0.9732 0.2298 0.0063
vn 0.4212 -0.0092 0.9069
vn -0.6885 0.2315 -0.6873
vn -0.7516 -0.0151 -0.6595
vn -0.8477 0.2260 -0.4799
vn -0.2491 0.2321 0.9402
vn -0.1040 -0.0111 0.9945
vn 0.0074 0.2260 0.9741
vn -0.6846 0.2337 0.6904
vn -0.5163 -0.0130 0.8563
vn -0.4810 0.2311 0.8457
vn 0.2490 0.2330 -0.9401
vn 0.0075 -0.0157 -0.9998
vn 0.9738 0.2274 -0.0055
vn 0.6843 0.2306 -0.6918
vn 0.4835 0.2283 -0.8450
vn -0.4980 0.1730 -0.8497
vn -0.7010 0.1826 -0.6893
vn -0.9471 0.1816 -0.2645
vn -0.8267 0.1813 -0.5326
vn -0.9849 0.1732 0.0071
vn -0.9390 0.2299 0.2557
vn 0.2549 0.2316 0.9388
vn 0.4925 0.2265 0.8403
vn 0.5645 0.0024 -0.8255
vn 0.8018 -0.0012 -0.5976
vn 0.2811 0.0083 -0.9596
vn -0.9298 -0.1288 -0.3448
vn -0.5758 -0.4518 -0.6814
vn -0.9269 -0.1695 -0.3349
vn -0.7787 -0.4412 -0.4461
vn 0.2481 -0.0038 0.9687
vn -0.0485 0.0128 0.9987
vn 0.9418 0.1189 -0.3146
vn 0.9937 0.1121 0.0014
vn 0.7742 0.1011 -0.6248
vn 0.5265 0.1037 -0.8438
vn 0.9346 0.0844 -0.3455
vn 0.2170 0.1050 -0.9705
vn -0.1250 0.1121 -0.9858
vn -0.4878 0.4095 -0.7709
vn -0.3939 0.1307 -0.9098
vn -0.6691 0.1153 -0.7341
vn -0.8720 0.1161 -0.4755
vn -0.4896 0.1002 -0.8662
vn -0.9794 0.1172 -0.1646
vn -0.7634 0.0989 -0.6383
vn -0.9792 0.1178 0.1649
vn -0.9356 0.0971 -0.3394
vn -0.8716 0.1169 0.4761
vn -0.9954 0.0958 -0.0003
vn -0.6686 0.1159 0.7345
vn -0.9359 0.0965 0.3389
vn -0.3923 0.1153 0.9126
vn -0.7638 0.0986 0.6379
vn -0.0756 0.1290 0.9888
vn -0.4999 0.1006 0.8602
vn 0.2130 0.1139 0.9704
vn -0.1642 0.1016 0.9812
vn 0.5297 0.1064 0.8415
vn -0.0037 1.0000 -0.0084
vn 0.7762 0.1020 0.6222
vn 0.9335 0.0845 0.3485
vn 0.9343 0.0120 -0.3564
vn 0.9998 0.0104 -0.0140
vn -0.1630 0.0115 -0.9866
vn -0.4864 0.0123 -0.8736
vn -0.9999 0.0124 -0.0007
vn -0.7561 0.0115 -0.6543
vn -0.9406 0.0119 0.3394
vn -0.9355 0.0122 -0.3530
vn -0.4996 0.0135 0.8662
vn -0.1617 0.0122 0.9868
vn -0.7737 0.0107 0.6335
vn 0.1862 0.0108 0.9825
vn 0.5123 0.0141 0.8587
vn 0.7747 0.0124 0.6322
vn 0.9439 0.0134 0.3301
vn 0.9409 -0.0562 0.3341
vn -0.1584 -0.0566 0.9858
vn -0.5082 -0.0565 -0.8594
vn -0.7672 -0.0570 -0.6388
vn 0.1052 -0.9923 -0.0652
vn -0.5102 -0.0575 -0.8581
vn -0.1513 -0.0580 -0.9868
vn -0.1733 0.0118 -0.9848
vn -0.0371 -0.9951 -0.0912
vn 0.9434 0.0123 0.3313
vn 0.9999 0.0123 -0.0021
vn -0.1593 0.0127 0.9871
vn -0.1521 -0.0573 0.9867
vn -0.9263 -0.0588 -0.3723
vn -0.9978 -0.0574 -0.0317
vn 0.1826 -0.0570 0.9815
vn -0.0599 -0.9981 0.0108
vn -0.4843 0.0119 0.8748
vn -0.4856 0.0123 0.8741
vn 0.1880 -0.0574 -0.9805
vn -0.1533 -0.0561 -0.9866
vn -0.0110 -0.9995 0.0289
vn -0.9255 -0.0574 0.3744
vn 0.4761 -0.0587 0.8774
vn 0.7465 -0.0578 0.6629
vn 0.0799 -0.9958 0.0444
vn 0.7863 0.5713 -0.2353
vn 0.8212 0.5707 0.0008
vn 0.7065 0.5707 -0.4185
vn 0.5853 0.5717 -0.5750
vn 0.3902 0.5713 -0.7221
vn 0.1531 0.5707 -0.8067
vn -0.0846 0.5715 -0.8162
vn -0.2756 0.5707 -0.7735
vn -0.4519 0.5715 -0.6850
vn -0.6318 0.5707 -0.5245
vn -0.7613 0.5714 -0.3064
vn -0.8175 0.5719 -0.0677
vn -0.8114 0.5707 0.1262
vn -0.7571 0.5713 0.3168
vn -0.6319 0.5707 0.5244
vn -0.4513 0.5716 0.6853
vn -0.2784 0.5707 0.7725
vn -0.0898 0.5717 0.8155
vn 0.1518 0.5708 0.8070
vn 0.3904 0.5713 0.7219
vn 0.5860 0.5717 0.5742
vn 0.7056 0.5707 0.4199
vn 0.7852 0.5714 0.2385
vn -0.4861 0.2266 0.8440
vn -0.3743 -0.0114 0.9273
vn -0.2459 0.2314 0.9413
vn 0.7516 -0.0151 0.6595
vn 0.3342 -0.0114 0.9424
vn 0.4280 -0.0089 -0.9038
vn 0.0694 -0.0070 0.9976
vn -0.8417 0.2274 0.4897
vn -0.7704 -0.0108 0.6374
vn -0.6819 0.2301 0.6943
vn 0.8093 -0.0111 0.5873
vn 0.6918 0.2329 0.6835
vn 0.8459 0.2264 0.4830
vn -0.2549 0.2316 -0.9388
vn -0.3212 -0.0151 -0.9469
vn -0.4934 0.2281 -0.8394
vn 0.4810 0.2311 -0.8457
vn 0.0034 0.2258 0.9742
vn 0.6714 0.1738 0.7204
vn 0.9993 -0.0065 -0.0380
vn 0.5644 0.0023 -0.8255
vn 0.8018 -0.0014 -0.5976
vn 0.2480 -0.0040 0.9687
vn 0.5452 -0.0062 0.8383
vn 0.7970 -0.0037 0.6040
vn 0.9423 -0.0096 0.3346
vn 0.9941 0.1087 0.0002
vn 0.7765 0.1010 -0.6219
vn 0.5296 0.1052 -0.8417
vn 0.9342 0.0845 -0.3466
vn 0.2179 0.1047 -0.9703
vn -0.1249 0.1123 -0.9858
vn -0.3942 0.1304 -0.9097
vn -0.9726 0.1625 -0.1666
vn -0.8592 0.4138 -0.3011
vn -0.4895 0.1000 -0.8662
vn -0.9794 0.1169 -0.1644
vn -0.7636 0.0986 -0.6381
vn -0.9793 0.1171 0.1649
vn -0.9355 0.0973 -0.3396
vn -0.8717 0.1166 0.4760
vn -0.9953 0.0968 -0.0001
vn -0.6686 0.1157 0.7346
vn -0.9357 0.0975 0.3391
vn -0.3924 0.1150 0.9126
vn -0.7637 0.0991 0.6379
vn -0.0759 0.1288 0.9888
vn -0.4997 0.1011 0.8603
vn 0.2121 0.1149 0.9705
vn -0.1642 0.1015 0.9812
vn 0.5272 0.1062 0.8431
vn 0.7789 0.1059 0.6181
vn 0.9414 0.1055 0.3203
vn 0.7582 0.0127 -0.6519
vn 0.4875 0.0109 -0.8730
vn 0.1605 0.0120 -0.9870
vn -0.7562 0.0129 -0.6542
vn -0.4877 0.0129 -0.8729
vn -0.9351 0.0124 -0.3543
vn -0.9999 0.0113 0.0002
vn 0.1632 0.0114 0.9865
vn 0.4883 0.0106 0.8726
vn 0.7670 0.0144 0.6415
vn -0.9371 -0.0556 0.3446
vn 0.9429 -0.0575 0.3280
vn 0.0361 -0.9988 -0.0325
vn 0.7464 -0.0576 0.6630
vn -0.9980 -0.0557 0.0299
vn -0.9371 -0.0561 -0.3446
vn -0.0273 -0.9996 -0.0025
vn -0.5094 -0.0560 -0.8587
vn -0.1530 -0.0566 -0.9866
vn 0.4799 -0.0574 -0.8754
vn -0.0237 -0.9976 0.0643
vn 0.0542 -0.9977 0.0398
vn 0.7090 0.5707 -0.4143
vn 0.3903 0.5713 -0.7220
vn 0.1515 0.5708 -0.8070
vn -0.0855 0.5716 -0.8161
vn -0.4520 0.5715 -0.6849
vn -0.7571 0.5713 -0.3168
vn -0.8112 0.5707 -0.1273
vn -0.8175 0.5719 0.0677
vn -0.7605 0.5713 0.3088
vn -0.6311 0.5707 0.5253
vn -0.4515 0.5716 0.6852
vn -0.2757 0.5707 0.7735
vn -0.0853 0.5716 0.8161
vn 0.3883 0.5712 0.7232
vn 0.5884 0.5719 0.5716
vn 0.7090 0.5707 0.4143
vn 0.7864 0.5713 0.2349
vn -0.8225 -0.0089 0.5687
vn 0.0668 -0.0119 0.9977
vn 0.5064 -0.0157 -0.8621
vn 0.9806 -0.0151 0.1953
vn -0.5850 -0.0082 0.8110
vn -0.4809 0.2294 0.8462
vn 0.9782 -0.0131 0.2071
vn 0.6862 0.2322 -0.6893
vn 0.4800 0.2277 -0.8472
vn -0.4842 0.1735 0.8576
vn -0.2157 0.1794 0.9598
vn -0.2481 0.2299 0.9411
vn 0.0656 0.1659 0.9840
vn 0.2878 0.1737 0.9418
vn 0.4920 0.1727 0.8533
vn 0.9992 -0.0065 -0.0382
vn 0.9424 -0.0071 -0.3343
vn 0.5644 0.0025 -0.8255
vn 0.8016 -0.0016 -0.5979
vn -0.0044 -0.4826 -0.8759
vn 0.1761 -0.1306 0.9757
vn 0.9399 0.1058 -0.3248
vn 0.9940 0.1095 0.0008
vn 0.7762 0.1049 -0.6217
vn 0.5228 0.1036 -0.8461
vn 0.2123 0.1036 -0.9717
vn -0.1262 0.1128 -0.9856
vn -0.6689 0.1155 -0.7343
vn -0.8719 0.1167 -0.4756
vn -0.4894 0.1001 -0.8663
vn -0.9794 0.1176 -0.1644
vn -0.7635 0.0983 -0.6382
vn -0.9356 0.0965 -0.3395
vn -0.9954 0.0958 -0.0004
vn -0.6685 0.1156 0.7346
vn -0.9359 0.0964 0.3388
vn -0.7638 0.0987 0.6379
vn -0.4994 0.1009 0.8605
vn 0.2120 0.1148 0.9705
vn -0.1643 0.1018 0.9811
vn 0.5266 0.1058 0.8435
vn 0.7749 0.1026 0.6237
vn 0.9336 0.0844 0.3482
vn 0.6595 -0.0151 -0.7516
vn 0.9998 0.0122 -0.0140
vn 0.1576 0.0112 -0.9874
vn -0.7669 0.0136 -0.6416
vn 0.4856 0.0097 -0.8741
vn -0.9439 0.0112 -0.3301
vn -0.9998 0.0115 0.0151
vn -0.9347 0.0126 0.3551
vn 0.7519 -0.0560 -0.6569
vn 0.0640 -0.9973 -0.0351
vn 0.1874 -0.0572 -0.9806
vn -0.9289 -0.0576 -0.3659
vn -0.0198 -0.9978 -0.0626
vn 0.0022 -1.0000 -0.0067
vn -0.0237 -0.9976 0.0644
vn 0.0691 -0.9969 0.0367
vn 0.7849 0.5714 -0.2396
vn 0.7050 0.5707 -0.4210
vn 0.5844 0.5716 -0.5759
vn 0.3879 0.5712 -0.7234
vn 0.1501 0.5708 -0.8073
vn -0.0904 0.5717 -0.8154
vn -0.2810 0.5707 -0.7716
vn -0.4548 0.5714 -0.6831
vn -0.6323 0.5707 -0.5239
vn -0.7617 0.5714 -0.3056
vn -0.8178 0.5721 -0.0614
vn -0.8106 0.5707 0.1314
vn -0.7568 0.5713 0.3175
vn -0.6321 0.5707 0.5242
vn -0.4519 0.5716 0.6849
vn -0.0859 0.5716 0.8160
vn 0.1510 0.5708 0.8071
vn 0.3875 0.5712 0.7236
vn 0.5847 0.5717 0.5756
vn 0.7054 0.5707 0.4203
vn 0.7850 0.5714 0.2392
vn 0.9833 -0.0114 0.1818
vn -0.0000 -0.0000 1.0000
vn 0.1818 -0.0573 0.9817
vn 0.4751 -0.0576 0.8780
vn -0.9731 -0.0079 0.2302
vn 1.0000 -0.0000 -0.0000
vn -0.0000 -0.0000 -1.0000
vn 0.9731 -0.0078 -0.2302
vn 0.2732 -0.0050 -0.9620
vn -0.0812 -0.0089 -0.9967
vn -0.9668 -0.0075 0.2554
vn 0.5850 -0.0082 -0.8110
vn -1.0000 -0.0000 -0.0000
vn -0.2872 -0.0079 0.9578
vn -0.9367 -0.0562 0.3457
vn -0.9982 -0.0552 -0.0239
vn 0.7469 -0.0564 -0.6625
vn 0.1794 -0.0568 -0.9821
vn 0.9409 -0.0560 -0.3339
vn -0.5143 -0.0577 -0.8557
vn -0.7685 -0.0590 -0.6371
vn -0.9980 -0.0572 -0.0254
vn 0.4697 -0.0574 0.8810
vn -0.9697 -0.0050 0.2444
vn 0.7515 -0.0562 -0.6573
vn 0.4710 -0.0575 -0.8803
vn 0.1844 -0.0587 -0.9811
vn -0.5095 -0.0565 0.8586
vn -0.7712 -0.0567 0.6341
vn -0.9374 -0.0564 0.3435
vn 0.7521 -0.0565 0.6567
vn 0.9418 -0.0562 -0.3314
vn 0.7464 -0.0576 -0.6630
vn 0.7276 -0.0079 -0.6859
vn -0.2622 -0.0075 0.9650
vn -0.7675 -0.0568 -0.6385
vn -0.7675 -0.0583 -0.6385
vn -0.9276 -0.0573 -0.3692
vn 0.9984 -0.0570 0.0043
vn 0.9983 -0.0582 -0.0005
vn -0.5133 -0.0558 0.8564
vn 0.9984 -0.0561 -0.0000
vn 0.4780 -0.0571 -0.8765
vn -0.7670 -0.0567 0.6391
s 1
usemtl paint
f 50//1 36//2 51//3
f 572//4 552//5 573//6
f 559//7 582//8 558//9
f 581//10 558//9 582//8
f 579//11 557//12 580//13
f 33//14 34//14 35//14
f 33//14 36//14 34//14
f 33//14 37//14 36//14
f 33//14 38//14 37//14
f 33//14 39//14 38//14
f 33//14 40//14 39//14
f 33//14 42//14 41//14
f 33//14 43//14 42//14
f 33//14 44//14 43//14
f 33//14 45//14 44//14
f 33//14 46//14 45//14
f 33//14 47//14 46//14
f 33//14 35//14 47//14
f 414//15 379//16 392//17
f 410//18 389//19 411//20
f 63//21 43//22 64//23
f 227//24 212//25 228//26
f 59//4 41//27 60//28
f 56//26 40//29 57//30
f 561//31 548//32 563//33
f 566//34 550//35 567//36
f 229//37 206//38 230//39
f 72//40 73//41 49//17
f 48//42 72//40 49//17
f 48//42 74//43 72//40
f 50//1 74//43 48//42
f 50//1 75//44 74//43
f 76//45 50//1 51//3
f 76//45 75//44 50//1
f 52//46 76//45 51//3
f 52//46 77//47 76//45
f 52//46 78//48 77//47
f 78//48 52//46 53//49
f 54//50 78//48 53//49
f 54//50 80//51 79//52
f 54//50 79//52 78//48
f 80//51 54//50 55//53
f 56//26 80//51 55//53
f 56//26 81//54 80//51
f 56//26 82//55 81//54
f 82//55 56//26 57//30
f 58//56 82//55 57//30
f 58//56 83//57 82//55
f 84//58 58//56 59//4
f 84//58 83//57 58//56
f 60//28 84//58 59//4
f 60//28 85//59 84//58
f 60//28 86//60 85//59
f 86//60 60//28 61//61
f 62//62 86//60 61//61
f 62//62 87//63 86//60
f 88//64 62//62 63//21
f 88//64 87//63 62//62
f 64//23 88//64 63//21
f 64//23 89//65 88//64
f 64//23 90//66 89//65
f 90//66 64//23 65//67
f 66//68 90//66 65//67
f 66//68 91//69 90//66
f 66//68 92//70 91//69
f 92//70 66//68 67//71
f 68//72 92//70 67//71
f 68//72 93//73 92//70
f 68//72 94//74 93//73
f 94//74 68//72 69//75
f 70//76 94//74 69//75
f 70//76 73//41 95//77
f 70//76 95//77 94//74
f 73//41 71//15 49//17
f 73//41 70//76 71//15
f 97//78 73//41 72//40
f 96//79 98//80 97//78
f 74//43 97//78 72//40
f 99//81 75//44 76//45
f 99//81 74//43 75//44
f 77//47 99//81 76//45
f 100//82 79//52 80//51
f 100//82 78//48 79//52
f 101//83 96//79 97//78
f 101//83 97//78 74//43
f 81//54 100//82 80//51
f 99//81 103//84 102//85
f 99//81 102//85 101//83
f 99//81 101//83 74//43
f 104//86 103//84 99//81
f 104//86 105//87 103//84
f 104//86 99//81 77//47
f 106//88 83//57 84//58
f 106//88 82//55 83//57
f 107//89 104//86 77//47
f 107//89 105//87 104//86
f 107//89 77//47 78//48
f 85//59 106//88 84//58
f 109//90 78//48 100//82
f 109//90 108//91 107//89
f 109//90 107//89 78//48
f 111//92 110//93 109//90
f 111//92 109//90 100//82
f 111//92 100//82 81//54
f 113//94 87//63 88//64
f 113//94 86//60 87//63
f 114//95 111//92 81//54
f 114//95 112//96 111//92
f 114//95 81//54 82//55
f 89//65 113//94 88//64
f 116//97 115//98 114//95
f 116//97 114//95 82//55
f 116//97 82//55 106//88
f 118//99 106//88 85//59
f 118//99 116//97 106//88
f 118//99 117//100 116//97
f 120//101 91//69 92//70
f 120//101 90//66 91//69
f 121//102 85//59 86//60
f 121//102 119//103 118//99
f 121//102 118//99 85//59
f 93//73 120//101 92//70
f 123//104 86//60 113//94
f 123//104 122//105 121//102
f 123//104 121//102 86//60
f 125//106 93//73 94//74
f 125//106 94//74 95//77
f 126//107 113//94 89//65
f 126//107 123//104 113//94
f 126//107 124//108 123//104
f 73//41 125//106 95//77
f 128//109 127//110 126//107
f 128//109 89//65 90//66
f 128//109 126//107 89//65
f 120//101 130//111 129//112
f 120//101 128//109 90//66
f 120//101 129//112 128//109
f 131//113 130//111 120//101
f 131//113 120//101 93//73
f 125//106 132//114 131//113
f 125//106 131//113 93//73
f 133//115 97//78 98//80
f 133//115 73//41 97//78
f 133//115 132//114 125//106
f 133//115 125//106 73//41
f 134//116 96//79 101//83
f 134//116 135//117 96//79
f 137//118 101//83 102//85
f 137//118 134//116 101//83
f 105//87 107//89 108//119
f 139//120 102//85 103//84
f 139//120 137//118 102//85
f 137//118 138//121 134//116
f 140//122 139//120 103//84
f 140//122 103//84 105//87
f 110//123 108//119 109//124
f 141//125 140//122 105//87
f 141//125 105//87 108//119
f 112//126 110//123 111//127
f 142//128 108//119 110//123
f 142//128 141//125 108//119
f 115//129 112//126 114//130
f 143//131 142//128 110//123
f 143//131 110//123 112//126
f 117//132 115//129 116//133
f 145//134 112//126 115//129
f 145//134 143//131 112//126
f 143//131 144//135 142//128
f 119//136 117//132 118//137
f 147//138 145//134 115//129
f 147//138 115//129 117//132
f 145//134 146//139 143//131
f 122//140 119//136 121//141
f 149//142 147//138 117//132
f 149//142 117//132 119//136
f 147//138 148//143 145//134
f 124//144 122//140 123//145
f 151//146 119//136 122//140
f 151//146 149//142 119//136
f 149//142 150//147 147//138
f 127//148 124//144 126//149
f 153//150 151//146 122//140
f 153//150 122//140 124//144
f 151//146 152//151 149//142
f 129//112 127//148 128//152
f 155//153 124//144 127//148
f 155//153 153//150 124//144
f 153//150 154//154 151//146
f 157//155 155//153 127//148
f 157//155 127//148 129//112
f 155//153 156//156 153//150
f 159//157 129//112 130//111
f 159//157 157//155 129//112
f 157//155 158//158 155//153
f 160//159 159//157 130//111
f 160//159 130//111 131//113
f 133//160 98//160 96//160
f 161//161 160//159 131//113
f 161//161 131//113 132//114
f 136//162 161//161 132//114
f 136//162 132//114 133//115
f 136//162 96//79 135//117
f 136//162 133//115 96//79
f 136//162 162//163 161//161
f 138//121 135//117 134//116
f 164//164 135//117 138//121
f 144//135 141//125 142//128
f 165//165 164//164 138//121
f 165//165 138//121 137//118
f 146//139 144//135 143//131
f 139//120 165//165 137//118
f 148//143 146//139 145//134
f 164//164 163//166 135//117
f 150//147 148//143 147//138
f 166//167 140//122 141//125
f 152//151 150//147 149//142
f 167//168 165//165 139//120
f 144//135 166//167 141//125
f 154//154 152//151 151//146
f 168//169 139//120 140//122
f 168//169 167//168 139//120
f 169//170 144//135 146//139
f 156//156 154//154 153//150
f 166//167 168//169 140//122
f 148//143 169//170 146//139
f 158//158 156//156 155//153
f 172//171 166//167 144//135
f 170//172 157//155 159//157
f 170//172 158//158 157//155
f 169//170 172//171 144//135
f 160//159 170//172 159//157
f 171//173 169//170 148//143
f 150//147 171//173 148//143
f 162//163 136//162 135//117
f 176//174 150//147 152//151
f 173//175 156//156 158//158
f 154//154 176//174 152//151
f 175//176 171//173 150//147
f 170//172 173//175 158//158
f 176//174 175//176 150//147
f 174//177 170//172 160//159
f 178//178 176//174 154//154
f 180//179 160//159 161//161
f 180//179 174//177 160//159
f 179//180 173//175 170//172
f 177//181 178//178 154//154
f 177//181 154//154 156//156
f 181//182 180//179 161//161
f 181//182 161//161 162//163
f 181//182 162//163 135//117
f 174//177 179//180 170//172
f 173//175 177//181 156//156
f 181//182 135//117 163//166
f 339//183 340//184 356//185
f 198//186 179//180 201//187
f 185//188 187//188 182//188
f 678//189 701//190 676//191
f 680//192 693//193 677//194
f 539//195 519//196 540//197
f 338//198 356//185 340//184
f 189//199 191//199 190//199
f 524//200 505//201 523//202
f 180//179 181//182 184//203
f 174//177 180//179 202//204
f 193//205 196//205 195//205
f 687//206 710//207 708//208
f 691//209 709//210 688//211
f 536//212 513//213 515//214
f 198//215 200//215 199//215
f 689//216 692//217 695//218
f 695//218 714//219 689//216
f 184//220 204//220 203//220
f 182//221 205//222 183//223
f 187//224 205//222 182//221
f 185//225 205//222 187//224
f 186//226 205//222 185//225
f 188//227 205//222 186//226
f 190//228 205//222 188//227
f 191//229 205//222 190//228
f 189//230 205//222 191//229
f 192//231 205//222 189//230
f 194//232 205//222 192//231
f 195//233 205//222 194//232
f 196//234 205//222 195//233
f 193//235 205//222 196//234
f 197//236 205//222 193//235
f 199//237 205//222 197//236
f 200//238 205//222 199//237
f 198//239 205//222 200//238
f 201//240 205//222 198//239
f 202//241 205//222 201//240
f 203//242 205//222 202//241
f 204//243 205//222 203//242
f 184//244 183//223 205//222
f 184//244 205//222 204//243
f 206//14 207//14 208//14
f 206//14 209//14 207//14
f 206//14 210//14 209//14
f 206//14 211//14 210//14
f 206//14 212//14 211//14
f 206//14 214//14 213//14
f 206//14 215//14 214//14
f 206//14 216//14 215//14
f 206//14 217//14 216//14
f 206//14 218//14 217//14
f 206//14 219//14 218//14
f 206//14 208//14 219//14
f 396//245 382//246 397//247
f 61//61 42//248 62//62
f 57//30 33//249 58//56
f 69//75 47//250 70//76
f 575//251 554//252 576//253
f 230//39 206//38 231//254
f 220//31 207//255 222//256
f 228//26 212//25 229//37
f 393//1 380//257 394//258
f 231//254 213//259 232//260
f 67//71 46//261 68//72
f 570//262 547//263 571//264
f 237//265 217//266 238//267
f 235//268 216//269 236//270
f 225//271 211//272 226//247
f 400//37 383//38 401//39
f 244//40 245//41 221//273
f 220//31 244//40 221//273
f 220//31 246//43 244//40
f 222//256 246//43 220//31
f 222//256 247//44 246//43
f 248//45 222//256 223//274
f 248//45 247//44 222//256
f 224//275 248//45 223//274
f 224//275 249//47 248//45
f 224//275 250//48 249//47
f 250//48 224//275 225//271
f 226//247 250//48 225//271
f 226//247 252//51 251//52
f 226//247 251//52 250//48
f 252//51 226//247 227//24
f 228//26 252//51 227//24
f 228//26 253//276 252//51
f 228//26 254//277 253//276
f 254//277 228//26 229//37
f 230//39 254//277 229//37
f 230//39 256//278 255//279
f 230//39 255//279 254//277
f 256//278 230//39 231//254
f 232//260 256//278 231//254
f 232//260 257//280 256//278
f 232//260 258//60 257//280
f 258//60 232//260 233//281
f 234//251 258//60 233//281
f 234//251 259//63 258//60
f 260//64 234//251 235//268
f 260//64 259//63 234//251
f 236//270 260//64 235//268
f 236//270 261//65 260//64
f 236//270 262//66 261//65
f 262//66 236//270 237//265
f 238//267 262//66 237//265
f 238//267 263//69 262//66
f 238//267 264//70 263//69
f 264//70 238//267 239//282
f 240//283 264//70 239//282
f 240//283 265//73 264//70
f 240//283 266//74 265//73
f 266//74 240//283 241//75
f 242//76 266//74 241//75
f 242//76 245//41 267//77
f 242//76 267//77 266//74
f 245//41 243//15 221//273
f 245//41 242//76 243//15
f 269//78 245//41 244//40
f 268//79 270//80 269//78
f 246//43 269//78 244//40
f 271//81 247//44 248//45
f 271//81 246//43 247//44
f 249//47 271//81 248//45
f 272//82 251//52 252//51
f 272//82 250//48 251//52
f 273//83 268//79 269//78
f 273//83 269//78 246//43
f 253//276 272//82 252//51
f 271//81 275//284 274//285
f 271//81 274//285 273//83
f 271//81 273//83 246//43
f 276//86 275//284 271//81
f 276//86 277//286 275//284
f 276//86 271//81 249//47
f 278//287 255//279 256//278
f 278//287 254//277 255//279
f 279//89 276//86 249//47
f 279//89 277//286 276//86
f 279//89 249//47 250//48
f 257//280 278//287 256//278
f 281//90 250//48 272//82
f 281//90 280//91 279//89
f 281//90 279//89 250//48
f 283//92 282//93 281//90
f 283//92 281//90 272//82
f 283//92 272//82 253//276
f 285//94 259//63 260//64
f 285//94 258//60 259//63
f 286//95 283//92 253//276
f 286//95 284//288 283//92
f 286//95 253//276 254//277
f 261//65 285//94 260//64
f 288//289 287//290 286//95
f 288//289 286//95 254//277
f 288//289 254//277 278//287
f 290//99 278//287 257//280
f 290//99 288//289 278//287
f 290//99 289//100 288//289
f 292//101 263//69 264//70
f 292//101 262//66 263//69
f 293//102 257//280 258//60
f 293//102 291//103 290//99
f 293//102 290//99 257//280
f 265//73 292//101 264//70
f 295//104 258//60 285//94
f 295//104 294//105 293//102
f 295//104 293//102 258//60
f 297//106 265//73 266//74
f 297//106 266//74 267//77
f 298//107 285//94 261//65
f 298//107 295//104 285//94
f 298//107 296//108 295//104
f 245//41 297//106 267//77
f 300//109 299//110 298//107
f 300//109 261//65 262//66
f 300//109 298//107 261//65
f 292//101 302//291 301//292
f 292//101 300//109 262//66
f 292//101 301//292 300//109
f 303//113 302//291 292//101
f 303//113 292//101 265//73
f 297//106 304//114 303//113
f 297//106 303//113 265//73
f 305//115 269//78 270//80
f 305//115 245//41 269//78
f 305//115 304//114 297//106
f 305//115 297//106 245//41
f 306//293 268//79 273//83
f 306//293 307//294 268//79
f 309//295 273//83 274//285
f 309//295 306//293 273//83
f 277//286 279//89 280//119
f 311//296 274//285 275//284
f 311//296 309//295 274//285
f 309//295 310//297 306//293
f 312//298 311//296 275//284
f 312//298 275//284 277//286
f 282//123 280//119 281//124
f 313//299 312//298 277//286
f 313//299 277//286 280//119
f 284//126 282//123 283//300
f 314//301 280//119 282//123
f 314//301 313//299 280//119
f 287//129 284//126 286//130
f 315//302 314//301 282//123
f 315//302 282//123 284//126
f 289//132 287//129 288//133
f 317//303 284//126 287//129
f 317//303 315//302 284//126
f 315//302 316//304 314//301
f 291//136 289//132 290//137
f 319//305 317//303 287//129
f 319//305 287//129 289//132
f 317//303 318//306 315//302
f 294//140 291//136 293//141
f 321//307 319//305 289//132
f 321//307 289//132 291//136
f 319//305 320//308 317//303
f 296//144 294//140 295//145
f 323//309 291//136 294//140
f 323//309 321//307 291//136
f 321//307 322//310 319//305
f 299//148 296//144 298//149
f 325//311 323//309 294//140
f 325//311 294//140 296//144
f 323//309 324//312 321//307
f 301//292 299//148 300//152
f 327//313 296//144 299//148
f 327//313 325//311 296//144
f 325//311 326//314 323//309
f 329//315 327//313 299//148
f 329//315 299//148 301//292
f 327//313 328//316 325//311
f 331//317 301//292 302//291
f 331//317 329//315 301//292
f 329//315 330//318 327//313
f 332//319 331//317 302//291
f 332//319 302//291 303//113
f 305//320 270//320 268//320
f 333//321 332//319 303//113
f 333//321 303//113 304//114
f 308//162 333//321 304//114
f 308//162 304//114 305//115
f 308//162 268//79 307//294
f 308//162 305//115 268//79
f 308//162 334//322 333//321
f 310//297 307//294 306//293
f 316//304 313//299 314//301
f 318//306 316//304 315//302
f 320//308 318//306 317//303
f 337//323 307//294 310//297
f 337//323 335//324 307//294
f 338//198 311//296 312//298
f 322//310 320//308 319//305
f 339//183 337//323 310//297
f 339//183 310//297 309//295
f 342//325 338//198 312//298
f 342//325 312//298 313//299
f 324//312 322//310 321//307
f 340//184 339//183 309//295
f 340//184 309//295 311//296
f 343//326 313//299 316//304
f 343//326 342//325 313//299
f 326//314 324//312 323//309
f 338//198 340//184 311//296
f 318//306 343//326 316//304
f 328//316 326//314 325//311
f 330//318 328//316 327//313
f 349//327 320//308 322//310
f 331//317 330//318 329//315
f 345//328 343//326 318//306
f 341//329 322//310 324//312
f 341//329 349//327 322//310
f 347//330 345//328 318//306
f 347//330 318//306 320//308
f 326//314 341//329 324//312
f 349//327 347//330 320//308
f 352//331 326//314 328//316
f 334//322 308//162 307//294
f 344//332 328//316 330//318
f 344//332 352//331 328//316
f 351//333 341//329 326//314
f 346//334 330//318 331//317
f 346//334 344//332 330//318
f 352//331 351//333 326//314
f 348//335 346//334 331//317
f 348//335 331//317 332//319
f 350//336 332//319 333//321
f 350//336 348//335 332//319
f 336//337 350//336 333//321
f 336//337 333//321 334//322
f 336//337 334//322 307//294
f 336//337 307//294 335//324
f 336//337 335//324 355//338
f 344//332 346//334 369//339
f 189//340 169//170 192//341
f 357//342 358//342 353//342
f 530//343 532//344 511//345
f 360//346 363//346 362//346
f 507//347 506//348 524//200
f 710//207 685//349 711//350
f 365//351 349//327 367//352
f 179//180 198//186 173//175
f 369//339 346//334 372//353
f 364//354 368//354 367//354
f 685//349 710//207 690//355
f 519//196 539//195 517//356
f 356//185 338//198 359//357
f 189//340 190//358 166//167
f 369//359 371//359 370//359
f 536//212 538//360 513//213
f 373//361 350//336 374//362
f 355//363 375//363 374//363
f 353//364 376//222 354//365
f 358//366 376//222 353//364
f 357//367 376//222 358//366
f 356//368 376//222 357//367
f 359//369 376//222 356//368
f 362//370 376//222 359//369
f 363//371 376//222 362//370
f 360//372 376//222 363//371
f 361//373 376//222 360//372
f 365//374 376//222 361//373
f 367//375 376//222 365//374
f 368//376 376//222 367//375
f 364//377 376//222 368//376
f 366//378 376//222 364//377
f 370//379 376//222 366//378
f 371//380 376//222 370//379
f 369//381 376//222 371//380
f 372//382 376//222 369//381
f 373//383 376//222 372//382
f 374//384 376//222 373//383
f 375//385 376//222 374//384
f 355//386 354//365 376//222
f 355//386 376//222 375//385
f 377//14 378//14 379//14
f 377//14 380//14 378//14
f 377//14 381//14 380//14
f 377//14 382//14 381//14
f 377//14 384//14 383//14
f 377//14 385//14 384//14
f 377//14 386//14 385//14
f 377//14 387//14 386//14
f 377//14 388//14 387//14
f 377//14 389//14 388//14
f 377//14 390//14 389//14
f 377//14 379//14 390//14
f 399//26 377//25 400//37
f 407//387 387//388 408//389
f 241//75 219//390 242//76
f 239//282 218//391 240//283
f 224//275 210//392 225//271
f 66//68 45//393 67//71
f 405//394 386//395 406//396
f 390//397 412//398 389//19
f 398//24 377//25 399//26
f 412//398 390//397 413//399
f 568//400 551//401 569//402
f 55//53 40//29 56//26
f 236//270 216//269 237//265
f 415//40 416//41 392//17
f 391//42 415//40 392//17
f 391//42 417//43 415//40
f 393//1 417//43 391//42
f 393//1 418//44 417//43
f 419//45 393//1 394//258
f 419//45 418//44 393//1
f 395//403 419//45 394//258
f 395//403 420//47 419//45
f 395//403 421//48 420//47
f 421//48 395//403 396//245
f 397//247 421//48 396//245
f 397//247 423//51 422//52
f 397//247 422//52 421//48
f 423//51 397//247 398//24
f 399//26 423//51 398//24
f 399//26 424//276 423//51
f 399//26 425//277 424//276
f 425//277 399//26 400//37
f 401//39 425//277 400//37
f 401//39 427//278 426//279
f 401//39 426//279 425//277
f 427//278 401//39 402//254
f 403//260 427//278 402//254
f 403//260 428//280 427//278
f 403//260 429//60 428//280
f 429//60 403//260 404//281
f 405//394 429//60 404//281
f 405//394 430//63 429//60
f 431//64 405//394 406//396
f 431//64 430//63 405//394
f 407//387 431//64 406//396
f 407//387 432//65 431//64
f 407//387 433//66 432//65
f 433//66 407//387 408//389
f 409//404 433//66 408//389
f 409//404 434//69 433//66
f 409//404 435//70 434//69
f 435//70 409//404 410//18
f 411//20 435//70 410//18
f 411//20 436//73 435//70
f 411//20 437//405 436//73
f 437//405 411//20 412//398
f 413//399 437//405 412//398
f 413//399 416//41 438//77
f 413//399 438//77 437//405
f 416//41 414//15 392//17
f 416//41 413//399 414//15
f 440//78 416//41 415//40
f 439//406 441//80 440//78
f 417//43 440//78 415//40
f 442//81 418//44 419//45
f 442//81 417//43 418//44
f 420//47 442//81 419//45
f 443//82 422//52 423//51
f 443//82 421//48 422//52
f 444//83 439//406 440//78
f 444//83 440//78 417//43
f 424//276 443//82 423//51
f 442//81 446//407 445//408
f 442//81 445//408 444//83
f 442//81 444//83 417//43
f 447//86 446//407 442//81
f 447//86 448//286 446//407
f 447//86 442//81 420//47
f 449//287 426//279 427//278
f 449//287 425//277 426//279
f 450//89 447//86 420//47
f 450//89 448//286 447//86
f 450//89 420//47 421//48
f 428//280 449//287 427//278
f 452//90 421//48 443//82
f 452//90 451//91 450//89
f 452//90 450//89 421//48
f 454//92 453//93 452//90
f 454//92 452//90 443//82
f 454//92 443//82 424//276
f 456//94 430//63 431//64
f 456//94 429//60 430//63
f 457//95 454//92 424//276
f 457//95 455//288 454//92
f 457//95 424//276 425//277
f 432//65 456//94 431//64
f 459//289 458//290 457//95
f 459//289 457//95 425//277
f 459//289 425//277 449//287
f 461//99 449//287 428//280
f 461//99 459//289 449//287
f 461//99 460//100 459//289
f 463//101 434//69 435//70
f 463//101 433//66 434//69
f 464//102 428//280 429//60
f 464//102 462//103 461//99
f 464//102 461//99 428//280
f 436//73 463//101 435//70
f 466//104 429//60 456//94
f 466//104 465//105 464//102
f 466//104 464//102 429//60
f 468//106 436//73 437//405
f 468//106 437//405 438//77
f 469//107 456//94 432//65
f 469//107 466//104 456//94
f 469//107 467//108 466//104
f 416//41 468//106 438//77
f 471//109 470//110 469//107
f 471//109 432//65 433//66
f 471//109 469//107 432//65
f 463//101 473//409 472//292
f 463//101 471//109 433//66
f 463//101 472//292 471//109
f 474//410 473//409 463//101
f 474//410 463//101 436//73
f 468//106 475//411 474//410
f 468//106 474//410 436//73
f 476//412 440//78 441//80
f 476//412 416//41 440//78
f 476//412 475//411 468//106
f 476//412 468//106 416//41
f 477//116 439//406 444//83
f 477//116 478//413 439//406
f 480//414 444//83 445//408
f 480//414 477//116 444//83
f 448//286 450//89 451//119
f 482//415 445//408 446//407
f 482//415 480//414 445//408
f 480//414 481//416 477//116
f 483//417 482//415 446//407
f 483//417 446//407 448//286
f 453//123 451//119 452//124
f 484//418 483//417 448//286
f 484//418 448//286 451//119
f 455//126 453//123 454//300
f 485//419 451//119 453//123
f 485//419 484//418 451//119
f 458//129 455//126 457//130
f 486//131 485//419 453//123
f 486//131 453//123 455//126
f 460//420 458//129 459//421
f 488//134 455//126 458//129
f 488//134 486//131 455//126
f 486//131 487//422 485//419
f 462//136 460//420 461//137
f 490//423 488//134 458//129
f 490//423 458//129 460//420
f 488//134 489//424 486//131
f 465//140 462//136 464//141
f 492//425 490//423 460//420
f 492//425 460//420 462//136
f 490//423 491//426 488//134
f 467//144 465//140 466//145
f 494//427 462//136 465//140
f 494//427 492//425 462//136
f 492//425 493//428 490//423
f 470//148 467//144 469//149
f 496//429 494//427 465//140
f 496//429 465//140 467//144
f 494//427 495//430 492//425
f 472//292 470//148 471//152
f 498//431 467//144 470//148
f 498//431 496//429 467//144
f 496//429 497//432 494//427
f 500//433 498//431 470//148
f 500//433 470//148 472//292
f 498//431 499//434 496//429
f 502//435 472//292 473//409
f 502//435 500//433 472//292
f 500//433 501//436 498//431
f 503//437 502//435 473//409
f 503//437 473//409 474//410
f 476//320 441//320 439//320
f 504//438 503//437 474//410
f 504//438 474//410 475//411
f 479//439 504//438 475//411
f 479//439 475//411 476//412
f 479//439 439//406 478//413
f 479//439 476//412 439//406
f 481//416 478//413 477//116
f 505//201 478//413 481//416
f 487//422 484//418 485//419
f 508//440 505//201 481//416
f 508//440 481//416 480//414
f 489//424 487//422 486//131
f 509//441 480//414 482//415
f 509//441 508//440 480//414
f 491//426 489//424 488//134
f 505//201 506//348 478//413
f 510//442 509//441 482//415
f 510//442 482//415 483//417
f 493//428 491//426 490//423
f 511//345 510//442 483//417
f 511//345 483//417 484//418
f 495//430 493//428 492//425
f 487//422 511//345 484//418
f 497//432 495//430 494//427
f 514//443 487//422 489//424
f 499//434 497//432 496//429
f 491//426 514//443 489//424
f 501//436 499//434 498//431
f 512//444 511//345 487//422
f 502//435 501//436 500//433
f 514//443 512//444 487//422
f 516//445 514//443 491//426
f 518//446 491//426 493//428
f 518//446 516//445 491//426
f 513//213 493//428 495//430
f 513//213 518//446 493//428
f 515//214 513//213 495//430
f 515//214 495//430 497//432
f 520//447 501//436 502//435
f 517//356 515//214 497//432
f 517//356 497//432 499//434
f 503//437 520//447 502//435
f 519//196 517//356 499//434
f 519//196 499//434 501//436
f 520//447 519//196 501//436
f 521//448 520//447 503//437
f 522//449 521//448 503//437
f 522//449 503//437 504//438
f 507//347 504//438 479//439
f 507//347 479//439 478//413
f 507//347 522//449 504//438
f 507//347 478//413 506//348
f 364//450 367//352 349//327
f 507//347 524//200 525//451
f 526//452 529//452 523//452
f 180//179 184//203 203//453
f 530//346 533//346 532//346
f 535//454 534//455 518//446
f 518//446 534//455 516//445
f 535//456 537//456 534//456
f 360//457 362//458 342//325
f 167//168 168//169 186//459
f 373//361 372//353 346//334
f 540//460 541//460 539//460
f 525//461 545//461 544//461
f 523//364 546//222 524//223
f 529//462 546//222 523//364
f 526//225 546//222 529//462
f 527//463 546//222 526//225
f 528//464 546//222 527//463
f 532//465 546//222 528//464
f 533//371 546//222 532//465
f 530//466 546//222 533//371
f 531//231 546//222 530//466
f 534//467 546//222 531//231
f 537//468 546//222 534//467
f 535//469 546//222 537//468
f 538//470 546//222 535//469
f 536//471 546//222 538//470
f 539//472 546//222 536//471
f 541//473 546//222 539//472
f 540//474 546//222 541//473
f 542//382 546//222 540//474
f 543//475 546//222 542//382
f 544//476 546//222 543//475
f 545//477 546//222 544//476
f 525//478 524//223 546//222
f 525//478 546//222 545//477
f 547//14 548//14 560//14
f 547//14 549//14 548//14
f 547//14 550//14 549//14
f 547//14 551//14 550//14
f 547//14 553//14 552//14
f 547//14 554//14 553//14
f 547//14 555//14 554//14
f 547//14 556//14 555//14
f 547//14 557//14 556//14
f 547//14 558//14 557//14
f 547//14 559//14 558//14
f 547//14 560//14 559//14
f 402//254 384//259 403//260
f 234//251 215//479 235//268
f 409//404 388//480 410//18
f 411//20 389//19 412//398
f 582//8 559//7 583//399
f 395//403 381//481 396//245
f 243//15 208//482 221//273
f 401//39 383//38 402//254
f 576//253 555//483 577//484
f 71//15 35//485 49//17
f 585//40 586//41 562//273
f 561//31 585//40 562//273
f 561//31 587//43 585//40
f 563//33 587//43 561//31
f 563//33 588//44 587//43
f 589//45 563//33 564//486
f 589//45 588//44 563//33
f 565//487 589//45 564//486
f 565//487 590//47 589//45
f 565//487 591//48 590//47
f 591//48 565//487 566//34
f 567//36 591//48 566//34
f 567//36 593//51 592//52
f 567//36 592//52 591//48
f 593//51 567//36 568//400
f 569//402 593//51 568//400
f 569//402 594//54 593//51
f 569//402 595//55 594//54
f 595//55 569//402 570//262
f 571//264 595//55 570//262
f 571//264 596//57 595//55
f 597//58 571//264 572//4
f 597//58 596//57 571//264
f 573//6 597//58 572//4
f 573//6 598//59 597//58
f 573//6 599//60 598//59
f 599//60 573//6 574//281
f 575//251 599//60 574//281
f 575//251 600//63 599//60
f 601//64 575//251 576//253
f 601//64 600//63 575//251
f 577//484 601//64 576//253
f 577//484 602//488 601//64
f 577//484 603//489 602//488
f 603//489 577//484 578//490
f 579//11 603//489 578//490
f 579//11 604//491 603//489
f 605//492 579//11 580//13
f 605//492 604//491 579//11
f 581//10 605//492 580//13
f 581//10 606//493 605//492
f 581//10 607//405 606//493
f 607//405 581//10 582//8
f 583//399 607//405 582//8
f 583//399 586//41 608//77
f 583//399 608//77 607//405
f 586//41 584//15 562//273
f 586//41 583//399 584//15
f 610//78 586//41 585//40
f 609//494 611//80 610//78
f 587//43 610//78 585//40
f 612//81 588//44 589//45
f 612//81 587//43 588//44
f 590//47 612//81 589//45
f 613//82 592//52 593//51
f 613//82 591//48 592//52
f 614//495 609//494 610//78
f 614//495 610//78 587//43
f 594//54 613//82 593//51
f 612//81 616//496 615//497
f 612//81 615//497 614//495
f 612//81 614//495 587//43
f 617//86 616//496 612//81
f 617//86 618//87 616//496
f 617//86 612//81 590//47
f 619//88 596//57 597//58
f 619//88 595//55 596//57
f 620//89 617//86 590//47
f 620//89 618//87 617//86
f 620//89 590//47 591//48
f 598//59 619//88 597//58
f 622//90 591//48 613//82
f 622//90 621//498 620//89
f 622//90 620//89 591//48
f 624//92 623//93 622//90
f 624//92 622//90 613//82
f 624//92 613//82 594//54
f 626//94 600//63 601//64
f 626//94 599//60 600//63
f 627//95 624//92 594//54
f 627//95 625//96 624//92
f 627//95 594//54 595//55
f 602//488 626//94 601//64
f 629//97 628//98 627//95
f 629//97 627//95 595//55
f 629//97 595//55 619//88
f 631//99 619//88 598//59
f 631//99 629//97 619//88
f 631//99 630//100 629//97
f 633//499 604//491 605//492
f 633//499 603//489 604//491
f 634//102 598//59 599//60
f 634//102 632//103 631//99
f 634//102 631//99 598//59
f 606//493 633//499 605//492
f 636//104 599//60 626//94
f 636//104 635//105 634//102
f 636//104 634//102 599//60
f 638//106 606//493 607//405
f 638//106 607//405 608//77
f 639//107 626//94 602//488
f 639//107 636//104 626//94
f 639//107 637//108 636//104
f 586//41 638//106 608//77
f 641//109 640//110 639//107
f 641//109 602//488 603//489
f 641//109 639//107 602//488
f 633//499 643//409 642//292
f 633//499 641//109 603//489
f 633//499 642//292 641//109
f 644//410 643//409 633//499
f 644//410 633//499 606//493
f 638//106 645//114 644//410
f 638//106 644//410 606//493
f 646//115 610//78 611//80
f 646//115 586//41 610//78
f 646//115 645//114 638//106
f 646//115 638//106 586//41
f 647//500 609//494 614//495
f 647//500 648//501 609//494
f 650//502 614//495 615//497
f 650//502 647//500 614//495
f 618//87 620//89 621//119
f 651//503 615//497 616//496
f 651//503 650//502 615//497
f 652//504 651//503 616//496
f 652//504 616//496 618//87
f 623//123 621//119 622//124
f 653//505 652//504 618//87
f 653//505 618//87 621//119
f 625//126 623//123 624//127
f 654//301 621//119 623//123
f 654//301 653//505 621//119
f 628//129 625//126 627//130
f 655//506 654//301 623//123
f 655//506 623//123 625//126
f 630//420 628//129 629//421
f 657//507 625//126 628//129
f 657//507 655//506 625//126
f 655//506 656//508 654//301
f 632//136 630//420 631//137
f 659//509 657//507 628//129
f 659//509 628//129 630//420
f 657//507 658//510 655//506
f 635//140 632//136 634//141
f 661//307 659//509 630//420
f 661//307 630//420 632//136
f 659//509 660//511 657//507
f 637//144 635//140 636//145
f 663//309 632//136 635//140
f 663//309 661//307 632//136
f 661//307 662//512 659//509
f 640//148 637//144 639//149
f 665//513 663//309 635//140
f 665//513 635//140 637//144
f 663//309 664//514 661//307
f 642//292 640//148 641//152
f 667//153 637//144 640//148
f 667//153 665//513 637//144
f 665//513 666//515 663//309
f 669//315 667//153 640//148
f 669//315 640//148 642//292
f 667//153 668//516 665//513
f 671//517 642//292 643//409
f 671//517 669//315 642//292
f 669//315 670//518 667//153
f 672//519 671//517 643//409
f 672//519 643//409 644//410
f 646//160 611//160 609//160
f 673//520 672//519 644//410
f 673//520 644//410 645//114
f 649//162 673//520 645//114
f 649//162 645//114 646//115
f 649//162 609//494 648//501
f 649//162 646//115 609//494
f 649//162 674//521 673//520
f 550//35 565//487 549//522
f 656//508 653//505 654//301
f 658//510 656//508 655//506
f 660//511 658//510 657//507
f 647//500 675//523 648//501
f 662//512 660//511 659//509
f 676//191 652//504 653//505
f 664//514 662//512 661//307
f 677//194 675//523 647//500
f 678//189 653//505 656//508
f 678//189 676//191 653//505
f 666//515 664//514 663//309
f 679//524 651//503 652//504
f 680//192 677//194 647//500
f 680//192 647//500 650//502
f 686//525 678//189 656//508
f 686//525 656//508 658//510
f 668//516 666//515 665//513
f 676//191 679//524 652//504
f 681//526 680//192 650//502
f 681//526 650//502 651//503
f 682//527 658//510 660//511
f 682//527 686//525 658//510
f 670//518 668//516 667//153
f 679//524 681//526 651//503
f 683//528 682//527 660//511
f 683//528 660//511 662//512
f 671//517 670//518 669//315
f 684//529 662//512 664//514
f 684//529 683//528 662//512
f 666//515 684//529 664//514
f 674//521 649//162 648//501
f 685//349 668//516 670//518
f 687//206 684//529 666//515
f 688//211 670//518 671//517
f 688//211 685//349 670//518
f 668//516 687//206 666//515
f 672//519 688//211 671//517
f 689//216 672//519 673//520
f 690//355 687//206 668//516
f 692//217 689//216 673//520
f 692//217 673//520 674//521
f 692//217 674//521 648//501
f 691//209 688//211 672//519
f 685//349 690//355 668//516
f 689//216 691//209 672//519
f 692//217 648//501 675//523
f 526//530 523//202 505//201
f 355//338 374//362 350//336
f 696//531 698//531 693//531
f 186//459 168//169 188//532
f 349//327 365//351 347//330
f 169//170 189//340 172//171
f 350//336 373//361 348//335
f 194//533 169//170 171//173
f 702//534 703//534 701//534
f 704//535 707//535 706//535
f 202//204 180//179 203//453
f 202//204 201//187 179//180
f 711//536 712//536 710//536
f 350//336 336//337 355//338
f 695//537 715//537 714//537
f 693//538 716//222 694//223
f 698//539 716//222 693//538
f 696//540 716//222 698//539
f 699//541 716//222 696//540
f 697//542 716//222 699//541
f 701//543 716//222 697//542
f 703//544 716//222 701//543
f 702//545 716//222 703//544
f 700//546 716//222 702//545
f 705//547 716//222 700//546
f 706//548 716//222 705//547
f 707//549 716//222 706//548
f 704//550 716//222 707//549
f 708//551 716//222 704//550
f 710//552 716//222 708//551
f 712//473 716//222 710//552
f 711//553 716//222 712//473
f 709//554 716//222 711//553
f 713//555 716//222 709//554
f 714//556 716//222 713//555
f 715//557 716//222 714//556
f 695//558 694//223 716//222
f 695//558 716//222 715//557
f 584//15 560//559 562//273
f 576//253 554//252 555//483
f 5//560 3//560 6//560
f 225//271 210//392 211//272
f 552//5 571//264 547//263
f 235//268 215//479 216//269
f 542//561 521//448 543//562
f 575//251 553//563 554//252
f 42//248 60//28 41//27
f 15//564 13//564 14//564
f 21//560 19//560 22//560
f 67//71 45//393 46//261
f 23//564 21//564 22//564
f 2//565 8//565 7//565
f 31//14 27//14 26//14
f 26//565 32//565 31//565
f 7//564 5//564 6//564
f 378//566 392//17 379//16
f 219//390 240//283 218//391
f 242//76 208//482 243//15
f 54//50 38//567 39//568
f 382//246 398//24 397//247
f 405//394 385//569 386//395
f 25//222 32//222 28//222
f 38//567 52//46 37//570
f 51//3 36//2 37//570
f 43//22 62//62 42//248
f 13//560 11//560 14//560
f 583//399 560//559 584//15
f 57//30 40//29 33//249
f 9//571 10//571 11//571
f 218//391 238//267 217//266
f 55//53 39//568 40//29
f 66//68 44//572 45//393
f 229//37 212//25 206//38
f 9//222 16//222 12//222
f 683//528 704//573 706//574
f 681//526 696//575 680//192
f 711//350 685//349 709//210
f 681//526 679//524 697//576
f 675//523 695//218 692//217
f 343//326 360//457 342//325
f 182//577 163//166 164//164
f 702//578 678//189 700//579
f 194//533 175//176 195//580
f 678//189 702//578 701//190
f 686//525 700//579 678//189
f 508//440 526//530 505//201
f 691//209 713//581 709//210
f 714//219 691//209 689//216
f 234//251 214//582 215//479
f 211//272 227//24 226//247
f 400//37 377//25 383//38
f 548//32 562//273 560//559
f 39//568 55//53 54//50
f 29//560 27//560 30//560
f 567//36 551//401 568//400
f 10//565 16//565 15//565
f 37//570 52//46 51//3
f 1//571 2//571 3//571
f 231//254 206//38 213//259
f 237//265 216//269 217//266
f 182//577 165//165 185//583
f 346//334 348//335 373//361
f 535//454 513//213 538//360
f 167//168 185//583 165//165
f 699//584 681//526 697//576
f 338//198 362//458 359//357
f 528//585 509//441 510//442
f 515//214 539//195 536//212
f 370//586 351//333 352//331
f 349//327 341//329 364//450
f 178//178 197//587 193//588
f 192//341 169//170 194//533
f 522//449 544//589 521//448
f 687//206 708//208 704//573
f 544//589 543//562 521//448
f 511//345 532//344 528//585
f 353//590 339//183 357//591
f 25//571 26//571 27//571
f 70//76 35//485 71//15
f 44//572 64//23 43//22
f 413//399 379//16 414//15
f 23//14 19//14 18//14
f 17//571 18//571 19//571
f 1//222 8//222 4//222
f 209//592 224//275 223//274
f 209//592 222//256 207//255
f 214//582 232//260 213//259
f 556//593 577//484 555//483
f 34//566 49//17 35//485
f 50//1 34//566 36//2
f 227//24 211//272 212//25
f 385//569 403//260 384//259
f 549//522 563//33 548//32
f 407//387 386//395 387//388
f 410//18 388//480 389//19
f 347//330 361//594 345//328
f 396//245 381//481 382//246
f 381//481 395//403 394//258
f 360//457 345//328 361//594
f 370//586 344//332 369//339
f 520//447 540//197 519//196
f 356//185 357//591 339//183
f 511//345 528//585 510//442
f 509//441 526//530 508//440
f 544//589 522//449 507//347
f 687//206 704//573 684//529
f 512//444 530//343 511//345
f 351//333 364//450 341//329
f 507//347 525//451 544//589
f 524//200 506//348 505//201
f 531//595 512//444 514//443
f 516//445 531//595 514//443
f 41//27 58//56 33//249
f 547//263 569//402 551//401
f 398//24 382//246 377//25
f 31//564 29//564 30//564
f 388//480 408//389 387//388
f 553//563 573//6 552//5
f 394//258 380//257 381//481
f 207//255 221//273 208//482
f 393//1 378//566 380//257
f 549//522 565//487 564//486
f 7//14 3//14 2//14
f 558//9 580//13 557//12
f 17//222 24//222 20//222
f 47//250 68//72 46//261
f 15//14 11//14 10//14
f 18//565 24//565 23//565
f 579//11 556//593 557//12
f 682//527 706//574 705//596
f 402//254 383//38 384//259
f 701//190 679//524 676//191
f 355//338 335//324 354//597
f 688//211 709//210 685//349
f 172//171 189//340 166//167
f 193//588 175//176 176//174
f 677//194 694//598 675//523
f 680//192 696//575 693//193
f 353//590 335//324 337//323
f 193//588 176//174 178//178
f 174//177 202//204 179//180
f 178//178 199//599 197//587
f 173//175 198//186 177//181
f 184//203 163//166 183//600
f 690//355 710//207 687//206
f 199//599 177//181 198//186
f 168//169 190//358 188//532
f 682//527 700//579 686//525
f 550//35 566//34 565//487
f 5//560 1//560 3//560
f 552//5 572//4 571//264
f 542//561 520//447 521//448
f 575//251 574//281 553//563
f 42//248 61//61 60//28
f 15//564 16//564 13//564
f 21//560 17//560 19//560
f 23//564 24//564 21//564
f 2//565 4//565 8//565
f 31//14 30//14 27//14
f 26//565 28//565 32//565
f 7//564 8//564 5//564
f 378//566 391//42 392//17
f 219//390 241//75 240//283
f 242//76 219//390 208//482
f 54//50 53//49 38//567
f 405//394 404//281 385//569
f 25//222 29//222 32//222
f 38//567 53//49 52//46
f 43//22 63//21 62//62
f 13//560 9//560 11//560
f 583//399 559//7 560//559
f 9//571 12//571 10//571
f 218//391 239//282 238//267
f 66//68 65//67 44//572
f 9//222 13//222 16//222
f 683//528 684//529 704//573
f 681//526 699//584 696//575
f 675//523 694//598 695//218
f 182//577 183//600 163//166
f 194//533 171//173 175//176
f 714//219 713//581 691//209
f 234//251 233//281 214//582
f 548//32 561//31 562//273
f 29//560 25//560 27//560
f 567//36 550//35 551//401
f 10//565 12//565 16//565
f 1//571 4//571 2//571
f 182//577 164//164 165//165
f 535//454 518//446 513//213
f 167//168 186//459 185//583
f 338//198 342//325 362//458
f 528//585 527//601 509//441
f 515//214 517//356 539//195
f 370//586 366//602 351//333
f 353//590 337//323 339//183
f 25//571 28//571 26//571
f 70//76 47//250 35//485
f 44//572 65//67 64//23
f 413//399 390//397 379//16
f 23//14 22//14 19//14
f 17//571 20//571 18//571
f 1//222 5//222 8//222
f 209//592 210//392 224//275
f 209//592 223//274 222//256
f 214//582 233//281 232//260
f 556//593 578//490 577//484
f 34//566 48//42 49//17
f 50//1 48//42 34//566
f 385//569 404//281 403//260
f 549//522 564//486 563//33
f 407//387 406//396 386//395
f 347//330 365//351 361//594
f 360//457 343//326 345//328
f 370//586 352//331 344//332
f 520//447 542//561 540//197
f 509//441 527//601 526//530
f 351//333 366//602 364//450
f 531//595 530//343 512//444
f 516//445 534//455 531//595
f 41//27 59//4 58//56
f 547//263 570//262 569//402
f 31//564 32//564 29//564
f 388//480 409//404 408//389
f 553//563 574//281 573//6
f 207//255 220//31 221//273
f 393//1 391//42 378//566
f 7//14 6//14 3//14
f 558//9 581//10 580//13
f 17//222 21//222 24//222
f 47//250 69//75 68//72
f 15//14 14//14 11//14
f 18//565 20//565 24//565
f 579//11 578//490 556//593
f 682//527 683//528 706//574
f 701//190 697//576 679//524
f 193//588 195//580 175//176
f 677//194 693//193 694//598
f 353//590 354//597 335//324
f 178//178 177//181 199//599
f 184//203 181//182 163//166
f 168//169 166//167 190//358
f 682//527 705//596 700//579
