# Blender 5.2.1 LTS
# www.blender.org
mtllib balustrade_post.mtl
o balustrade_post
v -0.190000 0.160000 0.190000
v -0.190000 0.000000 -0.190000
v -0.190000 0.000000 0.190000
v -0.190000 0.160000 -0.190000
v 0.190000 0.160000 0.190000
v 0.190000 0.000000 0.190000
v 0.190000 0.000000 -0.190000
v 0.190000 0.160000 -0.190000
v 0.150000 0.200000 0.150000
v -0.150000 0.200000 0.150000
v 0.150000 0.200000 -0.150000
v -0.150000 0.200000 -0.150000
v -0.150000 0.830000 0.150000
v -0.150000 0.830000 -0.150000
v 0.150000 0.830000 0.150000
v 0.150000 0.830000 -0.150000
v 0.034219 0.870906 0.181875
v -0.210000 0.907000 0.210000
v 0.210000 0.907000 0.210000
v 0.181875 0.870906 -0.034219
v 0.210000 0.907000 -0.210000
v -0.034219 0.870906 -0.181875
v -0.210000 0.907000 -0.210000
v -0.181875 0.870906 0.034219
v -0.210000 0.970000 0.210000
v -0.210000 0.970000 -0.210000
v 0.210000 0.970000 0.210000
v 0.210000 0.970000 -0.210000
v 0.015534 0.971030 -0.004248
v 0.000000 0.970000 0.000000
v 0.029551 0.975265 -0.010408
v 0.057793 0.990994 0.004830
v -0.006924 0.971202 -0.014849
v 0.041034 0.981954 -0.019134
v 0.015513 0.975403 -0.026870
v 0.054627 0.990802 -0.019883
v 0.025969 0.981954 -0.037088
v -0.008098 0.975116 -0.030222
v 0.069122 1.002049 0.000000
v 0.077881 1.014859 0.006509
v 0.042670 0.995907 -0.047658
v -0.000000 0.981771 -0.045356
v 0.064946 1.002040 -0.023638
v 0.026466 0.994794 -0.056756
v 0.062730 1.007996 -0.039146
v 0.078313 1.019832 -0.020984
v -0.014849 0.971202 0.006924
v -0.026870 0.975403 -0.015513
v 0.005055 0.990993 -0.057775
v -0.022563 0.982032 -0.039080
v 0.086686 1.033984 -0.000000
v -0.019883 0.990802 -0.054627
v 0.055265 1.014860 -0.055265
v -0.037088 0.981954 -0.025969
v 0.006037 1.001712 -0.069008
v -0.030222 0.975116 0.008098
v 0.073476 1.029083 -0.042422
v 0.034264 1.019832 -0.073480
v -0.047658 0.995907 -0.042670
v 0.086887 1.049818 -0.023281
v -0.045356 0.981771 0.000000
v -0.023638 1.002040 -0.064946
v 0.054536 1.029083 -0.064994
v 0.006812 1.014860 -0.077859
v -0.056756 0.994794 -0.026466
v 0.072866 1.044289 -0.051021
v -0.039146 1.007996 -0.062730
v 0.090342 1.060000 0.000000
v 0.088640 1.075713 -0.007408
v -0.020228 1.014860 -0.075493
v 0.004214 0.971305 0.015726
v 0.014733 1.029083 -0.083554
v -0.015513 0.975403 0.026870
v -0.057775 0.990993 -0.005055
v 0.051021 1.044289 -0.072866
v -0.039080 0.982032 0.022563
v 0.078237 1.060000 -0.045170
v -0.014733 1.029083 -0.083554
v -0.054627 0.990802 0.019883
v -0.055265 1.014860 -0.055265
v 0.023023 1.044289 -0.085922
v -0.025969 0.981954 0.037088
v -0.069008 1.001712 -0.006037
v 0.063605 1.070182 -0.063605
v 0.008098 0.975116 0.030222
v 0.080619 1.075711 -0.037593
v -0.042422 1.029083 -0.073476
v 0.045170 1.060000 -0.078237
v -0.073480 1.019832 -0.034264
v -0.007753 1.044288 -0.088615
v 0.084851 1.090899 -0.000000
v 0.072730 1.113754 -0.000000
v -0.042670 0.995907 0.047658
v 0.000000 0.981771 0.045356
v -0.064946 1.002040 0.023638
v -0.064994 1.029083 -0.054536
v 0.015687 1.060000 -0.088968
v 0.079726 1.090917 -0.029018
v -0.077859 1.014860 -0.006812
v -0.030314 1.044372 -0.083287
v -0.026466 0.994794 0.056756
v -0.051021 1.044289 -0.072866
v 0.037593 1.075711 -0.080619
v -0.062730 1.007996 0.039146
v -0.015687 1.060000 -0.088968
v 0.064994 1.090917 -0.054536
v -0.075493 1.014860 0.020228
v 0.075493 1.105141 -0.020228
v -0.083554 1.029083 -0.014733
v 0.028258 0.975358 0.013177
v -0.005055 0.990993 0.057775
v -0.072866 1.044289 -0.051021
v 0.007753 1.075711 -0.088615
v 0.022563 0.982032 0.039080
v -0.045170 1.060000 -0.078237
v 0.046503 1.100168 -0.066413
v 0.064022 1.105141 -0.044828
v -0.083554 1.029083 0.014733
v 0.029018 1.090917 -0.079726
v 0.057793 1.129006 0.004830
v 0.019883 0.990802 0.054627
v -0.055265 1.014860 0.055265
v -0.085922 1.044289 -0.023023
v -0.015075 1.085591 -0.085497
v 0.037088 0.981954 0.025969
v -0.006037 1.001712 0.069008
v -0.063605 1.070182 -0.063605
v 0.064946 1.117960 -0.023638
v -0.037185 1.081268 -0.079743
v -0.073476 1.029083 0.042422
v -0.078237 1.060000 -0.045170
v 0.007066 1.100168 -0.080767
v -0.034264 1.019832 0.073480
v -0.088615 1.044288 0.007753
v 0.048983 1.118288 -0.048983
v 0.047658 0.995907 0.042670
v 0.027658 1.112004 -0.068574
v 0.054627 1.129198 -0.019883
v 0.045104 0.981963 0.003886
v 0.023638 1.002040 0.064946
v -0.054536 1.029083 0.064994
v -0.088968 1.060000 -0.015687
v -0.006812 1.014860 0.077859
v -0.083287 1.044372 0.030314
v 0.059378 0.995907 0.023797
v -0.072866 1.044289 0.051021
v -0.080619 1.075711 -0.037593
v 0.039146 1.007996 0.062730
v -0.088968 1.060000 0.015687
v -0.054536 1.090917 -0.064994
v 0.045128 1.137967 0.000000
v 0.029550 1.144735 -0.010408
v 0.020228 1.014860 0.075493
v -0.020228 1.105141 -0.075493
v 0.041009 1.129007 -0.041009
v -0.014733 1.029083 0.083554
v 0.012001 1.117960 -0.068064
v 0.039279 1.138229 -0.022678
v -0.051021 1.044289 0.072866
v -0.088615 1.075711 -0.007753
v -0.078237 1.060000 0.045170
v -0.066413 1.100168 -0.046503
v -0.044828 1.105141 -0.064022
v 0.024510 1.129007 -0.052562
v 0.014733 1.029083 0.083554
v -0.079726 1.090917 -0.029018
v -0.012001 1.117960 -0.068064
v 0.055265 1.014860 0.055265
v -0.023023 1.044289 0.085922
v -0.085497 1.085591 0.015075
v -0.063605 1.070182 0.063605
v -0.079743 1.081268 0.037185
v 0.003247 1.134158 -0.051739
v 0.042422 1.029083 0.073476
v -0.045170 1.060000 0.078237
v -0.080767 1.100168 -0.007066
v -0.034557 1.117960 -0.059854
v 0.019135 1.138046 -0.041034
v 0.070834 1.014860 0.033030
v 0.007753 1.044288 0.088615
v 0.000000 1.150000 0.000000
v -0.068574 1.112004 -0.027658
v -0.019883 1.129198 -0.054627
v 0.064994 1.029083 0.054536
v -0.015687 1.060000 0.088968
v -0.047658 1.124093 -0.042670
v 0.030314 1.044372 0.083287
v 0.010702 1.144730 -0.029402
v 0.011330 1.148650 -0.011330
v 0.051021 1.044289 0.072866
v -0.037593 1.075711 0.080619
v 0.079726 1.029083 0.029018
v 0.015687 1.060000 0.088968
v -0.064994 1.090917 0.054536
v -0.075493 1.105141 0.020228
v -0.068064 1.117960 -0.012001
v -0.022678 1.138229 -0.039279
v 0.072866 1.044289 0.051021
v -0.007753 1.075711 0.088615
v 0.045170 1.060000 0.078237
v -0.046503 1.100168 0.066413
v -0.064022 1.105141 0.044828
v -0.052562 1.129007 -0.024510
v -0.029018 1.090917 0.079726
v -0.068064 1.117960 0.012001
v 0.085922 1.044289 0.023023
v 0.015075 1.085591 0.085497
v -0.013177 1.144642 -0.028258
v 0.063605 1.070182 0.063605
v -0.006924 1.148798 -0.014850
v 0.037185 1.081268 0.079743
v -0.051739 1.134158 -0.003247
v 0.078237 1.060000 0.045170
v -0.007066 1.100168 0.080767
v -0.059854 1.117960 0.034557
v -0.041034 1.138046 -0.019135
v -0.027658 1.112004 0.068574
v -0.054627 1.129198 0.019883
v 0.087924 1.067911 0.019582
v -0.042670 1.124093 0.047658
v -0.029402 1.144730 -0.010702
v 0.080619 1.075711 0.037593
v 0.054536 1.090917 0.064994
v 0.020228 1.105141 0.075493
v -0.012001 1.117960 0.068064
v -0.039279 1.138229 0.022678
v 0.066413 1.100168 0.046503
v 0.044828 1.105141 0.064022
v -0.024510 1.129007 0.052562
v 0.079726 1.090917 0.029018
v 0.012001 1.117960 0.068064
v -0.028258 1.144642 0.013177
v -0.014850 1.148798 0.006924
v -0.003247 1.134158 0.051739
v 0.034557 1.117960 0.059854
v -0.019135 1.138046 0.041034
v 0.075493 1.105141 0.020228
v 0.019883 1.129198 0.054627
v 0.047658 1.124093 0.042670
v -0.010702 1.144730 0.029402
v 0.064946 1.117960 0.023638
v 0.022678 1.138229 0.039279
v 0.052562 1.129007 0.024510
v 0.013177 1.144642 0.028258
v 0.002806 1.148667 0.015914
v 0.041034 1.138046 0.019135
v 0.028258 1.144642 0.013177
v 0.015719 1.148687 0.004260
vn -0.0000 0.7071 0.7071
vn 0.7071 0.7071 -0.0000
vn -0.0000 0.7071 -0.7071
vn -0.7071 0.7071 -0.0000
vn -0.0000 -1.0000 -0.0000
vn -0.0000 1.0000 -0.0000
vn -0.0000 -0.6146 0.7888
vn 0.7888 -0.6146 -0.0000
vn 0.7888 -0.6147 -0.0000
vn -0.0000 -0.6146 -0.7888
vn -0.7888 -0.6146 -0.0000
vn -0.7888 -0.6147 -0.0000
vn -0.0727 -0.9848 -0.1578
vn 0.1648 -0.9852 -0.0469
vn -0.0011 -1.0000 -0.0004
vn 0.4544 -0.8610 -0.2286
vn 0.5010 -0.8643 0.0454
vn 0.3319 -0.9358 -0.1193
vn 0.1651 -0.9411 -0.2951
vn 0.6015 -0.7667 -0.2241
vn 0.6396 -0.7673 0.0459
vn 0.2908 -0.8619 -0.4153
vn -0.0917 -0.9387 -0.3323
vn 0.7692 -0.6390 -0.0061
vn 0.4783 -0.7047 -0.5241
vn 0.0145 -0.8635 -0.5042
vn 0.7273 -0.6393 -0.2497
vn 0.2901 -0.7110 -0.6405
vn 0.6930 -0.5766 -0.4328
vn 0.8705 -0.4361 -0.2281
vn 0.8626 -0.4991 0.0822
vn -0.1606 -0.9843 0.0727
vn -0.2966 -0.9398 -0.1697
vn 0.0548 -0.7721 -0.6331
vn -0.2665 -0.8628 -0.4296
vn 0.9586 -0.2846 -0.0014
vn -0.2235 -0.7641 -0.6051
vn 0.6028 -0.5020 -0.6202
vn -0.4157 -0.8634 -0.2860
vn 0.0648 -0.6395 -0.7660
vn -0.3323 -0.9387 0.0917
vn 0.8173 -0.3400 -0.4653
vn 0.3783 -0.4516 -0.8081
vn -0.5257 -0.7033 -0.4786
vn 0.9587 -0.1128 -0.2611
vn -0.5042 -0.8635 -0.0145
vn -0.2430 -0.6471 -0.7226
vn 0.6121 -0.3375 -0.7152
vn 0.0725 -0.4954 -0.8656
vn -0.6405 -0.7110 -0.2901
vn 0.7985 -0.1734 -0.5765
vn -0.4334 -0.5758 -0.6932
vn 0.9999 -0.0132 -0.0004
vn -0.2193 -0.4996 -0.8381
vn 0.0496 -0.9841 0.1705
vn 0.1545 -0.3375 -0.9286
vn -0.1721 -0.9388 0.2983
vn -0.6331 -0.7721 -0.0548
vn 0.5656 -0.1739 -0.8061
vn -0.4296 -0.8628 0.2665
vn 0.8660 -0.0000 -0.5000
vn -0.1620 -0.3466 -0.9239
vn -0.6051 -0.7641 0.2235
vn -0.6202 -0.5020 -0.6028
vn 0.2688 -0.1736 -0.9474
vn 0.9795 0.1740 -0.1010
vn -0.2860 -0.8634 0.4157
vn -0.7660 -0.6395 -0.0648
vn 0.6982 0.1122 -0.7070
vn 0.0967 -0.9395 0.3288
vn 0.8951 0.1732 -0.4108
vn -0.4652 -0.3511 -0.8126
vn 0.4937 -0.0015 -0.8697
vn -0.8081 -0.4516 -0.3783
vn -0.0652 -0.1724 -0.9829
vn -0.4786 -0.7033 0.5257
vn -0.0145 -0.8635 0.5042
vn -0.7226 -0.6471 0.2430
vn -0.7152 -0.3375 -0.6120
vn 0.1736 -0.0000 -0.9848
vn 0.8847 0.3395 -0.3194
vn 0.9381 0.3462 0.0088
vn -0.8656 -0.4954 -0.0725
vn -0.3370 -0.1711 -0.9258
vn -0.2901 -0.7110 0.6405
vn -0.5849 -0.1726 -0.7925
vn 0.4204 0.1749 -0.8903
vn -0.6932 -0.5758 0.4334
vn -0.1789 0.0147 -0.9838
vn 0.7231 0.3305 -0.6065
vn -0.8381 -0.4996 0.2193
vn 0.8406 0.4938 -0.2225
vn 0.8029 0.5961 -0.0026
vn -0.9286 -0.3375 -0.1545
vn 0.3036 -0.9408 0.1510
vn -0.0548 -0.7721 0.6331
vn -0.8061 -0.1739 -0.5656
vn 0.0857 0.1764 -0.9806
vn 0.2665 -0.8628 0.4296
vn -0.4919 0.0119 -0.8706
vn 0.5230 0.4290 -0.7365
vn 0.7152 0.5021 -0.4862
vn -0.9239 -0.3466 0.1620
vn 0.3140 0.3398 -0.8865
vn 0.2235 -0.7641 0.6051
vn -0.6028 -0.5020 0.6202
vn -0.9474 -0.1736 -0.2689
vn -0.1646 0.2790 -0.9461
vn 0.4134 -0.8622 0.2928
vn -0.0648 -0.6395 0.7660
vn -0.7072 0.1118 -0.6981
vn 0.7165 0.6427 -0.2712
vn -0.4117 0.2351 -0.8804
vn -0.8126 -0.3511 0.4652
vn -0.8697 -0.0015 -0.4937
vn 0.0718 0.4435 -0.8934
vn -0.3783 -0.4516 0.8081
vn -0.9829 -0.1724 0.0652
vn 0.5419 0.6426 -0.5416
vn 0.5224 -0.7074 0.4760
vn 0.3141 0.5769 -0.7540
vn 0.6117 0.7604 -0.2181
vn 0.6480 0.7602 0.0472
vn 0.2430 -0.6471 0.7226
vn -0.6121 -0.3375 0.7152
vn -0.9848 -0.0000 -0.1736
vn -0.0725 -0.4954 0.8656
vn -0.9258 -0.1711 0.3370
vn 0.6619 -0.7023 0.2621
vn -0.7925 -0.1726 0.5849
vn -0.8903 0.1749 -0.4204
vn 0.4334 -0.5758 0.6932
vn -0.9838 0.0147 0.1789
vn -0.6108 0.3321 -0.7188
vn 0.5000 0.8660 -0.0025
vn 0.2193 -0.4996 0.8381
vn -0.2329 0.4925 -0.8386
vn 0.4524 0.7722 -0.4461
vn -0.1545 -0.3375 0.9286
vn 0.1149 0.6488 -0.7522
vn 0.4244 0.8671 -0.2608
vn -0.5656 -0.1739 0.8061
vn -0.9806 0.1764 -0.0857
vn -0.8706 0.0119 0.4919
vn -0.7308 0.4364 -0.5249
vn -0.4944 0.4998 -0.7112
vn 0.2822 0.7533 -0.5940
vn 0.1620 -0.3466 0.9239
vn -0.8865 0.3398 -0.3140
vn -0.1185 0.6420 -0.7575
vn 0.6192 -0.4995 0.6059
vn -0.2688 -0.1736 0.9474
vn -0.9461 0.2790 0.1646
vn 0.3232 0.9391 -0.1167
vn -0.6981 0.1118 0.7072
vn -0.8804 0.2351 0.4117
vn 0.0245 0.8195 -0.5726
vn 0.4652 -0.3511 0.8126
vn -0.4937 -0.0015 0.8697
vn -0.8934 0.4435 -0.0718
vn -0.3816 0.6427 -0.6643
vn 0.2277 0.8673 -0.4426
vn 0.7777 -0.5094 0.3684
vn 0.0652 -0.1724 0.9829
vn -0.7555 0.5749 -0.3142
vn -0.2214 0.7658 -0.6038
vn 0.7190 -0.3400 0.6061
vn -0.1736 -0.0000 0.9848
vn -0.5260 0.7050 -0.4757
vn 0.3370 -0.1711 0.9258
vn 0.1168 0.9380 -0.3263
vn 0.1290 0.9826 -0.1338
vn -0.0006 1.0000 0.0003
vn 0.1769 0.9828 0.0532
vn 0.5849 -0.1726 0.7925
vn -0.4204 0.1749 0.8903
vn 0.8826 -0.3410 0.3238
vn 0.1789 0.0147 0.9838
vn -0.7188 0.3321 0.6108
vn -0.8386 0.4925 0.2329
vn -0.7522 0.6488 -0.1149
vn -0.2609 0.8646 -0.4295
vn 0.8039 -0.1728 0.5690
vn -0.0857 0.1764 0.9806
vn 0.4919 0.0119 0.8706
vn -0.5249 0.4364 0.7308
vn -0.7112 0.4998 0.4944
vn -0.5906 0.7589 -0.2742
vn -0.3140 0.3398 0.8865
vn -0.7575 0.6420 0.1185
vn 0.9520 -0.1655 0.2576
vn 0.1646 0.2790 0.9461
vn -0.1430 0.9352 -0.3240
vn 0.7072 0.1118 0.6981
vn -0.0807 0.9834 -0.1623
vn 0.4117 0.2351 0.8804
vn -0.5726 0.8195 -0.0245
vn 0.8679 -0.0030 0.4968
vn -0.0718 0.4435 0.8934
vn -0.6643 0.6427 0.3816
vn -0.4426 0.8657 -0.2337
vn -0.3142 0.5749 0.7555
vn -0.6038 0.7658 0.2214
vn 0.9723 0.0930 0.2143
vn -0.4757 0.7050 0.5260
vn -0.3236 0.9393 -0.1144
vn 0.8820 0.1804 0.4354
vn 0.6108 0.3321 0.7188
vn 0.2329 0.4925 0.8386
vn -0.1149 0.6488 0.7522
vn -0.4295 0.8646 0.2609
vn 0.7325 0.4428 0.5171
vn 0.4944 0.4998 0.7112
vn -0.2742 0.7589 0.5906
vn 0.8870 0.3414 0.3108
vn 0.1185 0.6420 0.7575
vn -0.3240 0.9352 0.1430
vn -0.1651 0.9835 0.0733
vn -0.0245 0.8195 0.5726
vn 0.3816 0.6427 0.6643
vn -0.2337 0.8657 0.4426
vn 0.8400 0.4949 0.2225
vn 0.2214 0.7658 0.6038
vn 0.5281 0.7035 0.4756
vn -0.1164 0.9380 0.3265
vn 0.7198 0.6380 0.2736
vn 0.2606 0.8637 0.4315
vn 0.5822 0.7666 0.2707
vn 0.1386 0.9376 0.3189
vn 0.0319 0.9831 0.1803
vn 0.4511 0.8635 0.2257
vn 0.3124 0.9379 0.1511
vn 1.0000 -0.0000 -0.0000
vn -0.0000 -0.0000 1.0000
vn -1.0000 -0.0000 -0.0000
vn -0.0000 -0.0000 -1.0000
s 1
usemtl paint
f 9//1 1//1 5//1
f 9//1 10//1 1//1
f 11//2 5//2 8//2
f 11//2 9//2 5//2
f 12//3 8//3 4//3
f 12//3 11//3 8//3
f 10//4 4//4 1//4
f 10//4 12//4 4//4
f 5//5 1//5 4//5
f 5//5 4//5 8//5
f 11//5 10//5 12//5
f 11//5 9//5 10//5
f 16//6 14//6 13//6
f 16//6 13//6 15//6
f 17//7 13//7 15//7
f 17//7 18//7 13//7
f 17//7 19//7 18//7
f 17//7 15//7 19//7
f 20//8 15//8 16//9
f 20//8 19//8 15//8
f 20//8 21//8 19//8
f 20//8 16//9 21//8
f 22//10 16//10 14//10
f 22//10 21//10 16//10
f 22//10 23//10 21//10
f 22//10 14//10 23//10
f 24//11 14//11 13//12
f 24//11 23//11 14//11
f 24//11 18//11 23//11
f 24//11 13//12 18//11
f 21//5 18//5 23//5
f 21//5 19//5 18//5
f 33//13 29//14 30//15
f 34//16 139//17 31//18
f 35//19 31//18 29//14
f 35//19 29//14 33//13
f 36//20 139//17 34//16
f 36//20 32//21 139//17
f 37//22 31//18 35//19
f 37//22 34//16 31//18
f 38//23 35//19 33//13
f 39//24 32//21 36//20
f 41//25 34//16 37//22
f 41//25 36//20 34//16
f 42//26 35//19 38//23
f 42//26 37//22 35//19
f 43//27 39//24 36//20
f 44//28 41//25 37//22
f 45//29 36//20 41//25
f 45//29 43//27 36//20
f 44//28 37//22 42//26
f 46//30 40//31 39//24
f 46//30 39//24 43//27
f 47//32 33//13 30//15
f 48//33 38//23 33//13
f 49//34 44//28 42//26
f 50//35 42//26 38//23
f 45//29 46//30 43//27
f 51//36 40//31 46//30
f 48//33 33//13 47//32
f 52//37 49//34 42//26
f 53//38 45//29 41//25
f 54//39 50//35 38//23
f 54//39 38//23 48//33
f 55//40 44//28 49//34
f 56//41 48//33 47//32
f 52//37 42//26 50//35
f 57//42 46//30 45//29
f 58//43 53//38 41//25
f 58//43 41//25 44//28
f 55//40 49//34 52//37
f 57//42 45//29 53//38
f 59//44 52//37 50//35
f 59//44 50//35 54//39
f 58//43 44//28 55//40
f 60//45 51//36 46//30
f 61//46 48//33 56//41
f 61//46 54//39 48//33
f 62//47 55//40 52//37
f 63//48 57//42 53//38
f 64//49 58//43 55//40
f 60//45 46//30 57//42
f 63//48 53//38 58//43
f 65//50 59//44 54//39
f 66//51 60//45 57//42
f 67//52 52//37 59//44
f 67//52 62//47 52//37
f 68//53 51//36 60//45
f 65//50 54//39 61//46
f 70//54 55//40 62//47
f 70//54 64//49 55//40
f 66//51 57//42 63//48
f 71//55 47//32 30//15
f 72//56 58//43 64//49
f 73//57 56//41 47//32
f 74//58 65//50 61//46
f 75//59 66//51 63//48
f 76//60 61//46 56//41
f 77//61 60//45 66//51
f 67//52 70//54 62//47
f 75//59 63//48 58//43
f 78//62 72//56 64//49
f 78//62 64//49 70//54
f 73//57 47//32 71//55
f 79//63 74//58 61//46
f 80//64 67//52 59//44
f 81//65 58//43 72//56
f 81//65 75//59 58//43
f 69//66 68//53 60//45
f 82//67 76//60 56//41
f 82//67 56//41 73//57
f 83//68 65//50 74//58
f 84//69 66//51 75//59
f 84//69 77//61 66//51
f 85//70 73//57 71//55
f 79//63 61//46 76//60
f 86//71 69//66 60//45
f 86//71 60//45 77//61
f 87//72 78//62 70//54
f 87//72 70//54 67//52
f 88//73 84//69 75//59
f 89//74 80//64 59//44
f 89//74 59//44 65//50
f 90//75 81//65 72//56
f 90//75 72//56 78//62
f 83//68 74//58 79//63
f 87//72 67//52 80//64
f 88//73 75//59 81//65
f 93//76 79//63 76//60
f 93//76 76//60 82//67
f 89//74 65//50 83//68
f 84//69 86//71 77//61
f 94//77 73//57 85//70
f 94//77 82//67 73//57
f 95//78 83//68 79//63
f 96//79 87//72 80//64
f 97//80 88//73 81//65
f 98//81 91//82 69//66
f 98//81 69//66 86//71
f 99//83 89//74 83//68
f 100//84 78//62 87//72
f 100//84 90//75 78//62
f 29//14 71//55 30//15
f 96//79 80//64 89//74
f 97//80 81//65 90//75
f 101//85 93//76 82//67
f 102//86 100//84 87//72
f 103//87 84//69 88//73
f 104//88 95//78 79//63
f 104//88 79//63 93//76
f 105//89 97//80 90//75
f 106//90 98//81 86//71
f 106//90 86//71 84//69
f 101//85 82//67 94//77
f 107//91 83//68 95//78
f 107//91 99//83 83//68
f 102//86 87//72 96//79
f 103//87 88//73 97//80
f 108//92 92//93 91//82
f 108//92 91//82 98//81
f 109//94 89//74 99//83
f 105//89 90//75 100//84
f 110//95 71//55 29//14
f 110//95 85//70 71//55
f 111//96 101//85 94//77
f 112//97 102//86 96//79
f 113//98 103//87 97//80
f 114//99 94//77 85//70
f 115//100 100//84 102//86
f 115//100 105//89 100//84
f 116//101 84//69 103//87
f 116//101 106//90 84//69
f 104//88 107//91 95//78
f 112//97 96//79 89//74
f 113//98 97//80 105//89
f 117//102 108//92 98//81
f 117//102 98//81 106//90
f 118//103 109//94 99//83
f 118//103 99//83 107//91
f 119//104 116//101 103//87
f 121//105 111//96 94//77
f 122//106 104//88 93//76
f 123//107 89//74 109//94
f 123//107 112//97 89//74
f 124//108 113//98 105//89
f 125//109 114//99 85//70
f 125//109 85//70 110//95
f 126//110 101//85 111//96
f 127//111 102//86 112//97
f 127//111 115//100 102//86
f 119//104 103//87 113//98
f 128//112 92//93 108//92
f 110//95 29//14 31//18
f 121//105 94//77 114//99
f 129//113 124//108 105//89
f 129//113 105//89 115//100
f 116//101 117//102 106//90
f 130//114 118//103 107//91
f 130//114 107//91 104//88
f 131//115 127//111 112//97
f 132//116 119//104 113//98
f 128//112 108//92 117//102
f 133//117 122//106 93//76
f 133//117 93//76 101//85
f 134//118 109//94 118//103
f 134//118 123//107 109//94
f 126//110 111//96 121//105
f 130//114 104//88 122//106
f 131//115 112//97 123//107
f 124//108 132//116 113//98
f 135//119 128//112 117//102
f 136//120 114//99 125//109
f 136//120 121//105 114//99
f 133//117 101//85 126//110
f 127//111 129//113 115//100
f 137//121 116//101 119//104
f 138//122 92//93 128//112
f 138//122 120//123 92//93
f 139//17 125//109 110//95
f 140//124 126//110 121//105
f 141//125 130//114 122//106
f 142//126 131//115 123//107
f 135//119 117//102 116//101
f 143//127 133//117 126//110
f 144//128 134//118 118//103
f 144//128 118//103 130//114
f 132//116 137//121 119//104
f 139//17 110//95 31//18
f 141//125 122//106 133//117
f 142//126 123//107 134//118
f 145//129 136//120 125//109
f 146//130 144//128 130//114
f 147//131 127//111 131//115
f 138//122 128//112 135//119
f 148//132 140//124 121//105
f 148//132 121//105 136//120
f 149//133 142//126 134//118
f 150//134 129//113 127//111
f 137//121 135//119 116//101
f 151//135 120//123 138//122
f 145//129 125//109 139//17
f 153//136 126//110 140//124
f 153//136 143//127 126//110
f 146//130 130//114 141//125
f 147//131 131//115 142//126
f 154//137 132//116 124//108
f 155//138 138//122 135//119
f 156//139 133//117 143//127
f 149//133 134//118 144//128
f 157//140 137//121 132//116
f 158//141 151//135 138//122
f 32//21 145//129 139//17
f 159//142 146//130 141//125
f 160//143 147//131 142//126
f 154//137 124//108 129//113
f 161//144 144//128 146//130
f 161//144 149//133 144//128
f 162//145 150//134 127//111
f 162//145 127//111 147//131
f 148//132 153//136 140//124
f 159//142 141//125 133//117
f 160//143 142//126 149//133
f 163//146 154//137 129//113
f 163//146 129//113 150//134
f 164//147 155//138 135//119
f 164//147 135//119 137//121
f 165//148 143//127 153//136
f 165//148 156//139 143//127
f 166//149 162//145 147//131
f 167//150 132//116 154//137
f 167//150 157//140 132//116
f 158//141 138//122 155//138
f 168//151 148//132 136//120
f 169//152 133//117 156//139
f 169//152 159//142 133//117
f 170//153 160//143 149//133
f 164//147 137//121 157//140
f 152//154 151//135 158//141
f 171//155 161//144 146//130
f 171//155 146//130 159//142
f 166//149 147//131 160//143
f 172//156 149//133 161//144
f 172//156 170//153 149//133
f 162//145 163//146 150//134
f 173//157 164//147 157//140
f 39//24 145//129 32//21
f 174//158 165//148 153//136
f 174//158 153//136 148//132
f 175//159 171//155 159//142
f 176//160 166//149 160//143
f 177//161 154//137 163//146
f 177//161 167//150 154//137
f 178//162 158//141 155//138
f 178//162 155//138 164//147
f 179//163 136//120 145//129
f 179//163 168//151 136//120
f 180//164 156//139 165//148
f 180//164 169//152 156//139
f 173//157 157//140 167//150
f 174//158 148//132 168//151
f 175//159 159//142 169//152
f 170//153 176//160 160//143
f 171//155 172//156 161//144
f 182//165 162//145 166//149
f 183//166 173//157 167//150
f 184//167 174//158 168//151
f 185//168 175//159 169//152
f 186//169 163//146 162//145
f 186//169 177//161 163//146
f 178//162 164//147 173//157
f 40//31 145//129 39//24
f 40//31 179//163 145//129
f 187//170 180//164 165//148
f 187//170 165//148 174//158
f 176//160 182//165 166//149
f 183//166 167//150 177//161
f 188//171 152//154 158//141
f 188//171 158//141 178//162
f 184//167 168//151 179//163
f 185//168 169//152 180//164
f 189//172 181//173 248//174
f 189//172 248//174 152//154
f 190//175 187//170 174//158
f 191//176 171//155 175//159
f 192//177 184//167 179//163
f 193//178 185//168 180//164
f 194//179 172//156 171//155
f 182//165 186//169 162//145
f 190//175 174//158 184//167
f 191//176 175//159 185//168
f 195//180 176//160 170//153
f 186//169 183//166 177//161
f 192//177 179//163 40//31
f 193//178 180//164 187//170
f 196//181 182//165 176//160
f 197//182 173//157 183//166
f 189//172 152//154 188//171
f 198//183 190//175 184//167
f 199//184 191//176 185//168
f 195//180 170//153 172//156
f 188//171 178//162 173//157
f 51//36 192//177 40//31
f 200//185 193//178 187//170
f 200//185 187//170 190//175
f 201//186 194//179 171//155
f 201//186 171//155 191//176
f 198//183 184//167 192//177
f 199//184 185//168 193//178
f 202//187 172//156 194//179
f 202//187 195//180 172//156
f 203//188 186//169 182//165
f 204//189 201//186 191//176
f 205//190 176//160 195//180
f 205//190 196//181 176//160
f 197//182 183//166 186//169
f 206//191 198//183 192//177
f 207//192 199//184 193//178
f 203//188 182//165 196//181
f 208//193 173//157 197//182
f 208//193 188//171 173//157
f 209//194 200//185 190//175
f 209//194 190//175 198//183
f 204//189 191//176 199//184
f 210//195 181//173 189//172
f 210//195 189//172 188//171
f 206//191 192//177 51//36
f 211//196 207//192 193//178
f 211//196 193//178 200//185
f 201//186 202//187 194//179
f 212//197 203//188 196//181
f 213//198 209//194 198//183
f 214//199 204//189 199//184
f 215//200 205//190 195//180
f 215//200 195//180 202//187
f 216//201 197//182 186//169
f 216//201 186//169 203//188
f 212//197 196//181 205//190
f 213//198 198//183 206//191
f 207//192 214//199 199//184
f 210//195 188//171 208//193
f 209//194 211//196 200//185
f 217//202 201//186 204//189
f 218//203 212//197 205//190
f 219//204 213//198 206//191
f 220//205 215//200 202//187
f 220//205 202//187 201//186
f 216//201 203//188 212//197
f 214//199 217//202 204//189
f 218//203 205//190 215//200
f 221//206 197//182 216//201
f 221//206 208//193 197//182
f 68//53 206//191 51//36
f 68//53 219//204 206//191
f 222//207 209//194 213//198
f 223//208 211//196 209//194
f 217//202 220//205 201//186
f 222//207 213//198 219//204
f 224//209 214//199 207//192
f 220//205 218//203 215//200
f 7//5 3//5 2//5
f 225//210 217//202 214//199
f 226//211 212//197 218//203
f 210//195 208//193 221//206
f 219//204 68//53 69//66
f 224//209 207//192 211//196
f 221//206 216//201 212//197
f 227//212 223//208 209//194
f 227//212 209//194 222//207
f 228//213 211//196 223//208
f 228//213 224//209 211//196
f 229//214 220//205 217//202
f 230//215 227//212 222//207
f 231//216 225//210 214//199
f 231//216 214//199 224//209
f 226//211 218//203 220//205
f 229//214 217//202 225//210
f 232//217 221//206 212//197
f 232//217 212//197 226//211
f 230//215 222//207 219//204
f 233//218 210//195 221//206
f 233//218 181//173 210//195
f 227//212 228//213 223//208
f 234//219 229//214 225//210
f 91//82 230//215 219//204
f 91//82 219//204 69//66
f 235//220 224//209 228//213
f 235//220 231//216 224//209
f 236//221 220//205 229//214
f 236//221 226//211 220//205
f 234//219 225//210 231//216
f 233//218 221//206 232//217
f 237//222 227//212 230//215
f 238//223 234//219 231//216
f 239//224 228//213 227//212
f 239//224 235//220 228//213
f 236//221 229//214 234//219
f 237//222 91//82 92//93
f 237//222 230//215 91//82
f 238//223 231//216 235//220
f 240//225 232//217 226//211
f 240//225 226//211 236//221
f 241//226 239//224 227//212
f 241//226 227//212 237//222
f 239//224 238//223 235//220
f 242//227 234//219 238//223
f 233//218 232//217 240//225
f 240//225 236//221 234//219
f 92//93 241//226 237//222
f 243//228 239//224 241//226
f 242//227 238//223 239//224
f 244//229 234//219 242//227
f 244//229 240//225 234//219
f 245//230 233//218 240//225
f 245//230 181//173 233//218
f 120//123 241//226 92//93
f 120//123 243//228 241//226
f 246//231 239//224 243//228
f 246//231 242//227 239//224
f 245//230 240//225 244//229
f 246//231 243//228 120//123
f 247//232 244//229 242//227
f 247//232 242//227 246//231
f 151//135 246//231 120//123
f 248//174 245//230 244//229
f 248//174 181//173 245//230
f 248//174 244//229 247//232
f 247//232 246//231 151//135
f 247//232 151//135 152//154
f 248//174 247//232 152//154
f 11//233 15//233 9//233
f 15//234 10//234 9//234
f 13//235 12//235 10//235
f 25//235 23//235 18//235
f 21//233 27//233 19//233
f 25//6 28//6 26//6
f 2//236 8//236 7//236
f 7//233 5//233 6//233
f 23//236 28//236 21//236
f 27//234 18//234 19//234
f 5//234 3//234 6//234
f 12//236 16//236 11//236
f 1//235 2//235 3//235
f 7//5 6//5 3//5
f 11//233 16//233 15//233
f 15//234 13//234 10//234
f 13//235 14//235 12//235
f 25//235 26//235 23//235
f 21//233 28//233 27//233
f 25//6 27//6 28//6
f 2//236 4//236 8//236
f 7//233 8//233 5//233
f 23//236 26//236 28//236
f 27//234 25//234 18//234
f 5//234 1//234 3//234
f 12//236 14//236 16//236
f 1//235 4//235 2//235
