# Blender 5.2.1 LTS
# www.blender.org
mtllib bird_finial.mtl
o bird_finial
v -0.130000 0.120000 0.130000
v -0.130000 0.000000 -0.130000
v -0.130000 0.000000 0.130000
v -0.130000 0.120000 -0.130000
v 0.130000 0.120000 0.130000
v 0.130000 0.000000 0.130000
v 0.130000 0.000000 -0.130000
v 0.130000 0.120000 -0.130000
v 0.025000 0.420000 0.025000
v -0.050000 0.120000 0.050000
v 0.050000 0.120000 0.050000
v -0.025000 0.420000 0.025000
v 0.025000 0.420000 -0.025000
v 0.050000 0.120000 -0.050000
v -0.025000 0.420000 -0.025000
v -0.050000 0.120000 -0.050000
v 0.002317 0.420061 -0.008738
v 0.042269 0.431981 -0.013377
v 0.013655 0.426661 -0.030734
v 0.052780 0.443028 -0.021153
v -0.013944 0.427180 -0.031986
v -0.014068 0.421068 -0.003769
v 0.065527 0.453297 -0.003398
v 0.039000 0.442904 -0.041697
v -0.030734 0.426661 -0.013655
v 0.017723 0.443028 -0.054029
v 0.067599 0.465851 -0.027618
v -0.011844 0.442612 -0.056061
v 0.077054 0.476874 0.000000
v 0.054076 0.465851 -0.049072
v -0.031986 0.427180 0.013944
v 0.027618 0.465851 -0.067599
v -0.003769 0.421068 0.014068
v -0.041697 0.442904 -0.039000
v 0.080273 0.494001 -0.010713
v -0.004105 0.464881 -0.072899
v 0.042091 0.487786 -0.068185
v 0.072020 0.501995 -0.037024
v 0.077608 0.521579 -0.003629
v -0.013655 0.426661 0.030734
v -0.054029 0.443028 -0.017723
v 0.056538 0.490950 -0.056538
v -0.034697 0.470452 -0.066906
v 0.013297 0.482198 -0.077760
v -0.053188 0.441109 0.015242
v -0.054076 0.465851 -0.049072
v -0.067084 0.455109 0.000000
v 0.014332 0.426653 0.030734
v -0.067599 0.465851 -0.027618
v 0.021122 0.422162 0.001529
v 0.065527 0.546703 -0.003398
v -0.039000 0.442904 0.041697
v -0.020694 0.490950 -0.077232
v 0.057282 0.520938 -0.052779
v 0.010772 0.506605 -0.080217
v 0.067599 0.534149 -0.027618
v 0.038585 0.522748 -0.066831
v -0.017723 0.443028 0.054029
v -0.056538 0.490950 -0.056538
v -0.067599 0.465851 0.027618
v -0.079973 0.485905 -0.000000
v -0.037174 0.507056 -0.071255
v 0.011844 0.442612 0.056061
v -0.074681 0.492878 -0.031013
v -0.003611 0.520938 -0.077807
v 0.045680 0.566121 0.002944
v -0.054076 0.465851 0.049072
v 0.044910 0.546280 -0.048277
v 0.022655 0.541781 -0.065563
v 0.050941 0.558144 -0.023754
v 0.042612 0.433466 0.015761
v -0.027618 0.465851 0.067599
v 0.041697 0.442904 0.039000
v -0.077232 0.490950 0.020694
v -0.062253 0.520691 -0.047788
v -0.027618 0.534149 -0.067599
v -0.003452 0.470428 0.075365
v -0.042091 0.487786 0.068185
v -0.072020 0.501995 0.037024
v -0.003371 0.546280 -0.065850
v -0.049072 0.534149 -0.054076
v 0.019445 0.578286 0.002746
v 0.012795 0.467718 0.072563
v -0.056538 0.490950 0.056538
v -0.075546 0.518905 -0.020242
v 0.034915 0.569537 -0.020158
v 0.034697 0.470452 0.066906
v 0.022009 0.565973 -0.040725
v -0.077807 0.520938 0.003611
v 0.065994 0.459474 0.024020
v 0.054076 0.465851 0.049072
v -0.010772 0.493395 0.080217
v -0.026963 0.557388 -0.050558
v 0.002886 0.565919 -0.045990
v -0.061352 0.546472 -0.024906
v 0.015952 0.575453 -0.022782
v -0.005567 0.580054 -0.007987
v 0.020694 0.490950 0.077232
v -0.047788 0.520691 0.062253
v -0.067599 0.534149 0.027618
v -0.065850 0.546280 0.003371
v -0.054076 0.534149 0.049072
v 0.064199 0.492878 0.049170
v -0.020242 0.518905 0.075546
v -0.015177 0.573625 -0.029416
v -0.044430 0.566467 -0.014784
v 0.037174 0.507056 0.071255
v 0.003611 0.520938 0.077807
v 0.078445 0.500000 0.021019
v -0.054029 0.556971 0.017723
v -0.031145 0.572872 -0.013917
v -0.027529 0.547600 0.059035
v -0.036322 0.559708 0.041318
v 0.052779 0.520938 0.057282
v 0.027618 0.534149 0.067599
v 0.002421 0.546472 0.066170
v 0.066831 0.522748 0.038585
v -0.029416 0.573625 0.015177
v 0.048277 0.546280 0.044910
v 0.065563 0.541781 0.022655
v 0.003974 0.564817 0.047933
v 0.029996 0.556971 0.048305
v -0.013917 0.572872 0.031145
v -0.006155 0.578932 0.013199
v 0.015177 0.573625 0.029416
v 0.040725 0.565973 0.022009
v 0.061985 0.583511 -0.059401
v 0.050669 0.555982 -0.037606
v 0.044386 0.556158 -0.066268
v 0.079430 0.620572 -0.041524
v 0.030716 0.556031 -0.081754
v 0.044702 0.594615 -0.094710
v 0.069720 0.621567 -0.079907
v 0.085746 0.667825 -0.064170
v 0.088175 0.670796 -0.025763
v 0.087866 0.710457 -0.061021
v 0.089137 0.712226 -0.027426
v 0.017855 0.639522 -0.123353
v 0.037295 0.624226 -0.112431
v -0.004127 0.611879 -0.117603
v 0.083375 0.754799 -0.037137
v 0.080175 0.691267 -0.084316
v -0.024805 0.639067 -0.121453
v -0.041116 0.611885 -0.105677
v 0.077420 0.742456 -0.079586
v -0.061327 0.638505 -0.098211
v -0.067417 0.611891 -0.077062
v -0.077601 0.615650 -0.041178
v -0.086667 0.673879 -0.064681
v 0.049110 0.835795 -0.056015
v 0.069916 0.795917 -0.033110
v -0.067124 0.612653 -0.004824
v -0.063855 0.584065 -0.027865
v 0.041356 0.835898 -0.071651
v -0.060824 0.639018 0.015974
v -0.040580 0.611885 0.023020
v -0.086938 0.671918 -0.019782
v 0.017699 0.752719 -0.123352
v 0.035733 0.773906 -0.111076
v -0.004127 0.780121 -0.117603
v -0.024301 0.638983 0.038573
v -0.003483 0.611885 0.034639
v -0.025116 0.753561 -0.121152
v -0.041116 0.780115 -0.105677
v 0.040614 0.556148 -0.010571
v 0.025131 0.627275 0.035804
v -0.068451 0.773474 -0.080431
v -0.063633 0.718124 -0.104741
v 0.060790 0.581366 -0.022753
v 0.069893 0.621545 -0.003433
v -0.081422 0.752963 -0.060838
v -0.076191 0.780103 -0.039198
v -0.066856 0.778127 -0.003198
v -0.086301 0.720926 -0.018368
v -0.039778 0.773468 0.026463
v -0.065467 0.725808 0.018263
v -0.001047 0.773484 0.037238
v -0.027147 0.725867 0.042870
v 0.080364 0.691143 0.000998
v 0.036221 0.773882 0.027827
v 0.016620 0.725648 0.045493
v 0.077473 0.742343 -0.003498
v 0.051445 0.814269 -0.006920
v 0.047393 0.835993 -0.023319
v 0.077535 0.623721 -0.061001
v 0.002617 0.555968 -0.092961
v 0.014033 0.582106 -0.103805
v 0.065968 0.648036 -0.096532
v -0.018110 0.581380 -0.102384
v -0.036084 0.556142 -0.078090
v 0.065296 0.704267 -0.104370
v -0.049871 0.556058 -0.054207
v 0.052711 0.659955 -0.111630
v 0.047457 0.706351 -0.117890
v 0.001886 0.669095 -0.130985
v 0.035641 0.665340 -0.122420
v 0.018368 0.708127 -0.130237
v 0.076905 0.773833 -0.056252
v -0.048953 0.664201 -0.115436
v -0.028897 0.681406 -0.127194
v 0.066477 0.781713 -0.077756
v 0.043237 0.740246 -0.116384
v -0.046185 0.555992 -0.021122
v 0.057230 0.763569 -0.098645
v -0.035645 0.556142 -0.004479
v -0.005717 0.727832 -0.129974
v -0.076514 0.669197 -0.087926
v -0.088142 0.661947 -0.041241
v -0.012918 0.556100 0.008218
v 0.040294 0.802288 -0.095397
v -0.043210 0.722809 -0.119877
v -0.077714 0.669333 0.003196
v 0.014654 0.581461 0.020353
v 0.025876 0.556005 0.002268
v -0.080183 0.720501 -0.080672
v 0.015865 0.835767 -0.090866
v -0.002229 0.836018 -0.092368
v -0.043040 0.669197 0.036968
v 0.042921 0.596258 0.014000
v -0.060595 0.683586 0.025070
v -0.089470 0.722800 -0.043631
v -0.018110 0.810620 -0.102384
v 0.001778 0.669192 0.047981
v -0.036083 0.835858 -0.078090
v 0.049890 0.618901 0.019078
v -0.019290 0.683577 0.046424
v -0.076453 0.730054 0.002363
v -0.049846 0.720500 0.032521
v -0.049382 0.835876 -0.055702
v 0.027747 0.695919 0.044978
v 0.077608 0.623826 -0.022171
v -0.006341 0.720509 0.047511
v 0.047453 0.706613 0.034898
v 0.048145 0.653708 0.030920
v -0.049705 0.835954 -0.028163
v 0.065135 0.703238 0.021501
v -0.035645 0.835858 -0.004479
v 0.045236 0.740804 0.032001
v -0.017400 0.810627 0.019587
v -0.001560 0.836018 0.009391
v 0.057525 0.763314 0.015456
v 0.014135 0.808686 0.021303
v 0.027701 0.835997 0.000606
v 0.040763 0.802313 0.012023
v 0.066676 0.781635 -0.005557
v 0.068346 0.655849 0.012490
v 0.007799 0.836184 -0.119858
v 0.015692 0.839747 -0.132066
v -0.003016 0.837694 -0.135592
v 0.030079 0.851574 -0.139304
v 0.012414 0.845805 -0.148123
v -0.014632 0.839306 -0.132757
v 0.042500 0.865232 -0.128674
v -0.009120 0.836948 -0.115777
v -0.012593 0.848883 -0.151043
v 0.023719 0.869189 -0.159253
v -0.024264 0.844985 -0.136085
v 0.003727 0.858016 -0.160926
v 0.033879 0.870354 -0.149928
v 0.045189 0.877399 -0.127414
v -0.022244 0.843204 -0.108657
v 0.043800 0.892266 -0.129406
v -0.004562 0.839747 -0.103141
v -0.034951 0.851574 -0.121121
v 0.036112 0.885006 -0.149158
v -0.035735 0.856300 -0.134698
v -0.012466 0.864111 -0.162147
v -0.029441 0.862766 -0.150941
v 0.000000 0.881000 -0.167439
v 0.037023 0.907438 -0.126171
v 0.010851 0.840594 -0.103266
v -0.027564 0.879501 -0.158428
v -0.033026 0.854968 -0.104622
v -0.014176 0.851811 -0.089067
v -0.039799 0.874165 -0.142604
v 0.028848 0.898491 -0.152751
v 0.006282 0.898296 -0.163740
v -0.044301 0.873072 -0.129312
v 0.009170 0.849403 -0.089267
v -0.044252 0.871978 -0.115532
v -0.026303 0.864475 -0.087908
v -0.017813 0.896608 -0.160524
v 0.025617 0.843634 -0.116154
v -0.040209 0.874060 -0.100620
v 0.026436 0.914585 -0.137585
v 0.027481 0.848732 -0.104436
v 0.009523 0.917034 -0.148221
v 0.005194 0.861669 -0.080553
v -0.007520 0.872779 -0.076822
v -0.034854 0.895875 -0.147847
v 0.017207 0.922873 -0.127684
v 0.001729 0.913117 -0.153569
v -0.044336 0.893093 -0.119435
v 0.027541 0.865216 -0.088390
v -0.027552 0.884969 -0.085659
v -0.012440 0.915916 -0.148178
v 0.037938 0.856546 -0.112454
v -0.033184 0.896774 -0.094318
v -0.035442 0.907140 -0.132951
v -0.013873 0.887835 -0.078641
v 0.007413 0.925550 -0.124240
v 0.012298 0.881000 -0.077516
v -0.026436 0.914585 -0.137585
v -0.036677 0.905880 -0.109618
v -0.002401 0.924841 -0.132941
v 0.042335 0.879501 -0.103301
v -0.021138 0.904603 -0.088446
v -0.001974 0.902342 -0.080819
v 0.027552 0.884969 -0.085659
v -0.016439 0.922193 -0.130991
v -0.021472 0.920971 -0.116315
v 0.019572 0.904280 -0.086820
v 0.037204 0.896784 -0.099806
v -0.016249 0.918348 -0.100924
v 0.005958 0.916574 -0.093332
v -0.003694 0.925883 -0.114670
v 0.030121 0.913724 -0.111366
v 0.020217 0.918872 -0.106518
v 0.007773 0.923565 -0.108036
v -0.003814 0.858611 -0.166440
v -0.016233 0.878033 -0.157330
v -0.006441 0.860206 -0.186596
v -0.005585 0.893763 -0.148612
v 0.009545 0.862988 -0.184495
v 0.004158 0.858910 -0.175112
v -0.014155 0.868455 -0.166345
v 0.004766 0.860155 -0.205564
v -0.008999 0.878300 -0.182411
v -0.012562 0.873040 -0.178837
v -0.009076 0.886449 -0.163224
v -0.009159 0.865842 -0.197586
v 0.012406 0.889596 -0.148791
v 0.018596 0.876948 -0.148524
v 0.013814 0.878837 -0.166143
v -0.003223 0.884813 -0.174382
v 0.002849 0.888745 -0.163635
v 0.009557 0.883673 -0.168597
v -0.000650 0.858281 -0.189021
v -0.007971 0.870564 -0.202432
v 0.003207 0.875774 -0.200241
v -0.002111 0.860094 -0.238577
v 0.002237 0.860178 -0.238548
v 0.006908 0.873409 -0.198963
v -0.000071 0.863214 -0.238426
v 0.013622 0.863684 -0.148567
v 0.006442 0.859138 -0.148740
v -0.001503 0.858023 -0.148641
v -0.011392 0.862777 -0.160927
v -0.018998 0.877129 -0.148571
v -0.013850 0.864253 -0.148677
v 0.110000 0.722000 -0.041500
v 0.010000 0.722000 -0.041500
v 0.258000 0.618000 0.238500
v 0.282000 0.618000 0.238500
v 0.110000 0.698000 -0.041500
v 0.282000 0.606000 0.238500
v 0.258000 0.606000 0.238500
v 0.010000 0.698000 -0.041500
v -0.110000 0.722000 -0.041500
v -0.282000 0.618000 0.238500
v -0.010000 0.722000 -0.041500
v -0.258000 0.618000 0.238500
v -0.010000 0.698000 -0.041500
v -0.258000 0.606000 0.238500
v -0.282000 0.606000 0.238500
v -0.110000 0.698000 -0.041500
vn -0.0000 0.0830 0.9965
vn 0.9965 0.0830 -0.0000
vn -0.0000 0.0830 -0.9965
vn -0.9965 0.0830 -0.0000
vn 0.1744 -0.9048 -0.3885
vn 0.2652 -0.9639 0.0229
vn 0.0349 -0.9921 -0.1206
vn 0.5112 -0.8452 -0.1559
vn -0.1704 -0.8975 -0.4067
vn 0.4873 -0.6979 -0.5248
vn 0.6787 -0.6769 -0.2849
vn 0.8084 -0.5879 -0.0300
vn -0.1809 -0.9825 -0.0450
vn -0.4055 -0.8985 -0.1681
vn 0.2107 -0.7043 -0.6779
vn 0.8402 -0.4090 -0.3561
vn -0.1547 -0.7076 -0.6895
vn 0.6750 -0.4268 -0.6018
vn 0.9516 -0.3068 0.0187
vn -0.4067 -0.8978 0.1688
vn 0.3476 -0.4493 -0.8230
vn -0.0403 -0.9846 0.1699
vn -0.5092 -0.7012 -0.4991
vn 0.9867 -0.0676 -0.1480
vn -0.0530 -0.4389 -0.8970
vn 0.5121 -0.1288 -0.8492
vn 0.8917 0.0165 -0.4524
vn -0.1694 -0.8991 0.4036
vn -0.6662 -0.7146 -0.2133
vn 0.7232 -0.1035 -0.6828
vn -0.4295 -0.3751 -0.8215
vn 0.1563 -0.2114 -0.9648
vn -0.6563 -0.7299 0.1911
vn -0.6718 -0.4280 -0.6046
vn 0.9622 0.2697 -0.0373
vn -0.8406 -0.5416 -0.0011
vn 0.1859 -0.9034 0.3865
vn -0.8389 -0.4250 -0.3400
vn -0.4942 -0.6991 0.5168
vn -0.2440 -0.1023 -0.9644
vn 0.7104 0.2569 -0.6552
vn 0.1469 0.0854 -0.9855
vn 0.8412 0.4120 -0.3503
vn 0.4739 0.2585 -0.8418
vn -0.2076 -0.7031 0.6801
vn -0.7012 -0.1076 -0.7048
vn 0.8120 0.5826 -0.0345
vn -0.8365 -0.4199 0.3519
vn -0.9848 -0.1735 -0.0103
vn -0.4629 0.0906 -0.8817
vn 0.1495 -0.7054 0.6929
vn -0.9190 -0.0884 -0.3841
vn -0.6750 -0.4268 0.6018
vn -0.0622 0.2656 -0.9621
vn 0.5582 0.5778 -0.5954
vn 0.2730 0.5185 -0.8103
vn 0.6335 0.7118 -0.3034
vn 0.5402 -0.8188 0.1945
vn -0.3479 -0.4378 0.8290
vn 0.5075 -0.7033 0.4978
vn -0.9592 -0.1076 0.2613
vn -0.7717 0.2431 -0.5877
vn 0.5777 0.8155 0.0361
vn -0.3412 0.4105 -0.8457
vn -0.0511 -0.3834 0.9221
vn -0.5019 -0.1413 0.8533
vn -0.8848 0.0333 0.4647
vn -0.0363 0.5793 -0.8143
vn -0.5972 0.4462 -0.6666
vn 0.1733 -0.4161 0.8927
vn -0.7316 -0.1079 0.6731
vn -0.9392 0.2439 -0.2415
vn 0.4333 0.8675 -0.2443
vn 0.4486 -0.3666 0.8151
vn 0.2888 0.8009 -0.5246
vn -0.9664 0.2525 0.0473
vn 0.8196 -0.4895 0.2976
vn 0.6699 -0.4196 0.6125
vn -0.1384 -0.0701 0.9879
vn 0.2473 0.9682 0.0373
vn -0.3528 0.7101 -0.6093
vn 0.0314 0.8116 -0.5834
vn -0.7561 0.5703 -0.3210
vn 0.1784 0.9432 -0.2804
vn 0.2518 -0.0921 0.9634
vn -0.5841 0.2425 0.7746
vn -0.8375 0.4162 0.3540
vn -0.8244 0.5656 0.0213
vn -0.6845 0.4358 0.5845
vn 0.7860 -0.1004 0.6100
vn -0.2704 0.2471 0.9305
vn -0.1881 0.9076 -0.3753
vn -0.5587 0.8066 -0.1930
vn 0.4614 0.0732 0.8841
vn -0.0731 0.9925 -0.0977
vn 0.0596 0.2523 0.9658
vn 0.9638 -0.0011 0.2667
vn -0.6631 0.7118 0.2317
vn -0.3552 0.9206 -0.1624
vn -0.3215 0.5829 0.7462
vn -0.4520 0.7331 0.5083
vn 0.6506 0.2620 0.7128
vn 0.3472 0.4232 0.8369
vn 0.0181 0.5742 0.8185
vn 0.8410 0.2781 0.4640
vn -0.3793 0.9094 0.1708
vn 0.6026 0.5708 0.5577
vn 0.8142 0.5130 0.2719
vn 0.0295 0.7959 0.6047
vn 0.3662 0.7062 0.6060
vn -0.1669 0.8959 0.4118
vn -0.0688 0.9845 0.1614
vn 0.5130 0.8104 0.2831
vn 0.1941 0.9132 0.3583
vn 0.8738 -0.4181 -0.2484
vn 0.8758 -0.4792 0.0576
vn 0.7820 -0.4598 -0.4208
vn 0.9562 -0.2926 -0.0023
vn 0.8269 -0.2922 -0.4805
vn 0.5964 -0.3887 -0.7023
vn 0.9634 -0.1228 -0.2385
vn 0.9799 -0.1117 0.1653
vn 0.9791 0.0640 -0.1929
vn 0.9876 0.0672 0.1419
vn 0.1994 -0.2409 -0.9498
vn 0.4412 -0.2953 -0.8474
vn -0.0439 -0.3290 -0.9433
vn 0.9741 0.2205 0.0506
vn -0.2827 -0.2319 -0.9308
vn -0.5131 -0.3380 -0.7890
vn 0.8860 0.1806 -0.4271
vn 0.8809 -0.0277 -0.4725
vn -0.7149 -0.2346 -0.6587
vn -0.8383 -0.3317 -0.4326
vn -0.9643 -0.0903 -0.2491
vn -0.9542 -0.2991 -0.0047
vn -0.9672 -0.0978 0.2344
vn -0.8305 -0.3235 0.4535
vn -0.0377 0.3398 -0.9398
vn 0.4079 0.3185 -0.8557
vn 0.2009 0.2331 -0.9515
vn -0.2754 -0.2328 0.9327
vn -0.4993 -0.3437 0.7954
vn -0.0657 -0.3330 0.9407
vn -0.5210 0.3254 -0.7891
vn -0.2943 0.2349 -0.9264
vn -0.8213 0.3141 -0.4763
vn -0.7140 0.0917 -0.6941
vn 0.8663 -0.4184 0.2727
vn 0.7227 -0.4541 0.5211
vn 0.8329 -0.2872 0.4730
vn -0.9424 0.3331 0.0293
vn -0.9465 0.2322 -0.2239
vn -0.8211 0.3197 0.4729
vn -0.9592 0.1047 0.2627
vn -0.4888 0.3025 0.8183
vn -0.7314 0.1274 0.6700
vn -0.0132 0.2954 0.9553
vn -0.3110 0.1315 0.9413
vn 0.4147 0.2987 0.8595
vn 0.1986 0.1347 0.9708
vn 0.8807 0.1848 0.4362
vn 0.8864 -0.0271 0.4621
vn 0.7500 0.4350 0.4982
vn 0.8179 0.4920 0.2983
vn 0.4741 0.4945 0.7285
vn 0.9156 0.3869 0.1098
vn 0.8721 0.4458 -0.2017
vn 0.9334 -0.2688 -0.2379
vn 0.5218 -0.4556 -0.7212
vn 0.2095 -0.4085 -0.8884
vn 0.0234 -0.4852 -0.8741
vn 0.7638 -0.1914 -0.6164
vn -0.2603 -0.4308 -0.8641
vn -0.6028 -0.4623 -0.6503
vn 0.6003 -0.1385 -0.7877
vn 0.5100 0.0367 -0.8594
vn 0.7202 0.0422 -0.6925
vn 0.0221 -0.1076 -0.9939
vn -0.8659 -0.4544 -0.2090
vn 0.3852 -0.1095 -0.9163
vn 0.2132 0.0446 -0.9760
vn 0.9378 0.2955 -0.1820
vn -0.5668 -0.1221 -0.8148
vn -0.3085 -0.0470 -0.9501
vn 0.8181 0.3450 -0.4601
vn 0.5002 0.1687 -0.8493
vn -0.8408 -0.1079 -0.5305
vn 0.6881 0.2558 -0.6790
vn -0.6344 -0.4177 0.6505
vn -0.8834 -0.4234 0.2007
vn -0.8289 -0.4382 0.3478
vn -0.0820 0.1237 -0.9889
vn -0.4698 0.1111 -0.8758
vn 0.7020 0.4449 -0.5562
vn -0.9886 -0.1503 -0.0068
vn -0.1933 -0.4601 0.8665
vn 0.5613 0.3994 -0.7249
vn -0.8594 -0.1068 0.5000
vn -0.7010 -0.2309 0.6747
vn 0.2006 -0.4319 0.8793
vn 0.3991 -0.4795 0.7815
vn -0.8987 0.0973 -0.4275
vn 0.2897 -0.2644 0.9199
vn 0.2815 0.4238 -0.8609
vn -0.9938 0.1039 -0.0385
vn -0.4768 -0.1106 0.8720
vn 0.5707 -0.3864 0.7246
vn -0.6852 -0.0418 0.7271
vn -0.2505 0.4308 -0.8670
vn -0.0719 0.4045 -0.9117
vn 0.0362 -0.1184 0.9923
vn -0.6095 0.4530 -0.6506
vn 0.6110 -0.3021 0.7318
vn -0.2284 -0.0409 0.9727
vn 0.5357 -0.1534 0.8303
vn -0.5452 0.0996 0.8324
vn -0.8638 0.1434 0.4831
vn -0.8709 0.4242 -0.2480
vn 0.3013 -0.0099 0.9535
vn 0.9320 -0.2695 0.2422
vn -0.0614 0.0992 0.9932
vn 0.5236 0.0400 0.8510
vn -0.8714 0.4312 0.2342
vn 0.7177 0.0360 0.6954
vn -0.6026 0.4535 0.6567
vn 0.5107 0.1755 0.8417
vn -0.2531 0.4247 0.8692
vn -0.0354 0.4910 0.8705
vn 0.6924 0.2559 0.6746
vn 0.1956 0.4170 0.8876
vn 0.5521 0.3977 0.7328
vn 0.8345 0.3285 0.4424
vn 0.7906 -0.1571 0.5919
vn 0.0022 -1.0000 -0.0001
vn 0.0022 -1.0000 -0.0005
vn 0.0216 -0.9997 -0.0109
vn 0.0014 -1.0000 0.0021
vn 0.0223 -0.9996 0.0144
vn -0.0007 -1.0000 -0.0011
vn -0.0075 -0.9999 -0.0079
vn -0.0001 -1.0000 0.0022
vn -0.0019 -1.0000 0.0026
vn 0.0038 -1.0000 -0.0007
vn -0.0106 -0.9998 0.0157
vn 0.0021 1.0000 -0.0031
vn 0.0046 1.0000 -0.0017
vn 0.0162 0.9995 -0.0283
vn -0.0002 1.0000 -0.0020
vn 0.0093 1.0000 -0.0000
vn -0.0076 1.0000 -0.0064
vn -0.0055 1.0000 -0.0032
vn -0.0068 1.0000 -0.0048
vn -0.0021 1.0000 0.0004
vn -0.0008 1.0000 -0.0007
vn -0.0083 0.9999 0.0090
vn 0.3623 -0.9024 -0.2333
vn 0.5620 -0.8242 0.0690
vn 0.1642 -0.9856 0.0404
vn -0.0476 -0.9441 -0.3263
vn 0.6637 -0.6391 -0.3886
vn 0.2688 -0.7562 -0.5966
vn 0.8395 -0.5076 0.1941
vn 0.9187 -0.3592 -0.1639
vn -0.2052 -0.9730 0.1052
vn -0.3307 -0.9175 -0.2209
vn -0.2707 -0.7108 -0.6492
vn 0.4868 -0.2408 -0.8397
vn 0.1001 -0.5001 -0.8602
vn 0.7698 -0.2577 -0.5839
vn -0.5385 -0.7797 -0.3194
vn 0.9902 -0.0723 -0.1196
vn -0.4889 -0.8274 0.2764
vn -0.2828 -0.3555 -0.8909
vn 0.7957 0.0890 -0.5992
vn 0.9509 0.2649 -0.1601
vn -0.7676 -0.6405 0.0206
vn -0.6364 -0.4273 -0.6422
vn -0.1061 -0.9013 0.4200
vn -0.7956 -0.5234 -0.3051
vn 0.0146 -0.0049 -0.9999
vn 0.2400 -0.8896 0.3887
vn -0.7336 -0.5587 0.3868
vn -0.3063 -0.6415 0.7034
vn -0.5786 -0.0342 -0.8149
vn 0.6104 0.3813 -0.6943
vn -0.8821 -0.1186 -0.4559
vn 0.1577 0.3690 -0.9159
vn -0.9714 -0.1513 -0.1831
vn 0.2050 -0.6828 0.7013
vn 0.8148 0.5715 -0.0973
vn -0.9670 -0.2126 0.1407
vn -0.5778 -0.3478 0.7384
vn -0.3662 0.3662 -0.8555
vn -0.8771 -0.1302 0.4624
vn 0.5941 0.7186 -0.3615
vn 0.6771 0.7006 0.2250
vn 0.5907 -0.6874 0.4226
vn 0.2314 0.7848 -0.5750
vn 0.1242 -0.4150 0.9013
vn -0.7662 0.3275 -0.5529
vn -0.1765 -0.1659 0.9702
vn 0.3922 0.9107 -0.1293
vn -0.0181 0.6666 -0.7452
vn -0.9682 0.2481 0.0332
vn 0.6061 -0.3463 0.7161
vn -0.6054 0.0557 0.7940
vn -0.2805 0.7402 -0.6111
vn -0.7523 0.3311 0.5696
vn -0.2852 0.1393 0.9483
vn 0.2588 0.0151 0.9658
vn -0.7975 0.5635 -0.2156
vn -0.5800 0.7288 -0.3638
vn -0.7885 0.5570 0.2606
vn -0.0479 0.9615 -0.2704
vn -0.4463 0.5393 0.7142
vn 0.9235 -0.0431 0.3812
vn -0.0388 0.4560 0.8891
vn 0.6127 0.0843 0.7858
vn 0.1603 0.9857 -0.0524
vn -0.0000 -0.0000 -1.0000
vn -0.3531 0.9136 -0.2015
vn -0.0962 0.9815 0.1653
vn -0.4959 0.8617 0.1077
vn 0.4356 0.4975 0.7501
vn 0.8165 0.3633 0.4487
vn -0.3464 0.8083 0.4760
vn 0.0990 0.7836 0.6133
vn 0.4493 0.8254 0.3419
vn 0.1594 0.9405 0.3000
vn -0.2535 -0.9673 -0.0077
vn -0.0488 -0.9984 -0.0286
vn 0.3183 -0.9478 -0.0176
vn 0.0532 0.9557 -0.2894
vn 0.6043 0.7588 -0.2430
vn 0.1433 0.9402 -0.3090
vn -0.9628 0.1806 -0.2008
vn -0.9423 -0.3064 -0.1351
vn -0.9134 0.3264 -0.2434
vn -0.5699 0.7748 -0.2738
vn -0.6888 0.6615 -0.2964
vn -0.9561 -0.2590 -0.1371
vn -0.6061 -0.7934 -0.0572
vn 0.8933 0.4028 -0.1993
vn 0.8726 0.4242 -0.2421
vn -0.8570 0.4473 -0.2560
vn -0.2365 0.9134 -0.3313
vn -0.7769 0.5614 -0.2852
vn 0.7678 0.5840 -0.2636
vn 0.7296 0.6201 -0.2884
vn -0.8226 0.4965 -0.2772
vn 0.3380 0.8824 -0.3274
vn 0.7638 0.5908 -0.2599
vn 0.9329 -0.3458 -0.1006
vn 0.9318 -0.3491 -0.0990
vn 0.7978 -0.5985 -0.0727
vn 0.3559 -0.9342 -0.0227
vn -0.1568 -0.9876 0.0057
vn 0.5380 -0.8420 -0.0404
vn -0.6819 -0.7299 -0.0473
vn 0.4545 -0.8895 -0.0460
vn 0.6209 0.7267 -0.2940
vn -0.8395 -0.5390 -0.0688
vn -0.7554 -0.6540 -0.0407
vn -0.9722 0.1634 -0.1676
vn -0.7723 0.6224 -0.1270
vn 0.8666 -0.4906 -0.0917
vn 0.0153 -0.9998 -0.0082
vn 0.0192 -0.9998 -0.0022
vn 0.0584 0.9468 -0.3164
vn -0.0013 -0.0043 1.0000
vn -0.0017 -0.0084 1.0000
vn 0.0227 -0.0736 0.9970
vn -0.0042 -0.0085 1.0000
vn -0.0012 -0.0026 1.0000
vn 0.0051 0.0047 1.0000
vn 0.0048 0.0089 0.9999
vn -0.0282 0.0073 0.9996
vn 0.0060 0.0447 -0.9990
vn -0.0000 0.9374 0.3482
vn 0.8521 -0.0000 -0.5234
vn -0.0000 -0.9500 -0.3122
vn -0.7486 -0.0000 0.6630
vn 0.7486 -0.0000 0.6630
vn -0.8521 -0.0000 -0.5234
vn -0.0000 -0.0000 1.0000
vn -0.0000 1.0000 -0.0000
vn -0.0000 -1.0000 -0.0000
vn 1.0000 -0.0000 -0.0000
vn -1.0000 -0.0000 -0.0000
s 1
usemtl gold
f 9//1 10//1 11//1
f 9//1 12//1 10//1
f 13//2 11//2 14//2
f 13//2 9//2 11//2
f 15//3 14//3 16//3
f 15//3 13//3 14//3
f 12//4 16//4 10//4
f 12//4 15//4 16//4
f 19//5 50//6 17//7
f 18//8 50//6 19//5
f 21//9 19//5 17//7
f 24//10 20//11 18//8
f 20//11 23//12 18//8
f 24//10 18//8 19//5
f 21//9 17//7 22//13
f 25//14 21//9 22//13
f 26//15 24//10 19//5
f 27//16 23//12 20//11
f 28//17 26//15 19//5
f 28//17 19//5 21//9
f 27//16 20//11 24//10
f 30//18 27//16 24//10
f 27//16 29//19 23//12
f 31//20 25//14 22//13
f 32//21 30//18 24//10
f 32//21 24//10 26//15
f 33//22 22//13 17//7
f 34//23 28//17 21//9
f 35//24 29//19 27//16
f 34//23 21//9 25//14
f 36//25 32//21 26//15
f 36//25 26//15 28//17
f 37//26 30//18 32//21
f 31//20 22//13 33//22
f 38//27 27//16 30//18
f 38//27 35//24 27//16
f 40//28 31//20 33//22
f 41//29 34//23 25//14
f 42//30 38//27 30//18
f 43//31 36//25 28//17
f 42//30 30//18 37//26
f 44//32 32//21 36//25
f 45//33 41//29 25//14
f 45//33 25//14 31//20
f 43//31 28//17 34//23
f 46//34 43//31 34//23
f 44//32 37//26 32//21
f 38//27 39//35 35//24
f 47//36 41//29 45//33
f 48//37 40//28 33//22
f 49//38 46//34 34//23
f 49//38 34//23 41//29
f 50//6 33//22 17//7
f 52//39 45//33 31//20
f 53//40 44//32 36//25
f 54//41 38//27 42//30
f 55//42 37//26 44//32
f 56//43 39//35 38//27
f 52//39 31//20 40//28
f 47//36 49//38 41//29
f 53//40 36//25 43//31
f 54//41 42//30 37//26
f 48//37 33//22 50//6
f 57//44 54//41 37//26
f 55//42 44//32 53//40
f 54//41 56//43 38//27
f 58//45 52//39 40//28
f 59//46 43//31 46//34
f 55//42 57//44 37//26
f 51//47 39//35 56//43
f 60//48 47//36 45//33
f 61//49 49//38 47//36
f 62//50 53//40 43//31
f 63//51 40//28 48//37
f 63//51 58//45 40//28
f 60//48 45//33 52//39
f 64//52 59//46 46//34
f 64//52 46//34 49//38
f 62//50 43//31 59//46
f 67//53 60//48 52//39
f 65//54 55//42 53//40
f 68//55 56//43 54//41
f 60//48 61//49 47//36
f 69//56 57//44 55//42
f 70//57 51//47 56//43
f 64//52 49//38 61//49
f 62//50 65//54 53//40
f 68//55 54//41 57//44
f 71//58 48//37 50//6
f 65//54 69//56 55//42
f 72//59 67//53 52//39
f 72//59 52//39 58//45
f 69//56 68//55 57//44
f 70//57 56//43 68//55
f 73//60 63//51 48//37
f 74//61 61//49 60//48
f 75//62 62//50 59//46
f 70//57 66//63 51//47
f 76//64 65//54 62//50
f 73//60 48//37 71//58
f 77//65 58//45 63//51
f 77//65 72//59 58//45
f 75//62 59//46 64//52
f 18//8 71//58 50//6
f 78//66 67//53 72//59
f 79//67 74//61 60//48
f 79//67 60//48 67//53
f 80//68 69//56 65//54
f 81//69 62//50 75//62
f 81//69 76//64 62//50
f 83//70 77//65 63//51
f 84//71 79//67 67//53
f 85//72 75//62 64//52
f 80//68 65//54 76//64
f 86//73 66//63 70//57
f 87//74 83//70 63//51
f 84//71 67//53 78//66
f 85//72 64//52 61//49
f 88//75 70//57 68//55
f 87//74 63//51 73//60
f 89//76 85//72 61//49
f 88//75 68//55 69//56
f 90//77 73//60 71//58
f 91//78 87//74 73//60
f 92//79 78//66 72//59
f 89//76 61//49 74//61
f 82//80 66//63 86//73
f 93//81 80//68 76//64
f 86//73 70//57 88//75
f 92//79 72//59 77//65
f 79//67 89//76 74//61
f 94//82 69//56 80//68
f 94//82 88//75 69//56
f 23//12 90//77 71//58
f 23//12 71//58 18//8
f 90//77 91//78 73//60
f 95//83 81//69 75//62
f 96//84 82//80 86//73
f 93//81 76//64 81//69
f 98//85 77//65 83//70
f 99//86 79//67 84//71
f 95//83 75//62 85//72
f 93//81 94//82 80//68
f 100//87 89//76 79//67
f 98//85 83//70 87//74
f 99//86 84//71 78//66
f 95//83 85//72 89//76
f 96//84 86//73 88//75
f 95//83 93//81 81//69
f 101//88 95//83 89//76
f 92//79 77//65 98//85
f 102//89 79//67 99//86
f 102//89 100//87 79//67
f 103//90 87//74 91//78
f 104//91 78//66 92//79
f 104//91 99//86 78//66
f 101//88 89//76 100//87
f 105//92 94//82 93//81
f 106//93 93//81 95//83
f 96//84 88//75 94//82
f 29//19 90//77 23//12
f 107//94 98//85 87//74
f 97//95 82//80 96//84
f 103//90 91//78 90//77
f 108//96 104//91 92//79
f 105//92 96//84 94//82
f 107//94 87//74 103//90
f 109//97 103//90 90//77
f 108//96 92//79 98//85
f 110//98 101//88 100//87
f 105//92 93//81 106//93
f 109//97 90//77 29//19
f 107//94 108//96 98//85
f 106//93 95//83 101//88
f 111//99 105//92 106//93
f 97//95 96//84 105//92
f 112//100 102//89 99//86
f 113//101 100//87 102//89
f 113//101 110//98 100//87
f 114//102 107//94 103//90
f 112//100 99//86 104//91
f 110//98 106//93 101//88
f 115//103 108//96 107//94
f 116//104 104//91 108//96
f 116//104 112//100 104//91
f 35//24 109//97 29//19
f 112//100 113//101 102//89
f 117//105 114//102 103//90
f 114//102 115//103 107//94
f 109//97 117//105 103//90
f 116//104 108//96 115//103
f 118//106 106//93 110//98
f 109//97 35//24 39//35
f 118//106 110//98 113//101
f 97//95 105//92 111//99
f 118//106 111//99 106//93
f 119//107 115//103 114//102
f 120//108 117//105 109//97
f 119//107 114//102 117//105
f 121//109 113//101 112//100
f 121//109 112//100 116//104
f 39//35 120//108 109//97
f 122//110 116//104 115//103
f 123//111 118//106 113//101
f 97//95 111//99 118//106
f 120//108 119//107 117//105
f 122//110 115//103 119//107
f 123//111 113//101 121//109
f 120//108 39//35 51//47
f 121//109 116//104 122//110
f 124//112 97//95 118//106
f 126//113 122//110 119//107
f 125//114 121//109 122//110
f 124//112 118//106 123//111
f 126//113 119//107 120//108
f 125//114 123//111 121//109
f 125//114 122//110 126//113
f 66//63 120//108 51//47
f 66//63 126//113 120//108
f 124//112 123//111 125//114
f 82//80 124//112 125//114
f 82//80 97//95 124//112
f 82//80 125//114 126//113
f 82//80 126//113 66//63
f 127//115 128//116 129//117
f 127//115 130//118 128//116
f 133//119 127//115 129//117
f 133//119 129//117 132//120
f 134//121 135//122 130//118
f 136//123 137//124 135//122
f 138//125 139//126 140//127
f 136//123 141//128 137//124
f 143//129 140//127 144//130
f 145//131 141//128 136//123
f 145//131 136//123 142//132
f 146//133 144//130 147//134
f 149//135 147//134 148//136
f 157//137 148//136 152//138
f 160//139 159//140 158//141
f 161//142 156//143 162//144
f 164//145 160//139 163//146
f 167//147 164//145 168//148
f 169//149 165//150 128//116
f 169//149 128//116 130//118
f 170//151 165//150 169//149
f 172//152 167//147 171//153
f 173//154 172//152 174//155
f 175//156 173//154 176//157
f 177//158 175//156 178//159
f 180//160 177//158 181//161
f 182//162 137//124 141//128
f 182//162 179//163 137//124
f 183//164 184//165 243//166
f 184//165 183//164 151//167
f 184//165 151//167 150//168
f 185//169 130//118 127//115
f 131//170 132//120 129//117
f 133//119 185//169 127//115
f 187//171 131//170 186//172
f 187//171 132//120 131//170
f 132//120 188//173 133//119
f 187//171 140//127 139//126
f 187//171 139//126 132//120
f 139//126 188//173 132//120
f 189//174 140//127 187//171
f 189//174 187//171 186//172
f 189//174 186//172 190//175
f 134//121 136//123 135//122
f 189//174 144//130 140//127
f 139//126 193//176 188//173
f 142//132 136//123 134//121
f 190//175 144//130 189//174
f 193//176 194//177 191//178
f 190//175 147//134 144//130
f 195//179 140//127 143//129
f 195//179 138//125 140//127
f 192//180 147//134 190//175
f 196//181 197//182 194//177
f 196//181 194//177 193//176
f 192//180 148//136 147//134
f 198//183 141//128 145//131
f 198//183 151//167 141//128
f 195//179 197//182 196//181
f 199//184 143//129 144//130
f 199//184 144//130 146//133
f 200//185 195//179 143//129
f 191//178 145//131 142//132
f 201//186 198//183 145//131
f 202//187 191//178 194//177
f 200//185 143//129 199//184
f 207//188 147//134 149//135
f 207//188 146//133 147//134
f 204//189 191//178 202//187
f 204//189 145//131 191//178
f 198//183 150//168 151//167
f 205//190 153//191 203//192
f 205//190 152//138 153//191
f 201//186 150//168 198//183
f 206//193 195//179 200//185
f 199//184 168//148 211//194
f 205//190 156//143 152//138
f 207//188 199//184 146//133
f 159//140 204//189 202//187
f 201//186 154//195 150//168
f 211//194 206//193 200//185
f 207//188 168//148 199//184
f 208//196 149//135 148//136
f 208//196 148//136 157//137
f 211//194 163//146 206//193
f 206//193 158//141 197//182
f 209//197 156//143 205//190
f 210//198 201//186 204//189
f 210//198 204//189 159//140
f 206//193 163//146 160//139
f 206//193 160//139 158//141
f 209//197 162//144 156//143
f 210//198 154//195 201//186
f 212//199 157//137 152//138
f 212//199 152//138 155//200
f 213//201 162//144 209//197
f 213//201 209//197 214//202
f 211//194 164//145 163//146
f 211//194 168//148 164//145
f 215//203 207//188 149//135
f 213//201 166//204 162//144
f 216//205 154//195 210//198
f 216//205 159//140 160//139
f 216//205 210//198 159//140
f 221//206 215//203 149//135
f 218//207 156//143 161//142
f 218//207 155//200 156//143
f 219//208 214//202 165//150
f 219//208 213//201 214//202
f 221//206 171//153 215//203
f 167//147 215//203 171//153
f 167//147 168//148 215//203
f 174//155 221//206 157//137
f 219//208 166//204 213//201
f 220//209 155//200 218//207
f 220//209 212//199 155//200
f 222//210 160//139 164//145
f 222//210 216//205 160//139
f 222//210 217//211 216//205
f 174//155 157//137 212//199
f 219//208 165//150 170//151
f 223//212 161//142 162//144
f 223//212 162//144 166//204
f 222//210 224//213 217//211
f 225//214 166//204 219//208
f 221//206 172//152 171//153
f 221//206 174//155 172//152
f 176//157 212//199 220//209
f 226//215 218//207 161//142
f 226//215 161//142 223//212
f 224//213 164//145 167//147
f 225//214 234//216 166//204
f 224//213 222//210 164//145
f 228//217 220//209 218//207
f 228//217 176//157 220//209
f 170//151 225//214 219//208
f 227//218 173//154 174//155
f 227//218 176//157 173//154
f 178//159 218//207 226//215
f 229//219 167//147 172//152
f 230//220 223//212 166//204
f 231//221 169//149 130//118
f 229//219 224//213 167//147
f 232//222 178//159 226//215
f 232//222 226//215 223//212
f 231//221 170//151 169//149
f 234//216 233//223 230//220
f 175//156 228//217 178//159
f 175//156 176//157 228//217
f 181//161 223//212 230//220
f 235//224 172//152 173//154
f 236//225 233//223 234//216
f 235//224 229//219 172//152
f 177//158 232//222 181//161
f 177//158 178//159 232//222
f 237//226 173//154 175//156
f 237//226 235//224 173//154
f 236//225 179//163 182//162
f 236//225 238//227 233//223
f 239//228 175//156 177//158
f 239//228 237//226 175//156
f 239//228 240//229 237//226
f 241//230 238//227 236//225
f 241//230 236//225 182//162
f 180//160 238//227 241//230
f 242//231 177//158 180//160
f 242//231 239//228 177//158
f 242//231 240//229 239//228
f 242//231 243//166 240//229
f 244//232 180//160 241//230
f 244//232 242//231 180//160
f 141//128 245//233 182//162
f 244//232 243//166 242//231
f 245//233 244//232 241//230
f 244//232 245//233 183//164
f 243//166 244//232 183//164
f 151//167 183//164 245//233
f 185//169 133//119 134//121
f 185//169 134//121 130//118
f 188//173 142//132 134//121
f 188//173 134//121 133//119
f 188//173 191//178 142//132
f 188//173 193//176 191//178
f 196//181 139//126 138//125
f 196//181 193//176 139//126
f 196//181 138//125 195//179
f 153//191 192//180 203//192
f 153//191 148//136 192//180
f 202//187 194//177 197//182
f 202//187 197//182 158//141
f 201//186 145//131 204//189
f 197//182 195//179 206//193
f 200//185 199//184 211//194
f 202//187 158//141 159//140
f 215//203 168//148 207//188
f 208//196 221//206 149//135
f 208//196 157//137 221//206
f 227//218 174//155 212//199
f 227//218 212//199 176//157
f 228//217 218//207 178//159
f 234//216 230//220 166//204
f 246//234 225//214 170//151
f 246//234 234//216 225//214
f 232//222 223//212 181//161
f 246//234 170//151 135//122
f 246//234 135//122 179//163
f 246//234 179//163 236//225
f 246//234 236//225 234//216
f 231//221 135//122 170//151
f 231//221 130//118 135//122
f 238//227 181//161 230//220
f 238//227 230//220 233//223
f 135//122 137//124 179//163
f 238//227 180//160 181//161
f 245//233 241//230 182//162
f 151//167 245//233 141//128
f 128//235 131//236 129//237
f 214//238 131//236 128//235
f 214//238 128//235 165//239
f 192//240 190//241 186//242
f 192//240 186//242 131//236
f 192//240 131//236 214//238
f 209//243 192//240 214//238
f 209//243 203//244 192//240
f 205//245 203//244 209//243
f 217//246 154//247 216//248
f 243//249 150//250 154//247
f 243//249 184//251 150//250
f 229//252 217//246 224//253
f 235//254 154//247 217//246
f 235//254 243//249 154//247
f 235//254 217//246 229//252
f 240//255 243//249 235//254
f 237//256 240//255 235//254
f 248//257 283//258 247//259
f 248//257 247//259 249//260
f 250//261 283//258 248//257
f 251//262 248//257 249//260
f 251//262 250//261 248//257
f 250//261 297//263 283//258
f 253//264 297//263 250//261
f 254//265 249//260 247//259
f 252//266 249//260 254//265
f 255//267 251//262 249//260
f 255//267 249//260 252//266
f 256//268 250//261 251//262
f 258//269 251//262 255//267
f 259//270 253//264 250//261
f 257//271 255//267 252//266
f 258//269 256//268 251//262
f 259//270 250//261 256//268
f 259//270 260//272 253//264
f 261//273 257//271 252//266
f 261//273 252//266 254//265
f 267//274 258//269 255//267
f 265//275 262//276 260//272
f 265//275 260//272 259//270
f 264//277 257//271 261//273
f 268//278 267//274 255//267
f 268//278 255//267 257//271
f 261//273 254//265 263//279
f 264//277 266//280 257//271
f 269//281 256//268 258//269
f 256//268 265//275 259//270
f 263//279 254//265 247//259
f 266//280 268//278 257//271
f 269//281 258//269 267//274
f 271//282 263//279 247//259
f 273//283 264//277 261//273
f 274//284 261//273 263//279
f 272//285 267//274 268//278
f 276//286 265//275 256//268
f 275//287 268//278 266//280
f 276//286 262//276 265//275
f 277//288 276//286 256//268
f 277//288 256//268 269//281
f 274//284 273//283 261//273
f 278//289 275//287 266//280
f 269//281 267//274 272//285
f 279//290 274//284 263//279
f 278//289 266//280 264//277
f 275//287 272//285 268//278
f 276//286 270//291 262//276
f 280//292 278//289 264//277
f 279//290 263//279 271//282
f 281//293 273//283 274//284
f 280//292 264//277 273//283
f 282//294 269//281 272//285
f 284//295 280//292 273//283
f 283//258 271//282 247//259
f 284//295 273//283 281//293
f 285//296 270//291 276//286
f 285//296 317//297 270//291
f 282//294 277//288 269//281
f 286//298 271//282 283//258
f 287//299 285//296 276//286
f 288//300 274//284 279//290
f 290//301 272//285 275//287
f 279//290 271//282 286//298
f 289//302 281//293 274//284
f 290//301 282//294 272//285
f 287//299 276//286 277//288
f 291//303 317//297 285//296
f 290//301 275//287 278//289
f 292//304 287//299 277//288
f 293//305 290//301 278//289
f 288//300 289//302 274//284
f 293//305 278//289 280//292
f 294//306 279//290 286//298
f 293//305 280//292 284//295
f 295//307 284//295 281//293
f 296//308 277//288 282//294
f 296//308 292//304 277//288
f 297//263 286//298 283//258
f 294//306 288//300 279//290
f 287//299 291//303 285//296
f 297//263 294//306 286//298
f 298//309 293//305 284//295
f 300//310 295//307 281//293
f 300//310 281//293 289//302
f 296//308 282//294 290//301
f 302//311 289//302 288//300
f 298//309 284//295 295//307
f 299//312 290//301 293//305
f 303//313 296//308 290//301
f 302//311 288//300 294//306
f 304//314 293//305 298//309
f 303//313 290//301 299//312
f 304//314 299//312 293//305
f 305//315 291//303 287//299
f 296//308 287//299 292//304
f 307//316 298//309 295//307
f 306//317 294//306 297//263
f 308//318 300//310 289//302
f 309//319 302//311 294//306
f 307//316 295//307 300//310
f 301//320 291//303 305//315
f 358//321 351//321 355//321
f 302//311 308//318 289//302
f 305//315 287//299 296//308
f 309//319 294//306 306//317
f 310//322 296//308 303//313
f 306//317 297//263 253//264
f 305//315 316//323 301//320
f 311//324 303//313 299//312
f 311//324 299//312 304//314
f 310//322 305//315 296//308
f 312//325 308//318 302//311
f 307//316 304//314 298//309
f 313//326 309//319 306//317
f 308//318 307//316 300//310
f 260//272 306//317 253//264
f 312//325 302//311 309//319
f 311//324 310//322 303//313
f 314//327 311//324 304//314
f 314//327 304//314 307//316
f 313//326 312//325 309//319
f 306//317 260//272 262//276
f 314//327 307//316 308//318
f 315//328 308//318 312//325
f 316//323 305//315 310//322
f 315//328 314//327 308//318
f 262//276 313//326 306//317
f 316//323 310//322 311//324
f 270//291 313//326 262//276
f 316//323 311//324 314//327
f 317//297 312//325 313//326
f 318//329 315//328 312//325
f 317//297 313//326 270//291
f 318//329 312//325 317//297
f 316//323 314//327 315//328
f 319//330 316//323 315//328
f 319//330 315//328 318//329
f 291//303 318//329 317//297
f 291//303 319//330 318//329
f 301//320 316//323 319//330
f 301//320 319//330 291//303
f 320//331 338//332 325//333
f 323//334 332//335 336//336
f 329//337 326//338 321//339
f 330//340 328//341 321//339
f 329//337 321//339 328//341
f 326//338 331//342 322//343
f 326//338 329//337 331//342
f 332//335 333//344 334//345
f 339//346 329//337 328//341
f 339//346 335//347 344//348
f 339//346 328//341 335//347
f 334//345 333//344 342//349
f 334//345 342//349 343//350
f 339//346 344//348 341//351
f 340//352 342//349 344//353
f 333//354 345//355 324//356
f 346//357 347//358 325//333
f 346//357 325//333 345//359
f 338//332 320//331 322//343
f 330//340 323//334 336//336
f 322//343 348//360 326//338
f 325//333 338//332 327//361
f 325//333 327//361 324//356
f 330//340 336//336 335//347
f 332//335 337//362 336//336
f 332//335 334//345 337//362
f 328//341 330//340 335//347
f 331//342 329//337 339//346
f 336//336 340//352 335//347
f 343//350 337//362 334//345
f 331//342 341//363 322//343
f 339//346 341//351 331//342
f 348//360 320//331 347//358
f 348//360 347//358 350//364
f 350//364 349//365 326//338
f 350//364 326//338 348//360
f 321//339 326//338 349//365
f 330//340 349//365 323//366
f 330//340 321//339 349//365
f 337//362 343//350 340//352
f 337//362 340//352 336//336
f 324//356 342//367 333//354
f 327//361 342//367 324//356
f 342//349 340//352 343//350
f 341//368 338//332 322//343
f 341//368 327//361 338//332
f 342//369 327//361 341//368
f 344//370 335//347 340//352
f 325//333 324//356 345//359
f 320//331 325//333 347//358
f 348//360 322//343 320//331
f 345//371 347//372 346//373
f 345//371 350//374 347//372
f 345//371 349//375 350//374
f 345//371 323//376 349//375
f 345//371 332//377 323//376
f 345//371 333//378 332//377
f 342//379 341//379 344//379
f 351//380 352//380 353//380
f 353//380 354//380 351//380
f 355//381 354//381 356//381
f 355//381 351//381 354//381
f 357//382 358//382 355//382
f 357//382 355//382 356//382
f 353//383 352//383 358//383
f 353//383 358//383 357//383
f 359//380 362//380 361//380
f 362//380 359//380 360//380
f 362//384 363//384 361//384
f 362//384 364//384 363//384
f 365//382 366//382 363//382
f 365//382 363//382 364//382
f 366//385 360//385 359//385
f 366//385 365//385 360//385
f 357//386 354//386 353//386
f 9//387 15//387 12//387
f 7//388 3//388 2//388
f 7//389 5//389 6//389
f 5//386 3//386 6//386
f 1//387 8//387 4//387
f 2//321 8//321 7//321
f 16//388 11//388 10//388
f 155//200 152//138 156//143
f 148//136 153//191 152//138
f 365//386 362//386 360//386
f 1//390 2//390 3//390
f 366//321 361//321 363//321
f 358//321 352//321 351//321
f 357//386 356//386 354//386
f 9//387 13//387 15//387
f 7//388 6//388 3//388
f 7//389 8//389 5//389
f 5//386 1//386 3//386
f 1//387 5//387 8//387
f 2//321 4//321 8//321
f 16//388 14//388 11//388
f 365//386 364//386 362//386
f 1//390 4//390 2//390
f 366//321 359//321 361//321
