# Blender 5.2.1 LTS
# www.blender.org
mtllib cornice_run.mtl
o cornice_run
v -0.500000 0.000000 -0.050000
v 0.500000 0.000000 0.000000
v -0.500000 0.000000 0.000000
v 0.500000 0.000000 -0.050000
v 0.500000 0.030000 -0.050000
v 0.500000 0.230000 -0.220000
v 0.500000 0.100000 -0.160000
v 0.500000 0.100000 -0.260000
v 0.500000 0.230000 -0.260000
v 0.500000 0.290000 -0.140000
v 0.500000 0.060000 -0.112000
v 0.500000 0.260000 -0.220000
v 0.500000 0.340000 -0.040000
v 0.500000 0.340000 0.000000
v -0.500000 0.340000 0.000000
v -0.500000 0.340000 -0.040000
v -0.500000 0.290000 -0.140000
v -0.500000 0.260000 -0.220000
v -0.500000 0.230000 -0.220000
v -0.500000 0.230000 -0.260000
v -0.500000 0.100000 -0.260000
v -0.500000 0.100000 -0.160000
v -0.500000 0.060000 -0.112000
v -0.500000 0.030000 -0.050000
vn -0.0000 -0.0000 -1.0000
vn 1.0000 -0.0000 -0.0000
vn -0.0000 -1.0000 -0.0000
vn -0.0000 0.9166 -0.3997
vn -0.0000 0.9363 -0.3511
vn -0.0000 1.0000 -0.0000
vn -0.0000 -0.7682 -0.6402
vn -0.0000 -0.8404 -0.5419
vn -0.0000 0.9732 -0.2298
vn -1.0000 -0.0000 -0.0000
vn -0.0000 -0.9002 -0.4356
vn -0.0000 -0.0000 1.0000
s 1
usemtl paint
f 12//1 19//1 18//1
f 2//2 4//2 5//2
f 6//2 7//2 8//2
f 6//2 8//2 9//2
f 10//2 11//2 7//2
f 10//2 6//2 12//2
f 10//2 7//2 6//2
f 13//2 11//2 10//2
f 14//2 5//2 11//2
f 14//2 2//2 5//2
f 14//2 11//2 13//2
f 8//3 22//3 21//3
f 10//4 18//5 17//4
f 4//3 3//3 1//3
f 6//6 20//6 19//6
f 7//7 23//8 22//7
f 5//1 1//1 24//1
f 13//9 17//4 16//9
f 9//1 21//1 20//1
f 3//10 24//10 1//10
f 19//10 21//10 22//10
f 19//10 20//10 21//10
f 17//10 22//10 23//10
f 17//10 18//10 19//10
f 17//10 19//10 22//10
f 16//10 17//10 23//10
f 15//10 23//10 24//10
f 15//10 24//10 3//10
f 15//10 16//10 23//10
f 11//8 24//11 23//8
f 14//6 16//9 15//6
f 2//12 15//12 3//12
f 12//1 6//1 19//1
f 8//3 7//3 22//3
f 10//4 12//5 18//5
f 4//3 2//3 3//3
f 6//6 9//6 20//6
f 7//7 11//8 23//8
f 5//1 4//1 1//1
f 13//9 10//4 17//4
f 9//1 8//1 21//1
f 11//8 5//11 24//11
f 14//6 13//9 16//9
f 2//12 14//12 15//12
