# Blender 5.2.1 LTS
# www.blender.org
mtllib french_door.mtl
o french_door
v -1.040000 0.080000 0.000000
v -1.040000 0.000000 0.000000
v 1.040000 0.000000 0.000000
v 1.040000 0.080000 0.000000
v -1.040000 0.065000 -0.220000
v 1.040000 0.065000 -0.220000
v -1.040000 0.050000 -0.220000
v 1.040000 0.050000 -0.220000
v -1.040000 0.050000 -0.190000
v 1.040000 0.050000 -0.190000
v -1.040000 0.000000 -0.190000
v 1.040000 0.000000 -0.190000
v -0.920000 2.920000 0.000000
v -0.920000 0.080000 -0.080000
v -0.920000 0.080000 0.000000
v -0.920000 2.920000 -0.080000
v 0.800000 0.200000 0.000000
v 0.920000 0.080000 0.000000
v -0.800000 0.200000 0.000000
v -0.800000 2.800000 0.000000
v 0.800000 2.800000 0.000000
v 0.920000 2.920000 0.000000
v 0.920000 2.920000 -0.080000
v 0.800000 0.200000 -0.080000
v 0.920000 0.080000 -0.080000
v -0.800000 0.200000 -0.080000
v -0.800000 2.800000 -0.080000
v 0.800000 2.800000 -0.080000
v -1.060000 3.000000 0.000000
v -1.060000 2.920000 -0.160000
v -1.060000 2.920000 0.000000
v -1.060000 3.000000 -0.160000
v 1.060000 3.000000 0.000000
v 1.060000 2.920000 0.000000
v 1.060000 2.920000 -0.160000
v 1.060000 3.000000 -0.160000
v -0.780000 2.800000 -0.020000
v -0.780000 0.200000 -0.080000
v -0.780000 0.200000 -0.020000
v -0.780000 2.800000 -0.080000
v -0.100000 0.300000 -0.020000
v 0.000000 0.200000 -0.020000
v -0.680000 0.300000 -0.020000
v -0.680000 2.700000 -0.020000
v 0.000000 2.800000 -0.020000
v -0.100000 2.700000 -0.020000
v 0.000000 2.800000 -0.080000
v -0.100000 0.300000 -0.080000
v 0.000000 0.200000 -0.080000
v -0.680000 0.300000 -0.080000
v -0.680000 2.700000 -0.080000
v -0.100000 2.700000 -0.080000
v 0.680000 0.300000 -0.020000
v 0.780000 0.200000 -0.020000
v 0.100000 0.300000 -0.020000
v 0.100000 2.700000 -0.020000
v 0.780000 2.800000 -0.020000
v 0.680000 2.700000 -0.020000
v 0.780000 2.800000 -0.080000
v 0.680000 0.300000 -0.080000
v 0.780000 0.200000 -0.080000
v 0.100000 0.300000 -0.080000
v 0.100000 2.700000 -0.080000
v 0.680000 2.700000 -0.080000
v -0.025000 2.800000 -0.020000
v -0.025000 0.200000 -0.090000
v -0.025000 0.200000 -0.020000
v -0.025000 2.800000 -0.090000
v 0.025000 2.800000 -0.020000
v 0.025000 0.200000 -0.020000
v 0.025000 0.200000 -0.090000
v 0.025000 2.800000 -0.090000
v -0.410000 2.700000 -0.020000
v -0.410000 0.300000 -0.090000
v -0.410000 0.300000 -0.020000
v -0.410000 2.700000 -0.090000
v -0.370000 2.700000 -0.020000
v -0.370000 0.300000 -0.020000
v -0.370000 0.300000 -0.090000
v -0.370000 2.700000 -0.090000
v -0.680000 0.920000 -0.020000
v -0.680000 0.880000 -0.090000
v -0.680000 0.880000 -0.020000
v -0.680000 0.920000 -0.090000
v -0.100000 0.920000 -0.020000
v -0.100000 0.880000 -0.020000
v -0.100000 0.880000 -0.090000
v -0.100000 0.920000 -0.090000
v -0.680000 1.520000 -0.020000
v -0.680000 1.480000 -0.090000
v -0.680000 1.480000 -0.020000
v -0.680000 1.520000 -0.090000
v -0.100000 1.520000 -0.020000
v -0.100000 1.480000 -0.020000
v -0.100000 1.480000 -0.090000
v -0.100000 1.520000 -0.090000
v -0.680000 2.120000 -0.020000
v -0.680000 2.080000 -0.090000
v -0.680000 2.080000 -0.020000
v -0.680000 2.120000 -0.090000
v -0.100000 2.120000 -0.020000
v -0.100000 2.080000 -0.020000
v -0.100000 2.080000 -0.090000
v -0.100000 2.120000 -0.090000
v 0.370000 2.700000 -0.020000
v 0.370000 0.300000 -0.090000
v 0.370000 0.300000 -0.020000
v 0.370000 2.700000 -0.090000
v 0.410000 2.700000 -0.020000
v 0.410000 0.300000 -0.020000
v 0.410000 0.300000 -0.090000
v 0.410000 2.700000 -0.090000
v 0.100000 0.920000 -0.020000
v 0.100000 0.880000 -0.090000
v 0.100000 0.880000 -0.020000
v 0.100000 0.920000 -0.090000
v 0.680000 0.920000 -0.020000
v 0.680000 0.880000 -0.020000
v 0.680000 0.880000 -0.090000
v 0.680000 0.920000 -0.090000
v 0.100000 1.520000 -0.020000
v 0.100000 1.480000 -0.090000
v 0.100000 1.480000 -0.020000
v 0.100000 1.520000 -0.090000
v 0.680000 1.520000 -0.020000
v 0.680000 1.480000 -0.020000
v 0.680000 1.480000 -0.090000
v 0.680000 1.520000 -0.090000
v 0.100000 2.120000 -0.020000
v 0.100000 2.080000 -0.090000
v 0.100000 2.080000 -0.020000
v 0.100000 2.120000 -0.090000
v 0.680000 2.120000 -0.020000
v 0.680000 2.080000 -0.020000
v 0.680000 2.080000 -0.090000
v 0.680000 2.120000 -0.090000
v -0.800000 0.200000 -0.020000
v -0.800000 2.800000 -0.020000
v 0.800000 0.200000 -0.020000
v 0.800000 2.800000 -0.020000
vn -0.0000 -1.0000 -0.0000
vn -0.0000 1.0000 -0.0000
vn 1.0000 -0.0000 -0.0000
vn -0.0000 -0.0000 1.0000
vn -1.0000 -0.0000 -0.0000
vn -0.0000 -0.0000 -1.0000
vn -0.0000 0.9977 -0.0680
s 1
usemtl trim
f 9//5 5//5 7//5
f 1//5 5//5 9//5
f 2//5 9//5 11//5
f 2//5 1//5 9//5
f 10//3 8//3 6//3
f 4//3 10//3 6//3
f 3//3 12//3 10//3
f 3//3 10//3 4//3
f 17//4 15//4 18//4
f 17//4 19//4 15//4
f 20//4 13//4 15//4
f 20//4 15//4 19//4
f 21//4 13//4 20//4
f 22//4 13//4 21//4
f 22//4 17//4 18//4
f 22//4 21//4 17//4
f 24//6 25//6 14//6
f 24//6 14//6 26//6
f 27//6 14//6 16//6
f 27//6 26//6 14//6
f 28//6 27//6 16//6
f 23//6 28//6 16//6
f 23//6 25//6 24//6
f 23//6 24//6 28//6
f 29//4 34//4 33//4
f 4//4 2//4 3//4
f 8//6 5//6 6//6
f 3//1 11//1 12//1
f 6//7 1//7 4//7
f 12//6 9//6 10//6
f 28//5 17//5 21//5
f 21//1 27//1 28//1
f 16//5 15//5 13//5
f 10//1 7//1 8//1
f 32//5 31//5 29//5
f 23//3 18//3 25//3
f 18//1 14//1 25//1
f 22//2 16//2 13//2
f 34//1 30//1 35//1
f 32//6 35//6 30//6
f 27//3 19//3 26//3
f 17//2 26//2 19//2
f 36//3 34//3 35//3
f 33//2 32//2 29//2
f 29//4 31//4 34//4
f 4//4 1//4 2//4
f 8//6 7//6 5//6
f 3//1 2//1 11//1
f 6//7 5//7 1//7
f 12//6 11//6 9//6
f 28//5 24//5 17//5
f 21//1 20//1 27//1
f 16//5 14//5 15//5
f 10//1 9//1 7//1
f 32//5 30//5 31//5
f 23//3 22//3 18//3
f 18//1 15//1 14//1
f 22//2 23//2 16//2
f 34//1 31//1 30//1
f 32//6 36//6 35//6
f 27//3 20//3 19//3
f 17//2 24//2 26//2
f 36//3 33//3 34//3
f 33//2 36//2 32//2
usemtl wood
f 94//1 90//1 95//1
f 133//2 132//2 129//2
f 120//3 118//3 119//3
f 101//2 100//2 97//2
f 81//4 86//4 85//4
f 54//1 49//1 61//1
f 72//3 70//3 71//3
f 124//6 127//6 122//6
f 76//6 79//6 74//6
f 97//4 102//4 101//4
f 92//5 91//5 89//5
f 52//5 41//5 46//5
f 46//1 51//1 52//1
f 108//6 111//6 106//6
f 64//5 53//5 58//5
f 40//5 39//5 37//5
f 136//3 134//3 135//3
f 69//2 68//2 65//2
f 41//4 39//4 42//4
f 41//4 43//4 39//4
f 44//4 37//4 39//4
f 44//4 39//4 43//4
f 45//4 44//4 46//4
f 45//4 37//4 44//4
f 45//4 41//4 42//4
f 45//4 46//4 41//4
f 59//3 54//3 61//3
f 48//6 49//6 38//6
f 48//6 38//6 50//6
f 51//6 38//6 40//6
f 51//6 50//6 38//6
f 47//6 52//6 51//6
f 47//6 51//6 40//6
f 47//6 49//6 48//6
f 47//6 48//6 52//6
f 47//3 42//3 49//3
f 51//3 43//3 50//3
f 53//4 42//4 54//4
f 53//4 55//4 42//4
f 56//4 45//4 42//4
f 56//4 42//4 55//4
f 57//4 56//4 58//4
f 57//4 45//4 56//4
f 57//4 53//4 54//4
f 57//4 58//4 53//4
f 84//6 87//6 82//6
f 60//6 61//6 49//6
f 60//6 49//6 62//6
f 63//6 49//6 47//6
f 63//6 62//6 49//6
f 59//6 64//6 63//6
f 59//6 63//6 47//6
f 59//6 61//6 60//6
f 59//6 60//6 64//6
f 93//2 92//2 89//2
f 63//3 55//3 62//3
f 108//5 107//5 105//5
f 68//6 71//6 66//6
f 113//4 118//4 117//4
f 80//3 78//3 79//3
f 126//1 122//1 127//1
f 58//1 63//1 64//1
f 77//2 76//2 73//2
f 42//1 38//1 49//1
f 88//3 86//3 87//3
f 57//2 47//2 45//2
f 86//1 82//1 87//1
f 96//3 94//3 95//3
f 41//2 50//2 43//2
f 92//6 95//6 90//6
f 89//4 94//4 93//4
f 84//5 83//5 81//5
f 100//5 99//5 97//5
f 78//1 74//1 79//1
f 45//2 40//2 37//2
f 102//1 98//1 103//1
f 100//6 103//6 98//6
f 104//3 102//3 103//3
f 68//5 67//5 65//5
f 112//3 110//3 111//3
f 110//1 106//1 111//1
f 53//2 62//2 55//2
f 116//5 115//5 113//5
f 109//2 108//2 105//2
f 105//4 110//4 109//4
f 70//1 66//1 71//1
f 116//6 119//6 114//6
f 124//5 123//5 121//5
f 65//4 70//4 69//4
f 121//4 126//4 125//4
f 128//3 126//3 127//3
f 118//1 114//1 119//1
f 73//4 78//4 77//4
f 125//2 124//2 121//2
f 129//4 134//4 133//4
f 76//5 75//5 73//5
f 132//6 135//6 130//6
f 132//5 131//5 129//5
f 117//2 116//2 113//2
f 134//1 130//1 135//1
f 85//2 84//2 81//2
f 94//1 91//1 90//1
f 133//2 136//2 132//2
f 120//3 117//3 118//3
f 101//2 104//2 100//2
f 81//4 83//4 86//4
f 54//1 42//1 49//1
f 72//3 69//3 70//3
f 124//6 128//6 127//6
f 76//6 80//6 79//6
f 97//4 99//4 102//4
f 92//5 90//5 91//5
f 52//5 48//5 41//5
f 46//1 44//1 51//1
f 108//6 112//6 111//6
f 64//5 60//5 53//5
f 40//5 38//5 39//5
f 136//3 133//3 134//3
f 69//2 72//2 68//2
f 59//3 57//3 54//3
f 47//3 45//3 42//3
f 51//3 44//3 43//3
f 84//6 88//6 87//6
f 93//2 96//2 92//2
f 63//3 56//3 55//3
f 108//5 106//5 107//5
f 68//6 72//6 71//6
f 113//4 115//4 118//4
f 80//3 77//3 78//3
f 126//1 123//1 122//1
f 58//1 56//1 63//1
f 77//2 80//2 76//2
f 42//1 39//1 38//1
f 88//3 85//3 86//3
f 57//2 59//2 47//2
f 86//1 83//1 82//1
f 96//3 93//3 94//3
f 41//2 48//2 50//2
f 92//6 96//6 95//6
f 89//4 91//4 94//4
f 84//5 82//5 83//5
f 100//5 98//5 99//5
f 78//1 75//1 74//1
f 45//2 47//2 40//2
f 102//1 99//1 98//1
f 100//6 104//6 103//6
f 104//3 101//3 102//3
f 68//5 66//5 67//5
f 112//3 109//3 110//3
f 110//1 107//1 106//1
f 53//2 60//2 62//2
f 116//5 114//5 115//5
f 109//2 112//2 108//2
f 105//4 107//4 110//4
f 70//1 67//1 66//1
f 116//6 120//6 119//6
f 124//5 122//5 123//5
f 65//4 67//4 70//4
f 121//4 123//4 126//4
f 128//3 125//3 126//3
f 118//1 115//1 114//1
f 73//4 75//4 78//4
f 125//2 128//2 124//2
f 129//4 131//4 134//4
f 76//5 74//5 75//5
f 132//6 136//6 135//6
f 132//5 130//5 131//5
f 117//2 120//2 116//2
f 134//1 131//1 130//1
f 85//2 88//2 84//2
usemtl glass
f 44//4 41//4 46//4
f 51//6 48//6 50//6
f 56//4 53//4 58//4
f 63//6 60//6 62//6
f 44//4 43//4 41//4
f 51//6 52//6 48//6
f 56//4 55//4 53//4
f 63//6 64//6 60//6
usemtl dark
f 138//5 19//5 20//5
f 138//6 139//6 137//6
f 140//3 17//3 139//3
f 20//4 17//4 21//4
f 17//1 137//1 139//1
f 21//2 138//2 20//2
f 138//5 137//5 19//5
f 138//6 140//6 139//6
f 140//3 21//3 17//3
f 20//4 19//4 17//4
f 17//1 19//1 137//1
f 21//2 140//2 138//2
