# Blender 5.2.1 LTS
# www.blender.org
mtllib lamp_bracket.mtl
o lamp_bracket
v -0.090000 0.300000 0.000000
v -0.090000 -0.000000 -0.026000
v -0.090000 0.000000 0.000000
v -0.090000 0.300000 -0.026000
v 0.090000 0.300000 -0.026000
v 0.090000 0.300000 0.000000
v -0.076000 0.286000 -0.040000
v -0.076000 0.014000 -0.040000
v 0.090000 0.000000 0.000000
v 0.090000 -0.000000 -0.026000
v 0.076000 0.286000 -0.040000
v 0.076000 0.014000 -0.040000
v 0.017500 0.529286 -0.316337
v 0.017500 0.211714 -0.026163
v 0.017500 0.190286 -0.053837
v 0.017500 0.550714 -0.288663
v -0.017500 0.529286 -0.316337
v -0.017500 0.190286 -0.053837
v -0.017500 0.550714 -0.288663
v -0.017500 0.211714 -0.026163
v -0.017500 0.792563 -0.537817
v -0.017500 0.527437 -0.314683
v -0.017500 0.552563 -0.290317
v -0.017500 0.767437 -0.562183
v 0.017500 0.792563 -0.537817
v 0.017500 0.552563 -0.290317
v 0.017500 0.767437 -0.562183
v 0.017500 0.527437 -0.314683
v -0.017500 0.540000 -0.532500
v 0.017500 0.780000 -0.532500
v -0.017500 0.780000 -0.532500
v 0.017500 0.540000 -0.532500
v -0.017500 0.540000 -0.567500
v -0.017500 0.780000 -0.567500
v 0.017500 0.540000 -0.567500
v 0.017500 0.780000 -0.567500
v -0.130000 0.540000 -0.420000
v -0.130000 0.501000 -0.680000
v -0.130000 0.501000 -0.420000
v -0.130000 0.540000 -0.680000
v 0.130000 0.540000 -0.420000
v 0.130000 0.501000 -0.420000
v 0.130000 0.501000 -0.680000
v 0.130000 0.540000 -0.680000
v -0.100000 0.501000 -0.450000
v -0.100000 0.221000 -0.475000
v -0.100000 0.221000 -0.450000
v -0.100000 0.501000 -0.475000
v -0.075000 0.501000 -0.450000
v -0.075000 0.221000 -0.450000
v -0.075000 0.221000 -0.475000
v -0.075000 0.501000 -0.475000
v -0.100000 0.501000 -0.625000
v -0.100000 0.221000 -0.650000
v -0.100000 0.221000 -0.625000
v -0.100000 0.501000 -0.650000
v -0.075000 0.501000 -0.625000
v -0.075000 0.221000 -0.625000
v -0.075000 0.221000 -0.650000
v -0.075000 0.501000 -0.650000
v 0.075000 0.501000 -0.450000
v 0.075000 0.221000 -0.475000
v 0.075000 0.221000 -0.450000
v 0.075000 0.501000 -0.475000
v 0.100000 0.501000 -0.450000
v 0.100000 0.221000 -0.450000
v 0.100000 0.221000 -0.475000
v 0.100000 0.501000 -0.475000
v 0.075000 0.501000 -0.625000
v 0.075000 0.221000 -0.650000
v 0.075000 0.221000 -0.625000
v 0.075000 0.501000 -0.650000
v 0.100000 0.501000 -0.625000
v 0.100000 0.221000 -0.625000
v 0.100000 0.221000 -0.650000
v 0.100000 0.501000 -0.650000
v 0.022500 0.176000 -0.550000
v 0.030000 0.161000 -0.550000
v 0.029544 0.161000 -0.555209
v 0.029544 0.161000 -0.544791
v 0.021500 0.176000 -0.556632
v 0.028191 0.161000 -0.560261
v 0.025981 0.161000 -0.565000
v 0.018590 0.176000 -0.562675
v 0.022981 0.161000 -0.569284
v 0.014029 0.176000 -0.567591
v 0.019284 0.161000 -0.572981
v 0.015000 0.161000 -0.575981
v 0.008220 0.176000 -0.570945
v 0.010261 0.161000 -0.578191
v 0.005209 0.161000 -0.579544
v 0.014334 0.191000 -0.554421
v 0.015000 0.191000 -0.550000
v 0.001681 0.176000 -0.572437
v 0.000000 0.161000 -0.580000
v 0.012394 0.191000 -0.558450
v -0.005007 0.176000 -0.571936
v -0.005209 0.161000 -0.579544
v -0.010261 0.161000 -0.578191
v 0.009352 0.191000 -0.561727
v -0.011250 0.176000 -0.569486
v -0.015000 0.161000 -0.575981
v -0.019284 0.161000 -0.572981
v 0.005480 0.191000 -0.563963
v -0.016494 0.176000 -0.565304
v -0.022981 0.161000 -0.569284
v -0.025981 0.161000 -0.565000
v 0.007167 0.206000 -0.552211
v 0.007500 0.206000 -0.550000
v -0.000000 0.221000 -0.550000
v 0.001121 0.191000 -0.564958
v -0.020272 0.176000 -0.559762
v -0.028191 0.161000 -0.560261
v 0.006197 0.206000 -0.554225
v -0.003338 0.191000 -0.564624
v -0.022249 0.176000 -0.553353
v -0.029544 0.161000 -0.555209
v -0.030000 0.161000 -0.550000
v 0.004676 0.206000 -0.555864
v -0.007500 0.191000 -0.562990
v -0.022249 0.176000 -0.546647
v -0.029544 0.161000 -0.544791
v -0.028191 0.161000 -0.539739
v 0.002740 0.206000 -0.556982
v -0.010996 0.191000 -0.560203
v -0.020272 0.176000 -0.540238
v -0.025981 0.161000 -0.535000
v 0.000560 0.206000 -0.557479
v -0.013515 0.191000 -0.556508
v -0.016494 0.176000 -0.534696
v -0.022981 0.161000 -0.530716
v -0.019284 0.161000 -0.527019
v -0.001669 0.206000 -0.557312
v -0.014832 0.191000 -0.552236
v -0.011250 0.176000 -0.530514
v -0.015000 0.161000 -0.524019
v -0.010261 0.161000 -0.521809
v -0.003750 0.206000 -0.556495
v -0.014832 0.191000 -0.547764
v -0.005007 0.176000 -0.528064
v -0.005209 0.161000 -0.520456
v -0.000000 0.161000 -0.520000
v -0.005498 0.206000 -0.555101
v -0.013515 0.191000 -0.543492
v 0.001681 0.176000 -0.527563
v 0.005209 0.161000 -0.520456
v -0.006757 0.206000 -0.553254
v -0.010996 0.191000 -0.539797
v 0.008220 0.176000 -0.529055
v 0.010261 0.161000 -0.521809
v 0.015000 0.161000 -0.524019
v -0.007416 0.206000 -0.551118
v -0.007500 0.191000 -0.537010
v 0.014029 0.176000 -0.532409
v 0.019284 0.161000 -0.527019
v 0.022981 0.161000 -0.530716
v -0.007416 0.206000 -0.548882
v -0.003338 0.191000 -0.535376
v 0.018590 0.176000 -0.537325
v 0.025981 0.161000 -0.535000
v -0.006757 0.206000 -0.546746
v 0.001121 0.191000 -0.535042
v 0.021500 0.176000 -0.543368
v 0.028191 0.161000 -0.539739
v -0.005498 0.206000 -0.544899
v 0.005480 0.191000 -0.536037
v -0.003750 0.206000 -0.543505
v 0.009352 0.191000 -0.538273
v -0.001669 0.206000 -0.542688
v 0.012394 0.191000 -0.541550
v 0.000560 0.206000 -0.542521
v 0.014334 0.191000 -0.545579
v 0.002740 0.206000 -0.543018
v 0.004676 0.206000 -0.544136
v 0.006197 0.206000 -0.545775
v 0.007167 0.206000 -0.547789
v -0.100000 0.481000 -0.450000
v -0.100000 0.481000 -0.650000
v 0.100000 0.481000 -0.450000
v 0.100000 0.481000 -0.650000
vn -0.0000 0.6122 0.7907
vn -0.0000 1.0000 -0.0000
vn -0.7071 -0.0000 -0.7071
vn -0.0000 -0.0000 -1.0000
vn -0.0000 0.7071 -0.7071
vn -0.0000 0.7907 -0.6122
vn -0.0000 -0.7071 -0.7071
vn 1.0000 -0.0000 -0.0000
vn 0.7071 -0.0000 -0.7071
vn -1.0000 -0.0000 -0.0000
vn -0.0000 0.6961 -0.7179
vn -0.0000 -0.7179 -0.6961
vn -0.0000 -0.6961 0.7179
vn -0.0000 -0.0000 1.0000
vn -0.0000 -1.0000 -0.0000
vn -0.0000 0.7179 0.6961
vn -0.0000 -0.6122 -0.7907
vn -0.0000 -0.7907 0.6122
vn 0.8911 0.4538 -0.0000
vn 0.8944 0.4472 -0.0000
vn 0.8810 0.4472 -0.1542
vn 0.8810 0.4472 0.1542
vn 0.8516 0.4533 -0.2634
vn 0.8387 0.4487 -0.3086
vn 0.7756 0.4489 -0.4438
vn 0.7368 0.4531 -0.5018
vn 0.6834 0.4478 -0.5765
vn 0.5559 0.4537 -0.6965
vn 0.5760 0.4476 -0.6840
vn 0.4473 0.4470 -0.7747
vn 0.3253 0.4537 -0.8297
vn 0.3043 0.4476 -0.8409
vn 0.1575 0.4478 -0.8801
vn 0.8547 0.4472 -0.2636
vn 0.0662 0.4531 -0.8890
vn -0.0034 0.4489 -0.8936
vn 0.7390 0.4472 -0.5038
vn -0.1977 0.4533 -0.8692
vn -0.1520 0.4487 -0.8806
vn -0.3070 0.4472 -0.8401
vn 0.5577 0.4472 -0.6993
vn -0.4455 0.4538 -0.7717
vn -0.4472 0.4472 -0.7746
vn -0.5740 0.4472 -0.6859
vn 0.3268 0.4472 -0.8326
vn -0.6539 0.4533 -0.6058
vn -0.6866 0.4487 -0.5720
vn -0.7721 0.4489 -0.4498
vn 0.0668 0.4472 -0.8919
vn -0.8030 0.4531 -0.3872
vn -0.8410 0.4478 -0.3036
vn 0.7390 0.4472 -0.5039
vn -0.1990 0.4472 -0.8720
vn -0.8812 0.4537 -0.1332
vn -0.8804 0.4476 -0.1569
vn -0.8945 0.4470 -0.0000
vn -0.8812 0.4537 0.1332
vn -0.8804 0.4476 0.1569
vn -0.8410 0.4478 0.3036
vn -0.6557 0.4472 -0.6084
vn -0.8030 0.4531 0.3872
vn -0.7721 0.4489 0.4498
vn -0.8059 0.4472 -0.3881
vn -0.6539 0.4533 0.6058
vn -0.6866 0.4487 0.5720
vn -0.5740 0.4472 0.6859
vn -0.8844 0.4472 -0.1333
vn -0.4456 0.4538 0.7717
vn -0.4472 0.4472 0.7746
vn -0.3070 0.4472 0.8401
vn -0.8844 0.4472 0.1333
vn -0.1977 0.4533 0.8692
vn -0.1520 0.4487 0.8806
vn -0.0034 0.4489 0.8936
vn -0.8058 0.4472 0.3881
vn 0.0662 0.4531 0.8890
vn 0.1575 0.4478 0.8801
vn -0.8058 0.4472 -0.3881
vn -0.6557 0.4472 0.6084
vn 0.3253 0.4537 0.8297
vn 0.3043 0.4476 0.8409
vn 0.4473 0.4470 0.7747
vn 0.5559 0.4537 0.6965
vn 0.5760 0.4476 0.6840
vn 0.6834 0.4478 0.5765
vn -0.1990 0.4472 0.8720
vn 0.7368 0.4531 0.5018
vn 0.7756 0.4489 0.4438
vn -0.8059 0.4472 0.3881
vn 0.0668 0.4472 0.8919
vn 0.8516 0.4533 0.2634
vn 0.8387 0.4487 0.3086
vn 0.3268 0.4472 0.8326
vn 0.5577 0.4472 0.6993
vn 0.7390 0.4472 0.5038
vn 0.8547 0.4472 0.2636
vn 0.7390 0.4472 0.5039
s 1
usemtl metal
f 19//1 14//1 16//1
f 57//2 56//2 53//2
f 7//3 8//3 2//3
f 7//3 2//3 4//3
f 48//4 51//4 46//4
f 49//2 48//2 45//2
f 5//5 7//5 4//5
f 5//5 11//5 7//5
f 17//6 16//6 13//6
f 10//7 2//7 8//7
f 10//7 8//7 12//7
f 60//8 58//8 59//8
f 11//9 10//9 12//9
f 11//9 5//9 10//9
f 17//10 20//10 19//10
f 21//11 27//11 24//11
f 48//10 47//10 45//10
f 44//8 42//8 43//8
f 6//2 4//2 1//2
f 16//8 15//8 13//8
f 27//12 22//12 24//12
f 24//10 23//10 21//10
f 23//13 28//13 26//13
f 35//8 30//8 32//8
f 1//14 9//14 6//14
f 29//10 34//10 33//10
f 7//4 12//4 8//4
f 50//15 46//15 51//15
f 4//10 3//10 1//10
f 29//15 35//15 32//15
f 52//8 50//8 51//8
f 64//10 63//10 61//10
f 56//10 55//10 53//10
f 40//4 43//4 38//4
f 69//14 74//14 73//14
f 5//8 9//8 10//8
f 37//14 42//14 41//14
f 41//2 40//2 37//2
f 21//16 26//16 25//16
f 9//15 2//15 10//15
f 45//14 50//14 49//14
f 76//8 74//8 75//8
f 13//17 18//17 17//17
f 33//4 36//4 35//4
f 53//14 58//14 57//14
f 32//14 31//14 29//14
f 58//15 54//15 59//15
f 61//14 66//14 65//14
f 56//4 59//4 54//4
f 73//2 72//2 69//2
f 40//10 39//10 37//10
f 68//8 66//8 67//8
f 66//15 62//15 67//15
f 31//2 36//2 34//2
f 72//10 71//10 69//10
f 65//2 64//2 61//2
f 27//8 26//8 28//8
f 18//18 14//18 20//18
f 77//19 78//20 79//21
f 77//19 80//22 78//20
f 81//23 79//21 82//24
f 81//23 82//24 83//25
f 81//23 77//19 79//21
f 84//26 83//25 85//27
f 84//26 81//23 83//25
f 86//28 85//27 87//29
f 86//28 87//29 88//30
f 86//28 84//26 85//27
f 89//31 88//30 90//32
f 89//31 90//32 91//33
f 89//31 86//28 88//30
f 92//34 93//20 77//19
f 92//34 77//19 81//23
f 94//35 91//33 95//36
f 94//35 89//31 91//33
f 96//37 81//23 84//26
f 96//37 92//34 81//23
f 97//38 94//35 95//36
f 97//38 95//36 98//39
f 97//38 98//39 99//40
f 100//41 96//37 84//26
f 100//41 84//26 86//28
f 101//42 99//40 102//43
f 101//42 102//43 103//44
f 101//42 97//38 99//40
f 104//45 100//41 86//28
f 104//45 86//28 89//31
f 105//46 103//44 106//47
f 105//46 106//47 107//48
f 105//46 101//42 103//44
f 108//34 109//20 93//20
f 108//34 110//2 109//20
f 108//34 93//20 92//34
f 111//49 104//45 89//31
f 111//49 89//31 94//35
f 112//50 107//48 113//51
f 112//50 105//46 107//48
f 114//52 92//34 96//37
f 114//52 110//2 108//34
f 114//52 108//34 92//34
f 115//53 94//35 97//38
f 115//53 111//49 94//35
f 116//54 113//51 117//55
f 116//54 117//55 118//56
f 116//54 112//50 113//51
f 119//41 96//37 100//41
f 119//41 110//2 114//52
f 119//41 114//52 96//37
f 120//43 97//38 101//42
f 120//43 115//53 97//38
f 121//57 118//56 122//58
f 121//57 122//58 123//59
f 121//57 116//54 118//56
f 124//45 100//41 104//45
f 124//45 110//2 119//41
f 124//45 119//41 100//41
f 125//60 101//42 105//46
f 125//60 120//43 101//42
f 126//61 123//59 127//62
f 126//61 121//57 123//59
f 128//49 110//2 124//45
f 128//49 124//45 104//45
f 128//49 104//45 111//49
f 129//63 105//46 112//50
f 129//63 125//60 105//46
f 130//64 127//62 131//65
f 130//64 131//65 132//66
f 130//64 126//61 127//62
f 133//53 128//49 111//49
f 133//53 111//49 115//53
f 133//53 110//2 128//49
f 134//67 129//63 112//50
f 134//67 112//50 116//54
f 135//68 132//66 136//69
f 135//68 136//69 137//70
f 135//68 130//64 132//66
f 138//43 115//53 120//43
f 138//43 133//53 115//53
f 138//43 110//2 133//53
f 139//71 116//54 121//57
f 139//71 134//67 116//54
f 140//72 137//70 141//73
f 140//72 141//73 142//74
f 140//72 135//68 137//70
f 143//60 110//2 138//43
f 143//60 120//43 125//60
f 143//60 138//43 120//43
f 144//75 121//57 126//61
f 144//75 139//71 121//57
f 145//76 142//74 146//77
f 145//76 140//72 142//74
f 147//78 125//60 129//63
f 147//78 143//60 125//60
f 147//78 110//2 143//60
f 148//79 126//61 130//64
f 148//79 144//75 126//61
f 149//80 145//76 146//77
f 149//80 146//77 150//81
f 149//80 150//81 151//82
f 152//67 129//63 134//67
f 152//67 147//78 129//63
f 152//67 110//2 147//78
f 153//69 130//64 135//68
f 153//69 148//79 130//64
f 154//83 151//82 155//84
f 154//83 155//84 156//85
f 154//83 149//80 151//82
f 157//71 110//2 152//67
f 157//71 134//67 139//71
f 157//71 152//67 134//67
f 158//86 153//69 135//68
f 158//86 135//68 140//72
f 159//87 154//83 156//85
f 159//87 156//85 160//88
f 161//89 110//2 157//71
f 161//89 157//71 139//71
f 161//89 139//71 144//75
f 162//90 158//86 140//72
f 162//90 140//72 145//76
f 163//91 159//87 160//88
f 163//91 80//22 77//19
f 163//91 160//88 164//92
f 163//91 164//92 80//22
f 165//79 110//2 161//89
f 165//79 161//89 144//75
f 165//79 144//75 148//79
f 166//93 145//76 149//80
f 166//93 162//90 145//76
f 167//69 148//79 153//69
f 167//69 165//79 148//79
f 167//69 110//2 165//79
f 168//94 149//80 154//83
f 168//94 166//93 149//80
f 169//86 153//69 158//86
f 169//86 167//69 153//69
f 169//86 110//2 167//69
f 170//95 168//94 154//83
f 170//95 154//83 159//87
f 171//90 169//86 158//86
f 171//90 110//2 169//86
f 171//90 158//86 162//90
f 172//96 170//95 159//87
f 172//96 159//87 163//91
f 172//96 163//91 77//19
f 172//96 77//19 93//20
f 173//93 162//90 166//93
f 173//93 171//90 162//90
f 173//93 110//2 171//90
f 174//94 173//93 166//93
f 174//94 166//93 168//94
f 174//94 110//2 173//93
f 175//97 168//94 170//95
f 175//97 174//94 168//94
f 175//97 110//2 174//94
f 176//96 93//20 109//20
f 176//96 109//20 110//2
f 176//96 170//95 172//96
f 176//96 172//96 93//20
f 176//96 175//97 170//95
f 176//96 110//2 175//97
f 87//15 79//15 78//15
f 87//15 82//15 79//15
f 87//15 83//15 82//15
f 87//15 85//15 83//15
f 87//15 90//15 88//15
f 87//15 91//15 90//15
f 87//15 95//15 91//15
f 87//15 98//15 95//15
f 87//15 99//15 98//15
f 87//15 102//15 99//15
f 87//15 103//15 102//15
f 87//15 106//15 103//15
f 87//15 107//15 106//15
f 87//15 113//15 107//15
f 87//15 117//15 113//15
f 87//15 118//15 117//15
f 87//15 122//15 118//15
f 87//15 123//15 122//15
f 87//15 127//15 123//15
f 87//15 131//15 127//15
f 87//15 132//15 131//15
f 87//15 136//15 132//15
f 87//15 137//15 136//15
f 87//15 141//15 137//15
f 87//15 142//15 141//15
f 87//15 146//15 142//15
f 87//15 150//15 146//15
f 87//15 151//15 150//15
f 87//15 155//15 151//15
f 87//15 156//15 155//15
f 87//15 160//15 156//15
f 87//15 164//15 160//15
f 87//15 80//15 164//15
f 87//15 78//15 80//15
f 72//4 75//4 70//4
f 74//15 70//15 75//15
f 64//4 67//4 62//4
f 42//15 38//15 43//15
f 19//1 20//1 14//1
f 57//2 60//2 56//2
f 48//4 52//4 51//4
f 49//2 52//2 48//2
f 17//6 19//6 16//6
f 60//8 57//8 58//8
f 17//10 18//10 20//10
f 21//11 25//11 27//11
f 48//10 46//10 47//10
f 44//8 41//8 42//8
f 6//2 5//2 4//2
f 16//8 14//8 15//8
f 27//12 28//12 22//12
f 24//10 22//10 23//10
f 23//13 22//13 28//13
f 35//8 36//8 30//8
f 1//14 3//14 9//14
f 29//10 31//10 34//10
f 7//4 11//4 12//4
f 50//15 47//15 46//15
f 4//10 2//10 3//10
f 29//15 33//15 35//15
f 52//8 49//8 50//8
f 64//10 62//10 63//10
f 56//10 54//10 55//10
f 40//4 44//4 43//4
f 69//14 71//14 74//14
f 5//8 6//8 9//8
f 37//14 39//14 42//14
f 41//2 44//2 40//2
f 21//16 23//16 26//16
f 9//15 3//15 2//15
f 45//14 47//14 50//14
f 76//8 73//8 74//8
f 13//17 15//17 18//17
f 33//4 34//4 36//4
f 53//14 55//14 58//14
f 32//14 30//14 31//14
f 58//15 55//15 54//15
f 61//14 63//14 66//14
f 56//4 60//4 59//4
f 73//2 76//2 72//2
f 40//10 38//10 39//10
f 68//8 65//8 66//8
f 66//15 63//15 62//15
f 31//2 30//2 36//2
f 72//10 70//10 71//10
f 65//2 68//2 64//2
f 27//8 25//8 26//8
f 18//18 15//18 14//18
f 72//4 76//4 75//4
f 74//15 71//15 70//15
f 64//4 68//4 67//4
f 42//15 39//15 38//15
usemtl glass
f 179//2 178//2 177//2
f 180//8 66//8 75//8
f 178//4 75//4 54//4
f 178//10 47//10 177//10
f 177//14 66//14 179//14
f 66//15 54//15 75//15
f 179//2 180//2 178//2
f 180//8 179//8 66//8
f 178//4 180//4 75//4
f 178//10 54//10 47//10
f 177//14 47//14 66//14
f 66//15 47//15 54//15
