# Blender 5.2.1 LTS
# www.blender.org
mtllib pergola_beam_set.mtl
o pergola_beam_set
v -1.690000 2.530000 0.090000
v -1.690000 0.000000 -0.090000
v -1.690000 0.000000 0.090000
v -1.690000 2.530000 -0.090000
v -1.510000 2.530000 0.090000
v -1.510000 0.000000 0.090000
v -1.670000 2.550000 -0.070000
v -1.670000 2.550000 0.070000
v -1.510000 0.000000 -0.090000
v -1.510000 2.530000 -0.090000
v -1.530000 2.550000 0.070000
v -1.530000 2.550000 -0.070000
v 1.510000 2.530000 0.090000
v 1.510000 0.000000 -0.090000
v 1.510000 0.000000 0.090000
v 1.510000 2.530000 -0.090000
v 1.690000 2.530000 0.090000
v 1.690000 0.000000 0.090000
v 1.530000 2.550000 -0.070000
v 1.530000 2.550000 0.070000
v 1.690000 0.000000 -0.090000
v 1.690000 2.530000 -0.090000
v 1.670000 2.550000 0.070000
v 1.670000 2.550000 -0.070000
v -1.500000 2.550000 0.500000
v -1.800000 2.850000 0.600000
v -1.800000 2.850000 0.500000
v -1.500000 2.550000 0.600000
v 1.500000 2.550000 0.500000
v 1.500000 2.550000 0.600000
v 1.800000 2.850000 0.500000
v 1.800000 2.850000 0.600000
v -1.500000 2.550000 -0.600000
v -1.800000 2.850000 -0.500000
v -1.800000 2.850000 -0.600000
v -1.500000 2.550000 -0.500000
v 1.500000 2.550000 -0.600000
v 1.500000 2.550000 -0.500000
v 1.800000 2.850000 -0.600000
v 1.800000 2.850000 -0.500000
v -1.540000 3.010000 1.500000
v -1.540000 2.850000 -1.500000
v -1.540000 2.850000 1.500000
v -1.540000 3.010000 -1.500000
v -1.460000 3.010000 1.500000
v -1.460000 2.850000 1.500000
v -1.460000 2.850000 -1.500000
v -1.460000 3.010000 -1.500000
v -1.165000 3.010000 1.500000
v -1.165000 2.850000 -1.500000
v -1.165000 2.850000 1.500000
v -1.165000 3.010000 -1.500000
v -1.085000 3.010000 1.500000
v -1.085000 2.850000 1.500000
v -1.085000 2.850000 -1.500000
v -1.085000 3.010000 -1.500000
v -0.790000 3.010000 1.500000
v -0.790000 2.850000 -1.500000
v -0.790000 2.850000 1.500000
v -0.790000 3.010000 -1.500000
v -0.710000 3.010000 1.500000
v -0.710000 2.850000 1.500000
v -0.710000 2.850000 -1.500000
v -0.710000 3.010000 -1.500000
v -0.415000 3.010000 1.500000
v -0.415000 2.850000 -1.500000
v -0.415000 2.850000 1.500000
v -0.415000 3.010000 -1.500000
v -0.335000 3.010000 1.500000
v -0.335000 2.850000 1.500000
v -0.335000 2.850000 -1.500000
v -0.335000 3.010000 -1.500000
v -0.040000 3.010000 1.500000
v -0.040000 2.850000 -1.500000
v -0.040000 2.850000 1.500000
v -0.040000 3.010000 -1.500000
v 0.040000 3.010000 1.500000
v 0.040000 2.850000 1.500000
v 0.040000 2.850000 -1.500000
v 0.040000 3.010000 -1.500000
v 0.335000 3.010000 1.500000
v 0.335000 2.850000 -1.500000
v 0.335000 2.850000 1.500000
v 0.335000 3.010000 -1.500000
v 0.415000 3.010000 1.500000
v 0.415000 2.850000 1.500000
v 0.415000 2.850000 -1.500000
v 0.415000 3.010000 -1.500000
v 0.710000 3.010000 1.500000
v 0.710000 2.850000 -1.500000
v 0.710000 2.850000 1.500000
v 0.710000 3.010000 -1.500000
v 0.790000 3.010000 1.500000
v 0.790000 2.850000 1.500000
v 0.790000 2.850000 -1.500000
v 0.790000 3.010000 -1.500000
v 1.085000 3.010000 1.500000
v 1.085000 2.850000 -1.500000
v 1.085000 2.850000 1.500000
v 1.085000 3.010000 -1.500000
v 1.165000 3.010000 1.500000
v 1.165000 2.850000 1.500000
v 1.165000 2.850000 -1.500000
v 1.165000 3.010000 -1.500000
v 1.460000 3.010000 1.500000
v 1.460000 2.850000 -1.500000
v 1.460000 2.850000 1.500000
v 1.460000 3.010000 -1.500000
v 1.540000 3.010000 1.500000
v 1.540000 2.850000 1.500000
v 1.540000 2.850000 -1.500000
v 1.540000 3.010000 -1.500000
vn 1.0000 -0.0000 -0.0000
vn -0.0000 -0.0000 -1.0000
vn -0.7071 0.7071 -0.0000
vn -0.0000 -0.0000 1.0000
vn -0.0000 1.0000 -0.0000
vn -0.0000 0.7071 0.7071
vn -0.0000 0.7071 -0.7071
vn 0.7071 0.7071 -0.0000
vn -0.0000 -1.0000 -0.0000
vn -0.7071 -0.7071 -0.0000
vn -1.0000 -0.0000 -0.0000
vn 0.7071 -0.7071 -0.0000
s 1
usemtl wood
f 96//1 94//1 95//1
f 68//2 71//2 66//2
f 7//3 1//3 8//3
f 7//3 4//3 1//3
f 64//1 62//1 63//1
f 97//4 102//4 101//4
f 77//5 76//5 73//5
f 11//6 8//6 1//6
f 11//6 1//6 5//6
f 52//2 55//2 50//2
f 12//7 4//7 7//7
f 12//7 10//7 4//7
f 12//8 11//8 5//8
f 12//8 5//8 10//8
f 62//9 58//9 63//9
f 61//5 60//5 57//5
f 19//3 13//3 20//3
f 19//3 16//3 13//3
f 38//9 33//9 37//9
f 36//10 35//10 33//10
f 30//9 25//9 29//9
f 23//6 20//6 13//6
f 23//6 13//6 17//6
f 84//2 87//2 82//2
f 24//7 16//7 19//7
f 24//7 22//7 16//7
f 24//8 23//8 17//8
f 24//8 17//8 22//8
f 45//5 44//5 41//5
f 1//4 6//4 5//4
f 108//11 107//11 105//11
f 60//11 59//11 57//11
f 31//2 25//2 27//2
f 31//2 29//2 25//2
f 32//4 26//4 28//4
f 32//4 28//4 30//4
f 4//11 3//11 1//11
f 6//9 2//9 9//9
f 34//5 39//5 35//5
f 13//4 18//4 17//4
f 39//2 33//2 35//2
f 39//2 37//2 33//2
f 40//4 34//4 36//4
f 40//4 36//4 38//4
f 57//4 62//4 61//4
f 54//9 50//9 55//9
f 44//2 47//2 42//2
f 11//5 7//5 8//5
f 70//9 66//9 71//9
f 10//1 6//1 9//1
f 56//1 54//1 55//1
f 23//5 19//5 20//5
f 84//11 83//11 81//11
f 22//1 18//1 21//1
f 16//11 15//11 13//11
f 89//4 94//4 93//4
f 4//2 9//2 2//2
f 32//12 29//12 31//12
f 112//1 110//1 111//1
f 100//2 103//2 98//2
f 16//2 21//2 14//2
f 18//9 14//9 21//9
f 44//11 43//11 41//11
f 105//4 110//4 109//4
f 68//11 67//11 65//11
f 40//12 37//12 39//12
f 65//4 70//4 69//4
f 72//1 70//1 71//1
f 108//2 111//2 106//2
f 53//5 52//5 49//5
f 46//9 42//9 47//9
f 69//5 68//5 65//5
f 73//4 78//4 77//4
f 41//4 46//4 45//4
f 78//9 74//9 79//9
f 76//2 79//2 74//2
f 76//11 75//11 73//11
f 28//10 27//10 25//10
f 49//4 54//4 53//4
f 88//1 86//1 87//1
f 86//9 82//9 87//9
f 52//11 51//11 49//11
f 92//11 91//11 89//11
f 85//5 84//5 81//5
f 81//4 86//4 85//4
f 110//9 106//9 111//9
f 92//2 95//2 90//2
f 80//1 78//1 79//1
f 48//1 46//1 47//1
f 104//1 102//1 103//1
f 100//11 99//11 97//11
f 94//9 90//9 95//9
f 60//2 63//2 58//2
f 102//9 98//9 103//9
f 101//5 100//5 97//5
f 93//5 92//5 89//5
f 26//5 31//5 27//5
f 109//5 108//5 105//5
f 96//1 93//1 94//1
f 68//2 72//2 71//2
f 64//1 61//1 62//1
f 97//4 99//4 102//4
f 77//5 80//5 76//5
f 52//2 56//2 55//2
f 62//9 59//9 58//9
f 61//5 64//5 60//5
f 38//9 36//9 33//9
f 36//10 34//10 35//10
f 30//9 28//9 25//9
f 84//2 88//2 87//2
f 45//5 48//5 44//5
f 1//4 3//4 6//4
f 108//11 106//11 107//11
f 60//11 58//11 59//11
f 4//11 2//11 3//11
f 6//9 3//9 2//9
f 34//5 40//5 39//5
f 13//4 15//4 18//4
f 57//4 59//4 62//4
f 54//9 51//9 50//9
f 44//2 48//2 47//2
f 11//5 12//5 7//5
f 70//9 67//9 66//9
f 10//1 5//1 6//1
f 56//1 53//1 54//1
f 23//5 24//5 19//5
f 84//11 82//11 83//11
f 22//1 17//1 18//1
f 16//11 14//11 15//11
f 89//4 91//4 94//4
f 4//2 10//2 9//2
f 32//12 30//12 29//12
f 112//1 109//1 110//1
f 100//2 104//2 103//2
f 16//2 22//2 21//2
f 18//9 15//9 14//9
f 44//11 42//11 43//11
f 105//4 107//4 110//4
f 68//11 66//11 67//11
f 40//12 38//12 37//12
f 65//4 67//4 70//4
f 72//1 69//1 70//1
f 108//2 112//2 111//2
f 53//5 56//5 52//5
f 46//9 43//9 42//9
f 69//5 72//5 68//5
f 73//4 75//4 78//4
f 41//4 43//4 46//4
f 78//9 75//9 74//9
f 76//2 80//2 79//2
f 76//11 74//11 75//11
f 28//10 26//10 27//10
f 49//4 51//4 54//4
f 88//1 85//1 86//1
f 86//9 83//9 82//9
f 52//11 50//11 51//11
f 92//11 90//11 91//11
f 85//5 88//5 84//5
f 81//4 83//4 86//4
f 110//9 107//9 106//9
f 92//2 96//2 95//2
f 80//1 77//1 78//1
f 48//1 45//1 46//1
f 104//1 101//1 102//1
f 100//11 98//11 99//11
f 94//9 91//9 90//9
f 60//2 64//2 63//2
f 102//9 99//9 98//9
f 101//5 104//5 100//5
f 93//5 96//5 92//5
f 26//5 32//5 31//5
f 109//5 112//5 108//5
