# Blender 5.2.1 LTS
# www.blender.org
mtllib plain_door.mtl
o plain_door
v -0.720000 0.050000 0.000000
v -0.720000 0.000000 0.000000
v 0.720000 0.000000 0.000000
v 0.720000 0.050000 0.000000
v -0.720000 0.035000 -0.180000
v 0.720000 0.035000 -0.180000
v -0.720000 0.020000 -0.180000
v 0.720000 0.020000 -0.180000
v -0.720000 0.020000 -0.150000
v 0.720000 0.020000 -0.150000
v -0.720000 0.000000 -0.150000
v 0.720000 0.000000 -0.150000
v -0.600000 2.450000 0.000000
v -0.600000 0.050000 -0.060000
v -0.600000 0.050000 0.000000
v -0.600000 2.450000 -0.060000
v 0.500000 0.150000 0.000000
v 0.600000 0.050000 0.000000
v -0.500000 0.150000 0.000000
v -0.500000 2.350000 0.000000
v 0.600000 2.450000 0.000000
v 0.500000 2.350000 0.000000
v 0.600000 2.450000 -0.060000
v 0.500000 0.150000 -0.060000
v 0.600000 0.050000 -0.060000
v -0.500000 0.150000 -0.060000
v -0.500000 2.350000 -0.060000
v 0.500000 2.350000 -0.060000
v -0.600000 2.480000 0.000000
v -0.600000 2.450000 -0.080000
v -0.600000 2.480000 -0.080000
v 0.600000 2.480000 0.000000
v 0.600000 2.450000 -0.080000
v 0.600000 2.480000 -0.080000
v -0.470000 2.350000 -0.020000
v -0.470000 0.150000 -0.080000
v -0.470000 0.150000 -0.020000
v -0.470000 2.350000 -0.080000
v 0.470000 2.350000 -0.020000
v 0.470000 0.150000 -0.020000
v 0.470000 2.350000 -0.080000
v -0.030000 0.230000 -0.080000
v -0.390000 0.230000 -0.080000
v 0.470000 0.150000 -0.080000
v 0.030000 0.230000 -0.080000
v 0.390000 0.230000 -0.080000
v -0.390000 1.537200 -0.080000
v -0.030000 1.537200 -0.080000
v -0.390000 1.617200 -0.080000
v 0.030000 1.537200 -0.080000
v -0.030000 1.617200 -0.080000
v 0.030000 1.617200 -0.080000
v -0.390000 2.270000 -0.080000
v 0.390000 1.537200 -0.080000
v 0.390000 1.617200 -0.080000
v -0.030000 2.270000 -0.080000
v 0.030000 2.270000 -0.080000
v 0.390000 2.270000 -0.080000
v -0.390000 1.537200 -0.060000
v -0.030000 1.537200 -0.060000
v -0.390000 0.230000 -0.060000
v -0.030000 0.230000 -0.060000
v -0.390000 2.270000 -0.060000
v -0.030000 2.270000 -0.060000
v -0.390000 1.617200 -0.060000
v -0.030000 1.617200 -0.060000
v 0.030000 1.537200 -0.060000
v 0.390000 1.537200 -0.060000
v 0.030000 0.230000 -0.060000
v 0.390000 0.230000 -0.060000
v 0.030000 2.270000 -0.060000
v 0.390000 2.270000 -0.060000
v 0.390000 1.617200 -0.060000
v 0.030000 1.617200 -0.060000
v 0.335000 1.220000 -0.080000
v 0.335000 1.100000 -0.095000
v 0.335000 1.100000 -0.080000
v 0.335000 1.220000 -0.095000
v 0.365000 1.220000 -0.080000
v 0.365000 1.100000 -0.080000
v 0.365000 1.100000 -0.095000
v 0.365000 1.220000 -0.095000
v -0.500000 0.150000 -0.020000
v -0.500000 2.350000 -0.020000
v 0.500000 0.150000 -0.020000
v 0.500000 2.350000 -0.020000
vn -1.0000 -0.0000 -0.0000
vn -0.0000 1.0000 -0.0000
vn -0.0000 -0.0000 1.0000
vn -0.0000 -0.0000 -1.0000
vn 1.0000 -0.0000 -0.0000
vn -0.0000 0.9965 -0.0830
vn -0.0000 -1.0000 -0.0000
s 1
usemtl trim
f 9//1 5//1 7//1
f 1//1 5//1 9//1
f 2//1 9//1 11//1
f 2//1 1//1 9//1
f 10//5 8//5 6//5
f 4//5 10//5 6//5
f 3//5 12//5 10//5
f 3//5 10//5 4//5
f 23//5 18//5 25//5
f 17//3 15//3 18//3
f 17//3 19//3 15//3
f 13//3 19//3 20//3
f 13//3 15//3 19//3
f 21//3 20//3 22//3
f 21//3 13//3 20//3
f 21//3 17//3 18//3
f 21//3 22//3 17//3
f 24//4 25//4 14//4
f 24//4 14//4 26//4
f 16//4 27//4 26//4
f 16//4 26//4 14//4
f 23//4 28//4 27//4
f 23//4 27//4 16//4
f 23//4 25//4 24//4
f 23//4 24//4 28//4
f 31//4 33//4 30//4
f 4//3 2//3 3//3
f 27//5 19//5 26//5
f 6//6 1//6 4//6
f 34//5 21//5 33//5
f 10//7 7//7 8//7
f 8//4 5//4 6//4
f 32//2 31//2 29//2
f 21//2 16//2 13//2
f 16//1 15//1 13//1
f 3//7 11//7 12//7
f 12//4 9//4 10//4
f 28//1 17//1 22//1
f 22//7 27//7 28//7
f 29//3 21//3 32//3
f 31//1 13//1 29//1
f 18//7 14//7 25//7
f 21//7 30//7 33//7
f 17//2 26//2 19//2
f 23//5 21//5 18//5
f 31//4 34//4 33//4
f 4//3 1//3 2//3
f 27//5 20//5 19//5
f 6//6 5//6 1//6
f 34//5 32//5 21//5
f 10//7 9//7 7//7
f 8//4 7//4 5//4
f 32//2 34//2 31//2
f 21//2 23//2 16//2
f 16//1 14//1 15//1
f 3//7 2//7 11//7
f 12//4 11//4 9//4
f 28//1 24//1 17//1
f 22//7 20//7 27//7
f 29//3 13//3 21//3
f 31//1 30//1 13//1
f 18//7 15//7 14//7
f 21//7 13//7 30//7
f 17//2 24//2 26//2
usemtl wood
f 70//2 45//2 69//2
f 62//2 43//2 61//2
f 35//3 40//3 39//3
f 71//4 73//4 74//4
f 41//5 40//5 44//5
f 66//2 49//2 65//2
f 51//4 50//4 48//4
f 64//7 53//7 56//7
f 48//4 49//4 51//4
f 42//4 36//4 43//4
f 44//4 36//4 42//4
f 44//4 42//4 45//4
f 46//4 44//4 45//4
f 47//4 43//4 36//4
f 72//7 57//7 58//7
f 38//4 47//4 36//4
f 38//4 49//4 47//4
f 53//4 49//4 38//4
f 54//4 44//4 46//4
f 52//4 56//4 57//4
f 56//4 53//4 38//4
f 57//4 56//4 38//4
f 41//4 58//4 57//4
f 41//4 55//4 58//4
f 41//4 57//4 38//4
f 41//4 44//4 54//4
f 41//4 54//4 55//4
f 60//7 47//7 48//7
f 48//1 62//1 60//1
f 47//5 61//5 43//5
f 38//1 37//1 35//1
f 53//5 65//5 49//5
f 68//7 50//7 54//7
f 54//1 70//1 68//1
f 50//5 69//5 45//5
f 56//1 66//1 64//1
f 45//4 48//4 50//4
f 58//1 73//1 72//1
f 59//4 62//4 61//4
f 39//2 38//2 35//2
f 67//4 70//4 69//4
f 63//4 66//4 65//4
f 73//2 52//2 74//2
f 40//7 36//7 44//7
f 57//5 74//5 52//5
f 52//4 54//4 50//4
f 70//2 46//2 45//2
f 62//2 42//2 43//2
f 35//3 37//3 40//3
f 71//4 72//4 73//4
f 41//5 39//5 40//5
f 66//2 51//2 49//2
f 51//4 52//4 50//4
f 64//7 63//7 53//7
f 48//4 47//4 49//4
f 72//7 71//7 57//7
f 52//4 51//4 56//4
f 60//7 59//7 47//7
f 48//1 42//1 62//1
f 47//5 59//5 61//5
f 38//1 36//1 37//1
f 53//5 63//5 65//5
f 68//7 67//7 50//7
f 54//1 46//1 70//1
f 50//5 67//5 69//5
f 56//1 51//1 66//1
f 45//4 42//4 48//4
f 58//1 55//1 73//1
f 59//4 60//4 62//4
f 39//2 41//2 38//2
f 67//4 68//4 70//4
f 63//4 64//4 66//4
f 73//2 55//2 52//2
f 40//7 37//7 36//7
f 57//5 71//5 74//5
f 52//4 55//4 54//4
usemtl metal
f 78//4 81//4 76//4
f 78//1 77//1 75//1
f 82//5 80//5 81//5
f 79//2 78//2 75//2
f 75//3 80//3 79//3
f 80//7 76//7 81//7
f 78//4 82//4 81//4
f 78//1 76//1 77//1
f 82//5 79//5 80//5
f 79//2 82//2 78//2
f 75//3 77//3 80//3
f 80//7 77//7 76//7
usemtl dark
f 84//1 19//1 20//1
f 86//5 17//5 85//5
f 20//3 17//3 22//3
f 17//7 83//7 85//7
f 84//4 85//4 83//4
f 22//2 84//2 20//2
f 84//1 83//1 19//1
f 86//5 22//5 17//5
f 20//3 19//3 17//3
f 17//7 19//7 83//7
f 84//4 86//4 85//4
f 22//2 86//2 84//2
