# Blender 5.2.1 LTS
# www.blender.org
mtllib pool_coping_run.mtl
o pool_coping_run
v -0.500000 0.000000 -0.370000
v 0.500000 0.000000 0.000000
v -0.500000 0.000000 0.000000
v 0.500000 0.000000 -0.370000
v -0.500000 0.020000 -0.370000
v 0.500000 0.020000 -0.370000
v -0.500000 0.020000 -0.390000
v 0.500000 0.020000 -0.390000
v -0.500000 0.000000 -0.390000
v 0.500000 0.000000 -0.390000
v -0.500000 0.004567 -0.412961
v 0.500000 0.004567 -0.412961
v -0.500000 0.017574 -0.432426
v 0.500000 0.017574 -0.432426
v -0.500000 0.037039 -0.445433
v 0.500000 0.037039 -0.445433
v -0.500000 0.060000 -0.450000
v 0.500000 0.060000 -0.450000
v -0.500000 0.082961 -0.445433
v 0.500000 0.082961 -0.445433
v -0.500000 0.102426 -0.432426
v 0.500000 0.102426 -0.432426
v -0.500000 0.115433 -0.412961
v 0.500000 0.115433 -0.412961
v -0.500000 0.120000 -0.390000
v 0.500000 0.120000 -0.390000
v -0.500000 0.120000 0.000000
v 0.500000 0.120000 0.000000
vn -0.0000 0.9952 -0.0980
vn -0.0000 0.9239 -0.3827
vn -0.0000 -0.0000 -1.0000
vn -0.0000 -0.3827 -0.9239
vn -0.0000 -0.0000 1.0000
vn -0.0000 -1.0000 -0.0000
vn -0.0000 -0.7071 -0.7071
vn -0.0000 -0.9239 -0.3827
vn -0.0000 1.0000 -0.0000
vn -0.0000 0.3827 -0.9239
vn -0.0000 0.7071 -0.7071
vn -0.0000 -0.9808 -0.1951
vn -1.0000 -0.0000 -0.0000
vn 1.0000 -0.0000 -0.0000
s 1
usemtl paint
f 26//1 23//2 25//1
f 18//3 15//4 17//3
f 10//5 7//5 9//5
f 4//6 3//6 1//6
f 14//7 11//8 13//7
f 6//3 1//3 5//3
f 28//9 25//1 27//9
f 8//6 5//6 7//6
f 16//4 13//7 15//4
f 20//10 17//3 19//10
f 24//2 21//11 23//2
f 22//11 19//10 21//11
f 12//8 9//12 11//8
f 7//13 11//13 9//13
f 7//13 13//13 11//13
f 7//13 15//13 13//13
f 7//13 17//13 15//13
f 19//13 17//13 7//13
f 21//13 19//13 7//13
f 23//13 21//13 7//13
f 25//13 7//13 5//13
f 25//13 23//13 7//13
f 3//13 5//13 1//13
f 27//13 5//13 3//13
f 27//13 25//13 5//13
f 8//14 10//14 12//14
f 8//14 12//14 14//14
f 8//14 14//14 16//14
f 8//14 16//14 18//14
f 20//14 8//14 18//14
f 22//14 8//14 20//14
f 24//14 8//14 22//14
f 26//14 6//14 8//14
f 26//14 8//14 24//14
f 2//14 4//14 6//14
f 28//14 2//14 6//14
f 28//14 6//14 26//14
f 2//5 27//5 3//5
f 26//1 24//2 23//2
f 18//3 16//4 15//4
f 10//5 8//5 7//5
f 4//6 2//6 3//6
f 14//7 12//8 11//8
f 6//3 4//3 1//3
f 28//9 26//1 25//1
f 8//6 6//6 5//6
f 16//4 14//7 13//7
f 20//10 18//3 17//3
f 24//2 22//11 21//11
f 22//11 20//10 19//10
f 12//8 10//12 9//12
f 2//5 28//5 27//5
