# Blender 5.2.1 LTS
# www.blender.org
mtllib roof_edge_run.mtl
o roof_edge_run
v -0.500000 0.000000 -0.030000
v 0.500000 0.000000 0.000000
v -0.500000 0.000000 0.000000
v 0.500000 0.000000 -0.030000
v -0.500000 0.100000 -0.030000
v 0.500000 0.100000 -0.030000
v -0.500000 0.130000 -0.012000
v 0.500000 0.129615 -0.009615
v -0.500000 0.100000 0.000000
v -0.481448 0.155000 -0.215000
v -0.485475 0.130000 -0.215034
v -0.486960 0.131039 0.000000
v -0.467964 0.181378 -0.215000
v -0.462717 0.189661 0.000000
v -0.441325 0.204788 -0.215001
v -0.409695 0.216016 0.000000
v -0.414760 0.213709 -0.215000
v -0.400000 0.215000 -0.215000
v -0.385240 0.213709 -0.215000
v -0.370928 0.209874 -0.215000
v -0.345542 0.198505 0.000000
v -0.357500 0.203612 -0.215000
v -0.345363 0.195114 -0.215000
v -0.334886 0.184637 -0.215000
v -0.326388 0.172500 -0.215000
v -0.312322 0.130807 0.000000
v -0.320126 0.159072 -0.215000
v -0.316291 0.144760 -0.215000
v -0.315000 0.130000 -0.215000
v -0.319571 0.150190 -0.237355
v -0.317586 0.130000 -0.237083
v -0.337395 0.130037 -0.274992
v -0.331602 0.179038 -0.230432
v -0.341282 0.174582 -0.260217
v -0.361585 0.152247 -0.288303
v -0.385022 0.130263 -0.299945
v -0.356966 0.173099 -0.275712
v -0.355529 0.200432 -0.237746
v -0.415940 0.130399 -0.299723
v -0.400000 0.168709 -0.292187
v -0.366575 0.207737 -0.227364
v -0.443956 0.130399 -0.289162
v -0.396738 0.190975 -0.275793
v -0.379827 0.200693 -0.258856
v -0.447286 0.161336 -0.280555
v -0.474699 0.130263 -0.258128
v -0.387655 0.212898 -0.232160
v -0.430839 0.189432 -0.268416
v -0.474433 0.161901 -0.245150
v -0.484011 0.144838 -0.215000
v -0.408713 0.207473 -0.250409
v -0.478489 0.130004 -0.178400
v -0.452393 0.193439 -0.240915
v -0.478207 0.161395 -0.197790
v -0.468508 0.179172 -0.229648
v -0.469919 0.152247 -0.170725
v -0.422903 0.211214 -0.232344
v -0.450762 0.152856 -0.149749
v -0.443955 0.130399 -0.140838
v -0.452422 0.179836 -0.167650
v -0.453529 0.193439 -0.191522
v -0.415940 0.130399 -0.130277
v -0.385091 0.130002 -0.130448
v -0.413403 0.168708 -0.138985
v -0.420223 0.213079 -0.207746
v -0.376750 0.158880 -0.136882
v -0.432091 0.207235 -0.195458
v -0.350437 0.130267 -0.144021
v -0.421550 0.191375 -0.159103
v -0.338685 0.163296 -0.163551
v -0.385683 0.195449 -0.160278
v -0.319322 0.130002 -0.185636
v -0.406846 0.207922 -0.179928
v -0.319571 0.150190 -0.192645
v -0.354859 0.190665 -0.174477
v -0.331602 0.179038 -0.199568
v -0.382487 0.212691 -0.200658
v -0.356411 0.201333 -0.194468
v -0.281448 0.155000 -0.215000
v -0.286681 0.130004 -0.215208
v -0.285625 0.130085 0.000000
v -0.272124 0.177863 0.000000
v -0.267964 0.181378 -0.215000
v -0.224484 0.213026 0.000000
v -0.214760 0.213709 -0.215000
v -0.200000 0.215000 -0.215000
v -0.185240 0.213709 -0.215000
v -0.172433 0.211271 0.000000
v -0.170928 0.209874 -0.215000
v -0.157500 0.203612 -0.215000
v -0.145363 0.195114 -0.215000
v -0.130355 0.181404 0.000000
v -0.134886 0.184637 -0.215000
v -0.126388 0.172500 -0.215000
v -0.120126 0.159072 -0.215000
v -0.116291 0.144760 -0.215000
v -0.114016 0.130271 0.000000
v -0.115000 0.130000 -0.215000
v -0.119354 0.152089 -0.233601
v -0.121511 0.130005 -0.251600
v -0.131092 0.148915 -0.262721
v -0.132169 0.176987 -0.239827
v -0.156057 0.130047 -0.289229
v -0.152246 0.166515 -0.276628
v -0.184060 0.130399 -0.299723
v -0.147781 0.193359 -0.241338
v -0.214978 0.130263 -0.299945
v -0.182841 0.166283 -0.290666
v -0.172415 0.208418 -0.238254
v -0.176143 0.190975 -0.271011
v -0.209957 0.174585 -0.288261
v -0.243956 0.130399 -0.289162
v -0.241579 0.166515 -0.280952
v -0.266669 0.130399 -0.269656
v -0.269881 0.160899 -0.254764
v -0.280845 0.152247 -0.232691
v -0.214819 0.203776 -0.257393
v -0.241575 0.190975 -0.259473
v -0.280845 0.152247 -0.197309
v -0.280678 0.130002 -0.185635
v -0.200532 0.214469 -0.231373
v -0.270089 0.179029 -0.223822
v -0.268430 0.150109 -0.167085
v -0.243780 0.130010 -0.139172
v -0.246735 0.202759 -0.215908
v -0.262395 0.180116 -0.181796
v -0.226615 0.210401 -0.227411
v -0.244275 0.152247 -0.145081
v -0.247936 0.200685 -0.206385
v -0.211027 0.152247 -0.132980
v -0.245748 0.191778 -0.176613
v -0.185022 0.130263 -0.130055
v -0.227289 0.176098 -0.147465
v -0.154314 0.159794 -0.148083
v -0.138705 0.130267 -0.153865
v -0.186496 0.173414 -0.141425
v -0.220391 0.210988 -0.194527
v -0.202849 0.200545 -0.165558
v -0.119322 0.130002 -0.185635
v -0.119571 0.150190 -0.192645
v -0.130702 0.172611 -0.184401
v -0.169527 0.196227 -0.168682
v -0.192162 0.213023 -0.194733
v -0.147781 0.193359 -0.188662
v -0.166574 0.207737 -0.202636
v -0.081448 0.155000 -0.215000
v -0.086606 0.130003 -0.214791
v -0.085000 0.130000 0.000000
v -0.079340 0.164612 0.000000
v -0.067964 0.181378 -0.215000
v -0.041592 0.204838 -0.214885
v -0.032098 0.211414 0.000000
v -0.014760 0.213709 -0.215000
v 0.000000 0.215000 -0.215000
v 0.014760 0.213709 -0.215000
v 0.027567 0.211271 0.000000
v 0.029072 0.209874 -0.215000
v 0.042500 0.203612 -0.215000
v 0.054637 0.195114 -0.215000
v 0.064509 0.186599 0.000000
v 0.065114 0.184637 -0.215000
v 0.073612 0.172500 -0.215000
v 0.087499 0.131556 0.000000
v 0.079874 0.159072 -0.215000
v 0.083709 0.144760 -0.215000
v 0.085000 0.130000 -0.215000
v 0.080646 0.152089 -0.233601
v 0.078489 0.130001 -0.251600
v 0.068908 0.148915 -0.262721
v 0.067831 0.176987 -0.239827
v 0.043960 0.130527 -0.289138
v 0.047754 0.166515 -0.276628
v 0.015940 0.130399 -0.299723
v 0.052219 0.193359 -0.241338
v -0.014909 0.130002 -0.299552
v 0.015700 0.174585 -0.287248
v -0.011027 0.152247 -0.297020
v 0.027585 0.208418 -0.238254
v 0.033046 0.190532 -0.265576
v -0.038425 0.157567 -0.286883
v -0.055187 0.130002 -0.280770
v -0.014648 0.179172 -0.283508
v 0.006289 0.214178 -0.228487
v -0.061169 0.152247 -0.270743
v -0.080668 0.130399 -0.245410
v -0.004122 0.199098 -0.266109
v -0.045336 0.186353 -0.262160
v -0.074151 0.170722 -0.236104
v -0.080829 0.152856 -0.232357
v -0.077478 0.154249 -0.184299
v -0.013277 0.208114 -0.247760
v -0.066669 0.130399 -0.160344
v -0.057709 0.192571 -0.226208
v -0.038295 0.130171 -0.137225
v -0.027090 0.210487 -0.228553
v -0.058108 0.185604 -0.182280
v -0.038594 0.168709 -0.148154
v -0.014430 0.150087 -0.133163
v 0.014978 0.130263 -0.130055
v -0.039644 0.201262 -0.187351
v 0.013403 0.168709 -0.138985
v -0.020315 0.212230 -0.203078
v -0.022640 0.190665 -0.158722
v 0.049563 0.130267 -0.144021
v 0.065818 0.159794 -0.167744
v 0.046933 0.166283 -0.153218
v 0.015472 0.192296 -0.157256
v 0.080678 0.130002 -0.185635
v 0.080429 0.150190 -0.192645
v -0.000935 0.207371 -0.177938
v 0.048486 0.196180 -0.186814
v 0.007607 0.214048 -0.201824
v 0.068398 0.179038 -0.199568
v 0.025206 0.209119 -0.192657
v 0.118552 0.155000 -0.215000
v 0.115000 0.130000 -0.215000
v 0.115000 0.130000 0.000000
v 0.120660 0.164612 0.000000
v 0.130452 0.181118 -0.216159
v 0.158302 0.204718 -0.214864
v 0.155463 0.203357 0.000000
v 0.185240 0.213709 -0.215000
v 0.212910 0.216556 0.000000
v 0.200000 0.215000 -0.215000
v 0.214760 0.213709 -0.215000
v 0.229072 0.209874 -0.215000
v 0.242500 0.203612 -0.215000
v 0.254637 0.195114 -0.215000
v 0.269645 0.181404 0.000000
v 0.265114 0.184637 -0.215000
v 0.273612 0.172500 -0.215000
v 0.279874 0.159072 -0.215000
v 0.283709 0.144760 -0.215000
v 0.286005 0.130137 0.000000
v 0.285000 0.130000 -0.215000
v 0.280429 0.150190 -0.237355
v 0.282414 0.130000 -0.237083
v 0.266098 0.130043 -0.270463
v 0.269298 0.172611 -0.245599
v 0.236678 0.130320 -0.293410
v 0.242799 0.173059 -0.276124
v 0.214718 0.159481 -0.294679
v 0.249018 0.196697 -0.239799
v 0.185022 0.130263 -0.299945
v 0.190245 0.166283 -0.291971
v 0.217489 0.212822 -0.228352
v 0.156045 0.130399 -0.289162
v 0.216301 0.191816 -0.272642
v 0.158421 0.166515 -0.280952
v 0.212948 0.207109 -0.251233
v 0.133331 0.130399 -0.269656
v 0.176143 0.190975 -0.271011
v 0.126125 0.159814 -0.249062
v 0.113498 0.130328 -0.222008
v 0.118946 0.130263 -0.185499
v 0.152611 0.196004 -0.243499
v 0.178489 0.208227 -0.242823
v 0.124074 0.169277 -0.207688
v 0.133564 0.159814 -0.168054
v 0.156220 0.130010 -0.139172
v 0.161585 0.152247 -0.141697
v 0.143730 0.192567 -0.195014
v 0.196142 0.152432 -0.131864
v 0.166934 0.179836 -0.152576
v 0.224208 0.130171 -0.131756
v 0.180210 0.213266 -0.221755
v 0.176293 0.199981 -0.171060
v 0.173691 0.207473 -0.189750
v 0.207899 0.180159 -0.145673
v 0.265770 0.130002 -0.159813
v 0.237639 0.161901 -0.144059
v 0.265518 0.152247 -0.164440
v 0.283325 0.130653 -0.191635
v 0.205663 0.200096 -0.166142
v 0.239943 0.185883 -0.162929
v 0.193052 0.213211 -0.195315
v 0.270363 0.173220 -0.189375
v 0.237206 0.200685 -0.183571
v 0.219743 0.212124 -0.201025
v 0.251008 0.197670 -0.200119
v 0.318552 0.155000 -0.215000
v 0.314525 0.130000 -0.214966
v 0.312933 0.130533 0.000000
v 0.330452 0.181118 -0.213841
v 0.333059 0.183700 0.000000
v 0.358675 0.204788 -0.214999
v 0.375516 0.213026 0.000000
v 0.385240 0.213709 -0.215000
v 0.400000 0.215000 -0.215000
v 0.414760 0.213709 -0.215000
v 0.427567 0.211271 0.000000
v 0.429072 0.209874 -0.215000
v 0.442500 0.203612 -0.215000
v 0.454637 0.195114 -0.215000
v 0.464509 0.186599 0.000000
v 0.465114 0.184637 -0.215000
v 0.473612 0.172500 -0.215000
v 0.487499 0.131556 0.000000
v 0.479874 0.159072 -0.215000
v 0.483709 0.144760 -0.215000
v 0.485000 0.130000 -0.215000
v 0.480646 0.152089 -0.233601
v 0.477773 0.130195 -0.253292
v 0.466841 0.176973 -0.243847
v 0.449581 0.162590 -0.277798
v 0.443943 0.130047 -0.289229
v 0.415940 0.130399 -0.299723
v 0.447036 0.200055 -0.229490
v 0.385022 0.130263 -0.299945
v 0.415700 0.174585 -0.287248
v 0.434784 0.196004 -0.257988
v 0.390245 0.166283 -0.291971
v 0.418601 0.212610 -0.227716
v 0.353627 0.159814 -0.281838
v 0.338705 0.130267 -0.276135
v 0.318946 0.130263 -0.244501
v 0.412737 0.200693 -0.261562
v 0.379443 0.187147 -0.276063
v 0.331007 0.166283 -0.250492
v 0.393923 0.213078 -0.236110
v 0.315989 0.144839 -0.215000
v 0.352254 0.190665 -0.252419
v 0.383630 0.201056 -0.260313
v 0.324074 0.169277 -0.222312
v 0.321140 0.152247 -0.189898
v 0.333256 0.130079 -0.158995
v 0.340817 0.191375 -0.224285
v 0.367533 0.207944 -0.230824
v 0.340871 0.168709 -0.165385
v 0.361585 0.152247 -0.141697
v 0.385091 0.130002 -0.130448
v 0.400000 0.149989 -0.130793
v 0.353756 0.195570 -0.183039
v 0.445671 0.130120 -0.139888
v 0.390278 0.179836 -0.145031
v 0.380883 0.199504 -0.167040
v 0.444275 0.152247 -0.145081
v 0.384929 0.212519 -0.197039
v 0.432515 0.175876 -0.149582
v 0.469919 0.152247 -0.170725
v 0.480678 0.130002 -0.185635
v 0.480646 0.152089 -0.196399
v 0.455258 0.179172 -0.171935
v 0.416391 0.200840 -0.169434
v 0.464881 0.184285 -0.198192
v 0.417118 0.212352 -0.197751
v 0.440508 0.201536 -0.190136
vn 0.8673 0.4978 -0.0046
vn 0.7898 0.6131 0.0169
vn 0.9406 0.3396 0.0041
vn 0.6402 0.7682 0.0010
vn 0.7704 0.6374 0.0123
vn 0.7664 0.6424 -0.0037
vn -1.0000 -0.0000 -0.0000
vn -0.9446 0.3283 -0.0014
vn -0.8241 0.5662 0.0165
vn -0.8074 0.5900 -0.0060
vn 0.7651 0.6438 -0.0064
vn 0.8067 0.5908 0.0121
vn 0.6388 0.7694 0.0045
vn 0.4971 0.8677 -0.0070
vn 0.6351 0.7721 0.0226
vn 0.6432 0.7656 -0.0115
vn -0.2009 0.9796 -0.0060
vn -0.2815 0.9595 0.0123
vn 0.0022 1.0000 0.0035
vn 0.3462 0.9381 -0.0031
vn 0.1620 0.9866 0.0177
vn 0.5023 0.8646 0.0092
vn -0.2043 0.9789 0.0013
vn -0.0033 1.0000 -0.0070
vn -0.4901 0.8716 -0.0052
vn -0.0005 0.0006 -1.0000
vn 0.0002 0.0001 -1.0000
vn 0.0002 -0.0000 -1.0000
vn 0.0002 0.0002 -1.0000
vn 0.0001 0.0002 -1.0000
vn 0.0001 0.0003 -1.0000
vn -0.0000 0.0004 -1.0000
vn -0.0001 0.0004 -1.0000
vn -0.0002 0.0006 -1.0000
vn -0.0010 0.0010 -1.0000
vn -0.0039 0.0020 -1.0000
vn -0.0000 -0.0000 1.0000
vn -0.0008 -1.0000 0.0044
vn -0.0006 -1.0000 0.0042
vn -0.0000 -1.0000 0.0038
vn 0.0005 -1.0000 0.0003
vn 0.0003 -1.0000 0.0004
vn -0.0000 -1.0000 0.0006
vn 0.9235 0.2421 -0.2977
vn 0.9817 0.1588 -0.1055
vn 0.9886 0.0908 -0.1202
vn 0.9280 0.3545 -0.1143
vn 0.9532 0.0898 -0.2888
vn 0.7167 0.1787 -0.6741
vn 0.7973 0.5692 -0.2008
vn 0.8753 0.4743 -0.0948
vn 0.7412 0.6647 -0.0937
vn 0.6889 0.5024 -0.5226
vn 0.4414 0.2403 -0.8645
vn 0.1885 0.1776 -0.9659
vn 0.4744 0.5118 -0.7162
vn 0.5195 0.8016 -0.2959
vn 0.6570 0.7443 -0.1196
vn 0.5119 0.8575 -0.0520
vn -0.0116 0.4332 -0.9012
vn 0.3629 0.9190 -0.1541
vn -0.1877 0.2402 -0.9524
vn 0.3222 0.9453 -0.0499
vn 0.1789 0.9813 -0.0704
vn 0.0413 0.7007 -0.7122
vn 0.2611 0.8158 -0.5160
vn -0.5419 0.3726 -0.7533
vn -0.5101 0.1791 -0.8413
vn 0.1363 0.9654 -0.2223
vn -0.0145 0.9933 -0.1151
vn -0.8543 0.1667 -0.4924
vn -0.3671 0.6865 -0.6277
vn -0.8576 0.3548 -0.3723
vn -0.9944 0.1010 -0.0301
vn -0.9886 0.1479 -0.0285
vn -0.1086 0.8967 -0.4292
vn -0.8947 0.1307 0.4271
vn -0.6013 0.7319 -0.3205
vn -0.9009 0.3781 0.2130
vn -0.9439 0.3279 -0.0376
vn -0.8052 0.2590 0.5335
vn -0.8048 0.5718 -0.1593
vn -0.2711 0.9353 -0.2272
vn -0.5795 0.2682 0.7696
vn -0.5065 0.1731 0.8447
vn -0.7854 0.6185 0.0238
vn -0.5942 0.5794 0.5579
vn -0.6296 0.7289 0.2688
vn -0.5294 0.8482 -0.0177
vn -0.1623 0.4381 0.8842
vn -0.1737 0.2279 0.9581
vn -0.2076 0.9732 0.0992
vn 0.2757 0.3611 0.8908
vn 0.1527 0.1727 0.9731
vn -0.3742 0.8855 0.2754
vn 0.5864 0.1715 0.7917
vn -0.2676 0.7119 0.6493
vn -0.1191 0.9919 -0.0431
vn -0.0076 0.9899 0.1415
vn 0.1908 0.7417 0.6430
vn 0.6971 0.3802 0.6079
vn 0.9161 0.1040 0.3873
vn -0.0740 0.9113 0.4051
vn 0.9284 0.2509 0.2741
vn 0.9881 0.0754 0.1340
vn 0.9817 0.1588 0.1055
vn 0.9280 0.3545 0.1143
vn 0.5151 0.6860 0.5139
vn 0.7921 0.5712 0.2152
vn 0.8753 0.4743 0.0948
vn 0.7389 0.6668 0.0972
vn 0.1966 0.9576 0.2106
vn 0.4967 0.8309 0.2508
vn 0.6596 0.7401 0.1308
vn 0.4794 0.8735 0.0850
vn 0.3745 0.9192 0.1213
vn 0.1627 0.9859 0.0387
vn -0.0017 -1.0000 -0.0010
vn -0.0023 -1.0000 0.0003
vn -0.0014 -1.0000 -0.0001
vn -0.0027 -1.0000 -0.0060
vn -0.0044 -1.0000 -0.0007
vn -0.0025 -1.0000 -0.0068
vn -0.0007 -1.0000 -0.0023
vn 0.0026 -1.0000 0.0035
vn 0.0020 -1.0000 0.0043
vn -0.0054 -1.0000 -0.0005
vn -0.0061 -1.0000 -0.0022
vn 0.0054 -1.0000 0.0023
vn -0.0064 -1.0000 0.0009
vn -0.5330 0.8461 -0.0045
vn -0.2935 0.9558 0.0170
vn -0.2046 0.9788 -0.0061
vn 0.1703 0.9854 0.0010
vn 0.3202 0.9473 0.0119
vn 0.3425 0.9395 -0.0037
vn 0.3075 0.9515 0.0106
vn 0.7689 0.6393 -0.0031
vn 0.8689 0.4947 0.0145
vn 0.8682 0.4963 0.0042
vn -0.0047 0.0010 -1.0000
vn 0.0011 0.0009 -1.0000
vn 0.0011 0.0006 -1.0000
vn 0.0012 0.0004 -1.0000
vn 0.0012 0.0002 -1.0000
vn 0.0012 0.0001 -1.0000
vn 0.0010 0.0011 -1.0000
vn 0.0008 0.0014 -1.0000
vn 0.0007 0.0016 -1.0000
vn 0.0004 0.0020 -1.0000
vn 0.0001 0.0023 -1.0000
vn 0.0070 -0.0035 -1.0000
vn 0.0272 -0.0246 -0.9993
vn -0.0718 0.0302 -0.9970
vn -0.0276 0.0141 -0.9995
vn 0.9413 0.2560 -0.2202
vn 0.9832 0.1515 -0.1022
vn 0.9859 0.0644 -0.1543
vn 0.9268 0.3617 -0.1011
vn 0.9000 0.1035 -0.4234
vn 0.7836 0.2231 -0.5799
vn 0.7885 0.5314 -0.3096
vn 0.8675 0.4841 -0.1145
vn 0.7566 0.6452 -0.1065
vn 0.5103 0.1880 -0.8392
vn 0.5549 0.4261 -0.7146
vn 0.5952 0.7317 -0.3322
vn 0.6401 0.7605 -0.1094
vn 0.5020 0.8575 -0.1130
vn 0.1985 0.3926 -0.8980
vn 0.1670 0.2394 -0.9565
vn 0.3067 0.9043 -0.2970
vn 0.2674 0.7195 -0.6410
vn -0.1215 0.5074 -0.8531
vn -0.1624 0.2555 -0.9531
vn 0.3429 0.9359 -0.0805
vn 0.1821 0.9796 -0.0848
vn -0.4830 0.4099 -0.7738
vn -0.4893 0.2238 -0.8429
vn 0.0004 0.9759 -0.2184
vn 0.0018 0.9995 -0.0325
vn -0.7841 0.1803 -0.5939
vn -0.8130 0.3473 -0.4673
vn -0.9208 0.0014 -0.3900
vn -0.8580 -0.1588 -0.4885
vn -0.1626 0.8480 -0.5044
vn -0.4972 0.7122 -0.4956
vn -0.9327 0.2941 0.2089
vn -0.9781 0.1924 0.0798
vn -0.9191 0.0927 0.3829
vn -0.9822 0.1879 -0.0000
vn -0.9769 -0.2138 -0.0000
vn -0.8061 0.5791 -0.1220
vn -0.8894 0.4183 -0.1845
vn -0.7879 0.2087 0.5793
vn -0.9006 0.4340 0.0224
vn -0.4919 0.1140 0.8632
vn -0.5129 0.8578 -0.0351
vn -0.7310 0.5581 0.3926
vn -0.3592 0.9139 -0.1891
vn -0.5237 0.3161 0.7911
vn -0.8527 0.5128 0.0993
vn -0.5556 0.8173 0.1527
vn -0.1264 0.2249 0.9662
vn 0.1836 0.1464 0.9720
vn -0.3263 0.5504 0.7685
vn -0.4908 0.7261 0.4815
vn 0.5339 0.3460 0.7715
vn 0.6969 0.1888 0.6919
vn 0.1586 0.4981 0.8525
vn -0.2502 0.9333 0.2578
vn -0.1809 0.9834 0.0177
vn -0.0143 0.9952 0.0970
vn -0.0536 0.8113 0.5822
vn 0.9310 0.2298 0.2835
vn 0.9180 0.1402 0.3711
vn 0.7861 0.4796 0.3899
vn 0.3656 0.7518 0.5487
vn 0.9289 0.3533 0.1108
vn 0.0984 0.9618 0.2556
vn 0.6018 0.7282 0.3278
vn 0.8618 0.4930 0.1197
vn 0.7601 0.6380 0.1236
vn 0.3840 0.9070 0.1727
vn 0.6401 0.7605 0.1094
vn 0.5205 0.8496 0.0846
vn 0.3222 0.9453 0.0499
vn 0.1805 0.9798 0.0866
vn -0.0011 -1.0000 -0.0038
vn -0.0013 -1.0000 0.0001
vn -0.0010 -1.0000 -0.0001
vn -0.0035 -1.0000 -0.0012
vn 0.0047 -0.9989 -0.0461
vn -0.0040 -1.0000 -0.0038
vn -0.0046 -1.0000 -0.0081
vn -0.0011 -1.0000 -0.0025
vn 0.0003 -1.0000 -0.0001
vn 0.0021 -1.0000 0.0010
vn 0.0028 -1.0000 0.0019
vn -0.0017 -1.0000 0.0019
vn -0.0077 -1.0000 0.0023
vn -0.9602 0.2792 -0.0046
vn -0.9038 0.4280 0.0093
vn -0.7962 0.6051 -0.0049
vn -0.7926 0.6098 -0.0041
vn -0.7310 0.6822 0.0176
vn -0.4962 0.8682 -0.0056
vn -0.1959 0.9806 -0.0053
vn -0.3790 0.9252 0.0165
vn 0.0008 1.0000 0.0060
vn 0.5025 0.8646 0.0020
vn 0.6391 0.7691 0.0037
vn 0.2938 0.9558 0.0126
vn 0.0035 -0.0032 -1.0000
vn -0.0011 -0.0009 -1.0000
vn -0.0011 -0.0006 -1.0000
vn -0.0012 -0.0004 -1.0000
vn -0.0012 -0.0002 -1.0000
vn -0.0012 -0.0001 -1.0000
vn -0.0010 -0.0011 -1.0000
vn -0.0008 -0.0014 -1.0000
vn -0.0007 -0.0017 -1.0000
vn -0.0004 -0.0020 -1.0000
vn -0.0001 -0.0024 -1.0000
vn -0.0007 -0.0019 -1.0000
vn -0.0030 0.0006 -1.0000
vn 0.0125 -0.0086 -0.9999
vn 0.0274 -0.0140 -0.9995
vn 0.3357 0.9419 0.0095
vn 0.5037 0.8639 0.0042
vn 0.9003 0.1036 -0.4229
vn 0.7836 0.2226 -0.5800
vn 0.4987 0.2034 -0.8426
vn 0.5521 0.4152 -0.7231
vn 0.6023 0.7304 -0.3222
vn 0.1926 0.4955 -0.8470
vn 0.2009 0.2315 -0.9519
vn -0.1105 0.2733 -0.9556
vn -0.2076 0.1146 -0.9715
vn 0.3055 0.9056 -0.2940
vn 0.3771 0.7142 -0.5897
vn 0.1890 0.9797 -0.0674
vn -0.4444 0.3172 -0.8378
vn -0.6304 0.0981 -0.7700
vn -0.1870 0.5779 -0.7944
vn 0.0552 0.9810 -0.1861
vn -0.0349 0.9957 -0.0852
vn -0.7325 0.2704 -0.6247
vn -0.9072 0.1577 -0.3901
vn -0.0372 0.8030 -0.5948
vn -0.5194 0.6597 -0.5432
vn -0.8468 0.4704 -0.2483
vn -0.9445 0.2512 -0.2115
vn -0.9860 0.1598 0.0486
vn -0.8896 0.2838 0.3578
vn -0.1609 0.9065 -0.3904
vn -0.6662 -0.7426 0.0680
vn -0.7595 0.1939 0.6209
vn -0.0000 -1.0000 -0.0000
vn -0.8636 0.4989 0.0731
vn -0.6475 0.7499 -0.1356
vn -0.3255 0.9265 -0.1889
vn -0.6900 0.6180 0.3768
vn -0.7247 0.6886 0.0246
vn -0.9566 -0.0205 0.2908
vn -0.4598 0.4412 0.7707
vn -0.4398 0.1714 0.8816
vn -0.1564 0.2356 0.9592
vn 0.1767 0.1787 0.9679
vn -0.4479 0.8326 0.3259
vn -0.5176 0.8554 0.0201
vn 0.1492 0.4366 0.8872
vn -0.2294 0.9583 0.1702
vn -0.2515 0.7002 0.6682
vn -0.1395 0.9897 -0.0307
vn 0.5616 0.1906 0.8051
vn -0.0203 0.9968 0.0771
vn 0.5197 0.4375 0.7338
vn 0.1915 0.7192 0.6678
vn 0.7657 0.3352 0.5489
vn 0.9208 0.0898 0.3796
vn 0.9332 0.2493 0.2588
vn -0.0294 0.8981 0.4388
vn 0.5598 0.7481 0.3563
vn 0.0679 0.9841 0.1642
vn 0.7998 0.5632 0.2076
vn 0.2949 0.9139 0.2790
vn 0.7450 0.6612 0.0879
vn 0.6465 0.7545 0.1125
vn 0.4934 0.8629 0.1097
vn 0.3483 0.9329 0.0918
vn 0.1891 0.9799 0.0640
vn 0.0006 -1.0000 -0.0024
vn 0.0130 -0.9996 -0.0252
vn 0.0151 -0.9995 -0.0279
vn 0.0023 -1.0000 -0.0044
vn -0.0016 -1.0000 0.0073
vn -0.0027 -1.0000 -0.0057
vn -0.0005 -1.0000 -0.0023
vn -0.0016 -1.0000 0.0018
vn -0.0028 -1.0000 -0.0014
vn 0.0013 -1.0000 0.0028
vn -0.0001 -1.0000 0.0024
vn -0.0076 -1.0000 0.0003
vn -0.0002 -1.0000 -0.0000
vn -0.9453 0.3263 -0.0022
vn -0.8910 0.4538 0.0097
vn -0.7877 0.6161 -0.0009
vn 0.0025 1.0000 -0.0046
vn -0.0977 0.9950 0.0185
vn 0.1798 0.9836 0.0099
vn -0.0016 -0.0051 -1.0000
vn -0.0000 -0.0000 -1.0000
vn -0.0013 0.0011 -1.0000
vn 0.0048 -0.0010 -1.0000
vn 0.0766 -0.0457 -0.9960
vn -0.1401 0.0199 -0.9899
vn 0.9327 0.2250 -0.2818
vn 0.9289 0.3533 -0.1108
vn 0.9568 0.0904 -0.2764
vn 0.7404 0.2288 -0.6320
vn 0.7905 0.4792 -0.3814
vn 0.8618 0.4930 -0.1197
vn 0.7584 0.6390 -0.1285
vn 0.5181 0.4831 -0.7058
vn 0.4183 0.1947 -0.8872
vn 0.5505 0.7750 -0.3105
vn 0.6484 0.7548 -0.0987
vn 0.4755 0.8713 -0.1217
vn 0.1786 0.3266 -0.9281
vn -0.1567 0.1921 -0.9688
vn -0.1304 0.4251 -0.8957
vn 0.1973 0.9643 -0.1763
vn 0.3764 0.9182 -0.1237
vn 0.1621 0.9862 -0.0323
vn 0.1858 0.7131 -0.6760
vn -0.5047 0.4171 -0.7558
vn -0.0060 0.9901 -0.1402
vn 0.1398 0.8942 -0.4253
vn -0.7673 0.1919 -0.6120
vn -0.2702 0.7102 -0.6501
vn -0.8416 0.3508 -0.4107
vn -0.9495 0.1580 -0.2710
vn -0.5667 -0.8197 0.0831
vn -0.5747 0.7430 -0.3432
vn -0.9263 0.3422 -0.1576
vn -0.2298 0.9128 -0.3376
vn -0.9038 0.4096 0.1241
vn -0.9639 0.1953 0.1808
vn -0.9193 0.1816 0.3491
vn -0.7816 -0.0170 0.6236
vn -0.7894 0.6113 -0.0562
vn -0.7707 0.3372 0.5407
vn -0.4991 0.1127 0.8592
vn -0.2259 0.9700 -0.0898
vn -0.4355 0.2966 0.8499
vn -0.6474 0.7172 0.2578
vn -0.0573 0.2140 0.9752
vn -0.5127 0.8585 -0.0140
vn 0.2741 0.1236 0.9537
vn -0.3825 0.5811 0.7184
vn -0.2803 0.7997 0.5310
vn -0.3280 0.9018 0.2813
vn 0.0744 0.5839 0.8084
vn -0.1627 0.9843 0.0681
vn 0.4440 0.3472 0.8260
vn 0.7332 0.1228 0.6688
vn -0.0631 0.9667 0.2478
vn 0.0095 0.9962 0.0862
vn 0.7574 0.2793 0.5901
vn 0.9389 0.2023 0.2786
vn 0.0675 0.8203 0.5679
vn 0.4751 0.6435 0.6001
vn 0.9938 0.0869 0.0688
vn 0.9701 0.2004 0.1369
vn 0.9341 0.3184 0.1613
vn 0.8125 0.4891 0.3171
vn 0.4211 0.8238 0.3795
vn 0.8644 0.4936 0.0957
vn 0.7651 0.6359 0.1014
vn 0.2283 0.9531 0.1989
vn 0.5955 0.7798 0.1933
vn 0.6547 0.7553 0.0299
vn 0.4659 0.8804 0.0879
vn 0.3709 0.9234 0.0989
vn 0.1541 0.9864 0.0569
vn -0.0011 -1.0000 -0.0016
vn -0.0034 -1.0000 0.0004
vn -0.0648 -0.9977 0.0213
vn -0.0031 -1.0000 0.0011
vn 0.0031 -0.9999 -0.0160
vn -0.0029 -1.0000 -0.0020
vn -0.0027 -1.0000 -0.0028
vn -0.0112 -0.9995 -0.0294
vn -0.0051 -0.9999 -0.0146
vn -0.0002 -1.0000 0.0023
vn -0.0009 -1.0000 -0.0010
vn 0.0004 -1.0000 0.0010
vn 0.0033 -1.0000 -0.0004
vn 0.0254 -0.9997 0.0022
vn -0.2060 0.9785 -0.0056
vn 0.9405 0.3396 0.0040
vn 0.1742 0.9846 -0.0115
vn -0.7978 0.6029 0.0024
vn -0.7868 0.6170 0.0138
vn 0.0072 0.0802 0.9968
vn -0.0021 0.3714 0.9285
vn -0.0007 0.1885 0.9821
vn 0.0024 0.0049 -1.0000
vn -0.0002 -0.0001 -1.0000
vn -0.0002 -0.0000 -1.0000
vn -0.0002 -0.0002 -1.0000
vn -0.0001 -0.0002 -1.0000
vn -0.0001 -0.0003 -1.0000
vn -0.0000 -0.0004 -1.0000
vn 0.0001 -0.0005 -1.0000
vn -0.0098 0.0053 -0.9999
vn -0.0693 0.0435 -0.9966
vn 0.1534 -0.0260 -0.9878
vn -0.5056 0.8628 -0.0041
vn 0.9377 0.2548 -0.2363
vn 0.9853 0.0596 -0.1598
vn 0.9250 0.3648 -0.1063
vn 0.8654 0.1840 -0.4661
vn 0.7684 0.5308 -0.3576
vn 0.8655 0.4843 -0.1280
vn 0.7540 0.6452 -0.1235
vn 0.5813 0.3671 -0.7262
vn 0.5074 0.2056 -0.8368
vn 0.5428 0.8169 -0.1949
vn 0.6629 0.7427 -0.0945
vn 0.4698 0.8793 -0.0782
vn 0.1972 0.5032 -0.8414
vn 0.1884 0.2499 -0.9498
vn 0.4167 0.7565 -0.5041
vn -0.1187 0.3910 -0.9127
vn -0.1958 0.1942 -0.9612
vn 0.2298 0.9553 -0.1861
vn 0.3757 0.9200 -0.1114
vn 0.1570 0.9869 -0.0378
vn -0.5318 0.3389 -0.7761
vn -0.6947 0.1747 -0.6978
vn 0.0028 0.9967 -0.0808
vn 0.1357 0.8241 -0.5499
vn -0.2413 0.6548 -0.7162
vn -0.8073 0.4089 -0.4255
vn -0.9145 0.2094 -0.3461
vn -0.0615 0.9632 -0.2618
vn -0.9840 0.1770 -0.0206
vn -0.9971 0.0587 0.0475
vn -0.1896 0.8334 -0.5191
vn -0.5603 0.6952 -0.4503
vn -0.8978 0.4248 -0.1163
vn -0.9209 0.2354 0.3105
vn -0.7605 0.1282 0.6366
vn -0.9518 0.3052 -0.0306
vn -0.6786 0.7244 -0.1215
vn -0.3783 0.9047 -0.1962
vn -0.6735 0.4654 0.5744
vn -0.8001 0.5963 0.0649
vn -0.4516 0.2476 0.8572
vn -0.1917 0.0550 0.9799
vn 0.0341 0.2122 0.9766
vn -0.5525 0.7473 0.3692
vn -0.4861 0.8729 0.0403
vn 0.5056 0.1446 0.8506
vn -0.1254 0.5732 0.8098
vn -0.2269 0.7946 0.5631
vn 0.5062 0.3004 0.8084
vn -0.1786 0.9570 0.2287
vn -0.2093 0.9778 0.0010
vn 0.3634 0.5403 0.7590
vn 0.0016 0.9947 0.1024
vn 0.8056 0.2475 0.5383
vn 0.9260 0.0869 0.3674
vn 0.9342 0.2766 0.2251
vn 0.6348 0.5722 0.5192
vn 0.9873 0.0786 0.1378
vn 0.9832 0.1515 0.1022
vn 0.9233 0.3683 0.1089
vn 0.1934 0.8177 0.5422
vn 0.7568 0.6173 0.2151
vn 0.1852 0.9569 0.2238
vn 0.4737 0.8247 0.3091
vn 0.8772 0.4616 0.1320
vn 0.7656 0.6429 0.0241
vn 0.6064 0.7836 0.1353
vn 0.4982 0.8570 0.1319
vn 0.3704 0.9205 0.1244
vn 0.1654 0.9847 0.0548
vn 0.0005 -1.0000 -0.0049
vn 0.0123 -0.9999 -0.0074
vn 0.0005 -1.0000 -0.0009
vn -0.0023 -1.0000 -0.0078
vn -0.0023 -1.0000 -0.0020
vn -0.0045 -1.0000 -0.0077
vn -0.0011 -1.0000 -0.0026
vn -0.0002 -1.0000 0.0001
vn 0.0002 -1.0000 -0.0002
vn 0.0007 -1.0000 0.0005
vn -0.0024 -1.0000 0.0004
vn 0.9298 0.3677 0.0146
vn 0.9842 0.1771 -0.0065
vn 0.9384 0.3455 0.0058
vn 0.9082 0.4178 0.0237
vn 0.9841 0.1773 -0.0067
vn 0.9370 0.3490 0.0119
vn 0.0069 0.0693 0.9976
vn 0.9561 0.2928 0.0127
vn 0.9841 0.1774 0.0016
vn 0.0039 -1.0000 0.0031
vn 0.0051 -1.0000 0.0041
vn 0.9962 0.0872 -0.0047
vn 0.9961 0.0871 -0.0127
vn 0.0008 -1.0000 -0.0000
vn 0.9961 0.0872 -0.0122
vn -0.9871 0.1598 0.0023
vn -0.9901 0.1407 -0.0000
vn -0.0000 0.5157 -0.8568
vn 0.0011 0.2962 -0.9551
vn -0.0000 0.2669 -0.9637
vn -0.9403 0.3399 0.0141
vn -0.9564 0.2919 0.0004
vn -0.9872 0.1590 -0.0077
vn 0.9961 0.0871 -0.0122
vn -0.9493 0.3144 0.0001
vn -0.9304 0.3662 0.0170
vn -0.5072 0.8617 0.0156
vn 1.0000 -0.0000 -0.0000
vn 0.9560 0.2932 0.0126
vn 0.9841 0.1774 0.0015
vn -0.9636 0.2669 0.0122
vn -0.9864 0.1645 0.0028
vn -0.9793 0.2021 0.0073
vn -0.0013 -1.0000 0.0048
vn -0.9788 0.2049 0.0047
vn -0.9872 0.1590 -0.0076
vn 0.0005 -1.0000 0.0008
vn 0.0006 -1.0000 0.0009
vn -0.0000 -1.0000 0.0004
vn 0.0025 -1.0000 0.0045
vn 0.0034 -1.0000 0.0052
vn -0.0000 -1.0000 0.0025
vn 0.0090 -0.9999 0.0071
vn 0.0022 0.5670 -0.8237
vn -0.4904 0.8715 -0.0010
vn 0.0011 -1.0000 0.0013
vn 0.0059 -1.0000 0.0072
s 1
usemtl paint
f 231//1 229//2 232//3
f 159//4 160//5 161//6
f 7//7 5//7 9//7
f 79//8 82//9 83//10
f 93//11 92//12 94//1
f 228//13 229//2 230//11
f 294//4 295//5 296//6
f 22//14 21//15 23//16
f 288//17 287//18 289//19
f 226//20 223//21 227//22
f 222//23 223//21 224//24
f 286//25 287//18 288//17
f 11//26 24//27 25//27
f 11//26 25//27 27//27
f 11//26 27//27 28//28
f 11//26 28//28 29//28
f 23//29 24//27 11//26
f 22//30 23//29 11//26
f 20//31 22//30 11//26
f 19//31 20//31 11//26
f 18//32 19//31 11//26
f 17//33 18//32 11//26
f 15//34 17//33 11//26
f 13//35 11//26 10//36
f 15//34 11//26 13//35
f 16//37 26//37 21//37
f 14//37 12//37 26//37
f 14//37 26//37 16//37
f 26//38 11//39 29//40
f 234//41 216//42 235//43
f 30//44 28//45 29//46
f 30//44 27//47 28//45
f 30//44 29//46 31//48
f 30//44 31//48 32//49
f 33//50 25//51 27//47
f 33//50 24//52 25//51
f 33//50 27//47 30//44
f 34//53 30//44 32//49
f 34//53 33//50 30//44
f 35//54 32//49 36//55
f 37//56 32//49 35//54
f 37//56 34//53 32//49
f 38//57 23//58 24//52
f 38//57 22//59 23//58
f 38//57 24//52 33//50
f 38//57 33//50 34//53
f 40//60 35//54 36//55
f 41//61 22//59 38//57
f 40//60 36//55 39//62
f 40//60 37//56 35//54
f 41//61 20//63 22//59
f 41//61 19//64 20//63
f 43//65 37//56 40//60
f 44//66 34//53 37//56
f 44//66 38//57 34//53
f 45//67 40//60 39//62
f 45//67 39//62 42//68
f 47//69 18//70 19//64
f 47//69 19//64 41//61
f 45//67 42//68 46//71
f 44//66 37//56 43//65
f 47//69 41//61 38//57
f 47//69 38//57 44//66
f 48//72 43//65 40//60
f 48//72 40//60 45//67
f 49//73 46//71 11//74
f 49//73 45//67 46//71
f 50//75 49//73 11//74
f 51//76 44//66 43//65
f 50//75 11//74 52//77
f 51//76 47//69 44//66
f 53//78 45//67 49//73
f 53//78 48//72 45//67
f 54//79 50//75 52//77
f 10//80 49//73 50//75
f 51//76 43//65 48//72
f 56//81 54//79 52//77
f 54//79 10//80 50//75
f 55//82 49//73 10//80
f 55//82 53//78 49//73
f 57//83 51//76 48//72
f 57//83 48//72 53//78
f 54//79 55//82 10//80
f 57//83 18//70 47//69
f 57//83 47//69 51//76
f 58//84 52//77 59//85
f 58//84 56//81 52//77
f 13//86 55//82 54//79
f 60//87 54//79 56//81
f 61//88 13//86 54//79
f 53//78 55//82 13//86
f 61//88 54//79 60//87
f 61//88 53//78 13//86
f 15//89 57//83 53//78
f 60//87 56//81 58//84
f 64//90 59//85 62//91
f 64//90 58//84 59//85
f 15//89 53//78 61//88
f 65//92 57//83 15//89
f 66//93 62//91 63//94
f 67//95 15//89 61//88
f 64//90 60//87 58//84
f 64//90 62//91 66//93
f 65//92 15//89 67//95
f 68//96 66//93 63//94
f 69//97 60//87 64//90
f 17//98 18//70 57//83
f 17//98 57//83 65//92
f 69//97 61//88 60//87
f 65//92 18//99 17//98
f 67//95 61//88 69//97
f 71//100 69//97 64//90
f 70//101 68//96 72//102
f 70//101 66//93 68//96
f 73//103 67//95 69//97
f 71//100 64//90 66//93
f 74//104 70//101 72//102
f 73//103 69//97 71//100
f 71//100 66//93 70//101
f 74//104 72//102 29//105
f 74//104 29//105 28//106
f 74//104 28//106 27//107
f 75//108 71//100 70//101
f 65//92 67//95 73//103
f 76//109 70//101 74//104
f 76//109 74//104 27//107
f 76//109 27//107 25//110
f 76//109 25//110 24//111
f 76//109 75//108 70//101
f 77//112 65//92 73//103
f 77//112 18//99 65//92
f 78//113 71//100 75//108
f 77//112 73//103 71//100
f 78//113 75//108 76//109
f 77//112 71//100 78//113
f 78//113 24//111 23//114
f 78//113 23//114 22//115
f 78//113 76//109 24//111
f 77//112 22//115 20//116
f 77//112 20//116 19//117
f 77//112 78//113 22//115
f 77//112 19//117 18//99
f 32//118 31//119 29//120
f 32//118 39//121 36//122
f 32//118 42//123 39//121
f 32//118 46//123 42//123
f 32//118 11//124 46//123
f 32//118 52//125 11//124
f 32//118 59//126 52//125
f 32//118 62//127 59//126
f 32//118 63//128 62//127
f 32//118 68//129 63//128
f 32//118 72//130 68//129
f 32//118 29//120 72//130
f 125//131 84//132 85//133
f 87//134 88//135 89//136
f 290//134 291//137 292//136
f 24//138 21//15 25//139
f 161//6 160//5 162//140
f 80//141 93//142 94//143
f 80//141 94//143 95//144
f 80//141 95//144 96//145
f 80//141 96//145 98//146
f 91//147 93//142 80//141
f 90//148 91//147 80//141
f 89//149 90//148 80//141
f 87//150 89//149 80//141
f 86//151 87//150 80//141
f 85//152 86//151 80//141
f 125//153 85//152 80//141
f 83//154 80//141 79//155
f 125//153 80//141 83//154
f 81//37 97//37 92//37
f 88//37 81//37 92//37
f 84//37 81//37 88//37
f 82//37 81//37 84//37
f 85//133 84//132 86//19
f 99//156 96//157 98//158
f 99//156 95//159 96//157
f 99//156 98//158 100//160
f 101//161 99//156 100//160
f 102//162 94//163 95//159
f 102//162 93//164 94//163
f 102//162 95//159 99//156
f 101//161 100//160 103//165
f 102//162 99//156 101//161
f 104//166 101//161 103//165
f 102//162 101//161 104//166
f 106//167 91//168 93//164
f 106//167 90//169 91//168
f 106//167 93//164 102//162
f 108//170 104//166 103//165
f 108//170 103//165 105//171
f 106//167 102//162 104//166
f 109//172 90//169 106//167
f 110//173 106//167 104//166
f 111//174 105//171 107//175
f 111//174 108//170 105//171
f 109//172 89//176 90//169
f 109//172 87//177 89//176
f 110//173 104//166 108//170
f 113//178 111//174 107//175
f 113//178 107//175 112//179
f 121//180 86//181 87//177
f 121//180 87//177 109//172
f 109//172 106//167 110//173
f 111//174 110//173 108//170
f 113//178 112//179 114//182
f 115//183 114//182 80//184
f 115//183 113//178 114//182
f 116//185 115//183 80//184
f 117//186 110//173 111//174
f 117//186 109//172 110//173
f 118//187 111//174 113//178
f 119//188 80//189 120//190
f 119//188 116//191 80//189
f 118//187 117//186 111//174
f 121//180 109//172 117//186
f 118//187 113//178 115//183
f 79//192 116//191 119//188
f 122//193 115//183 116//194
f 123//195 119//188 120//190
f 122//193 116//194 79//196
f 122//193 118//187 115//183
f 123//195 120//190 124//197
f 122//193 79//196 119//188
f 125//198 118//187 122//193
f 126//199 122//193 119//188
f 127//200 121//180 117//186
f 128//201 123//195 124//197
f 125//198 117//186 118//187
f 126//199 119//188 123//195
f 126//199 83//202 122//193
f 129//203 122//193 83//202
f 129//203 125//198 122//193
f 127//200 117//186 125//198
f 130//204 128//201 124//197
f 129//203 83//202 126//199
f 126//199 123//195 128//201
f 130//204 124//197 132//205
f 133//206 128//201 130//204
f 133//206 126//199 128//201
f 131//207 129//203 126//199
f 131//207 126//199 133//206
f 127//200 125//198 129//203
f 134//208 132//205 135//209
f 136//210 130//204 132//205
f 136//210 133//206 130//204
f 137//211 127//200 129//203
f 85//212 86//181 121//180
f 85//212 121//180 127//200
f 136//210 132//205 134//208
f 137//211 129//203 131//207
f 137//211 86//213 85//212
f 137//211 85//212 127//200
f 138//214 131//207 133//206
f 137//211 131//207 138//214
f 140//215 135//209 139//216
f 138//214 133//206 136//210
f 141//217 134//208 135//209
f 141//217 135//209 140//215
f 142//218 136//210 134//208
f 140//215 139//216 98//105
f 140//215 98//105 96//106
f 140//215 96//106 95//219
f 138//214 136//210 142//218
f 143//220 137//211 138//214
f 144//221 142//218 134//208
f 144//221 134//208 141//217
f 143//220 86//213 137//211
f 141//217 140//215 95//219
f 141//217 95//219 94//222
f 141//217 94//222 93//223
f 143//220 138//214 142//218
f 145//224 142//218 144//221
f 144//221 93//223 91//225
f 144//221 91//225 90//226
f 144//221 141//217 93//223
f 145//224 143//220 142//218
f 145//224 144//221 90//226
f 145//224 90//226 89//227
f 145//224 89//227 87//228
f 143//220 145//224 87//228
f 143//220 87//228 86//213
f 103//229 100//230 98//231
f 103//229 107//232 105//233
f 103//229 112//234 107//232
f 103//229 114//235 112//234
f 103//229 80//236 114//235
f 103//229 120//237 80//236
f 103//229 124//238 120//237
f 103//229 132//239 124//238
f 103//229 135//240 132//239
f 103//229 139//241 135//240
f 103//229 98//231 139//241
f 230//11 229//2 231//1
f 215//242 218//243 219//244
f 13//245 14//246 15//247
f 83//10 82//9 125//131
f 153//248 152//249 154//250
f 292//136 291//137 293//251
f 91//252 92//12 93//11
f 155//134 156//253 157//136
f 296//6 295//5 297//140
f 147//254 161//255 162//256
f 147//254 162//256 164//257
f 147//254 164//257 165//258
f 147//254 165//258 166//259
f 159//260 161//255 147//254
f 158//261 159//260 147//254
f 157//262 158//261 147//254
f 155//263 157//262 147//254
f 154//264 155//263 147//254
f 153//265 154//264 147//254
f 151//266 153//265 147//254
f 150//267 147//254 146//268
f 151//266 147//254 150//267
f 148//37 163//37 160//37
f 156//37 148//37 160//37
f 152//37 148//37 156//37
f 152//37 149//37 148//37
f 20//269 21//15 22//14
f 89//136 88//135 90//270
f 167//156 165//157 166//158
f 167//156 164//159 165//157
f 167//156 166//158 168//271
f 169//272 167//156 168//271
f 170//162 162//163 164//159
f 170//162 161//164 162//163
f 170//162 164//159 167//156
f 169//272 168//271 171//273
f 170//162 167//156 169//272
f 172//274 169//272 171//273
f 170//162 169//272 172//274
f 174//275 159//168 161//164
f 174//275 158//169 159//168
f 174//275 161//164 170//162
f 176//276 172//274 171//273
f 176//276 171//273 173//277
f 174//275 170//162 172//274
f 177//278 173//277 175//279
f 178//280 158//169 174//275
f 179//281 174//275 172//274
f 177//278 176//276 173//277
f 178//280 157//176 158//169
f 178//280 155//282 157//176
f 180//283 175//279 181//284
f 180//283 177//278 175//279
f 176//276 179//281 172//274
f 182//285 176//276 177//278
f 183//286 154//287 155//282
f 183//286 155//282 178//280
f 184//288 180//283 181//284
f 178//280 174//275 179//281
f 182//285 177//278 180//283
f 184//288 181//284 185//289
f 186//290 179//281 176//276
f 178//280 179//281 186//290
f 187//291 180//283 184//288
f 186//290 176//276 182//285
f 188//292 184//288 185//289
f 187//291 182//285 180//283
f 189//293 185//289 147//294
f 189//293 188//292 185//289
f 188//292 187//291 184//288
f 190//295 189//293 147//294
f 186//290 182//285 187//291
f 191//296 178//280 186//290
f 146//297 189//297 190//297
f 183//286 178//280 191//296
f 190//295 147//294 192//298
f 1//299 2//299 3//299
f 191//296 186//290 187//291
f 188//292 189//293 146//300
f 193//301 187//291 188//292
f 188//292 146//300 190//295
f 195//302 191//296 187//291
f 196//303 188//292 190//295
f 150//304 193//301 188//292
f 195//302 187//291 193//301
f 196//303 150//305 188//292
f 183//286 191//296 195//302
f 197//306 192//298 194//307
f 197//306 190//295 192//298
f 195//302 154//287 183//286
f 193//301 150//304 196//303
f 197//306 196//303 190//295
f 198//308 194//307 199//309
f 200//310 193//301 196//303
f 197//306 194//307 198//308
f 151//311 195//302 193//301
f 151//311 193//301 200//310
f 201//312 198//308 199//309
f 202//313 195//302 151//311
f 203//314 196//303 197//306
f 201//312 197//306 198//308
f 153//315 154//287 195//302
f 153//315 195//302 202//313
f 201//312 199//309 204//316
f 202//313 151//311 200//310
f 203//314 197//306 201//312
f 202//313 154//317 153//315
f 206//318 201//312 204//316
f 200//310 196//303 203//314
f 207//319 203//314 201//312
f 205//320 204//316 208//321
f 206//318 204//316 205//320
f 209//322 205//320 208//321
f 210//323 200//310 203//314
f 210//323 203//314 207//319
f 210//323 202//313 200//310
f 207//319 201//312 206//318
f 209//322 208//321 166//105
f 209//322 166//105 165//106
f 209//322 165//106 164//107
f 211//324 207//319 206//318
f 211//324 206//318 205//320
f 212//325 202//313 210//323
f 212//325 154//317 202//313
f 213//326 205//320 209//322
f 214//327 210//323 207//319
f 213//326 209//322 164//107
f 213//326 164//107 162//110
f 213//326 162//110 161//328
f 213//326 211//324 205//320
f 214//327 207//319 211//324
f 212//325 210//323 214//327
f 211//324 161//328 159//329
f 211//324 159//329 158//330
f 211//324 213//326 161//328
f 214//327 158//330 157//331
f 214//327 157//331 155//332
f 214//327 211//324 158//330
f 212//325 214//327 155//332
f 212//325 155//332 154//317
f 168//333 173//334 171//335
f 168//333 175//336 173//334
f 168//333 181//337 175//336
f 168//333 185//338 181//337
f 168//333 147//339 185//338
f 168//333 192//340 147//339
f 168//333 194//341 192//340
f 168//333 199//342 194//341
f 168//333 204//343 199//342
f 168//333 208//344 204//343
f 168//333 166//345 208//344
f 146//346 149//347 150//348
f 157//136 156//253 158//251
f 18//349 16//350 19//351
f 216//352 230//353 231//353
f 216//352 231//353 232//353
f 216//352 232//353 233//353
f 216//352 233//353 235//353
f 228//353 230//353 216//352
f 227//353 228//353 216//352
f 226//353 227//353 216//352
f 225//353 226//353 216//352
f 224//353 225//353 216//352
f 222//354 224//353 216//352
f 220//355 222//354 216//352
f 219//356 216//352 215//357
f 219//356 220//355 216//352
f 223//37 234//37 229//37
f 218//37 217//37 234//37
f 221//37 234//37 223//37
f 218//37 234//37 221//37
f 236//358 233//45 235//46
f 236//358 232//359 233//45
f 236//358 235//46 237//360
f 236//358 237//360 238//361
f 239//362 231//363 232//359
f 239//362 230//364 231//363
f 239//362 232//359 236//358
f 239//362 236//358 238//361
f 241//365 238//361 240//366
f 241//365 239//362 238//361
f 243//367 228//368 230//364
f 243//367 227//369 228//368
f 243//367 230//364 239//362
f 242//370 240//366 244//371
f 242//370 241//365 240//366
f 243//367 239//362 241//365
f 245//372 242//370 244//371
f 246//373 226//374 227//369
f 246//373 225//375 226//374
f 246//373 227//369 243//367
f 248//376 241//365 242//370
f 248//376 243//367 241//365
f 249//377 245//372 244//371
f 249//377 244//371 247//179
f 246//373 224//378 225//375
f 250//379 243//367 248//376
f 246//373 243//367 250//379
f 248//376 242//370 245//372
f 249//377 247//179 251//380
f 252//381 248//376 245//372
f 253//382 251//380 254//383
f 253//382 249//377 251//380
f 252//381 245//372 249//377
f 250//379 248//376 252//381
f 254//384 216//384 255//384
f 256//385 249//377 253//382
f 256//385 252//381 249//377
f 215//386 253//382 254//383
f 257//387 250//379 252//381
f 258//388 254//389 255//390
f 258//388 215//391 254//389
f 258//388 219//392 253//382
f 258//388 253//382 215//386
f 219//392 256//385 253//382
f 259//393 255//390 260//394
f 259//393 258//388 255//390
f 257//387 252//381 256//385
f 266//395 224//378 246//373
f 266//395 250//379 257//387
f 266//395 246//373 250//379
f 261//396 259//393 260//394
f 262//397 219//392 258//388
f 262//397 256//385 219//392
f 262//397 258//388 259//393
f 263//398 261//396 260//394
f 220//399 256//385 262//397
f 263//398 260//394 265//400
f 264//401 259//393 261//396
f 266//395 256//385 220//399
f 266//395 257//387 256//385
f 262//397 259//393 264//401
f 264//401 261//396 263//398
f 267//402 262//397 264//401
f 268//403 220//399 262//397
f 269//404 264//401 263//398
f 222//405 224//378 266//395
f 271//406 265//400 270//407
f 271//406 263//398 265//400
f 268//403 262//397 267//402
f 268//403 266//395 220//399
f 276//408 224//409 222//405
f 276//408 222//405 266//395
f 272//410 271//406 270//407
f 271//406 269//404 263//398
f 276//408 266//395 268//403
f 273//411 272//410 270//407
f 274//412 267//402 264//401
f 274//412 264//401 269//404
f 275//413 271//406 272//410
f 276//408 268//403 267//402
f 275//413 269//404 271//406
f 273//411 235//414 233//415
f 273//411 233//415 232//416
f 277//417 272//410 273//411
f 277//417 275//413 272//410
f 275//413 274//412 269//404
f 277//417 273//411 232//416
f 276//408 267//402 274//412
f 278//418 274//412 275//413
f 277//417 232//416 231//419
f 277//417 231//419 230//420
f 278//418 275//413 277//417
f 279//421 274//412 278//418
f 279//421 276//408 274//412
f 280//422 277//417 230//420
f 280//422 278//418 277//417
f 279//421 224//409 276//408
f 280//422 230//420 228//423
f 280//422 228//423 227//424
f 279//421 278//418 280//422
f 279//421 227//424 226//425
f 279//421 226//425 225//426
f 279//421 280//422 227//424
f 279//421 225//426 224//409
f 238//427 237//428 235//429
f 238//427 244//430 240//431
f 238//427 247//432 244//430
f 238//427 251//433 247//432
f 238//427 254//434 251//433
f 238//427 216//435 254//434
f 238//427 255//436 216//435
f 238//427 260//437 255//436
f 238//427 265//438 260//437
f 238//427 270//439 265//438
f 238//427 273//440 270//439
f 238//427 235//429 273//440
f 23//16 21//15 24//138
f 17//441 16//350 18//349
f 94//1 92//12 95//442
f 224//24 223//21 225//443
f 225//443 223//21 226//20
f 284//444 285//445 286//25
f 15//247 16//350 17//441
f 8//446 7//447 9//448
f 282//449 296//450 297//450
f 282//449 297//450 299//450
f 282//449 299//450 300//451
f 282//449 300//451 301//451
f 294//452 296//450 282//449
f 293//453 294//452 282//449
f 292//454 293//453 282//449
f 290//454 292//454 282//449
f 289//455 290//454 282//449
f 288//456 289//455 282//449
f 286//457 288//456 282//449
f 284//458 282//449 281//459
f 286//457 282//449 284//458
f 283//37 298//37 295//37
f 291//37 283//37 295//37
f 287//37 283//37 291//37
f 285//37 283//37 287//37
f 151//460 152//249 153//248
f 302//461 300//157 301//462
f 302//461 299//463 300//157
f 302//461 301//462 303//464
f 304//465 297//466 299//463
f 304//465 296//467 297//466
f 304//465 299//463 302//461
f 305//468 303//464 306//469
f 304//465 302//461 303//464
f 305//468 304//465 303//464
f 308//470 294//471 296//467
f 308//470 293//472 294//471
f 308//470 296//467 304//465
f 310//473 305//468 306//469
f 310//473 306//469 307//474
f 311//475 304//465 305//468
f 311//475 308//470 304//465
f 312//476 307//474 309//477
f 312//476 310//473 307//474
f 313//478 292//479 293//472
f 313//478 290//480 292//479
f 313//478 293//472 308//470
f 314//481 309//477 315//482
f 310//473 311//475 305//468
f 314//481 312//476 309//477
f 313//478 289//483 290//480
f 313//478 308//470 311//475
f 317//484 311//475 310//473
f 318//485 312//476 314//481
f 318//485 310//473 312//476
f 313//478 311//475 317//484
f 318//485 317//484 310//473
f 319//486 314//481 315//482
f 319//486 315//482 316//487
f 320//488 313//478 317//484
f 321//489 316//487 282//490
f 323//491 317//484 318//485
f 322//492 318//485 314//481
f 324//493 316//487 321//489
f 324//493 319//486 316//487
f 320//488 317//484 323//491
f 322//492 314//481 319//486
f 325//494 282//490 326//495
f 325//494 321//489 282//490
f 323//491 318//485 322//492
f 281//496 324//493 321//489
f 325//494 281//496 321//489
f 327//497 319//486 324//493
f 327//497 322//492 319//486
f 320//488 289//483 313//478
f 328//498 323//491 322//492
f 324//493 281//496 325//494
f 329//499 325//494 326//495
f 284//500 324//493 325//494
f 320//488 323//491 328//498
f 284//500 327//497 324//493
f 329//499 284//500 325//494
f 330//501 326//495 331//502
f 329//499 326//495 330//501
f 328//498 322//492 327//497
f 332//503 330//501 331//502
f 333//504 284//500 329//499
f 333//504 327//497 284//500
f 286//505 328//498 327//497
f 332//503 331//502 334//506
f 286//505 327//497 333//504
f 335//507 329//499 330//501
f 335//507 330//501 332//503
f 336//508 333//504 329//499
f 336//508 329//499 335//507
f 337//509 332//503 334//506
f 338//510 286//505 333//504
f 338//510 328//498 286//505
f 288//511 289//483 320//488
f 288//511 320//488 328//498
f 339//512 332//503 337//509
f 338//510 289//513 288//511
f 338//510 288//511 328//498
f 339//512 335//507 332//503
f 338//510 333//504 336//508
f 340//514 334//506 341//515
f 340//514 337//509 334//506
f 342//516 340//514 341//515
f 343//517 337//509 340//514
f 343//517 339//512 337//509
f 342//516 341//515 301//518
f 342//516 301//518 300//519
f 342//516 300//519 299//520
f 344//521 335//507 339//512
f 344//521 336//508 335//507
f 345//522 343//517 340//514
f 345//522 340//514 342//516
f 338//510 336//508 344//521
f 346//523 338//510 344//521
f 347//524 339//512 343//517
f 347//524 344//521 339//512
f 345//522 342//516 299//520
f 345//522 299//520 297//525
f 345//522 297//525 296//526
f 346//523 289//513 338//510
f 347//524 343//517 345//522
f 346//523 344//521 347//524
f 345//522 296//526 294//527
f 345//522 294//527 293//528
f 347//524 345//522 293//528
f 346//523 293//528 292//529
f 346//523 292//529 290//530
f 346//523 347//524 293//528
f 346//523 290//530 289//513
f 306//531 303//532 301//533
f 306//531 309//534 307//233
f 306//531 315//535 309//534
f 306//531 316//536 315//535
f 306//531 282//537 316//536
f 306//531 326//538 282//537
f 306//531 331//539 326//538
f 306//531 334//540 331//539
f 306//531 341//541 334//540
f 306//531 301//533 341//541
f 163//542 165//543 164//544
f 91//252 88//135 92//12
f 286//25 285//445 287//18
f 26//545 28//546 27//547
f 9//448 2//548 8//446
f 232//3 234//549 233//550
f 295//5 293//251 291//137
f 26//545 25//139 21//15
f 299//544 295//5 298//542
f 229//2 227//22 223//21
f 166//551 148//552 147//299
f 20//269 16//350 21//15
f 234//549 235//553 233//550
f 156//253 154//250 152//249
f 26//545 29//554 28//546
f 15//247 14//246 16//350
f 291//137 289//19 287//18
f 216//42 234//41 217//555
f 298//542 301//556 300//543
f 217//557 215//242 216//558
f 7//559 6//560 5//561
f 88//135 86//19 84//132
f 283//562 281//563 282//564
f 163//542 166//565 165//543
f 14//246 10//566 12//567
f 221//568 219//244 218//243
f 2//569 6//569 8//569
f 152//249 150//348 149//347
f 160//5 158//251 156//253
f 95//442 97//570 96//571
f 79//8 81//572 82//9
f 148//573 146//346 147//574
f 11//39 26//38 12//575
f 81//572 79//8 80//576
f 12//567 10//566 11//577
f 98//578 81//579 80//580
f 9//7 1//7 3//7
f 164//544 160//5 163//542
f 285//445 281//563 283//562
f 125//131 82//9 84//132
f 222//23 221//568 223//21
f 298//542 300//543 299//544
f 5//561 4//353 1//353
f 301//581 283//582 282//583
f 97//570 98//553 96//571
f 1//299 4//299 2//299
f 91//252 90//270 88//135
f 9//448 3//37 2//548
f 232//3 229//2 234//549
f 295//5 294//4 293//251
f 26//545 27//547 25//139
f 299//544 297//140 295//5
f 229//2 228//13 227//22
f 166//551 163//584 148//552
f 20//269 19//351 16//350
f 156//253 155//134 154//250
f 291//137 290//134 289//19
f 217//557 218//243 215//242
f 7//559 8//585 6//560
f 88//135 87//134 86//19
f 14//246 13//245 10//566
f 221//568 220//586 219//244
f 2//569 4//569 6//569
f 152//249 151//460 150//348
f 160//5 159//4 158//251
f 95//442 92//12 97//570
f 148//573 149//347 146//346
f 98//578 97//587 81//579
f 9//7 5//7 1//7
f 164//544 162//140 160//5
f 285//445 284//444 281//563
f 222//23 220//586 221//568
f 5//561 6//560 4//353
f 301//581 298//588 283//582
