# Blender 5.2.1 LTS
# www.blender.org
mtllib stair_run.mtl
o stair_run
v -0.800000 0.180000 0.000000
v -0.800000 0.000000 -1.500000
v -0.800000 0.000000 0.000000
v -0.800000 0.180000 -1.500000
v 0.800000 0.180000 0.000000
v 0.800000 0.000000 0.000000
v 0.800000 0.000000 -1.500000
v 0.800000 0.180000 -1.500000
v -0.800000 0.120000 -1.500000
v 0.800000 0.120000 -1.500000
v -0.800000 0.179544 -1.505209
v 0.800000 0.179544 -1.505209
v -0.800000 0.178191 -1.510261
v 0.800000 0.178191 -1.510261
v -0.800000 0.175981 -1.515000
v 0.800000 0.175981 -1.515000
v -0.800000 0.172981 -1.519284
v 0.800000 0.172981 -1.519284
v -0.800000 0.169284 -1.522981
v 0.800000 0.169284 -1.522981
v -0.800000 0.165000 -1.525981
v 0.800000 0.165000 -1.525981
v -0.800000 0.160261 -1.528191
v 0.800000 0.160261 -1.528191
v -0.800000 0.155209 -1.529544
v 0.800000 0.155209 -1.529544
v 0.800000 0.150000 -1.530000
v -0.800000 0.150000 -1.530000
v -0.800000 0.144791 -1.529544
v 0.800000 0.144791 -1.529544
v -0.800000 0.139739 -1.528191
v 0.800000 0.139739 -1.528191
v -0.800000 0.135000 -1.525981
v 0.800000 0.135000 -1.525981
v -0.800000 0.130716 -1.522981
v 0.800000 0.130716 -1.522981
v 0.800000 0.127019 -1.519284
v -0.800000 0.127019 -1.519284
v -0.800000 0.124019 -1.515000
v 0.800000 0.124019 -1.515000
v -0.800000 0.121809 -1.510261
v 0.800000 0.121809 -1.510261
v -0.800000 0.120456 -1.505209
v 0.800000 0.120456 -1.505209
v -0.800000 0.360000 0.000000
v -0.800000 0.000000 -1.200000
v -0.800000 0.360000 -1.200000
v 0.800000 0.360000 0.000000
v 0.800000 0.000000 -1.200000
v 0.800000 0.360000 -1.200000
v -0.800000 0.300000 -1.200000
v 0.800000 0.300000 -1.200000
v -0.800000 0.359544 -1.205209
v 0.800000 0.359544 -1.205209
v -0.800000 0.358191 -1.210261
v 0.800000 0.358191 -1.210261
v -0.800000 0.355981 -1.215000
v 0.800000 0.355981 -1.215000
v -0.800000 0.352981 -1.219284
v 0.800000 0.352981 -1.219284
v -0.800000 0.349284 -1.222981
v 0.800000 0.349284 -1.222981
v -0.800000 0.345000 -1.225981
v 0.800000 0.345000 -1.225981
v -0.800000 0.340261 -1.228191
v 0.800000 0.340261 -1.228191
v 0.800000 0.335209 -1.229544
v -0.800000 0.335209 -1.229544
v -0.800000 0.330000 -1.230000
v 0.800000 0.330000 -1.230000
v -0.800000 0.324791 -1.229544
v 0.800000 0.324791 -1.229544
v -0.800000 0.319739 -1.228191
v 0.800000 0.319739 -1.228191
v 0.800000 0.315000 -1.225981
v -0.800000 0.315000 -1.225981
v -0.800000 0.310716 -1.222981
v 0.800000 0.310716 -1.222981
v -0.800000 0.307019 -1.219284
v 0.800000 0.307019 -1.219284
v -0.800000 0.304019 -1.215000
v 0.800000 0.304019 -1.215000
v -0.800000 0.301809 -1.210261
v 0.800000 0.301809 -1.210261
v 0.800000 0.300456 -1.205209
v -0.800000 0.300456 -1.205209
v -0.800000 0.540000 0.000000
v -0.800000 0.000000 -0.900000
v -0.800000 0.540000 -0.900000
v 0.800000 0.540000 0.000000
v 0.800000 0.000000 -0.900000
v 0.800000 0.540000 -0.900000
v -0.800000 0.480000 -0.900000
v 0.800000 0.480000 -0.900000
v -0.800000 0.539544 -0.905209
v 0.800000 0.539544 -0.905209
v -0.800000 0.538191 -0.910261
v 0.800000 0.538191 -0.910261
v -0.800000 0.535981 -0.915000
v 0.800000 0.535981 -0.915000
v -0.800000 0.532981 -0.919284
v 0.800000 0.532981 -0.919284
v -0.800000 0.529284 -0.922981
v 0.800000 0.529284 -0.922981
v -0.800000 0.525000 -0.925981
v 0.800000 0.525000 -0.925981
v -0.800000 0.520261 -0.928191
v 0.800000 0.520261 -0.928191
v 0.800000 0.515209 -0.929544
v -0.800000 0.515209 -0.929544
v -0.800000 0.510000 -0.930000
v 0.800000 0.510000 -0.930000
v -0.800000 0.504791 -0.929544
v 0.800000 0.504791 -0.929544
v -0.800000 0.499739 -0.928191
v 0.800000 0.499739 -0.928191
v 0.800000 0.495000 -0.925981
v -0.800000 0.495000 -0.925981
v -0.800000 0.490716 -0.922981
v 0.800000 0.490716 -0.922981
v -0.800000 0.487019 -0.919284
v 0.800000 0.487019 -0.919284
v -0.800000 0.484019 -0.915000
v 0.800000 0.484019 -0.915000
v -0.800000 0.481809 -0.910261
v 0.800000 0.481809 -0.910261
v 0.800000 0.480456 -0.905209
v -0.800000 0.480456 -0.905209
v -0.800000 0.720000 0.000000
v -0.800000 0.000000 -0.600000
v -0.800000 0.720000 -0.600000
v 0.800000 0.720000 0.000000
v 0.800000 0.000000 -0.600000
v 0.800000 0.720000 -0.600000
v -0.800000 0.660000 -0.600000
v 0.800000 0.660000 -0.600000
v -0.800000 0.719544 -0.605209
v 0.800000 0.719544 -0.605209
v -0.800000 0.718191 -0.610261
v 0.800000 0.718191 -0.610261
v -0.800000 0.715981 -0.615000
v 0.800000 0.715981 -0.615000
v -0.800000 0.712981 -0.619284
v 0.800000 0.712981 -0.619284
v -0.800000 0.709284 -0.622981
v 0.800000 0.709284 -0.622981
v -0.800000 0.705000 -0.625981
v 0.800000 0.705000 -0.625981
v -0.800000 0.700261 -0.628191
v 0.800000 0.700261 -0.628191
v 0.800000 0.695209 -0.629544
v -0.800000 0.695209 -0.629544
v -0.800000 0.690000 -0.630000
v 0.800000 0.690000 -0.630000
v -0.800000 0.684791 -0.629544
v 0.800000 0.684791 -0.629544
v -0.800000 0.679739 -0.628191
v 0.800000 0.679739 -0.628191
v 0.800000 0.675000 -0.625981
v -0.800000 0.675000 -0.625981
v -0.800000 0.670716 -0.622981
v 0.800000 0.670716 -0.622981
v -0.800000 0.667019 -0.619284
v 0.800000 0.667019 -0.619284
v -0.800000 0.664019 -0.615000
v 0.800000 0.664019 -0.615000
v -0.800000 0.661809 -0.610261
v 0.800000 0.661809 -0.610261
v 0.800000 0.660456 -0.605209
v -0.800000 0.660456 -0.605209
v -0.800000 0.900000 0.000000
v -0.800000 0.000000 -0.300000
v -0.800000 0.900000 -0.300000
v 0.800000 0.900000 0.000000
v 0.800000 0.000000 -0.300000
v 0.800000 0.900000 -0.300000
v -0.800000 0.840000 -0.300000
v 0.800000 0.840000 -0.300000
v -0.800000 0.899544 -0.305209
v 0.800000 0.899544 -0.305209
v -0.800000 0.898191 -0.310261
v 0.800000 0.898191 -0.310261
v -0.800000 0.895981 -0.315000
v 0.800000 0.895981 -0.315000
v -0.800000 0.892981 -0.319284
v 0.800000 0.892981 -0.319284
v -0.800000 0.889284 -0.322981
v 0.800000 0.889284 -0.322981
v -0.800000 0.885000 -0.325981
v 0.800000 0.885000 -0.325981
v -0.800000 0.880261 -0.328191
v 0.800000 0.880261 -0.328191
v -0.800000 0.875209 -0.329544
v 0.800000 0.875209 -0.329544
v -0.800000 0.870000 -0.330000
v 0.800000 0.870000 -0.330000
v -0.800000 0.864791 -0.329544
v 0.800000 0.864791 -0.329544
v 0.800000 0.859739 -0.328191
v -0.800000 0.859739 -0.328191
v -0.800000 0.855000 -0.325981
v 0.800000 0.855000 -0.325981
v -0.800000 0.850716 -0.322981
v 0.800000 0.850716 -0.322981
v -0.800000 0.847019 -0.319284
v 0.800000 0.847019 -0.319284
v -0.800000 0.844019 -0.315000
v 0.800000 0.844019 -0.315000
v -0.800000 0.841809 -0.310261
v 0.800000 0.841809 -0.310261
v -0.800000 0.840456 -0.305209
v 0.800000 0.840456 -0.305209
v 0.940000 0.000000 0.000000
v 0.940000 0.000000 -1.500000
v 0.800000 0.280000 -1.500000
v 0.940000 0.280000 -1.500000
v 0.800000 1.000000 -0.300000
v 0.940000 1.000000 -0.300000
v 0.800000 1.000000 0.000000
v 0.940000 1.000000 0.000000
v -0.940000 0.000000 -1.500000
v -0.940000 0.000000 0.000000
v -0.940000 0.280000 -1.500000
v -0.800000 0.280000 -1.500000
v -0.940000 1.000000 -0.300000
v -0.800000 1.000000 -0.300000
v -0.940000 1.000000 0.000000
v -0.800000 1.000000 0.000000
vn -0.0000 -0.6428 -0.7660
vn -0.0000 -0.7660 -0.6428
vn -0.0000 0.5000 -0.8660
vn -0.0000 0.3420 -0.9397
vn -0.0000 -0.9397 -0.3420
vn -0.0000 -0.8660 -0.5000
vn -0.0000 0.1737 -0.9848
vn -0.0000 0.1736 -0.9848
vn -0.0000 -1.0000 -0.0000
vn -0.0000 1.0000 -0.0000
vn -0.0000 0.9637 -0.2669
vn -0.0000 -0.5000 -0.8660
vn -0.0000 -0.1737 -0.9848
vn -0.0000 -0.3420 -0.9397
vn -0.0000 -0.0000 1.0000
vn -0.0000 0.6428 -0.7661
vn -0.0000 0.8660 -0.5000
vn -0.0000 0.7660 -0.6428
vn -0.0000 -0.9848 -0.1736
vn -0.0000 -0.9962 -0.0872
vn -0.0000 0.9848 -0.1736
vn -0.0000 0.9962 -0.0872
vn -0.0000 -0.6428 -0.7661
vn -0.0000 0.9397 -0.3420
vn -0.0000 -0.0000 -1.0000
vn -1.0000 -0.0000 -0.0000
vn -0.0000 -0.9848 -0.1737
vn 1.0000 -0.0000 -0.0000
vn -0.0000 -0.1736 -0.9848
vn -0.0000 -0.7661 -0.6428
vn -0.0000 0.9848 -0.1737
vn -0.0000 0.6428 -0.7660
vn -0.0000 0.7661 -0.6428
vn -0.0000 0.8575 -0.5145
vn -0.0000 -0.9962 -0.0871
vn -0.0000 0.9962 -0.0871
s 1
usemtl paint
f 203//1 206//2 205//2
f 147//3 150//4 149//4
f 126//5 123//6 124//6
f 107//4 109//7 110//8
f 6//9 172//9 175//9
f 166//6 163//2 164//2
f 220//10 217//11 219//10
f 132//10 131//10 129//10
f 76//12 78//1 77//1
f 113//13 116//14 115//14
f 87//15 6//15 90//15
f 187//16 190//3 189//3
f 99//17 102//18 101//18
f 43//19 10//20 9//20
f 115//14 117//12 118//12
f 54//21 47//22 50//22
f 50//15 51//15 52//15
f 35//23 37//2 38//2
f 139//24 142//17 141//17
f 68//7 70//25 69//25
f 1//15 6//15 5//15
f 48//10 47//10 45//10
f 173//26 3//26 171//26
f 83//5 85//27 86//19
f 8//28 6//28 7//28
f 9//26 4//26 11//26
f 9//26 11//26 13//26
f 9//26 13//26 15//26
f 9//26 15//26 17//26
f 9//26 17//26 19//26
f 9//26 19//26 21//26
f 9//26 21//26 23//26
f 9//26 23//26 25//26
f 9//26 25//26 28//26
f 9//26 28//26 29//26
f 9//26 29//26 31//26
f 9//26 31//26 33//26
f 9//26 33//26 35//26
f 9//26 35//26 38//26
f 9//26 38//26 39//26
f 9//26 39//26 41//26
f 9//26 41//26 43//26
f 10//28 12//28 8//28
f 10//28 14//28 12//28
f 10//28 16//28 14//28
f 10//28 18//28 16//28
f 10//28 20//28 18//28
f 10//28 22//28 20//28
f 10//28 24//28 22//28
f 10//28 26//28 24//28
f 10//28 27//28 26//28
f 10//28 30//28 27//28
f 10//28 32//28 30//28
f 10//28 34//28 32//28
f 10//28 36//28 34//28
f 10//28 37//28 36//28
f 10//28 40//28 37//28
f 10//28 42//28 40//28
f 10//28 44//28 42//28
f 47//25 49//25 46//25
f 195//25 198//13 197//29
f 92//15 93//15 94//15
f 6//9 2//9 7//9
f 82//6 79//30 80//2
f 8//15 9//15 10//15
f 4//26 3//26 1//26
f 4//25 7//25 2//25
f 55//24 58//17 57//17
f 23//4 26//8 25//7
f 110//8 112//25 111//25
f 77//1 80//2 79//30
f 63//3 66//4 65//4
f 11//31 14//24 13//24
f 125//5 127//19 128//19
f 12//21 4//22 8//22
f 71//29 74//14 73//14
f 31//14 34//12 33//12
f 134//15 135//15 136//15
f 29//29 32//14 31//14
f 13//24 16//17 15//17
f 15//17 18//18 17//18
f 149//4 151//7 152//8
f 5//10 4//10 1//10
f 89//26 3//26 87//26
f 51//26 47//26 53//26
f 51//26 53//26 55//26
f 51//26 55//26 57//26
f 51//26 57//26 59//26
f 51//26 59//26 61//26
f 51//26 61//26 63//26
f 51//26 63//26 65//26
f 51//26 65//26 68//26
f 51//26 68//26 69//26
f 51//26 69//26 71//26
f 51//26 71//26 73//26
f 51//26 73//26 76//26
f 51//26 76//26 77//26
f 51//26 77//26 79//26
f 51//26 79//26 81//26
f 51//26 81//26 83//26
f 51//26 83//26 86//26
f 52//28 54//28 50//28
f 52//28 56//28 54//28
f 52//28 58//28 56//28
f 52//28 60//28 58//28
f 52//28 62//28 60//28
f 52//28 64//28 62//28
f 52//28 66//28 64//28
f 52//28 67//28 66//28
f 52//28 70//28 67//28
f 52//28 72//28 70//28
f 52//28 74//28 72//28
f 52//28 75//28 74//28
f 52//28 78//28 75//28
f 52//28 80//28 78//28
f 52//28 82//28 80//28
f 52//28 84//28 82//28
f 52//28 85//28 84//28
f 42//5 39//6 40//6
f 168//5 165//6 166//6
f 21//3 24//4 23//4
f 6//9 88//9 91//9
f 19//32 22//3 21//3
f 174//10 173//10 171//10
f 17//18 20//16 19//32
f 95//21 98//24 97//24
f 50//28 6//28 49//28
f 189//3 192//4 191//4
f 47//26 3//26 45//26
f 84//5 81//6 82//6
f 208//6 205//2 206//2
f 213//15 219//15 6//15
f 40//6 38//2 37//2
f 105//3 108//4 107//4
f 2//9 222//9 221//9
f 28//25 30//13 29//29
f 25//7 27//25 28//25
f 57//17 60//33 59//18
f 111//25 114//29 113//13
f 118//12 120//1 119//1
f 53//31 56//24 55//24
f 124//6 121//2 122//2
f 119//1 122//2 121//2
f 93//26 89//26 95//26
f 93//26 95//26 97//26
f 93//26 97//26 99//26
f 93//26 99//26 101//26
f 93//26 101//26 103//26
f 93//26 103//26 105//26
f 93//26 105//26 107//26
f 93//26 107//26 110//26
f 93//26 110//26 111//26
f 93//26 111//26 113//26
f 93//26 113//26 115//26
f 93//26 115//26 118//26
f 93//26 118//26 119//26
f 93//26 119//26 121//26
f 93//26 121//26 123//26
f 93//26 123//26 125//26
f 93//26 125//26 128//26
f 94//28 96//28 92//28
f 94//28 98//28 96//28
f 94//28 100//28 98//28
f 94//28 102//28 100//28
f 94//28 104//28 102//28
f 94//28 106//28 104//28
f 94//28 108//28 106//28
f 94//28 109//28 108//28
f 94//28 112//28 109//28
f 94//28 114//28 112//28
f 94//28 116//28 114//28
f 94//28 117//28 116//28
f 94//28 120//28 117//28
f 94//28 122//28 120//28
f 94//28 124//28 122//28
f 94//28 126//28 124//28
f 94//28 127//28 126//28
f 224//25 221//25 223//25
f 103//16 106//3 105//3
f 65//4 67//8 68//7
f 94//20 128//19 127//19
f 129//15 6//15 132//15
f 61//32 64//3 63//3
f 6//9 130//9 133//9
f 131//25 133//25 130//25
f 131//26 3//26 129//26
f 33//12 36//1 35//23
f 73//14 75//12 76//12
f 138//31 131//22 134//22
f 141//17 144//18 143//18
f 69//25 72//13 71//29
f 145//16 148//3 147//3
f 143//18 146//32 145//16
f 137//21 140//24 139//24
f 226//11 223//34 225//11
f 210//5 207//6 208//6
f 152//8 154//25 153//25
f 101//18 104//32 103//16
f 6//9 46//9 49//9
f 161//1 164//2 163//2
f 160//12 162//23 161//1
f 153//25 156//29 155//13
f 135//26 131//26 137//26
f 135//26 137//26 139//26
f 135//26 139//26 141//26
f 135//26 141//26 143//26
f 135//26 143//26 145//26
f 135//26 145//26 147//26
f 135//26 147//26 149//26
f 135//26 149//26 152//26
f 135//26 152//26 153//26
f 135//26 153//26 155//26
f 135//26 155//26 157//26
f 135//26 157//26 160//26
f 135//26 160//26 161//26
f 135//26 161//26 163//26
f 135//26 163//26 165//26
f 135//26 165//26 167//26
f 135//26 167//26 170//26
f 136//28 138//28 134//28
f 136//28 140//28 138//28
f 136//28 142//28 140//28
f 136//28 144//28 142//28
f 136//28 146//28 144//28
f 136//28 148//28 146//28
f 136//28 150//28 148//28
f 136//28 151//28 150//28
f 136//28 154//28 151//28
f 136//28 156//28 154//28
f 136//28 158//28 156//28
f 136//28 159//28 158//28
f 136//28 162//28 159//28
f 136//28 164//28 162//28
f 136//28 166//28 164//28
f 136//28 168//28 166//28
f 136//28 169//28 168//28
f 44//27 41//5 42//5
f 92//28 6//28 91//28
f 167//5 169//19 170//19
f 176//28 6//28 175//28
f 52//20 86//19 85//27
f 173//25 175//25 172//25
f 171//15 6//15 174//15
f 136//35 170//19 169//19
f 155//13 158//14 157//14
f 90//10 89//10 87//10
f 176//15 177//15 178//15
f 181//24 184//17 183//17
f 89//25 91//25 88//25
f 185//18 188//32 187//16
f 183//17 186//18 185//18
f 180//21 173//36 176//36
f 45//15 6//15 48//15
f 97//24 100//17 99//17
f 191//4 194//8 193//7
f 197//29 199//14 200//14
f 96//21 89//22 92//22
f 201//12 204//23 203//1
f 200//14 202//12 201//12
f 193//7 196//25 195//25
f 179//21 182//24 181//24
f 177//26 173//26 179//26
f 177//26 179//26 181//26
f 177//26 181//26 183//26
f 177//26 183//26 185//26
f 177//26 185//26 187//26
f 177//26 187//26 189//26
f 177//26 189//26 191//26
f 177//26 191//26 193//26
f 177//26 193//26 195//26
f 177//26 195//26 197//26
f 177//26 197//26 200//26
f 177//26 200//26 201//26
f 177//26 201//26 203//26
f 177//26 203//26 205//26
f 177//26 205//26 207//26
f 177//26 207//26 209//26
f 177//26 209//26 211//26
f 178//28 180//28 176//28
f 178//28 182//28 180//28
f 178//28 184//28 182//28
f 178//28 186//28 184//28
f 178//28 188//28 186//28
f 178//28 190//28 188//28
f 178//28 192//28 190//28
f 178//28 194//28 192//28
f 178//28 196//28 194//28
f 178//28 198//28 196//28
f 178//28 199//28 198//28
f 178//28 202//28 199//28
f 178//28 204//28 202//28
f 178//28 206//28 204//28
f 178//28 208//28 206//28
f 178//28 210//28 208//28
f 178//28 212//28 210//28
f 228//10 225//11 227//10
f 134//28 6//28 133//28
f 59//18 62//32 61//32
f 216//25 7//25 215//25
f 157//14 159//12 160//12
f 6//26 215//26 7//26
f 217//26 215//26 6//26
f 219//26 217//26 6//26
f 213//28 214//28 216//28
f 218//28 213//28 216//28
f 220//28 213//28 218//28
f 212//27 209//5 210//5
f 178//20 211//19 212//27
f 214//9 6//9 7//9
f 218//11 215//34 217//11
f 222//26 223//26 221//26
f 225//26 223//26 222//26
f 227//26 225//26 222//26
f 3//28 2//28 224//28
f 226//28 3//28 224//28
f 228//28 3//28 226//28
f 3//15 227//15 222//15
f 203//1 204//23 206//2
f 147//3 148//3 150//4
f 126//5 125//5 123//6
f 107//4 108//4 109//7
f 6//9 3//9 172//9
f 166//6 165//6 163//2
f 220//10 218//11 217//11
f 132//10 134//10 131//10
f 76//12 75//12 78//1
f 113//13 114//29 116//14
f 87//15 3//15 6//15
f 187//16 188//32 190//3
f 99//17 100//17 102//18
f 43//19 44//27 10//20
f 115//14 116//14 117//12
f 54//21 53//31 47//22
f 50//15 47//15 51//15
f 35//23 36//1 37//2
f 139//24 140//24 142//17
f 68//7 67//8 70//25
f 1//15 3//15 6//15
f 48//10 50//10 47//10
f 173//26 172//26 3//26
f 83//5 84//5 85//27
f 8//28 5//28 6//28
f 47//25 50//25 49//25
f 195//25 196//25 198//13
f 92//15 89//15 93//15
f 6//9 3//9 2//9
f 82//6 81//6 79//30
f 8//15 4//15 9//15
f 4//26 2//26 3//26
f 4//25 8//25 7//25
f 55//24 56//24 58//17
f 23//4 24//4 26//8
f 110//8 109//7 112//25
f 77//1 78//1 80//2
f 63//3 64//3 66//4
f 11//31 12//21 14//24
f 125//5 126//5 127//19
f 12//21 11//31 4//22
f 71//29 72//13 74//14
f 31//14 32//14 34//12
f 134//15 131//15 135//15
f 29//29 30//13 32//14
f 13//24 14//24 16//17
f 15//17 16//17 18//18
f 149//4 150//4 151//7
f 5//10 8//10 4//10
f 89//26 88//26 3//26
f 42//5 41//5 39//6
f 168//5 167//5 165//6
f 21//3 22//3 24//4
f 6//9 3//9 88//9
f 19//32 20//16 22//3
f 174//10 176//10 173//10
f 17//18 18//18 20//16
f 95//21 96//21 98//24
f 50//28 48//28 6//28
f 189//3 190//3 192//4
f 47//26 46//26 3//26
f 84//5 83//5 81//6
f 208//6 207//6 205//2
f 213//15 220//15 219//15
f 40//6 39//6 38//2
f 105//3 106//3 108//4
f 2//9 3//9 222//9
f 28//25 27//25 30//13
f 25//7 26//8 27//25
f 57//17 58//17 60//33
f 111//25 112//25 114//29
f 118//12 117//12 120//1
f 53//31 54//21 56//24
f 124//6 123//6 121//2
f 119//1 120//1 122//2
f 224//25 2//25 221//25
f 103//16 104//32 106//3
f 65//4 66//4 67//8
f 94//20 93//20 128//19
f 129//15 3//15 6//15
f 61//32 62//32 64//3
f 6//9 3//9 130//9
f 131//25 134//25 133//25
f 131//26 130//26 3//26
f 33//12 34//12 36//1
f 73//14 74//14 75//12
f 138//31 137//21 131//22
f 141//17 142//17 144//18
f 69//25 70//25 72//13
f 145//16 146//32 148//3
f 143//18 144//18 146//32
f 137//21 138//31 140//24
f 226//11 224//34 223//34
f 210//5 209//5 207//6
f 152//8 151//7 154//25
f 101//18 102//18 104//32
f 6//9 3//9 46//9
f 161//1 162//23 164//2
f 160//12 159//12 162//23
f 153//25 154//25 156//29
f 44//27 43//19 41//5
f 92//28 90//28 6//28
f 167//5 168//5 169//19
f 176//28 174//28 6//28
f 52//20 51//20 86//19
f 173//25 176//25 175//25
f 171//15 3//15 6//15
f 136//35 135//35 170//19
f 155//13 156//29 158//14
f 90//10 92//10 89//10
f 176//15 173//15 177//15
f 181//24 182//24 184//17
f 89//25 92//25 91//25
f 185//18 186//18 188//32
f 183//17 184//17 186//18
f 180//21 179//21 173//36
f 45//15 3//15 6//15
f 97//24 98//24 100//17
f 191//4 192//4 194//8
f 197//29 198//13 199//14
f 96//21 95//21 89//22
f 201//12 202//12 204//23
f 200//14 199//14 202//12
f 193//7 194//8 196//25
f 179//21 180//21 182//24
f 228//10 226//11 225//11
f 134//28 132//28 6//28
f 59//18 60//33 62//32
f 216//25 214//25 7//25
f 157//14 158//14 159//12
f 212//27 211//19 209//5
f 178//20 177//20 211//19
f 214//9 213//9 6//9
f 218//11 216//34 215//34
f 3//15 228//15 227//15
