# Blender 5.2.1 LTS
# www.blender.org
mtllib stripe_panel.mtl
o stripe_panel
v -0.500000 0.000000 0.000000
v -0.500000 0.020000 -0.070000
v -0.500000 -0.000000 -0.050000
v -0.500000 0.900000 0.000000
v -0.500000 0.880000 -0.070000
v -0.500000 0.900000 -0.050000
v 0.500000 0.900000 -0.050000
v 0.500000 0.900000 0.000000
v 0.500000 0.880000 -0.070000
v 0.500000 0.000000 0.000000
v 0.500000 0.020000 -0.070000
v 0.500000 -0.000000 -0.050000
vn -1.0000 -0.0000 -0.0000
vn -0.0000 -1.0000 -0.0000
vn -0.0000 -0.0000 1.0000
vn -0.0000 1.0000 -0.0000
vn -0.0000 -0.0000 -1.0000
vn -0.0000 0.7071 -0.7071
vn 1.0000 -0.0000 -0.0000
vn -0.0000 -0.7071 -0.7071
s 1
usemtl paint
f 1//1 2//1 3//1
f 4//1 5//1 2//1
f 4//1 6//1 5//1
f 4//1 2//1 1//1
f 10//2 3//2 12//2
f 4//3 10//3 8//3
f 8//4 6//4 4//4
f 5//5 11//5 2//5
f 9//6 6//6 7//6
f 10//7 12//7 11//7
f 8//7 11//7 9//7
f 8//7 9//7 7//7
f 8//7 10//7 11//7
f 11//8 3//8 2//8
f 10//2 1//2 3//2
f 4//3 1//3 10//3
f 8//4 7//4 6//4
f 5//5 9//5 11//5
f 9//6 5//6 6//6
f 11//8 12//8 3//8
