# Blender 5.2.1 LTS
# www.blender.org
mtllib wall_column.mtl
o wall_column
v -0.310000 0.120000 0.310000
v -0.310000 0.000000 -0.310000
v -0.310000 0.000000 0.310000
v -0.310000 0.120000 -0.310000
v 0.310000 0.120000 0.310000
v 0.310000 0.000000 0.310000
v 0.310000 0.000000 -0.310000
v 0.310000 0.120000 -0.310000
v 0.000000 0.160000 0.285000
v 0.260000 0.200000 0.260000
v -0.260000 0.200000 0.260000
v 0.285000 0.160000 -0.000000
v 0.260000 0.200000 -0.260000
v -0.000000 0.160000 -0.285000
v -0.260000 0.200000 -0.260000
v -0.285000 0.160000 0.000000
v 0.120703 0.409588 0.241406
v 0.000000 0.707150 0.241875
v -0.120703 0.409588 0.241406
v 0.120703 1.092687 0.241406
v 0.240000 0.200000 0.240000
v 0.240000 1.566200 0.240000
v -0.240000 1.566200 0.240000
v 0.118828 2.127687 0.237656
v -0.118828 2.127687 0.237656
v 0.000000 2.777150 0.234375
v -0.115078 3.514587 0.230156
v -0.225000 4.340000 0.225000
v 0.115078 3.514587 0.230156
v 0.225000 4.340000 0.225000
v -0.060205 0.293797 0.240820
v -0.240000 0.200000 0.240000
v -0.181318 0.888922 0.241758
v 0.241406 0.409588 0.120703
v 0.240000 0.200000 -0.240000
v 0.241875 0.707150 0.000000
v 0.241406 1.092687 -0.120703
v 0.240000 1.566200 -0.240000
v 0.237656 2.127687 -0.118828
v 0.237656 2.127687 0.118828
v 0.234375 2.777150 0.000000
v 0.230156 3.514587 0.115078
v 0.230156 3.514587 -0.115078
v 0.225000 4.340000 -0.225000
v 0.241758 0.888922 0.181318
v 0.120703 0.409588 -0.241406
v -0.240000 0.200000 -0.240000
v 0.000000 0.707150 -0.241875
v -0.120703 1.092687 -0.241406
v -0.240000 1.566200 -0.240000
v -0.118828 2.127687 -0.237656
v 0.118828 2.127687 -0.237656
v 0.000000 2.777150 -0.234375
v 0.115078 3.514587 -0.230156
v -0.115078 3.514587 -0.230156
v -0.225000 4.340000 -0.225000
v 0.181318 0.888922 -0.241758
v -0.241406 0.409588 -0.120703
v -0.241875 0.707150 0.000000
v -0.241406 1.092687 0.120703
v -0.237656 2.127687 0.118828
v -0.237656 2.127687 -0.118828
v -0.234375 2.777150 0.000000
v -0.230156 3.514587 -0.115078
v -0.230156 3.514587 0.115078
v -0.241758 0.888922 -0.181318
v -0.255000 4.340000 0.255000
v -0.255000 4.280000 -0.255000
v -0.255000 4.280000 0.255000
v -0.255000 4.340000 -0.255000
v 0.255000 4.340000 0.255000
v 0.255000 4.280000 0.255000
v 0.255000 4.280000 -0.255000
v 0.255000 4.340000 -0.255000
v 0.330000 4.509000 0.330000
v -0.240000 4.340000 0.240000
v 0.240000 4.340000 0.240000
v -0.330000 4.509000 0.330000
v 0.330000 4.509000 -0.330000
v 0.240000 4.340000 -0.240000
v -0.330000 4.509000 -0.330000
v -0.240000 4.340000 -0.240000
v -0.330000 4.600000 0.330000
v -0.330000 4.600000 -0.330000
v 0.330000 4.600000 0.330000
v 0.330000 4.600000 -0.330000
vn 1.0000 -0.0000 -0.0000
vn -1.0000 -0.0000 -0.0000
vn -0.0000 -1.0000 -0.0000
vn -0.0000 1.0000 -0.0000
vn -0.0000 0.5300 0.8480
vn 0.8480 0.5300 -0.0000
vn -0.0000 0.5300 -0.8480
vn -0.8480 0.5300 -0.0000
vn 0.0053 -0.0023 1.0000
vn 0.0011 -0.0003 1.0000
vn -0.0038 -0.0029 1.0000
vn 0.0055 0.0012 1.0000
vn 0.0043 -0.0047 1.0000
vn 0.0013 0.0034 1.0000
vn -0.0013 0.0035 1.0000
vn 0.0028 0.0050 1.0000
vn -0.0028 0.0050 1.0000
vn -0.0000 0.0054 1.0000
vn -0.0029 0.0057 1.0000
vn -0.0005 0.0062 1.0000
vn 0.0029 0.0057 1.0000
vn 0.0005 0.0062 1.0000
vn -0.0003 -0.0068 1.0000
vn -0.0045 -0.0053 1.0000
vn -0.0146 0.0005 0.9999
vn 1.0000 -0.0032 0.0029
vn 1.0000 -0.0050 0.0040
vn 1.0000 -0.0034 -0.0032
vn 1.0000 -0.0007 -0.0023
vn 1.0000 0.0011 -0.0055
vn 1.0000 0.0034 -0.0013
vn 1.0000 0.0035 0.0013
vn 1.0000 0.0050 -0.0028
vn 1.0000 0.0050 0.0028
vn 1.0000 0.0054 -0.0000
vn 1.0000 0.0057 0.0029
vn 1.0000 0.0062 0.0005
vn 1.0000 0.0057 -0.0029
vn 1.0000 0.0062 -0.0005
vn 0.9999 0.0005 0.0146
vn 0.0029 -0.0032 -1.0000
vn 0.0040 -0.0050 -1.0000
vn -0.0032 -0.0034 -1.0000
vn -0.0023 -0.0007 -1.0000
vn -0.0055 0.0011 -1.0000
vn -0.0013 0.0034 -1.0000
vn 0.0013 0.0035 -1.0000
vn -0.0028 0.0050 -1.0000
vn 0.0028 0.0050 -1.0000
vn -0.0000 0.0054 -1.0000
vn 0.0029 0.0057 -1.0000
vn 0.0005 0.0062 -1.0000
vn -0.0029 0.0057 -1.0000
vn -0.0005 0.0062 -1.0000
vn 0.0146 0.0005 -0.9999
vn -1.0000 -0.0032 -0.0029
vn -1.0000 -0.0050 -0.0040
vn -1.0000 -0.0034 0.0032
vn -1.0000 -0.0007 0.0023
vn -1.0000 0.0011 0.0055
vn -1.0000 0.0034 0.0013
vn -1.0000 0.0035 -0.0013
vn -1.0000 0.0050 0.0028
vn -1.0000 0.0050 -0.0028
vn -1.0000 0.0054 -0.0000
vn -1.0000 0.0057 -0.0029
vn -1.0000 0.0062 -0.0005
vn -1.0000 0.0057 0.0029
vn -1.0000 0.0062 0.0005
vn -0.9999 0.0005 -0.0146
vn -0.0000 -0.0000 1.0000
vn -0.0000 -0.0000 -1.0000
vn -0.0000 -0.4700 0.8826
vn 0.8826 -0.4700 -0.0000
vn -0.0000 -0.4700 -0.8826
vn -0.8826 -0.4700 -0.0000
s 1
usemtl paint
f 74//1 72//1 73//1
f 84//2 78//2 83//2
f 72//3 68//3 73//3
f 70//2 69//2 67//2
f 8//4 4//4 1//4
f 8//4 1//4 5//4
f 9//5 1//5 5//5
f 9//5 5//5 10//5
f 9//5 10//5 11//5
f 9//5 11//5 1//5
f 12//6 5//6 8//6
f 12//6 8//6 13//6
f 12//6 13//6 10//6
f 12//6 10//6 5//6
f 14//7 8//7 4//7
f 14//7 4//7 15//7
f 14//7 15//7 13//7
f 14//7 13//7 8//7
f 16//8 4//8 1//8
f 16//8 1//8 11//8
f 16//8 11//8 15//8
f 16//8 15//8 4//8
f 4//2 3//2 1//2
f 47//3 21//3 32//3
f 17//9 18//10 19//11
f 20//12 21//13 22//14
f 20//12 18//10 17//9
f 20//12 22//14 23//15
f 20//12 17//9 21//13
f 24//16 23//15 22//14
f 24//16 25//17 23//15
f 24//16 26//18 25//17
f 27//19 28//20 23//15
f 27//19 23//15 25//17
f 27//19 25//17 26//18
f 29//21 22//14 30//22
f 29//21 30//22 28//20
f 29//21 28//20 27//19
f 29//21 24//16 22//14
f 29//21 26//18 24//16
f 29//21 27//19 26//18
f 31//23 32//24 21//13
f 31//23 19//11 32//24
f 31//23 17//9 19//11
f 31//23 21//13 17//9
f 33//25 23//15 32//24
f 33//25 32//24 19//11
f 33//25 19//11 18//10
f 33//25 20//12 23//15
f 33//25 18//10 20//12
f 34//26 21//27 35//28
f 34//26 35//28 36//29
f 37//30 35//28 38//31
f 37//30 36//29 35//28
f 37//30 38//31 22//32
f 39//33 22//32 38//31
f 39//33 40//34 22//32
f 39//33 41//35 40//34
f 42//36 30//37 22//32
f 42//36 22//32 40//34
f 42//36 40//34 41//35
f 43//38 38//31 44//39
f 43//38 44//39 30//37
f 43//38 30//37 42//36
f 43//38 39//33 38//31
f 43//38 41//35 39//33
f 43//38 42//36 41//35
f 45//40 22//32 21//27
f 45//40 21//27 34//26
f 45//40 36//29 37//30
f 45//40 37//30 22//32
f 45//40 34//26 36//29
f 46//41 35//42 47//43
f 46//41 47//43 48//44
f 49//45 47//43 50//46
f 49//45 48//44 47//43
f 49//45 50//46 38//47
f 51//48 38//47 50//46
f 51//48 52//49 38//47
f 51//48 53//50 52//49
f 54//51 44//52 38//47
f 54//51 38//47 52//49
f 54//51 52//49 53//50
f 55//53 50//46 56//54
f 55//53 56//54 44//52
f 55//53 44//52 54//51
f 55//53 51//48 50//46
f 55//53 53//50 51//48
f 55//53 54//51 53//50
f 57//55 38//47 35//42
f 57//55 35//42 46//41
f 57//55 48//44 49//45
f 57//55 49//45 38//47
f 57//55 46//41 48//44
f 58//56 47//57 32//58
f 58//56 32//58 59//59
f 60//60 32//58 23//61
f 60//60 59//59 32//58
f 60//60 23//61 50//62
f 61//63 50//62 23//61
f 61//63 62//64 50//62
f 61//63 63//65 62//64
f 64//66 56//67 50//62
f 64//66 50//62 62//64
f 64//66 62//64 63//65
f 65//68 23//61 28//69
f 65//68 28//69 56//67
f 65//68 56//67 64//66
f 65//68 61//63 23//61
f 65//68 63//65 61//63
f 65//68 64//66 63//65
f 66//70 50//62 47//57
f 66//70 47//57 58//56
f 66//70 59//59 60//60
f 66//70 60//60 50//62
f 66//70 58//56 59//59
f 1//71 6//71 5//71
f 67//71 72//71 71//71
f 86//1 75//1 79//1
f 6//3 2//3 7//3
f 70//72 73//72 68//72
f 83//71 75//71 85//71
f 4//72 7//72 2//72
f 44//4 28//4 30//4
f 75//73 76//73 77//73
f 75//73 78//73 76//73
f 79//74 77//74 80//74
f 79//74 75//74 77//74
f 81//75 80//75 82//75
f 81//75 79//75 80//75
f 78//76 82//76 76//76
f 78//76 81//76 82//76
f 84//72 79//72 81//72
f 71//4 70//4 67//4
f 13//4 11//4 10//4
f 80//3 76//3 82//3
f 79//3 78//3 81//3
f 79//3 75//3 78//3
f 8//1 6//1 7//1
f 85//4 84//4 83//4
f 74//1 71//1 72//1
f 84//2 81//2 78//2
f 72//3 69//3 68//3
f 70//2 68//2 69//2
f 4//2 2//2 3//2
f 47//3 35//3 21//3
f 1//71 3//71 6//71
f 67//71 69//71 72//71
f 86//1 85//1 75//1
f 6//3 3//3 2//3
f 70//72 74//72 73//72
f 83//71 78//71 75//71
f 4//72 8//72 7//72
f 44//4 56//4 28//4
f 84//72 86//72 79//72
f 71//4 74//4 70//4
f 13//4 15//4 11//4
f 80//3 77//3 76//3
f 8//1 5//1 6//1
f 85//4 86//4 84//4
