# Blender 5.2.1 LTS
# www.blender.org
mtllib window_large.mtl
o window_large
v -0.800000 0.150000 0.000000
v -0.800000 0.000000 0.000000
v 0.800000 0.000000 0.000000
v 0.800000 0.150000 0.000000
v -0.800000 0.135000 -0.200000
v 0.800000 0.135000 -0.200000
v -0.800000 0.120000 -0.200000
v 0.800000 0.120000 -0.200000
v -0.800000 0.120000 -0.170000
v 0.800000 0.120000 -0.170000
v -0.800000 0.000000 -0.170000
v 0.800000 0.000000 -0.170000
v -0.700000 2.250000 0.000000
v -0.700000 0.150000 -0.070000
v -0.700000 0.150000 0.000000
v -0.700000 2.250000 -0.070000
v 0.700000 0.150000 0.000000
v 0.600000 0.250000 0.000000
v -0.600000 0.250000 0.000000
v -0.600000 2.150000 0.000000
v 0.600000 2.150000 0.000000
v 0.700000 2.250000 0.000000
v 0.700000 2.250000 -0.070000
v 0.700000 0.150000 -0.070000
v -0.600000 0.250000 -0.070000
v 0.600000 0.250000 -0.070000
v -0.600000 2.150000 -0.070000
v 0.600000 2.150000 -0.070000
v -0.760000 2.350000 0.000000
v -0.760000 2.250000 -0.140000
v -0.760000 2.250000 0.000000
v -0.760000 2.350000 -0.140000
v 0.760000 2.350000 0.000000
v 0.760000 2.250000 0.000000
v 0.760000 2.250000 -0.140000
v 0.760000 2.350000 -0.140000
v -1.130000 0.725000 -0.030000
v -1.130000 0.250000 -0.050000
v -1.130000 0.250000 0.000000
v -1.130000 0.725000 -0.050000
v -1.130000 1.200000 -0.030000
v -1.130000 0.755000 -0.050000
v -1.130000 0.755000 -0.030000
v -1.130000 1.200000 -0.050000
v -1.130000 1.675000 -0.030000
v -1.130000 1.230000 -0.050000
v -1.130000 1.230000 -0.030000
v -1.130000 1.675000 -0.050000
v -1.130000 2.150000 -0.050000
v -1.130000 1.705000 -0.050000
v -1.130000 1.705000 -0.030000
v -1.130000 2.150000 0.000000
v -0.730000 1.230000 -0.050000
v -0.730000 1.230000 -0.030000
v -0.730000 1.200000 -0.030000
v -0.730000 1.200000 -0.050000
v -0.730000 0.755000 -0.050000
v -0.730000 0.755000 -0.030000
v -0.730000 0.725000 -0.030000
v -0.730000 0.725000 -0.050000
v -0.730000 0.250000 -0.050000
v -0.730000 0.250000 0.000000
v -0.730000 2.150000 0.000000
v -0.730000 2.150000 -0.050000
v -0.730000 1.705000 -0.050000
v -0.730000 1.705000 -0.030000
v -0.730000 1.675000 -0.030000
v -0.730000 1.675000 -0.050000
v 0.730000 0.725000 -0.030000
v 0.730000 0.250000 -0.050000
v 0.730000 0.250000 0.000000
v 0.730000 0.725000 -0.050000
v 0.730000 1.200000 -0.030000
v 0.730000 0.755000 -0.050000
v 0.730000 0.755000 -0.030000
v 0.730000 1.200000 -0.050000
v 0.730000 1.675000 -0.030000
v 0.730000 1.230000 -0.050000
v 0.730000 1.230000 -0.030000
v 0.730000 1.675000 -0.050000
v 0.730000 2.150000 -0.050000
v 0.730000 1.705000 -0.050000
v 0.730000 1.705000 -0.030000
v 0.730000 2.150000 0.000000
v 1.130000 1.230000 -0.050000
v 1.130000 1.230000 -0.030000
v 1.130000 1.200000 -0.030000
v 1.130000 1.200000 -0.050000
v 1.130000 0.755000 -0.050000
v 1.130000 0.755000 -0.030000
v 1.130000 0.725000 -0.030000
v 1.130000 0.725000 -0.050000
v 1.130000 0.250000 -0.050000
v 1.130000 0.250000 0.000000
v 1.130000 2.150000 0.000000
v 1.130000 2.150000 -0.050000
v 1.130000 1.705000 -0.050000
v 1.130000 1.705000 -0.030000
v 1.130000 1.675000 -0.030000
v 1.130000 1.675000 -0.050000
v -0.600000 0.250000 -0.020000
v -0.600000 2.150000 -0.020000
v 0.600000 0.250000 -0.020000
v 0.600000 2.150000 -0.020000
v -0.020000 2.150000 0.000000
v -0.020000 0.250000 -0.025000
v -0.020000 0.250000 0.000000
v -0.020000 2.150000 -0.025000
v 0.020000 2.150000 0.000000
v 0.020000 0.250000 0.000000
v 0.020000 0.250000 -0.025000
v 0.020000 2.150000 -0.025000
v -0.600000 1.220000 0.000000
v -0.600000 1.180000 -0.025000
v -0.600000 1.180000 0.000000
v -0.600000 1.220000 -0.025000
v 0.600000 1.220000 0.000000
v 0.600000 1.180000 0.000000
v 0.600000 1.180000 -0.025000
v 0.600000 1.220000 -0.025000
vn -0.0000 -0.0000 -1.0000
vn -1.0000 -0.0000 -0.0000
vn -0.0000 1.0000 -0.0000
vn 1.0000 -0.0000 -0.0000
vn -0.0000 -0.0000 1.0000
vn -0.0000 0.9972 -0.0748
vn -0.0000 -1.0000 -0.0000
vn -1.0000 -0.0000 -0.0001
vn -1.0000 -0.0000 0.0001
vn 1.0000 -0.0000 -0.0001
vn 1.0000 -0.0000 0.0001
s 1
usemtl trim
f 9//2 5//2 7//2
f 1//2 5//2 9//2
f 2//2 9//2 11//2
f 2//2 1//2 9//2
f 10//4 8//4 6//4
f 4//4 10//4 6//4
f 3//4 12//4 10//4
f 3//4 10//4 4//4
f 17//5 18//5 19//5
f 17//5 19//5 15//5
f 20//5 13//5 15//5
f 20//5 15//5 19//5
f 21//5 13//5 20//5
f 22//5 13//5 21//5
f 22//5 18//5 17//5
f 22//5 21//5 18//5
f 24//1 25//1 26//1
f 24//1 14//1 25//1
f 27//1 14//1 16//1
f 27//1 25//1 14//1
f 28//1 27//1 16//1
f 23//1 28//1 16//1
f 23//1 24//1 26//1
f 23//1 26//1 28//1
f 32//1 35//1 30//1
f 29//5 34//5 33//5
f 27//4 19//4 25//4
f 6//6 1//6 4//6
f 4//5 2//5 3//5
f 8//1 5//1 6//1
f 33//3 32//3 29//3
f 22//3 16//3 13//3
f 3//7 11//7 12//7
f 12//1 9//1 10//1
f 28//2 18//2 21//2
f 21//7 27//7 28//7
f 16//2 15//2 13//2
f 10//7 7//7 8//7
f 32//2 31//2 29//2
f 23//4 17//4 24//4
f 17//7 14//7 24//7
f 34//7 30//7 35//7
f 18//3 25//3 19//3
f 36//4 34//4 35//4
f 32//1 36//1 35//1
f 29//5 31//5 34//5
f 27//4 20//4 19//4
f 6//6 5//6 1//6
f 4//5 1//5 2//5
f 8//1 7//1 5//1
f 33//3 36//3 32//3
f 22//3 23//3 16//3
f 3//7 2//7 11//7
f 12//1 11//1 9//1
f 28//2 26//2 18//2
f 21//7 20//7 27//7
f 16//2 14//2 15//2
f 10//7 9//7 7//7
f 32//2 30//2 31//2
f 23//4 22//4 17//4
f 17//7 15//7 14//7
f 34//7 31//7 30//7
f 18//3 26//3 25//3
f 36//4 33//4 34//4
usemtl wood
f 80//1 85//1 78//1
f 80//2 79//2 77//2
f 72//1 93//1 70//1
f 40//1 61//1 38//1
f 67//3 48//3 45//3
f 48//1 53//1 46//1
f 81//1 97//1 82//1
f 44//1 57//1 42//1
f 63//3 49//3 52//3
f 37//2 38//2 39//2
f 37//2 40//2 38//2
f 62//7 38//7 61//7
f 49//2 50//2 51//2
f 52//2 49//2 51//2
f 52//2 37//2 39//2
f 52//2 43//8 37//2
f 52//2 41//2 43//8
f 52//2 47//9 41//2
f 52//2 45//2 47//9
f 52//2 51//2 45//2
f 47//1 55//1 41//1
f 86//7 78//7 85//7
f 43//1 59//1 37//1
f 94//7 70//7 93//7
f 88//4 90//10 89//4
f 66//7 50//7 65//7
f 59//4 62//4 61//4
f 59//4 61//4 60//4
f 44//2 43//8 41//2
f 64//4 66//4 65//4
f 63//4 66//4 64//4
f 63//4 62//4 59//4
f 63//4 59//4 58//10
f 63//4 58//10 55//4
f 63//4 55//4 54//4
f 63//4 54//4 67//4
f 63//4 67//4 66//4
f 69//2 70//2 71//2
f 69//2 72//2 70//2
f 56//4 58//10 57//4
f 81//2 82//2 83//2
f 84//2 81//2 83//2
f 84//2 69//2 71//2
f 84//2 75//8 69//2
f 84//2 73//2 75//8
f 84//2 79//2 73//2
f 84//2 77//2 79//2
f 84//2 83//2 77//2
f 76//2 75//8 73//2
f 68//4 54//4 53//4
f 52//5 62//5 63//5
f 55//3 44//3 41//3
f 79//1 87//1 73//1
f 90//7 74//7 89//7
f 54//7 46//7 53//7
f 91//3 72//3 69//3
f 75//1 91//1 69//1
f 87//3 76//3 73//3
f 59//3 40//3 37//3
f 84//5 94//5 95//5
f 98//7 82//7 97//7
f 58//7 42//7 57//7
f 91//4 94//4 93//4
f 91//4 93//4 92//4
f 99//3 80//3 77//3
f 83//1 99//1 77//1
f 96//4 98//4 97//4
f 95//4 98//4 96//4
f 95//4 94//4 91//4
f 95//4 91//4 90//10
f 95//4 90//10 87//4
f 95//4 87//4 86//11
f 95//4 86//11 99//4
f 95//4 99//4 98//4
f 95//3 81//3 84//3
f 49//1 65//1 50//1
f 100//4 86//11 85//4
f 76//1 89//1 74//1
f 48//2 47//9 45//2
f 51//1 67//1 45//1
f 80//1 100//1 85//1
f 80//2 78//2 79//2
f 72//1 92//1 93//1
f 40//1 60//1 61//1
f 67//3 68//3 48//3
f 48//1 68//1 53//1
f 81//1 96//1 97//1
f 44//1 56//1 57//1
f 63//3 64//3 49//3
f 62//7 39//7 38//7
f 47//1 54//1 55//1
f 86//7 79//7 78//7
f 43//1 58//1 59//1
f 94//7 71//7 70//7
f 88//4 87//4 90//10
f 66//7 51//7 50//7
f 44//2 42//2 43//8
f 56//4 55//4 58//10
f 76//2 74//2 75//8
f 68//4 67//4 54//4
f 52//5 39//5 62//5
f 55//3 56//3 44//3
f 79//1 86//1 87//1
f 90//7 75//7 74//7
f 54//7 47//7 46//7
f 91//3 92//3 72//3
f 75//1 90//1 91//1
f 87//3 88//3 76//3
f 59//3 60//3 40//3
f 84//5 71//5 94//5
f 98//7 83//7 82//7
f 58//7 43//7 42//7
f 99//3 100//3 80//3
f 83//1 98//1 99//1
f 95//3 96//3 81//3
f 49//1 64//1 65//1
f 100//4 99//4 86//11
f 76//1 88//1 89//1
f 48//2 46//2 47//9
f 51//1 66//1 67//1
usemtl glass
f 102//2 19//2 20//2
f 104//4 18//4 103//4
f 20//5 18//5 21//5
f 18//7 101//7 103//7
f 102//1 103//1 101//1
f 21//3 102//3 20//3
f 102//2 101//2 19//2
f 104//4 21//4 18//4
f 20//5 19//5 18//5
f 18//7 19//7 101//7
f 102//1 104//1 103//1
f 21//3 104//3 102//3
usemtl paint
f 117//3 116//3 113//3
f 108//1 111//1 106//1
f 120//4 118//4 119//4
f 110//7 106//7 111//7
f 116//1 119//1 114//1
f 116//2 115//2 113//2
f 108//2 107//2 105//2
f 105//5 110//5 109//5
f 112//4 110//4 111//4
f 109//3 108//3 105//3
f 113//5 118//5 117//5
f 118//7 114//7 119//7
f 117//3 120//3 116//3
f 108//1 112//1 111//1
f 120//4 117//4 118//4
f 110//7 107//7 106//7
f 116//1 120//1 119//1
f 116//2 114//2 115//2
f 108//2 106//2 107//2
f 105//5 107//5 110//5
f 112//4 109//4 110//4
f 109//3 112//3 108//3
f 113//5 115//5 118//5
f 118//7 115//7 114//7
