# Blender 5.2.1 LTS
# www.blender.org
mtllib window_small.mtl
o window_small
v -0.650000 0.100000 0.000000
v -0.650000 0.000000 0.000000
v 0.650000 0.000000 0.000000
v 0.650000 0.100000 0.000000
v -0.650000 0.085000 -0.180000
v 0.650000 0.085000 -0.180000
v -0.650000 0.070000 -0.180000
v 0.650000 0.070000 -0.180000
v -0.650000 0.070000 -0.150000
v 0.650000 0.070000 -0.150000
v -0.650000 0.000000 -0.150000
v 0.650000 0.000000 -0.150000
v -0.550000 1.500000 0.000000
v -0.550000 0.100000 -0.070000
v -0.550000 0.100000 0.000000
v -0.550000 1.500000 -0.070000
v 0.550000 0.100000 0.000000
v 0.450000 0.200000 0.000000
v -0.450000 0.200000 0.000000
v -0.450000 1.400000 0.000000
v 0.550000 1.500000 0.000000
v 0.450000 1.400000 0.000000
v 0.550000 1.500000 -0.070000
v 0.550000 0.100000 -0.070000
v -0.450000 0.200000 -0.070000
v 0.450000 0.200000 -0.070000
v -0.450000 1.400000 -0.070000
v 0.450000 1.400000 -0.070000
v -0.890000 0.500000 -0.030000
v -0.890000 0.200000 -0.050000
v -0.890000 0.200000 0.000000
v -0.890000 0.500000 -0.050000
v -0.890000 0.800000 -0.030000
v -0.890000 0.530000 -0.050000
v -0.890000 0.530000 -0.030000
v -0.890000 0.800000 -0.050000
v -0.890000 1.100000 -0.030000
v -0.890000 0.830000 -0.050000
v -0.890000 0.830000 -0.030000
v -0.890000 1.100000 -0.050000
v -0.890000 1.400000 -0.050000
v -0.890000 1.130000 -0.050000
v -0.890000 1.130000 -0.030000
v -0.890000 1.400000 0.000000
v -0.590000 0.830000 -0.050000
v -0.590000 0.830000 -0.030000
v -0.590000 0.800000 -0.030000
v -0.590000 0.800000 -0.050000
v -0.590000 0.530000 -0.050000
v -0.590000 0.530000 -0.030000
v -0.590000 0.500000 -0.030000
v -0.590000 0.500000 -0.050000
v -0.590000 0.200000 -0.050000
v -0.590000 0.200000 0.000000
v -0.590000 1.400000 0.000000
v -0.590000 1.400000 -0.050000
v -0.590000 1.130000 -0.050000
v -0.590000 1.130000 -0.030000
v -0.590000 1.100000 -0.030000
v -0.590000 1.100000 -0.050000
v 0.590000 0.500000 -0.030000
v 0.590000 0.200000 -0.050000
v 0.590000 0.200000 0.000000
v 0.590000 0.500000 -0.050000
v 0.590000 0.800000 -0.030000
v 0.590000 0.530000 -0.050000
v 0.590000 0.530000 -0.030000
v 0.590000 0.800000 -0.050000
v 0.590000 1.100000 -0.030000
v 0.590000 0.830000 -0.050000
v 0.590000 0.830000 -0.030000
v 0.590000 1.100000 -0.050000
v 0.590000 1.400000 -0.050000
v 0.590000 1.130000 -0.050000
v 0.590000 1.130000 -0.030000
v 0.590000 1.400000 0.000000
v 0.890000 0.830000 -0.050000
v 0.890000 0.830000 -0.030000
v 0.890000 0.800000 -0.030000
v 0.890000 0.800000 -0.050000
v 0.890000 0.530000 -0.050000
v 0.890000 0.530000 -0.030000
v 0.890000 0.500000 -0.030000
v 0.890000 0.500000 -0.050000
v 0.890000 0.200000 -0.050000
v 0.890000 0.200000 0.000000
v 0.890000 1.400000 0.000000
v 0.890000 1.400000 -0.050000
v 0.890000 1.130000 -0.050000
v 0.890000 1.130000 -0.030000
v 0.890000 1.100000 -0.030000
v 0.890000 1.100000 -0.050000
v -0.450000 0.200000 -0.020000
v -0.450000 1.400000 -0.020000
v 0.450000 0.200000 -0.020000
v 0.450000 1.400000 -0.020000
v -0.020000 1.400000 0.000000
v -0.020000 0.200000 -0.025000
v -0.020000 0.200000 0.000000
v -0.020000 1.400000 -0.025000
v 0.020000 1.400000 0.000000
v 0.020000 0.200000 0.000000
v 0.020000 0.200000 -0.025000
v 0.020000 1.400000 -0.025000
v -0.450000 0.820000 0.000000
v -0.450000 0.780000 -0.025000
v -0.450000 0.780000 0.000000
v -0.450000 0.820000 -0.025000
v 0.450000 0.820000 0.000000
v 0.450000 0.780000 0.000000
v 0.450000 0.780000 -0.025000
v 0.450000 0.820000 -0.025000
vn -0.0000 -0.0000 1.0000
vn -0.0000 -0.0000 -1.0000
vn 1.0000 -0.0000 -0.0000
vn -1.0000 -0.0000 -0.0000
vn -0.0000 -1.0000 -0.0000
vn 1.0000 -0.0000 -0.0001
vn -0.0000 0.9965 -0.0830
vn -1.0000 -0.0000 -0.0001
vn -0.0000 1.0000 -0.0000
s 1
usemtl trim
f 9//4 5//4 7//4
f 1//4 5//4 9//4
f 2//4 9//4 11//4
f 2//4 1//4 9//4
f 10//3 8//3 6//3
f 4//3 10//3 6//3
f 3//3 12//3 10//3
f 3//3 10//3 4//3
f 17//1 18//1 19//1
f 17//1 19//1 15//1
f 20//1 13//1 15//1
f 20//1 15//1 19//1
f 21//1 20//1 22//1
f 21//1 13//1 20//1
f 21//1 18//1 17//1
f 21//1 22//1 18//1
f 24//2 25//2 26//2
f 24//2 14//2 25//2
f 27//2 14//2 16//2
f 27//2 25//2 14//2
f 23//2 28//2 27//2
f 23//2 27//2 16//2
f 23//2 24//2 26//2
f 23//2 26//2 28//2
f 27//3 19//3 25//3
f 6//7 1//7 4//7
f 4//1 2//1 3//1
f 8//2 5//2 6//2
f 21//9 16//9 13//9
f 3//5 11//5 12//5
f 12//2 9//2 10//2
f 28//4 18//4 22//4
f 22//5 27//5 28//5
f 16//4 15//4 13//4
f 23//3 17//3 24//3
f 17//5 14//5 24//5
f 18//9 25//9 19//9
f 10//5 7//5 8//5
f 27//3 20//3 19//3
f 6//7 5//7 1//7
f 4//1 1//1 2//1
f 8//2 7//2 5//2
f 21//9 23//9 16//9
f 3//5 2//5 11//5
f 12//2 11//2 9//2
f 28//4 26//4 18//4
f 22//5 20//5 27//5
f 16//4 14//4 15//4
f 23//3 21//3 17//3
f 17//5 15//5 14//5
f 18//9 26//9 25//9
f 10//5 9//5 7//5
usemtl wood
f 67//2 83//2 61//2
f 60//3 46//3 45//3
f 75//2 91//2 69//2
f 43//2 59//2 37//2
f 78//5 70//5 77//5
f 71//2 79//2 65//2
f 39//2 47//2 33//2
f 46//5 38//5 45//5
f 92//3 78//6 77//3
f 44//1 54//1 55//1
f 29//4 30//4 31//4
f 29//4 32//4 30//4
f 40//4 39//8 37//4
f 48//3 50//3 49//3
f 41//4 42//4 43//4
f 44//4 41//4 43//4
f 44//4 29//4 31//4
f 44//4 35//4 29//4
f 44//4 33//4 35//4
f 44//4 39//8 33//4
f 44//4 37//4 39//8
f 44//4 43//4 37//4
f 36//2 49//2 34//2
f 68//4 67//4 65//4
f 59//9 40//9 37//9
f 32//2 53//2 30//2
f 83//9 64//9 61//9
f 41//2 57//2 42//2
f 91//9 72//9 69//9
f 51//3 54//3 53//3
f 51//3 53//3 52//3
f 36//4 35//4 33//4
f 56//3 58//3 57//3
f 55//3 58//3 56//3
f 55//3 54//3 51//3
f 55//3 51//3 50//3
f 55//3 50//3 47//3
f 55//3 47//3 46//3
f 55//3 46//3 59//3
f 55//3 59//3 58//3
f 61//4 62//4 63//4
f 61//4 64//4 62//4
f 72//4 71//4 69//4
f 73//4 74//4 75//4
f 76//4 73//4 75//4
f 76//4 61//4 63//4
f 76//4 67//4 61//4
f 76//4 65//4 67//4
f 76//4 71//4 65//4
f 76//4 69//4 71//4
f 76//4 75//4 69//4
f 50//5 34//5 49//5
f 79//9 68//9 65//9
f 47//9 36//9 33//9
f 82//5 66//5 81//5
f 68//2 81//2 66//2
f 40//2 45//2 38//2
f 54//5 30//5 53//5
f 64//2 85//2 62//2
f 87//9 73//9 76//9
f 51//9 32//9 29//9
f 90//5 74//5 89//5
f 73//2 89//2 74//2
f 83//3 86//3 85//3
f 83//3 85//3 84//3
f 86//5 62//5 85//5
f 88//3 90//3 89//3
f 87//3 90//3 88//3
f 87//3 86//3 83//3
f 87//3 83//3 82//3
f 87//3 82//3 79//3
f 87//3 79//3 78//6
f 87//3 78//6 91//3
f 87//3 91//3 90//3
f 58//5 42//5 57//5
f 72//2 77//2 70//2
f 55//9 41//9 44//9
f 80//3 82//3 81//3
f 76//1 86//1 87//1
f 35//2 51//2 29//2
f 67//2 82//2 83//2
f 60//3 59//3 46//3
f 75//2 90//2 91//2
f 43//2 58//2 59//2
f 78//5 71//5 70//5
f 71//2 78//2 79//2
f 39//2 46//2 47//2
f 46//5 39//5 38//5
f 92//3 91//3 78//6
f 44//1 31//1 54//1
f 40//4 38//4 39//8
f 48//3 47//3 50//3
f 36//2 48//2 49//2
f 68//4 66//4 67//4
f 59//9 60//9 40//9
f 32//2 52//2 53//2
f 83//9 84//9 64//9
f 41//2 56//2 57//2
f 91//9 92//9 72//9
f 36//4 34//4 35//4
f 72//4 70//4 71//4
f 50//5 35//5 34//5
f 79//9 80//9 68//9
f 47//9 48//9 36//9
f 82//5 67//5 66//5
f 68//2 80//2 81//2
f 40//2 60//2 45//2
f 54//5 31//5 30//5
f 64//2 84//2 85//2
f 87//9 88//9 73//9
f 51//9 52//9 32//9
f 90//5 75//5 74//5
f 73//2 88//2 89//2
f 86//5 63//5 62//5
f 58//5 43//5 42//5
f 72//2 92//2 77//2
f 55//9 56//9 41//9
f 80//3 79//3 82//3
f 76//1 63//1 86//1
f 35//2 50//2 51//2
usemtl glass
f 96//3 18//3 95//3
f 20//1 18//1 22//1
f 94//4 19//4 20//4
f 94//2 95//2 93//2
f 18//5 93//5 95//5
f 22//9 94//9 20//9
f 96//3 22//3 18//3
f 20//1 19//1 18//1
f 94//4 93//4 19//4
f 94//2 96//2 95//2
f 18//5 19//5 93//5
f 22//9 96//9 94//9
usemtl paint
f 97//1 102//1 101//1
f 108//2 111//2 106//2
f 100//2 103//2 98//2
f 110//5 106//5 111//5
f 109//9 108//9 105//9
f 101//9 100//9 97//9
f 108//4 107//4 105//4
f 104//3 102//3 103//3
f 100//4 99//4 97//4
f 102//5 98//5 103//5
f 105//1 110//1 109//1
f 112//3 110//3 111//3
f 97//1 99//1 102//1
f 108//2 112//2 111//2
f 100//2 104//2 103//2
f 110//5 107//5 106//5
f 109//9 112//9 108//9
f 101//9 104//9 100//9
f 108//4 106//4 107//4
f 104//3 101//3 102//3
f 100//4 98//4 99//4
f 102//5 99//5 98//5
f 105//1 107//1 110//1
f 112//3 109//3 110//3
