# generated primitive for the world editor (tint it with the piece colour)
mtllib paint.mtl
v 0.5000 0.0000 0.0000
v 0.4330 0.0000 0.2500
v 0.2500 0.0000 0.4330
v 0.0000 0.0000 0.5000
v -0.2500 0.0000 0.4330
v -0.4330 0.0000 0.2500
v -0.5000 0.0000 0.0000
v -0.4330 0.0000 -0.2500
v -0.2500 0.0000 -0.4330
v -0.0000 0.0000 -0.5000
v 0.2500 0.0000 -0.4330
v 0.4330 0.0000 -0.2500
v 0.5000 1.0000 0.0000
v 0.4330 1.0000 0.2500
v 0.2500 1.0000 0.4330
v 0.0000 1.0000 0.5000
v -0.2500 1.0000 0.4330
v -0.4330 1.0000 0.2500
v -0.5000 1.0000 0.0000
v -0.4330 1.0000 -0.2500
v -0.2500 1.0000 -0.4330
v -0.0000 1.0000 -0.5000
v 0.2500 1.0000 -0.4330
v 0.4330 1.0000 -0.2500
v 0.0000 0.0000 0.0000
v 0.0000 1.0000 0.0000
usemtl paint
f 1 13 14 2
f 25 2 1
f 26 13 14
f 2 14 15 3
f 25 3 2
f 26 14 15
f 3 15 16 4
f 25 4 3
f 26 15 16
f 4 16 17 5
f 25 5 4
f 26 16 17
f 5 17 18 6
f 25 6 5
f 26 17 18
f 6 18 19 7
f 25 7 6
f 26 18 19
f 7 19 20 8
f 25 8 7
f 26 19 20
f 8 20 21 9
f 25 9 8
f 26 20 21
f 9 21 22 10
f 25 10 9
f 26 21 22
f 10 22 23 11
f 25 11 10
f 26 22 23
f 11 23 24 12
f 25 12 11
f 26 23 24
f 12 24 13 1
f 25 1 12
f 26 24 13
