# generated primitive for the world editor (tint it with the piece colour)
mtllib paint.mtl
v 0.0000 0.0000 0.0000
v 0.0000 0.0000 0.0000
v 0.0000 0.0000 0.0000
v 0.0000 0.0000 0.0000
v -0.0000 0.0000 0.0000
v -0.0000 0.0000 0.0000
v -0.0000 0.0000 0.0000
v -0.0000 0.0000 -0.0000
v -0.0000 0.0000 -0.0000
v -0.0000 0.0000 -0.0000
v 0.0000 0.0000 -0.0000
v 0.0000 0.0000 -0.0000
v 0.2500 0.0670 0.0000
v 0.2165 0.0670 0.1250
v 0.1250 0.0670 0.2165
v 0.0000 0.0670 0.2500
v -0.1250 0.0670 0.2165
v -0.2165 0.0670 0.1250
v -0.2500 0.0670 0.0000
v -0.2165 0.0670 -0.1250
v -0.1250 0.0670 -0.2165
v -0.0000 0.0670 -0.2500
v 0.1250 0.0670 -0.2165
v 0.2165 0.0670 -0.1250
v 0.4330 0.2500 0.0000
v 0.3750 0.2500 0.2165
v 0.2165 0.2500 0.3750
v 0.0000 0.2500 0.4330
v -0.2165 0.2500 0.3750
v -0.3750 0.2500 0.2165
v -0.4330 0.2500 0.0000
v -0.3750 0.2500 -0.2165
v -0.2165 0.2500 -0.3750
v -0.0000 0.2500 -0.4330
v 0.2165 0.2500 -0.3750
v 0.3750 0.2500 -0.2165
v 0.5000 0.5000 0.0000
v 0.4330 0.5000 0.2500
v 0.2500 0.5000 0.4330
v 0.0000 0.5000 0.5000
v -0.2500 0.5000 0.4330
v -0.4330 0.5000 0.2500
v -0.5000 0.5000 0.0000
v -0.4330 0.5000 -0.2500
v -0.2500 0.5000 -0.4330
v -0.0000 0.5000 -0.5000
v 0.2500 0.5000 -0.4330
v 0.4330 0.5000 -0.2500
v 0.4330 0.7500 0.0000
v 0.3750 0.7500 0.2165
v 0.2165 0.7500 0.3750
v 0.0000 0.7500 0.4330
v -0.2165 0.7500 0.3750
v -0.3750 0.7500 0.2165
v -0.4330 0.7500 0.0000
v -0.3750 0.7500 -0.2165
v -0.2165 0.7500 -0.3750
v -0.0000 0.7500 -0.4330
v 0.2165 0.7500 -0.3750
v 0.3750 0.7500 -0.2165
v 0.2500 0.9330 0.0000
v 0.2165 0.9330 0.1250
v 0.1250 0.9330 0.2165
v 0.0000 0.9330 0.2500
v -0.1250 0.9330 0.2165
v -0.2165 0.9330 0.1250
v -0.2500 0.9330 0.0000
v -0.2165 0.9330 -0.1250
v -0.1250 0.9330 -0.2165
v -0.0000 0.9330 -0.2500
v 0.1250 0.9330 -0.2165
v 0.2165 0.9330 -0.1250
v 0.0000 1.0000 0.0000
v 0.0000 1.0000 0.0000
v 0.0000 1.0000 0.0000
v 0.0000 1.0000 0.0000
v -0.0000 1.0000 0.0000
v -0.0000 1.0000 0.0000
v -0.0000 1.0000 0.0000
v -0.0000 1.0000 -0.0000
v -0.0000 1.0000 -0.0000
v -0.0000 1.0000 -0.0000
v 0.0000 1.0000 -0.0000
v 0.0000 1.0000 -0.0000
usemtl paint
f 1 14 13
f 1 2 14
f 2 15 14
f 2 3 15
f 3 16 15
f 3 4 16
f 4 17 16
f 4 5 17
f 5 18 17
f 5 6 18
f 6 19 18
f 6 7 19
f 7 20 19
f 7 8 20
f 8 21 20
f 8 9 21
f 9 22 21
f 9 10 22
f 10 23 22
f 10 11 23
f 11 24 23
f 11 12 24
f 12 13 24
f 12 1 13
f 13 26 25
f 13 14 26
f 14 27 26
f 14 15 27
f 15 28 27
f 15 16 28
f 16 29 28
f 16 17 29
f 17 30 29
f 17 18 30
f 18 31 30
f 18 19 31
f 19 32 31
f 19 20 32
f 20 33 32
f 20 21 33
f 21 34 33
f 21 22 34
f 22 35 34
f 22 23 35
f 23 36 35
f 23 24 36
f 24 25 36
f 24 13 25
f 25 38 37
f 25 26 38
f 26 39 38
f 26 27 39
f 27 40 39
f 27 28 40
f 28 41 40
f 28 29 41
f 29 42 41
f 29 30 42
f 30 43 42
f 30 31 43
f 31 44 43
f 31 32 44
f 32 45 44
f 32 33 45
f 33 46 45
f 33 34 46
f 34 47 46
f 34 35 47
f 35 48 47
f 35 36 48
f 36 37 48
f 36 25 37
f 37 50 49
f 37 38 50
f 38 51 50
f 38 39 51
f 39 52 51
f 39 40 52
f 40 53 52
f 40 41 53
f 41 54 53
f 41 42 54
f 42 55 54
f 42 43 55
f 43 56 55
f 43 44 56
f 44 57 56
f 44 45 57
f 45 58 57
f 45 46 58
f 46 59 58
f 46 47 59
f 47 60 59
f 47 48 60
f 48 49 60
f 48 37 49
f 49 62 61
f 49 50 62
f 50 63 62
f 50 51 63
f 51 64 63
f 51 52 64
f 52 65 64
f 52 53 65
f 53 66 65
f 53 54 66
f 54 67 66
f 54 55 67
f 55 68 67
f 55 56 68
f 56 69 68
f 56 57 69
f 57 70 69
f 57 58 70
f 58 71 70
f 58 59 71
f 59 72 71
f 59 60 72
f 60 61 72
f 60 49 61
f 61 74 73
f 61 62 74
f 62 75 74
f 62 63 75
f 63 76 75
f 63 64 76
f 64 77 76
f 64 65 77
f 65 78 77
f 65 66 78
f 66 79 78
f 66 67 79
f 67 80 79
f 67 68 80
f 68 81 80
f 68 69 81
f 69 82 81
f 69 70 82
f 70 83 82
f 70 71 83
f 71 84 83
f 71 72 84
f 72 73 84
f 72 61 73
