# Blender 5.2.1 LTS
# www.blender.org
mtllib bunkhouse_wall.mtl
o bunkhouse_wall
v -8.000000 1.550000 -0.357500
v -8.000000 3.400000 -3.000000
v -8.000000 0.400000 -3.000000
v -8.000000 1.550000 0.357500
v -8.000000 2.395000 -0.357500
v -8.000000 0.400000 3.000000
v -8.000000 3.400000 3.000000
v -8.000000 2.395000 0.357500
v -7.954500 2.395000 0.357500
v -7.954500 2.395000 -0.357500
v -7.954500 2.330000 0.292500
v -7.954500 1.550000 0.292500
v -7.954500 1.550000 0.357500
v -7.954500 2.330000 -0.292500
v -7.954500 1.550000 -0.357500
v -7.954500 1.550000 -0.292500
v -7.780000 2.330000 -0.292500
v -7.780000 1.550000 -0.292500
v -7.780000 0.400000 -2.780000
v -7.780000 3.400000 -2.780000
v -7.780000 1.550000 0.292500
v -7.780000 2.330000 0.292500
v -7.780000 0.400000 2.780000
v -7.780000 3.400000 2.780000
v -6.500000 2.750000 -2.780000
v -6.500000 0.400000 -2.780000
v -4.721000 1.500000 -2.780000
v -5.279000 1.500000 -2.780000
v -5.500000 0.400000 -2.780000
v -5.500000 2.750000 -2.780000
v -4.721000 2.244000 -2.780000
v -5.279000 2.244000 -2.780000
v -2.500000 0.400000 -2.780000
v -2.500000 2.750000 -2.780000
v -0.721000 1.500000 -2.780000
v -1.279000 1.500000 -2.780000
v -1.500000 0.400000 -2.780000
v -0.721000 2.244000 -2.780000
v -1.500000 2.750000 -2.780000
v -1.279000 2.244000 -2.780000
v 1.500000 0.400000 -2.780000
v 1.500000 2.750000 -2.780000
v 3.279000 1.500000 -2.780000
v 2.721000 1.500000 -2.780000
v 2.500000 0.400000 -2.780000
v 3.279000 2.244000 -2.780000
v 2.500000 2.750000 -2.780000
v 2.721000 2.244000 -2.780000
v 5.500000 0.400000 -2.780000
v 5.500000 2.750000 -2.780000
v 7.279000 1.500000 -2.780000
v 6.721000 1.500000 -2.780000
v 6.500000 0.400000 -2.780000
v 7.780000 0.400000 -2.780000
v 7.279000 2.244000 -2.780000
v 6.500000 2.750000 -2.780000
v 6.721000 2.244000 -2.780000
v 7.780000 3.400000 -2.780000
v 7.279000 1.500000 -2.956600
v 7.341000 1.500000 -2.956600
v 7.341000 1.500000 -3.000000
v 6.721000 1.500000 -2.956600
v 6.659000 1.500000 -3.000000
v 6.659000 1.500000 -2.956600
v 6.721000 2.244000 -2.956600
v 6.659000 2.306000 -2.956600
v 7.279000 2.244000 -2.956600
v 7.341000 2.306000 -2.956600
v 7.341000 2.306000 -3.000000
v 6.659000 2.306000 -3.000000
v 3.279000 1.500000 -2.956600
v 3.279000 2.244000 -2.956600
v 2.721000 2.244000 -2.956600
v 2.721000 1.500000 -2.956600
v 2.659000 1.500000 -2.956600
v 2.659000 2.306000 -2.956600
v 3.341000 1.500000 -2.956600
v 3.341000 2.306000 -2.956600
v 2.659000 2.306000 -3.000000
v 2.659000 1.500000 -3.000000
v 3.341000 2.306000 -3.000000
v 3.341000 1.500000 -3.000000
v -0.721000 1.500000 -2.956600
v -0.721000 2.244000 -2.956600
v -1.279000 2.244000 -2.956600
v -1.279000 1.500000 -2.956600
v -1.341000 1.500000 -2.956600
v -1.341000 2.306000 -2.956600
v -0.659000 1.500000 -2.956600
v -0.659000 2.306000 -2.956600
v -1.341000 2.306000 -3.000000
v -1.341000 1.500000 -3.000000
v -0.659000 2.306000 -3.000000
v -0.659000 1.500000 -3.000000
v -4.721000 1.500000 -2.956600
v -4.721000 2.244000 -2.956600
v -5.279000 2.244000 -2.956600
v -5.279000 1.500000 -2.956600
v -5.341000 1.500000 -2.956600
v -5.341000 2.306000 -2.956600
v -4.659000 1.500000 -2.956600
v -4.659000 2.306000 -2.956600
v -5.341000 2.306000 -3.000000
v -5.341000 1.500000 -3.000000
v -4.659000 2.306000 -3.000000
v -4.659000 1.500000 -3.000000
v -1.500000 0.400000 -2.940000
v -1.500000 2.750000 -2.940000
v -2.500000 2.750000 -2.940000
v -2.500000 0.400000 -2.940000
v -2.600000 0.400000 -2.940000
v -2.600000 2.850000 -2.940000
v -1.400000 0.400000 -2.940000
v -1.400000 2.850000 -2.940000
v -2.600000 2.850000 -3.000000
v -2.600000 0.400000 -3.000000
v -1.400000 2.850000 -3.000000
v -1.400000 0.400000 -3.000000
v 1.400000 0.400000 -2.940000
v 1.400000 0.400000 -3.000000
v 1.500000 0.400000 -2.940000
v 1.500000 2.750000 -2.940000
v 1.400000 2.850000 -2.940000
v 2.500000 2.750000 -2.940000
v 2.600000 0.400000 -2.940000
v 2.500000 0.400000 -2.940000
v 2.600000 2.850000 -2.940000
v 2.600000 2.850000 -3.000000
v 1.400000 2.850000 -3.000000
v 2.600000 0.400000 -3.000000
v -5.400000 0.400000 -2.940000
v -5.500000 0.400000 -2.940000
v -5.400000 0.400000 -3.000000
v -5.400000 2.850000 -2.940000
v -5.400000 2.850000 -3.000000
v -6.600000 2.850000 -2.940000
v -6.600000 2.850000 -3.000000
v -6.600000 0.400000 -2.940000
v -6.600000 0.400000 -3.000000
v -6.500000 2.750000 -2.940000
v -6.500000 0.400000 -2.940000
v -5.500000 2.750000 -2.940000
v 5.400000 0.400000 -2.940000
v 5.400000 0.400000 -3.000000
v 5.500000 0.400000 -2.940000
v 5.500000 2.750000 -2.940000
v 5.400000 2.850000 -2.940000
v 6.500000 2.750000 -2.940000
v 6.600000 0.400000 -2.940000
v 6.500000 0.400000 -2.940000
v 6.600000 2.850000 -2.940000
v 6.600000 2.850000 -3.000000
v 5.400000 2.850000 -3.000000
v 6.600000 0.400000 -3.000000
v 7.780000 1.550000 -0.292500
v 7.780000 1.550000 0.292500
v 7.780000 2.330000 -0.292500
v 7.780000 0.400000 2.780000
v 7.780000 3.400000 2.780000
v 7.780000 2.330000 0.292500
v 7.954500 1.550000 0.292500
v 7.954500 1.550000 0.357500
v 8.000000 1.550000 0.357500
v 7.954500 1.550000 -0.292500
v 8.000000 1.550000 -0.357500
v 7.954500 1.550000 -0.357500
v 7.954500 2.330000 -0.292500
v 7.954500 2.395000 -0.357500
v 7.954500 2.330000 0.292500
v 7.954500 2.395000 0.357500
v 8.000000 2.395000 0.357500
v 8.000000 2.395000 -0.357500
v 8.000000 0.400000 -3.000000
v 8.000000 3.400000 -3.000000
v 8.000000 0.400000 3.000000
v 8.000000 3.400000 3.000000
vn -1.0000 -0.0000 -0.0000
vn 1.0000 -0.0000 -0.0000
vn -0.0000 -1.0000 -0.0000
vn -0.0000 -0.0000 1.0000
vn -0.0000 1.0000 -0.0000
vn -0.0000 -0.0000 -1.0000
s 1
usemtl paint
f 1//1 2//1 3//1
f 4//1 1//1 3//1
f 5//1 2//1 1//1
f 6//1 4//1 3//1
f 7//1 8//1 4//1
f 7//1 5//1 8//1
f 7//1 4//1 6//1
f 7//1 2//1 5//1
f 25//2 141//2 140//2
f 11//1 12//1 13//1
f 11//1 13//1 9//1
f 14//1 15//1 16//1
f 10//1 14//1 11//1
f 10//1 11//1 9//1
f 10//1 15//1 14//1
f 111//3 133//3 116//3
f 18//2 19//2 20//2
f 21//2 19//2 18//2
f 17//2 18//2 20//2
f 22//2 17//2 20//2
f 23//2 19//2 21//2
f 24//2 21//2 22//2
f 24//2 23//2 21//2
f 24//2 22//2 20//2
f 25//4 19//4 26//4
f 25//4 20//4 19//4
f 27//4 28//4 29//4
f 30//4 20//4 25//4
f 31//4 30//4 32//4
f 33//4 27//4 29//4
f 34//4 31//4 27//4
f 34//4 27//4 33//4
f 34//4 20//4 30//4
f 34//4 30//4 31//4
f 35//4 36//4 37//4
f 38//4 39//4 40//4
f 41//4 35//4 37//4
f 42//4 38//4 35//4
f 42//4 35//4 41//4
f 42//4 39//4 38//4
f 43//4 44//4 45//4
f 46//4 47//4 48//4
f 49//4 43//4 45//4
f 50//4 46//4 43//4
f 50//4 47//4 46//4
f 50//4 43//4 49//4
f 51//4 52//4 53//4
f 51//4 53//4 54//4
f 55//4 51//4 54//4
f 55//4 56//4 57//4
f 58//4 50//4 56//4
f 58//4 47//4 50//4
f 58//4 56//4 55//4
f 58//4 55//4 54//4
f 53//4 57//4 56//4
f 53//4 52//4 57//4
f 45//4 48//4 47//4
f 45//4 44//4 48//4
f 37//4 40//4 39//4
f 37//4 36//4 40//4
f 29//4 32//4 30//4
f 29//4 28//4 32//4
f 20//4 47//4 58//4
f 20//4 42//4 47//4
f 20//4 39//4 42//4
f 20//4 34//4 39//4
f 59//5 60//5 61//5
f 113//1 117//1 118//1
f 63//5 64//5 62//5
f 63//5 59//5 61//5
f 63//5 62//5 59//5
f 65//6 62//6 64//6
f 65//6 64//6 66//6
f 67//6 60//6 59//6
f 68//6 67//6 65//6
f 68//6 65//6 66//6
f 68//6 60//6 67//6
f 157//4 164//4 167//4
f 143//3 130//3 144//3
f 32//2 98//2 97//2
f 22//6 12//6 11//6
f 125//1 128//1 130//1
f 88//2 92//2 91//2
f 17//3 11//3 14//3
f 73//6 74//6 75//6
f 73//6 75//6 76//6
f 72//6 77//6 71//6
f 78//6 72//6 73//6
f 78//6 73//6 76//6
f 78//6 77//6 72//6
f 46//3 73//3 72//3
f 50//2 145//2 146//2
f 102//3 103//3 105//3
f 18//4 14//4 16//4
f 71//5 77//5 82//5
f 48//2 74//2 73//2
f 80//5 75//5 74//5
f 80//5 71//5 82//5
f 80//5 74//5 71//5
f 68//3 70//3 69//3
f 47//3 122//3 124//3
f 85//6 86//6 87//6
f 85//6 87//6 88//6
f 84//6 89//6 83//6
f 90//6 84//6 85//6
f 90//6 85//6 88//6
f 90//6 89//6 84//6
f 52//5 59//5 62//5
f 89//1 93//1 94//1
f 55//3 65//3 67//3
f 39//3 109//3 108//3
f 83//5 89//5 94//5
f 21//5 16//5 12//5
f 92//5 87//5 86//5
f 92//5 83//5 94//5
f 92//5 86//5 83//5
f 27//1 96//1 95//1
f 66//2 63//2 70//2
f 97//6 98//6 99//6
f 97//6 99//6 100//6
f 96//6 101//6 95//6
f 102//6 96//6 97//6
f 102//6 97//6 100//6
f 102//6 101//6 96//6
f 131//1 135//1 133//1
f 60//1 69//1 61//1
f 112//2 116//2 115//2
f 101//1 105//1 106//1
f 95//5 101//5 106//5
f 151//3 153//3 152//3
f 104//5 99//5 98//5
f 104//5 95//5 106//5
f 104//5 98//5 95//5
f 76//2 80//2 79//2
f 119//3 118//3 120//3
f 109//6 110//6 111//6
f 109//6 111//6 112//6
f 108//6 113//6 107//6
f 114//6 108//6 109//6
f 114//6 109//6 112//6
f 114//6 113//6 108//6
f 10//3 8//3 5//3
f 155//5 161//5 164//5
f 44//5 71//5 74//5
f 37//1 108//1 107//1
f 113//3 37//3 107//3
f 119//3 41//3 37//3
f 119//3 37//3 113//3
f 114//3 115//3 117//3
f 121//3 41//3 119//3
f 122//6 121//6 119//6
f 122//6 119//6 123//6
f 124//6 125//6 126//6
f 127//6 124//6 122//6
f 127//6 122//6 123//6
f 127//6 125//6 124//6
f 43//1 72//1 71//1
f 57//2 62//2 65//2
f 38//3 85//3 84//3
f 156//6 169//6 161//6
f 123//2 120//2 129//2
f 131//3 29//3 132//3
f 111//3 33//3 29//3
f 111//3 29//3 131//3
f 90//3 91//3 93//3
f 110//3 33//3 111//3
f 42//2 121//2 122//2
f 136//2 139//2 137//2
f 34//2 110//2 109//2
f 140//6 141//6 138//6
f 136//6 140//6 138//6
f 142//6 131//6 132//6
f 134//6 142//6 140//6
f 134//6 140//6 136//6
f 134//6 131//6 142//6
f 24//6 158//6 23//6
f 100//2 104//2 103//2
f 134//3 137//3 135//3
f 29//1 142//1 132//1
f 125//3 45//3 126//3
f 143//3 49//3 45//3
f 143//3 45//3 125//3
f 40//2 86//2 85//2
f 145//3 49//3 143//3
f 146//6 145//6 143//6
f 147//6 146//6 143//6
f 148//6 149//6 150//6
f 151//6 148//6 146//6
f 151//6 146//6 147//6
f 151//6 149//6 148//6
f 30//3 140//3 142//3
f 45//1 124//1 126//1
f 168//4 165//4 172//4
f 77//1 81//1 82//1
f 28//5 95//5 98//5
f 149//1 152//1 154//1
f 78//3 79//3 81//3
f 155//1 58//1 54//1
f 156//1 155//1 54//1
f 157//1 58//1 155//1
f 158//1 156//1 54//1
f 159//1 160//1 156//1
f 159//1 157//1 160//1
f 159//1 156//1 158//1
f 159//1 58//1 157//1
f 161//5 162//5 163//5
f 56//3 146//3 148//3
f 165//5 166//5 164//5
f 165//5 161//5 163//5
f 165//5 164//5 161//5
f 167//2 164//2 166//2
f 167//2 166//2 168//2
f 169//2 162//2 161//2
f 170//2 169//2 167//2
f 170//2 167//2 168//2
f 170//2 162//2 169//2
f 147//2 144//2 153//2
f 15//4 5//4 1//4
f 165//2 173//2 174//2
f 163//2 173//2 165//2
f 172//2 165//2 174//2
f 171//2 172//2 174//2
f 175//2 173//2 163//2
f 176//2 163//2 171//2
f 176//2 175//2 163//2
f 176//2 171//2 174//2
f 162//6 171//6 163//6
f 170//3 172//3 171//3
f 31//3 97//3 96//3
f 35//1 84//1 83//1
f 53//1 148//1 150//1
f 160//3 167//3 169//3
f 127//3 129//3 128//3
f 16//5 15//5 1//5
f 51//1 67//1 59//1
f 4//5 13//5 12//5
f 4//5 12//5 1//5
f 12//5 16//5 1//5
f 9//6 4//6 8//6
f 2//5 24//5 20//5
f 2//5 7//5 24//5
f 176//5 24//5 7//5
f 159//5 24//5 176//5
f 58//5 159//5 176//5
f 174//5 58//5 176//5
f 174//5 2//5 58//5
f 58//5 2//5 20//5
f 137//6 139//6 3//6
f 137//6 3//6 2//6
f 106//6 133//6 104//6
f 135//6 137//6 2//6
f 105//6 103//6 135//6
f 116//6 133//6 106//6
f 115//6 106//6 105//6
f 115//6 116//6 106//6
f 115//6 105//6 135//6
f 94//6 118//6 92//6
f 93//6 91//6 117//6
f 120//6 118//6 94//6
f 129//6 94//6 93//6
f 129//6 120//6 94//6
f 129//6 93//6 117//6
f 82//6 130//6 80//6
f 81//6 79//6 128//6
f 144//6 130//6 82//6
f 153//6 82//6 81//6
f 153//6 81//6 128//6
f 153//6 144//6 82//6
f 61//6 154//6 63//6
f 61//6 173//6 154//6
f 69//6 70//6 152//6
f 174//6 153//6 128//6
f 174//6 152//6 153//6
f 174//6 173//6 61//6
f 174//6 69//6 152//6
f 174//6 61//6 69//6
f 2//6 174//6 128//6
f 2//6 128//6 129//6
f 2//6 129//6 117//6
f 2//6 117//6 115//6
f 2//6 115//6 135//6
f 154//6 152//6 70//6
f 154//6 70//6 63//6
f 130//6 128//6 79//6
f 130//6 79//6 80//6
f 118//6 117//6 91//6
f 118//6 91//6 92//6
f 133//6 135//6 103//6
f 133//6 103//6 104//6
f 3//3 19//3 23//3
f 3//3 23//3 6//3
f 138//3 26//3 19//3
f 139//3 19//3 3//3
f 139//3 138//3 19//3
f 141//3 26//3 138//3
f 175//3 23//3 158//3
f 175//3 6//3 23//3
f 149//3 53//3 150//3
f 54//3 149//3 154//3
f 54//3 53//3 149//3
f 54//3 175//3 158//3
f 173//3 54//3 154//3
f 173//3 175//3 54//3
f 36//5 83//5 86//5
f 7//4 175//4 176//4
f 25//2 26//2 141//2
f 111//3 131//3 133//3
f 113//1 114//1 117//1
f 157//4 155//4 164//4
f 143//3 125//3 130//3
f 32//2 28//2 98//2
f 22//6 21//6 12//6
f 125//1 127//1 128//1
f 88//2 87//2 92//2
f 17//3 22//3 11//3
f 46//3 48//3 73//3
f 50//2 49//2 145//2
f 102//3 100//3 103//3
f 18//4 17//4 14//4
f 48//2 44//2 74//2
f 68//3 66//3 70//3
f 47//3 42//3 122//3
f 52//5 51//5 59//5
f 89//1 90//1 93//1
f 55//3 57//3 65//3
f 39//3 34//3 109//3
f 21//5 18//5 16//5
f 27//1 31//1 96//1
f 66//2 64//2 63//2
f 131//1 134//1 135//1
f 60//1 68//1 69//1
f 112//2 111//2 116//2
f 101//1 102//1 105//1
f 151//3 147//3 153//3
f 76//2 75//2 80//2
f 119//3 113//3 118//3
f 10//3 9//3 8//3
f 155//5 156//5 161//5
f 44//5 43//5 71//5
f 37//1 39//1 108//1
f 114//3 112//3 115//3
f 43//1 46//1 72//1
f 57//2 52//2 62//2
f 38//3 40//3 85//3
f 156//6 160//6 169//6
f 123//2 119//2 120//2
f 90//3 88//3 91//3
f 42//2 41//2 121//2
f 136//2 138//2 139//2
f 34//2 33//2 110//2
f 24//6 159//6 158//6
f 100//2 99//2 104//2
f 134//3 136//3 137//3
f 29//1 30//1 142//1
f 40//2 36//2 86//2
f 30//3 25//3 140//3
f 45//1 47//1 124//1
f 168//4 166//4 165//4
f 77//1 78//1 81//1
f 28//5 27//5 95//5
f 149//1 151//1 152//1
f 78//3 76//3 79//3
f 56//3 50//3 146//3
f 147//2 143//2 144//2
f 15//4 10//4 5//4
f 162//6 170//6 171//6
f 170//3 168//3 172//3
f 31//3 32//3 97//3
f 35//1 38//1 84//1
f 53//1 56//1 148//1
f 160//3 157//3 167//3
f 127//3 123//3 129//3
f 51//1 55//1 67//1
f 9//6 13//6 4//6
f 36//5 35//5 83//5
f 7//4 6//4 175//4
