# Blender 5.2.1 LTS
# www.blender.org
mtllib bunkhouse_roof.mtl
o bunkhouse_roof
v -8.500000 4.641459 -3.800000
v 8.500000 3.541459 3.800000
v 8.500000 4.641459 -3.800000
v -8.500000 3.541459 3.800000
v -8.500000 3.400000 3.800000
v 8.500000 3.400000 3.800000
v -8.500000 4.500000 -3.800000
v 8.500000 4.500000 -3.800000
vn -0.0000 -0.0000 1.0000
vn -0.0000 -0.9897 -0.1432
vn -0.0000 0.9897 0.1432
vn -1.0000 -0.0000 -0.0000
vn 1.0000 -0.0000 -0.0000
vn -0.0000 -0.0000 -1.0000
s 1
usemtl paint
f 6//1 4//1 5//1
f 8//2 5//2 7//2
f 2//3 1//3 4//3
f 4//4 7//4 5//4
f 4//4 1//4 7//4
f 2//5 6//5 8//5
f 2//5 8//5 3//5
f 3//6 7//6 1//6
f 6//1 2//1 4//1
f 8//2 6//2 5//2
f 2//3 3//3 1//3
f 3//6 8//6 7//6
