# Blender 5.2.1 LTS
# www.blender.org
mtllib bunkhouse_trim.mtl
o bunkhouse_trim
v -8.500000 4.500000 -3.680000
v -8.500000 4.500000 -3.920000
v -8.500000 4.392000 -3.920000
v -8.500000 4.320000 -3.848000
v -8.500000 4.320000 -3.680000
v 8.500000 4.500000 -3.920000
v 8.500000 4.392000 -3.920000
v 8.500000 4.320000 -3.848000
v 8.500000 4.500000 -3.680000
v 8.500000 4.320000 -3.680000
v -8.500000 3.400000 3.680000
v -8.500000 3.220000 3.680000
v -8.500000 3.220000 3.848000
v -8.500000 3.292000 3.920000
v -8.500000 3.400000 3.920000
v 8.500000 3.400000 3.920000
v 8.500000 3.292000 3.920000
v 8.500000 3.220000 3.848000
v 8.500000 3.400000 3.680000
v 8.500000 3.220000 3.680000
vn -1.0000 -0.0000 -0.0000
vn -0.0000 -0.0000 1.0000
vn -0.0000 1.0000 -0.0000
vn -0.0000 -1.0000 -0.0000
vn -0.0000 -0.0000 -1.0000
vn -0.0000 -0.7071 -0.7071
vn 1.0000 -0.0000 -0.0000
vn -0.0000 -0.7071 0.7071
s 1
usemtl paint
f 1//1 2//1 3//1
f 1//1 4//1 5//1
f 1//1 3//1 4//1
f 1//2 10//2 9//2
f 16//3 11//3 15//3
f 10//4 4//4 8//4
f 2//5 7//5 3//5
f 4//6 7//6 8//6
f 9//7 7//7 6//7
f 9//7 10//7 8//7
f 9//7 8//7 7//7
f 11//1 12//1 13//1
f 14//1 11//1 13//1
f 15//1 11//1 14//1
f 18//4 12//4 20//4
f 15//2 17//2 16//2
f 17//8 13//8 18//8
f 9//3 2//3 1//3
f 19//7 18//7 20//7
f 17//7 18//7 19//7
f 16//7 17//7 19//7
f 11//5 20//5 12//5
f 1//2 5//2 10//2
f 16//3 19//3 11//3
f 10//4 5//4 4//4
f 2//5 6//5 7//5
f 4//6 3//6 7//6
f 18//4 13//4 12//4
f 15//2 14//2 17//2
f 17//8 14//8 13//8
f 9//3 6//3 2//3
f 11//5 19//5 20//5
