# Blender 5.2.1 LTS
# www.blender.org
mtllib bunkhouse_floor.mtl
o bunkhouse_floor
v -8.100000 0.400000 3.100000
v -8.100000 0.000000 -3.100000
v -8.100000 0.000000 3.100000
v -8.100000 0.400000 -3.100000
v 8.100000 0.400000 3.100000
v 8.100000 0.000000 3.100000
v 8.100000 0.000000 -3.100000
v 8.100000 0.400000 -3.100000
v -8.500000 0.370000 -3.100000
v -8.500000 0.220000 -5.100000
v -8.500000 0.220000 -3.100000
v -8.500000 0.370000 -5.100000
v 8.500000 0.370000 -3.100000
v 8.500000 0.220000 -3.100000
v -8.470000 0.400000 -5.070000
v -8.470000 0.400000 -3.130000
v 8.500000 0.220000 -5.100000
v 8.500000 0.370000 -5.100000
v 8.470000 0.400000 -3.130000
v 8.470000 0.400000 -5.070000
v -7.780000 0.500000 2.780000
v -7.780000 0.400000 -2.780000
v -7.780000 0.400000 2.780000
v -7.780000 0.500000 -2.780000
v 7.780000 0.500000 2.780000
v 7.780000 0.400000 2.780000
v 7.780000 0.400000 -2.780000
v 7.780000 0.500000 -2.780000
vn -0.0000 1.0000 -0.0000
vn -0.0000 -0.0000 1.0000
vn -1.0000 -0.0000 -0.0000
vn 1.0000 -0.0000 -0.0000
vn -0.7071 0.7071 -0.0000
vn -0.0000 -0.0000 -1.0000
vn -0.0000 -1.0000 -0.0000
vn -0.0000 0.7071 0.7071
vn -0.0000 0.7071 -0.7071
vn 0.7071 0.7071 -0.0000
s 1
usemtl paint
f 15//1 19//1 20//1
f 9//2 14//2 13//2
f 21//2 26//2 25//2
f 12//3 11//3 9//3
f 5//1 4//1 1//1
f 8//4 6//4 7//4
f 4//3 3//3 1//3
f 1//2 6//2 5//2
f 15//5 9//5 16//5
f 15//5 12//5 9//5
f 24//6 27//6 22//6
f 24//3 23//3 21//3
f 14//7 10//7 17//7
f 19//8 16//8 9//8
f 19//8 9//8 13//8
f 6//7 2//7 7//7
f 18//9 12//9 15//9
f 20//9 18//9 15//9
f 20//10 19//10 13//10
f 20//10 13//10 18//10
f 18//4 14//4 17//4
f 26//7 22//7 27//7
f 12//6 17//6 10//6
f 28//4 26//4 27//4
f 4//6 7//6 2//6
f 25//1 24//1 21//1
f 15//1 16//1 19//1
f 9//2 11//2 14//2
f 21//2 23//2 26//2
f 12//3 10//3 11//3
f 5//1 8//1 4//1
f 8//4 5//4 6//4
f 4//3 2//3 3//3
f 1//2 3//2 6//2
f 24//6 28//6 27//6
f 24//3 22//3 23//3
f 14//7 11//7 10//7
f 6//7 3//7 2//7
f 18//4 13//4 14//4
f 26//7 23//7 22//7
f 12//6 18//6 17//6
f 28//4 25//4 26//4
f 4//6 8//6 7//6
f 25//1 28//1 24//1
