# Blender 5.2.1 LTS
# www.blender.org
mtllib cabana_wall.mtl
o cabana_wall
v -3.000000 1.220000 -0.495000
v -3.000000 2.820000 -2.250000
v -3.000000 0.120000 -2.250000
v -3.000000 2.390000 -0.495000
v -3.000000 0.120000 2.250000
v -3.000000 1.220000 0.495000
v -3.000000 2.820000 2.250000
v -3.000000 2.390000 0.495000
v -2.937000 2.390000 0.495000
v -2.937000 2.390000 -0.495000
v -2.937000 2.300000 0.405000
v -2.937000 1.220000 0.405000
v -2.937000 1.220000 0.495000
v -2.937000 2.300000 -0.405000
v -2.937000 1.220000 -0.495000
v -2.937000 1.220000 -0.405000
v -2.720000 2.300000 -0.405000
v -2.720000 1.220000 -0.405000
v -2.720000 2.820000 -1.970000
v -2.720000 0.120000 -1.970000
v -2.720000 1.220000 0.405000
v -2.720000 0.120000 1.970000
v -2.720000 2.820000 1.970000
v -2.720000 2.300000 0.405000
v -1.445000 1.220000 -1.970000
v -0.500000 0.120000 -1.970000
v -2.255000 1.220000 -1.970000
v -2.255000 2.300000 -1.970000
v -1.445000 2.300000 -1.970000
v -0.500000 2.470000 -1.970000
v 2.720000 0.120000 -1.970000
v 1.445000 1.220000 -1.970000
v 0.500000 0.120000 -1.970000
v 0.500000 2.470000 -1.970000
v 2.255000 1.220000 -1.970000
v 1.445000 2.300000 -1.970000
v 2.720000 2.820000 -1.970000
v 2.255000 2.300000 -1.970000
v 2.255000 1.220000 -2.187000
v 2.345000 1.220000 -2.187000
v 2.345000 1.220000 -2.250000
v 1.445000 1.220000 -2.187000
v 1.355000 1.220000 -2.250000
v 1.355000 1.220000 -2.187000
v 1.445000 2.300000 -2.187000
v 1.355000 2.390000 -2.187000
v 2.255000 2.300000 -2.187000
v 2.345000 2.390000 -2.187000
v 2.345000 2.390000 -2.250000
v 1.355000 2.390000 -2.250000
v -1.445000 1.220000 -2.187000
v -1.445000 2.300000 -2.187000
v -2.255000 2.300000 -2.187000
v -2.255000 1.220000 -2.187000
v -2.345000 1.220000 -2.187000
v -2.345000 2.390000 -2.187000
v -1.355000 1.220000 -2.187000
v -1.355000 2.390000 -2.187000
v -2.345000 2.390000 -2.250000
v -2.345000 1.220000 -2.250000
v -1.355000 2.390000 -2.250000
v -1.355000 1.220000 -2.250000
v -0.500000 2.470000 -2.190000
v -0.500000 0.120000 -2.190000
v -0.600000 0.120000 -2.190000
v -0.600000 2.570000 -2.190000
v 0.500000 2.470000 -2.190000
v 0.600000 0.120000 -2.190000
v 0.500000 0.120000 -2.190000
v 0.600000 2.570000 -2.190000
v -0.600000 2.570000 -2.250000
v -0.600000 0.120000 -2.250000
v 0.600000 2.570000 -2.250000
v 0.600000 0.120000 -2.250000
v 2.720000 2.820000 1.970000
v 2.720000 0.120000 1.970000
v -0.405000 1.220000 1.970000
v -0.405000 2.300000 1.970000
v 0.405000 1.220000 1.970000
v 0.405000 2.300000 1.970000
v -0.405000 2.300000 2.187000
v 0.405000 2.300000 2.187000
v 0.405000 1.220000 2.187000
v 0.495000 1.220000 2.187000
v 0.495000 2.390000 2.187000
v -0.495000 1.220000 2.187000
v -0.405000 1.220000 2.187000
v -0.495000 2.390000 2.187000
v 0.495000 2.390000 2.250000
v 0.495000 1.220000 2.250000
v -0.495000 2.390000 2.250000
v -0.495000 1.220000 2.250000
v 3.000000 2.820000 2.250000
v 3.000000 2.820000 -2.250000
v 3.000000 0.120000 2.250000
v 3.000000 0.120000 -2.250000
vn -1.0000 -0.0000 -0.0000
vn 1.0000 -0.0000 -0.0000
vn -0.0000 -1.0000 -0.0000
vn -0.0000 -0.0000 1.0000
vn -0.0000 1.0000 -0.0000
vn -0.0000 -0.0000 -1.0000
s 1
usemtl paint
f 1//1 2//1 3//1
f 4//1 2//1 1//1
f 5//1 6//1 1//1
f 5//1 1//1 3//1
f 7//1 8//1 6//1
f 7//1 6//1 5//1
f 2//1 8//1 7//1
f 2//1 4//1 8//1
f 86//2 91//2 92//2
f 11//1 12//1 13//1
f 9//1 11//1 13//1
f 14//1 15//1 16//1
f 10//1 14//1 11//1
f 10//1 11//1 9//1
f 10//1 15//1 14//1
f 70//3 71//3 73//3
f 19//2 18//2 20//2
f 21//2 20//2 18//2
f 17//2 18//2 19//2
f 22//2 20//2 21//2
f 23//2 21//2 24//2
f 23//2 24//2 17//2
f 23//2 17//2 19//2
f 23//2 22//2 21//2
f 25//4 20//4 26//4
f 25//4 27//4 20//4
f 19//4 27//4 28//4
f 19//4 20//4 27//4
f 29//4 19//4 28//4
f 30//4 29//4 25//4
f 30//4 25//4 26//4
f 30//4 19//4 29//4
f 31//4 32//4 33//4
f 34//4 33//4 32//4
f 35//4 32//4 31//4
f 36//4 34//4 32//4
f 37//4 38//4 35//4
f 37//4 36//4 38//4
f 37//4 35//4 31//4
f 37//4 34//4 36//4
f 19//4 34//4 37//4
f 19//4 30//4 34//4
f 39//5 40//5 41//5
f 27//5 51//5 54//5
f 43//5 44//5 42//5
f 43//5 39//5 41//5
f 43//5 42//5 39//5
f 45//6 42//6 44//6
f 46//6 45//6 44//6
f 47//6 40//6 39//6
f 48//6 47//6 45//6
f 48//6 45//6 46//6
f 48//6 40//6 47//6
f 33//1 67//1 69//1
f 37//1 76//1 75//1
f 56//2 60//2 59//2
f 25//1 52//1 51//1
f 36//2 42//2 45//2
f 32//5 39//5 42//5
f 10//3 8//3 4//3
f 53//6 54//6 55//6
f 53//6 55//6 56//6
f 52//6 57//6 51//6
f 58//6 52//6 53//6
f 58//6 53//6 56//6
f 58//6 57//6 52//6
f 18//4 14//4 16//4
f 57//1 61//1 62//1
f 40//1 49//1 41//1
f 68//1 73//1 74//1
f 51//5 57//5 62//5
f 28//2 54//2 53//2
f 60//5 55//5 54//5
f 60//5 51//5 62//5
f 60//5 54//5 51//5
f 17//3 11//3 14//3
f 77//2 81//2 87//2
f 63//6 64//6 65//6
f 66//6 63//6 65//6
f 67//6 68//6 69//6
f 70//6 67//6 63//6
f 70//6 63//6 66//6
f 70//6 68//6 67//6
f 9//6 6//6 8//6
f 38//3 45//3 47//3
f 66//2 72//2 71//2
f 21//5 16//5 12//5
f 35//1 47//1 39//1
f 46//2 43//2 50//2
f 77//6 22//6 23//6
f 78//6 77//6 23//6
f 76//6 77//6 79//6
f 76//6 22//6 77//6
f 75//6 79//6 80//6
f 75//6 76//6 79//6
f 23//6 75//6 78//6
f 78//6 75//6 80//6
f 29//3 53//3 52//3
f 82//4 83//4 84//4
f 85//4 82//4 84//4
f 81//4 86//4 87//4
f 88//4 81//4 82//4
f 88//4 82//4 85//4
f 88//4 86//4 81//4
f 34//3 63//3 67//3
f 78//3 82//3 81//3
f 58//3 59//3 61//3
f 88//3 89//3 91//3
f 87//5 86//5 92//5
f 85//1 90//1 89//1
f 90//5 84//5 83//5
f 90//5 83//5 92//5
f 83//5 87//5 92//5
f 15//4 4//4 1//4
f 30//2 64//2 63//2
f 79//5 87//5 83//5
f 24//6 12//6 11//6
f 16//5 15//5 1//5
f 80//1 83//1 82//1
f 6//5 13//5 12//5
f 6//5 12//5 1//5
f 12//5 16//5 1//5
f 2//5 23//5 19//5
f 2//5 7//5 23//5
f 75//5 7//5 93//5
f 75//5 23//5 7//5
f 94//5 37//5 75//5
f 94//5 75//5 93//5
f 94//5 2//5 37//5
f 37//5 2//5 19//5
f 48//3 50//3 49//3
f 2//6 60//6 3//6
f 62//6 72//6 3//6
f 62//6 3//6 60//6
f 59//6 60//6 2//6
f 61//6 59//6 2//6
f 71//6 62//6 61//6
f 71//6 61//6 2//6
f 96//6 74//6 43//6
f 41//6 96//6 43//6
f 50//6 43//6 73//6
f 94//6 41//6 49//6
f 94//6 49//6 50//6
f 94//6 96//6 41//6
f 94//6 50//6 73//6
f 2//6 94//6 73//6
f 2//6 73//6 71//6
f 74//6 73//6 43//6
f 71//6 72//6 62//6
f 3//3 20//3 22//3
f 3//3 22//3 5//3
f 95//3 5//3 22//3
f 76//3 95//3 22//3
f 65//3 26//3 20//3
f 72//3 20//3 3//3
f 72//3 65//3 20//3
f 64//3 26//3 65//3
f 68//3 33//3 69//3
f 31//3 68//3 74//3
f 31//3 33//3 68//3
f 96//3 76//3 31//3
f 96//3 31//3 74//3
f 96//3 95//3 76//3
f 92//4 7//4 5//4
f 90//4 92//4 5//4
f 91//4 7//4 92//4
f 95//4 90//4 5//4
f 93//4 89//4 90//4
f 93//4 90//4 95//4
f 7//4 89//4 93//4
f 7//4 91//4 89//4
f 94//2 95//2 96//2
f 86//2 88//2 91//2
f 70//3 66//3 71//3
f 27//5 25//5 51//5
f 33//1 34//1 67//1
f 37//1 31//1 76//1
f 56//2 55//2 60//2
f 25//1 29//1 52//1
f 36//2 32//2 42//2
f 32//5 35//5 39//5
f 10//3 9//3 8//3
f 18//4 17//4 14//4
f 57//1 58//1 61//1
f 40//1 48//1 49//1
f 68//1 70//1 73//1
f 28//2 27//2 54//2
f 17//3 24//3 11//3
f 77//2 78//2 81//2
f 9//6 13//6 6//6
f 38//3 36//3 45//3
f 66//2 65//2 72//2
f 21//5 18//5 16//5
f 35//1 38//1 47//1
f 46//2 44//2 43//2
f 29//3 28//3 53//3
f 34//3 30//3 63//3
f 78//3 80//3 82//3
f 58//3 56//3 59//3
f 88//3 85//3 89//3
f 85//1 84//1 90//1
f 15//4 10//4 4//4
f 30//2 26//2 64//2
f 79//5 77//5 87//5
f 24//6 21//6 12//6
f 80//1 79//1 83//1
f 48//3 46//3 50//3
f 94//2 93//2 95//2
