# Blender 5.2.1 LTS
# www.blender.org
mtllib cabana_trim.mtl
o cabana_trim
v -3.600000 2.700000 2.850000
v -3.600000 2.570000 -4.000000
v -3.600000 2.570000 2.850000
v -3.600000 2.700000 -4.000000
v 3.600000 2.700000 2.850000
v 3.600000 2.570000 2.850000
v -3.550000 2.520000 -3.950000
v -3.550000 2.520000 2.800000
v -3.340000 2.700000 -3.740000
v -3.340000 2.700000 2.590000
v 3.340000 2.700000 2.590000
v 3.600000 2.700000 -4.000000
v 3.340000 2.700000 -3.740000
v 3.600000 2.570000 -4.000000
v 3.550000 2.520000 2.800000
v -3.390000 2.520000 -3.790000
v -3.390000 2.520000 2.640000
v 3.390000 2.520000 2.640000
v 3.550000 2.520000 -3.950000
v 3.390000 2.520000 -3.790000
v 3.340000 2.570000 2.590000
v -3.340000 2.570000 2.590000
v 3.340000 2.570000 -3.740000
v -3.340000 2.570000 -3.740000
vn -0.0000 -0.0000 -1.0000
vn -0.7071 -0.7071 -0.0000
vn -0.0000 1.0000 -0.0000
vn 1.0000 -0.0000 -0.0000
vn -1.0000 -0.0000 -0.0000
vn -0.0000 -0.7071 0.7071
vn -0.0000 -1.0000 -0.0000
vn -0.0000 -0.7071 -0.7071
vn -0.0000 -0.0000 1.0000
vn 0.7071 -0.7071 -0.0000
s 1
usemtl paint
f 10//1 21//1 22//1
f 4//1 14//1 2//1
f 7//2 8//2 3//2
f 7//2 3//2 2//2
f 9//3 4//3 1//3
f 9//3 1//3 10//3
f 11//3 1//3 5//3
f 11//3 10//3 1//3
f 12//3 13//3 11//3
f 12//3 11//3 5//3
f 12//3 4//3 9//3
f 12//3 9//3 13//3
f 12//4 6//4 14//4
f 13//5 21//5 11//5
f 15//6 3//6 8//6
f 15//6 6//6 3//6
f 16//7 8//7 7//7
f 16//7 17//7 8//7
f 18//7 15//7 8//7
f 18//7 8//7 17//7
f 19//7 18//7 20//7
f 19//7 15//7 18//7
f 19//7 16//7 7//7
f 19//7 20//7 16//7
f 19//8 7//8 2//8
f 19//8 2//8 14//8
f 1//9 6//9 5//9
f 9//9 23//9 13//9
f 4//5 3//5 1//5
f 14//10 6//10 15//10
f 14//10 15//10 19//10
f 22//8 21//8 18//8
f 22//8 18//8 17//8
f 23//2 18//2 21//2
f 23//2 20//2 18//2
f 24//10 22//10 17//10
f 24//10 17//10 16//10
f 24//6 20//6 23//6
f 24//6 16//6 20//6
f 9//4 22//4 24//4
f 10//1 11//1 21//1
f 4//1 12//1 14//1
f 12//4 5//4 6//4
f 13//5 23//5 21//5
f 1//9 3//9 6//9
f 9//9 24//9 23//9
f 4//5 2//5 3//5
f 9//4 10//4 22//4
