# Blender 5.2.1 LTS
# www.blender.org
mtllib cabana_floor.mtl
o cabana_floor
v -3.450000 0.080000 2.700000
v -3.450000 0.000000 -2.700000
v -3.450000 0.000000 2.700000
v -3.450000 0.080000 -2.700000
v 3.450000 0.080000 2.700000
v 3.450000 0.000000 2.700000
v 3.450000 0.000000 -2.700000
v 3.450000 0.080000 -2.700000
v -3.200000 0.090000 2.450000
v -3.200000 0.000000 -2.450000
v -3.200000 0.000000 2.450000
v -3.200000 0.090000 -2.450000
v 3.200000 0.090000 2.450000
v 3.200000 0.000000 2.450000
v -3.170000 0.120000 -2.420000
v -3.170000 0.120000 2.420000
v 3.200000 0.000000 -2.450000
v 3.200000 0.090000 -2.450000
v 3.170000 0.120000 2.420000
v 3.170000 0.120000 -2.420000
v -0.800000 0.090000 -3.550000
v -0.800000 0.000000 -3.910000
v -0.800000 0.000000 -3.550000
v -0.800000 0.090000 -3.910000
v 0.800000 0.090000 -3.550000
v 0.800000 0.000000 -3.550000
v 0.800000 0.000000 -3.910000
v 0.800000 0.090000 -3.910000
v -2.720000 0.220000 1.970000
v -2.720000 0.120000 -1.970000
v -2.720000 0.120000 1.970000
v -2.720000 0.220000 -1.970000
v 2.720000 0.220000 1.970000
v 2.720000 0.120000 1.970000
v 2.720000 0.120000 -1.970000
v 2.720000 0.220000 -1.970000
v -1.950000 0.090000 -2.250000
v -1.950000 0.000000 -3.550000
v -1.950000 0.000000 -2.250000
v -1.950000 0.090000 -3.550000
v 1.950000 0.090000 -2.250000
v 1.950000 0.000000 -2.250000
v -1.920000 0.120000 -3.520000
v -1.920000 0.120000 -2.280000
v 1.950000 0.000000 -3.550000
v 1.950000 0.090000 -3.550000
v 1.920000 0.120000 -2.280000
v 1.920000 0.120000 -3.520000
vn -0.0000 -1.0000 -0.0000
vn -1.0000 -0.0000 -0.0000
vn -0.0000 -0.0000 1.0000
vn 1.0000 -0.0000 -0.0000
vn -0.7071 0.7071 -0.0000
vn -0.0000 -0.0000 -1.0000
vn -0.0000 0.7071 0.7071
vn -0.0000 0.7071 -0.7071
vn 0.7071 0.7071 -0.0000
vn -0.0000 1.0000 -0.0000
s 1
usemtl paint
f 42//1 38//1 45//1
f 32//2 31//2 29//2
f 21//3 26//3 25//3
f 12//2 11//2 9//2
f 34//1 30//1 35//1
f 18//4 14//4 17//4
f 4//2 3//2 1//2
f 14//1 10//1 17//1
f 15//5 9//5 16//5
f 15//5 12//5 9//5
f 1//3 6//3 5//3
f 40//6 45//6 38//6
f 8//4 6//4 7//4
f 19//7 16//7 9//7
f 19//7 9//7 13//7
f 24//2 23//2 21//2
f 20//8 12//8 15//8
f 20//8 18//8 12//8
f 20//9 19//9 13//9
f 20//9 13//9 18//9
f 6//1 2//1 7//1
f 36//4 34//4 35//4
f 4//6 7//6 2//6
f 12//6 17//6 10//6
f 46//4 42//4 45//4
f 24//6 27//6 22//6
f 9//3 14//3 13//3
f 25//10 24//10 21//10
f 26//1 22//1 27//1
f 4//10 5//10 8//10
f 28//4 26//4 27//4
f 29//3 34//3 33//3
f 33//10 32//10 29//10
f 43//5 37//5 44//5
f 43//5 40//5 37//5
f 37//3 42//3 41//3
f 40//2 39//2 37//2
f 32//6 35//6 30//6
f 47//7 44//7 37//7
f 47//7 37//7 41//7
f 19//10 15//10 16//10
f 48//8 40//8 43//8
f 48//8 46//8 40//8
f 48//9 47//9 41//9
f 48//9 41//9 46//9
f 47//10 43//10 44//10
f 42//1 39//1 38//1
f 32//2 30//2 31//2
f 21//3 23//3 26//3
f 12//2 10//2 11//2
f 34//1 31//1 30//1
f 18//4 13//4 14//4
f 4//2 2//2 3//2
f 14//1 11//1 10//1
f 1//3 3//3 6//3
f 40//6 46//6 45//6
f 8//4 5//4 6//4
f 24//2 22//2 23//2
f 6//1 3//1 2//1
f 36//4 33//4 34//4
f 4//6 8//6 7//6
f 12//6 18//6 17//6
f 46//4 41//4 42//4
f 24//6 28//6 27//6
f 9//3 11//3 14//3
f 25//10 28//10 24//10
f 26//1 23//1 22//1
f 4//10 1//10 5//10
f 28//4 25//4 26//4
f 29//3 31//3 34//3
f 33//10 36//10 32//10
f 37//3 39//3 42//3
f 40//2 38//2 39//2
f 32//6 36//6 35//6
f 19//10 20//10 15//10
f 47//10 48//10 43//10
