# Blender 5.2.1 LTS
# www.blender.org
mtllib cabana_wood.mtl
o cabana_wood
v -1.486360 0.120000 -3.363640
v -1.460000 2.700000 -3.300000
v -1.460000 0.120000 -3.300000
v -1.486360 2.700000 -3.363640
v -1.550000 0.120000 -3.390000
v -1.550000 2.700000 -3.390000
v -1.613640 0.120000 -3.363640
v -1.613640 2.700000 -3.363640
v -1.640000 0.120000 -3.300000
v -1.640000 2.700000 -3.300000
v -1.613640 0.120000 -3.236360
v -1.613640 2.700000 -3.236360
v -1.550000 0.120000 -3.210000
v -1.550000 2.700000 -3.210000
v -1.486360 0.120000 -3.236360
v -1.486360 2.700000 -3.236360
v 1.613640 0.120000 -3.363640
v 1.640000 2.700000 -3.300000
v 1.640000 0.120000 -3.300000
v 1.613640 2.700000 -3.363640
v 1.550000 0.120000 -3.390000
v 1.550000 2.700000 -3.390000
v 1.486360 0.120000 -3.363640
v 1.486360 2.700000 -3.363640
v 1.460000 0.120000 -3.300000
v 1.460000 2.700000 -3.300000
v 1.486360 0.120000 -3.236360
v 1.486360 2.700000 -3.236360
v 1.550000 0.120000 -3.210000
v 1.550000 2.700000 -3.210000
v 1.613640 0.120000 -3.236360
v 1.613640 2.700000 -3.236360
v -1.850000 2.700000 -3.235000
v -1.850000 2.480000 -3.365000
v -1.850000 2.480000 -3.235000
v -1.850000 2.700000 -3.365000
v 1.850000 2.700000 -3.235000
v 1.850000 2.480000 -3.235000
v 1.850000 2.480000 -3.365000
v 1.850000 2.700000 -3.365000
vn -0.9239 -0.0000 -0.3827
vn -0.0000 -0.0000 1.0000
vn 0.3827 -0.0000 0.9239
vn -0.3827 -0.0000 0.9239
vn 0.3827 -0.0000 -0.9239
vn 0.9239 -0.0000 -0.3827
vn -0.0000 -1.0000 -0.0000
vn -0.0000 1.0000 -0.0000
vn -0.3827 -0.0000 -0.9239
vn -0.9239 -0.0000 0.3827
vn -0.0000 -0.0000 -1.0000
vn 0.9239 -0.0000 0.3827
vn 1.0000 -0.0000 -0.0000
vn -1.0000 -0.0000 -0.0000
s 1
usemtl paint
f 26//1 23//1 25//1
f 33//2 38//2 37//2
f 32//3 29//3 31//3
f 16//3 13//3 15//3
f 14//4 11//4 13//4
f 6//5 1//5 5//5
f 4//6 3//6 1//6
f 20//6 19//6 17//6
f 1//7 7//7 5//7
f 1//7 9//7 7//7
f 1//7 11//7 9//7
f 1//7 13//7 11//7
f 1//7 15//7 13//7
f 1//7 3//7 15//7
f 4//8 6//8 8//8
f 4//8 8//8 10//8
f 4//8 10//8 12//8
f 4//8 12//8 14//8
f 4//8 14//8 16//8
f 4//8 16//8 2//8
f 8//9 5//9 7//9
f 28//10 25//10 27//10
f 36//11 39//11 34//11
f 12//10 9//10 11//10
f 24//9 21//9 23//9
f 38//7 34//7 39//7
f 10//1 7//1 9//1
f 22//5 17//5 21//5
f 17//7 23//7 21//7
f 17//7 25//7 23//7
f 17//7 27//7 25//7
f 17//7 29//7 27//7
f 17//7 31//7 29//7
f 17//7 19//7 31//7
f 20//8 22//8 24//8
f 20//8 24//8 26//8
f 20//8 26//8 28//8
f 20//8 28//8 30//8
f 20//8 30//8 32//8
f 20//8 32//8 18//8
f 30//4 27//4 29//4
f 18//12 31//12 19//12
f 40//13 38//13 39//13
f 36//14 35//14 33//14
f 2//12 15//12 3//12
f 37//8 36//8 33//8
f 26//1 24//1 23//1
f 33//2 35//2 38//2
f 32//3 30//3 29//3
f 16//3 14//3 13//3
f 14//4 12//4 11//4
f 6//5 4//5 1//5
f 4//6 2//6 3//6
f 20//6 18//6 19//6
f 8//9 6//9 5//9
f 28//10 26//10 25//10
f 36//11 40//11 39//11
f 12//10 10//10 9//10
f 24//9 22//9 21//9
f 38//7 35//7 34//7
f 10//1 8//1 7//1
f 22//5 20//5 17//5
f 30//4 28//4 27//4
f 18//12 32//12 31//12
f 40//13 37//13 38//13
f 36//14 34//14 35//14
f 2//12 16//12 15//12
f 37//8 40//8 36//8
