# Blender 5.2.1 LTS
# www.blender.org
mtllib cabana_roof.mtl
o cabana_roof
v 0.175000 4.000000 -0.574500
v -3.600000 2.700000 2.850000
v 3.600000 2.700000 2.850000
v -0.175000 4.000000 -0.574500
v 0.175000 4.000000 -0.575500
v 3.600000 2.700000 -4.000000
v -0.175000 4.000000 -0.575500
v -3.600000 2.700000 -4.000000
v -0.550000 4.090000 -0.641000
v -0.550000 4.006000 -0.725000
v -0.550000 3.950000 -0.725000
v -0.550000 4.090000 -0.509000
v -0.550000 3.950000 -0.425000
v -0.550000 4.006000 -0.425000
v 0.550000 4.006000 -0.425000
v 0.550000 3.950000 -0.425000
v 0.550000 4.090000 -0.509000
v 0.550000 3.950000 -0.725000
v 0.550000 4.090000 -0.641000
v 0.550000 4.006000 -0.725000
vn 0.1366 0.9811 0.1368
vn -0.1833 0.9658 0.1833
vn 0.1834 0.9658 0.1833
vn -0.1367 0.9811 0.1368
vn 0.1367 0.9811 -0.1368
vn 0.1833 0.9658 -0.1833
vn -0.1366 0.9811 -0.1368
vn -0.1834 0.9658 -0.1833
vn -0.0000 -1.0000 -0.0000
vn -0.0000 -0.0000 1.0000
vn -1.0000 -0.0000 -0.0000
vn -0.0000 0.7071 0.7071
vn -0.0000 1.0000 -0.0000
vn -0.0000 -0.0000 -1.0000
vn 1.0000 -0.0000 -0.0000
vn -0.0000 0.7071 -0.7071
s 1
usemtl paint
f 1//1 2//2 3//3
f 1//1 4//4 2//2
f 5//5 3//3 6//6
f 5//5 1//1 3//3
f 7//7 6//6 8//8
f 7//7 5//5 6//6
f 4//4 8//8 2//2
f 4//4 7//7 8//8
f 16//9 11//9 18//9
f 14//10 16//10 15//10
f 9//11 10//11 11//11
f 12//11 11//11 13//11
f 12//11 9//11 11//11
f 14//11 12//11 13//11
f 15//12 12//12 14//12
f 17//13 9//13 12//13
f 5//5 4//4 1//1
f 10//14 18//14 11//14
f 6//9 2//9 8//9
f 19//15 18//15 20//15
f 17//15 16//15 18//15
f 17//15 18//15 19//15
f 15//15 16//15 17//15
f 20//16 9//16 19//16
f 16//9 13//9 11//9
f 14//10 13//10 16//10
f 15//12 17//12 12//12
f 17//13 19//13 9//13
f 5//5 7//7 4//4
f 10//14 20//14 18//14
f 6//9 3//9 2//9
f 20//16 10//16 9//16
