# Blender 5.2.1 LTS
# www.blender.org
mtllib cabana_dark.mtl
o cabana_dark
v -0.500000 2.470000 -1.970000
v -0.500000 0.120000 -1.970000
v -0.500000 0.120000 -1.920000
v -0.500000 2.470000 -1.920000
v 0.500000 2.470000 -1.970000
v 0.500000 2.470000 -1.920000
v 0.500000 0.120000 -1.970000
v 0.500000 0.120000 -1.920000
v -2.255000 2.300000 -1.970000
v -2.255000 1.220000 -1.970000
v -2.255000 1.220000 -1.920000
v -2.255000 2.300000 -1.920000
v -1.445000 2.300000 -1.970000
v -1.445000 2.300000 -1.920000
v -1.445000 1.220000 -1.970000
v -1.445000 1.220000 -1.920000
v 1.445000 2.300000 -1.970000
v 1.445000 1.220000 -1.970000
v 1.445000 1.220000 -1.920000
v 1.445000 2.300000 -1.920000
v 2.255000 2.300000 -1.970000
v 2.255000 2.300000 -1.920000
v 2.255000 1.220000 -1.970000
v 2.255000 1.220000 -1.920000
v 0.405000 2.300000 1.970000
v 0.405000 1.220000 1.970000
v 0.405000 1.220000 1.920000
v 0.405000 2.300000 1.920000
v -0.405000 2.300000 1.970000
v -0.405000 2.300000 1.920000
v -0.405000 1.220000 1.970000
v -0.405000 1.220000 1.920000
v -2.720000 2.300000 0.405000
v -2.720000 1.220000 0.405000
v -2.670000 1.220000 0.405000
v -2.670000 2.300000 0.405000
v -2.720000 2.300000 -0.405000
v -2.670000 2.300000 -0.405000
v -2.720000 1.220000 -0.405000
v -2.670000 1.220000 -0.405000
vn -0.0000 -0.0000 -1.0000
vn 1.0000 -0.0000 -0.0000
vn -1.0000 -0.0000 -0.0000
vn -0.0000 -0.0000 1.0000
vn -0.0000 -1.0000 -0.0000
vn -0.0000 1.0000 -0.0000
s 1
usemtl dark
f 40//1 37//1 38//1
f 28//2 26//2 27//2
f 24//2 21//2 22//2
f 12//3 10//3 11//3
f 31//4 25//4 29//4
f 15//1 9//1 13//1
f 4//3 2//3 3//3
f 16//2 13//2 14//2
f 8//2 5//2 6//2
f 35//5 39//5 40//5
f 6//6 1//6 4//6
f 20//3 18//3 19//3
f 7//1 1//1 5//1
f 30//6 25//6 28//6
f 3//5 7//5 8//5
f 11//5 15//5 16//5
f 39//3 33//3 37//3
f 19//5 23//5 24//5
f 14//6 9//6 12//6
f 24//4 20//4 19//4
f 23//1 17//1 21//1
f 8//4 4//4 3//4
f 22//6 17//6 20//6
f 32//3 29//3 30//3
f 32//1 28//1 27//1
f 38//6 33//6 36//6
f 36//4 34//4 35//4
f 27//5 31//5 32//5
f 16//4 12//4 11//4
f 40//2 36//2 35//2
f 40//1 39//1 37//1
f 28//2 25//2 26//2
f 24//2 23//2 21//2
f 12//3 9//3 10//3
f 31//4 26//4 25//4
f 15//1 10//1 9//1
f 4//3 1//3 2//3
f 16//2 15//2 13//2
f 8//2 7//2 5//2
f 35//5 34//5 39//5
f 6//6 5//6 1//6
f 20//3 17//3 18//3
f 7//1 2//1 1//1
f 30//6 29//6 25//6
f 3//5 2//5 7//5
f 11//5 10//5 15//5
f 39//3 34//3 33//3
f 19//5 18//5 23//5
f 14//6 13//6 9//6
f 24//4 22//4 20//4
f 23//1 18//1 17//1
f 8//4 6//4 4//4
f 22//6 21//6 17//6
f 32//3 31//3 29//3
f 32//1 30//1 28//1
f 38//6 37//6 33//6
f 36//4 33//4 34//4
f 27//5 26//5 31//5
f 16//4 14//4 12//4
f 40//2 38//2 36//2
