# Blender 5.2.1 LTS
# www.blender.org
mtllib dock_house_wood.mtl
o dock_house_wood
v 2.030000 2.600000 -2.030000
v 2.030000 0.000000 -2.270000
v 2.030000 0.000000 -2.030000
v 2.030000 2.600000 -2.270000
v 2.270000 2.600000 -2.030000
v 2.270000 0.000000 -2.030000
v 2.270000 0.000000 -2.270000
v 2.270000 2.600000 -2.270000
v 2.030000 2.600000 2.270000
v 2.030000 0.000000 2.030000
v 2.030000 0.000000 2.270000
v 2.030000 2.600000 2.030000
v 2.270000 2.600000 2.270000
v 2.270000 0.000000 2.270000
v 2.270000 0.000000 2.030000
v 2.270000 2.600000 2.030000
v -2.270000 2.600000 -2.030000
v -2.270000 0.000000 -2.270000
v -2.270000 0.000000 -2.030000
v -2.270000 2.600000 -2.270000
v -2.030000 2.600000 -2.030000
v -2.030000 0.000000 -2.030000
v -2.030000 0.000000 -2.270000
v -2.030000 2.600000 -2.270000
v -2.270000 2.600000 2.270000
v -2.270000 0.000000 2.030000
v -2.270000 0.000000 2.270000
v -2.270000 2.600000 2.030000
v -2.030000 2.600000 2.270000
v -2.030000 0.000000 2.270000
v -2.030000 0.000000 2.030000
v -2.030000 2.600000 2.030000
v -2.270000 2.420000 -2.270000
v -2.270000 2.420000 2.270000
v 2.270000 2.420000 2.270000
v 2.070000 2.600000 2.070000
v -2.070000 2.600000 2.070000
v -2.070000 2.600000 -2.070000
v 2.070000 2.600000 -2.070000
v 2.270000 2.420000 -2.270000
v 2.070000 2.420000 2.070000
v -2.070000 2.420000 2.070000
v -2.070000 2.420000 -2.070000
v 2.070000 2.420000 -2.070000
v 2.178284 1.898284 -2.190000
v 2.121716 1.841716 -2.110000
v 2.121716 1.841716 -2.190000
v 2.178284 1.898284 -2.110000
v 1.628284 2.448284 -2.190000
v 1.571716 2.391716 -2.190000
v 1.571716 2.391716 -2.110000
v 1.628284 2.448284 -2.110000
v 2.110000 1.898284 -2.178284
v 2.190000 1.841716 -2.121716
v 2.110000 1.841716 -2.121716
v 2.190000 1.898284 -2.178284
v 2.110000 2.448284 -1.628284
v 2.110000 2.391716 -1.571716
v 2.190000 2.391716 -1.571716
v 2.190000 2.448284 -1.628284
v 2.178284 1.898284 2.110000
v 2.121716 1.841716 2.190000
v 2.121716 1.841716 2.110000
v 2.178284 1.898284 2.190000
v 1.628284 2.448284 2.110000
v 1.571716 2.391716 2.110000
v 1.571716 2.391716 2.190000
v 1.628284 2.448284 2.190000
v 2.190000 1.898284 2.178284
v 2.110000 1.841716 2.121716
v 2.190000 1.841716 2.121716
v 2.110000 1.898284 2.178284
v 2.190000 2.448284 1.628284
v 2.190000 2.391716 1.571716
v 2.110000 2.391716 1.571716
v 2.110000 2.448284 1.628284
v -2.178284 1.898284 -2.110000
v -2.121716 1.841716 -2.190000
v -2.121716 1.841716 -2.110000
v -2.178284 1.898284 -2.190000
v -1.628284 2.448284 -2.110000
v -1.571716 2.391716 -2.110000
v -1.571716 2.391716 -2.190000
v -1.628284 2.448284 -2.190000
v -2.190000 1.898284 -2.178284
v -2.110000 1.841716 -2.121716
v -2.190000 1.841716 -2.121716
v -2.110000 1.898284 -2.178284
v -2.190000 2.448284 -1.628284
v -2.190000 2.391716 -1.571716
v -2.110000 2.391716 -1.571716
v -2.110000 2.448284 -1.628284
v -2.178284 1.898284 2.190000
v -2.121716 1.841716 2.110000
v -2.121716 1.841716 2.190000
v -2.178284 1.898284 2.110000
v -1.628284 2.448284 2.190000
v -1.571716 2.391716 2.190000
v -1.571716 2.391716 2.110000
v -1.628284 2.448284 2.110000
v -2.110000 1.898284 2.178284
v -2.190000 1.841716 2.121716
v -2.110000 1.841716 2.121716
v -2.190000 1.898284 2.178284
v -2.110000 2.448284 1.628284
v -2.110000 2.391716 1.571716
v -2.190000 2.391716 1.571716
v -2.190000 2.448284 1.628284
v -2.370000 3.225000 -1.582500
v -2.370000 3.145000 -1.662500
v -2.370000 3.145000 -1.582500
v -2.370000 3.225000 -1.662500
v 2.370000 3.225000 -1.582500
v 2.370000 3.145000 -1.582500
v 2.370000 3.145000 -1.662500
v 2.370000 3.225000 -1.662500
v -2.370000 3.225000 1.662500
v -2.370000 3.145000 1.582500
v -2.370000 3.145000 1.662500
v -2.370000 3.225000 1.582500
v 2.370000 3.225000 1.662500
v 2.370000 3.145000 1.662500
v 2.370000 3.145000 1.582500
v 2.370000 3.225000 1.582500
v -1.935000 3.932028 -0.014114
v -2.005000 3.867972 0.014114
v -1.935000 3.867972 0.014114
v -2.005000 3.932028 -0.014114
v -1.935000 2.632028 -2.964114
v -1.935000 2.567972 -2.935886
v -2.005000 2.567972 -2.935886
v -2.005000 2.632028 -2.964114
v -2.005000 3.932028 0.014114
v -1.935000 3.867972 -0.014114
v -2.005000 3.867972 -0.014114
v -1.935000 3.932028 0.014114
v -2.005000 2.632028 2.964114
v -2.005000 2.567972 2.935886
v -1.935000 2.567972 2.935886
v -1.935000 2.632028 2.964114
v -0.950000 3.932028 -0.014114
v -1.020000 3.867972 0.014114
v -0.950000 3.867972 0.014114
v -1.020000 3.932028 -0.014114
v -0.950000 2.632028 -2.964114
v -0.950000 2.567972 -2.935886
v -1.020000 2.567972 -2.935886
v -1.020000 2.632028 -2.964114
v -1.020000 3.932028 0.014114
v -0.950000 3.867972 -0.014114
v -1.020000 3.867972 -0.014114
v -0.950000 3.932028 0.014114
v -1.020000 2.632028 2.964114
v -1.020000 2.567972 2.935886
v -0.950000 2.567972 2.935886
v -0.950000 2.632028 2.964114
v 0.035000 3.932028 -0.014114
v -0.035000 3.867972 0.014114
v 0.035000 3.867972 0.014114
v -0.035000 3.932028 -0.014114
v 0.035000 2.632028 -2.964114
v 0.035000 2.567972 -2.935886
v -0.035000 2.567972 -2.935886
v -0.035000 2.632028 -2.964114
v -0.035000 3.932028 0.014114
v 0.035000 3.867972 -0.014114
v -0.035000 3.867972 -0.014114
v 0.035000 3.932028 0.014114
v -0.035000 2.632028 2.964114
v -0.035000 2.567972 2.935886
v 0.035000 2.567972 2.935886
v 0.035000 2.632028 2.964114
v 1.020000 3.932028 -0.014114
v 0.950000 3.867972 0.014114
v 1.020000 3.867972 0.014114
v 0.950000 3.932028 -0.014114
v 1.020000 2.632028 -2.964114
v 1.020000 2.567972 -2.935886
v 0.950000 2.567972 -2.935886
v 0.950000 2.632028 -2.964114
v 0.950000 3.932028 0.014114
v 1.020000 3.867972 -0.014114
v 0.950000 3.867972 -0.014114
v 1.020000 3.932028 0.014114
v 0.950000 2.632028 2.964114
v 0.950000 2.567972 2.935886
v 1.020000 2.567972 2.935886
v 1.020000 2.632028 2.964114
v 2.005000 3.932028 -0.014114
v 1.935000 3.867972 0.014114
v 2.005000 3.867972 0.014114
v 1.935000 3.932028 -0.014114
v 2.005000 2.632028 -2.964114
v 2.005000 2.567972 -2.935886
v 1.935000 2.567972 -2.935886
v 1.935000 2.632028 -2.964114
v 1.935000 3.932028 0.014114
v 2.005000 3.867972 -0.014114
v 1.935000 3.867972 -0.014114
v 2.005000 3.932028 0.014114
v 1.935000 2.632028 2.964114
v 1.935000 2.567972 2.935886
v 2.005000 2.567972 2.935886
v 2.005000 2.632028 2.964114
v -1.500000 1.050000 -2.125000
v -1.500000 1.000000 -2.175000
v -1.500000 1.000000 -2.125000
v -1.500000 1.050000 -2.175000
v -0.800000 1.050000 -2.125000
v -0.800000 1.000000 -2.125000
v -0.800000 1.000000 -2.175000
v -0.800000 1.050000 -2.175000
v 0.800000 1.050000 -2.125000
v 0.800000 1.000000 -2.175000
v 0.800000 1.000000 -2.125000
v 0.800000 1.050000 -2.175000
v 1.500000 1.050000 -2.125000
v 1.500000 1.000000 -2.125000
v 1.500000 1.000000 -2.175000
v 1.500000 1.050000 -2.175000
v -2.175000 1.050000 2.150000
v -2.175000 1.000000 -2.150000
v -2.175000 1.000000 2.150000
v -2.175000 1.050000 -2.150000
v -2.125000 1.050000 2.150000
v -2.125000 1.000000 2.150000
v -2.125000 1.000000 -2.150000
v -2.125000 1.050000 -2.150000
v 2.125000 1.050000 2.150000
v 2.125000 1.000000 -2.150000
v 2.125000 1.000000 2.150000
v 2.125000 1.050000 -2.150000
v 2.175000 1.050000 2.150000
v 2.175000 1.000000 2.150000
v 2.175000 1.000000 -2.150000
v 2.175000 1.050000 -2.150000
vn -0.0000 -0.7071 0.7071
vn -0.0000 -0.0000 1.0000
vn -0.7071 0.7071 -0.0000
vn -0.0000 -0.9151 -0.4033
vn 1.0000 -0.0000 -0.0000
vn -0.0000 -0.0000 -1.0000
vn -0.0000 1.0000 -0.0000
vn -1.0000 -0.0000 -0.0000
vn -0.0000 -1.0000 -0.0000
vn -0.7071 -0.7071 -0.0000
vn -0.0000 0.7071 -0.7071
vn -0.0000 0.7071 0.7071
vn 0.7071 -0.7071 -0.0000
vn -0.0000 0.9151 0.4033
vn -0.0000 -0.4033 -0.9151
vn -0.0000 -0.7071 -0.7071
vn -0.0000 -0.4033 0.9151
vn -0.0000 0.4033 0.9151
vn -0.0000 0.4033 -0.9151
vn -0.0000 -0.9151 0.4033
vn 0.7071 0.7071 -0.0000
vn -0.0000 0.9151 -0.4033
s 1
usemtl paint
f 58//1 54//1 59//1
f 221//2 226//2 225//2
f 25//2 30//2 29//2
f 81//3 80//3 77//3
f 138//4 134//4 139//4
f 228//5 226//5 227//5
f 38//5 42//5 43//5
f 224//6 227//6 222//6
f 217//7 216//7 213//7
f 4//6 7//6 2//6
f 39//8 41//8 36//8
f 202//4 198//4 203//4
f 218//9 214//9 219//9
f 66//10 62//10 67//10
f 4//8 3//8 1//8
f 89//11 88//11 85//11
f 17//2 22//2 21//2
f 105//12 104//12 101//12
f 120//8 119//8 117//8
f 113//7 112//7 109//7
f 186//4 182//4 187//4
f 98//13 94//13 99//13
f 216//6 219//6 214//6
f 137//14 136//14 133//14
f 132//15 130//15 131//15
f 37//6 41//6 42//6
f 36//7 25//7 13//7
f 36//7 37//7 25//7
f 20//7 37//7 38//7
f 20//7 25//7 37//7
f 8//7 39//7 36//7
f 8//7 36//7 13//7
f 8//7 20//7 38//7
f 8//7 38//7 39//7
f 74//16 70//16 75//16
f 41//9 35//9 34//9
f 41//9 34//9 42//9
f 33//9 43//9 42//9
f 33//9 42//9 34//9
f 40//9 41//9 44//9
f 40//9 35//9 41//9
f 40//9 43//9 33//9
f 40//9 44//9 43//9
f 156//17 154//17 155//17
f 164//15 162//15 163//15
f 8//5 6//5 7//5
f 192//18 191//18 189//18
f 184//19 183//19 181//19
f 88//16 87//16 85//16
f 96//10 95//10 93//10
f 137//8 135//8 138//8
f 56//5 59//5 54//5
f 32//5 30//5 31//5
f 97//3 96//3 93//3
f 92//12 90//12 91//12
f 104//1 103//1 101//1
f 93//2 98//2 97//2
f 72//8 75//8 70//8
f 169//14 168//14 165//14
f 136//19 135//19 133//19
f 136//5 139//5 134//5
f 64//13 63//13 61//13
f 85//8 90//8 89//8
f 48//2 51//2 46//2
f 130//20 126//20 131//20
f 153//14 152//14 149//14
f 76//11 74//11 75//11
f 68//3 66//3 67//3
f 53//8 58//8 57//8
f 101//5 106//5 105//5
f 13//7 12//7 9//7
f 25//2 35//2 13//2
f 72//1 71//1 69//1
f 80//10 79//10 77//10
f 69//5 74//5 73//5
f 64//2 67//2 62//2
f 24//5 22//5 23//5
f 170//4 166//4 171//4
f 84//21 82//21 83//21
f 60//12 58//12 59//12
f 77//2 82//2 81//2
f 80//6 83//6 78//6
f 200//19 199//19 197//19
f 196//15 194//15 195//15
f 100//21 98//21 99//21
f 48//13 47//13 45//13
f 45//6 50//6 49//6
f 88//5 91//5 86//5
f 193//22 192//22 189//22
f 210//9 206//9 211//9
f 108//11 106//11 107//11
f 52//3 50//3 51//3
f 61//6 66//6 65//6
f 96//6 99//6 94//6
f 121//7 120//7 117//7
f 234//9 230//9 235//9
f 116//5 114//5 115//5
f 9//2 14//2 13//2
f 224//8 223//8 221//8
f 1//2 6//2 5//2
f 120//6 123//6 118//6
f 114//9 110//9 115//9
f 50//10 46//10 51//10
f 117//2 122//2 121//2
f 172//17 170//17 171//17
f 124//5 122//5 123//5
f 28//8 27//8 25//8
f 6//9 2//9 7//9
f 188//17 186//17 187//17
f 148//15 146//15 147//15
f 161//5 159//5 162//5
f 184//5 187//5 182//5
f 20//8 34//8 25//8
f 82//13 78//13 83//13
f 144//18 143//18 141//18
f 57//11 56//11 53//11
f 153//8 151//8 154//8
f 160//8 163//8 158//8
f 30//9 26//9 31//9
f 168//19 167//19 165//19
f 29//7 28//7 25//7
f 140//17 138//17 139//17
f 177//5 175//5 178//5
f 152//5 155//5 150//5
f 129//22 128//22 125//22
f 152//19 151//19 149//19
f 161//22 160//22 157//22
f 145//22 144//22 141//22
f 185//8 183//8 186//8
f 128//8 131//8 126//8
f 73//12 72//12 69//12
f 8//5 35//5 40//5
f 162//20 158//20 163//20
f 65//21 64//21 61//21
f 145//5 143//5 146//5
f 168//5 171//5 166//5
f 56//16 55//16 53//16
f 160//18 159//18 157//18
f 154//4 150//4 155//4
f 146//20 142//20 147//20
f 129//5 127//5 130//5
f 144//8 147//8 142//8
f 128//18 127//18 125//18
f 12//6 15//6 10//6
f 28//6 31//6 26//6
f 12//8 11//8 9//8
f 193//5 191//5 194//5
f 104//8 107//8 102//8
f 177//22 176//22 173//22
f 208//6 211//6 206//6
f 178//20 174//20 179//20
f 180//15 178//15 179//15
f 169//8 167//8 170//8
f 192//8 195//8 190//8
f 201//14 200//14 197//14
f 20//6 23//6 18//6
f 205//2 210//2 209//2
f 38//2 44//2 39//2
f 201//8 199//8 202//8
f 200//5 203//5 198//5
f 185//14 184//14 181//14
f 22//9 18//9 23//9
f 212//5 210//5 211//5
f 90//1 86//1 91//1
f 176//8 179//8 174//8
f 208//8 207//8 205//8
f 176//18 175//18 173//18
f 232//6 235//6 230//6
f 20//6 40//6 33//6
f 204//17 202//17 203//17
f 194//20 190//20 195//20
f 112//6 115//6 110//6
f 106//16 102//16 107//16
f 213//2 218//2 217//2
f 49//21 48//21 45//21
f 232//8 231//8 229//8
f 216//8 215//8 213//8
f 209//7 208//7 205//7
f 21//7 20//7 17//7
f 225//7 224//7 221//7
f 109//2 114//2 113//2
f 226//9 222//9 227//9
f 112//8 111//8 109//8
f 229//2 234//2 233//2
f 14//9 10//9 15//9
f 5//7 4//7 1//7
f 20//8 19//8 17//8
f 122//9 118//9 123//9
f 236//5 234//5 235//5
f 220//5 218//5 219//5
f 16//5 14//5 15//5
f 233//7 232//7 229//7
f 58//1 55//1 54//1
f 221//2 223//2 226//2
f 25//2 27//2 30//2
f 81//3 84//3 80//3
f 138//4 135//4 134//4
f 228//5 225//5 226//5
f 38//5 37//5 42//5
f 224//6 228//6 227//6
f 217//7 220//7 216//7
f 4//6 8//6 7//6
f 39//8 44//8 41//8
f 202//4 199//4 198//4
f 218//9 215//9 214//9
f 66//10 63//10 62//10
f 4//8 2//8 3//8
f 89//11 92//11 88//11
f 17//2 19//2 22//2
f 105//12 108//12 104//12
f 120//8 118//8 119//8
f 113//7 116//7 112//7
f 186//4 183//4 182//4
f 98//13 95//13 94//13
f 216//6 220//6 219//6
f 137//14 140//14 136//14
f 132//15 129//15 130//15
f 37//6 36//6 41//6
f 74//16 71//16 70//16
f 156//17 153//17 154//17
f 164//15 161//15 162//15
f 8//5 5//5 6//5
f 192//18 190//18 191//18
f 184//19 182//19 183//19
f 88//16 86//16 87//16
f 96//10 94//10 95//10
f 137//8 133//8 135//8
f 56//5 60//5 59//5
f 32//5 29//5 30//5
f 97//3 100//3 96//3
f 92//12 89//12 90//12
f 104//1 102//1 103//1
f 93//2 95//2 98//2
f 72//8 76//8 75//8
f 169//14 172//14 168//14
f 136//19 134//19 135//19
f 136//5 140//5 139//5
f 64//13 62//13 63//13
f 85//8 87//8 90//8
f 48//2 52//2 51//2
f 130//20 127//20 126//20
f 153//14 156//14 152//14
f 76//11 73//11 74//11
f 68//3 65//3 66//3
f 53//8 55//8 58//8
f 101//5 103//5 106//5
f 13//7 16//7 12//7
f 25//2 34//2 35//2
f 72//1 70//1 71//1
f 80//10 78//10 79//10
f 69//5 71//5 74//5
f 64//2 68//2 67//2
f 24//5 21//5 22//5
f 170//4 167//4 166//4
f 84//21 81//21 82//21
f 60//12 57//12 58//12
f 77//2 79//2 82//2
f 80//6 84//6 83//6
f 200//19 198//19 199//19
f 196//15 193//15 194//15
f 100//21 97//21 98//21
f 48//13 46//13 47//13
f 45//6 47//6 50//6
f 88//5 92//5 91//5
f 193//22 196//22 192//22
f 210//9 207//9 206//9
f 108//11 105//11 106//11
f 52//3 49//3 50//3
f 61//6 63//6 66//6
f 96//6 100//6 99//6
f 121//7 124//7 120//7
f 234//9 231//9 230//9
f 116//5 113//5 114//5
f 9//2 11//2 14//2
f 224//8 222//8 223//8
f 1//2 3//2 6//2
f 120//6 124//6 123//6
f 114//9 111//9 110//9
f 50//10 47//10 46//10
f 117//2 119//2 122//2
f 172//17 169//17 170//17
f 124//5 121//5 122//5
f 28//8 26//8 27//8
f 6//9 3//9 2//9
f 188//17 185//17 186//17
f 148//15 145//15 146//15
f 161//5 157//5 159//5
f 184//5 188//5 187//5
f 20//8 33//8 34//8
f 82//13 79//13 78//13
f 144//18 142//18 143//18
f 57//11 60//11 56//11
f 153//8 149//8 151//8
f 160//8 164//8 163//8
f 30//9 27//9 26//9
f 168//19 166//19 167//19
f 29//7 32//7 28//7
f 140//17 137//17 138//17
f 177//5 173//5 175//5
f 152//5 156//5 155//5
f 129//22 132//22 128//22
f 152//19 150//19 151//19
f 161//22 164//22 160//22
f 145//22 148//22 144//22
f 185//8 181//8 183//8
f 128//8 132//8 131//8
f 73//12 76//12 72//12
f 8//5 13//5 35//5
f 162//20 159//20 158//20
f 65//21 68//21 64//21
f 145//5 141//5 143//5
f 168//5 172//5 171//5
f 56//16 54//16 55//16
f 160//18 158//18 159//18
f 154//4 151//4 150//4
f 146//20 143//20 142//20
f 129//5 125//5 127//5
f 144//8 148//8 147//8
f 128//18 126//18 127//18
f 12//6 16//6 15//6
f 28//6 32//6 31//6
f 12//8 10//8 11//8
f 193//5 189//5 191//5
f 104//8 108//8 107//8
f 177//22 180//22 176//22
f 208//6 212//6 211//6
f 178//20 175//20 174//20
f 180//15 177//15 178//15
f 169//8 165//8 167//8
f 192//8 196//8 195//8
f 201//14 204//14 200//14
f 20//6 24//6 23//6
f 205//2 207//2 210//2
f 38//2 43//2 44//2
f 201//8 197//8 199//8
f 200//5 204//5 203//5
f 185//14 188//14 184//14
f 22//9 19//9 18//9
f 212//5 209//5 210//5
f 90//1 87//1 86//1
f 176//8 180//8 179//8
f 208//8 206//8 207//8
f 176//18 174//18 175//18
f 232//6 236//6 235//6
f 20//6 8//6 40//6
f 204//17 201//17 202//17
f 194//20 191//20 190//20
f 112//6 116//6 115//6
f 106//16 103//16 102//16
f 213//2 215//2 218//2
f 49//21 52//21 48//21
f 232//8 230//8 231//8
f 216//8 214//8 215//8
f 209//7 212//7 208//7
f 21//7 24//7 20//7
f 225//7 228//7 224//7
f 109//2 111//2 114//2
f 226//9 223//9 222//9
f 112//8 110//8 111//8
f 229//2 231//2 234//2
f 14//9 11//9 10//9
f 5//7 8//7 4//7
f 20//8 18//8 19//8
f 122//9 119//9 118//9
f 236//5 233//5 234//5
f 220//5 217//5 218//5
f 16//5 13//5 14//5
f 233//7 236//7 232//7
