# Blender 5.2.1 LTS
# www.blender.org
mtllib dock_house_trim.mtl
o dock_house_trim
v -3.150000 4.010000 -0.064000
v -3.150000 3.914000 -0.160000
v -3.150000 3.850000 -0.160000
v -3.150000 4.010000 0.064000
v -3.150000 3.850000 0.160000
v -3.150000 3.914000 0.160000
v 3.150000 3.914000 0.160000
v 3.150000 3.850000 0.160000
v 3.150000 4.010000 0.064000
v 3.150000 3.850000 -0.160000
v 3.150000 4.010000 -0.064000
v 3.150000 3.914000 -0.160000
vn -1.0000 -0.0000 -0.0000
vn -0.0000 -0.0000 -1.0000
vn -0.0000 -1.0000 -0.0000
vn -0.0000 -0.0000 1.0000
vn -0.0000 1.0000 -0.0000
vn -0.0000 0.7071 0.7071
vn 1.0000 -0.0000 -0.0000
vn -0.0000 0.7071 -0.7071
s 1
usemtl paint
f 1//1 2//1 3//1
f 4//1 3//1 5//1
f 4//1 1//1 3//1
f 6//1 4//1 5//1
f 2//2 10//2 3//2
f 8//3 3//3 10//3
f 6//4 8//4 7//4
f 9//5 1//5 4//5
f 7//6 4//6 6//6
f 11//7 10//7 12//7
f 9//7 8//7 10//7
f 9//7 10//7 11//7
f 7//7 8//7 9//7
f 12//8 1//8 11//8
f 2//2 12//2 10//2
f 8//3 5//3 3//3
f 6//4 5//4 8//4
f 9//5 11//5 1//5
f 7//6 9//6 4//6
f 12//8 2//8 1//8
