# Blender 5.2.1 LTS
# www.blender.org
mtllib dock_house_floor.mtl
o dock_house_floor
v -2.270000 0.160000 2.270000
v -2.270000 0.000000 -2.270000
v -2.270000 0.000000 2.270000
v -2.270000 0.160000 -2.270000
v 2.270000 0.160000 2.270000
v 2.270000 0.000000 2.270000
v 2.090000 0.160000 2.090000
v -2.090000 0.160000 2.090000
v -2.090000 0.160000 -2.090000
v 2.090000 0.160000 -2.090000
v 2.270000 0.160000 -2.270000
v 2.270000 0.000000 -2.270000
v -2.090000 0.000000 2.090000
v 2.090000 0.000000 2.090000
v -2.090000 0.000000 -2.090000
v 2.090000 0.000000 -2.090000
v -2.400000 0.210000 2.400000
v -2.400000 0.160000 2.045833
v -2.400000 0.160000 2.400000
v -2.400000 0.210000 2.045833
v 2.400000 0.210000 2.400000
v 2.400000 0.160000 2.400000
v 2.400000 0.160000 2.045833
v 2.400000 0.210000 2.045833
v -2.400000 0.210000 1.995833
v -2.400000 0.160000 1.641667
v -2.400000 0.160000 1.995833
v -2.400000 0.210000 1.641667
v 2.400000 0.210000 1.995833
v 2.400000 0.160000 1.995833
v 2.400000 0.160000 1.641667
v 2.400000 0.210000 1.641667
v -2.400000 0.210000 1.591667
v -2.400000 0.160000 1.237500
v -2.400000 0.160000 1.591667
v -2.400000 0.210000 1.237500
v 2.400000 0.210000 1.591667
v 2.400000 0.160000 1.591667
v 2.400000 0.160000 1.237500
v 2.400000 0.210000 1.237500
v -2.400000 0.210000 1.187500
v -2.400000 0.160000 0.833333
v -2.400000 0.160000 1.187500
v -2.400000 0.210000 0.833333
v 2.400000 0.210000 1.187500
v 2.400000 0.160000 1.187500
v 2.400000 0.160000 0.833333
v 2.400000 0.210000 0.833333
v -2.400000 0.210000 0.783333
v -2.400000 0.160000 0.429167
v -2.400000 0.160000 0.783333
v -2.400000 0.210000 0.429167
v 2.400000 0.210000 0.783333
v 2.400000 0.160000 0.783333
v 2.400000 0.160000 0.429167
v 2.400000 0.210000 0.429167
v -2.400000 0.210000 0.379167
v -2.400000 0.160000 0.025000
v -2.400000 0.160000 0.379167
v -2.400000 0.210000 0.025000
v 2.400000 0.210000 0.379167
v 2.400000 0.160000 0.379167
v 2.400000 0.160000 0.025000
v 2.400000 0.210000 0.025000
v -2.400000 0.210000 -0.025000
v -2.400000 0.160000 -0.379167
v -2.400000 0.160000 -0.025000
v -2.400000 0.210000 -0.379167
v 2.400000 0.210000 -0.025000
v 2.400000 0.160000 -0.025000
v 2.400000 0.160000 -0.379167
v 2.400000 0.210000 -0.379167
v -2.400000 0.210000 -0.429167
v -2.400000 0.160000 -0.783333
v -2.400000 0.160000 -0.429167
v -2.400000 0.210000 -0.783333
v 2.400000 0.210000 -0.429167
v 2.400000 0.160000 -0.429167
v 2.400000 0.160000 -0.783333
v 2.400000 0.210000 -0.783333
v -2.400000 0.210000 -0.833333
v -2.400000 0.160000 -1.187500
v -2.400000 0.160000 -0.833333
v -2.400000 0.210000 -1.187500
v 2.400000 0.210000 -0.833333
v 2.400000 0.160000 -0.833333
v 2.400000 0.160000 -1.187500
v 2.400000 0.210000 -1.187500
v -2.400000 0.210000 -1.237500
v -2.400000 0.160000 -1.591667
v -2.400000 0.160000 -1.237500
v -2.400000 0.210000 -1.591667
v 2.400000 0.210000 -1.237500
v 2.400000 0.160000 -1.237500
v 2.400000 0.160000 -1.591667
v 2.400000 0.210000 -1.591667
v -2.400000 0.210000 -1.641667
v -2.400000 0.160000 -1.995833
v -2.400000 0.160000 -1.641667
v -2.400000 0.210000 -1.995833
v 2.400000 0.210000 -1.641667
v 2.400000 0.160000 -1.641667
v 2.400000 0.160000 -1.995833
v 2.400000 0.210000 -1.995833
v -2.400000 0.210000 -2.045833
v -2.400000 0.160000 -2.400000
v -2.400000 0.160000 -2.045833
v -2.400000 0.210000 -2.400000
v 2.400000 0.210000 -2.045833
v 2.400000 0.160000 -2.045833
v 2.400000 0.160000 -2.400000
v 2.400000 0.210000 -2.400000
vn 1.0000 -0.0000 -0.0000
vn -0.0000 -0.0000 -1.0000
vn -0.0000 1.0000 -0.0000
vn -0.0000 -1.0000 -0.0000
vn -0.0000 -0.0000 1.0000
vn -1.0000 -0.0000 -0.0000
s 1
usemtl paint
f 88//1 86//1 87//1
f 60//2 63//2 58//2
f 5//3 7//3 8//3
f 5//3 8//3 1//3
f 4//3 8//3 9//3
f 4//3 1//3 8//3
f 10//3 7//3 5//3
f 11//3 10//3 5//3
f 11//3 4//3 9//3
f 11//3 9//3 10//3
f 102//4 98//4 103//4
f 6//4 13//4 14//4
f 6//4 3//4 13//4
f 2//4 15//4 13//4
f 2//4 13//4 3//4
f 16//4 6//4 14//4
f 12//4 6//4 16//4
f 12//4 15//4 2//4
f 12//4 16//4 15//4
f 89//5 94//5 93//5
f 69//3 68//3 65//3
f 44//2 47//2 42//2
f 54//4 50//4 55//4
f 53//3 52//3 49//3
f 28//2 31//2 26//2
f 25//5 30//5 29//5
f 21//3 20//3 17//3
f 76//2 79//2 74//2
f 37//3 36//3 33//3
f 1//5 6//5 5//5
f 100//6 99//6 97//6
f 52//6 51//6 49//6
f 4//6 3//6 1//6
f 36//6 35//6 33//6
f 29//3 28//3 25//3
f 9//1 13//1 15//1
f 101//3 100//3 97//3
f 46//4 42//4 47//4
f 36//2 39//2 34//2
f 10//6 14//6 7//6
f 62//4 58//4 63//4
f 8//2 14//2 13//2
f 48//1 46//1 47//1
f 20//2 23//2 18//2
f 76//6 75//6 73//6
f 17//5 22//5 21//5
f 9//5 16//5 10//5
f 81//5 86//5 85//5
f 11//1 6//1 12//1
f 49//5 54//5 53//5
f 28//6 27//6 25//6
f 92//2 95//2 90//2
f 24//1 22//1 23//1
f 20//6 19//6 17//6
f 64//1 62//1 63//1
f 108//6 107//6 105//6
f 60//6 59//6 57//6
f 30//4 26//4 31//4
f 57//5 62//5 61//5
f 68//6 67//6 65//6
f 112//1 110//1 111//1
f 45//3 44//3 41//3
f 38//4 34//4 39//4
f 61//3 60//3 57//3
f 65//5 70//5 69//5
f 33//5 38//5 37//5
f 70//4 66//4 71//4
f 68//2 71//2 66//2
f 108//2 111//2 106//2
f 22//4 18//4 23//4
f 41//5 46//5 45//5
f 80//1 78//1 79//1
f 78//4 74//4 79//4
f 44//6 43//6 41//6
f 84//6 83//6 81//6
f 77//3 76//3 73//3
f 73//5 78//5 77//5
f 110//4 106//4 111//4
f 84//2 87//2 82//2
f 72//1 70//1 71//1
f 40//1 38//1 39//1
f 96//1 94//1 95//1
f 92//6 91//6 89//6
f 86//4 82//4 87//4
f 32//1 30//1 31//1
f 52//2 55//2 50//2
f 94//4 90//4 95//4
f 104//1 102//1 103//1
f 56//1 54//1 55//1
f 100//2 103//2 98//2
f 97//5 102//5 101//5
f 93//3 92//3 89//3
f 85//3 84//3 81//3
f 105//5 110//5 109//5
f 4//2 12//2 2//2
f 109//3 108//3 105//3
f 88//1 85//1 86//1
f 60//2 64//2 63//2
f 102//4 99//4 98//4
f 89//5 91//5 94//5
f 69//3 72//3 68//3
f 44//2 48//2 47//2
f 54//4 51//4 50//4
f 53//3 56//3 52//3
f 28//2 32//2 31//2
f 25//5 27//5 30//5
f 21//3 24//3 20//3
f 76//2 80//2 79//2
f 37//3 40//3 36//3
f 1//5 3//5 6//5
f 100//6 98//6 99//6
f 52//6 50//6 51//6
f 4//6 2//6 3//6
f 36//6 34//6 35//6
f 29//3 32//3 28//3
f 9//1 8//1 13//1
f 101//3 104//3 100//3
f 46//4 43//4 42//4
f 36//2 40//2 39//2
f 10//6 16//6 14//6
f 62//4 59//4 58//4
f 8//2 7//2 14//2
f 48//1 45//1 46//1
f 20//2 24//2 23//2
f 76//6 74//6 75//6
f 17//5 19//5 22//5
f 9//5 15//5 16//5
f 81//5 83//5 86//5
f 11//1 5//1 6//1
f 49//5 51//5 54//5
f 28//6 26//6 27//6
f 92//2 96//2 95//2
f 24//1 21//1 22//1
f 20//6 18//6 19//6
f 64//1 61//1 62//1
f 108//6 106//6 107//6
f 60//6 58//6 59//6
f 30//4 27//4 26//4
f 57//5 59//5 62//5
f 68//6 66//6 67//6
f 112//1 109//1 110//1
f 45//3 48//3 44//3
f 38//4 35//4 34//4
f 61//3 64//3 60//3
f 65//5 67//5 70//5
f 33//5 35//5 38//5
f 70//4 67//4 66//4
f 68//2 72//2 71//2
f 108//2 112//2 111//2
f 22//4 19//4 18//4
f 41//5 43//5 46//5
f 80//1 77//1 78//1
f 78//4 75//4 74//4
f 44//6 42//6 43//6
f 84//6 82//6 83//6
f 77//3 80//3 76//3
f 73//5 75//5 78//5
f 110//4 107//4 106//4
f 84//2 88//2 87//2
f 72//1 69//1 70//1
f 40//1 37//1 38//1
f 96//1 93//1 94//1
f 92//6 90//6 91//6
f 86//4 83//4 82//4
f 32//1 29//1 30//1
f 52//2 56//2 55//2
f 94//4 91//4 90//4
f 104//1 101//1 102//1
f 56//1 53//1 54//1
f 100//2 104//2 103//2
f 97//5 99//5 102//5
f 93//3 96//3 92//3
f 85//3 88//3 84//3
f 105//5 107//5 110//5
f 4//2 11//2 12//2
f 109//3 112//3 108//3
