# Blender 5.2.1 LTS
# www.blender.org
mtllib dock_house_roof.mtl
o dock_house_roof
v -2.950000 3.900000 0.000000
v -2.950000 2.600000 2.950000
v 2.950000 2.600000 2.950000
v 2.950000 3.900000 0.000000
v -2.950000 2.600000 -2.950000
v 2.950000 2.600000 -2.950000
vn -0.0000 0.9151 0.4033
vn -0.0000 0.9151 -0.4033
vn -1.0000 -0.0000 -0.0000
vn 1.0000 -0.0000 -0.0000
vn -0.0000 -1.0000 -0.0000
s 1
usemtl paint
f 4//1 2//1 3//1
f 6//2 1//2 4//2
f 2//3 1//3 5//3
f 3//4 6//4 4//4
f 3//5 5//5 6//5
f 4//1 1//1 2//1
f 6//2 5//2 1//2
f 3//5 2//5 5//5
