# Blender 5.2.1 LTS
# www.blender.org
mtllib pool_house_floor.mtl
o pool_house_floor
v -5.000000 0.120000 3.000000
v -5.000000 0.000000 -3.000000
v -5.000000 0.000000 3.000000
v -5.000000 0.120000 -3.000000
v 5.000000 0.120000 3.000000
v 5.000000 0.000000 3.000000
v -4.970000 0.150000 -2.970000
v -4.970000 0.150000 2.970000
v 5.000000 0.000000 -3.000000
v 5.000000 0.120000 -3.000000
v 4.970000 0.150000 2.970000
v 4.970000 0.150000 -2.970000
v -4.700000 0.170000 2.700000
v -4.700000 0.000000 -2.700000
v -4.700000 0.000000 2.700000
v -4.700000 0.170000 -2.700000
v 4.700000 0.170000 2.700000
v 4.700000 0.000000 2.700000
v -4.670000 0.200000 2.670000
v -4.670000 0.200000 -2.670000
v 4.700000 0.000000 -2.700000
v 4.700000 0.170000 -2.700000
v 4.670000 0.200000 2.670000
v 4.670000 0.200000 -2.670000
v -4.200000 0.300000 2.200000
v -4.200000 0.200000 -2.200000
v -4.200000 0.200000 2.200000
v -4.200000 0.300000 -2.200000
v 4.200000 0.300000 2.200000
v 4.200000 0.200000 2.200000
v 4.200000 0.200000 -2.200000
v 4.200000 0.300000 -2.200000
vn -0.0000 1.0000 -0.0000
vn -0.0000 -0.0000 1.0000
vn -0.7071 0.7071 -0.0000
vn -1.0000 -0.0000 -0.0000
vn -0.0000 0.7071 0.7071
vn -0.0000 0.7071 -0.7071
vn 0.7071 0.7071 -0.0000
vn -0.0000 -1.0000 -0.0000
vn -0.0000 -0.0000 -1.0000
vn 1.0000 -0.0000 -0.0000
s 1
usemtl paint
f 23//1 20//1 19//1
f 13//2 18//2 17//2
f 7//3 1//3 8//3
f 7//3 4//3 1//3
f 25//2 30//2 29//2
f 16//4 15//4 13//4
f 11//1 7//1 8//1
f 11//5 8//5 1//5
f 11//5 1//5 5//5
f 1//2 6//2 5//2
f 12//6 4//6 7//6
f 12//6 10//6 4//6
f 12//7 11//7 5//7
f 12//7 5//7 10//7
f 4//4 3//4 1//4
f 6//8 2//8 9//8
f 16//3 13//3 19//3
f 20//3 16//3 19//3
f 28//9 31//9 26//9
f 28//4 27//4 25//4
f 18//8 14//8 21//8
f 17//5 19//5 13//5
f 23//5 19//5 17//5
f 10//10 6//10 9//10
f 22//6 16//6 20//6
f 24//6 22//6 20//6
f 22//7 23//7 17//7
f 24//7 23//7 22//7
f 22//10 18//10 21//10
f 30//8 26//8 31//8
f 16//9 21//9 14//9
f 32//10 30//10 31//10
f 4//9 9//9 2//9
f 29//1 28//1 25//1
f 23//1 24//1 20//1
f 13//2 15//2 18//2
f 25//2 27//2 30//2
f 16//4 14//4 15//4
f 11//1 12//1 7//1
f 1//2 3//2 6//2
f 4//4 2//4 3//4
f 6//8 3//8 2//8
f 28//9 32//9 31//9
f 28//4 26//4 27//4
f 18//8 15//8 14//8
f 10//10 5//10 6//10
f 22//10 17//10 18//10
f 30//8 27//8 26//8
f 16//9 22//9 21//9
f 32//10 29//10 30//10
f 4//9 10//9 9//9
f 29//1 32//1 28//1
