# Blender 5.2.1 LTS
# www.blender.org
mtllib pool_house_wall.mtl
o pool_house_wall
v -4.500000 1.300000 0.495000
v -4.500000 1.300000 -0.495000
v -4.500000 0.200000 -2.170000
v -4.500000 2.470000 -0.495000
v -4.500000 3.600000 -2.170000
v -4.500000 0.200000 2.500000
v -4.500000 2.470000 0.495000
v -4.500000 3.600000 2.500000
v -4.200000 3.600000 2.200000
v -4.200000 3.600000 -2.170000
v 4.200000 3.600000 2.200000
v 4.500000 3.600000 2.500000
v 4.500000 3.600000 -2.170000
v 4.200000 3.600000 -2.170000
v -4.200000 0.200000 -2.170000
v -0.600000 0.200000 2.500000
v -4.200000 0.200000 2.200000
v -0.600000 0.200000 2.440000
v -0.500000 0.200000 2.200000
v -0.500000 0.200000 2.440000
v -0.600000 2.650000 2.500000
v 4.500000 0.200000 2.500000
v 0.600000 2.650000 2.500000
v 0.600000 0.200000 2.500000
v -4.437000 2.470000 -0.495000
v -4.437000 1.300000 -0.495000
v -4.437000 1.300000 -0.405000
v -4.437000 1.300000 0.405000
v -4.200000 1.300000 -0.405000
v -4.200000 1.300000 0.405000
v -4.437000 1.300000 0.495000
v -4.437000 2.470000 0.495000
v -4.200000 2.380000 -0.405000
v -4.200000 2.380000 0.405000
v -0.500000 2.550000 2.200000
v 4.200000 0.200000 2.200000
v 0.500000 0.200000 2.200000
v 0.500000 2.550000 2.200000
v 4.200000 1.300000 0.405000
v 4.200000 1.300000 -0.405000
v 4.200000 0.200000 -2.170000
v 4.200000 2.380000 -0.405000
v 4.200000 2.380000 0.405000
v 4.500000 0.200000 -2.170000
v 4.500000 1.300000 0.495000
v 4.500000 1.300000 -0.495000
v 4.500000 2.470000 -0.495000
v 4.500000 2.470000 0.495000
v -0.500000 2.550000 2.440000
v 0.500000 2.550000 2.440000
v 0.500000 0.200000 2.440000
v 0.600000 0.200000 2.440000
v 0.600000 2.650000 2.440000
v -0.600000 2.650000 2.440000
v -4.437000 2.380000 0.405000
v -4.437000 2.380000 -0.405000
v 4.437000 2.380000 -0.405000
v 4.437000 1.300000 -0.405000
v 4.437000 1.300000 0.405000
v 4.437000 1.300000 0.495000
v 4.437000 1.300000 -0.495000
v 4.437000 2.380000 0.405000
v 4.437000 2.470000 -0.495000
v 4.437000 2.470000 0.495000
v -4.500000 3.600000 -2.200000
v -4.500000 0.200000 -2.500000
v -4.500000 0.200000 -2.200000
v -4.500000 3.600000 -2.500000
v -4.020000 2.470000 -2.200000
v -4.020000 0.200000 -2.200000
v -3.983608 2.640832 -2.200000
v -3.918819 2.803037 -2.200000
v -3.827506 2.951932 -2.200000
v -3.712304 3.083220 -2.200000
v -3.576539 3.193109 -2.200000
v -3.424130 3.278428 -2.200000
v -3.259477 3.336714 -2.200000
v -3.087332 3.366284 -2.200000
v -2.912668 3.366284 -2.200000
v -1.020000 2.470000 -2.200000
v -1.980000 0.200000 -2.200000
v -1.020000 0.200000 -2.200000
v -1.980000 2.470000 -2.200000
v -0.983607 2.640832 -2.200000
v -2.081181 2.803037 -2.200000
v -2.016392 2.640832 -2.200000
v -0.918819 2.803037 -2.200000
v -0.827506 2.951932 -2.200000
v -2.172494 2.951932 -2.200000
v -0.712304 3.083220 -2.200000
v -2.287696 3.083220 -2.200000
v -0.576539 3.193109 -2.200000
v -2.575870 3.278428 -2.200000
v -2.423461 3.193109 -2.200000
v -0.424130 3.278428 -2.200000
v -2.740523 3.336714 -2.200000
v -0.259477 3.336714 -2.200000
v -0.087333 3.366284 -2.200000
v 1.020000 2.470000 -2.200000
v 1.020000 0.200000 -2.200000
v 1.980000 0.200000 -2.200000
v 1.980000 2.470000 -2.200000
v 2.016392 2.640832 -2.200000
v 0.918819 2.803037 -2.200000
v 0.983607 2.640832 -2.200000
v 2.081181 2.803037 -2.200000
v 0.827506 2.951932 -2.200000
v 2.172494 2.951932 -2.200000
v 2.287696 3.083220 -2.200000
v 0.712304 3.083220 -2.200000
v 2.423461 3.193109 -2.200000
v 0.424130 3.278428 -2.200000
v 0.576539 3.193109 -2.200000
v 2.575870 3.278428 -2.200000
v 2.740523 3.336714 -2.200000
v 0.259477 3.336714 -2.200000
v 2.912668 3.366284 -2.200000
v 0.087333 3.366284 -2.200000
v 4.020000 2.470000 -2.200000
v 4.020000 0.200000 -2.200000
v 4.500000 0.200000 -2.200000
v 4.500000 3.600000 -2.200000
v 3.087332 3.366284 -2.200000
v 3.259477 3.336714 -2.200000
v 3.424130 3.278428 -2.200000
v 3.576539 3.193109 -2.200000
v 3.712304 3.083220 -2.200000
v 3.827506 2.951932 -2.200000
v 3.918819 2.803037 -2.200000
v 3.983608 2.640832 -2.200000
v 4.500000 3.600000 -2.500000
v -4.020000 2.470000 -2.500000
v -4.020000 0.200000 -2.500000
v -3.983608 2.640832 -2.500000
v -3.918819 2.803037 -2.500000
v -3.827506 2.951932 -2.500000
v -3.712304 3.083220 -2.500000
v -3.576539 3.193109 -2.500000
v -3.424130 3.278428 -2.500000
v -3.259477 3.336714 -2.500000
v -3.087332 3.366284 -2.500000
v -2.912668 3.366284 -2.500000
v -1.020000 2.470000 -2.500000
v -1.020000 0.200000 -2.500000
v -1.980000 0.200000 -2.500000
v -1.980000 2.470000 -2.500000
v -0.983607 2.640832 -2.500000
v -2.016392 2.640832 -2.500000
v -2.081181 2.803037 -2.500000
v -0.918819 2.803037 -2.500000
v -0.827506 2.951932 -2.500000
v -2.172494 2.951932 -2.500000
v -0.712304 3.083220 -2.500000
v -2.287696 3.083220 -2.500000
v -0.576539 3.193109 -2.500000
v -2.423461 3.193109 -2.500000
v -2.575870 3.278428 -2.500000
v -0.424130 3.278428 -2.500000
v -2.740523 3.336714 -2.500000
v -0.259477 3.336714 -2.500000
v -0.087333 3.366284 -2.500000
v 1.020000 2.470000 -2.500000
v 1.980000 0.200000 -2.500000
v 1.020000 0.200000 -2.500000
v 1.980000 2.470000 -2.500000
v 2.016392 2.640832 -2.500000
v 0.983607 2.640832 -2.500000
v 0.918819 2.803037 -2.500000
v 2.081181 2.803037 -2.500000
v 0.827506 2.951932 -2.500000
v 2.172494 2.951932 -2.500000
v 2.287696 3.083220 -2.500000
v 0.712304 3.083220 -2.500000
v 2.423461 3.193109 -2.500000
v 0.576539 3.193109 -2.500000
v 0.424130 3.278428 -2.500000
v 2.575870 3.278428 -2.500000
v 2.740523 3.336714 -2.500000
v 0.259477 3.336714 -2.500000
v 2.912668 3.366284 -2.500000
v 0.087333 3.366284 -2.500000
v 4.020000 2.470000 -2.500000
v 4.500000 0.200000 -2.500000
v 4.020000 0.200000 -2.500000
v 3.087332 3.366284 -2.500000
v 3.259477 3.336714 -2.500000
v 3.424130 3.278428 -2.500000
v 3.576539 3.193109 -2.500000
v 3.712304 3.083220 -2.500000
v 3.827506 2.951932 -2.500000
v 3.918819 2.803037 -2.500000
v 3.983608 2.640832 -2.500000
v -4.020000 0.200000 -2.280000
v -4.020000 0.200000 -2.420000
v -3.900000 0.200000 -2.420000
v -3.900000 0.200000 -2.280000
v -4.020000 2.470000 -2.280000
v -3.983608 2.640832 -2.280000
v -3.918819 2.803037 -2.280000
v -3.827506 2.951932 -2.280000
v -3.712304 3.083220 -2.280000
v -3.576539 3.193109 -2.280000
v -3.424130 3.278428 -2.280000
v -3.259477 3.336714 -2.280000
v -3.087332 3.366284 -2.280000
v -2.912668 3.366284 -2.280000
v -2.740523 3.336714 -2.280000
v -2.575870 3.278428 -2.280000
v -2.423461 3.193109 -2.280000
v -2.287696 3.083220 -2.280000
v -2.172494 2.951932 -2.280000
v -2.081181 2.803037 -2.280000
v -2.016392 2.640832 -2.280000
v -1.980000 2.470000 -2.280000
v -1.980000 0.200000 -2.280000
v -1.980000 0.200000 -2.420000
v -2.100000 0.200000 -2.280000
v -2.100000 0.200000 -2.420000
v -1.020000 0.200000 -2.280000
v -1.020000 0.200000 -2.420000
v -0.900000 0.200000 -2.420000
v -0.900000 0.200000 -2.280000
v -1.020000 2.470000 -2.280000
v -0.983607 2.640832 -2.280000
v -0.918819 2.803037 -2.280000
v -0.827506 2.951932 -2.280000
v -0.712304 3.083220 -2.280000
v -0.576539 3.193109 -2.280000
v -0.424130 3.278428 -2.280000
v -0.259477 3.336714 -2.280000
v -0.087333 3.366284 -2.280000
v 0.087333 3.366284 -2.280000
v 0.259477 3.336714 -2.280000
v 0.424130 3.278428 -2.280000
v 0.576539 3.193109 -2.280000
v 0.712304 3.083220 -2.280000
v 0.827506 2.951932 -2.280000
v 0.918819 2.803037 -2.280000
v 0.983607 2.640832 -2.280000
v 1.020000 2.470000 -2.280000
v 1.020000 0.200000 -2.280000
v 0.900000 0.200000 -2.420000
v 0.900000 0.200000 -2.280000
v 1.020000 0.200000 -2.420000
v 1.980000 0.200000 -2.280000
v 1.980000 0.200000 -2.420000
v 2.100000 0.200000 -2.420000
v 2.100000 0.200000 -2.280000
v 1.980000 2.470000 -2.280000
v 2.016392 2.640832 -2.280000
v 2.081181 2.803037 -2.280000
v 2.172494 2.951932 -2.280000
v 2.287696 3.083220 -2.280000
v 2.423461 3.193109 -2.280000
v 2.575870 3.278428 -2.280000
v 2.740523 3.336714 -2.280000
v 2.912668 3.366284 -2.280000
v 3.087332 3.366284 -2.280000
v 3.259477 3.336714 -2.280000
v 3.424130 3.278428 -2.280000
v 3.576539 3.193109 -2.280000
v 3.712304 3.083220 -2.280000
v 3.827506 2.951932 -2.280000
v 3.918819 2.803037 -2.280000
v 3.983608 2.640832 -2.280000
v 4.020000 2.470000 -2.280000
v 4.020000 0.200000 -2.280000
v 4.020000 0.200000 -2.420000
v 3.900000 0.200000 -2.280000
v 3.900000 0.200000 -2.420000
v -4.020000 2.470000 -2.420000
v -3.983608 2.640832 -2.420000
v -3.918819 2.803037 -2.420000
v -3.827506 2.951932 -2.420000
v -3.712304 3.083220 -2.420000
v -3.576539 3.193109 -2.420000
v -3.424130 3.278428 -2.420000
v -3.259477 3.336714 -2.420000
v -3.087332 3.366284 -2.420000
v -2.912668 3.366284 -2.420000
v -2.740523 3.336714 -2.420000
v -2.575870 3.278428 -2.420000
v -2.423461 3.193109 -2.420000
v -2.287696 3.083220 -2.420000
v -2.172494 2.951932 -2.420000
v -2.081181 2.803037 -2.420000
v -2.016392 2.640832 -2.420000
v -1.980000 2.470000 -2.420000
v -1.020000 2.470000 -2.420000
v -0.983607 2.640832 -2.420000
v -0.918819 2.803037 -2.420000
v -0.827506 2.951932 -2.420000
v -0.712304 3.083220 -2.420000
v -0.576539 3.193109 -2.420000
v -0.424130 3.278428 -2.420000
v -0.259477 3.336714 -2.420000
v -0.087333 3.366284 -2.420000
v 0.087333 3.366284 -2.420000
v 0.259477 3.336714 -2.420000
v 0.424130 3.278428 -2.420000
v 0.576539 3.193109 -2.420000
v 0.712304 3.083220 -2.420000
v 0.827506 2.951932 -2.420000
v 0.918819 2.803037 -2.420000
v 0.983607 2.640832 -2.420000
v 1.020000 2.470000 -2.420000
v 1.980000 2.470000 -2.420000
v 2.016392 2.640832 -2.420000
v 2.081181 2.803037 -2.420000
v 2.172494 2.951932 -2.420000
v 2.287696 3.083220 -2.420000
v 2.423461 3.193109 -2.420000
v 2.575870 3.278428 -2.420000
v 2.740523 3.336714 -2.420000
v 2.912668 3.366284 -2.420000
v 3.087332 3.366284 -2.420000
v 3.259477 3.336714 -2.420000
v 3.424130 3.278428 -2.420000
v 3.576539 3.193109 -2.420000
v 3.712304 3.083220 -2.420000
v 3.827506 2.951932 -2.420000
v 3.918819 2.803037 -2.420000
v 3.983608 2.640832 -2.420000
v 4.020000 2.470000 -2.420000
v -3.900000 2.350000 -2.420000
v -3.886327 2.506283 -2.420000
v -3.845723 2.657818 -2.420000
v -3.779423 2.800000 -2.420000
v -3.689440 2.928509 -2.420000
v -3.578509 3.039440 -2.420000
v -3.450000 3.129423 -2.420000
v -3.307818 3.195723 -2.420000
v -3.156283 3.236327 -2.420000
v -2.100000 2.350000 -2.420000
v -3.000000 3.250000 -2.420000
v -2.843717 3.236327 -2.420000
v -2.113673 2.506283 -2.420000
v -2.692182 3.195723 -2.420000
v -2.154277 2.657818 -2.420000
v -2.550000 3.129423 -2.420000
v -2.220577 2.800000 -2.420000
v -2.421491 3.039440 -2.420000
v -2.310560 2.928509 -2.420000
v -3.900000 2.350000 -2.280000
v -3.886327 2.506283 -2.280000
v -3.845723 2.657818 -2.280000
v -3.779423 2.800000 -2.280000
v -3.689440 2.928509 -2.280000
v -3.578509 3.039440 -2.280000
v -3.450000 3.129423 -2.280000
v -3.307818 3.195723 -2.280000
v -3.156283 3.236327 -2.280000
v -2.100000 2.350000 -2.280000
v -3.000000 3.250000 -2.280000
v -2.843717 3.236327 -2.280000
v -2.113673 2.506283 -2.280000
v -2.692182 3.195723 -2.280000
v -2.154277 2.657818 -2.280000
v -2.550000 3.129423 -2.280000
v -2.220577 2.800000 -2.280000
v -2.421491 3.039440 -2.280000
v -2.310560 2.928509 -2.280000
v -0.900000 2.350000 -2.420000
v -0.886327 2.506283 -2.420000
v -0.845723 2.657818 -2.420000
v -0.779423 2.800000 -2.420000
v -0.689440 2.928509 -2.420000
v -0.578509 3.039440 -2.420000
v -0.450000 3.129423 -2.420000
v -0.307818 3.195723 -2.420000
v -0.156283 3.236327 -2.420000
v 0.900000 2.350000 -2.420000
v 0.000000 3.250000 -2.420000
v 0.156283 3.236327 -2.420000
v 0.886327 2.506283 -2.420000
v 0.307818 3.195723 -2.420000
v 0.845723 2.657818 -2.420000
v 0.450000 3.129423 -2.420000
v 0.779423 2.800000 -2.420000
v 0.578509 3.039440 -2.420000
v 0.689440 2.928509 -2.420000
v -0.900000 2.350000 -2.280000
v -0.886327 2.506283 -2.280000
v -0.845723 2.657818 -2.280000
v -0.779423 2.800000 -2.280000
v -0.689440 2.928509 -2.280000
v -0.578509 3.039440 -2.280000
v -0.450000 3.129423 -2.280000
v -0.307818 3.195723 -2.280000
v -0.156283 3.236327 -2.280000
v 0.900000 2.350000 -2.280000
v 0.000000 3.250000 -2.280000
v 0.156283 3.236327 -2.280000
v 0.886327 2.506283 -2.280000
v 0.307818 3.195723 -2.280000
v 0.845723 2.657818 -2.280000
v 0.450000 3.129423 -2.280000
v 0.779423 2.800000 -2.280000
v 0.578509 3.039440 -2.280000
v 0.689440 2.928509 -2.280000
v 2.100000 2.350000 -2.420000
v 2.113673 2.506283 -2.420000
v 2.154277 2.657818 -2.420000
v 2.220577 2.800000 -2.420000
v 2.310560 2.928509 -2.420000
v 2.421491 3.039440 -2.420000
v 2.550000 3.129423 -2.420000
v 2.692182 3.195723 -2.420000
v 2.843717 3.236327 -2.420000
v 3.900000 2.350000 -2.420000
v 3.000000 3.250000 -2.420000
v 3.156283 3.236327 -2.420000
v 3.886327 2.506283 -2.420000
v 3.307818 3.195723 -2.420000
v 3.845723 2.657818 -2.420000
v 3.450000 3.129423 -2.420000
v 3.779423 2.800000 -2.420000
v 3.578509 3.039440 -2.420000
v 3.689440 2.928509 -2.420000
v 2.100000 2.350000 -2.280000
v 2.113673 2.506283 -2.280000
v 2.154277 2.657818 -2.280000
v 2.220577 2.800000 -2.280000
v 2.310560 2.928509 -2.280000
v 2.421491 3.039440 -2.280000
v 2.550000 3.129423 -2.280000
v 2.692182 3.195723 -2.280000
v 2.843717 3.236327 -2.280000
v 3.900000 2.350000 -2.280000
v 3.000000 3.250000 -2.280000
v 3.156283 3.236327 -2.280000
v 3.886327 2.506283 -2.280000
v 3.307818 3.195723 -2.280000
v 3.845723 2.657818 -2.280000
v 3.450000 3.129423 -2.280000
v 3.779423 2.800000 -2.280000
v 3.578509 3.039440 -2.280000
v 3.689440 2.928509 -2.280000
vn -1.0000 -0.0000 -0.0000
vn -0.0000 1.0000 -0.0000
vn 0.8938 -0.4485 -0.0000
vn 0.8050 -0.5933 -0.0000
vn -0.0000 -1.0000 -0.0000
vn -0.0000 -0.0000 1.0000
vn 0.7660 -0.6428 -0.0000
vn 0.6428 -0.7660 -0.0000
vn -0.8050 -0.5933 -0.0000
vn -0.8938 -0.4485 -0.0000
vn -0.9945 -0.1048 -0.0000
vn 0.5608 -0.8279 -0.0000
vn 0.4126 -0.9109 -0.0000
vn 1.0000 -0.0000 -0.0000
vn -0.0000 -0.0000 -1.0000
vn 0.9397 -0.3420 -0.0000
vn 0.8660 -0.5000 -0.0000
vn -0.0850 -0.9964 -0.0000
vn -0.2524 -0.9676 -0.0000
vn 0.5000 -0.8660 -0.0000
vn 0.3420 -0.9397 -0.0000
vn -0.9990 -0.0436 -0.0000
vn -0.6929 -0.7210 -0.0000
vn -0.5000 -0.8660 -0.0000
vn -0.6428 -0.7660 -0.0000
vn 0.2524 -0.9676 -0.0000
vn 0.9568 -0.2907 -0.0000
vn 0.9945 -0.1048 -0.0000
vn -0.8660 -0.5000 -0.0000
vn -0.7660 -0.6428 -0.0000
vn -0.3420 -0.9397 -0.0000
vn 0.0850 -0.9964 -0.0000
vn -0.0000 -0.0001 -1.0000
vn -0.9848 -0.1737 -0.0000
vn -0.9397 -0.3420 -0.0000
vn -0.9848 -0.1736 -0.0000
vn -0.4126 -0.9109 -0.0000
vn -0.9568 -0.2907 -0.0000
vn 0.9848 -0.1736 -0.0000
vn 0.9990 -0.0436 -0.0000
vn 0.9848 -0.1737 -0.0000
vn 0.6929 -0.7210 -0.0000
vn -0.5608 -0.8279 -0.0000
vn 0.1737 -0.9848 -0.0000
vn 0.1736 -0.9848 -0.0000
vn -0.1736 -0.9848 -0.0000
vn -0.1737 -0.9848 -0.0000
s 1
usemtl paint
f 1//1 2//1 3//1
f 4//1 5//1 3//1
f 4//1 3//1 2//1
f 6//1 1//1 3//1
f 7//1 5//1 4//1
f 7//1 1//1 6//1
f 8//1 5//1 7//1
f 8//1 7//1 6//1
f 5//2 8//2 9//2
f 10//2 5//2 9//2
f 11//2 8//2 12//2
f 11//2 9//2 8//2
f 13//2 14//2 11//2
f 13//2 11//2 12//2
f 150//3 292//4 291//3
f 16//5 6//5 17//5
f 18//5 16//5 17//5
f 19//5 20//5 18//5
f 19//5 18//5 17//5
f 3//5 17//5 6//5
f 15//5 17//5 3//5
f 21//6 6//6 16//6
f 21//6 8//6 6//6
f 22//6 23//6 24//6
f 12//6 23//6 22//6
f 8//6 23//6 12//6
f 8//6 21//6 23//6
f 367//7 387//8 386//7
f 27//2 26//2 2//2
f 190//9 322//10 321//9
f 1//2 31//2 28//2
f 1//2 28//2 2//2
f 28//2 27//2 2//2
f 244//1 162//11 164//1
f 138//12 277//13 276//12
f 30//14 15//14 29//14
f 33//14 15//14 10//14
f 33//14 29//14 15//14
f 17//14 15//14 30//14
f 34//14 33//14 10//14
f 34//14 17//14 30//14
f 9//14 17//14 34//14
f 9//14 34//14 10//14
f 35//15 19//15 17//15
f 35//15 17//15 9//15
f 36//15 37//15 38//15
f 11//15 36//15 38//15
f 9//15 11//15 38//15
f 9//15 38//15 35//15
f 39//1 40//1 41//1
f 42//1 14//1 41//1
f 42//1 41//1 40//1
f 36//1 39//1 41//1
f 43//1 14//1 42//1
f 43//1 39//1 36//1
f 11//1 43//1 36//1
f 11//1 14//1 43//1
f 403//16 423//17 422//16
f 45//14 44//14 46//14
f 47//14 44//14 13//14
f 47//14 46//14 44//14
f 22//14 44//14 45//14
f 48//14 47//14 13//14
f 48//14 22//14 45//14
f 12//14 48//14 13//14
f 12//14 22//14 48//14
f 181//18 299//19 298//18
f 50//6 51//6 52//6
f 50//6 52//6 53//6
f 49//6 18//6 20//6
f 54//6 49//6 50//6
f 54//6 50//6 53//6
f 54//6 18//6 49//6
f 331//20 351//21 350//20
f 243//1 372//22 242//1
f 236//23 107//9 110//23
f 37//5 52//5 51//5
f 36//5 22//5 24//5
f 36//5 24//5 52//5
f 36//5 52//5 37//5
f 44//5 36//5 41//5
f 44//5 22//5 36//5
f 55//1 28//1 31//1
f 55//1 31//1 32//1
f 56//1 26//1 27//1
f 25//1 56//1 55//1
f 25//1 55//1 32//1
f 25//1 26//1 56//1
f 378//24 399//25 397//24
f 154//23 285//9 284//23
f 229//13 97//26 95//13
f 272//27 132//28 134//27
f 177//13 314//26 313//13
f 246//5 164//5 163//5
f 59//2 60//2 45//2
f 198//27 72//3 71//27
f 46//2 61//2 58//2
f 46//2 59//2 45//2
f 46//2 58//2 59//2
f 254//12 114//13 111//12
f 360//29 343//30 341//29
f 262//23 128//9 127//23
f 206//18 96//19 79//18
f 173//23 303//9 302//23
f 57//14 58//14 61//14
f 57//14 61//14 63//14
f 62//14 60//14 59//14
f 64//14 62//14 57//14
f 64//14 57//14 63//14
f 64//14 60//14 62//14
f 414//31 435//24 433//31
f 69//6 67//6 70//6
f 65//6 69//6 71//6
f 65//6 71//6 72//6
f 65//6 67//6 69//6
f 73//6 65//6 72//6
f 74//6 65//6 73//6
f 75//6 65//6 74//6
f 76//6 65//6 75//6
f 77//6 65//6 76//6
f 78//6 65//6 77//6
f 79//6 65//6 78//6
f 141//32 280//18 279//32
f 84//6 83//6 80//6
f 84//6 85//6 86//6
f 84//6 86//6 83//6
f 87//6 85//6 84//6
f 88//6 85//6 87//6
f 88//6 89//6 85//6
f 90//6 89//6 88//6
f 90//6 91//6 89//6
f 92//6 91//6 90//6
f 92//6 93//6 94//6
f 92//6 94//6 91//6
f 95//6 96//6 93//6
f 95//6 93//6 92//6
f 97//6 96//6 95//6
f 97//6 79//6 96//6
f 98//6 79//6 97//6
f 81//1 214//11 215//1
f 103//6 104//6 105//6
f 103//6 105//6 99//6
f 103//6 99//6 102//6
f 106//6 107//6 104//6
f 106//6 104//6 103//6
f 108//6 107//6 106//6
f 109//6 110//6 107//6
f 109//6 107//6 108//6
f 111//6 112//6 113//6
f 111//6 113//6 110//6
f 111//6 110//6 109//6
f 114//6 112//6 111//6
f 115//6 116//6 112//6
f 115//6 112//6 114//6
f 117//6 118//6 116//6
f 117//6 116//6 115//6
f 119//6 120//6 121//6
f 122//6 117//6 123//6
f 122//6 123//6 124//6
f 122//6 124//6 125//6
f 122//6 125//6 126//6
f 122//6 126//6 127//6
f 122//6 127//6 128//6
f 122//6 128//6 129//6
f 122//6 129//6 130//6
f 122//6 130//6 119//6
f 122//6 119//6 121//6
f 65//6 117//6 122//6
f 65//6 118//6 117//6
f 65//6 98//6 118//6
f 65//6 79//6 98//6
f 194//5 196//5 193//5
f 132//15 133//15 66//15
f 68//15 134//15 132//15
f 68//15 135//15 134//15
f 68//15 132//15 66//15
f 136//15 135//15 68//15
f 137//15 136//15 68//15
f 138//15 137//15 68//15
f 139//15 138//15 68//15
f 140//15 139//15 68//15
f 141//15 140//15 68//15
f 142//15 141//15 68//15
f 216//1 146//11 145//1
f 147//15 143//15 146//15
f 147//15 148//15 149//15
f 147//15 146//15 148//15
f 150//15 147//15 149//15
f 151//15 150//15 149//15
f 151//15 149//15 152//15
f 153//15 151//15 152//15
f 153//15 152//15 154//15
f 155//15 153//15 154//15
f 155//15 156//15 157//15
f 155//15 154//15 156//15
f 158//15 157//15 159//15
f 158//15 155//15 157//15
f 160//15 158//15 159//15
f 160//15 159//15 142//15
f 161//33 160//15 142//15
f 225//3 88//4 87//3
f 166//15 167//15 168//15
f 166//15 162//15 167//15
f 166//15 165//15 162//15
f 169//15 168//15 170//15
f 169//15 166//15 168//15
f 171//15 169//15 170//15
f 172//15 170//15 173//15
f 172//15 171//15 170//15
f 174//15 175//15 176//15
f 174//15 173//15 175//15
f 174//15 172//15 173//15
f 177//15 174//15 176//15
f 178//15 176//15 179//15
f 178//15 177//15 176//15
f 180//15 179//15 181//15
f 180//15 178//15 179//15
f 182//15 183//15 184//15
f 131//15 185//15 180//15
f 131//15 186//15 185//15
f 131//15 187//15 186//15
f 131//15 188//15 187//15
f 131//15 189//15 188//15
f 131//15 190//15 189//15
f 131//15 191//15 190//15
f 131//15 192//15 191//15
f 131//15 182//15 192//15
f 131//15 183//15 182//15
f 68//15 131//15 180//15
f 68//15 180//15 181//15
f 68//15 181//15 161//33
f 68//15 161//33 142//15
f 193//5 70//5 67//5
f 194//5 67//5 66//5
f 194//5 193//5 67//5
f 133//5 194//5 66//5
f 32//15 1//15 7//15
f 394//34 377//35 375//36
f 232//18 116//19 118//18
f 15//15 5//15 10//15
f 202//12 76//13 75//12
f 186//19 318//37 317//19
f 100//1 240//11 241//1
f 25//5 7//5 4//5
f 86//38 212//10 213//38
f 327//16 347//17 346//16
f 250//27 106//3 103//27
f 30//2 27//2 28//2
f 210//23 89//9 91//23
f 383//39 363//40 364//41
f 258//18 124//19 123//18
f 18//14 21//14 16//14
f 102//28 245//14 249//28
f 53//1 24//1 23//1
f 120//1 266//11 267//1
f 26//6 4//6 2//6
f 220//5 145//5 144//5
f 219//5 216//5 220//5
f 68//1 67//1 65//1
f 14//15 44//15 41//15
f 230//26 98//32 97//26
f 84//27 223//28 224//27
f 33//5 55//5 56//5
f 139//13 278//26 277//13
f 34//15 28//15 55//15
f 227//42 92//12 90//42
f 146//15 144//15 145//15
f 152//9 286//10 285//9
f 122//2 68//2 65//2
f 35//5 50//5 49//5
f 151//4 293//42 292//4
f 19//14 49//14 20//14
f 234//37 113//43 112//37
f 64//5 47//5 48//5
f 179//19 300//37 299//19
f 40//2 59//2 58//2
f 105//38 238//10 239//38
f 42//6 58//6 57//6
f 307//28 163//14 165//28
f 38//1 51//1 50//1
f 101//5 241//5 245//5
f 200//4 74//42 73//4
f 178//26 315//32 314//26
f 199//3 73//4 72//3
f 231//32 118//18 98//32
f 43//5 57//5 62//5
f 323//38 191//10 192//38
f 54//5 23//5 21//5
f 252//4 109//42 108//4
f 204//26 78//32 77//26
f 269//1 410//22 270//1
f 60//15 48//15 45//15
f 256//26 117//32 115//26
f 63//6 46//6 47//6
f 332//21 352//44 351//21
f 39//15 62//15 59//15
f 260//37 126//43 125//37
f 208//37 94//43 93//37
f 358//35 341//29 339//35
f 207//19 93//37 96//19
f 103//27 249//28 250//27
f 153//42 294//12 293//42
f 368//8 388//20 387//8
f 29//6 56//6 27//6
f 131//14 121//14 183//14
f 121//5 120//5 267//5
f 183//5 268//5 184//5
f 183//5 121//5 267//5
f 183//5 267//5 268//5
f 69//28 193//14 197//28
f 380//25 400//30 399//25
f 99//6 101//6 102//6
f 135//3 274//4 273//3
f 83//6 82//6 80//6
f 404//17 424//7 423//17
f 416//24 437//25 435//24
f 82//5 215//5 219//5
f 137//42 276//12 275//42
f 418//25 438//30 437//25
f 215//5 218//5 216//5
f 119//11 265//38 266//11
f 224//27 87//3 84//27
f 140//26 279//32 278//26
f 159//19 282//37 281//19
f 80//28 219//14 223//28
f 156//43 284//23 283//43
f 157//37 283//43 282//37
f 436//29 419//30 417//29
f 163//15 162//15 165//15
f 228//12 95//13 92//12
f 287//38 149//10 148//38
f 289//28 144//14 143//28
f 226//4 90//42 88//4
f 147//27 291//3 290//27
f 290//27 143//28 147//27
f 288//11 148//38 146//11
f 434//35 417//29 415//35
f 369//20 389//21 388//20
f 246//5 248//5 245//5
f 203//13 77//26 76//13
f 161//32 298//18 297//32
f 130//38 264//10 265//38
f 155//12 295//13 294//12
f 71//27 197//28 198//27
f 235//43 110//23 113//43
f 176//37 301//43 300//37
f 170//9 304//10 303//9
f 233//19 112//37 116//19
f 306//11 167//38 162//11
f 305//38 168//10 167//38
f 175//43 302//23 301//43
f 158//13 296//26 295//13
f 99//11 239//38 240//11
f 308//27 165//28 166//27
f 171//4 311//42 310//4
f 237//9 104//10 107//9
f 174//12 313//13 312//12
f 172//42 312//12 311//42
f 166//27 309//3 308//27
f 201//42 75//12 74//42
f 245//5 244//5 246//5
f 180//32 316//18 315//32
f 187//37 319//43 318//37
f 241//5 242//5 244//5
f 189//23 321//9 320//23
f 188//43 320//23 319//43
f 185//18 317//19 316//18
f 325//15 195//15 194//15
f 271//15 325//15 194//15
f 326//15 325//15 271//15
f 272//15 326//15 271//15
f 327//15 326//15 272//15
f 273//15 327//15 272//15
f 328//15 327//15 273//15
f 274//15 328//15 273//15
f 329//15 328//15 274//15
f 275//15 329//15 274//15
f 330//15 329//15 275//15
f 276//15 330//15 275//15
f 331//15 330//15 276//15
f 277//15 331//15 276//15
f 332//15 331//15 277//15
f 278//15 332//15 277//15
f 333//15 332//15 278//15
f 334//15 216//15 218//15
f 279//15 335//15 333//15
f 279//15 333//15 278//15
f 280//15 336//15 335//15
f 280//15 335//15 279//15
f 288//15 334//15 337//15
f 288//15 216//15 334//15
f 281//15 338//15 336//15
f 281//15 336//15 280//15
f 287//15 337//15 339//15
f 287//15 288//15 337//15
f 282//15 338//15 281//15
f 282//15 340//15 338//15
f 286//15 287//15 339//15
f 286//15 339//15 341//15
f 283//15 340//15 282//15
f 283//15 342//15 340//15
f 285//15 286//15 341//15
f 285//15 341//15 343//15
f 284//15 342//15 283//15
f 284//15 285//15 343//15
f 284//15 343//15 342//15
f 169//3 310//4 309//3
f 344//6 193//6 196//6
f 197//6 193//6 344//6
f 345//6 197//6 344//6
f 198//6 197//6 345//6
f 346//6 198//6 345//6
f 199//6 198//6 346//6
f 347//6 199//6 346//6
f 200//6 199//6 347//6
f 348//6 200//6 347//6
f 201//6 200//6 348//6
f 349//6 201//6 348//6
f 202//6 201//6 349//6
f 350//6 202//6 349//6
f 203//6 202//6 350//6
f 351//6 203//6 350//6
f 204//6 203//6 351//6
f 352//6 204//6 351//6
f 353//6 217//6 215//6
f 205//6 352//6 354//6
f 205//6 204//6 352//6
f 206//6 354//6 355//6
f 206//6 205//6 354//6
f 214//6 356//6 353//6
f 214//6 353//6 215//6
f 207//6 355//6 357//6
f 207//6 206//6 355//6
f 213//6 358//6 356//6
f 213//6 356//6 214//6
f 208//6 207//6 357//6
f 208//6 357//6 359//6
f 212//6 358//6 213//6
f 212//6 360//6 358//6
f 209//6 208//6 359//6
f 209//6 359//6 361//6
f 211//6 360//6 212//6
f 211//6 362//6 360//6
f 210//6 209//6 361//6
f 210//6 362//6 211//6
f 210//6 361//6 362//6
f 363//15 221//15 220//15
f 289//15 363//15 220//15
f 364//15 363//15 289//15
f 290//15 364//15 289//15
f 365//15 364//15 290//15
f 291//15 365//15 290//15
f 366//15 365//15 291//15
f 292//15 366//15 291//15
f 367//15 366//15 292//15
f 293//15 367//15 292//15
f 368//15 367//15 293//15
f 294//15 368//15 293//15
f 369//15 368//15 294//15
f 295//15 369//15 294//15
f 370//15 369//15 295//15
f 296//15 370//15 295//15
f 371//15 370//15 296//15
f 372//15 244//15 242//15
f 297//15 373//15 371//15
f 297//15 371//15 296//15
f 298//15 374//15 373//15
f 298//15 373//15 297//15
f 306//15 372//15 375//15
f 306//15 244//15 372//15
f 299//15 376//15 374//15
f 299//15 374//15 298//15
f 305//15 375//15 377//15
f 305//15 306//15 375//15
f 300//15 376//15 299//15
f 300//15 378//15 376//15
f 304//15 305//15 377//15
f 304//15 377//15 379//15
f 301//15 378//15 300//15
f 301//15 380//15 378//15
f 303//15 304//15 379//15
f 303//15 379//15 381//15
f 302//15 380//15 301//15
f 302//15 303//15 381//15
f 302//15 381//15 380//15
f 432//34 415//35 413//36
f 382//6 219//6 222//6
f 223//6 219//6 382//6
f 383//6 223//6 382//6
f 224//6 223//6 383//6
f 384//6 224//6 383//6
f 225//6 224//6 384//6
f 385//6 225//6 384//6
f 226//6 225//6 385//6
f 386//6 226//6 385//6
f 227//6 226//6 386//6
f 387//6 227//6 386//6
f 228//6 227//6 387//6
f 388//6 228//6 387//6
f 229//6 228//6 388//6
f 389//6 229//6 388//6
f 230//6 229//6 389//6
f 390//6 230//6 389//6
f 391//6 243//6 241//6
f 231//6 390//6 392//6
f 231//6 230//6 390//6
f 232//6 392//6 393//6
f 232//6 231//6 392//6
f 240//6 394//6 391//6
f 240//6 391//6 241//6
f 233//6 393//6 395//6
f 233//6 232//6 393//6
f 239//6 396//6 394//6
f 239//6 394//6 240//6
f 234//6 233//6 395//6
f 234//6 395//6 397//6
f 238//6 396//6 239//6
f 238//6 398//6 396//6
f 235//6 234//6 397//6
f 235//6 397//6 399//6
f 237//6 398//6 238//6
f 237//6 400//6 398//6
f 236//6 235//6 399//6
f 236//6 400//6 237//6
f 236//6 399//6 400//6
f 324//11 192//38 182//11
f 401//15 247//15 246//15
f 307//15 401//15 246//15
f 402//15 401//15 307//15
f 308//15 402//15 307//15
f 403//15 402//15 308//15
f 309//15 403//15 308//15
f 404//15 403//15 309//15
f 310//15 404//15 309//15
f 405//15 404//15 310//15
f 311//15 405//15 310//15
f 406//15 405//15 311//15
f 312//15 406//15 311//15
f 407//15 406//15 312//15
f 313//15 407//15 312//15
f 408//15 407//15 313//15
f 314//15 408//15 313//15
f 409//15 408//15 314//15
f 410//15 268//15 270//15
f 315//15 411//15 409//15
f 315//15 409//15 314//15
f 316//15 412//15 411//15
f 316//15 411//15 315//15
f 324//15 410//15 413//15
f 324//15 268//15 410//15
f 317//15 414//15 412//15
f 317//15 412//15 316//15
f 323//15 413//15 415//15
f 323//15 324//15 413//15
f 318//15 414//15 317//15
f 318//15 416//15 414//15
f 322//15 323//15 415//15
f 322//15 415//15 417//15
f 319//15 416//15 318//15
f 319//15 418//15 416//15
f 321//15 322//15 417//15
f 321//15 417//15 419//15
f 320//15 418//15 319//15
f 320//15 321//15 419//15
f 320//15 419//15 418//15
f 263//9 129//10 128//9
f 420//6 245//6 248//6
f 249//6 245//6 420//6
f 421//6 249//6 420//6
f 250//6 249//6 421//6
f 422//6 250//6 421//6
f 251//6 250//6 422//6
f 423//6 251//6 422//6
f 252//6 251//6 423//6
f 424//6 252//6 423//6
f 253//6 252//6 424//6
f 425//6 253//6 424//6
f 254//6 253//6 425//6
f 426//6 254//6 425//6
f 255//6 254//6 426//6
f 427//6 255//6 426//6
f 256//6 255//6 427//6
f 428//6 256//6 427//6
f 429//6 269//6 267//6
f 257//6 428//6 430//6
f 257//6 256//6 428//6
f 258//6 430//6 431//6
f 258//6 257//6 430//6
f 266//6 432//6 429//6
f 266//6 429//6 267//6
f 259//6 431//6 433//6
f 259//6 258//6 431//6
f 265//6 434//6 432//6
f 265//6 432//6 266//6
f 260//6 259//6 433//6
f 260//6 433//6 435//6
f 264//6 434//6 265//6
f 264//6 436//6 434//6
f 261//6 260//6 435//6
f 261//6 435//6 437//6
f 263//6 436//6 264//6
f 263//6 438//6 436//6
f 262//6 261//6 437//6
f 262//6 438//6 263//6
f 262//6 437//6 438//6
f 211//9 85//10 89//9
f 420//40 247//14 401//40
f 217//1 334//22 218//1
f 268//1 182//11 184//1
f 205//32 79//18 78//32
f 253//42 111//12 109//42
f 345//39 325//40 326//41
f 328//17 348//7 347//17
f 251//3 108//4 106//3
f 330//8 350//20 349//8
f 329//7 349//8 348//7
f 326//41 346//16 345//39
f 344//40 195//14 325//40
f 257//32 123//18 117//32
f 333//45 354//5 352//44
f 338//31 359//24 357//31
f 255//13 115//26 114//13
f 342//25 362//30 361//25
f 340//24 361//25 359//24
f 335//5 355//46 354//5
f 209//43 91//23 94//43
f 261//43 127//23 126//43
f 356//34 339//35 337//36
f 364//41 384//16 383//39
f 259//19 125//37 124//19
f 366//17 386//7 385//17
f 365//16 385//17 384//16
f 353//22 337//36 334//22
f 336//47 357//31 355//46
f 382//40 221//14 363//40
f 142//18 281//19 280//18
f 220//5 222//5 219//5
f 376//31 397//24 395//31
f 160//26 297//32 296//26
f 370//21 390//44 389//21
f 83//11 213//38 214//11
f 271//28 133//14 132//28
f 398//29 381//30 379//29
f 391//22 375//36 372//22
f 267//5 270//5 268//5
f 402//41 422//16 421//39
f 421//39 401//40 402//41
f 396//35 379//29 377//35
f 371//45 392//5 390//44
f 136//4 275//42 274//4
f 405//7 425//8 424//7
f 408//21 428//44 427//21
f 134//27 273//3 272//27
f 411//5 431//46 430//5
f 409//45 430//5 428//44
f 406//8 426//20 425//8
f 407//20 427//21 426//20
f 373//5 393//46 392//5
f 374//47 395//31 393//46
f 412//47 433//31 431//46
f 429//22 413//36 410//22
f 150//3 151//4 292//4
f 367//7 368//8 387//8
f 190//9 191//10 322//10
f 244//1 306//11 162//11
f 138//12 139//13 277//13
f 403//16 404//17 423//17
f 181//18 179//19 299//19
f 331//20 332//21 351//21
f 243//1 391//22 372//22
f 236//23 237//9 107//9
f 378//24 380//25 399//25
f 154//23 152//9 285//9
f 229//13 230//26 97//26
f 272//27 271//28 132//28
f 177//13 178//26 314//26
f 246//5 244//5 164//5
f 198//27 199//3 72//3
f 254//12 255//13 114//13
f 360//29 362//30 343//30
f 262//23 263//9 128//9
f 206//18 207//19 96//19
f 173//23 170//9 303//9
f 414//31 416//24 435//24
f 141//32 142//18 280//18
f 81//1 83//11 214//11
f 194//5 195//5 196//5
f 216//1 288//11 146//11
f 225//3 226//4 88//4
f 32//15 31//15 1//15
f 394//34 396//35 377//35
f 232//18 233//19 116//19
f 15//15 3//15 5//15
f 202//12 203//13 76//13
f 186//19 187//37 318//37
f 100//1 99//11 240//11
f 25//5 32//5 7//5
f 86//38 85//10 212//10
f 327//16 328//17 347//17
f 250//27 251//3 106//3
f 30//2 29//2 27//2
f 210//23 211//9 89//9
f 383//39 382//40 363//40
f 258//18 259//19 124//19
f 18//14 54//14 21//14
f 102//28 101//14 245//14
f 53//1 52//1 24//1
f 120//1 119//11 266//11
f 26//6 25//6 4//6
f 220//5 216//5 145//5
f 219//5 215//5 216//5
f 68//1 66//1 67//1
f 14//15 13//15 44//15
f 230//26 231//32 98//32
f 84//27 80//28 223//28
f 33//5 34//5 55//5
f 139//13 140//26 278//26
f 34//15 30//15 28//15
f 227//42 228//12 92//12
f 146//15 143//15 144//15
f 152//9 149//10 286//10
f 122//2 131//2 68//2
f 35//5 38//5 50//5
f 151//4 153//42 293//42
f 19//14 35//14 49//14
f 234//37 235//43 113//43
f 64//5 63//5 47//5
f 179//19 176//37 300//37
f 40//2 39//2 59//2
f 105//38 104//10 238//10
f 42//6 40//6 58//6
f 307//28 246//14 163//14
f 38//1 37//1 51//1
f 101//5 100//5 241//5
f 200//4 201//42 74//42
f 178//26 180//32 315//32
f 199//3 200//4 73//4
f 231//32 232//18 118//18
f 43//5 42//5 57//5
f 323//38 322//10 191//10
f 54//5 53//5 23//5
f 252//4 253//42 109//42
f 204//26 205//32 78//32
f 269//1 429//22 410//22
f 60//15 64//15 48//15
f 256//26 257//32 117//32
f 63//6 61//6 46//6
f 332//21 333//45 352//44
f 39//15 43//15 62//15
f 260//37 261//43 126//43
f 208//37 209//43 94//43
f 358//35 360//29 341//29
f 207//19 208//37 93//37
f 103//27 102//28 249//28
f 153//42 155//12 294//12
f 368//8 369//20 388//20
f 29//6 33//6 56//6
f 131//14 122//14 121//14
f 69//28 70//14 193//14
f 380//25 381//30 400//30
f 99//6 100//6 101//6
f 135//3 136//4 274//4
f 83//6 81//6 82//6
f 404//17 405//7 424//7
f 416//24 418//25 437//25
f 82//5 81//5 215//5
f 137//42 138//12 276//12
f 418//25 419//30 438//30
f 215//5 217//5 218//5
f 119//11 130//38 265//38
f 224//27 225//3 87//3
f 140//26 141//32 279//32
f 159//19 157//37 282//37
f 80//28 82//14 219//14
f 156//43 154//23 284//23
f 157//37 156//43 283//43
f 436//29 438//30 419//30
f 163//15 164//15 162//15
f 228//12 229//13 95//13
f 287//38 286//10 149//10
f 289//28 220//14 144//14
f 226//4 227//42 90//42
f 147//27 150//3 291//3
f 290//27 289//28 143//28
f 288//11 287//38 148//38
f 434//35 436//29 417//29
f 369//20 370//21 389//21
f 246//5 247//5 248//5
f 203//13 204//26 77//26
f 161//32 181//18 298//18
f 130//38 129//10 264//10
f 155//12 158//13 295//13
f 71//27 69//28 197//28
f 235//43 236//23 110//23
f 176//37 175//43 301//43
f 170//9 168//10 304//10
f 233//19 234//37 112//37
f 306//11 305//38 167//38
f 305//38 304//10 168//10
f 175//43 173//23 302//23
f 158//13 160//26 296//26
f 99//11 105//38 239//38
f 308//27 307//28 165//28
f 171//4 172//42 311//42
f 237//9 238//10 104//10
f 174//12 177//13 313//13
f 172//42 174//12 312//12
f 166//27 169//3 309//3
f 201//42 202//12 75//12
f 245//5 241//5 244//5
f 180//32 185//18 316//18
f 187//37 188//43 319//43
f 241//5 243//5 242//5
f 189//23 190//9 321//9
f 188//43 189//23 320//23
f 185//18 186//19 317//19
f 169//3 171//4 310//4
f 432//34 434//35 415//35
f 324//11 323//38 192//38
f 263//9 264//10 129//10
f 211//9 212//10 85//10
f 420//40 248//14 247//14
f 217//1 353//22 334//22
f 268//1 324//11 182//11
f 205//32 206//18 79//18
f 253//42 254//12 111//12
f 345//39 344//40 325//40
f 328//17 329//7 348//7
f 251//3 252//4 108//4
f 330//8 331//20 350//20
f 329//7 330//8 349//8
f 326//41 327//16 346//16
f 344//40 196//14 195//14
f 257//32 258//18 123//18
f 333//45 335//5 354//5
f 338//31 340//24 359//24
f 255//13 256//26 115//26
f 342//25 343//30 362//30
f 340//24 342//25 361//25
f 335//5 336//47 355//46
f 209//43 210//23 91//23
f 261//43 262//23 127//23
f 356//34 358//35 339//35
f 364//41 365//16 384//16
f 259//19 260//37 125//37
f 366//17 367//7 386//7
f 365//16 366//17 385//17
f 353//22 356//34 337//36
f 336//47 338//31 357//31
f 382//40 222//14 221//14
f 142//18 159//19 281//19
f 220//5 221//5 222//5
f 376//31 378//24 397//24
f 160//26 161//32 297//32
f 370//21 371//45 390//44
f 83//11 86//38 213//38
f 271//28 194//14 133//14
f 398//29 400//30 381//30
f 391//22 394//34 375//36
f 267//5 269//5 270//5
f 402//41 403//16 422//16
f 421//39 420//40 401//40
f 396//35 398//29 379//29
f 371//45 373//5 392//5
f 136//4 137//42 275//42
f 405//7 406//8 425//8
f 408//21 409//45 428//44
f 134//27 135//3 273//3
f 411//5 412//47 431//46
f 409//45 411//5 430//5
f 406//8 407//20 426//20
f 407//20 408//21 427//21
f 373//5 374//47 393//46
f 374//47 376//31 395//31
f 412//47 414//31 433//31
f 429//22 432//34 413//36
