# Blender 5.2.1 LTS
# www.blender.org
mtllib pool_house_roof.mtl
o pool_house_roof
v 2.000000 4.600000 0.000500
v -4.950000 3.600000 2.950000
v 4.950000 3.600000 2.950000
v -2.000000 4.600000 0.000500
v 4.581250 3.725000 0.645328
v 4.950000 3.600000 -2.950000
v 4.581250 3.725000 1.935984
v 4.396875 3.787500 2.097348
v 4.212500 3.850000 1.106313
v 4.396875 3.787500 0.898863
v 4.028125 3.912500 1.267676
v 3.843750 3.975000 0.460984
v 4.396875 3.787500 -0.299621
v 4.212500 3.850000 -1.106313
v 4.212500 3.850000 0.000000
v 3.659375 4.037500 -0.207449
v 3.475000 4.100000 0.000000
v 3.659375 4.037500 0.207449
v 3.290625 4.162500 0.161363
v 3.659375 4.037500 -0.622348
v 3.843750 3.975000 -0.460984
v 3.290625 4.162500 -0.161363
v 2.553125 4.412500 0.207574
v 2.553125 4.412500 0.345957
v 2.737500 4.350000 0.368937
v 2.184375 4.537500 0.115527
v 2.184375 4.537500 0.161738
v 2.368750 4.475000 0.276891
v 2.553125 4.412500 -0.069191
v 2.368750 4.475000 0.092297
v 2.737500 4.350000 0.000000
v 2.184375 4.537500 -0.069316
v 3.935937 3.943750 1.815103
v 3.843750 3.975000 1.382953
v 3.382812 4.131250 1.123751
v 4.028125 3.912500 0.253535
v 3.567188 4.068750 0.685747
v 3.290625 4.162500 0.806816
v 3.106250 4.225000 0.829922
v 3.475000 4.100000 0.553219
v 3.106250 4.225000 0.276641
v 4.028125 3.912500 -0.253535
v 3.106250 4.225000 0.553281
v 2.921875 4.287500 0.345832
v 2.737500 4.350000 0.553406
v 4.304688 3.818750 -2.160747
v 3.475000 4.100000 -0.368813
v 3.935937 3.943750 -1.331075
v 2.921875 4.287500 0.115277
v 2.368750 4.475000 0.184594
v 3.475000 4.100000 -0.737625
v 3.659375 4.037500 -1.452145
v 3.290625 4.162500 -0.806816
v 2.921875 4.287500 -0.115277
v 3.106250 4.225000 -0.276641
v 2.921875 4.287500 -0.345832
v 2.276562 4.506250 0.121194
v 3.106250 4.225000 -0.553281
v 2.737500 4.350000 -0.184469
v 2.737500 4.350000 -0.368937
v 2.276562 4.506250 -0.017313
v 3.014062 4.256250 -0.824192
v 2.368750 4.475000 -0.092297
v 2.829688 4.318750 -0.570657
v 2.553125 4.412500 -0.345957
v 2.368750 4.475000 -0.184594
v 2.368750 4.475000 -0.276891
v 2.829688 4.318750 -0.778169
v 2.092187 4.568750 -0.063712
v 2.000000 4.600000 -0.000500
v 2.184375 4.537500 -0.161738
v 2.967969 4.271875 0.938045
v 3.843750 3.975000 0.000000
v 2.921875 4.287500 0.576387
v 2.921875 4.287500 0.806941
v 3.106250 4.225000 0.000000
v 2.737500 4.350000 0.184469
v 3.290625 4.162500 -0.484090
v 3.889844 3.959375 -1.830960
v 2.553125 4.412500 -0.207574
v 2.599219 4.396875 -0.505927
v 3.175391 4.201562 1.047100
v 2.668359 4.373437 0.574704
v 2.299609 4.498437 -0.276617
v 2.334180 4.486719 0.311095
v -2.000000 4.600000 -0.000500
v -4.950000 3.600000 -2.950000
v -4.581250 3.725000 -0.645328
v -4.581250 3.725000 -1.935984
v -4.396875 3.787500 -2.097348
v -4.212500 3.850000 -1.106313
v -4.396875 3.787500 -0.898863
v -4.028125 3.912500 -1.267676
v -3.843750 3.975000 -0.460984
v -4.396875 3.787500 0.299621
v -4.212500 3.850000 1.106313
v -4.212500 3.850000 -0.000000
v -3.659375 4.037500 0.207449
v -3.475000 4.100000 -0.000000
v -3.659375 4.037500 -0.207449
v -3.290625 4.162500 -0.161363
v -3.659375 4.037500 0.622348
v -3.843750 3.975000 0.460984
v -3.290625 4.162500 0.161363
v -2.553125 4.412500 -0.207574
v -2.553125 4.412500 -0.345957
v -2.737500 4.350000 -0.368937
v -2.184375 4.537500 -0.115527
v -2.184375 4.537500 -0.161738
v -2.368750 4.475000 -0.276891
v -2.553125 4.412500 0.069191
v -2.368750 4.475000 -0.092297
v -2.737500 4.350000 -0.000000
v -2.184375 4.537500 0.069316
v -3.935937 3.943750 -1.815103
v -3.843750 3.975000 -1.382953
v -3.382812 4.131250 -1.123751
v -4.028125 3.912500 -0.253535
v -3.567188 4.068750 -0.685747
v -3.290625 4.162500 -0.806816
v -3.106250 4.225000 -0.829922
v -3.475000 4.100000 -0.553219
v -3.106250 4.225000 -0.276641
v -4.028125 3.912500 0.253535
v -3.106250 4.225000 -0.553281
v -2.921875 4.287500 -0.345832
v -2.737500 4.350000 -0.553406
v -4.304688 3.818750 2.160747
v -3.475000 4.100000 0.368813
v -3.935937 3.943750 1.331075
v -2.921875 4.287500 -0.115277
v -2.368750 4.475000 -0.184594
v -3.475000 4.100000 0.737625
v -3.659375 4.037500 1.452145
v -3.290625 4.162500 0.806816
v -2.921875 4.287500 0.115277
v -3.106250 4.225000 0.276641
v -2.921875 4.287500 0.345832
v -2.276562 4.506250 -0.121194
v -3.106250 4.225000 0.553281
v -2.737500 4.350000 0.184469
v -2.737500 4.350000 0.368937
v -2.276562 4.506250 0.017313
v -3.014062 4.256250 0.824192
v -2.368750 4.475000 0.092297
v -2.829688 4.318750 0.570657
v -2.553125 4.412500 0.345957
v -2.368750 4.475000 0.184594
v -2.368750 4.475000 0.276891
v -2.829688 4.318750 0.778169
v -2.092187 4.568750 0.063712
v -2.184375 4.537500 0.161738
v -2.967969 4.271875 -0.938045
v -3.843750 3.975000 -0.000000
v -2.921875 4.287500 -0.576387
v -2.921875 4.287500 -0.806941
v -3.106250 4.225000 -0.000000
v -2.737500 4.350000 -0.184469
v -3.290625 4.162500 0.484090
v -3.889844 3.959375 1.830960
v -2.553125 4.412500 0.207574
v -2.599219 4.396875 0.505927
v -3.175391 4.201562 -1.047100
v -2.668359 4.373437 -0.574704
v -2.299609 4.498437 0.276617
v -2.334180 4.486719 -0.311095
v -2.250000 4.690000 -0.066000
v -2.250000 4.606000 -0.150000
v -2.250000 4.550000 -0.150000
v -2.250000 4.690000 0.066000
v -2.250000 4.550000 0.150000
v -2.250000 4.606000 0.150000
v 2.250000 4.606000 0.150000
v 2.250000 4.550000 0.150000
v 2.250000 4.690000 0.066000
v 2.250000 4.550000 -0.150000
v 2.250000 4.690000 -0.066000
v 2.250000 4.606000 -0.150000
vn 0.1230 0.9847 0.1231
vn -0.1648 0.9724 0.1648
vn 0.1648 0.9724 0.1649
vn -0.1229 0.9848 0.1231
vn 0.3210 0.9471 -0.0000
vn 0.1648 0.9724 -0.1648
vn 0.1229 0.9848 -0.1231
vn 0.3211 0.9471 -0.0000
vn -0.1230 0.9847 -0.1231
vn -0.1648 0.9724 -0.1649
vn -0.3210 0.9471 -0.0000
vn -0.3211 0.9471 -0.0000
vn -0.0000 -1.0000 -0.0000
vn -0.0000 -0.0000 1.0000
vn -1.0000 -0.0000 -0.0000
vn -0.0000 0.7071 0.7071
vn -0.0000 1.0000 -0.0000
vn -0.0000 -0.0000 -1.0000
vn 1.0000 -0.0000 -0.0000
vn -0.0000 0.7071 -0.7071
s 1
usemtl paint
f 1//1 2//2 3//3
f 1//1 4//4 2//2
f 5//5 3//3 6//6
f 5//5 7//5 3//3
f 8//5 3//3 7//5
f 8//5 7//5 9//5
f 10//5 9//5 7//5
f 10//5 7//5 5//5
f 11//5 9//5 12//5
f 11//5 8//5 9//5
f 13//5 5//5 6//6
f 13//5 6//6 14//5
f 15//5 5//5 13//5
f 15//5 10//5 5//5
f 16//5 17//5 18//5
f 19//5 18//5 17//5
f 20//5 16//5 21//5
f 22//5 19//5 17//5
f 23//5 24//5 25//5
f 26//5 27//5 28//5
f 26//5 1//1 27//5
f 29//5 30//5 31//5
f 32//5 1//1 26//5
f 33//5 3//3 8//5
f 33//5 11//5 34//5
f 33//5 8//5 11//5
f 35//5 33//5 34//5
f 36//5 12//5 9//5
f 36//5 9//5 10//5
f 36//5 10//5 15//5
f 37//5 12//5 18//5
f 37//5 35//5 34//5
f 37//5 38//5 35//5
f 37//5 11//5 12//5
f 37//5 34//5 11//5
f 39//5 35//5 38//5
f 40//5 37//5 18//5
f 40//5 38//5 37//5
f 40//5 19//5 41//5
f 40//5 18//5 19//5
f 42//5 36//5 15//5
f 42//5 14//5 21//5
f 42//5 13//5 14//5
f 42//5 15//5 13//5
f 43//5 39//5 38//5
f 43//5 38//5 40//5
f 43//5 40//5 41//5
f 43//5 41//5 44//5
f 45//5 25//5 24//5
f 46//5 14//5 6//6
f 47//5 17//5 16//5
f 47//5 16//5 20//5
f 47//5 22//5 17//5
f 48//5 21//5 14//5
f 48//5 20//5 21//5
f 48//5 14//5 46//5
f 49//5 44//5 41//5
f 50//5 26//5 28//5
f 50//5 28//5 24//5
f 50//5 23//5 30//5
f 50//5 24//5 23//5
f 51//5 52//5 53//5
f 51//5 48//5 52//5
f 51//5 20//5 48//5
f 51//5 47//5 20//5
f 54//5 55//5 56//5
f 54//5 31//5 49//5
f 57//5 26//5 50//5
f 57//5 50//5 30//5
f 58//5 56//5 55//5
f 59//5 54//5 56//5
f 59//5 56//5 60//5
f 59//5 29//5 31//5
f 59//5 31//5 54//5
f 61//5 30//5 29//5
f 61//5 32//5 26//5
f 61//5 57//5 30//5
f 61//5 26//5 57//5
f 62//5 53//5 52//5
f 62//5 58//5 53//5
f 63//5 61//5 29//5
f 63//5 32//5 61//5
f 64//5 56//5 58//5
f 64//5 60//5 56//5
f 64//5 65//5 60//5
f 64//5 58//5 62//5
f 66//5 65//5 67//5
f 66//5 32//5 63//5
f 68//5 62//5 52//5
f 68//5 64//5 62//5
f 69//5 70//7 1//1
f 69//5 67//5 71//8
f 69//5 1//1 32//5
f 69//5 66//5 67//5
f 69//5 71//8 70//7
f 69//5 32//5 66//5
f 72//5 1//1 3//3
f 72//5 3//3 33//5
f 73//5 18//5 12//5
f 73//5 36//5 42//5
f 73//5 16//5 18//5
f 73//5 42//5 21//5
f 73//5 12//5 36//5
f 73//5 21//5 16//5
f 74//5 39//5 43//5
f 74//5 43//5 44//5
f 74//5 25//5 45//5
f 74//5 45//5 75//5
f 74//5 75//5 39//5
f 74//5 44//5 25//5
f 76//5 19//5 22//5
f 76//5 55//5 54//5
f 76//5 49//5 41//5
f 76//5 54//5 49//5
f 76//5 41//5 19//5
f 76//5 22//5 55//5
f 77//5 31//5 30//5
f 77//5 49//5 31//5
f 77//5 44//5 49//5
f 77//5 25//5 44//5
f 77//5 30//5 23//5
f 77//5 23//5 25//5
f 78//5 51//5 53//5
f 78//5 53//5 58//5
f 78//5 22//5 47//5
f 78//5 47//5 51//5
f 78//5 58//5 55//5
f 78//5 55//5 22//5
f 79//5 6//6 70//7
f 79//5 52//5 48//5
f 79//5 46//5 6//6
f 79//5 48//5 46//5
f 79//5 70//7 68//5
f 79//5 68//5 52//5
f 80//5 59//5 60//5
f 80//5 60//5 65//5
f 80//5 29//5 59//5
f 80//5 63//5 29//5
f 80//5 65//5 66//5
f 80//5 66//5 63//5
f 81//5 67//5 65//5
f 81//5 65//5 64//5
f 81//5 64//5 68//5
f 82//5 75//5 72//5
f 82//5 33//5 35//5
f 82//5 39//5 75//5
f 82//5 35//5 39//5
f 82//5 72//5 33//5
f 83//5 72//5 75//5
f 83//5 75//5 45//5
f 83//5 45//5 24//5
f 83//5 24//5 28//5
f 84//5 71//8 67//5
f 84//5 67//5 81//5
f 84//5 70//7 71//8
f 84//5 81//5 68//5
f 84//5 68//5 70//7
f 85//8 83//5 28//5
f 85//8 28//5 27//5
f 85//8 72//5 83//5
f 85//8 1//1 72//5
f 85//8 27//5 1//1
f 86//9 6//6 87//10
f 86//9 70//7 6//6
f 88//11 87//10 2//2
f 88//11 89//11 87//10
f 90//11 87//10 89//11
f 90//11 89//11 91//11
f 92//11 91//11 89//11
f 92//11 89//11 88//11
f 93//11 91//11 94//11
f 93//11 90//11 91//11
f 95//11 88//11 2//2
f 95//11 2//2 96//11
f 97//11 88//11 95//11
f 97//11 92//11 88//11
f 98//11 99//11 100//11
f 101//11 100//11 99//11
f 102//11 98//11 103//11
f 104//11 101//11 99//11
f 105//11 106//11 107//11
f 108//11 109//11 110//11
f 108//11 86//9 109//11
f 111//11 112//11 113//11
f 114//11 86//9 108//11
f 115//11 87//10 90//11
f 115//11 93//11 116//11
f 115//11 90//11 93//11
f 117//11 115//11 116//11
f 118//11 94//11 91//11
f 118//11 91//11 92//11
f 118//11 92//11 97//11
f 119//11 94//11 100//11
f 119//11 117//11 116//11
f 119//11 120//11 117//11
f 119//11 93//11 94//11
f 119//11 116//11 93//11
f 121//11 117//11 120//11
f 122//11 119//11 100//11
f 122//11 120//11 119//11
f 122//11 101//11 123//11
f 122//11 100//11 101//11
f 124//11 118//11 97//11
f 124//11 96//11 103//11
f 124//11 95//11 96//11
f 124//11 97//11 95//11
f 125//11 121//11 120//11
f 125//11 120//11 122//11
f 125//11 122//11 123//11
f 125//11 123//11 126//11
f 127//11 107//11 106//11
f 128//11 96//11 2//2
f 129//11 99//11 98//11
f 129//11 98//11 102//11
f 129//11 104//11 99//11
f 130//11 103//11 96//11
f 130//11 102//11 103//11
f 130//11 96//11 128//11
f 131//11 126//11 123//11
f 132//11 108//11 110//11
f 132//11 110//11 106//11
f 132//11 105//11 112//11
f 132//11 106//11 105//11
f 133//11 134//11 135//11
f 133//11 130//11 134//11
f 133//11 102//11 130//11
f 133//11 129//11 102//11
f 136//11 137//11 138//11
f 136//11 113//11 131//11
f 139//11 108//11 132//11
f 139//11 132//11 112//11
f 140//11 138//11 137//11
f 141//11 136//11 138//11
f 141//11 138//11 142//11
f 141//11 111//11 113//11
f 141//11 113//11 136//11
f 143//11 112//11 111//11
f 143//11 114//11 108//11
f 143//11 139//11 112//11
f 143//11 108//11 139//11
f 144//11 135//11 134//11
f 144//11 140//11 135//11
f 145//11 143//11 111//11
f 145//11 114//11 143//11
f 146//11 138//11 140//11
f 146//11 142//11 138//11
f 146//11 147//11 142//11
f 146//11 140//11 144//11
f 148//11 147//11 149//11
f 148//11 114//11 145//11
f 150//11 144//11 134//11
f 150//11 146//11 144//11
f 151//11 4//4 86//9
f 151//11 149//11 152//12
f 151//11 86//9 114//11
f 151//11 148//11 149//11
f 151//11 152//12 4//4
f 151//11 114//11 148//11
f 153//11 86//9 87//10
f 153//11 87//10 115//11
f 154//11 100//11 94//11
f 154//11 118//11 124//11
f 154//11 98//11 100//11
f 154//11 124//11 103//11
f 154//11 94//11 118//11
f 154//11 103//11 98//11
f 155//11 121//11 125//11
f 155//11 125//11 126//11
f 155//11 107//11 127//11
f 155//11 127//11 156//11
f 155//11 156//11 121//11
f 155//11 126//11 107//11
f 157//11 101//11 104//11
f 157//11 137//11 136//11
f 157//11 131//11 123//11
f 157//11 136//11 131//11
f 157//11 123//11 101//11
f 157//11 104//11 137//11
f 158//11 113//11 112//11
f 158//11 131//11 113//11
f 158//11 126//11 131//11
f 158//11 107//11 126//11
f 158//11 112//11 105//11
f 158//11 105//11 107//11
f 159//11 133//11 135//11
f 159//11 135//11 140//11
f 159//11 104//11 129//11
f 159//11 129//11 133//11
f 159//11 140//11 137//11
f 159//11 137//11 104//11
f 160//11 2//2 4//4
f 160//11 134//11 130//11
f 160//11 128//11 2//2
f 160//11 130//11 128//11
f 160//11 4//4 150//11
f 160//11 150//11 134//11
f 161//11 141//11 142//11
f 161//11 142//11 147//11
f 161//11 111//11 141//11
f 161//11 145//11 111//11
f 161//11 147//11 148//11
f 161//11 148//11 145//11
f 162//11 149//11 147//11
f 162//11 147//11 146//11
f 162//11 146//11 150//11
f 163//11 156//11 153//11
f 163//11 115//11 117//11
f 163//11 121//11 156//11
f 163//11 117//11 121//11
f 163//11 153//11 115//11
f 164//11 153//11 156//11
f 164//11 156//11 127//11
f 164//11 127//11 106//11
f 164//11 106//11 110//11
f 165//11 152//12 149//11
f 165//11 149//11 162//11
f 165//11 4//4 152//12
f 165//11 162//11 150//11
f 165//11 150//11 4//4
f 166//12 164//11 110//11
f 166//12 110//11 109//11
f 166//12 153//11 164//11
f 166//12 86//9 153//11
f 166//12 109//11 86//9
f 174//13 169//13 176//13
f 172//14 174//14 173//14
f 167//15 168//15 169//15
f 170//15 169//15 171//15
f 170//15 167//15 169//15
f 172//15 170//15 171//15
f 173//16 170//16 172//16
f 175//17 167//17 170//17
f 70//7 4//4 1//1
f 168//18 176//18 169//18
f 2//13 6//13 3//13
f 177//19 176//19 178//19
f 175//19 174//19 176//19
f 175//19 176//19 177//19
f 173//19 174//19 175//19
f 178//20 167//20 177//20
f 174//13 171//13 169//13
f 172//14 171//14 174//14
f 173//16 175//16 170//16
f 175//17 177//17 167//17
f 70//7 86//9 4//4
f 168//18 178//18 176//18
f 2//13 87//13 6//13
f 178//20 168//20 167//20
