# Blender 5.2.1 LTS
# www.blender.org
mtllib pool_house_trim.mtl
o pool_house_trim
v -4.500000 3.900000 2.500000
v -4.500000 3.600000 -2.500000
v -4.500000 3.600000 2.500000
v -4.500000 3.900000 -2.500000
v 4.500000 3.900000 2.500000
v 4.500000 3.600000 2.500000
v -4.280000 3.900000 2.280000
v -4.280000 3.900000 -2.280000
v 4.280000 3.900000 2.280000
v 4.280000 3.900000 -2.280000
v 4.500000 3.900000 -2.500000
v 4.500000 3.600000 -2.500000
v -4.280000 3.600000 -2.280000
v -4.280000 3.600000 2.280000
v 4.280000 3.600000 2.280000
v 4.280000 3.600000 -2.280000
v -4.560000 4.000000 2.560000
v -4.560000 3.900000 -2.560000
v -4.560000 3.900000 2.560000
v -4.560000 4.000000 -2.560000
v 4.560000 4.000000 2.560000
v 4.560000 3.900000 2.560000
v -4.220000 4.000000 2.220000
v -4.220000 4.000000 -2.220000
v 4.220000 4.000000 2.220000
v 4.560000 4.000000 -2.560000
v 4.220000 4.000000 -2.220000
v 4.560000 3.900000 -2.560000
v -4.220000 3.900000 -2.220000
v -4.220000 3.900000 2.220000
v 4.220000 3.900000 2.220000
v 4.220000 3.900000 -2.220000
v -4.950000 3.600000 2.950000
v -4.950000 3.470000 -2.950000
v -4.950000 3.470000 2.950000
v -4.950000 3.600000 -2.950000
v 4.950000 3.600000 2.950000
v 4.950000 3.470000 2.950000
v -4.900000 3.420000 -2.900000
v -4.900000 3.420000 2.900000
v -4.690000 3.600000 2.690000
v -4.690000 3.600000 -2.690000
v 4.690000 3.600000 2.690000
v 4.950000 3.600000 -2.950000
v 4.690000 3.600000 -2.690000
v 4.950000 3.470000 -2.950000
v 4.900000 3.420000 2.900000
v -4.740000 3.420000 -2.740000
v -4.740000 3.420000 2.740000
v 4.740000 3.420000 2.740000
v 4.740000 3.420000 -2.740000
v 4.900000 3.420000 -2.900000
v 4.690000 3.470000 2.690000
v -4.690000 3.470000 2.690000
v 4.690000 3.470000 -2.690000
v -4.690000 3.470000 -2.690000
v -4.550000 2.470000 -2.170000
v -4.550000 2.350000 -2.530000
v -4.550000 2.350000 -2.170000
v -4.550000 2.470000 -2.530000
v -4.530000 2.470000 -2.550000
v -4.530000 2.470000 -2.150000
v -3.870000 2.470000 -2.550000
v -3.870000 2.470000 -2.150000
v -3.850000 2.470000 -2.170000
v -3.850000 2.470000 -2.530000
v -4.530000 2.350000 -2.150000
v -4.530000 2.350000 -2.550000
v -3.870000 2.350000 -2.550000
v -3.870000 2.350000 -2.150000
v -3.850000 2.350000 -2.170000
v -3.850000 2.350000 -2.530000
v 3.850000 2.470000 -2.170000
v 3.850000 2.350000 -2.530000
v 3.850000 2.350000 -2.170000
v 3.850000 2.470000 -2.530000
v 3.870000 2.470000 -2.550000
v 3.870000 2.470000 -2.150000
v 4.530000 2.470000 -2.550000
v 4.530000 2.470000 -2.150000
v 4.550000 2.470000 -2.170000
v 4.550000 2.470000 -2.530000
v 3.870000 2.350000 -2.150000
v 3.870000 2.350000 -2.550000
v 4.530000 2.350000 -2.550000
v 4.530000 2.350000 -2.150000
v 4.550000 2.350000 -2.170000
v 4.550000 2.350000 -2.530000
v -2.150000 2.470000 -2.170000
v -2.150000 2.350000 -2.530000
v -2.150000 2.350000 -2.170000
v -2.150000 2.470000 -2.530000
v -2.130000 2.470000 -2.550000
v -2.130000 2.470000 -2.150000
v -0.870000 2.470000 -2.550000
v -0.870000 2.470000 -2.150000
v -0.850000 2.470000 -2.170000
v -0.850000 2.470000 -2.530000
v -2.130000 2.350000 -2.150000
v -2.130000 2.350000 -2.550000
v -0.870000 2.350000 -2.550000
v -0.870000 2.350000 -2.150000
v -0.850000 2.350000 -2.170000
v -0.850000 2.350000 -2.530000
v 0.850000 2.470000 -2.170000
v 0.850000 2.350000 -2.530000
v 0.850000 2.350000 -2.170000
v 0.850000 2.470000 -2.530000
v 0.870000 2.470000 -2.550000
v 0.870000 2.470000 -2.150000
v 2.130000 2.470000 -2.550000
v 2.130000 2.470000 -2.150000
v 2.150000 2.470000 -2.170000
v 2.150000 2.470000 -2.530000
v 0.870000 2.350000 -2.150000
v 0.870000 2.350000 -2.550000
v 2.130000 2.350000 -2.550000
v 2.130000 2.350000 -2.150000
v 2.150000 2.350000 -2.170000
v 2.150000 2.350000 -2.530000
vn -1.0000 -0.0000 -0.0000
vn 1.0000 -0.0000 -0.0000
vn -0.0000 1.0000 -0.0000
vn -0.0000 -1.0000 -0.0000
vn -0.0000 -0.0000 -1.0000
vn -0.0000 -0.0000 1.0000
vn -0.7071 -0.7071 -0.0000
vn -0.0000 -0.7071 0.7071
vn -0.0000 -0.7071 -0.7071
vn 0.7071 -0.7071 -0.0000
vn 0.7071 -0.0000 0.7071
vn -0.7071 -0.0000 -0.7071
vn -0.7071 -0.0000 0.7071
vn 0.7071 -0.0000 -0.7071
s 1
usemtl paint
f 36//1 35//1 33//1
f 24//2 30//2 29//2
f 4//3 7//3 8//3
f 4//3 1//3 7//3
f 9//3 1//3 5//3
f 9//3 7//3 1//3
f 10//3 9//3 5//3
f 11//3 10//3 5//3
f 11//3 4//3 10//3
f 10//3 4//3 8//3
f 20//1 19//1 17//1
f 2//4 13//4 14//4
f 2//4 14//4 3//4
f 15//4 6//4 3//4
f 15//4 3//4 14//4
f 16//4 6//4 15//4
f 12//4 6//4 16//4
f 12//4 16//4 2//4
f 16//4 13//4 2//4
f 36//5 46//5 34//5
f 45//1 53//1 43//1
f 62//6 70//6 64//6
f 17//6 22//6 21//6
f 69//5 61//5 63//5
f 77//5 85//5 84//5
f 66//2 71//2 72//2
f 20//3 23//3 24//3
f 20//3 17//3 23//3
f 21//3 23//3 17//3
f 25//3 23//3 21//3
f 26//3 27//3 25//3
f 26//3 25//3 21//3
f 26//3 20//3 24//3
f 26//3 24//3 27//3
f 1//6 6//6 5//6
f 18//4 29//4 30//4
f 18//4 30//4 19//4
f 22//4 19//4 30//4
f 31//4 22//4 30//4
f 28//4 31//4 32//4
f 28//4 22//4 31//4
f 28//4 29//4 18//4
f 28//4 32//4 29//4
f 7//5 15//5 14//5
f 100//4 102//4 99//4
f 94//6 102//6 96//6
f 33//6 38//6 37//6
f 11//2 6//2 12//2
f 42//6 55//6 45//6
f 82//2 87//2 88//2
f 39//7 40//7 35//7
f 39//7 35//7 34//7
f 36//3 41//3 42//3
f 36//3 33//3 41//3
f 43//3 33//3 37//3
f 43//3 41//3 33//3
f 44//3 45//3 43//3
f 44//3 43//3 37//3
f 44//3 36//3 42//3
f 44//3 42//3 45//3
f 44//2 38//2 46//2
f 8//2 14//2 13//2
f 47//8 35//8 40//8
f 47//8 38//8 35//8
f 48//4 49//4 40//4
f 39//4 48//4 40//4
f 47//4 49//4 50//4
f 47//4 40//4 49//4
f 51//4 47//4 50//4
f 52//4 47//4 51//4
f 52//4 48//4 39//4
f 52//4 51//4 48//4
f 52//9 39//9 34//9
f 52//9 34//9 46//9
f 4//5 12//5 2//5
f 4//1 3//1 1//1
f 8//6 16//6 10//6
f 20//5 28//5 18//5
f 46//10 38//10 47//10
f 46//10 47//10 52//10
f 49//9 53//9 50//9
f 54//9 53//9 49//9
f 55//7 50//7 53//7
f 55//7 51//7 50//7
f 56//10 54//10 49//10
f 56//10 49//10 48//10
f 48//8 51//8 55//8
f 56//8 48//8 55//8
f 108//1 107//1 105//1
f 61//3 60//3 57//3
f 61//3 57//3 62//3
f 26//2 22//2 28//2
f 63//3 64//3 65//3
f 63//3 65//3 66//3
f 65//11 70//11 71//11
f 92//12 100//12 90//12
f 68//4 59//4 58//4
f 68//4 67//4 59//4
f 23//5 31//5 30//5
f 69//4 71//4 70//4
f 69//4 72//4 71//4
f 93//5 101//5 100//5
f 24//6 32//6 27//6
f 108//12 116//12 106//12
f 42//2 54//2 56//2
f 61//3 64//3 63//3
f 77//3 76//3 73//3
f 77//3 73//3 78//3
f 53//5 41//5 43//5
f 79//3 80//3 81//3
f 79//3 81//3 82//3
f 113//11 118//11 119//11
f 89//13 99//13 94//13
f 84//4 75//4 74//4
f 84//4 83//4 75//4
f 78//6 86//6 80//6
f 85//4 87//4 86//4
f 85//4 88//4 87//4
f 110//6 118//6 112//6
f 84//4 86//4 83//4
f 97//11 102//11 103//11
f 98//14 101//14 95//14
f 77//3 80//3 79//3
f 76//1 75//1 73//1
f 93//3 92//3 89//3
f 93//3 89//3 94//3
f 27//1 31//1 25//1
f 95//3 96//3 97//3
f 95//3 97//3 98//3
f 60//12 68//12 58//12
f 73//13 83//13 78//13
f 100//4 91//4 90//4
f 100//4 99//4 91//4
f 10//1 15//1 9//1
f 101//4 103//4 102//4
f 101//4 104//4 103//4
f 116//4 118//4 115//4
f 93//3 96//3 95//3
f 57//13 67//13 62//13
f 66//14 69//14 63//14
f 109//3 112//3 111//3
f 68//4 70//4 67//4
f 109//3 108//3 105//3
f 109//3 105//3 110//3
f 105//13 115//13 110//13
f 111//3 112//3 113//3
f 111//3 113//3 114//3
f 114//14 117//14 111//14
f 76//12 84//12 74//12
f 116//4 107//4 106//4
f 116//4 115//4 107//4
f 98//2 103//2 104//2
f 117//4 119//4 118//4
f 117//4 120//4 119//4
f 60//1 59//1 57//1
f 92//1 91//1 89//1
f 82//14 85//14 79//14
f 81//11 86//11 87//11
f 109//5 117//5 116//5
f 114//2 119//2 120//2
f 36//1 34//1 35//1
f 24//2 23//2 30//2
f 20//1 18//1 19//1
f 36//5 44//5 46//5
f 45//1 55//1 53//1
f 62//6 67//6 70//6
f 17//6 19//6 22//6
f 69//5 68//5 61//5
f 77//5 79//5 85//5
f 66//2 65//2 71//2
f 1//6 3//6 6//6
f 7//5 9//5 15//5
f 100//4 101//4 102//4
f 94//6 99//6 102//6
f 33//6 35//6 38//6
f 11//2 5//2 6//2
f 42//6 56//6 55//6
f 82//2 81//2 87//2
f 44//2 37//2 38//2
f 8//2 7//2 14//2
f 4//5 11//5 12//5
f 4//1 2//1 3//1
f 8//6 13//6 16//6
f 20//5 26//5 28//5
f 108//1 106//1 107//1
f 26//2 21//2 22//2
f 65//11 64//11 70//11
f 92//12 93//12 100//12
f 23//5 25//5 31//5
f 93//5 95//5 101//5
f 24//6 29//6 32//6
f 108//12 109//12 116//12
f 42//2 41//2 54//2
f 61//3 62//3 64//3
f 53//5 54//5 41//5
f 113//11 112//11 118//11
f 89//13 91//13 99//13
f 78//6 83//6 86//6
f 110//6 115//6 118//6
f 84//4 85//4 86//4
f 97//11 96//11 102//11
f 98//14 104//14 101//14
f 77//3 78//3 80//3
f 76//1 74//1 75//1
f 27//1 32//1 31//1
f 60//12 61//12 68//12
f 73//13 75//13 83//13
f 10//1 16//1 15//1
f 116//4 117//4 118//4
f 93//3 94//3 96//3
f 57//13 59//13 67//13
f 66//14 72//14 69//14
f 109//3 110//3 112//3
f 68//4 69//4 70//4
f 105//13 107//13 115//13
f 114//14 120//14 117//14
f 76//12 77//12 84//12
f 98//2 97//2 103//2
f 60//1 58//1 59//1
f 92//1 90//1 91//1
f 82//14 88//14 85//14
f 81//11 80//11 86//11
f 109//5 111//5 117//5
f 114//2 113//2 119//2
