# Blender 5.2.1 LTS
# www.blender.org
mtllib service_shed_trim.mtl
o service_shed_trim
v -2.100000 4.100000 -3.500000
v -2.100000 3.700000 -4.180000
v -2.100000 3.700000 -3.500000
v -2.100000 4.100000 -4.180000
v 2.100000 4.100000 -3.500000
v 2.100000 3.700000 -3.500000
v 2.100000 3.700000 -4.180000
v 2.100000 4.100000 -4.180000
v -5.140000 4.000000 4.110000
v -5.140000 3.900000 -4.110000
v -5.140000 3.900000 4.110000
v -5.140000 4.000000 -4.110000
v -5.110000 4.000000 4.140000
v -5.110000 4.000000 -4.140000
v 5.110000 4.000000 -4.140000
v 5.110000 4.000000 4.140000
v 5.140000 4.000000 -4.110000
v 5.140000 4.000000 4.110000
v -5.110000 3.900000 4.140000
v -5.110000 3.900000 -4.140000
v 5.110000 3.900000 -4.140000
v 5.110000 3.900000 4.140000
v 5.140000 3.900000 -4.110000
v 5.140000 3.900000 4.110000
v -5.000000 4.000000 -4.000000
v -5.000000 0.000000 4.000000
v -5.000000 0.000000 -4.000000
v -5.000000 4.000000 4.000000
v -6.500000 0.000000 -4.000000
v -6.500000 0.000000 4.000000
v 5.000000 4.000000 -4.000000
v 5.000000 0.000000 -4.000000
v 5.000000 0.000000 4.000000
v 5.000000 4.000000 4.000000
v 6.500000 0.000000 -4.000000
v 6.500000 0.000000 4.000000
vn -0.0000 -0.0000 1.0000
vn -0.0000 -1.0000 -0.0000
vn 0.7071 -0.0000 -0.7071
vn -1.0000 -0.0000 -0.0000
vn -0.0000 1.0000 -0.0000
vn 1.0000 -0.0000 -0.0000
vn -0.7071 -0.0000 0.7071
vn -0.0000 -0.0000 -1.0000
vn 0.9363 0.3511 -0.0000
vn -0.7071 -0.0000 -0.7071
vn 0.7071 -0.0000 0.7071
vn -0.9363 0.3511 -0.0000
s 1
usemtl paint
f 13//1 22//1 16//1
f 26//2 29//2 27//2
f 17//3 21//3 15//3
f 12//4 11//4 9//4
f 5//5 4//5 1//5
f 8//6 6//6 7//6
f 4//4 3//4 1//4
f 12//5 9//5 13//5
f 14//5 12//5 13//5
f 9//7 19//7 13//7
f 17//5 16//5 18//5
f 17//5 15//5 16//5
f 1//1 6//1 5//1
f 21//8 14//8 15//8
f 10//2 19//2 11//2
f 20//2 19//2 10//2
f 34//4 32//4 33//4
f 23//2 24//2 22//2
f 23//2 22//2 21//2
f 6//2 2//2 7//2
f 20//2 22//2 19//2
f 36//9 31//9 34//9
f 4//8 7//8 2//8
f 12//10 20//10 10//10
f 18//11 22//11 24//11
f 17//6 24//6 23//6
f 30//12 25//12 29//12
f 27//8 29//8 25//8
f 26//1 28//1 30//1
f 28//6 27//6 25//6
f 14//5 16//5 15//5
f 31//8 35//8 32//8
f 34//1 33//1 36//1
f 33//2 35//2 36//2
f 13//1 19//1 22//1
f 26//2 30//2 29//2
f 17//3 23//3 21//3
f 12//4 10//4 11//4
f 5//5 8//5 4//5
f 8//6 5//6 6//6
f 4//4 2//4 3//4
f 9//7 11//7 19//7
f 1//1 3//1 6//1
f 21//8 20//8 14//8
f 34//4 31//4 32//4
f 6//2 3//2 2//2
f 20//2 21//2 22//2
f 36//9 35//9 31//9
f 4//8 8//8 7//8
f 12//10 14//10 20//10
f 18//11 16//11 22//11
f 17//6 18//6 24//6
f 30//12 28//12 25//12
f 28//6 26//6 27//6
f 14//5 13//5 16//5
f 33//2 32//2 35//2
