# Blender 5.2.1 LTS
# www.blender.org
mtllib service_shed_wall.mtl
o service_shed_wall
v -5.000000 4.000000 4.000000
v -5.000000 0.000000 -4.000000
v -5.000000 0.000000 4.000000
v -5.000000 4.000000 -4.000000
v 5.000000 4.000000 4.000000
v 5.000000 0.000000 4.000000
v -4.650000 4.000000 3.650000
v -4.650000 4.000000 -3.650000
v 4.650000 4.000000 3.650000
v 5.000000 4.000000 -4.000000
v 4.650000 4.000000 -3.650000
v -1.900000 3.700000 -4.000000
v -1.900000 0.000000 -4.000000
v 2.100000 2.450000 -4.000000
v 2.100000 0.000000 -4.000000
v 1.900000 0.000000 -4.000000
v 3.300000 2.450000 -4.000000
v 5.000000 0.000000 -4.000000
v 3.300000 0.000000 -4.000000
v 1.900000 3.700000 -4.000000
v -4.650000 0.000000 -3.650000
v -4.650000 0.000000 3.650000
v 4.650000 0.000000 3.650000
v -1.900000 0.000000 -3.650000
v 3.300000 0.000000 -3.940000
v 3.200000 0.000000 -3.650000
v 3.200000 0.000000 -3.940000
v 4.650000 0.000000 -3.650000
v -1.900000 3.700000 -3.650000
v 2.200000 2.350000 -3.650000
v 1.900000 0.000000 -3.650000
v 2.200000 0.000000 -3.650000
v 3.200000 2.350000 -3.650000
v 1.900000 3.700000 -3.650000
v 2.100000 0.000000 -3.940000
v 2.200000 0.000000 -3.940000
v 2.100000 2.450000 -3.940000
v 3.300000 2.450000 -3.940000
v 3.200000 2.350000 -3.940000
v 2.200000 2.350000 -3.940000
v -5.000000 4.650000 4.000000
v -5.000000 4.250000 -4.000000
v -5.000000 4.250000 4.000000
v -5.000000 4.650000 -4.000000
v 5.000000 4.650000 4.000000
v 5.000000 4.250000 4.000000
v -4.800000 4.650000 3.800000
v -4.800000 4.650000 -3.800000
v 4.800000 4.650000 3.800000
v 5.000000 4.650000 -4.000000
v 4.800000 4.650000 -3.800000
v 5.000000 4.250000 -4.000000
v -4.800000 4.250000 -3.800000
v -4.800000 4.250000 3.800000
v 4.800000 4.250000 3.800000
v 4.800000 4.250000 -3.800000
v -5.060000 4.750000 4.060000
v -5.060000 4.650000 -4.060000
v -5.060000 4.650000 4.060000
v -5.060000 4.750000 -4.060000
v 5.060000 4.750000 4.060000
v 5.060000 4.650000 4.060000
v -4.740000 4.750000 3.740000
v -4.740000 4.750000 -3.740000
v 4.740000 4.750000 3.740000
v 4.740000 4.750000 -3.740000
v 5.060000 4.750000 -4.060000
v 5.060000 4.650000 -4.060000
v -4.740000 4.650000 -3.740000
v -4.740000 4.650000 3.740000
v 4.740000 4.650000 3.740000
v 4.740000 4.650000 -3.740000
vn -0.0000 -0.0000 -1.0000
vn 1.0000 -0.0000 -0.0000
vn -0.0000 1.0000 -0.0000
vn -0.0000 -1.0000 -0.0000
vn -0.0000 -0.0000 1.0000
vn -1.0000 -0.0000 -0.0000
s 1
usemtl paint
f 63//1 71//1 70//1
f 50//2 46//2 52//2
f 4//3 7//3 8//3
f 4//3 1//3 7//3
f 9//3 1//3 5//3
f 9//3 7//3 1//3
f 10//3 11//3 9//3
f 10//3 9//3 5//3
f 10//3 4//3 8//3
f 10//3 8//3 11//3
f 12//1 13//1 2//1
f 12//1 2//1 4//1
f 14//1 15//1 16//1
f 17//1 18//1 19//1
f 17//1 14//1 20//1
f 10//1 17//1 20//1
f 10//1 18//1 17//1
f 4//1 10//1 20//1
f 4//1 20//1 12//1
f 16//1 20//1 14//1
f 2//4 21//4 22//4
f 2//4 22//4 3//4
f 6//4 3//4 22//4
f 23//4 6//4 22//4
f 13//4 24//4 21//4
f 13//4 21//4 2//4
f 25//4 26//4 27//4
f 28//4 25//4 19//4
f 28//4 6//4 23//4
f 28//4 26//4 25//4
f 18//4 28//4 19//4
f 18//4 6//4 28//4
f 33//4 40//4 39//4
f 29//2 13//2 12//2
f 48//2 54//2 53//2
f 29//5 21//5 24//5
f 29//5 8//5 21//5
f 30//5 31//5 32//5
f 33//5 26//5 28//5
f 34//5 30//5 33//5
f 11//5 33//5 28//5
f 11//5 34//5 33//5
f 31//5 30//5 34//5
f 8//5 34//5 11//5
f 8//5 29//5 34//5
f 38//4 14//4 17//4
f 4//6 3//6 1//6
f 31//6 20//6 16//6
f 10//2 6//2 18//2
f 35//4 31//4 16//4
f 35//4 32//4 31//4
f 15//4 35//4 16//4
f 36//4 32//4 35//4
f 66//6 71//6 65//6
f 1//5 6//5 5//5
f 26//6 39//6 27//6
f 11//6 23//6 9//6
f 40//1 36//1 35//1
f 37//1 40//1 35//1
f 39//1 25//1 27//1
f 38//1 39//1 40//1
f 38//1 40//1 37//1
f 38//1 25//1 39//1
f 47//1 55//1 54//1
f 23//1 7//1 9//1
f 37//2 15//2 14//2
f 64//5 72//5 66//5
f 44//3 47//3 48//3
f 44//3 41//3 47//3
f 45//3 47//3 41//3
f 49//3 47//3 45//3
f 50//3 51//3 49//3
f 50//3 49//3 45//3
f 50//3 44//3 48//3
f 50//3 48//3 51//3
f 44//6 43//6 41//6
f 42//4 53//4 54//4
f 42//4 54//4 43//4
f 46//4 43//4 54//4
f 55//4 46//4 54//4
f 52//4 55//4 56//4
f 52//4 46//4 55//4
f 52//4 53//4 42//4
f 52//4 56//4 53//4
f 34//4 12//4 20//4
f 44//1 52//1 42//1
f 41//5 46//5 45//5
f 22//2 8//2 7//2
f 30//2 36//2 40//2
f 51//6 55//6 49//6
f 60//3 63//3 64//3
f 60//3 57//3 63//3
f 65//3 57//3 61//3
f 65//3 63//3 57//3
f 66//3 65//3 61//3
f 67//3 66//3 61//3
f 67//3 60//3 64//3
f 67//3 64//3 66//3
f 60//6 59//6 57//6
f 58//4 69//4 70//4
f 58//4 70//4 59//4
f 71//4 62//4 59//4
f 71//4 59//4 70//4
f 72//4 62//4 71//4
f 68//4 62//4 72//4
f 68//4 69//4 58//4
f 68//4 72//4 69//4
f 25//6 17//6 19//6
f 60//1 68//1 58//1
f 57//5 62//5 61//5
f 48//5 56//5 51//5
f 67//2 62//2 68//2
f 70//2 64//2 63//2
f 63//1 65//1 71//1
f 50//2 45//2 46//2
f 33//4 30//4 40//4
f 29//2 24//2 13//2
f 48//2 47//2 54//2
f 38//4 37//4 14//4
f 4//6 2//6 3//6
f 31//6 34//6 20//6
f 10//2 5//2 6//2
f 66//6 72//6 71//6
f 1//5 3//5 6//5
f 26//6 33//6 39//6
f 11//6 28//6 23//6
f 47//1 49//1 55//1
f 23//1 22//1 7//1
f 37//2 35//2 15//2
f 64//5 69//5 72//5
f 44//6 42//6 43//6
f 34//4 29//4 12//4
f 44//1 50//1 52//1
f 41//5 43//5 46//5
f 22//2 21//2 8//2
f 30//2 32//2 36//2
f 51//6 56//6 55//6
f 60//6 58//6 59//6
f 25//6 38//6 17//6
f 60//1 67//1 68//1
f 57//5 59//5 62//5
f 48//5 53//5 56//5
f 67//2 61//2 62//2
f 70//2 69//2 64//2
