# Blender 5.2.1 LTS
# www.blender.org
mtllib service_shed_dark.mtl
o service_shed_dark
v -1.600000 3.400000 -3.650000
v -1.600000 0.000000 -3.650000
v -1.600000 0.000000 -3.600000
v -1.600000 3.400000 -3.600000
v 1.600000 3.400000 -3.650000
v 1.600000 3.400000 -3.600000
v 1.600000 0.000000 -3.650000
v 1.600000 0.000000 -3.600000
v 2.200000 2.350000 -3.650000
v 2.200000 0.000000 -3.650000
v 2.200000 0.000000 -3.600000
v 2.200000 2.350000 -3.600000
v 3.200000 2.350000 -3.650000
v 3.200000 2.350000 -3.600000
v 3.200000 0.000000 -3.650000
v 3.200000 0.000000 -3.600000
vn -0.0000 -0.0000 -1.0000
vn -0.0000 1.0000 -0.0000
vn -0.0000 -1.0000 -0.0000
vn -1.0000 -0.0000 -0.0000
vn -0.0000 -0.0000 1.0000
vn 1.0000 -0.0000 -0.0000
s 1
usemtl dark
f 7//1 1//1 5//1
f 14//2 9//2 12//2
f 3//3 7//3 8//3
f 4//4 2//4 3//4
f 8//5 4//5 3//5
f 16//6 13//6 14//6
f 15//1 9//1 13//1
f 8//6 5//6 6//6
f 12//4 10//4 11//4
f 11//3 15//3 16//3
f 6//2 1//2 4//2
f 16//5 12//5 11//5
f 7//1 2//1 1//1
f 14//2 13//2 9//2
f 3//3 2//3 7//3
f 4//4 1//4 2//4
f 8//5 6//5 4//5
f 16//6 15//6 13//6
f 15//1 10//1 9//1
f 8//6 7//6 5//6
f 12//4 9//4 10//4
f 11//3 10//3 15//3
f 6//2 5//2 1//2
f 16//5 14//5 12//5
