# Blender 5.2.1 LTS
# www.blender.org
mtllib shed_blue_trim.mtl
o shed_blue_trim
v -2.600000 2.420000 2.100000
v -2.600000 2.330000 -2.100000
v -2.600000 2.330000 2.100000
v -2.600000 2.420000 -2.100000
v 2.600000 2.420000 2.100000
v 2.600000 2.330000 2.100000
v -2.550000 2.280000 -2.050000
v -2.550000 2.280000 2.050000
v -2.400000 2.420000 1.900000
v -2.400000 2.420000 -1.900000
v 2.400000 2.420000 1.900000
v 2.600000 2.420000 -2.100000
v 2.400000 2.420000 -1.900000
v 2.600000 2.330000 -2.100000
v 2.550000 2.280000 2.050000
v -2.450000 2.280000 -1.950000
v -2.450000 2.280000 1.950000
v 2.450000 2.280000 1.950000
v 2.550000 2.280000 -2.050000
v 2.450000 2.280000 -1.950000
v 2.400000 2.330000 1.900000
v -2.400000 2.330000 1.900000
v 2.400000 2.330000 -1.900000
v -2.400000 2.330000 -1.900000
vn -0.0000 -0.0000 -1.0000
vn -0.7071 -0.7071 -0.0000
vn -0.0000 1.0000 -0.0000
vn 1.0000 -0.0000 -0.0000
vn -1.0000 -0.0000 -0.0000
vn -0.0000 -0.7071 0.7071
vn -0.0000 -1.0000 -0.0000
vn -0.0000 -0.7071 -0.7071
vn -0.0000 -0.0000 1.0000
vn 0.7071 -0.7071 -0.0000
s 1
usemtl paint
f 21//1 9//1 11//1
f 4//1 14//1 2//1
f 7//2 8//2 3//2
f 7//2 3//2 2//2
f 4//3 9//3 10//3
f 4//3 1//3 9//3
f 11//3 1//3 5//3
f 11//3 9//3 1//3
f 12//3 13//3 11//3
f 12//3 11//3 5//3
f 12//3 4//3 10//3
f 12//3 10//3 13//3
f 12//4 6//4 14//4
f 13//5 21//5 11//5
f 15//6 3//6 8//6
f 15//6 6//6 3//6
f 7//7 16//7 17//7
f 7//7 17//7 8//7
f 18//7 15//7 8//7
f 18//7 8//7 17//7
f 19//7 18//7 20//7
f 19//7 15//7 18//7
f 19//7 16//7 7//7
f 19//7 20//7 16//7
f 19//8 7//8 2//8
f 19//8 2//8 14//8
f 1//9 6//9 5//9
f 10//9 23//9 13//9
f 4//5 3//5 1//5
f 14//10 6//10 15//10
f 14//10 15//10 19//10
f 22//8 21//8 18//8
f 22//8 18//8 17//8
f 23//2 18//2 21//2
f 23//2 20//2 18//2
f 24//10 22//10 17//10
f 24//10 17//10 16//10
f 24//6 20//6 23//6
f 24//6 16//6 20//6
f 10//4 22//4 24//4
f 21//1 22//1 9//1
f 4//1 12//1 14//1
f 12//4 5//4 6//4
f 13//5 23//5 21//5
f 1//9 3//9 6//9
f 10//9 24//9 23//9
f 4//5 2//5 3//5
f 10//4 9//4 22//4
