# Blender 5.2.1 LTS
# www.blender.org
mtllib shed_blue_wall.mtl
o shed_blue_wall
v -2.250000 2.420000 1.750000
v -2.250000 0.120000 -1.750000
v -2.250000 0.120000 1.750000
v -2.250000 2.420000 -1.750000
v -2.000000 0.120000 -1.500000
v -2.000000 0.120000 1.500000
v 2.250000 0.120000 1.750000
v 2.000000 0.120000 1.500000
v -0.600000 0.120000 -1.690000
v -0.500000 0.120000 -1.500000
v -0.600000 0.120000 -1.750000
v -0.500000 0.120000 -1.690000
v 0.600000 0.120000 -1.690000
v 0.500000 0.120000 -1.500000
v 0.500000 0.120000 -1.690000
v 2.000000 0.120000 -1.500000
v 0.600000 0.120000 -1.750000
v 2.250000 0.120000 -1.750000
v 2.250000 1.170000 -0.412500
v 2.250000 2.420000 -1.750000
v 2.250000 1.170000 0.412500
v 2.250000 2.145000 -0.412500
v 2.250000 2.420000 1.750000
v 2.250000 2.145000 0.412500
v 2.197500 1.170000 -0.412500
v 2.197500 2.145000 -0.412500
v 2.197500 2.070000 -0.337500
v 2.197500 1.170000 -0.337500
v 2.197500 2.070000 0.337500
v 2.197500 1.170000 0.412500
v 2.197500 1.170000 0.337500
v 2.197500 2.145000 0.412500
v 2.000000 2.070000 0.337500
v 2.000000 1.170000 0.337500
v 2.000000 2.070000 -0.337500
v 2.000000 1.170000 -0.337500
v 0.600000 2.420000 -1.750000
v 0.600000 2.420000 -1.690000
v 0.500000 2.420000 -1.690000
v 0.500000 2.420000 -1.500000
v 2.000000 2.420000 -1.500000
v 2.000000 2.420000 1.500000
v -2.000000 2.420000 1.500000
v -2.000000 2.420000 -1.500000
v -0.500000 2.420000 -1.500000
v -0.500000 2.420000 -1.690000
v -0.600000 2.420000 -1.690000
v -0.600000 2.420000 -1.750000
vn -1.0000 -0.0000 -0.0000
vn -0.0000 -1.0000 -0.0000
vn 1.0000 -0.0000 -0.0000
vn -0.0000 1.0000 -0.0000
vn -0.0000 -0.0000 -1.0000
vn -0.0000 -0.0000 1.0000
s 1
usemtl paint
f 14//1 39//1 15//1
f 2//2 5//2 6//2
f 2//2 6//2 3//2
f 7//2 6//2 8//2
f 7//2 3//2 6//2
f 9//2 10//2 5//2
f 11//2 5//2 2//2
f 11//2 9//2 5//2
f 12//2 10//2 9//2
f 13//2 14//2 15//2
f 16//2 13//2 17//2
f 16//2 14//2 13//2
f 18//2 8//2 16//2
f 18//2 7//2 8//2
f 18//2 16//2 17//2
f 19//3 18//3 20//3
f 21//3 18//3 19//3
f 22//3 19//3 20//3
f 7//3 18//3 21//3
f 23//3 21//3 24//3
f 23//3 7//3 21//3
f 20//3 23//3 22//3
f 22//3 23//3 24//3
f 36//4 31//4 28//4
f 27//3 28//3 25//3
f 27//3 25//3 26//3
f 29//3 30//3 31//3
f 32//3 29//3 27//3
f 32//3 27//3 26//3
f 32//3 30//3 29//3
f 44//3 6//3 5//3
f 30//5 24//5 21//5
f 32//2 22//2 24//2
f 26//6 19//6 22//6
f 4//1 3//1 1//1
f 31//4 30//4 21//4
f 47//5 12//5 9//5
f 19//4 25//4 28//4
f 19//4 31//4 21//4
f 19//4 28//4 31//4
f 34//5 29//5 31//5
f 40//6 16//6 41//6
f 47//3 11//3 48//3
f 35//6 28//6 27//6
f 39//5 13//5 15//5
f 41//1 16//1 36//1
f 8//1 34//1 36//1
f 8//1 36//1 16//1
f 35//1 41//1 36//1
f 42//1 33//1 34//1
f 42//1 35//1 33//1
f 42//1 34//1 8//1
f 42//1 41//1 35//1
f 4//5 11//5 2//5
f 33//2 27//2 29//2
f 13//1 37//1 17//1
f 43//5 8//5 6//5
f 44//6 10//6 45//6
f 45//3 12//3 46//3
f 4//4 43//4 44//4
f 4//4 1//4 43//4
f 23//4 42//4 43//4
f 23//4 43//4 1//4
f 47//4 44//4 45//4
f 48//4 4//4 44//4
f 48//4 44//4 47//4
f 46//4 47//4 45//4
f 38//4 39//4 40//4
f 41//4 37//4 38//4
f 41//4 38//4 40//4
f 20//4 41//4 42//4
f 20//4 42//4 23//4
f 20//4 37//4 41//4
f 37//5 18//5 17//5
f 1//6 7//6 23//6
f 14//1 40//1 39//1
f 36//4 34//4 31//4
f 44//3 43//3 6//3
f 30//5 32//5 24//5
f 32//2 26//2 22//2
f 26//6 25//6 19//6
f 4//1 2//1 3//1
f 47//5 46//5 12//5
f 34//5 33//5 29//5
f 40//6 14//6 16//6
f 47//3 9//3 11//3
f 35//6 36//6 28//6
f 39//5 38//5 13//5
f 4//5 48//5 11//5
f 33//2 35//2 27//2
f 13//1 38//1 37//1
f 43//5 42//5 8//5
f 44//6 5//6 10//6
f 45//3 10//3 12//3
f 37//5 20//5 18//5
f 1//6 3//6 7//6
