# Blender 5.2.1 LTS
# www.blender.org
mtllib shed_blue_floor.mtl
o shed_blue_floor
v -2.500000 0.090000 2.000000
v -2.500000 0.000000 -2.000000
v -2.500000 0.000000 2.000000
v -2.500000 0.090000 -2.000000
v 2.500000 0.090000 2.000000
v 2.500000 0.000000 2.000000
v -2.470000 0.120000 -1.970000
v -2.470000 0.120000 1.970000
v 2.500000 0.000000 -2.000000
v 2.500000 0.090000 -2.000000
v 2.470000 0.120000 1.970000
v 2.470000 0.120000 -1.970000
v -2.000000 0.220000 1.500000
v -2.000000 0.120000 -1.500000
v -2.000000 0.120000 1.500000
v -2.000000 0.220000 -1.500000
v 2.000000 0.220000 1.500000
v 2.000000 0.120000 1.500000
v 2.000000 0.120000 -1.500000
v 2.000000 0.220000 -1.500000
vn 1.0000 -0.0000 -0.0000
vn -0.7071 0.7071 -0.0000
vn -0.0000 -0.0000 -1.0000
vn -1.0000 -0.0000 -0.0000
vn -0.0000 1.0000 -0.0000
vn -0.0000 0.7071 0.7071
vn -0.0000 -0.0000 1.0000
vn -0.0000 0.7071 -0.7071
vn 0.7071 0.7071 -0.0000
vn -0.0000 -1.0000 -0.0000
s 1
usemtl paint
f 10//1 6//1 9//1
f 20//1 18//1 19//1
f 7//2 1//2 8//2
f 7//2 4//2 1//2
f 4//3 9//3 2//3
f 4//4 3//4 1//4
f 11//5 7//5 8//5
f 11//6 8//6 1//6
f 11//6 1//6 5//6
f 13//7 18//7 17//7
f 12//8 4//8 7//8
f 12//8 10//8 4//8
f 12//9 11//9 5//9
f 12//9 5//9 10//9
f 18//10 14//10 19//10
f 6//10 2//10 9//10
f 16//4 15//4 13//4
f 16//3 19//3 14//3
f 1//7 6//7 5//7
f 17//5 16//5 13//5
f 10//1 5//1 6//1
f 20//1 17//1 18//1
f 4//3 10//3 9//3
f 4//4 2//4 3//4
f 11//5 12//5 7//5
f 13//7 15//7 18//7
f 18//10 15//10 14//10
f 6//10 3//10 2//10
f 16//4 14//4 15//4
f 16//3 20//3 19//3
f 1//7 3//7 6//7
f 17//5 20//5 16//5
