# Blender 5.2.1 LTS
# www.blender.org
mtllib shed_blue_roof.mtl
o shed_blue_roof
v -2.600000 3.070000 0.000000
v -2.600000 2.420000 2.100000
v 2.600000 2.420000 2.100000
v 2.600000 3.070000 0.000000
v -2.600000 2.420000 -2.100000
v 2.600000 2.420000 -2.100000
v -2.750000 3.150000 -0.048000
v -2.750000 3.078000 -0.120000
v -2.750000 3.030000 -0.120000
v -2.750000 3.150000 0.048000
v -2.750000 3.030000 0.120000
v -2.750000 3.078000 0.120000
v 2.750000 3.078000 0.120000
v 2.750000 3.030000 0.120000
v 2.750000 3.150000 0.048000
v 2.750000 3.030000 -0.120000
v 2.750000 3.150000 -0.048000
v 2.750000 3.078000 -0.120000
vn -0.0000 0.7071 0.7071
vn -0.0000 -1.0000 -0.0000
vn -0.0000 1.0000 -0.0000
vn -1.0000 -0.0000 -0.0000
vn 1.0000 -0.0000 -0.0000
vn -0.0000 0.9553 0.2957
vn -0.0000 0.9553 -0.2957
vn -0.0000 -0.0000 -1.0000
vn -0.0000 -0.0000 1.0000
vn -0.0000 0.7071 -0.7071
s 1
usemtl paint
f 13//1 10//1 12//1
f 3//2 5//2 6//2
f 15//3 7//3 10//3
f 5//4 2//4 1//4
f 6//5 4//5 3//5
f 7//4 8//4 9//4
f 10//4 11//4 12//4
f 10//4 9//4 11//4
f 10//4 7//4 9//4
f 4//6 2//6 3//6
f 6//7 1//7 4//7
f 8//8 16//8 9//8
f 14//2 9//2 16//2
f 12//9 14//9 13//9
f 17//5 16//5 18//5
f 15//5 13//5 14//5
f 15//5 14//5 16//5
f 15//5 16//5 17//5
f 18//10 7//10 17//10
f 13//1 15//1 10//1
f 3//2 2//2 5//2
f 15//3 17//3 7//3
f 4//6 1//6 2//6
f 6//7 5//7 1//7
f 8//8 18//8 16//8
f 14//2 11//2 9//2
f 12//9 11//9 14//9
f 18//10 8//10 7//10
