# Blender 5.2.1 LTS
# www.blender.org
mtllib shed_blue_metal.mtl
o shed_blue_metal
v 2.330000 3.170000 0.080000
v 2.330000 2.120000 -0.080000
v 2.330000 2.120000 0.080000
v 2.330000 3.170000 -0.080000
v 2.490000 3.170000 0.080000
v 2.490000 2.120000 0.080000
v 2.490000 2.120000 -0.080000
v 2.490000 3.170000 -0.080000
v 2.290000 3.250000 0.120000
v 2.290000 3.170000 -0.120000
v 2.290000 3.170000 0.120000
v 2.290000 3.250000 -0.120000
v 2.530000 3.250000 0.120000
v 2.530000 3.170000 0.120000
v 2.530000 3.170000 -0.120000
v 2.530000 3.250000 -0.120000
vn -0.0000 -1.0000 -0.0000
vn 1.0000 -0.0000 -0.0000
vn -0.0000 -0.0000 -1.0000
vn -1.0000 -0.0000 -0.0000
vn -0.0000 1.0000 -0.0000
vn -0.0000 -0.0000 1.0000
s 1
usemtl paint
f 6//1 2//1 7//1
f 16//2 14//2 15//2
f 4//3 7//3 2//3
f 4//4 3//4 1//4
f 5//5 4//5 1//5
f 9//6 14//6 13//6
f 14//1 10//1 15//1
f 1//6 6//6 5//6
f 12//4 11//4 9//4
f 12//3 15//3 10//3
f 8//2 6//2 7//2
f 13//5 12//5 9//5
f 6//1 3//1 2//1
f 16//2 13//2 14//2
f 4//3 8//3 7//3
f 4//4 2//4 3//4
f 5//5 8//5 4//5
f 9//6 11//6 14//6
f 14//1 11//1 10//1
f 1//6 3//6 6//6
f 12//4 10//4 11//4
f 12//3 16//3 15//3
f 8//2 5//2 6//2
f 13//5 16//5 12//5
