# Blender 5.2.1 LTS
# www.blender.org
mtllib temple_stripe.mtl
o temple_stripe
v -5.575000 2.270000 5.575000
v -5.575000 1.430000 -5.575000
v -5.575000 1.430000 5.575000
v -5.575000 2.270000 -5.575000
v 5.575000 2.270000 5.575000
v 5.575000 1.430000 5.575000
v -5.545000 1.400000 -5.545000
v -5.545000 1.400000 5.545000
v -5.545000 2.300000 -5.545000
v -5.545000 2.300000 5.545000
v -1.500000 2.270000 -5.575000
v -1.500000 1.430000 -5.575000
v 5.575000 1.430000 -5.575000
v 5.575000 2.270000 -5.575000
v 5.545000 1.400000 5.545000
v 5.545000 2.300000 5.545000
v -5.465000 1.400000 5.465000
v -5.465000 1.400000 -5.465000
v 5.465000 1.400000 5.465000
v -1.500000 1.400000 -5.545000
v -1.500000 1.400000 -5.465000
v 5.465000 1.400000 -5.465000
v 1.500000 1.400000 -5.465000
v 1.500000 1.400000 -5.545000
v 5.545000 1.400000 -5.545000
v -5.465000 2.300000 5.465000
v -5.465000 2.300000 -5.465000
v 5.465000 2.300000 5.465000
v -1.500000 2.300000 -5.545000
v -1.500000 2.300000 -5.465000
v 5.465000 2.300000 -5.465000
v 1.500000 2.300000 -5.545000
v 1.500000 2.300000 -5.465000
v 5.545000 2.300000 -5.545000
v -1.500000 1.430000 -5.435000
v -1.500000 2.270000 -5.435000
v 1.500000 1.430000 -5.575000
v 1.500000 2.270000 -5.575000
v -5.435000 1.430000 -5.435000
v -5.435000 1.430000 5.435000
v 5.435000 1.430000 5.435000
v 5.435000 1.430000 -5.435000
v 1.500000 1.430000 -5.435000
v 1.500000 2.270000 -5.435000
v -5.435000 2.270000 -5.435000
v -5.435000 2.270000 5.435000
v 5.435000 2.270000 5.435000
v 5.435000 2.270000 -5.435000
v -5.575000 3.500000 -0.590000
v -5.575000 4.070000 -5.575000
v -5.575000 3.230000 -5.575000
v -5.575000 4.070000 -0.590000
v -5.575000 4.070000 5.575000
v -5.575000 4.070000 0.590000
v -5.575000 3.500000 0.590000
v -5.575000 3.230000 5.575000
v -3.090000 3.500000 5.575000
v -3.090000 4.070000 5.575000
v 1.910000 3.500000 5.575000
v -1.910000 4.070000 5.575000
v -1.910000 3.500000 5.575000
v 1.910000 4.070000 5.575000
v 5.575000 4.070000 5.575000
v 3.090000 4.070000 5.575000
v 3.090000 3.500000 5.575000
v 5.575000 3.230000 5.575000
v -5.545000 4.100000 5.545000
v -5.545000 4.100000 0.590000
v -5.435000 3.500000 0.590000
v -5.435000 4.070000 0.590000
v -5.465000 4.100000 0.590000
v -5.435000 3.500000 -0.590000
v -5.465000 4.100000 -0.590000
v -5.545000 4.100000 -0.590000
v -5.435000 4.070000 -0.590000
v -5.545000 4.100000 -5.545000
v -1.500000 4.070000 -5.575000
v -1.500000 3.230000 -5.575000
v -5.545000 3.200000 -5.545000
v -5.545000 3.200000 5.545000
v 5.575000 3.500000 -0.590000
v 5.575000 3.230000 -5.575000
v 5.575000 4.070000 -5.575000
v 5.575000 4.070000 -0.590000
v 5.575000 3.500000 0.590000
v 5.575000 4.070000 0.590000
v 5.545000 4.100000 5.545000
v 3.090000 4.100000 5.545000
v 3.090000 4.070000 5.435000
v 3.090000 3.500000 5.435000
v 3.090000 4.100000 5.465000
v 1.910000 3.500000 5.435000
v 1.910000 4.100000 5.465000
v 1.910000 4.100000 5.545000
v 1.910000 4.070000 5.435000
v -1.910000 4.100000 5.545000
v -1.910000 4.070000 5.435000
v -1.910000 3.500000 5.435000
v -1.910000 4.100000 5.465000
v -3.090000 3.500000 5.435000
v -3.090000 4.100000 5.465000
v -3.090000 4.100000 5.545000
v -3.090000 4.070000 5.435000
v 5.545000 3.200000 5.545000
v -5.465000 4.100000 5.465000
v -5.435000 4.070000 5.435000
v -5.435000 3.230000 -5.435000
v -5.435000 4.070000 -5.435000
v -5.435000 3.230000 5.435000
v -5.465000 4.100000 -5.465000
v -1.500000 4.100000 -5.545000
v -1.500000 4.100000 -5.465000
v -1.500000 3.200000 -5.465000
v -1.500000 3.200000 -5.545000
v -1.500000 3.230000 -5.435000
v -1.500000 4.070000 -5.435000
v -5.465000 3.200000 -5.465000
v -5.465000 3.200000 5.465000
v 5.465000 3.200000 5.465000
v 5.465000 3.200000 -5.465000
v 1.500000 3.200000 -5.465000
v 1.500000 3.200000 -5.545000
v 5.545000 3.200000 -5.545000
v 5.545000 4.100000 0.590000
v 5.465000 4.100000 0.590000
v 5.435000 4.070000 0.590000
v 5.435000 3.500000 0.590000
v 5.435000 3.500000 -0.590000
v 5.435000 4.070000 -0.590000
v 5.465000 4.100000 -0.590000
v 5.545000 4.100000 -0.590000
v 5.545000 4.100000 -5.545000
v 1.500000 3.230000 -5.575000
v 1.500000 4.070000 -5.575000
v 5.465000 4.100000 5.465000
v 5.435000 4.070000 5.435000
v 5.435000 3.230000 5.435000
v 5.435000 3.230000 -5.435000
v 1.500000 3.230000 -5.435000
v 1.500000 4.100000 -5.465000
v 1.500000 4.100000 -5.545000
v 1.500000 4.070000 -5.435000
v 5.435000 4.070000 -5.435000
v 5.465000 4.100000 -5.465000
v -5.575000 5.870000 5.575000
v -5.575000 5.030000 0.590000
v -5.575000 5.030000 5.575000
v -5.575000 5.870000 0.590000
v -3.090000 5.870000 5.575000
v -3.090000 5.030000 5.575000
v -5.545000 5.900000 5.545000
v -5.545000 5.900000 0.590000
v -5.465000 5.000000 0.590000
v -5.545000 5.000000 0.590000
v -5.435000 5.030000 0.590000
v -5.465000 5.900000 0.590000
v -5.435000 5.870000 0.590000
v -5.545000 5.000000 5.545000
v -3.090000 5.900000 5.465000
v -3.090000 5.900000 5.545000
v -3.090000 5.870000 5.435000
v -3.090000 5.030000 5.435000
v -3.090000 5.000000 5.465000
v -3.090000 5.000000 5.545000
v -5.465000 5.900000 5.465000
v -5.435000 5.870000 5.435000
v -5.435000 5.030000 5.435000
v -5.465000 5.000000 5.465000
v 1.910000 5.870000 5.575000
v -1.910000 5.030000 5.575000
v 1.910000 5.030000 5.575000
v -1.910000 5.870000 5.575000
v 1.910000 5.900000 5.465000
v 1.910000 5.900000 5.545000
v 1.910000 5.870000 5.435000
v 1.910000 5.030000 5.435000
v 1.910000 5.000000 5.465000
v 1.910000 5.000000 5.545000
v -1.910000 5.900000 5.545000
v -1.910000 5.000000 5.465000
v -1.910000 5.000000 5.545000
v -1.910000 5.030000 5.435000
v -1.910000 5.870000 5.435000
v -1.910000 5.900000 5.465000
v 5.575000 5.870000 5.575000
v 3.090000 5.030000 5.575000
v 5.575000 5.030000 5.575000
v 3.090000 5.870000 5.575000
v 5.575000 5.030000 0.590000
v 5.575000 5.870000 0.590000
v 5.545000 5.900000 5.545000
v 3.090000 5.900000 5.545000
v 3.090000 5.000000 5.465000
v 3.090000 5.000000 5.545000
v 3.090000 5.030000 5.435000
v 3.090000 5.870000 5.435000
v 3.090000 5.900000 5.465000
v 5.545000 5.000000 5.545000
v 5.545000 5.900000 0.590000
v 5.465000 5.900000 0.590000
v 5.435000 5.870000 0.590000
v 5.435000 5.030000 0.590000
v 5.545000 5.000000 0.590000
v 5.465000 5.000000 0.590000
v 5.465000 5.900000 5.465000
v 5.435000 5.870000 5.435000
v 5.435000 5.030000 5.435000
v 5.465000 5.000000 5.465000
v 5.575000 5.870000 -0.590000
v 5.575000 5.030000 -0.590000
v 5.575000 5.030000 -5.575000
v 5.575000 5.870000 -5.575000
v 5.465000 5.000000 -0.590000
v 5.545000 5.000000 -0.590000
v 5.435000 5.030000 -0.590000
v 5.435000 5.870000 -0.590000
v 5.465000 5.900000 -0.590000
v 5.545000 5.900000 -0.590000
v 5.545000 5.900000 -5.545000
v -5.575000 5.030000 -5.575000
v -5.575000 5.870000 -5.575000
v 5.545000 5.000000 -5.545000
v -5.465000 5.900000 -5.465000
v -5.545000 5.900000 -0.590000
v -5.465000 5.900000 -0.590000
v -5.545000 5.900000 -5.545000
v 5.465000 5.900000 -5.465000
v 5.435000 5.870000 -5.435000
v 5.435000 5.030000 -5.435000
v 5.465000 5.000000 -5.465000
v -5.465000 5.000000 -5.465000
v -5.465000 5.000000 -0.590000
v -5.545000 5.000000 -0.590000
v -5.545000 5.000000 -5.545000
v -5.575000 5.870000 -0.590000
v -5.575000 5.030000 -0.590000
v -5.435000 5.870000 -5.435000
v -5.435000 5.870000 -0.590000
v -5.435000 5.030000 -0.590000
v -5.435000 5.030000 -5.435000
v -5.575000 6.830000 5.575000
v -5.575000 7.670000 -5.575000
v -5.575000 6.830000 -5.575000
v -5.575000 7.670000 5.575000
v 5.575000 7.670000 5.575000
v 5.575000 6.830000 5.575000
v -5.545000 6.800000 -5.545000
v -5.545000 6.800000 5.545000
v -5.545000 7.700000 -5.545000
v -5.545000 7.700000 5.545000
v 5.575000 7.670000 -5.575000
v 5.575000 6.830000 -5.575000
v 5.545000 6.800000 5.545000
v 5.545000 7.700000 5.545000
v -5.465000 6.800000 -5.465000
v -5.465000 6.800000 5.465000
v 5.465000 6.800000 5.465000
v 5.545000 6.800000 -5.545000
v 5.465000 6.800000 -5.465000
v -5.465000 7.700000 -5.465000
v -5.465000 7.700000 5.465000
v 5.465000 7.700000 5.465000
v 5.545000 7.700000 -5.545000
v 5.465000 7.700000 -5.465000
v -5.435000 6.830000 5.435000
v 5.435000 6.830000 5.435000
v 5.435000 6.830000 -5.435000
v -5.435000 6.830000 -5.435000
v -5.435000 7.670000 5.435000
v 5.435000 7.670000 5.435000
v 5.435000 7.670000 -5.435000
v -5.435000 7.670000 -5.435000
v -5.575000 9.470000 5.575000
v -5.575000 8.630000 -5.575000
v -5.575000 8.630000 5.575000
v -5.575000 9.470000 -5.575000
v 5.575000 8.630000 5.575000
v 5.575000 9.470000 5.575000
v -5.545000 8.600000 -5.545000
v -5.545000 8.600000 5.545000
v -5.545000 9.500000 5.545000
v -5.545000 9.500000 -5.545000
v 5.575000 8.630000 -5.575000
v 5.575000 9.470000 -5.575000
v 5.545000 8.600000 5.545000
v 5.545000 9.500000 5.545000
v -5.465000 8.600000 -5.465000
v -5.465000 8.600000 5.465000
v 5.465000 8.600000 5.465000
v 5.545000 8.600000 -5.545000
v 5.465000 8.600000 -5.465000
v 5.465000 9.500000 5.465000
v -5.465000 9.500000 5.465000
v -5.465000 9.500000 -5.465000
v 5.545000 9.500000 -5.545000
v 5.465000 9.500000 -5.465000
v -5.435000 8.630000 5.435000
v 5.435000 8.630000 5.435000
v 5.435000 8.630000 -5.435000
v -5.435000 8.630000 -5.435000
v -5.435000 9.470000 5.435000
v 5.435000 9.470000 5.435000
v 5.435000 9.470000 -5.435000
v -5.435000 9.470000 -5.435000
vn 1.0000 -0.0000 -0.0000
vn -0.0000 -0.0000 1.0000
vn -0.7071 -0.7071 -0.0000
vn -0.7071 0.7071 -0.0000
vn -0.0000 -0.7071 0.7071
vn -0.0000 0.7071 0.7071
vn -0.0000 -1.0000 -0.0000
vn -0.0000 -0.7071 -0.7071
vn -0.0000 1.0000 -0.0000
vn -0.0000 0.7071 -0.7071
vn 0.7071 -0.7071 -0.0000
vn 0.7071 0.7071 -0.0000
vn -0.0000 -0.0000 -1.0000
vn -1.0000 -0.0000 -0.0000
s 1
usemtl paint
f 212//1 210//1 211//1
f 172//2 171//2 169//2
f 7//3 8//3 3//3
f 7//3 3//3 2//3
f 9//4 1//4 10//4
f 9//4 4//4 1//4
f 272//2 267//2 271//2
f 237//1 239//1 240//1
f 15//5 3//5 8//5
f 15//5 6//5 3//5
f 16//6 10//6 1//6
f 16//6 1//6 5//6
f 15//7 8//7 17//7
f 7//7 18//7 17//7
f 7//7 17//7 8//7
f 19//7 15//7 17//7
f 20//7 21//7 18//7
f 20//7 18//7 7//7
f 22//7 23//7 24//7
f 25//7 19//7 22//7
f 25//7 22//7 24//7
f 25//7 15//7 19//7
f 12//8 7//8 2//8
f 12//8 20//8 7//8
f 16//9 26//9 10//9
f 27//9 9//9 10//9
f 27//9 10//9 26//9
f 28//9 26//9 16//9
f 29//9 27//9 30//9
f 29//9 9//9 27//9
f 31//9 32//9 33//9
f 34//9 31//9 28//9
f 34//9 28//9 16//9
f 34//9 32//9 31//9
f 11//10 4//10 9//10
f 11//10 9//10 29//10
f 12//1 21//1 20//1
f 12//1 35//1 21//1
f 184//10 175//10 183//10
f 11//1 30//1 36//1
f 11//1 29//1 30//1
f 13//11 6//11 15//11
f 13//11 15//11 25//11
f 14//12 16//12 5//12
f 14//12 34//12 16//12
f 92//13 97//13 95//13
f 39//5 21//5 35//5
f 39//5 18//5 21//5
f 39//11 40//11 17//11
f 39//11 17//11 18//11
f 40//8 41//8 19//8
f 40//8 19//8 17//8
f 42//3 19//3 41//3
f 42//3 22//3 19//3
f 23//5 22//5 42//5
f 43//5 23//5 42//5
f 38//14 33//14 32//14
f 38//14 44//14 33//14
f 145//2 150//2 149//2
f 24//14 23//14 43//14
f 24//14 43//14 37//14
f 25//8 24//8 37//8
f 13//8 25//8 37//8
f 45//6 36//6 30//6
f 45//6 30//6 27//6
f 45//12 26//12 46//12
f 45//12 27//12 26//12
f 46//10 28//10 47//10
f 46//10 26//10 28//10
f 48//4 47//4 28//4
f 48//4 28//4 31//4
f 33//6 48//6 31//6
f 44//6 48//6 33//6
f 34//10 38//10 32//10
f 14//10 38//10 34//10
f 146//13 157//13 155//13
f 89//14 65//14 64//14
f 50//13 78//13 51//13
f 70//13 55//13 54//13
f 196//14 186//14 188//14
f 49//14 50//14 51//14
f 52//14 50//14 49//14
f 53//14 54//14 55//14
f 53//14 55//14 56//14
f 56//14 49//14 51//14
f 56//14 55//14 49//14
f 57//2 53//2 56//2
f 58//2 53//2 57//2
f 86//13 127//13 126//13
f 63//2 64//2 65//2
f 63//2 65//2 66//2
f 66//2 57//2 56//2
f 66//2 61//2 57//2
f 66//2 59//2 61//2
f 66//2 65//2 59//2
f 54//4 53//4 67//4
f 68//4 54//4 67//4
f 1//2 6//2 5//2
f 68//13 71//13 70//13
f 68//13 70//13 54//13
f 246//1 251//1 245//1
f 52//2 73//2 74//2
f 52//2 75//2 73//2
f 108//2 115//2 116//2
f 76//4 52//4 74//4
f 76//4 50//4 52//4
f 4//14 3//14 1//14
f 79//3 80//3 56//3
f 79//3 56//3 51//3
f 81//1 82//1 83//1
f 84//1 81//1 83//1
f 63//1 85//1 86//1
f 63//1 66//1 85//1
f 66//1 82//1 81//1
f 66//1 81//1 85//1
f 87//6 88//6 64//6
f 87//6 64//6 63//6
f 167//1 157//1 166//1
f 64//14 91//14 89//14
f 88//14 91//14 64//14
f 62//1 92//1 95//1
f 62//1 93//1 94//1
f 62//1 95//1 93//1
f 45//2 35//2 36//2
f 4//13 12//13 2//13
f 99//10 95//10 97//10
f 96//14 99//14 97//14
f 96//14 97//14 60//14
f 58//1 100//1 103//1
f 58//1 101//1 102//1
f 58//1 103//1 101//1
f 38//13 13//13 37//13
f 58//6 67//6 53//6
f 102//6 67//6 58//6
f 104//5 56//5 80//5
f 104//5 66//5 56//5
f 102//9 105//9 67//9
f 101//9 105//9 102//9
f 68//9 67//9 105//9
f 71//9 68//9 105//9
f 71//12 105//12 106//12
f 70//12 71//12 106//12
f 72//1 107//1 108//1
f 75//1 72//1 108//1
f 106//1 69//1 70//1
f 106//1 109//1 69//1
f 109//1 107//1 72//1
f 109//1 72//1 69//1
f 108//12 73//12 75//12
f 108//12 110//12 73//12
f 110//9 76//9 74//9
f 110//9 74//9 73//9
f 111//9 110//9 112//9
f 111//9 76//9 110//9
f 77//10 50//10 76//10
f 77//10 76//10 111//10
f 78//1 113//1 114//1
f 78//1 115//1 113//1
f 176//1 169//1 171//1
f 77//1 112//1 116//1
f 77//1 111//1 112//1
f 78//8 79//8 51//8
f 78//8 114//8 79//8
f 117//7 80//7 79//7
f 117//7 118//7 80//7
f 119//7 104//7 80//7
f 119//7 80//7 118//7
f 114//7 113//7 117//7
f 114//7 117//7 79//7
f 120//7 121//7 122//7
f 123//7 119//7 120//7
f 123//7 104//7 119//7
f 123//7 120//7 122//7
f 86//12 87//12 63//12
f 86//12 124//12 87//12
f 86//13 125//13 124//13
f 86//13 126//13 125//13
f 36//1 12//1 11//1
f 129//2 81//2 84//2
f 44//2 42//2 48//2
f 84//2 130//2 129//2
f 84//2 131//2 130//2
f 132//12 131//12 84//12
f 83//12 132//12 84//12
f 184//9 174//9 173//9
f 82//11 66//11 104//11
f 82//11 104//11 123//11
f 135//9 91//9 88//9
f 135//9 88//9 87//9
f 124//9 125//9 135//9
f 124//9 135//9 87//9
f 91//10 135//10 136//10
f 89//10 91//10 136//10
f 100//13 109//13 106//13
f 103//13 100//13 106//13
f 48//14 41//14 47//14
f 136//13 90//13 89//13
f 136//13 137//13 90//13
f 137//13 109//13 100//13
f 137//13 100//13 98//13
f 137//13 98//13 92//13
f 137//13 92//13 90//13
f 38//14 43//14 44//14
f 216//2 210//2 209//2
f 106//10 101//10 103//10
f 106//10 105//10 101//10
f 14//1 6//1 13//1
f 107//11 109//11 118//11
f 107//11 118//11 117//11
f 108//6 116//6 112//6
f 108//6 112//6 110//6
f 107//5 113//5 115//5
f 107//5 117//5 113//5
f 109//8 137//8 119//8
f 109//8 119//8 118//8
f 138//3 119//3 137//3
f 138//3 120//3 119//3
f 121//5 120//5 138//5
f 139//5 121//5 138//5
f 134//14 140//14 141//14
f 134//14 142//14 140//14
f 142//2 138//2 143//2
f 133//14 121//14 139//14
f 133//14 122//14 121//14
f 123//8 122//8 133//8
f 82//8 123//8 133//8
f 128//14 143//14 138//14
f 129//14 143//14 128//14
f 136//14 126//14 127//14
f 136//14 127//14 137//14
f 137//14 128//14 138//14
f 137//14 127//14 128//14
f 125//4 136//4 135//4
f 126//4 136//4 125//4
f 144//9 130//9 131//9
f 144//9 141//9 140//9
f 132//9 144//9 131//9
f 132//9 141//9 144//9
f 143//4 129//4 130//4
f 143//4 130//4 144//4
f 132//10 134//10 141//10
f 83//10 134//10 132//10
f 69//9 49//9 55//9
f 140//6 143//6 144//6
f 142//6 143//6 140//6
f 242//14 241//14 244//14
f 46//13 41//13 40//13
f 148//4 145//4 151//4
f 152//4 148//4 151//4
f 146//13 153//13 154//13
f 146//13 155//13 153//13
f 152//13 156//13 157//13
f 45//1 40//1 39//1
f 148//13 152//13 157//13
f 146//3 158//3 147//3
f 154//3 158//3 146//3
f 149//1 159//1 160//1
f 149//1 161//1 159//1
f 183//14 170//14 172//14
f 150//1 163//1 162//1
f 150//1 164//1 163//1
f 149//6 151//6 145//6
f 160//6 151//6 149//6
f 150//5 147//5 158//5
f 164//5 150//5 158//5
f 160//9 165//9 151//9
f 159//9 165//9 160//9
f 152//9 151//9 165//9
f 156//9 152//9 165//9
f 156//12 165//12 166//12
f 157//12 156//12 166//12
f 276//14 275//14 273//14
f 153//11 167//11 168//11
f 155//11 167//11 153//11
f 164//7 158//7 168//7
f 163//7 164//7 168//7
f 154//7 168//7 158//7
f 153//7 168//7 154//7
f 167//8 162//8 163//8
f 167//8 163//8 168//8
f 162//1 149//1 150//1
f 166//10 159//10 161//10
f 166//10 165//10 159//10
f 90//9 59//9 65//9
f 169//1 173//1 174//1
f 169//1 175//1 173//1
f 166//13 162//13 167//13
f 171//1 177//1 176//1
f 171//1 178//1 177//1
f 301//13 298//13 297//13
f 170//14 180//14 181//14
f 170//14 182//14 180//14
f 273//2 277//2 278//2
f 179//14 184//14 183//14
f 179//14 183//14 172//14
f 99//9 94//9 93//9
f 78//1 116//1 115//1
f 169//6 179//6 172//6
f 178//7 180//7 177//7
f 98//9 57//9 61//9
f 176//13 183//13 175//13
f 180//8 176//8 177//8
f 303//14 298//14 302//14
f 191//6 192//6 188//6
f 191//6 188//6 185//6
f 186//14 193//14 194//14
f 186//14 195//14 193//14
f 60//2 59//2 62//2
f 192//14 197//14 196//14
f 192//14 196//14 188//14
f 198//5 186//5 194//5
f 198//5 187//5 186//5
f 190//12 191//12 185//12
f 190//12 199//12 191//12
f 190//13 200//13 199//13
f 190//13 201//13 200//13
f 134//13 82//13 133//13
f 203//13 204//13 202//13
f 203//13 202//13 189//13
f 189//11 187//11 198//11
f 189//11 198//11 203//11
f 205//9 197//9 192//9
f 205//9 192//9 191//9
f 199//9 200//9 205//9
f 199//9 205//9 191//9
f 197//10 205//10 206//10
f 196//10 197//10 206//10
f 188//2 187//2 185//2
f 193//8 207//8 208//8
f 195//8 207//8 193//8
f 208//7 194//7 193//7
f 208//7 198//7 194//7
f 203//7 208//7 204//7
f 203//7 198//7 208//7
f 204//3 208//3 207//3
f 202//3 204//3 207//3
f 202//13 190//13 189//13
f 200//4 206//4 205//4
f 201//4 206//4 200//4
f 128//9 85//9 81//9
f 210//2 213//2 214//2
f 210//2 215//2 213//2
f 201//14 207//14 206//14
f 209//2 217//2 216//2
f 209//2 218//2 217//2
f 219//12 218//12 209//12
f 212//12 219//12 209//12
f 196//13 207//13 195//13
f 222//11 210//11 214//11
f 211//11 210//11 222//11
f 223//9 224//9 225//9
f 226//9 224//9 223//9
f 227//9 217//9 218//9
f 219//9 227//9 218//9
f 219//9 226//9 227//9
f 227//9 226//9 223//9
f 228//4 216//4 217//4
f 228//4 217//4 227//4
f 190//1 187//1 189//1
f 229//3 213//3 215//3
f 229//3 230//3 213//3
f 231//7 232//7 233//7
f 234//7 231//7 233//7
f 230//7 214//7 213//7
f 222//7 214//7 230//7
f 222//7 230//7 234//7
f 230//7 231//7 234//7
f 212//10 221//10 226//10
f 212//10 226//10 219//10
f 211//8 234//8 220//8
f 211//8 222//8 234//8
f 304//1 297//1 300//1
f 237//6 228//6 227//6
f 237//6 227//6 223//6
f 237//12 225//12 238//12
f 237//12 223//12 225//12
f 235//2 225//2 224//2
f 235//2 238//2 225//2
f 221//13 211//13 220//13
f 233//2 232//2 239//2
f 233//2 239//2 236//2
f 226//4 235//4 224//4
f 226//4 221//4 235//4
f 171//5 181//5 178//5
f 240//5 230//5 229//5
f 240//5 231//5 230//5
f 240//11 239//11 232//11
f 240//11 232//11 231//11
f 234//3 233//3 236//3
f 234//3 236//3 220//3
f 97//14 61//14 60//14
f 237//2 229//2 228//2
f 235//2 239//2 238//2
f 247//3 248//3 241//3
f 247//3 241//3 243//3
f 249//4 244//4 250//4
f 249//4 242//4 244//4
f 228//14 215//14 216//14
f 52//2 72//2 75//2
f 253//5 241//5 248//5
f 253//5 246//5 241//5
f 254//6 250//6 244//6
f 254//6 244//6 245//6
f 255//7 256//7 248//7
f 257//7 253//7 248//7
f 257//7 248//7 256//7
f 247//7 255//7 248//7
f 258//7 257//7 259//7
f 258//7 253//7 257//7
f 258//7 259//7 247//7
f 259//7 255//7 247//7
f 252//8 247//8 243//8
f 252//8 258//8 247//8
f 260//9 250//9 261//9
f 254//9 261//9 250//9
f 262//9 261//9 254//9
f 249//9 250//9 260//9
f 263//9 264//9 262//9
f 263//9 262//9 254//9
f 263//9 249//9 264//9
f 264//9 249//9 260//9
f 251//10 242//10 249//10
f 251//10 249//10 263//10
f 252//11 246//11 253//11
f 252//11 253//11 258//11
f 251//12 254//12 245//12
f 251//12 263//12 254//12
f 265//8 266//8 257//8
f 265//8 257//8 256//8
f 267//3 257//3 266//3
f 267//3 259//3 257//3
f 268//11 265//11 256//11
f 268//11 256//11 255//11
f 268//5 259//5 267//5
f 268//5 255//5 259//5
f 269//10 262//10 270//10
f 269//10 261//10 262//10
f 271//4 270//4 262//4
f 271//4 262//4 264//4
f 272//12 261//12 269//12
f 272//12 260//12 261//12
f 272//6 271//6 264//6
f 272//6 264//6 260//6
f 148//14 147//14 145//14
f 244//2 246//2 245//2
f 269//13 266//13 265//13
f 134//14 139//14 142//14
f 272//1 265//1 268//1
f 271//14 266//14 270//14
f 279//3 280//3 275//3
f 279//3 275//3 274//3
f 276//4 273//4 281//4
f 282//4 276//4 281//4
f 242//13 252//13 243//13
f 221//14 236//14 235//14
f 285//5 275//5 280//5
f 285//5 277//5 275//5
f 278//6 281//6 273//6
f 286//6 281//6 278//6
f 287//7 288//7 280//7
f 289//7 285//7 280//7
f 289//7 280//7 288//7
f 279//7 287//7 280//7
f 290//7 289//7 291//7
f 290//7 285//7 289//7
f 290//7 291//7 279//7
f 291//7 287//7 279//7
f 283//8 279//8 274//8
f 283//8 290//8 279//8
f 292//9 281//9 286//9
f 292//9 293//9 281//9
f 294//9 282//9 281//9
f 294//9 281//9 293//9
f 295//9 296//9 292//9
f 295//9 292//9 286//9
f 295//9 282//9 294//9
f 295//9 294//9 296//9
f 295//10 276//10 282//10
f 284//10 276//10 295//10
f 283//11 277//11 285//11
f 283//11 285//11 290//11
f 295//12 286//12 278//12
f 284//12 295//12 278//12
f 297//8 298//8 289//8
f 297//8 289//8 288//8
f 299//3 289//3 298//3
f 299//3 291//3 289//3
f 300//11 297//11 288//11
f 300//11 288//11 287//11
f 300//5 291//5 299//5
f 300//5 287//5 291//5
f 301//10 292//10 302//10
f 301//10 293//10 292//10
f 303//4 302//4 292//4
f 303//4 292//4 296//4
f 304//12 293//12 301//12
f 304//12 294//12 293//12
f 304//6 303//6 296//6
f 304//6 296//6 294//6
f 283//13 276//13 284//13
f 284//1 277//1 283//1
f 62//6 96//6 60//6
f 304//2 299//2 303//2
f 212//1 209//1 210//1
f 172//2 170//2 171//2
f 272//2 268//2 267//2
f 237//1 238//1 239//1
f 184//10 173//10 175//10
f 92//13 98//13 97//13
f 145//2 147//2 150//2
f 146//13 148//13 157//13
f 89//14 90//14 65//14
f 50//13 77//13 78//13
f 70//13 69//13 55//13
f 196//14 195//14 186//14
f 86//13 85//13 127//13
f 1//2 3//2 6//2
f 246//1 252//1 251//1
f 108//2 107//2 115//2
f 4//14 2//14 3//14
f 167//1 155//1 157//1
f 62//1 59//1 92//1
f 45//2 39//2 35//2
f 4//13 11//13 12//13
f 99//10 93//10 95//10
f 58//1 57//1 100//1
f 38//13 14//13 13//13
f 176//1 175//1 169//1
f 36//1 35//1 12//1
f 129//2 128//2 81//2
f 44//2 43//2 42//2
f 184//9 179//9 174//9
f 48//14 42//14 41//14
f 38//14 37//14 43//14
f 216//2 215//2 210//2
f 14//1 5//1 6//1
f 142//2 139//2 138//2
f 69//9 72//9 49//9
f 242//14 243//14 241//14
f 46//13 47//13 41//13
f 45//1 46//1 40//1
f 183//14 182//14 170//14
f 276//14 274//14 275//14
f 162//1 161//1 149//1
f 90//9 92//9 59//9
f 166//13 161//13 162//13
f 301//13 302//13 298//13
f 273//2 275//2 277//2
f 99//9 96//9 94//9
f 78//1 77//1 116//1
f 169//6 174//6 179//6
f 178//7 181//7 180//7
f 98//9 100//9 57//9
f 176//13 182//13 183//13
f 180//8 182//8 176//8
f 303//14 299//14 298//14
f 60//2 61//2 59//2
f 134//13 83//13 82//13
f 188//2 186//2 187//2
f 202//13 201//13 190//13
f 128//9 127//9 85//9
f 201//14 202//14 207//14
f 196//13 206//13 207//13
f 190//1 185//1 187//1
f 304//1 301//1 297//1
f 221//13 212//13 211//13
f 171//5 170//5 181//5
f 97//14 98//14 61//14
f 237//2 240//2 229//2
f 235//2 236//2 239//2
f 228//14 229//14 215//14
f 52//2 49//2 72//2
f 148//14 146//14 147//14
f 244//2 241//2 246//2
f 269//13 270//13 266//13
f 134//14 133//14 139//14
f 272//1 269//1 265//1
f 271//14 267//14 266//14
f 242//13 251//13 252//13
f 221//14 220//14 236//14
f 283//13 274//13 276//13
f 284//1 278//1 277//1
f 62//6 94//6 96//6
f 304//2 300//2 299//2
