# Blender 5.2.1 LTS
# www.blender.org
mtllib temple_dark.mtl
o temple_dark
v -5.200000 9.650000 5.200000
v -5.200000 9.500000 -5.200000
v -5.200000 9.500000 5.200000
v -5.200000 9.650000 -5.200000
v 5.200000 9.650000 5.200000
v 5.200000 9.500000 5.200000
v 5.200000 9.500000 -5.200000
v 5.200000 9.650000 -5.200000
vn -0.0000 -1.0000 -0.0000
vn -0.0000 -0.0000 1.0000
vn -1.0000 -0.0000 -0.0000
vn -0.0000 -0.0000 -1.0000
vn 1.0000 -0.0000 -0.0000
vn -0.0000 1.0000 -0.0000
s 1
usemtl dark
f 6//1 2//1 7//1
f 1//2 6//2 5//2
f 4//3 3//3 1//3
f 4//4 7//4 2//4
f 8//5 6//5 7//5
f 4//6 5//6 8//6
f 6//1 3//1 2//1
f 1//2 3//2 6//2
f 4//3 2//3 3//3
f 4//4 8//4 7//4
f 8//5 5//5 6//5
f 4//6 1//6 5//6
