# Blender 5.2.1 LTS
# www.blender.org
mtllib temple_trim.mtl
o temple_trim
v -5.900000 10.400000 5.900000
v -5.900000 10.280000 -5.900000
v -5.900000 10.280000 5.900000
v -5.900000 10.400000 -5.900000
v 5.900000 10.400000 5.900000
v 5.900000 10.280000 5.900000
v -5.100000 10.400000 5.100000
v 5.100000 10.400000 5.100000
v -5.100000 10.400000 -5.100000
v 5.900000 10.400000 -5.900000
v 5.100000 10.400000 -5.100000
v 5.900000 10.280000 -5.900000
v -5.100000 10.280000 5.100000
v 5.100000 10.280000 5.100000
v -5.100000 10.280000 -5.100000
v 5.100000 10.280000 -5.100000
vn -0.0000 -0.0000 -1.0000
vn -0.0000 1.0000 -0.0000
vn 1.0000 -0.0000 -0.0000
vn -0.0000 -1.0000 -0.0000
vn -1.0000 -0.0000 -0.0000
vn -0.0000 -0.0000 1.0000
s 1
usemtl paint
f 7//1 14//1 13//1
f 4//1 12//1 2//1
f 5//2 7//2 1//2
f 8//2 7//2 5//2
f 4//2 7//2 9//2
f 4//2 1//2 7//2
f 10//2 11//2 8//2
f 10//2 8//2 5//2
f 10//2 4//2 9//2
f 10//2 9//2 11//2
f 10//3 6//3 12//3
f 6//4 3//4 13//4
f 14//4 6//4 13//4
f 2//4 15//4 13//4
f 2//4 13//4 3//4
f 12//4 14//4 16//4
f 12//4 6//4 14//4
f 12//4 15//4 2//4
f 12//4 16//4 15//4
f 11//5 14//5 8//5
f 1//6 6//6 5//6
f 9//6 16//6 11//6
f 4//5 3//5 1//5
f 9//3 13//3 15//3
f 7//1 8//1 14//1
f 4//1 10//1 12//1
f 10//3 5//3 6//3
f 11//5 16//5 14//5
f 1//6 3//6 6//6
f 9//6 15//6 16//6
f 4//5 2//5 3//5
f 9//3 7//3 13//3
