# Blender 5.2.1 LTS
# www.blender.org
mtllib temple_gold.mtl
o temple_gold
v -1.500000 4.900000 -5.220000
v -1.500000 0.500000 -5.580000
v -1.500000 0.500000 -5.220000
v -1.500000 4.900000 -5.580000
v -1.300000 4.900000 -5.220000
v -1.300000 0.500000 -5.220000
v -1.300000 0.500000 -5.580000
v -1.300000 4.900000 -5.580000
v 1.300000 4.900000 -5.220000
v 1.300000 0.500000 -5.580000
v 1.300000 0.500000 -5.220000
v 1.300000 4.900000 -5.580000
v 1.500000 4.900000 -5.220000
v 1.500000 0.500000 -5.220000
v 1.500000 0.500000 -5.580000
v 1.500000 4.900000 -5.580000
v -1.550000 5.120000 -5.220000
v -1.550000 4.900000 -5.580000
v -1.550000 4.900000 -5.220000
v -1.550000 5.120000 -5.580000
v 1.550000 5.120000 -5.220000
v 1.550000 4.900000 -5.220000
v 1.550000 4.900000 -5.580000
v 1.550000 5.120000 -5.580000
v -5.320000 6.040000 0.590000
v -5.560000 3.500000 0.590000
v -5.320000 3.500000 0.590000
v -5.560000 6.040000 0.590000
v -5.320000 6.040000 0.450000
v -5.320000 3.500000 0.450000
v -5.560000 3.500000 0.450000
v -5.560000 6.040000 0.450000
v -5.320000 6.040000 -0.450000
v -5.560000 3.500000 -0.450000
v -5.320000 3.500000 -0.450000
v -5.560000 6.040000 -0.450000
v -5.320000 6.040000 -0.590000
v -5.320000 3.500000 -0.590000
v -5.560000 3.500000 -0.590000
v -5.560000 6.040000 -0.590000
v -5.320000 6.180000 0.650000
v -5.560000 6.040000 0.650000
v -5.320000 6.040000 0.650000
v -5.560000 6.180000 0.650000
v -5.320000 6.180000 -0.650000
v -5.320000 6.040000 -0.650000
v -5.560000 6.040000 -0.650000
v -5.560000 6.180000 -0.650000
v -5.553000 3.500000 0.650000
v -5.580000 3.473000 0.650000
v -5.580000 3.410000 0.650000
v -5.095000 3.410000 0.650000
v -5.095000 3.500000 0.650000
v -5.553000 3.500000 -0.650000
v -5.095000 3.500000 -0.650000
v -5.580000 3.473000 -0.650000
v -5.095000 3.410000 -0.650000
v -5.580000 3.410000 -0.650000
v 5.320000 6.040000 -0.590000
v 5.560000 3.500000 -0.590000
v 5.320000 3.500000 -0.590000
v 5.560000 6.040000 -0.590000
v 5.320000 6.040000 -0.450000
v 5.320000 3.500000 -0.450000
v 5.560000 3.500000 -0.450000
v 5.560000 6.040000 -0.450000
v 5.320000 6.040000 0.450000
v 5.560000 3.500000 0.450000
v 5.320000 3.500000 0.450000
v 5.560000 6.040000 0.450000
v 5.320000 6.040000 0.590000
v 5.320000 3.500000 0.590000
v 5.560000 3.500000 0.590000
v 5.560000 6.040000 0.590000
v 5.320000 6.180000 -0.650000
v 5.560000 6.040000 -0.650000
v 5.320000 6.040000 -0.650000
v 5.560000 6.180000 -0.650000
v 5.320000 6.180000 0.650000
v 5.320000 6.040000 0.650000
v 5.560000 6.040000 0.650000
v 5.560000 6.180000 0.650000
v 5.553000 3.500000 -0.650000
v 5.580000 3.473000 -0.650000
v 5.580000 3.410000 -0.650000
v 5.095000 3.410000 -0.650000
v 5.095000 3.500000 -0.650000
v 5.553000 3.500000 0.650000
v 5.095000 3.500000 0.650000
v 5.580000 3.473000 0.650000
v 5.095000 3.410000 0.650000
v 5.580000 3.410000 0.650000
v 3.090000 6.040000 5.320000
v 3.090000 3.500000 5.560000
v 3.090000 3.500000 5.320000
v 3.090000 6.040000 5.560000
v 2.950000 6.040000 5.320000
v 2.950000 3.500000 5.320000
v 2.950000 3.500000 5.560000
v 2.950000 6.040000 5.560000
v 2.050000 6.040000 5.320000
v 2.050000 3.500000 5.560000
v 2.050000 3.500000 5.320000
v 2.050000 6.040000 5.560000
v 1.910000 6.040000 5.320000
v 1.910000 3.500000 5.320000
v 1.910000 3.500000 5.560000
v 1.910000 6.040000 5.560000
v 3.150000 6.180000 5.320000
v 3.150000 6.040000 5.560000
v 3.150000 6.040000 5.320000
v 3.150000 6.180000 5.560000
v 1.850000 6.180000 5.320000
v 1.850000 6.040000 5.320000
v 1.850000 6.040000 5.560000
v 1.850000 6.180000 5.560000
v 3.150000 3.500000 5.553000
v 3.150000 3.473000 5.580000
v 3.150000 3.410000 5.580000
v 3.150000 3.410000 5.095000
v 3.150000 3.500000 5.095000
v 1.850000 3.500000 5.095000
v 1.850000 3.500000 5.553000
v 1.850000 3.473000 5.580000
v 1.850000 3.410000 5.095000
v 1.850000 3.410000 5.580000
v -1.910000 6.040000 5.320000
v -1.910000 3.500000 5.560000
v -1.910000 3.500000 5.320000
v -1.910000 6.040000 5.560000
v -2.050000 6.040000 5.320000
v -2.050000 3.500000 5.320000
v -2.050000 3.500000 5.560000
v -2.050000 6.040000 5.560000
v -2.950000 6.040000 5.320000
v -2.950000 3.500000 5.560000
v -2.950000 3.500000 5.320000
v -2.950000 6.040000 5.560000
v -3.090000 6.040000 5.320000
v -3.090000 3.500000 5.320000
v -3.090000 3.500000 5.560000
v -3.090000 6.040000 5.560000
v -1.850000 6.180000 5.320000
v -1.850000 6.040000 5.560000
v -1.850000 6.040000 5.320000
v -1.850000 6.180000 5.560000
v -3.150000 6.180000 5.320000
v -3.150000 6.040000 5.320000
v -3.150000 6.040000 5.560000
v -3.150000 6.180000 5.560000
v -1.850000 3.500000 5.553000
v -1.850000 3.473000 5.580000
v -1.850000 3.410000 5.580000
v -1.850000 3.410000 5.095000
v -1.850000 3.500000 5.095000
v -3.150000 3.500000 5.553000
v -3.150000 3.500000 5.095000
v -3.150000 3.473000 5.580000
v -3.150000 3.410000 5.095000
v -3.150000 3.410000 5.580000
v -4.402010 9.650000 -4.597990
v -4.320000 10.400000 -4.400000
v -4.320000 9.650000 -4.400000
v -4.402010 10.400000 -4.597990
v -4.600000 9.650000 -4.680000
v -4.600000 10.400000 -4.680000
v -4.797990 9.650000 -4.597990
v -4.797990 10.400000 -4.597990
v -4.880000 9.650000 -4.400000
v -4.880000 10.400000 -4.400000
v -4.797990 9.650000 -4.202010
v -4.797990 10.400000 -4.202010
v -4.600000 9.650000 -4.120000
v -4.600000 10.400000 -4.120000
v -4.402010 9.650000 -4.202010
v -4.402010 10.400000 -4.202010
v 4.797990 9.650000 -4.597990
v 4.880000 10.400000 -4.400000
v 4.880000 9.650000 -4.400000
v 4.797990 10.400000 -4.597990
v 4.600000 9.650000 -4.680000
v 4.600000 10.400000 -4.680000
v 4.402010 9.650000 -4.597990
v 4.402010 10.400000 -4.597990
v 4.320000 9.650000 -4.400000
v 4.320000 10.400000 -4.400000
v 4.402010 9.650000 -4.202010
v 4.402010 10.400000 -4.202010
v 4.600000 9.650000 -4.120000
v 4.600000 10.400000 -4.120000
v 4.797990 9.650000 -4.202010
v 4.797990 10.400000 -4.202010
vn 0.9239 -0.0000 -0.3827
vn -1.0000 -0.0000 -0.0000
vn -0.0000 -0.0000 -1.0000
vn 1.0000 -0.0000 -0.0000
vn -0.0000 1.0000 -0.0000
vn -0.0000 -0.0000 1.0000
vn -0.0000 -1.0000 -0.0000
vn -0.3827 -0.0000 -0.9239
vn 0.7071 0.7071 -0.0000
vn 0.3827 -0.0000 0.9239
vn -0.9239 -0.0000 -0.3827
vn 0.3827 -0.0000 -0.9239
vn -0.7071 0.7071 -0.0000
vn -0.0000 0.7071 0.7071
vn 0.9239 -0.0000 0.3827
vn -0.9239 -0.0000 0.3827
vn -0.3827 -0.0000 0.9239
s 1
usemtl gold
f 180//1 179//1 177//1
f 134//2 132//2 133//2
f 101//3 106//3 105//3
f 96//4 95//4 93//4
f 147//5 146//5 143//5
f 138//6 141//6 136//6
f 55//5 49//5 53//5
f 114//7 110//7 115//7
f 62//4 65//4 60//4
f 96//6 99//6 94//6
f 71//5 70//5 67//5
f 168//8 165//8 167//8
f 90//9 83//9 88//9
f 36//6 35//6 33//6
f 98//7 94//7 99//7
f 41//4 46//4 45//4
f 48//3 46//3 47//3
f 25//4 30//4 29//4
f 121//3 125//3 122//3
f 57//7 51//7 58//7
f 1//6 6//6 5//6
f 44//6 43//6 41//6
f 150//2 148//2 149//2
f 74//6 72//6 73//6
f 8//4 6//4 7//4
f 38//7 34//7 39//7
f 176//10 173//10 175//10
f 78//4 81//4 76//4
f 6//7 2//7 7//7
f 63//5 62//5 59//5
f 12//2 11//2 9//2
f 4//2 3//2 1//2
f 4//3 7//3 2//3
f 46//7 42//7 47//7
f 17//6 22//6 21//6
f 100//2 98//2 99//2
f 49//6 50//6 51//6
f 52//6 49//6 51//6
f 53//6 49//6 52//6
f 12//3 15//3 10//3
f 53//4 57//4 55//4
f 9//6 14//6 13//6
f 104//6 107//6 102//6
f 16//4 14//4 15//4
f 54//3 58//3 56//3
f 57//3 58//3 54//3
f 55//3 57//3 54//3
f 66//6 64//6 65//6
f 28//6 27//6 25//6
f 113//5 112//5 109//5
f 21//5 20//5 17//5
f 112//4 111//4 109//4
f 14//7 10//7 15//7
f 127//3 132//3 131//3
f 5//5 4//5 1//5
f 70//4 73//4 68//4
f 30//7 26//7 31//7
f 140//7 136//7 141//7
f 24//4 22//4 23//4
f 82//6 80//6 81//6
f 20//2 19//2 17//2
f 157//5 151//5 155//5
f 13//5 12//5 9//5
f 79//5 78//5 75//5
f 33//4 38//4 37//4
f 83//3 84//3 85//3
f 86//3 83//3 85//3
f 87//3 83//3 86//3
f 170//11 167//11 169//11
f 40//3 38//3 39//3
f 70//3 69//3 67//3
f 182//12 177//12 181//12
f 64//7 60//7 65//7
f 88//6 92//6 90//6
f 91//6 92//6 88//6
f 89//6 91//6 88//6
f 28//2 31//2 26//2
f 91//7 85//7 92//7
f 138//4 137//4 135//4
f 84//4 92//4 85//4
f 20//3 23//3 18//3
f 45//5 44//5 41//5
f 93//3 98//3 97//3
f 96//5 97//5 100//5
f 44//2 47//2 42//2
f 108//2 106//2 107//2
f 104//4 103//4 101//4
f 192//10 189//10 191//10
f 184//8 181//8 183//8
f 50//2 58//2 51//2
f 106//7 102//7 107//7
f 116//2 114//2 115//2
f 56//13 49//13 54//13
f 112//6 115//6 110//6
f 117//4 118//4 119//4
f 120//4 117//4 119//4
f 121//4 117//4 120//4
f 109//3 114//3 113//3
f 105//5 104//5 101//5
f 32//3 30//3 31//3
f 59//2 64//2 63//2
f 117//5 122//5 123//5
f 123//2 126//2 124//2
f 125//2 126//2 123//2
f 122//2 125//2 123//2
f 118//6 126//6 119//6
f 62//3 61//3 59//3
f 130//4 129//4 127//4
f 125//7 119//7 126//7
f 124//14 117//14 123//14
f 178//15 191//15 179//15
f 186//11 183//11 185//11
f 130//6 133//6 128//6
f 87//2 91//2 89//2
f 37//5 36//5 33//5
f 135//3 140//3 139//3
f 142//2 140//2 141//2
f 132//7 128//7 133//7
f 29//5 28//5 25//5
f 72//7 68//7 73//7
f 138//5 139//5 142//5
f 143//3 148//3 147//3
f 67//2 72//2 71//2
f 151//4 152//4 153//4
f 154//4 151//4 153//4
f 155//4 151//4 154//4
f 148//7 144//7 149//7
f 146//6 149//6 144//6
f 146//4 145//4 143//4
f 131//5 130//5 127//5
f 75//2 80//2 79//2
f 156//2 160//2 158//2
f 159//2 160//2 156//2
f 157//2 159//2 156//2
f 158//14 151//14 156//14
f 159//7 153//7 160//7
f 78//3 77//3 75//3
f 166//12 161//12 165//12
f 164//1 163//1 161//1
f 155//3 159//3 157//3
f 36//2 39//2 34//2
f 89//5 83//5 87//5
f 167//7 171//7 169//7
f 175//7 173//7 171//7
f 161//7 167//7 165//7
f 161//7 163//7 175//7
f 172//16 169//16 171//16
f 168//5 170//5 172//5
f 176//5 172//5 174//5
f 164//5 166//5 168//5
f 164//5 176//5 162//5
f 162//15 175//15 163//15
f 80//7 76//7 81//7
f 176//5 168//5 172//5
f 175//7 167//7 161//7
f 174//17 171//17 173//17
f 152//6 160//6 153//6
f 191//7 183//7 177//7
f 188//16 185//16 187//16
f 190//17 187//17 189//17
f 183//7 187//7 185//7
f 191//7 189//7 187//7
f 177//7 183//7 181//7
f 177//7 179//7 191//7
f 184//5 186//5 188//5
f 192//5 188//5 190//5
f 180//5 182//5 184//5
f 180//5 192//5 178//5
f 22//7 18//7 23//7
f 192//5 184//5 188//5
f 180//1 178//1 179//1
f 134//2 131//2 132//2
f 101//3 103//3 106//3
f 96//4 94//4 95//4
f 147//5 150//5 146//5
f 138//6 142//6 141//6
f 55//5 54//5 49//5
f 114//7 111//7 110//7
f 62//4 66//4 65//4
f 96//6 100//6 99//6
f 71//5 74//5 70//5
f 168//8 166//8 165//8
f 90//9 84//9 83//9
f 36//6 34//6 35//6
f 98//7 95//7 94//7
f 41//4 43//4 46//4
f 48//3 45//3 46//3
f 25//4 27//4 30//4
f 121//3 120//3 125//3
f 57//7 52//7 51//7
f 1//6 3//6 6//6
f 44//6 42//6 43//6
f 150//2 147//2 148//2
f 74//6 71//6 72//6
f 8//4 5//4 6//4
f 38//7 35//7 34//7
f 176//10 174//10 173//10
f 78//4 82//4 81//4
f 6//7 3//7 2//7
f 63//5 66//5 62//5
f 12//2 10//2 11//2
f 4//2 2//2 3//2
f 4//3 8//3 7//3
f 46//7 43//7 42//7
f 17//6 19//6 22//6
f 100//2 97//2 98//2
f 12//3 16//3 15//3
f 53//4 52//4 57//4
f 9//6 11//6 14//6
f 104//6 108//6 107//6
f 16//4 13//4 14//4
f 66//6 63//6 64//6
f 28//6 26//6 27//6
f 113//5 116//5 112//5
f 21//5 24//5 20//5
f 112//4 110//4 111//4
f 14//7 11//7 10//7
f 127//3 129//3 132//3
f 5//5 8//5 4//5
f 70//4 74//4 73//4
f 30//7 27//7 26//7
f 140//7 137//7 136//7
f 24//4 21//4 22//4
f 82//6 79//6 80//6
f 20//2 18//2 19//2
f 157//5 156//5 151//5
f 13//5 16//5 12//5
f 79//5 82//5 78//5
f 33//4 35//4 38//4
f 170//11 168//11 167//11
f 40//3 37//3 38//3
f 70//3 68//3 69//3
f 182//12 180//12 177//12
f 64//7 61//7 60//7
f 28//2 32//2 31//2
f 91//7 86//7 85//7
f 138//4 136//4 137//4
f 84//4 90//4 92//4
f 20//3 24//3 23//3
f 45//5 48//5 44//5
f 93//3 95//3 98//3
f 96//5 93//5 97//5
f 44//2 48//2 47//2
f 108//2 105//2 106//2
f 104//4 102//4 103//4
f 192//10 190//10 189//10
f 184//8 182//8 181//8
f 50//2 56//2 58//2
f 106//7 103//7 102//7
f 116//2 113//2 114//2
f 56//13 50//13 49//13
f 112//6 116//6 115//6
f 109//3 111//3 114//3
f 105//5 108//5 104//5
f 32//3 29//3 30//3
f 59//2 61//2 64//2
f 117//5 121//5 122//5
f 118//6 124//6 126//6
f 62//3 60//3 61//3
f 130//4 128//4 129//4
f 125//7 120//7 119//7
f 124//14 118//14 117//14
f 178//15 192//15 191//15
f 186//11 184//11 183//11
f 130//6 134//6 133//6
f 87//2 86//2 91//2
f 37//5 40//5 36//5
f 135//3 137//3 140//3
f 142//2 139//2 140//2
f 132//7 129//7 128//7
f 29//5 32//5 28//5
f 72//7 69//7 68//7
f 138//5 135//5 139//5
f 143//3 145//3 148//3
f 67//2 69//2 72//2
f 148//7 145//7 144//7
f 146//6 150//6 149//6
f 146//4 144//4 145//4
f 131//5 134//5 130//5
f 75//2 77//2 80//2
f 158//14 152//14 151//14
f 159//7 154//7 153//7
f 78//3 76//3 77//3
f 166//12 164//12 161//12
f 164//1 162//1 163//1
f 155//3 154//3 159//3
f 36//2 40//2 39//2
f 89//5 88//5 83//5
f 172//16 170//16 169//16
f 162//15 176//15 175//15
f 80//7 77//7 76//7
f 176//5 164//5 168//5
f 175//7 171//7 167//7
f 174//17 172//17 171//17
f 152//6 158//6 160//6
f 191//7 187//7 183//7
f 188//16 186//16 185//16
f 190//17 188//17 187//17
f 22//7 19//7 18//7
f 192//5 180//5 184//5
