# Blender 5.2.1 LTS
# www.blender.org
mtllib temple_wall.mtl
o temple_wall
v -9.425000 0.500000 9.425000
v -9.425000 0.670000 8.575000
v -9.425000 0.500000 8.575000
v -9.425000 0.670000 9.425000
v -8.575000 0.670000 9.425000
v -8.575000 0.500000 9.425000
v -9.375000 0.720000 8.625000
v -9.375000 0.720000 9.375000
v -8.575000 0.500000 8.575000
v -8.575000 0.670000 8.575000
v -8.625000 0.720000 9.375000
v -8.625000 0.720000 8.625000
v -9.275000 4.480000 9.275000
v -9.275000 0.720000 8.725000
v -9.275000 0.720000 9.275000
v -9.275000 4.480000 8.725000
v -8.725000 4.480000 9.275000
v -8.725000 0.720000 9.275000
v -8.725000 0.720000 8.725000
v -8.725000 4.480000 8.725000
v -9.425000 4.480000 9.425000
v -9.425000 4.650000 8.575000
v -9.425000 4.480000 8.575000
v -9.425000 4.650000 9.425000
v -8.575000 4.650000 9.425000
v -8.575000 4.480000 9.425000
v -9.375000 4.700000 8.625000
v -9.375000 4.700000 9.375000
v -8.575000 4.480000 8.575000
v -8.575000 4.650000 8.575000
v -8.625000 4.700000 9.375000
v -8.625000 4.700000 8.625000
v -9.425000 0.500000 -8.575000
v -9.425000 0.670000 -9.425000
v -9.425000 0.500000 -9.425000
v -9.425000 0.670000 -8.575000
v -8.575000 0.670000 -8.575000
v -8.575000 0.500000 -8.575000
v -9.375000 0.720000 -9.375000
v -9.375000 0.720000 -8.625000
v -8.575000 0.500000 -9.425000
v -8.575000 0.670000 -9.425000
v -8.625000 0.720000 -8.625000
v -8.625000 0.720000 -9.375000
v -9.275000 4.480000 -8.725000
v -9.275000 0.720000 -9.275000
v -9.275000 0.720000 -8.725000
v -9.275000 4.480000 -9.275000
v -8.725000 4.480000 -8.725000
v -8.725000 0.720000 -8.725000
v -8.725000 0.720000 -9.275000
v -8.725000 4.480000 -9.275000
v -9.425000 4.480000 -8.575000
v -9.425000 4.650000 -9.425000
v -9.425000 4.480000 -9.425000
v -9.425000 4.650000 -8.575000
v -8.575000 4.650000 -8.575000
v -8.575000 4.480000 -8.575000
v -9.375000 4.700000 -9.375000
v -9.375000 4.700000 -8.625000
v -8.575000 4.480000 -9.425000
v -8.575000 4.650000 -9.425000
v -8.625000 4.700000 -8.625000
v -8.625000 4.700000 -9.375000
v 8.575000 0.500000 9.425000
v 8.575000 0.670000 8.575000
v 8.575000 0.500000 8.575000
v 8.575000 0.670000 9.425000
v 9.425000 0.670000 9.425000
v 9.425000 0.500000 9.425000
v 8.625000 0.720000 8.625000
v 8.625000 0.720000 9.375000
v 9.425000 0.500000 8.575000
v 9.425000 0.670000 8.575000
v 9.375000 0.720000 9.375000
v 9.375000 0.720000 8.625000
v 8.725000 4.480000 9.275000
v 8.725000 0.720000 8.725000
v 8.725000 0.720000 9.275000
v 8.725000 4.480000 8.725000
v 9.275000 4.480000 9.275000
v 9.275000 0.720000 9.275000
v 9.275000 0.720000 8.725000
v 9.275000 4.480000 8.725000
v 8.575000 4.480000 9.425000
v 8.575000 4.650000 8.575000
v 8.575000 4.480000 8.575000
v 8.575000 4.650000 9.425000
v 9.425000 4.650000 9.425000
v 9.425000 4.480000 9.425000
v 8.625000 4.700000 8.625000
v 8.625000 4.700000 9.375000
v 9.425000 4.480000 8.575000
v 9.425000 4.650000 8.575000
v 9.375000 4.700000 9.375000
v 9.375000 4.700000 8.625000
v 8.575000 0.500000 -8.575000
v 8.575000 0.670000 -9.425000
v 8.575000 0.500000 -9.425000
v 8.575000 0.670000 -8.575000
v 9.425000 0.670000 -8.575000
v 9.425000 0.500000 -8.575000
v 8.625000 0.720000 -9.375000
v 8.625000 0.720000 -8.625000
v 9.425000 0.500000 -9.425000
v 9.425000 0.670000 -9.425000
v 9.375000 0.720000 -8.625000
v 9.375000 0.720000 -9.375000
v 8.725000 4.480000 -8.725000
v 8.725000 0.720000 -9.275000
v 8.725000 0.720000 -8.725000
v 8.725000 4.480000 -9.275000
v 9.275000 4.480000 -8.725000
v 9.275000 0.720000 -8.725000
v 9.275000 0.720000 -9.275000
v 9.275000 4.480000 -9.275000
v 8.575000 4.480000 -8.575000
v 8.575000 4.650000 -9.425000
v 8.575000 4.480000 -9.425000
v 8.575000 4.650000 -8.575000
v 9.425000 4.650000 -8.575000
v 9.425000 4.480000 -8.575000
v 8.625000 4.700000 -9.375000
v 8.625000 4.700000 -8.625000
v 9.425000 4.480000 -9.425000
v 9.425000 4.650000 -9.425000
v 9.375000 4.700000 -8.625000
v 9.375000 4.700000 -9.375000
v -3.425000 0.500000 9.425000
v -3.425000 0.670000 8.575000
v -3.425000 0.500000 8.575000
v -3.425000 0.670000 9.425000
v -2.575000 0.670000 9.425000
v -2.575000 0.500000 9.425000
v -3.375000 0.720000 8.625000
v -3.375000 0.720000 9.375000
v -2.575000 0.500000 8.575000
v -2.575000 0.670000 8.575000
v -2.625000 0.720000 9.375000
v -2.625000 0.720000 8.625000
v -3.275000 4.480000 9.275000
v -3.275000 0.720000 8.725000
v -3.275000 0.720000 9.275000
v -3.275000 4.480000 8.725000
v -2.725000 4.480000 9.275000
v -2.725000 0.720000 9.275000
v -2.725000 0.720000 8.725000
v -2.725000 4.480000 8.725000
v -3.425000 4.480000 9.425000
v -3.425000 4.650000 8.575000
v -3.425000 4.480000 8.575000
v -3.425000 4.650000 9.425000
v -2.575000 4.650000 9.425000
v -2.575000 4.480000 9.425000
v -3.375000 4.700000 8.625000
v -3.375000 4.700000 9.375000
v -2.575000 4.480000 8.575000
v -2.575000 4.650000 8.575000
v -2.625000 4.700000 9.375000
v -2.625000 4.700000 8.625000
v -3.425000 0.500000 -8.575000
v -3.425000 0.670000 -9.425000
v -3.425000 0.500000 -9.425000
v -3.425000 0.670000 -8.575000
v -2.575000 0.670000 -8.575000
v -2.575000 0.500000 -8.575000
v -3.375000 0.720000 -9.375000
v -3.375000 0.720000 -8.625000
v -2.575000 0.500000 -9.425000
v -2.575000 0.670000 -9.425000
v -2.625000 0.720000 -8.625000
v -2.625000 0.720000 -9.375000
v -3.275000 4.480000 -8.725000
v -3.275000 0.720000 -9.275000
v -3.275000 0.720000 -8.725000
v -3.275000 4.480000 -9.275000
v -2.725000 4.480000 -8.725000
v -2.725000 0.720000 -8.725000
v -2.725000 0.720000 -9.275000
v -2.725000 4.480000 -9.275000
v -3.425000 4.480000 -8.575000
v -3.425000 4.650000 -9.425000
v -3.425000 4.480000 -9.425000
v -3.425000 4.650000 -8.575000
v -2.575000 4.650000 -8.575000
v -2.575000 4.480000 -8.575000
v -3.375000 4.700000 -9.375000
v -3.375000 4.700000 -8.625000
v -2.575000 4.480000 -9.425000
v -2.575000 4.650000 -9.425000
v -2.625000 4.700000 -8.625000
v -2.625000 4.700000 -9.375000
v 2.575000 0.500000 9.425000
v 2.575000 0.670000 8.575000
v 2.575000 0.500000 8.575000
v 2.575000 0.670000 9.425000
v 3.425000 0.670000 9.425000
v 3.425000 0.500000 9.425000
v 2.625000 0.720000 8.625000
v 2.625000 0.720000 9.375000
v 3.425000 0.500000 8.575000
v 3.425000 0.670000 8.575000
v 3.375000 0.720000 9.375000
v 3.375000 0.720000 8.625000
v 2.725000 4.480000 9.275000
v 2.725000 0.720000 8.725000
v 2.725000 0.720000 9.275000
v 2.725000 4.480000 8.725000
v 3.275000 4.480000 9.275000
v 3.275000 0.720000 9.275000
v 3.275000 0.720000 8.725000
v 3.275000 4.480000 8.725000
v 2.575000 4.480000 9.425000
v 2.575000 4.650000 8.575000
v 2.575000 4.480000 8.575000
v 2.575000 4.650000 9.425000
v 3.425000 4.650000 9.425000
v 3.425000 4.480000 9.425000
v 2.625000 4.700000 8.625000
v 2.625000 4.700000 9.375000
v 3.425000 4.480000 8.575000
v 3.425000 4.650000 8.575000
v 3.375000 4.700000 9.375000
v 3.375000 4.700000 8.625000
v 2.575000 0.500000 -8.575000
v 2.575000 0.670000 -9.425000
v 2.575000 0.500000 -9.425000
v 2.575000 0.670000 -8.575000
v 3.425000 0.670000 -8.575000
v 3.425000 0.500000 -8.575000
v 2.625000 0.720000 -9.375000
v 2.625000 0.720000 -8.625000
v 3.425000 0.500000 -9.425000
v 3.425000 0.670000 -9.425000
v 3.375000 0.720000 -8.625000
v 3.375000 0.720000 -9.375000
v 2.725000 4.480000 -8.725000
v 2.725000 0.720000 -9.275000
v 2.725000 0.720000 -8.725000
v 2.725000 4.480000 -9.275000
v 3.275000 4.480000 -8.725000
v 3.275000 0.720000 -8.725000
v 3.275000 0.720000 -9.275000
v 3.275000 4.480000 -9.275000
v 2.575000 4.480000 -8.575000
v 2.575000 4.650000 -9.425000
v 2.575000 4.480000 -9.425000
v 2.575000 4.650000 -8.575000
v 3.425000 4.650000 -8.575000
v 3.425000 4.480000 -8.575000
v 2.625000 4.700000 -9.375000
v 2.625000 4.700000 -8.625000
v 3.425000 4.480000 -9.425000
v 3.425000 4.650000 -9.425000
v 3.375000 4.700000 -8.625000
v 3.375000 4.700000 -9.375000
v -9.425000 0.670000 3.425000
v -9.425000 0.500000 2.575000
v -9.425000 0.500000 3.425000
v -9.425000 0.670000 2.575000
v -8.575000 0.670000 3.425000
v -8.575000 0.500000 3.425000
v -9.375000 0.720000 2.625000
v -9.375000 0.720000 3.375000
v -8.575000 0.500000 2.575000
v -8.575000 0.670000 2.575000
v -8.625000 0.720000 3.375000
v -8.625000 0.720000 2.625000
v -9.275000 4.480000 3.275000
v -9.275000 0.720000 2.725000
v -9.275000 0.720000 3.275000
v -9.275000 4.480000 2.725000
v -8.725000 4.480000 3.275000
v -8.725000 0.720000 3.275000
v -8.725000 0.720000 2.725000
v -8.725000 4.480000 2.725000
v -9.425000 4.650000 3.425000
v -9.425000 4.480000 2.575000
v -9.425000 4.480000 3.425000
v -9.425000 4.650000 2.575000
v -8.575000 4.650000 3.425000
v -8.575000 4.480000 3.425000
v -9.375000 4.700000 2.625000
v -9.375000 4.700000 3.375000
v -8.575000 4.480000 2.575000
v -8.575000 4.650000 2.575000
v -8.625000 4.700000 3.375000
v -8.625000 4.700000 2.625000
v -9.425000 0.670000 -2.575000
v -9.425000 0.500000 -3.425000
v -9.425000 0.500000 -2.575000
v -9.425000 0.670000 -3.425000
v -8.575000 0.670000 -2.575000
v -8.575000 0.500000 -2.575000
v -9.375000 0.720000 -3.375000
v -9.375000 0.720000 -2.625000
v -8.575000 0.500000 -3.425000
v -8.575000 0.670000 -3.425000
v -8.625000 0.720000 -2.625000
v -8.625000 0.720000 -3.375000
v -9.275000 4.480000 -2.725000
v -9.275000 0.720000 -3.275000
v -9.275000 0.720000 -2.725000
v -9.275000 4.480000 -3.275000
v -8.725000 4.480000 -2.725000
v -8.725000 0.720000 -2.725000
v -8.725000 0.720000 -3.275000
v -8.725000 4.480000 -3.275000
v -9.425000 4.650000 -2.575000
v -9.425000 4.480000 -3.425000
v -9.425000 4.480000 -2.575000
v -9.425000 4.650000 -3.425000
v -8.575000 4.650000 -2.575000
v -8.575000 4.480000 -2.575000
v -9.375000 4.700000 -3.375000
v -9.375000 4.700000 -2.625000
v -8.575000 4.480000 -3.425000
v -8.575000 4.650000 -3.425000
v -8.625000 4.700000 -2.625000
v -8.625000 4.700000 -3.375000
v 8.575000 0.670000 3.425000
v 8.575000 0.500000 2.575000
v 8.575000 0.500000 3.425000
v 8.575000 0.670000 2.575000
v 9.425000 0.670000 3.425000
v 9.425000 0.500000 3.425000
v 8.625000 0.720000 2.625000
v 8.625000 0.720000 3.375000
v 9.425000 0.500000 2.575000
v 9.425000 0.670000 2.575000
v 9.375000 0.720000 3.375000
v 9.375000 0.720000 2.625000
v 8.725000 4.480000 3.275000
v 8.725000 0.720000 2.725000
v 8.725000 0.720000 3.275000
v 8.725000 4.480000 2.725000
v 9.275000 4.480000 3.275000
v 9.275000 0.720000 3.275000
v 9.275000 0.720000 2.725000
v 9.275000 4.480000 2.725000
v 8.575000 4.650000 3.425000
v 8.575000 4.480000 2.575000
v 8.575000 4.480000 3.425000
v 8.575000 4.650000 2.575000
v 9.425000 4.650000 3.425000
v 9.425000 4.480000 3.425000
v 8.625000 4.700000 2.625000
v 8.625000 4.700000 3.375000
v 9.425000 4.480000 2.575000
v 9.425000 4.650000 2.575000
v 9.375000 4.700000 3.375000
v 9.375000 4.700000 2.625000
v 8.575000 0.670000 -2.575000
v 8.575000 0.500000 -3.425000
v 8.575000 0.500000 -2.575000
v 8.575000 0.670000 -3.425000
v 9.425000 0.670000 -2.575000
v 9.425000 0.500000 -2.575000
v 8.625000 0.720000 -3.375000
v 8.625000 0.720000 -2.625000
v 9.425000 0.500000 -3.425000
v 9.425000 0.670000 -3.425000
v 9.375000 0.720000 -2.625000
v 9.375000 0.720000 -3.375000
v 8.725000 4.480000 -2.725000
v 8.725000 0.720000 -3.275000
v 8.725000 0.720000 -2.725000
v 8.725000 4.480000 -3.275000
v 9.275000 4.480000 -2.725000
v 9.275000 0.720000 -2.725000
v 9.275000 0.720000 -3.275000
v 9.275000 4.480000 -3.275000
v 8.575000 4.650000 -2.575000
v 8.575000 4.480000 -3.425000
v 8.575000 4.480000 -2.575000
v 8.575000 4.650000 -3.425000
v 9.425000 4.650000 -2.575000
v 9.425000 4.480000 -2.575000
v 8.625000 4.700000 -3.375000
v 8.625000 4.700000 -2.625000
v 9.425000 4.480000 -3.425000
v 9.425000 4.650000 -3.425000
v 9.375000 4.700000 -2.625000
v 9.375000 4.700000 -3.375000
v -5.500000 6.040000 -0.590000
v -5.500000 9.500000 -5.500000
v -5.500000 0.500000 -5.500000
v -5.500000 3.500000 -0.590000
v -5.500000 0.500000 5.500000
v -5.500000 3.500000 0.590000
v -5.500000 6.040000 0.590000
v -5.500000 9.500000 5.500000
v -5.320000 6.040000 0.590000
v -5.320000 6.040000 -0.590000
v -5.320000 5.900000 0.450000
v -5.320000 3.500000 0.450000
v -5.320000 3.500000 0.590000
v -5.320000 5.900000 -0.450000
v -5.320000 3.500000 -0.590000
v -5.320000 3.500000 -0.450000
v -5.050000 5.900000 -0.450000
v -5.050000 3.500000 -0.450000
v -5.050000 0.500000 -5.050000
v -5.050000 9.500000 -5.050000
v -5.050000 0.500000 5.050000
v -5.050000 3.500000 0.450000
v -5.050000 5.900000 0.450000
v -5.050000 9.500000 5.050000
v -1.300000 4.700000 -5.050000
v -1.300000 0.500000 -5.050000
v 1.300000 4.700000 -5.050000
v 1.300000 0.500000 -5.050000
v 5.050000 0.500000 -5.050000
v 5.050000 9.500000 -5.050000
v 1.300000 0.500000 -5.220000
v 1.300000 4.700000 -5.220000
v -1.300000 4.700000 -5.220000
v -1.300000 0.500000 -5.220000
v -1.500000 0.500000 -5.220000
v -1.500000 4.900000 -5.220000
v 1.500000 0.500000 -5.220000
v 1.500000 4.900000 -5.220000
v -1.500000 4.900000 -5.500000
v -1.500000 0.500000 -5.500000
v 1.500000 4.900000 -5.500000
v 1.500000 0.500000 -5.500000
v 5.050000 5.900000 -0.450000
v 5.050000 3.500000 -0.450000
v 5.050000 0.500000 5.050000
v 5.050000 3.500000 0.450000
v 5.050000 5.900000 0.450000
v 5.050000 9.500000 5.050000
v 5.500000 3.500000 0.590000
v 5.320000 3.500000 0.450000
v 5.320000 3.500000 0.590000
v 5.320000 3.500000 -0.450000
v 5.500000 3.500000 -0.590000
v 5.320000 3.500000 -0.590000
v 5.320000 5.900000 -0.450000
v 5.320000 6.040000 -0.590000
v 5.320000 5.900000 0.450000
v 5.320000 6.040000 0.590000
v 5.500000 6.040000 0.590000
v 5.500000 6.040000 -0.590000
v 5.500000 0.500000 -5.500000
v 5.500000 9.500000 -5.500000
v 5.500000 0.500000 5.500000
v 5.500000 9.500000 5.500000
v -2.050000 3.500000 5.050000
v -2.950000 3.500000 5.050000
v -2.950000 5.900000 5.050000
v -2.050000 5.900000 5.050000
v 2.050000 3.500000 5.050000
v 2.950000 3.500000 5.050000
v 2.050000 5.900000 5.050000
v 2.950000 5.900000 5.050000
v 2.050000 3.500000 5.320000
v 2.050000 5.900000 5.320000
v 2.950000 5.900000 5.320000
v 2.950000 3.500000 5.320000
v 3.090000 3.500000 5.320000
v 3.090000 6.040000 5.320000
v 1.910000 3.500000 5.320000
v 1.910000 6.040000 5.320000
v 3.090000 6.040000 5.500000
v 3.090000 3.500000 5.500000
v 1.910000 6.040000 5.500000
v 1.910000 3.500000 5.500000
v -2.950000 5.900000 5.320000
v -2.050000 5.900000 5.320000
v -2.050000 3.500000 5.320000
v -1.910000 3.500000 5.320000
v -1.910000 6.040000 5.320000
v -3.090000 3.500000 5.320000
v -2.950000 3.500000 5.320000
v -3.090000 6.040000 5.320000
v -1.910000 6.040000 5.500000
v -1.910000 3.500000 5.500000
v -3.090000 6.040000 5.500000
v -3.090000 3.500000 5.500000
v -5.800000 10.280000 5.800000
v -5.800000 9.500000 -5.800000
v -5.800000 9.500000 5.800000
v -5.800000 10.280000 -5.800000
v 5.800000 10.280000 5.800000
v 5.800000 9.500000 5.800000
v -5.200000 10.280000 5.200000
v -5.200000 10.280000 -5.200000
v 5.800000 10.280000 -5.800000
v 5.200000 10.280000 -5.200000
v 5.200000 10.280000 5.200000
v 5.800000 9.500000 -5.800000
v -5.200000 9.500000 5.200000
v -5.200000 9.500000 -5.200000
v 5.200000 9.500000 -5.200000
v 5.200000 9.500000 5.200000
v -9.500000 4.920000 9.500000
v -9.500000 4.700000 -9.500000
v -9.500000 4.700000 9.500000
v -9.500000 4.920000 -9.500000
v 9.500000 4.700000 9.500000
v 9.500000 4.920000 9.500000
v -8.700000 4.920000 8.700000
v -8.700000 4.920000 -8.700000
v 8.700000 4.920000 8.700000
v 9.500000 4.920000 -9.500000
v 8.700000 4.920000 -8.700000
v 9.500000 4.700000 -9.500000
v -8.700000 4.700000 8.700000
v -8.700000 4.700000 -8.700000
v 8.700000 4.700000 8.700000
v 8.700000 4.700000 -8.700000
v -9.500000 5.280000 -9.500000
v -9.500000 5.280000 9.500000
v 9.500000 5.280000 9.500000
v -8.700000 5.280000 8.700000
v -8.700000 5.280000 -8.700000
v 8.700000 5.280000 8.700000
v 9.500000 5.280000 -9.500000
v 8.700000 5.280000 -8.700000
v -9.750000 5.500000 9.700000
v -9.750000 5.280000 -9.700000
v -9.750000 5.280000 9.700000
v -9.750000 5.500000 -9.700000
v -8.700000 5.500000 8.700000
v -9.700000 5.500000 9.750000
v 9.700000 5.500000 9.750000
v -8.700000 5.500000 -8.700000
v 8.700000 5.500000 8.700000
v 9.750000 5.500000 9.700000
v -9.700000 5.500000 -9.750000
v 8.700000 5.500000 -8.700000
v 9.750000 5.500000 -9.700000
v 9.700000 5.500000 -9.750000
v -9.700000 5.280000 9.750000
v -9.700000 5.280000 -9.750000
v 9.700000 5.280000 9.750000
v 9.750000 5.280000 9.700000
v 9.750000 5.280000 -9.700000
v 9.700000 5.280000 -9.750000
vn -0.0000 -0.0000 1.0000
vn -0.0000 -0.0000 -1.0000
vn -0.7071 0.7071 -0.0000
vn 1.0000 -0.0000 -0.0000
vn -0.7071 -0.0000 -0.7071
vn -0.0000 1.0000 -0.0000
vn -0.0000 0.7071 0.7071
vn -0.0000 0.7071 -0.7071
vn 0.7071 0.7071 -0.0000
vn -0.0000 -1.0000 -0.0000
vn -1.0000 -0.0000 -0.0000
vn 0.7071 -0.0000 0.7071
vn 0.7071 -0.0000 -0.7071
vn -0.7071 -0.0000 0.7071
s 1
usemtl paint
f 528//1 520//1 532//1
f 324//2 329//2 322//2
f 7//3 4//3 8//3
f 7//3 2//3 4//3
f 276//4 274//4 275//4
f 524//5 536//5 522//5
f 383//6 379//6 380//6
f 11//7 8//7 4//7
f 11//7 4//7 5//7
f 353//1 358//1 357//1
f 12//8 2//8 7//8
f 12//8 10//8 2//8
f 12//9 11//9 5//9
f 12//9 5//9 10//9
f 508//2 500//2 506//2
f 299//6 295//6 296//6
f 280//2 285//2 278//2
f 336//2 339//2 334//2
f 337//6 336//6 333//6
f 453//2 452//2 455//2
f 409//4 418//4 417//4
f 176//2 179//2 174//2
f 27//3 24//3 28//3
f 27//3 22//3 24//3
f 255//6 251//6 252//6
f 130//2 137//2 131//2
f 162//2 169//2 163//2
f 31//7 28//7 24//7
f 31//7 24//7 25//7
f 145//6 144//6 141//6
f 32//8 22//8 27//8
f 32//8 30//8 22//8
f 32//9 31//9 25//9
f 32//9 25//9 30//9
f 309//1 314//1 313//1
f 164//1 166//1 165//1
f 39//3 36//3 40//3
f 39//3 34//3 36//3
f 66//2 73//2 67//2
f 513//2 506//2 500//2
f 368//2 371//2 366//2
f 43//7 40//7 36//7
f 43//7 36//7 37//7
f 191//6 187//6 188//6
f 44//8 34//8 39//8
f 44//8 42//8 34//8
f 44//9 43//9 37//9
f 44//9 37//9 42//9
f 81//6 80//6 77//6
f 212//4 210//4 211//4
f 451//10 470//10 469//10
f 214//2 221//2 215//2
f 100//1 102//1 101//1
f 344//2 349//2 342//2
f 246//11 245//11 248//11
f 2//11 1//11 4//11
f 59//3 56//3 60//3
f 59//3 54//3 56//3
f 63//6 59//6 60//6
f 260//2 265//2 258//2
f 127//6 123//6 124//6
f 63//7 60//7 56//7
f 63//7 56//7 57//7
f 122//4 126//4 121//4
f 64//8 54//8 59//8
f 64//8 62//8 54//8
f 64//9 63//9 57//9
f 64//9 57//9 62//9
f 488//1 495//1 490//1
f 289//1 294//1 293//1
f 71//3 68//3 72//3
f 71//3 66//3 68//3
f 148//4 146//4 147//4
f 6//10 3//10 9//10
f 84//4 82//4 83//4
f 75//7 72//7 68//7
f 75//7 68//7 69//7
f 319//6 315//6 316//6
f 76//8 66//8 71//8
f 76//8 74//8 66//8
f 76//9 75//9 69//9
f 76//9 69//9 74//9
f 150//2 157//2 151//2
f 20//4 18//4 19//4
f 139//6 135//6 136//6
f 226//11 225//11 228//11
f 171//6 167//6 168//6
f 4//1 6//1 5//1
f 86//2 93//2 87//2
f 373//1 378//1 377//1
f 91//3 88//3 92//3
f 91//3 86//3 88//3
f 184//1 186//1 185//1
f 11//6 7//6 8//6
f 116//4 114//4 115//4
f 95//7 92//7 88//7
f 95//7 88//7 89//7
f 440//1 437//1 444//1
f 96//8 86//8 91//8
f 96//8 94//8 86//8
f 96//9 95//9 89//9
f 96//9 89//9 94//9
f 194//2 201//2 195//2
f 6//4 10//4 5//4
f 103//3 100//3 104//3
f 103//3 98//3 100//3
f 107//6 103//6 104//6
f 450//4 469//4 475//4
f 209//6 208//6 205//6
f 107//7 104//7 100//7
f 107//7 100//7 101//7
f 17//6 16//6 13//6
f 108//8 98//8 103//8
f 108//8 106//8 98//8
f 108//9 107//9 101//9
f 108//9 101//9 106//9
f 196//1 198//1 197//1
f 24//1 26//1 25//1
f 214//11 213//11 216//11
f 118//11 117//11 120//11
f 517//1 507//1 520//1
f 237//1 242//1 241//1
f 16//11 15//11 13//11
f 134//4 138//4 133//4
f 123//3 120//3 124//3
f 123//3 118//3 120//3
f 118//2 125//2 119//2
f 22//2 29//2 23//2
f 526//1 537//1 527//1
f 127//7 124//7 120//7
f 127//7 120//7 121//7
f 26//10 23//10 29//10
f 128//8 118//8 123//8
f 128//8 126//8 118//8
f 128//9 127//9 121//9
f 128//9 121//9 126//9
f 132//1 134//1 133//1
f 54//2 61//2 55//2
f 135//3 132//3 136//3
f 135//3 130//3 132//3
f 260//11 259//11 257//11
f 58//10 55//10 61//10
f 26//4 30//4 25//4
f 139//7 136//7 132//7
f 139//7 132//7 133//7
f 31//6 27//6 28//6
f 140//8 130//8 135//8
f 140//8 138//8 130//8
f 140//9 139//9 133//9
f 140//9 133//9 138//9
f 269//1 274//1 273//1
f 13//1 18//1 17//1
f 144//2 147//2 142//2
f 68//1 70//1 69//1
f 286//4 282//4 285//4
f 38//10 35//10 41//10
f 152//1 154//1 153//1
f 36//1 38//1 37//1
f 155//3 152//3 156//3
f 155//3 150//3 152//3
f 304//11 303//11 301//11
f 34//11 33//11 36//11
f 159//6 155//6 156//6
f 159//7 156//7 152//7
f 159//7 152//7 153//7
f 75//6 71//6 72//6
f 160//8 150//8 155//8
f 160//8 158//8 150//8
f 160//9 159//9 153//9
f 160//9 153//9 158//9
f 314//10 310//10 317//10
f 70//4 74//4 69//4
f 167//3 164//3 168//3
f 167//3 162//3 164//3
f 144//11 143//11 141//11
f 56//1 58//1 57//1
f 330//4 326//4 329//4
f 171//7 168//7 164//7
f 171//7 164//7 165//7
f 18//10 14//10 19//10
f 172//8 162//8 167//8
f 172//8 170//8 162//8
f 172//9 171//9 165//9
f 172//9 165//9 170//9
f 180//4 178//4 179//4
f 49//6 48//6 45//6
f 344//11 343//11 341//11
f 48//11 47//11 45//11
f 177//6 176//6 173//6
f 43//6 39//6 40//6
f 358//10 354//10 361//10
f 38//4 42//4 37//4
f 187//3 184//3 188//3
f 187//3 182//3 184//3
f 182//2 189//2 183//2
f 88//1 90//1 89//1
f 370//10 366//10 371//10
f 191//7 188//7 184//7
f 191//7 184//7 185//7
f 86//11 85//11 88//11
f 192//8 182//8 187//8
f 192//8 190//8 182//8
f 192//9 191//9 185//9
f 192//9 185//9 190//9
f 166//4 170//4 165//4
f 52//4 50//4 51//4
f 199//3 196//3 200//3
f 199//3 194//3 196//3
f 394//10 391//10 385//10
f 22//11 21//11 24//11
f 203//6 199//6 200//6
f 203//7 200//7 196//7
f 203//7 196//7 197//7
f 95//6 91//6 92//6
f 204//8 194//8 199//8
f 204//8 202//8 194//8
f 204//9 203//9 197//9
f 204//9 197//9 202//9
f 428//6 434//6 436//6
f 50//10 46//10 51//10
f 208//2 211//2 206//2
f 48//2 51//2 46//2
f 453//4 458//4 457//4
f 45//1 50//1 49//1
f 216//1 218//1 217//1
f 449//6 475//6 471//6
f 219//3 216//3 220//3
f 219//3 214//3 216//3
f 473//11 478//11 477//11
f 102//10 99//10 105//10
f 198//10 195//10 201//10
f 223//7 220//7 216//7
f 223//7 216//7 217//7
f 331//6 327//6 328//6
f 224//8 214//8 219//8
f 224//8 222//8 214//8
f 224//9 223//9 217//9
f 224//9 217//9 222//9
f 16//2 19//2 14//2
f 230//10 227//10 233//10
f 231//3 228//3 232//3
f 231//3 226//3 228//3
f 66//11 65//11 68//11
f 477//1 468//1 467//1
f 487//2 496//2 493//2
f 235//7 232//7 228//7
f 235//7 228//7 229//7
f 240//11 239//11 237//11
f 236//8 226//8 231//8
f 236//8 234//8 226//8
f 236//9 235//9 229//9
f 236//9 229//9 234//9
f 54//11 53//11 56//11
f 506//4 501//4 508//4
f 34//2 41//2 35//2
f 242//10 238//10 243//10
f 114//10 110//10 115//10
f 502//4 519//4 515//4
f 112//2 115//2 110//2
f 109//1 114//1 113//1
f 251//3 248//3 252//3
f 251//3 246//3 248//3
f 246//2 253//2 247//2
f 531//2 540//2 536//2
f 250//10 247//10 253//10
f 255//7 252//7 248//7
f 255//7 248//7 249//7
f 122//10 119//10 125//10
f 256//8 246//8 251//8
f 256//8 254//8 246//8
f 256//9 255//9 249//9
f 256//9 249//9 254//9
f 250//4 254//4 249//4
f 262//10 258//10 265//10
f 263//3 257//3 264//3
f 263//3 260//3 257//3
f 530//12 537//12 538//12
f 58//4 62//4 57//4
f 134//10 131//10 137//10
f 267//7 264//7 257//7
f 267//7 257//7 261//7
f 257//1 262//1 261//1
f 268//8 260//8 263//8
f 268//8 266//8 260//8
f 268//9 267//9 261//9
f 268//9 261//9 266//9
f 266//4 262//4 265//4
f 130//11 129//11 132//11
f 272//11 271//11 269//11
f 267//6 263//6 264//6
f 520//11 505//11 518//11
f 393//2 390//2 391//2
f 401//10 395//10 398//10
f 272//2 275//2 270//2
f 283//3 277//3 284//3
f 283//3 280//3 277//3
f 166//10 163//10 169//10
f 77//1 82//1 81//1
f 282//10 278//10 285//10
f 287//7 284//7 277//7
f 287//7 277//7 281//7
f 277//1 282//1 281//1
f 288//8 280//8 283//8
f 288//8 286//8 280//8
f 288//9 287//9 281//9
f 288//9 281//9 286//9
f 274//10 270//10 275//10
f 70//10 67//10 73//10
f 295//3 289//3 296//3
f 295//3 292//3 289//3
f 146//10 142//10 147//10
f 287//6 283//6 284//6
f 294//10 290//10 297//10
f 299//7 296//7 289//7
f 299//7 289//7 293//7
f 141//1 146//1 145//1
f 300//8 292//8 295//8
f 300//8 298//8 292//8
f 300//9 299//9 293//9
f 300//9 293//9 298//9
f 298//4 294//4 297//4
f 292//2 297//2 290//2
f 292//11 291//11 289//11
f 399//1 385//1 388//1
f 154//10 151//10 157//10
f 308//4 306//4 307//4
f 306//10 302//10 307//10
f 150//11 149//11 152//11
f 315//3 309//3 316//3
f 315//3 312//3 309//3
f 312//11 311//11 309//11
f 305//6 304//6 301//6
f 301//1 306//1 305//1
f 319//7 316//7 309//7
f 319//7 309//7 313//7
f 80//11 79//11 77//11
f 320//8 312//8 315//8
f 320//8 318//8 312//8
f 320//9 319//9 313//9
f 320//9 313//9 318//9
f 162//11 161//11 164//11
f 312//2 317//2 310//2
f 327//3 321//3 328//3
f 327//3 324//3 321//3
f 324//11 323//11 321//11
f 154//4 158//4 153//4
f 326//10 322//10 329//10
f 331//7 328//7 321//7
f 331//7 321//7 325//7
f 321//1 326//1 325//1
f 332//8 324//8 327//8
f 332//8 330//8 324//8
f 332//9 331//9 325//9
f 332//9 325//9 330//9
f 318//4 314//4 317//4
f 333//1 338//1 337//1
f 304//2 307//2 302//2
f 120//1 122//1 121//1
f 194//11 193//11 196//11
f 90//4 94//4 89//4
f 338//10 334//10 339//10
f 223//6 219//6 220//6
f 347//3 341//3 348//3
f 347//3 344//3 341//3
f 336//11 335//11 333//11
f 82//10 78//10 83//10
f 173//1 178//1 177//1
f 351//7 348//7 341//7
f 351//7 341//7 345//7
f 341//1 346//1 345//1
f 352//8 344//8 347//8
f 352//8 350//8 344//8
f 352//9 351//9 345//9
f 352//9 345//9 350//9
f 350//4 346//4 349//4
f 176//11 175//11 173//11
f 359//3 353//3 360//3
f 359//3 356//3 353//3
f 356//11 355//11 353//11
f 351//6 347//6 348//6
f 346//10 342//10 349//10
f 363//7 360//7 353//7
f 363//7 353//7 357//7
f 340//4 338//4 339//4
f 364//8 356//8 359//8
f 364//8 362//8 356//8
f 364//9 363//9 357//9
f 364//9 357//9 362//9
f 182//11 181//11 184//11
f 356//2 361//2 354//2
f 368//11 367//11 365//11
f 178//10 174//10 179//10
f 365//1 370//1 369//1
f 372//4 370//4 371//4
f 362//4 358//4 361//4
f 90//10 87//10 93//10
f 379//3 373//3 380//3
f 379//3 376//3 373//3
f 186//4 190//4 185//4
f 369//6 368//6 365//6
f 378//10 374//10 381//10
f 383//7 380//7 373//7
f 383//7 373//7 377//7
f 186//10 183//10 189//10
f 384//8 376//8 379//8
f 384//8 382//8 376//8
f 384//9 383//9 377//9
f 384//9 377//9 382//9
f 385//11 386//11 387//11
f 385//11 387//11 388//11
f 389//11 390//11 388//11
f 389//11 388//11 387//11
f 391//11 390//11 389//11
f 392//11 385//11 391//11
f 392//11 386//11 385//11
f 392//11 391//11 389//11
f 382//4 378//4 381//4
f 395//11 396//11 397//11
f 395//11 397//11 393//11
f 398//11 399//11 400//11
f 398//11 395//11 393//11
f 394//11 398//11 393//11
f 394//11 399//11 398//11
f 376//2 381//2 374//2
f 401//4 403//4 404//4
f 401//4 402//4 403//4
f 405//4 402//4 406//4
f 405//4 403//4 402//4
f 407//4 405//4 406//4
f 407//4 401//4 404//4
f 408//4 407//4 404//4
f 408//4 405//4 407//4
f 409//1 403//1 410//1
f 404//1 403//1 409//1
f 411//1 412//1 413//1
f 414//1 409//1 411//1
f 414//1 404//1 409//1
f 414//1 411//1 413//1
f 376//11 375//11 373//11
f 417//2 418//2 419//2
f 417//2 419//2 420//2
f 416//2 421//2 415//2
f 416//2 417//2 420//2
f 422//2 416//2 420//2
f 422//2 421//2 416//2
f 363//6 359//6 360//6
f 484//11 483//11 481//11
f 402//1 398//1 400//1
f 218//4 222//4 217//4
f 112//11 111//11 109//11
f 427//11 414//11 413//11
f 427//11 413//11 428//11
f 429//11 430//11 428//11
f 429//11 428//11 413//11
f 431//11 430//11 429//11
f 432//11 427//11 431//11
f 432//11 414//11 427//11
f 432//11 431//11 429//11
f 433//6 434//6 435//6
f 411//10 417//10 416//10
f 437//6 438//6 436//6
f 437//6 434//6 433//6
f 437//6 436//6 434//6
f 439//4 436//4 438//4
f 439//4 438//4 440//4
f 441//4 435//4 434//4
f 441//4 439//4 440//4
f 442//4 441//4 440//4
f 442//4 435//4 441//4
f 421//11 425//11 426//11
f 412//11 416//11 415//11
f 444//4 445//4 446//4
f 444//4 437//4 445//4
f 447//4 437//4 433//4
f 447//4 445//4 437//4
f 443//4 447//4 433//4
f 448//4 443//4 444//4
f 448//4 444//4 446//4
f 448//4 447//4 443//4
f 98//11 97//11 100//11
f 208//11 207//11 205//11
f 442//10 444//10 443//10
f 430//2 441//2 434//2
f 449//2 405//2 450//2
f 451//2 450//2 405//2
f 408//2 452//2 451//2
f 408//2 451//2 405//2
f 453//2 429//2 405//2
f 453//2 405//2 449//2
f 454//2 429//2 453//2
f 198//4 202//4 197//4
f 456//2 429//2 454//2
f 432//2 456//2 455//2
f 432//2 452//2 408//2
f 432//2 455//2 452//2
f 432//2 429//2 456//2
f 427//1 436//1 439//1
f 459//1 460//1 461//1
f 459//1 461//1 462//1
f 458//1 463//1 457//1
f 458//1 459//1 462//1
f 464//1 458//1 462//1
f 464//1 463//1 458//1
f 431//10 439//10 441//10
f 435//2 443//2 433//2
f 420//4 424//4 423//4
f 468//6 457//6 463//6
f 210//10 206//10 211//10
f 466//6 461//6 460//6
f 466//6 457//6 468//6
f 466//6 460//6 457//6
f 462//11 466//11 465//11
f 454//6 457//6 460//6
f 205//1 210//1 209//1
f 470//1 471//1 472//1
f 470//1 472//1 473//1
f 469//1 474//1 475//1
f 469//1 470//1 473//1
f 476//1 469//1 473//1
f 476//1 474//1 469//1
f 456//11 460//11 459//11
f 455//10 459//10 458//10
f 464//10 465//10 467//10
f 102//4 106//4 101//4
f 480//6 475//6 474//6
f 218//10 215//10 221//10
f 471//6 475//6 480//6
f 478//6 472//6 471//6
f 478//6 471//6 480//6
f 476//10 477//10 479//10
f 452//11 471//11 470//11
f 474//4 479//4 480//4
f 463//4 467//4 468//4
f 388//6 400//6 399//6
f 422//10 423//10 425//10
f 390//6 397//6 396//6
f 390//6 400//6 388//6
f 390//6 396//6 400//6
f 406//6 400//6 396//6
f 448//6 408//6 392//6
f 386//6 408//6 404//6
f 386//6 392//6 408//6
f 446//6 414//6 448//6
f 446//6 386//6 404//6
f 446//6 404//6 414//6
f 432//6 408//6 448//6
f 432//6 448//6 414//6
f 423//2 424//2 387//2
f 386//2 423//2 387//2
f 425//2 445//2 426//2
f 425//2 423//2 386//2
f 446//2 445//2 425//2
f 446//2 425//2 386//2
f 429//10 389//10 405//10
f 387//10 403//10 405//10
f 387//10 405//10 389//10
f 447//10 389//10 429//10
f 410//10 403//10 419//10
f 418//10 410//10 419//10
f 424//10 403//10 387//10
f 424//10 419//10 403//10
f 421//10 412//10 415//10
f 413//10 421//10 426//10
f 413//10 412//10 421//10
f 445//10 429//10 413//10
f 445//10 447//10 429//10
f 445//10 413//10 426//10
f 478//1 480//1 389//1
f 479//1 389//1 480//1
f 392//1 389//1 479//1
f 477//1 392//1 479//1
f 490//11 496//11 491//11
f 468//1 478//1 389//1
f 447//1 468//1 389//1
f 466//1 468//1 447//1
f 465//1 466//1 447//1
f 448//1 467//1 465//1
f 448//1 392//1 477//1
f 448//1 477//1 467//1
f 448//1 465//1 447//1
f 481//1 486//1 485//1
f 489//4 486//4 492//4
f 485//6 487//6 481//6
f 484//6 487//6 488//6
f 484//6 481//6 487//6
f 489//6 490//6 485//6
f 489//6 484//6 488//6
f 489//6 488//6 490//6
f 491//6 487//6 485//6
f 491//6 485//6 490//6
f 486//10 483//10 493//10
f 482//10 494//10 493//10
f 482//10 493//10 483//10
f 492//10 486//10 495//10
f 492//10 494//10 482//10
f 492//10 495//10 494//10
f 496//10 486//10 493//10
f 496//10 495//10 486//10
f 484//2 492//2 482//2
f 280//11 279//11 277//11
f 248//1 250//1 249//1
f 80//2 83//2 78//2
f 226//2 233//2 227//2
f 533//13 540//13 534//13
f 493//4 488//4 487//4
f 502//6 503//6 497//6
f 500//6 497//6 503//6
f 504//6 500//6 503//6
f 505//6 503//6 502//6
f 506//6 507//6 505//6
f 506//6 505//6 502//6
f 506//6 500//6 504//6
f 506//6 504//6 507//6
f 228//1 230//1 229//1
f 501//10 499//10 509//10
f 498//10 509//10 499//10
f 510//10 509//10 498//10
f 511//10 501//10 509//10
f 508//10 511//10 512//10
f 508//10 501//10 511//10
f 508//10 510//10 498//10
f 508//10 512//10 510//10
f 497//1 501//1 502//1
f 230//4 234//4 229//4
f 500//11 499//11 497//11
f 98//2 105//2 99//2
f 244//4 242//4 243//4
f 511//2 503//2 505//2
f 509//4 504//4 503//4
f 515//6 516//6 514//6
f 513//6 514//6 516//6
f 517//6 513//6 516//6
f 518//6 516//6 515//6
f 519//6 520//6 518//6
f 519//6 518//6 515//6
f 519//6 513//6 517//6
f 519//6 517//6 520//6
f 235//6 231//6 232//6
f 514//1 502//1 515//1
f 513//11 497//11 514//11
f 518//2 525//2 529//2
f 113//6 112//6 109//6
f 241//6 240//6 237//6
f 505//2 516//2 518//2
f 525//6 521//6 526//6
f 527//6 525//6 526//6
f 528//6 524//6 521//6
f 528//6 521//6 525//6
f 529//6 525//6 527//6
f 530//6 529//6 527//6
f 531//6 524//6 528//6
f 532//6 529//6 530//6
f 533//6 532//6 530//6
f 534//6 532//6 533//6
f 534//6 531//6 528//6
f 534//6 528//6 532//6
f 503//4 517//4 516//4
f 240//2 243//2 238//2
f 516//10 535//10 523//10
f 537//10 535//10 516//10
f 517//10 523//10 522//10
f 517//10 516//10 523//10
f 518//10 537//10 516//10
f 538//10 537//10 518//10
f 536//10 517//10 522//10
f 520//10 538//10 518//10
f 539//10 538//10 520//10
f 540//10 539//10 520//10
f 540//10 517//10 536//10
f 540//10 520//10 517//10
f 521//14 535//14 526//14
f 524//11 523//11 521//11
f 507//11 511//11 505//11
f 407//2 396//2 395//2
f 504//1 512//1 507//1
f 273//6 272//6 269//6
f 533//4 538//4 539//4
f 532//11 518//11 529//11
f 2//2 9//2 3//2
f 516//4 528//4 525//4
f 528//1 517//1 520//1
f 324//2 330//2 329//2
f 276//4 273//4 274//4
f 524//5 531//5 536//5
f 383//6 384//6 379//6
f 353//1 355//1 358//1
f 508//2 498//2 500//2
f 299//6 300//6 295//6
f 280//2 286//2 285//2
f 336//2 340//2 339//2
f 337//6 340//6 336//6
f 453//2 449//2 452//2
f 409//4 410//4 418//4
f 176//2 180//2 179//2
f 255//6 256//6 251//6
f 130//2 138//2 137//2
f 162//2 170//2 169//2
f 145//6 148//6 144//6
f 309//1 311//1 314//1
f 164//1 161//1 166//1
f 66//2 74//2 73//2
f 513//2 519//2 506//2
f 368//2 372//2 371//2
f 191//6 192//6 187//6
f 81//6 84//6 80//6
f 212//4 209//4 210//4
f 451//10 452//10 470//10
f 214//2 222//2 221//2
f 100//1 97//1 102//1
f 344//2 350//2 349//2
f 246//11 247//11 245//11
f 2//11 3//11 1//11
f 63//6 64//6 59//6
f 260//2 266//2 265//2
f 127//6 128//6 123//6
f 122//4 125//4 126//4
f 488//1 494//1 495//1
f 289//1 291//1 294//1
f 148//4 145//4 146//4
f 6//10 1//10 3//10
f 84//4 81//4 82//4
f 319//6 320//6 315//6
f 150//2 158//2 157//2
f 20//4 17//4 18//4
f 139//6 140//6 135//6
f 226//11 227//11 225//11
f 171//6 172//6 167//6
f 4//1 1//1 6//1
f 86//2 94//2 93//2
f 373//1 375//1 378//1
f 184//1 181//1 186//1
f 11//6 12//6 7//6
f 116//4 113//4 114//4
f 440//1 438//1 437//1
f 194//2 202//2 201//2
f 6//4 9//4 10//4
f 107//6 108//6 103//6
f 450//4 451//4 469//4
f 209//6 212//6 208//6
f 17//6 20//6 16//6
f 196//1 193//1 198//1
f 24//1 21//1 26//1
f 214//11 215//11 213//11
f 118//11 119//11 117//11
f 517//1 504//1 507//1
f 237//1 239//1 242//1
f 16//11 14//11 15//11
f 134//4 137//4 138//4
f 118//2 126//2 125//2
f 22//2 30//2 29//2
f 526//1 535//1 537//1
f 26//10 21//10 23//10
f 132//1 129//1 134//1
f 54//2 62//2 61//2
f 260//11 258//11 259//11
f 58//10 53//10 55//10
f 26//4 29//4 30//4
f 31//6 32//6 27//6
f 269//1 271//1 274//1
f 13//1 15//1 18//1
f 144//2 148//2 147//2
f 68//1 65//1 70//1
f 286//4 281//4 282//4
f 38//10 33//10 35//10
f 152//1 149//1 154//1
f 36//1 33//1 38//1
f 304//11 302//11 303//11
f 34//11 35//11 33//11
f 159//6 160//6 155//6
f 75//6 76//6 71//6
f 314//10 311//10 310//10
f 70//4 73//4 74//4
f 144//11 142//11 143//11
f 56//1 53//1 58//1
f 330//4 325//4 326//4
f 18//10 15//10 14//10
f 180//4 177//4 178//4
f 49//6 52//6 48//6
f 344//11 342//11 343//11
f 48//11 46//11 47//11
f 177//6 180//6 176//6
f 43//6 44//6 39//6
f 358//10 355//10 354//10
f 38//4 41//4 42//4
f 182//2 190//2 189//2
f 88//1 85//1 90//1
f 370//10 367//10 366//10
f 86//11 87//11 85//11
f 166//4 169//4 170//4
f 52//4 49//4 50//4
f 394//10 393//10 391//10
f 22//11 23//11 21//11
f 203//6 204//6 199//6
f 95//6 96//6 91//6
f 428//6 430//6 434//6
f 50//10 47//10 46//10
f 208//2 212//2 211//2
f 48//2 52//2 51//2
f 453//4 455//4 458//4
f 45//1 47//1 50//1
f 216//1 213//1 218//1
f 449//6 450//6 475//6
f 473//11 472//11 478//11
f 102//10 97//10 99//10
f 198//10 193//10 195//10
f 331//6 332//6 327//6
f 16//2 20//2 19//2
f 230//10 225//10 227//10
f 66//11 67//11 65//11
f 477//1 478//1 468//1
f 487//2 491//2 496//2
f 240//11 238//11 239//11
f 54//11 55//11 53//11
f 506//4 502//4 501//4
f 34//2 42//2 41//2
f 242//10 239//10 238//10
f 114//10 111//10 110//10
f 502//4 506//4 519//4
f 112//2 116//2 115//2
f 109//1 111//1 114//1
f 246//2 254//2 253//2
f 531//2 534//2 540//2
f 250//10 245//10 247//10
f 122//10 117//10 119//10
f 250//4 253//4 254//4
f 262//10 259//10 258//10
f 530//12 527//12 537//12
f 58//4 61//4 62//4
f 134//10 129//10 131//10
f 257//1 259//1 262//1
f 266//4 261//4 262//4
f 130//11 131//11 129//11
f 272//11 270//11 271//11
f 267//6 268//6 263//6
f 520//11 507//11 505//11
f 393//2 397//2 390//2
f 401//10 407//10 395//10
f 272//2 276//2 275//2
f 166//10 161//10 163//10
f 77//1 79//1 82//1
f 282//10 279//10 278//10
f 277//1 279//1 282//1
f 274//10 271//10 270//10
f 70//10 65//10 67//10
f 146//10 143//10 142//10
f 287//6 288//6 283//6
f 294//10 291//10 290//10
f 141//1 143//1 146//1
f 298//4 293//4 294//4
f 292//2 298//2 297//2
f 292//11 290//11 291//11
f 399//1 394//1 385//1
f 154//10 149//10 151//10
f 308//4 305//4 306//4
f 306//10 303//10 302//10
f 150//11 151//11 149//11
f 312//11 310//11 311//11
f 305//6 308//6 304//6
f 301//1 303//1 306//1
f 80//11 78//11 79//11
f 162//11 163//11 161//11
f 312//2 318//2 317//2
f 324//11 322//11 323//11
f 154//4 157//4 158//4
f 326//10 323//10 322//10
f 321//1 323//1 326//1
f 318//4 313//4 314//4
f 333//1 335//1 338//1
f 304//2 308//2 307//2
f 120//1 117//1 122//1
f 194//11 195//11 193//11
f 90//4 93//4 94//4
f 338//10 335//10 334//10
f 223//6 224//6 219//6
f 336//11 334//11 335//11
f 82//10 79//10 78//10
f 173//1 175//1 178//1
f 341//1 343//1 346//1
f 350//4 345//4 346//4
f 176//11 174//11 175//11
f 356//11 354//11 355//11
f 351//6 352//6 347//6
f 346//10 343//10 342//10
f 340//4 337//4 338//4
f 182//11 183//11 181//11
f 356//2 362//2 361//2
f 368//11 366//11 367//11
f 178//10 175//10 174//10
f 365//1 367//1 370//1
f 372//4 369//4 370//4
f 362//4 357//4 358//4
f 90//10 85//10 87//10
f 186//4 189//4 190//4
f 369//6 372//6 368//6
f 378//10 375//10 374//10
f 186//10 181//10 183//10
f 382//4 377//4 378//4
f 376//2 382//2 381//2
f 376//11 374//11 375//11
f 363//6 364//6 359//6
f 484//11 482//11 483//11
f 402//1 401//1 398//1
f 218//4 221//4 222//4
f 112//11 110//11 111//11
f 411//10 409//10 417//10
f 421//11 422//11 425//11
f 412//11 411//11 416//11
f 98//11 99//11 97//11
f 208//11 206//11 207//11
f 442//10 440//10 444//10
f 430//2 431//2 441//2
f 198//4 201//4 202//4
f 427//1 428//1 436//1
f 431//10 427//10 439//10
f 435//2 442//2 443//2
f 420//4 419//4 424//4
f 210//10 207//10 206//10
f 462//11 461//11 466//11
f 454//6 453//6 457//6
f 205//1 207//1 210//1
f 456//11 454//11 460//11
f 455//10 456//10 459//10
f 464//10 462//10 465//10
f 102//4 105//4 106//4
f 218//10 213//10 215//10
f 476//10 473//10 477//10
f 452//11 449//11 471//11
f 474//4 476//4 479//4
f 463//4 464//4 467//4
f 422//10 420//10 423//10
f 406//6 402//6 400//6
f 490//11 495//11 496//11
f 481//1 483//1 486//1
f 489//4 485//4 486//4
f 484//2 489//2 492//2
f 280//11 278//11 279//11
f 248//1 245//1 250//1
f 80//2 84//2 83//2
f 226//2 234//2 233//2
f 533//13 539//13 540//13
f 493//4 494//4 488//4
f 228//1 225//1 230//1
f 497//1 499//1 501//1
f 230//4 233//4 234//4
f 500//11 498//11 499//11
f 98//2 106//2 105//2
f 244//4 241//4 242//4
f 511//2 509//2 503//2
f 509//4 510//4 504//4
f 235//6 236//6 231//6
f 514//1 497//1 502//1
f 513//11 500//11 497//11
f 518//2 516//2 525//2
f 113//6 116//6 112//6
f 241//6 244//6 240//6
f 505//2 503//2 516//2
f 503//4 504//4 517//4
f 240//2 244//2 243//2
f 521//14 523//14 535//14
f 524//11 522//11 523//11
f 507//11 512//11 511//11
f 407//2 406//2 396//2
f 504//1 510//1 512//1
f 273//6 276//6 272//6
f 533//4 530//4 538//4
f 532//11 520//11 518//11
f 2//2 10//2 9//2
f 516//4 517//4 528//4
