# Blender 5.2.1 LTS
# www.blender.org
mtllib temple_floor.mtl
o temple_floor
v -5.050000 0.620000 5.050000
v -5.050000 0.500000 -5.050000
v -5.050000 0.500000 5.050000
v -5.050000 0.620000 -5.050000
v 5.050000 0.620000 5.050000
v 5.050000 0.500000 5.050000
v 5.050000 0.500000 -5.050000
v 5.050000 0.620000 -5.050000
v -10.500000 0.250000 10.500000
v -10.500000 0.000000 -10.500000
v -10.500000 0.000000 10.500000
v -10.500000 0.250000 -10.500000
v 10.500000 0.250000 10.500000
v 10.500000 0.000000 10.500000
v -10.450000 0.300000 10.450000
v -10.450000 0.300000 -10.450000
v 10.500000 0.000000 -10.500000
v 10.500000 0.250000 -10.500000
v 10.450000 0.300000 10.450000
v 10.450000 0.300000 -10.450000
v -9.500000 0.460000 9.500000
v -9.500000 0.300000 -9.500000
v -9.500000 0.300000 9.500000
v -9.500000 0.460000 -9.500000
v 9.500000 0.300000 9.500000
v 9.500000 0.460000 9.500000
v -9.460000 0.500000 -9.460000
v -9.460000 0.500000 9.460000
v 9.500000 0.300000 -9.500000
v 9.500000 0.460000 -9.500000
v 9.460000 0.500000 9.460000
v 9.460000 0.500000 -9.460000
vn -0.0000 -0.0000 1.0000
vn -0.0000 -0.0000 -1.0000
vn -0.0000 -1.0000 -0.0000
vn -0.0000 1.0000 -0.0000
vn -1.0000 -0.0000 -0.0000
vn -0.7071 0.7071 -0.0000
vn -0.0000 0.7071 0.7071
vn 1.0000 -0.0000 -0.0000
vn -0.0000 0.7071 -0.7071
vn 0.7071 0.7071 -0.0000
s 1
usemtl paint
f 1//1 6//1 5//1
f 4//2 7//2 2//2
f 14//3 10//3 17//3
f 12//2 17//2 10//2
f 4//4 5//4 8//4
f 27//4 31//4 32//4
f 25//3 22//3 29//3
f 4//5 3//5 1//5
f 12//6 9//6 15//6
f 16//6 12//6 15//6
f 24//5 23//5 21//5
f 9//1 14//1 13//1
f 21//1 25//1 26//1
f 13//7 15//7 9//7
f 19//7 15//7 13//7
f 8//8 6//8 7//8
f 18//9 12//9 16//9
f 20//9 18//9 16//9
f 18//10 19//10 13//10
f 20//10 19//10 18//10
f 18//8 14//8 17//8
f 6//3 2//3 7//3
f 27//6 21//6 28//6
f 27//6 24//6 21//6
f 16//4 19//4 20//4
f 12//5 11//5 9//5
f 29//2 24//2 30//2
f 31//7 28//7 21//7
f 31//7 21//7 26//7
f 30//9 24//9 27//9
f 32//9 30//9 27//9
f 30//10 31//10 26//10
f 32//10 31//10 30//10
f 30//8 25//8 29//8
f 1//1 3//1 6//1
f 4//2 8//2 7//2
f 14//3 11//3 10//3
f 12//2 18//2 17//2
f 4//4 1//4 5//4
f 27//4 28//4 31//4
f 25//3 23//3 22//3
f 4//5 2//5 3//5
f 24//5 22//5 23//5
f 9//1 11//1 14//1
f 21//1 23//1 25//1
f 8//8 5//8 6//8
f 18//8 13//8 14//8
f 6//3 3//3 2//3
f 16//4 15//4 19//4
f 12//5 10//5 11//5
f 29//2 22//2 24//2
f 30//8 26//8 25//8
