# Blender 5.2.1 LTS
# www.blender.org
mtllib villa_floor.mtl
o villa_floor
v -12.000000 0.000000 8.000000
v -12.000000 0.100000 -8.000000
v -12.000000 0.000000 -8.000000
v -12.000000 0.100000 8.000000
v 12.000000 0.000000 8.000000
v 12.000000 0.000000 -8.000000
v 12.000000 0.100000 -8.000000
v 12.000000 0.100000 8.000000
v -9.700000 0.300000 5.700000
v -9.700000 0.200000 -5.700000
v -9.700000 0.200000 5.700000
v -9.700000 0.300000 -5.700000
v 9.700000 0.300000 5.700000
v 9.700000 0.200000 5.700000
v 9.700000 0.200000 -5.700000
v 9.700000 0.300000 -5.700000
vn -0.0000 -1.0000 -0.0000
vn 1.0000 -0.0000 -0.0000
vn -0.0000 -0.0000 -1.0000
vn -1.0000 -0.0000 -0.0000
vn -0.0000 1.0000 -0.0000
vn -0.0000 -0.0000 1.0000
s 1
usemtl paint
f 5//1 3//1 6//1
f 16//2 14//2 15//2
f 2//3 6//3 3//3
f 2//4 1//4 4//4
f 2//5 8//5 7//5
f 9//6 14//6 13//6
f 14//1 10//1 15//1
f 4//6 5//6 8//6
f 12//4 11//4 9//4
f 12//3 15//3 10//3
f 5//2 7//2 8//2
f 12//5 13//5 16//5
f 5//1 1//1 3//1
f 16//2 13//2 14//2
f 2//3 7//3 6//3
f 2//4 3//4 1//4
f 2//5 4//5 8//5
f 9//6 11//6 14//6
f 14//1 11//1 10//1
f 4//6 1//6 5//6
f 12//4 10//4 11//4
f 12//3 16//3 15//3
f 5//2 6//2 7//2
f 12//5 9//5 13//5
