# Blender 5.2.1 LTS
# www.blender.org
mtllib villa_wing_floor.mtl
o villa_wing_floor
v -6.000000 0.120000 5.000000
v -6.000000 0.000000 -5.000000
v -6.000000 0.000000 5.000000
v -6.000000 0.120000 -5.000000
v 6.000000 0.120000 5.000000
v 6.000000 0.000000 5.000000
v -5.970000 0.150000 -4.970000
v -5.970000 0.150000 4.970000
v 6.000000 0.000000 -5.000000
v 6.000000 0.120000 -5.000000
v 5.970000 0.150000 4.970000
v 5.970000 0.150000 -4.970000
v -4.700000 0.250000 3.700000
v -4.700000 0.150000 -3.700000
v -4.700000 0.150000 3.700000
v -4.700000 0.250000 -3.700000
v 4.700000 0.250000 3.700000
v 4.700000 0.150000 3.700000
v 4.700000 0.150000 -3.700000
v 4.700000 0.250000 -3.700000
v -5.200000 0.120000 -4.000000
v -5.200000 0.000000 -5.600000
v -5.200000 0.000000 -4.000000
v -5.200000 0.120000 -5.600000
v 5.200000 0.000000 -4.000000
v 5.200000 0.120000 -4.000000
v -5.170000 0.150000 -4.030000
v -5.170000 0.150000 -5.570000
v 5.200000 0.000000 -5.600000
v 5.200000 0.120000 -5.600000
v 5.170000 0.150000 -4.030000
v 5.170000 0.150000 -5.570000
vn -0.0000 1.0000 -0.0000
vn 1.0000 -0.0000 -0.0000
vn -0.7071 0.7071 -0.0000
vn -0.0000 -1.0000 -0.0000
vn -1.0000 -0.0000 -0.0000
vn -0.0000 0.7071 0.7071
vn -0.0000 -0.0000 1.0000
vn -0.0000 0.7071 -0.7071
vn 0.7071 0.7071 -0.0000
vn -0.0000 -0.0000 -1.0000
s 1
usemtl paint
f 17//1 16//1 13//1
f 20//2 18//2 19//2
f 7//3 1//3 8//3
f 7//3 4//3 1//3
f 25//4 22//4 29//4
f 16//5 15//5 13//5
f 11//1 7//1 8//1
f 11//6 8//6 1//6
f 11//6 1//6 5//6
f 1//7 6//7 5//7
f 12//8 4//8 7//8
f 12//8 10//8 4//8
f 12//9 11//9 5//9
f 12//9 5//9 10//9
f 4//5 3//5 1//5
f 6//4 2//4 9//4
f 29//10 24//10 30//10
f 24//5 23//5 21//5
f 13//7 18//7 17//7
f 10//2 6//2 9//2
f 18//4 14//4 19//4
f 30//2 25//2 29//2
f 24//3 21//3 27//3
f 28//3 24//3 27//3
f 16//10 19//10 14//10
f 21//7 25//7 26//7
f 31//6 27//6 21//6
f 31//6 21//6 26//6
f 4//10 9//10 2//10
f 32//8 24//8 28//8
f 32//8 30//8 24//8
f 30//9 31//9 26//9
f 32//9 31//9 30//9
f 31//1 28//1 27//1
f 17//1 20//1 16//1
f 20//2 17//2 18//2
f 25//4 23//4 22//4
f 16//5 14//5 15//5
f 11//1 12//1 7//1
f 1//7 3//7 6//7
f 4//5 2//5 3//5
f 6//4 3//4 2//4
f 29//10 22//10 24//10
f 24//5 22//5 23//5
f 13//7 15//7 18//7
f 10//2 5//2 6//2
f 18//4 15//4 14//4
f 30//2 26//2 25//2
f 16//10 20//10 19//10
f 21//7 23//7 25//7
f 4//10 10//10 9//10
f 31//1 32//1 28//1
