# Blender 5.2.1 LTS
# www.blender.org
mtllib villa_wing_roof.mtl
o villa_wing_roof
v -1.222656 3.812500 3.890687
v -5.550000 3.600000 4.550000
v 5.550000 3.600000 4.550000
v -3.667969 3.812500 3.890687
v -1.710352 3.918750 3.561031
v -2.115625 4.025000 3.231375
v 0.000000 4.025000 3.231375
v 0.570117 3.918750 3.561031
v 0.405273 4.343750 2.242406
v 0.000000 4.450000 1.912750
v -0.405273 4.343750 2.242406
v -0.322852 4.556250 1.583094
v 2.438477 4.131250 2.901719
v 0.892969 4.237500 2.572062
v 2.115625 4.025000 3.231375
v 0.322852 4.556250 1.583094
v -0.474023 4.981250 0.264469
v -0.796875 4.875000 0.594125
v -0.721289 4.768750 0.923781
v 0.158008 4.981250 0.264469
v 0.721289 4.768750 0.923781
v 0.796875 4.875000 0.594125
v -3.503174 4.184375 2.736891
v -2.438477 4.131250 2.901719
v -2.678906 4.237500 2.572062
v -1.270752 4.078125 3.066547
v -1.916455 4.290625 2.407234
v -2.232471 4.503125 1.747922
v -0.487695 4.131250 2.901719
v -0.892969 4.237500 2.572062
v -1.215820 4.343750 2.242406
v -1.456250 4.450000 1.912750
v -1.689844 4.662500 1.253438
v -1.614258 4.556250 1.583094
v -0.233545 4.184375 2.736891
v 2.843701 3.759375 4.055516
v 3.667969 3.812500 3.890687
v 0.762451 4.078125 3.066547
v 0.487695 4.131250 2.901719
v 0.233545 4.184375 2.736891
v -0.968555 4.556250 1.583094
v -0.563281 4.662500 1.253438
v -1.126562 4.662500 1.253438
v -1.174658 4.715625 1.088609
v -1.160986 4.928125 0.429297
v -0.790039 4.981250 0.264469
v -0.700781 5.087500 -0.065187
v -1.030518 5.034375 0.099641
v -0.529102 5.193750 -0.394844
v -0.275000 5.300000 -0.724500
v 1.215820 4.343750 2.242406
v -0.618311 5.034375 0.099641
v -0.130518 4.715625 1.088609
v -0.240430 4.768750 0.923781
v 0.000000 4.875000 0.594125
v 1.916455 4.290625 2.407234
v 1.456250 4.450000 1.912750
v 2.678906 4.237500 2.572062
v -0.432861 5.140625 -0.230016
v -0.233594 5.087500 -0.065187
v 0.226758 5.193750 -0.394844
v 0.130518 4.715625 1.088609
v 0.563281 4.662500 1.253438
v 0.968555 4.556250 1.583094
v 1.614258 4.556250 1.583094
v 3.503174 4.184375 2.736891
v 0.240430 4.768750 0.923781
v -0.158008 4.981250 0.264469
v 1.126562 4.662500 1.253438
v 2.232471 4.503125 1.747922
v 1.174658 4.715625 1.088609
v 1.689844 4.662500 1.253438
v 0.233594 5.087500 -0.065187
v 0.480908 5.034375 0.099641
v 0.790039 4.981250 0.264469
v 0.467187 5.087500 -0.065187
v 0.700781 5.087500 -0.065187
v 1.160986 4.928125 0.429297
v 1.030518 5.034375 0.099641
v 0.275000 5.300000 -0.724500
v 0.529102 5.193750 -0.394844
v 0.302393 5.246875 -0.559672
v -3.639661 3.998437 3.313789
v -1.634815 4.184375 2.736891
v -2.115674 4.396875 2.077578
v -1.943176 4.742188 1.006195
v -1.683008 4.768750 0.923781
v -1.209033 4.821875 0.758953
v 3.639661 3.998437 3.313789
v 0.728125 4.450000 1.912750
v -0.408020 5.220313 -0.477258
v -0.476624 5.060937 0.017227
v 2.115674 4.396875 2.077578
v 1.209033 4.821875 0.758953
v 1.683008 4.768750 0.923781
v 1.943176 4.742188 1.006195
v -4.546536 3.799219 3.931895
v -2.116800 4.622656 1.377059
v 2.116800 4.622656 1.377059
v 0.275000 5.300000 -0.725500
v 5.550000 3.600000 -6.000000
v 1.222656 3.812500 -5.340687
v -5.550000 3.600000 -6.000000
v 3.667969 3.812500 -5.340687
v 1.710352 3.918750 -5.011031
v 2.115625 4.025000 -4.681375
v -0.000000 4.025000 -4.681375
v -0.570117 3.918750 -5.011031
v -0.405273 4.343750 -3.692406
v -0.000000 4.450000 -3.362750
v 0.405273 4.343750 -3.692406
v 0.322852 4.556250 -3.033094
v -2.438477 4.131250 -4.351719
v -0.892969 4.237500 -4.022062
v -2.115625 4.025000 -4.681375
v -0.322852 4.556250 -3.033094
v 0.474023 4.981250 -1.714469
v 0.796875 4.875000 -2.044125
v 0.721289 4.768750 -2.373781
v -0.158008 4.981250 -1.714469
v -0.721289 4.768750 -2.373781
v -0.796875 4.875000 -2.044125
v 3.503174 4.184375 -4.186891
v 2.438477 4.131250 -4.351719
v 2.678906 4.237500 -4.022062
v 1.270752 4.078125 -4.516547
v 1.916455 4.290625 -3.857234
v 2.232471 4.503125 -3.197922
v 0.487695 4.131250 -4.351719
v 0.892969 4.237500 -4.022062
v 1.215820 4.343750 -3.692406
v 1.456250 4.450000 -3.362750
v 1.689844 4.662500 -2.703438
v 1.614258 4.556250 -3.033094
v 0.233545 4.184375 -4.186891
v -2.843701 3.759375 -5.505516
v -3.667969 3.812500 -5.340687
v -0.762451 4.078125 -4.516547
v -0.487695 4.131250 -4.351719
v -0.233545 4.184375 -4.186891
v 0.968555 4.556250 -3.033094
v 0.563281 4.662500 -2.703438
v 1.126562 4.662500 -2.703438
v 1.174658 4.715625 -2.538609
v 1.160986 4.928125 -1.879297
v 0.790039 4.981250 -1.714469
v 0.700781 5.087500 -1.384812
v 1.030518 5.034375 -1.549641
v 0.529102 5.193750 -1.055156
v -1.215820 4.343750 -3.692406
v 0.618311 5.034375 -1.549641
v 0.130518 4.715625 -2.538609
v 0.240430 4.768750 -2.373781
v -0.000000 4.875000 -2.044125
v -1.916455 4.290625 -3.857234
v -1.456250 4.450000 -3.362750
v -2.678906 4.237500 -4.022062
v 0.432861 5.140625 -1.219984
v 0.233594 5.087500 -1.384812
v -0.226758 5.193750 -1.055156
v -0.130518 4.715625 -2.538609
v -0.563281 4.662500 -2.703438
v -0.968555 4.556250 -3.033094
v -1.614258 4.556250 -3.033094
v -3.503174 4.184375 -4.186891
v -0.240430 4.768750 -2.373781
v 0.158008 4.981250 -1.714469
v -1.126562 4.662500 -2.703438
v -2.232471 4.503125 -3.197922
v -1.174658 4.715625 -2.538609
v -1.689844 4.662500 -2.703438
v -0.233594 5.087500 -1.384812
v -0.480908 5.034375 -1.549641
v -0.790039 4.981250 -1.714469
v -0.467187 5.087500 -1.384812
v -0.700781 5.087500 -1.384812
v -1.160986 4.928125 -1.879297
v -1.030518 5.034375 -1.549641
v -0.275000 5.300000 -0.725500
v -0.529102 5.193750 -1.055156
v -0.302393 5.246875 -0.890328
v 3.639661 3.998437 -4.763789
v 1.634815 4.184375 -4.186891
v 2.115674 4.396875 -3.527578
v 1.943176 4.742188 -2.456195
v 1.683008 4.768750 -2.373781
v 1.209033 4.821875 -2.208953
v -3.639661 3.998437 -4.763789
v -0.728125 4.450000 -3.362750
v 0.408020 5.220313 -0.972742
v 0.476624 5.060937 -1.467227
v -2.115674 4.396875 -3.527578
v -1.209033 4.821875 -2.208953
v -1.683008 4.768750 -2.373781
v -1.943176 4.742188 -2.456195
v 4.546536 3.799219 -5.381895
v 2.116800 4.622656 -2.827059
v -2.116800 4.622656 -2.827059
v -0.500000 5.390000 -0.781000
v -0.500000 5.306000 -0.865000
v -0.500000 5.250000 -0.865000
v -0.500000 5.390000 -0.669000
v -0.500000 5.250000 -0.585000
v -0.500000 5.306000 -0.585000
v 0.500000 5.306000 -0.585000
v 0.500000 5.250000 -0.585000
v 0.500000 5.390000 -0.669000
v 0.500000 5.250000 -0.865000
v 0.500000 5.390000 -0.781000
v 0.500000 5.306000 -0.865000
vn -0.0000 0.9518 0.3068
vn -0.1571 0.9750 0.1571
vn 0.1571 0.9750 0.1571
vn -0.1174 0.9861 0.1174
vn 0.1174 0.9861 0.1174
vn 0.1174 0.9861 -0.1174
vn 0.1571 0.9750 -0.1571
vn -0.0000 0.9518 -0.3068
vn -0.1571 0.9750 -0.1571
vn -0.1175 0.9861 -0.1174
vn -0.0000 -1.0000 -0.0000
vn -0.0000 -0.0000 1.0000
vn -1.0000 -0.0000 -0.0000
vn -0.0000 0.7071 0.7071
vn -0.0000 1.0000 -0.0000
vn -0.0000 -0.0000 -1.0000
vn 1.0000 -0.0000 -0.0000
vn -0.0000 0.7071 -0.7071
s 1
usemtl paint
f 1//1 2//2 3//3
f 1//1 4//1 2//2
f 5//1 4//1 1//1
f 5//1 6//1 4//1
f 7//1 1//1 8//1
f 7//1 5//1 1//1
f 9//1 10//1 11//1
f 12//1 11//1 10//1
f 13//1 14//1 15//1
f 16//1 12//1 10//1
f 17//1 18//1 19//1
f 20//1 21//1 22//1
f 23//1 24//1 25//1
f 26//1 6//1 5//1
f 26//1 5//1 7//1
f 27//1 25//1 24//1
f 28//1 23//1 25//1
f 29//1 30//1 26//1
f 29//1 26//1 7//1
f 31//1 32//1 27//1
f 31//1 30//1 11//1
f 33//1 28//1 34//1
f 35//1 30//1 29//1
f 35//1 11//1 30//1
f 35//1 29//1 7//1
f 36//1 1//1 3//3
f 36//1 3//3 37//1
f 36//1 8//1 1//1
f 36//1 15//1 8//1
f 36//1 37//1 15//1
f 38//1 8//1 15//1
f 38//1 15//1 14//1
f 38//1 7//1 8//1
f 39//1 38//1 14//1
f 39//1 7//1 38//1
f 40//1 7//1 39//1
f 40//1 35//1 7//1
f 40//1 11//1 35//1
f 40//1 39//1 14//1
f 40//1 9//1 11//1
f 40//1 14//1 9//1
f 41//1 32//1 31//1
f 41//1 31//1 11//1
f 41//1 34//1 32//1
f 41//1 11//1 12//1
f 41//1 12//1 42//1
f 43//1 34//1 41//1
f 43//1 41//1 42//1
f 43//1 42//1 19//1
f 44//1 33//1 34//1
f 44//1 34//1 43//1
f 44//1 43//1 19//1
f 44//1 19//1 18//1
f 45//1 46//1 47//1
f 48//1 47//1 49//1
f 48//1 45//1 47//1
f 48//1 49//1 50//4
f 51//1 9//1 14//1
f 52//1 18//1 17//1
f 52//1 47//1 46//1
f 52//1 46//1 18//1
f 53//1 42//1 12//1
f 54//1 17//1 19//1
f 54//1 53//1 55//1
f 54//1 19//1 42//1
f 54//1 42//1 53//1
f 56//1 57//1 51//1
f 56//1 51//1 14//1
f 56//1 14//1 13//1
f 56//1 13//1 58//1
f 59//1 60//1 61//1
f 59//1 47//1 52//1
f 62//1 12//1 16//1
f 62//1 53//1 12//1
f 62//1 55//1 53//1
f 62//1 16//1 63//1
f 64//1 57//1 65//1
f 64//1 63//1 16//1
f 66//1 58//1 13//1
f 67//1 55//1 62//1
f 67//1 63//1 21//1
f 67//1 20//1 55//1
f 67//1 21//1 20//1
f 67//1 62//1 63//1
f 68//1 55//1 20//1
f 68//1 60//1 17//1
f 68//1 20//1 60//1
f 68//1 17//1 54//1
f 68//1 54//1 55//1
f 69//1 63//1 64//1
f 69//1 21//1 63//1
f 69//1 64//1 65//1
f 70//1 58//1 66//1
f 71//1 21//1 69//1
f 71//1 22//1 21//1
f 71//1 69//1 65//1
f 72//1 65//1 70//1
f 72//1 71//1 65//1
f 73//1 61//1 60//1
f 73//1 60//1 20//1
f 74//1 20//1 22//1
f 74//1 22//1 75//1
f 74//1 61//1 73//1
f 74//1 73//1 20//1
f 76//1 75//1 77//1
f 76//1 74//1 75//1
f 76//1 61//1 74//1
f 78//1 77//1 75//1
f 79//1 80//5 81//1
f 79//1 81//1 77//1
f 79//1 77//1 78//1
f 82//1 80//5 50//4
f 82//1 50//4 61//1
f 82//1 81//1 80//5
f 82//1 77//1 81//1
f 82//1 76//1 77//1
f 82//1 61//1 76//1
f 83//1 4//1 6//1
f 83//1 24//1 23//1
f 83//1 6//1 24//1
f 84//1 26//1 30//1
f 84//1 27//1 24//1
f 84//1 6//1 26//1
f 84//1 24//1 6//1
f 84//1 31//1 27//1
f 84//1 30//1 31//1
f 85//1 25//1 27//1
f 85//1 28//1 25//1
f 85//1 27//1 32//1
f 85//1 34//1 28//1
f 85//1 32//1 34//1
f 86//1 50//4 2//2
f 86//1 2//2 23//1
f 86//1 87//1 45//1
f 86//1 45//1 48//1
f 86//1 48//1 50//4
f 88//1 33//1 44//1
f 88//1 44//1 18//1
f 88//1 45//1 87//1
f 88//1 87//1 33//1
f 88//1 46//1 45//1
f 88//1 18//1 46//1
f 89//1 66//1 13//1
f 89//1 37//1 3//3
f 89//1 3//3 66//1
f 89//1 15//1 37//1
f 89//1 13//1 15//1
f 90//1 64//1 16//1
f 90//1 51//1 57//1
f 90//1 16//1 10//1
f 90//1 10//1 9//1
f 90//1 9//1 51//1
f 90//1 57//1 64//1
f 91//1 61//1 50//4
f 91//1 49//1 47//1
f 91//1 47//1 59//1
f 91//1 59//1 61//1
f 91//1 50//4 49//1
f 92//1 52//1 17//1
f 92//1 17//1 60//1
f 92//1 60//1 59//1
f 92//1 59//1 52//1
f 93//1 70//1 65//1
f 93//1 65//1 57//1
f 93//1 58//1 70//1
f 93//1 57//1 56//1
f 93//1 56//1 58//1
f 94//1 22//1 71//1
f 94//1 75//1 22//1
f 94//1 72//1 95//1
f 94//1 71//1 72//1
f 94//1 78//1 75//1
f 94//1 95//1 78//1
f 96//1 3//3 80//5
f 96//1 66//1 3//3
f 96//1 79//1 78//1
f 96//1 80//5 79//1
f 96//1 78//1 95//1
f 97//1 2//2 4//1
f 97//1 83//1 23//1
f 97//1 4//1 83//1
f 97//1 23//1 2//2
f 98//1 86//1 23//1
f 98//1 23//1 28//1
f 98//1 87//1 86//1
f 98//1 28//1 33//1
f 98//1 33//1 87//1
f 99//1 70//1 66//1
f 99//1 66//1 96//1
f 99//1 72//1 70//1
f 99//1 95//1 72//1
f 99//1 96//1 95//1
f 100//6 3//3 101//7
f 100//6 80//5 3//3
f 102//8 101//7 103//9
f 102//8 104//8 101//7
f 105//8 104//8 102//8
f 105//8 106//8 104//8
f 107//8 102//8 108//8
f 107//8 105//8 102//8
f 109//8 110//8 111//8
f 112//8 111//8 110//8
f 113//8 114//8 115//8
f 116//8 112//8 110//8
f 117//8 118//8 119//8
f 120//8 121//8 122//8
f 123//8 124//8 125//8
f 126//8 106//8 105//8
f 126//8 105//8 107//8
f 127//8 125//8 124//8
f 128//8 123//8 125//8
f 129//8 130//8 126//8
f 129//8 126//8 107//8
f 131//8 132//8 127//8
f 131//8 130//8 111//8
f 133//8 128//8 134//8
f 135//8 130//8 129//8
f 135//8 111//8 130//8
f 135//8 129//8 107//8
f 136//8 102//8 103//9
f 136//8 103//9 137//8
f 136//8 108//8 102//8
f 136//8 115//8 108//8
f 136//8 137//8 115//8
f 138//8 108//8 115//8
f 138//8 115//8 114//8
f 138//8 107//8 108//8
f 139//8 138//8 114//8
f 139//8 107//8 138//8
f 140//8 107//8 139//8
f 140//8 135//8 107//8
f 140//8 111//8 135//8
f 140//8 139//8 114//8
f 140//8 109//8 111//8
f 140//8 114//8 109//8
f 141//8 132//8 131//8
f 141//8 131//8 111//8
f 141//8 134//8 132//8
f 141//8 111//8 112//8
f 141//8 112//8 142//8
f 143//8 134//8 141//8
f 143//8 141//8 142//8
f 143//8 142//8 119//8
f 144//8 133//8 134//8
f 144//8 134//8 143//8
f 144//8 143//8 119//8
f 144//8 119//8 118//8
f 145//8 146//8 147//8
f 148//8 147//8 149//8
f 148//8 145//8 147//8
f 148//8 149//8 100//6
f 150//8 109//8 114//8
f 151//8 118//8 117//8
f 151//8 147//8 146//8
f 151//8 146//8 118//8
f 152//8 142//8 112//8
f 153//8 117//8 119//8
f 153//8 152//8 154//8
f 153//8 119//8 142//8
f 153//8 142//8 152//8
f 155//8 156//8 150//8
f 155//8 150//8 114//8
f 155//8 114//8 113//8
f 155//8 113//8 157//8
f 158//8 159//8 160//8
f 158//8 147//8 151//8
f 161//8 112//8 116//8
f 161//8 152//8 112//8
f 161//8 154//8 152//8
f 161//8 116//8 162//8
f 163//8 156//8 164//8
f 163//8 162//8 116//8
f 165//8 157//8 113//8
f 166//8 154//8 161//8
f 166//8 162//8 121//8
f 166//8 120//8 154//8
f 166//8 121//8 120//8
f 166//8 161//8 162//8
f 167//8 154//8 120//8
f 167//8 159//8 117//8
f 167//8 120//8 159//8
f 167//8 117//8 153//8
f 167//8 153//8 154//8
f 168//8 162//8 163//8
f 168//8 121//8 162//8
f 168//8 163//8 164//8
f 169//8 157//8 165//8
f 170//8 121//8 168//8
f 170//8 122//8 121//8
f 170//8 168//8 164//8
f 171//8 164//8 169//8
f 171//8 170//8 164//8
f 172//8 160//8 159//8
f 172//8 159//8 120//8
f 173//8 120//8 122//8
f 173//8 122//8 174//8
f 173//8 160//8 172//8
f 173//8 172//8 120//8
f 175//8 174//8 176//8
f 175//8 173//8 174//8
f 175//8 160//8 173//8
f 177//8 176//8 174//8
f 178//8 179//10 180//8
f 178//8 180//8 176//8
f 178//8 176//8 177//8
f 181//8 179//10 100//6
f 181//8 100//6 160//8
f 181//8 180//8 179//10
f 181//8 176//8 180//8
f 181//8 175//8 176//8
f 181//8 160//8 175//8
f 182//8 104//8 106//8
f 182//8 124//8 123//8
f 182//8 106//8 124//8
f 183//8 126//8 130//8
f 183//8 127//8 124//8
f 183//8 106//8 126//8
f 183//8 124//8 106//8
f 183//8 131//8 127//8
f 183//8 130//8 131//8
f 184//8 125//8 127//8
f 184//8 128//8 125//8
f 184//8 127//8 132//8
f 184//8 134//8 128//8
f 184//8 132//8 134//8
f 185//8 100//6 101//7
f 185//8 101//7 123//8
f 185//8 186//8 145//8
f 185//8 145//8 148//8
f 185//8 148//8 100//6
f 187//8 133//8 144//8
f 187//8 144//8 118//8
f 187//8 145//8 186//8
f 187//8 186//8 133//8
f 187//8 146//8 145//8
f 187//8 118//8 146//8
f 188//8 165//8 113//8
f 188//8 137//8 103//9
f 188//8 103//9 165//8
f 188//8 115//8 137//8
f 188//8 113//8 115//8
f 189//8 163//8 116//8
f 189//8 150//8 156//8
f 189//8 116//8 110//8
f 189//8 110//8 109//8
f 189//8 109//8 150//8
f 189//8 156//8 163//8
f 190//8 160//8 100//6
f 190//8 149//8 147//8
f 190//8 147//8 158//8
f 190//8 158//8 160//8
f 190//8 100//6 149//8
f 191//8 151//8 117//8
f 191//8 117//8 159//8
f 191//8 159//8 158//8
f 191//8 158//8 151//8
f 192//8 169//8 164//8
f 192//8 164//8 156//8
f 192//8 157//8 169//8
f 192//8 156//8 155//8
f 192//8 155//8 157//8
f 193//8 122//8 170//8
f 193//8 174//8 122//8
f 193//8 171//8 194//8
f 193//8 170//8 171//8
f 193//8 177//8 174//8
f 193//8 194//8 177//8
f 195//8 103//9 179//10
f 195//8 165//8 103//9
f 195//8 178//8 177//8
f 195//8 179//10 178//8
f 195//8 177//8 194//8
f 196//8 101//7 104//8
f 196//8 182//8 123//8
f 196//8 104//8 182//8
f 196//8 123//8 101//7
f 197//8 185//8 123//8
f 197//8 123//8 128//8
f 197//8 186//8 185//8
f 197//8 128//8 133//8
f 197//8 133//8 186//8
f 198//8 169//8 165//8
f 198//8 165//8 195//8
f 198//8 171//8 169//8
f 198//8 194//8 171//8
f 198//8 195//8 194//8
f 50//4 103//9 2//2
f 50//4 179//10 103//9
f 206//11 201//11 208//11
f 204//12 206//12 205//12
f 199//13 200//13 201//13
f 202//13 201//13 203//13
f 202//13 199//13 201//13
f 204//13 202//13 203//13
f 205//14 202//14 204//14
f 207//15 199//15 202//15
f 100//6 50//4 80//5
f 200//16 208//16 201//16
f 2//11 101//11 3//11
f 209//17 208//17 210//17
f 207//17 206//17 208//17
f 207//17 208//17 209//17
f 205//17 206//17 207//17
f 210//18 199//18 209//18
f 206//11 203//11 201//11
f 204//12 203//12 206//12
f 205//14 207//14 202//14
f 207//15 209//15 199//15
f 100//6 179//10 50//4
f 200//16 210//16 208//16
f 2//11 103//11 101//11
f 210//18 200//18 199//18
