# Blender 5.2.1 LTS
# www.blender.org
mtllib villa_wall.mtl
o villa_wall
v -10.300000 0.150000 6.300000
v -10.300000 0.000000 -6.300000
v -10.300000 0.000000 6.300000
v -10.300000 0.150000 -6.300000
v 10.300000 0.150000 6.300000
v 10.300000 0.000000 6.300000
v -10.250000 0.200000 -6.250000
v -10.250000 0.200000 6.250000
v 10.300000 0.000000 -6.300000
v 10.300000 0.150000 -6.300000
v 10.250000 0.200000 6.250000
v 10.250000 0.200000 -6.250000
v -1.500000 0.100000 -6.300000
v -1.500000 0.150000 -7.100000
v -1.500000 0.100000 -7.100000
v -1.500000 0.150000 -6.300000
v 1.500000 0.100000 -6.300000
v 1.500000 0.100000 -7.100000
v 1.500000 0.150000 -7.100000
v 1.500000 0.150000 -6.300000
v -1.500000 0.200000 -6.300000
v -1.500000 0.100000 -6.700000
v -1.500000 0.200000 -6.700000
v 1.500000 0.200000 -6.300000
v 1.500000 0.100000 -6.700000
v 1.500000 0.200000 -6.700000
v -10.000000 2.600000 -0.550000
v -10.000000 5.600000 -6.000000
v -10.000000 0.200000 -6.000000
v -10.000000 1.300000 -0.550000
v -10.000000 0.200000 6.000000
v -10.000000 2.600000 0.550000
v -10.000000 1.300000 0.550000
v -10.000000 5.600000 6.000000
v -9.930000 2.600000 0.550000
v -9.930000 2.600000 -0.550000
v -9.930000 2.500000 0.450000
v -9.930000 1.300000 0.450000
v -9.930000 1.300000 0.550000
v -9.930000 2.500000 -0.450000
v -9.930000 1.300000 -0.550000
v -9.930000 1.300000 -0.450000
v -9.700000 2.500000 -0.450000
v -9.700000 1.300000 -0.450000
v -9.700000 0.200000 -5.700000
v -9.700000 5.600000 -5.700000
v -9.700000 2.500000 0.450000
v -9.700000 0.200000 5.700000
v -9.700000 1.300000 0.450000
v -9.700000 5.600000 5.700000
v -6.600000 1.300000 -5.700000
v -7.800000 1.300000 -5.700000
v -7.800000 3.200000 -5.700000
v -5.400000 1.300000 -5.700000
v -6.600000 3.200000 -5.700000
v -5.400000 3.200000 -5.700000
v -4.200000 3.200000 -5.700000
v -0.800000 0.200000 -5.700000
v -4.200000 1.300000 -5.700000
v -3.000000 1.300000 -5.700000
v -1.800000 1.300000 -5.700000
v -3.000000 3.200000 -5.700000
v -1.800000 3.200000 -5.700000
v -0.800000 3.000000 -5.700000
v 0.800000 3.000000 -5.700000
v 0.800000 0.200000 -5.700000
v 1.800000 1.300000 -5.700000
v 3.000000 1.300000 -5.700000
v 1.800000 3.200000 -5.700000
v 4.200000 1.300000 -5.700000
v 5.400000 1.300000 -5.700000
v 4.200000 3.200000 -5.700000
v 3.000000 3.200000 -5.700000
v 5.400000 3.200000 -5.700000
v 6.600000 1.300000 -5.700000
v 6.600000 3.200000 -5.700000
v 9.700000 0.200000 -5.700000
v 7.800000 1.300000 -5.700000
v 7.800000 3.200000 -5.700000
v 9.700000 5.600000 -5.700000
v 7.800000 1.300000 -5.930000
v 7.900000 1.300000 -5.930000
v 7.900000 1.300000 -6.000000
v 6.600000 1.300000 -5.930000
v 6.500000 1.300000 -6.000000
v 6.500000 1.300000 -5.930000
v 6.600000 3.200000 -5.930000
v 6.500000 3.300000 -5.930000
v 7.800000 3.200000 -5.930000
v 7.900000 3.300000 -5.930000
v 7.900000 3.300000 -6.000000
v 6.500000 3.300000 -6.000000
v 5.400000 1.300000 -5.930000
v 5.400000 3.200000 -5.930000
v 4.200000 3.200000 -5.930000
v 4.200000 1.300000 -5.930000
v 4.100000 1.300000 -5.930000
v 4.100000 3.300000 -5.930000
v 5.500000 1.300000 -5.930000
v 5.500000 3.300000 -5.930000
v 4.100000 3.300000 -6.000000
v 4.100000 1.300000 -6.000000
v 5.500000 3.300000 -6.000000
v 5.500000 1.300000 -6.000000
v 3.000000 1.300000 -5.930000
v 3.000000 3.200000 -5.930000
v 1.800000 3.200000 -5.930000
v 1.800000 1.300000 -5.930000
v 1.700000 1.300000 -5.930000
v 1.700000 3.300000 -5.930000
v 3.100000 1.300000 -5.930000
v 3.100000 3.300000 -5.930000
v 1.700000 3.300000 -6.000000
v 1.700000 1.300000 -6.000000
v 3.100000 3.300000 -6.000000
v 3.100000 1.300000 -6.000000
v -1.800000 1.300000 -5.930000
v -1.800000 3.200000 -5.930000
v -3.000000 3.200000 -5.930000
v -3.000000 1.300000 -5.930000
v -3.100000 1.300000 -5.930000
v -3.100000 3.300000 -5.930000
v -1.700000 1.300000 -5.930000
v -1.700000 3.300000 -5.930000
v -3.100000 3.300000 -6.000000
v -3.100000 1.300000 -6.000000
v -1.700000 3.300000 -6.000000
v -1.700000 1.300000 -6.000000
v -4.200000 1.300000 -5.930000
v -4.200000 3.200000 -5.930000
v -5.400000 3.200000 -5.930000
v -5.400000 1.300000 -5.930000
v -5.500000 1.300000 -5.930000
v -5.500000 3.300000 -5.930000
v -4.100000 1.300000 -5.930000
v -4.100000 3.300000 -5.930000
v -5.500000 3.300000 -6.000000
v -5.500000 1.300000 -6.000000
v -4.100000 3.300000 -6.000000
v -4.100000 1.300000 -6.000000
v -6.600000 1.300000 -5.930000
v -6.600000 3.200000 -5.930000
v -7.800000 3.200000 -5.930000
v -7.800000 1.300000 -5.930000
v -7.900000 1.300000 -5.930000
v -7.900000 3.300000 -5.930000
v -6.500000 1.300000 -5.930000
v -6.500000 3.300000 -5.930000
v -7.900000 3.300000 -6.000000
v -7.900000 1.300000 -6.000000
v -6.500000 3.300000 -6.000000
v -6.500000 1.300000 -6.000000
v -0.800000 3.000000 -5.920000
v -0.800000 0.200000 -5.920000
v -0.920000 0.200000 -5.920000
v -0.920000 3.120000 -5.920000
v 0.800000 3.000000 -5.920000
v 0.920000 0.200000 -5.920000
v 0.800000 0.200000 -5.920000
v 0.920000 3.120000 -5.920000
v -0.920000 3.120000 -6.000000
v -0.920000 0.200000 -6.000000
v 0.920000 3.120000 -6.000000
v 0.920000 0.200000 -6.000000
v 9.700000 2.500000 -0.450000
v 9.700000 1.300000 -0.450000
v 9.700000 2.500000 0.450000
v 9.700000 0.200000 5.700000
v 9.700000 1.300000 0.450000
v 9.700000 5.600000 5.700000
v 9.930000 1.300000 0.450000
v 9.930000 1.300000 0.550000
v 10.000000 1.300000 0.550000
v 9.930000 1.300000 -0.450000
v 10.000000 1.300000 -0.550000
v 9.930000 1.300000 -0.550000
v 9.930000 2.500000 -0.450000
v 9.930000 2.600000 -0.550000
v 9.930000 2.500000 0.450000
v 9.930000 2.600000 0.550000
v 10.000000 2.600000 0.550000
v 10.000000 2.600000 -0.550000
v 10.000000 0.200000 -6.000000
v 10.000000 5.600000 -6.000000
v 10.000000 0.200000 6.000000
v 10.000000 5.600000 6.000000
v -3.400000 1.300000 5.700000
v -4.600000 1.300000 5.700000
v -4.600000 3.200000 5.700000
v -3.400000 3.200000 5.700000
v 3.400000 3.200000 5.700000
v 3.400000 1.300000 5.700000
v 4.600000 1.300000 5.700000
v 4.600000 3.200000 5.700000
v 3.400000 1.300000 5.930000
v 3.400000 3.200000 5.930000
v 4.600000 3.200000 5.930000
v 4.600000 1.300000 5.930000
v 4.700000 1.300000 5.930000
v 4.700000 3.300000 5.930000
v 3.300000 1.300000 5.930000
v 3.300000 3.300000 5.930000
v 4.700000 3.300000 6.000000
v 4.700000 1.300000 6.000000
v 3.300000 3.300000 6.000000
v 3.300000 1.300000 6.000000
v -4.600000 3.200000 5.930000
v -3.400000 3.200000 5.930000
v -3.400000 1.300000 5.930000
v -3.300000 1.300000 5.930000
v -3.300000 3.300000 5.930000
v -4.700000 1.300000 5.930000
v -4.600000 1.300000 5.930000
v -4.700000 3.300000 5.930000
v -3.300000 3.300000 6.000000
v -3.300000 1.300000 6.000000
v -4.700000 3.300000 6.000000
v -4.700000 1.300000 6.000000
v 4.700000 9.100000 0.300000
v 4.700000 8.300000 -0.300000
v 4.700000 8.300000 0.300000
v 4.700000 9.100000 -0.300000
v 5.300000 9.100000 0.300000
v 5.300000 8.300000 0.300000
v 5.300000 8.300000 -0.300000
v 5.300000 9.100000 -0.300000
v -5.300000 9.100000 0.300000
v -5.300000 8.300000 -0.300000
v -5.300000 8.300000 0.300000
v -5.300000 9.100000 -0.300000
v -4.700000 9.100000 0.300000
v -4.700000 8.300000 0.300000
v -4.700000 8.300000 -0.300000
v -4.700000 9.100000 -0.300000
vn -0.0000 1.0000 -0.0000
vn -1.0000 -0.0000 -0.0000
vn -0.7071 0.7071 -0.0000
vn -0.0000 0.7071 0.7071
vn -0.0000 -0.0000 -1.0000
vn -0.0000 0.7071 -0.7071
vn 0.7071 0.7071 -0.0000
vn 1.0000 -0.0000 -0.0000
vn -0.0000 -1.0000 -0.0000
vn -0.0000 -0.0000 1.0000
s 1
usemtl paint
f 54//1 129//1 132//1
f 211//2 216//2 215//2
f 7//3 1//3 8//3
f 7//3 4//3 1//3
f 166//1 171//1 174//1
f 52//1 141//1 144//1
f 222//2 221//2 219//2
f 11//4 8//4 1//4
f 11//4 1//4 5//4
f 35//5 33//5 32//5
f 12//6 4//6 7//6
f 12//6 10//6 4//6
f 12//7 11//7 5//7
f 12//7 5//7 10//7
f 70//1 93//1 96//1
f 192//8 196//8 195//8
f 69//8 108//8 107//8
f 17//9 22//9 25//9
f 59//2 130//2 129//2
f 134//8 138//8 137//8
f 146//8 150//8 149//8
f 75//1 81//1 84//1
f 160//9 161//9 163//9
f 98//8 102//8 101//8
f 4//2 3//2 1//2
f 55//10 54//10 56//10
f 27//2 28//2 29//2
f 27//2 29//2 30//2
f 31//2 32//2 33//2
f 34//2 27//2 32//2
f 34//2 28//2 27//2
f 34//2 32//2 31//2
f 31//2 30//2 29//2
f 31//2 33//2 30//2
f 193//1 195//1 198//1
f 37//2 38//2 39//2
f 37//2 39//2 35//2
f 40//2 41//2 42//2
f 36//2 40//2 37//2
f 36//2 37//2 35//2
f 36//2 41//2 40//2
f 112//9 113//9 115//9
f 43//8 45//8 46//8
f 43//8 44//8 45//8
f 47//8 43//8 46//8
f 48//8 49//8 47//8
f 50//8 47//8 46//8
f 50//8 48//8 47//8
f 48//8 45//8 44//8
f 48//8 44//8 49//8
f 51//10 52//10 45//10
f 53//10 45//10 52//10
f 46//10 45//10 53//10
f 54//10 51//10 45//10
f 55//10 46//10 53//10
f 6//9 2//9 9//9
f 56//10 46//10 55//10
f 57//10 46//10 56//10
f 58//10 59//10 54//10
f 58//10 54//10 45//10
f 58//10 60//10 59//10
f 61//10 60//10 58//10
f 76//8 84//8 87//8
f 62//10 46//10 57//10
f 63//10 46//10 62//10
f 64//10 63//10 61//10
f 64//10 61//10 58//10
f 65//10 66//10 67//10
f 68//10 67//10 66//10
f 69//10 64//10 65//10
f 69//10 63//10 64//10
f 69//10 65//10 67//10
f 70//10 68//10 66//10
f 71//10 70//10 66//10
f 126//5 139//5 125//5
f 123//2 127//2 128//2
f 77//10 78//10 75//10
f 77//10 71//10 66//10
f 77//10 75//10 71//10
f 79//10 78//10 77//10
f 80//10 69//10 73//10
f 80//10 72//10 74//10
f 80//10 76//10 79//10
f 80//10 73//10 72//10
f 80//10 74//10 76//10
f 80//10 79//10 77//10
f 46//10 69//10 80//10
f 46//10 63//10 69//10
f 81//1 82//1 83//1
f 1//10 6//10 5//10
f 85//1 86//1 84//1
f 85//1 81//1 83//1
f 85//1 84//1 81//1
f 87//5 84//5 86//5
f 87//5 86//5 88//5
f 89//5 82//5 81//5
f 90//5 89//5 87//5
f 90//5 87//5 88//5
f 90//5 82//5 89//5
f 78//2 89//2 81//2
f 88//8 85//8 92//8
f 20//1 14//1 16//1
f 10//8 6//8 9//8
f 122//8 126//8 125//8
f 14//2 13//2 16//2
f 56//8 132//8 131//8
f 95//5 96//5 97//5
f 95//5 97//5 98//5
f 94//5 99//5 93//5
f 100//5 94//5 95//5
f 100//5 95//5 98//5
f 100//5 99//5 94//5
f 4//5 9//5 2//5
f 99//2 103//2 104//2
f 21//10 17//10 24//10
f 53//8 144//8 143//8
f 93//1 99//1 104//1
f 14//5 18//5 15//5
f 102//1 97//1 96//1
f 102//1 93//1 104//1
f 102//1 96//1 93//1
f 68//2 106//2 105//2
f 16//10 17//10 20//10
f 107//5 108//5 109//5
f 107//5 109//5 110//5
f 106//5 111//5 105//5
f 112//5 106//5 107//5
f 112//5 107//5 110//5
f 112//5 111//5 106//5
f 180//9 182//9 181//9
f 17//8 19//8 20//8
f 73//9 107//9 106//9
f 36//9 32//9 27//9
f 105//1 111//1 116//1
f 200//2 204//2 203//2
f 114//1 109//1 108//1
f 114//1 105//1 116//1
f 114//1 108//1 105//1
f 24//1 23//1 21//1
f 71//2 94//2 93//2
f 119//5 120//5 121//5
f 119//5 121//5 122//5
f 118//5 123//5 117//5
f 118//5 119//5 122//5
f 124//5 118//5 122//5
f 124//5 123//5 118//5
f 17//9 15//9 18//9
f 214//9 215//9 217//9
f 7//1 11//1 12//1
f 60//1 117//1 120//1
f 117//1 123//1 128//1
f 70//10 73//10 68//10
f 126//1 121//1 120//1
f 126//1 117//1 128//1
f 126//1 120//1 117//1
f 49//1 42//1 38//1
f 26//8 17//8 25//8
f 131//5 132//5 133//5
f 131//5 133//5 134//5
f 130//5 135//5 129//5
f 136//5 130//5 131//5
f 136//5 131//5 134//5
f 136//5 135//5 130//5
f 136//9 137//9 139//9
f 223//1 222//1 219//1
f 226//8 224//8 225//8
f 234//8 232//8 233//8
f 129//1 135//1 140//1
f 82//2 91//2 83//2
f 138//1 133//1 132//1
f 138//1 129//1 140//1
f 138//1 132//1 129//1
f 57//9 131//9 130//9
f 227//10 232//10 231//10
f 143//5 144//5 145//5
f 143//5 145//5 146//5
f 142//5 147//5 141//5
f 148//5 142//5 143//5
f 148//5 143//5 146//5
f 148//5 147//5 142//5
f 90//9 92//9 91//9
f 124//9 125//9 127//9
f 51//2 142//2 141//2
f 61//2 118//2 117//2
f 141//1 147//1 152//1
f 60//10 57//10 59//10
f 150//1 145//1 144//1
f 150//1 141//1 152//1
f 150//1 144//1 141//1
f 55//9 143//9 142//9
f 147//2 151//2 152//2
f 153//5 154//5 155//5
f 153//5 155//5 156//5
f 157//5 158//5 159//5
f 160//5 157//5 153//5
f 160//5 153//5 156//5
f 160//5 158//5 157//5
f 230//5 233//5 228//5
f 23//5 25//5 22//5
f 74//9 95//9 94//9
f 64//8 154//8 153//8
f 158//2 163//2 164//2
f 165//2 80//2 77//2
f 165//2 77//2 166//2
f 167//2 80//2 165//2
f 168//2 167//2 169//2
f 170//2 80//2 167//2
f 170//2 167//2 168//2
f 168//2 169//2 77//2
f 169//2 166//2 77//2
f 171//1 172//1 173//1
f 100//9 101//9 103//9
f 175//1 176//1 174//1
f 175//1 171//1 173//1
f 175//1 174//1 171//1
f 177//8 174//8 176//8
f 177//8 176//8 178//8
f 179//8 172//8 171//8
f 180//8 179//8 177//8
f 180//8 177//8 178//8
f 180//8 172//8 179//8
f 66//2 157//2 159//2
f 65//9 153//9 157//9
f 182//8 183//8 184//8
f 182//8 175//8 183//8
f 185//8 173//8 181//8
f 186//8 181//8 182//8
f 186//8 182//8 184//8
f 186//8 185//8 181//8
f 185//8 183//8 175//8
f 185//8 175//8 173//8
f 156//8 162//8 161//8
f 232//9 228//9 233//9
f 110//8 114//8 113//8
f 172//5 181//5 173//5
f 187//5 48//5 188//5
f 189//5 48//5 50//5
f 189//5 188//5 48//5
f 190//5 189//5 50//5
f 167//9 177//9 179//9
f 168//5 193//5 194//5
f 168//5 192//5 193//5
f 170//5 194//5 191//5
f 170//5 168//5 194//5
f 168//5 48//5 187//5
f 168//5 187//5 192//5
f 50//5 170//5 191//5
f 50//5 191//5 190//5
f 72//8 96//8 95//8
f 197//10 198//10 199//10
f 197//10 199//10 200//10
f 196//10 201//10 195//10
f 202//10 196//10 197//10
f 202//10 197//10 200//10
f 202//10 201//10 196//10
f 192//5 190//5 191//5
f 165//10 174//10 177//10
f 178//10 175//10 182//10
f 195//1 201//1 206//1
f 44//10 40//10 42//10
f 204//1 199//1 198//1
f 204//1 198//1 206//1
f 198//1 195//1 206//1
f 67//1 105//1 108//1
f 202//9 203//9 205//9
f 191//9 197//9 196//9
f 208//10 209//10 210//10
f 208//10 210//10 211//10
f 207//10 212//10 213//10
f 207//10 208//10 211//10
f 214//10 207//10 211//10
f 214//10 212//10 207//10
f 111//2 115//2 116//2
f 189//9 208//9 207//9
f 194//2 198//2 197//2
f 201//8 205//8 206//8
f 213//1 212//1 218//1
f 169//5 179//5 171//5
f 216//1 210//1 209//1
f 216//1 209//1 218//1
f 209//1 213//1 218//1
f 212//8 217//8 218//8
f 148//9 149//9 151//9
f 79//9 87//9 89//9
f 42//1 41//1 30//1
f 47//5 38//5 37//5
f 33//1 39//1 38//1
f 33//1 38//1 30//1
f 38//1 42//1 30//1
f 43//9 37//9 40//9
f 46//1 34//1 50//1
f 28//1 34//1 46//1
f 170//1 34//1 186//1
f 170//1 50//1 34//1
f 80//1 170//1 186//1
f 184//1 80//1 186//1
f 184//1 28//1 80//1
f 80//1 28//1 46//1
f 152//5 29//5 150//5
f 149//5 150//5 29//5
f 28//5 149//5 29//5
f 138//5 29//5 152//5
f 151//5 149//5 28//5
f 188//8 207//8 213//8
f 137//5 151//5 28//5
f 139//5 137//5 28//5
f 162//5 138//5 140//5
f 162//5 29//5 138//5
f 162//5 140//5 126//5
f 128//5 162//5 126//5
f 74//10 75//10 76//10
f 125//5 139//5 28//5
f 127//5 125//5 28//5
f 161//5 128//5 127//5
f 161//5 162//5 128//5
f 163//5 161//5 127//5
f 163//5 114//5 164//5
f 116//5 164//5 114//5
f 113//5 163//5 127//5
f 113//5 114//5 163//5
f 102//5 164//5 116//5
f 104//5 164//5 102//5
f 62//8 120//8 119//8
f 41//10 27//10 30//10
f 183//5 85//5 83//5
f 183//5 164//5 104//5
f 183//5 104//5 85//5
f 91//5 183//5 83//5
f 184//5 115//5 113//5
f 184//5 103//5 101//5
f 184//5 91//5 92//5
f 184//5 101//5 115//5
f 184//5 92//5 103//5
f 184//5 183//5 91//5
f 28//5 184//5 113//5
f 28//5 113//5 127//5
f 45//9 48//9 31//9
f 29//9 45//9 31//9
f 168//9 31//9 48//9
f 185//9 31//9 168//9
f 155//9 58//9 45//9
f 162//9 45//9 29//9
f 162//9 155//9 45//9
f 154//9 58//9 155//9
f 158//9 66//9 159//9
f 77//9 158//9 164//9
f 77//9 66//9 158//9
f 77//9 185//9 168//9
f 183//9 77//9 164//9
f 183//9 185//9 77//9
f 217//10 34//10 31//10
f 217//10 31//10 218//10
f 215//10 34//10 217//10
f 102//5 115//5 101//5
f 185//10 204//10 206//10
f 185//10 203//10 204//10
f 186//10 205//10 203//10
f 186//10 203//10 185//10
f 185//10 218//10 31//10
f 185//10 216//10 218//10
f 185//10 206//10 216//10
f 34//10 205//10 186//10
f 34//10 215//10 205//10
f 63//9 119//9 118//9
f 206//10 215//10 216//10
f 85//5 103//5 92//5
f 138//5 151//5 137//5
f 187//1 213//1 209//1
f 135//2 139//2 140//2
f 219//10 224//10 223//10
f 230//2 229//2 227//2
f 222//5 225//5 220//5
f 224//9 220//9 225//9
f 190//2 209//2 208//2
f 23//2 13//2 21//2
f 231//1 230//1 227//1
f 54//1 59//1 129//1
f 211//2 210//2 216//2
f 166//1 169//1 171//1
f 52//1 51//1 141//1
f 222//2 220//2 221//2
f 35//5 39//5 33//5
f 70//1 71//1 93//1
f 192//8 191//8 196//8
f 69//8 67//8 108//8
f 17//9 13//9 22//9
f 59//2 57//2 130//2
f 134//8 133//8 138//8
f 146//8 145//8 150//8
f 75//1 78//1 81//1
f 160//9 156//9 161//9
f 98//8 97//8 102//8
f 4//2 2//2 3//2
f 55//10 51//10 54//10
f 193//1 192//1 195//1
f 112//9 110//9 113//9
f 6//9 3//9 2//9
f 76//8 75//8 84//8
f 126//5 140//5 139//5
f 123//2 124//2 127//2
f 1//10 3//10 6//10
f 78//2 79//2 89//2
f 88//8 86//8 85//8
f 20//1 19//1 14//1
f 10//8 5//8 6//8
f 122//8 121//8 126//8
f 14//2 15//2 13//2
f 56//8 54//8 132//8
f 4//5 10//5 9//5
f 99//2 100//2 103//2
f 21//10 13//10 17//10
f 53//8 52//8 144//8
f 14//5 19//5 18//5
f 68//2 73//2 106//2
f 16//10 13//10 17//10
f 180//9 178//9 182//9
f 17//8 18//8 19//8
f 73//9 69//9 107//9
f 36//9 35//9 32//9
f 200//2 199//2 204//2
f 24//1 26//1 23//1
f 71//2 74//2 94//2
f 17//9 13//9 15//9
f 214//9 211//9 215//9
f 7//1 8//1 11//1
f 60//1 61//1 117//1
f 70//10 72//10 73//10
f 49//1 44//1 42//1
f 26//8 24//8 17//8
f 136//9 134//9 137//9
f 223//1 226//1 222//1
f 226//8 223//8 224//8
f 234//8 231//8 232//8
f 82//2 90//2 91//2
f 57//9 56//9 131//9
f 227//10 229//10 232//10
f 90//9 88//9 92//9
f 124//9 122//9 125//9
f 51//2 55//2 142//2
f 61//2 63//2 118//2
f 60//10 62//10 57//10
f 55//9 53//9 143//9
f 147//2 148//2 151//2
f 230//5 234//5 233//5
f 23//5 26//5 25//5
f 74//9 72//9 95//9
f 64//8 58//8 154//8
f 158//2 160//2 163//2
f 100//9 98//9 101//9
f 66//2 65//2 157//2
f 65//9 64//9 153//9
f 156//8 155//8 162//8
f 232//9 229//9 228//9
f 110//8 109//8 114//8
f 172//5 180//5 181//5
f 167//9 165//9 177//9
f 72//8 70//8 96//8
f 192//5 187//5 190//5
f 165//10 166//10 174//10
f 178//10 176//10 175//10
f 44//10 43//10 40//10
f 67//1 68//1 105//1
f 202//9 200//9 203//9
f 191//9 194//9 197//9
f 111//2 112//2 115//2
f 189//9 190//9 208//9
f 194//2 193//2 198//2
f 201//8 202//8 205//8
f 169//5 167//5 179//5
f 212//8 214//8 217//8
f 148//9 146//9 149//9
f 79//9 76//9 87//9
f 47//5 49//5 38//5
f 43//9 47//9 37//9
f 188//8 189//8 207//8
f 74//10 71//10 75//10
f 62//8 60//8 120//8
f 41//10 36//10 27//10
f 102//5 116//5 115//5
f 63//9 62//9 119//9
f 206//10 205//10 215//10
f 85//5 104//5 103//5
f 138//5 152//5 151//5
f 187//1 188//1 213//1
f 135//2 136//2 139//2
f 219//10 221//10 224//10
f 230//2 228//2 229//2
f 222//5 226//5 225//5
f 224//9 221//9 220//9
f 190//2 187//2 209//2
f 23//2 22//2 13//2
f 231//1 234//1 230//1
