# Blender 5.2.1 LTS
# www.blender.org
mtllib villa_wing_wall.mtl
o villa_wing_wall
v -5.000000 1.150000 0.550000
v -5.000000 1.150000 -0.550000
v -5.000000 0.150000 -4.000000
v -5.000000 2.450000 -0.550000
v -5.000000 3.750000 -4.000000
v -5.000000 2.450000 0.550000
v -5.000000 0.150000 4.000000
v -5.000000 3.750000 4.000000
v -4.930000 2.450000 0.550000
v -4.930000 2.450000 -0.550000
v -4.930000 2.350000 0.450000
v -4.930000 1.150000 0.450000
v -4.930000 1.150000 0.550000
v -4.930000 2.350000 -0.450000
v -4.930000 1.150000 -0.550000
v -4.930000 1.150000 -0.450000
v -4.700000 2.350000 -0.450000
v -4.700000 1.150000 -0.450000
v -4.700000 1.150000 0.450000
v -4.700000 0.150000 -3.700000
v -4.700000 3.750000 -3.700000
v -4.700000 2.350000 0.450000
v -4.700000 0.150000 3.700000
v -4.700000 3.750000 3.700000
v -2.550000 1.150000 -3.700000
v -3.450000 1.150000 -3.700000
v -3.450000 2.350000 -3.700000
v -0.500000 0.150000 -3.700000
v -2.550000 2.350000 -3.700000
v -0.500000 2.500000 -3.700000
v 2.550000 1.150000 -3.700000
v 0.500000 2.500000 -3.700000
v 0.500000 0.150000 -3.700000
v 4.700000 0.150000 -3.700000
v 3.450000 1.150000 -3.700000
v 2.550000 2.350000 -3.700000
v 3.450000 2.350000 -3.700000
v 4.700000 3.750000 -3.700000
v 3.450000 1.150000 -3.930000
v 3.550000 1.150000 -3.930000
v 3.550000 1.150000 -4.000000
v 2.550000 1.150000 -3.930000
v 2.450000 1.150000 -4.000000
v 2.450000 1.150000 -3.930000
v 2.550000 2.350000 -3.930000
v 2.450000 2.450000 -3.930000
v 3.450000 2.350000 -3.930000
v 3.550000 2.450000 -3.930000
v 3.550000 2.450000 -4.000000
v 2.450000 2.450000 -4.000000
v -2.550000 1.150000 -3.930000
v -2.550000 2.350000 -3.930000
v -3.450000 2.350000 -3.930000
v -3.450000 1.150000 -3.930000
v -3.550000 1.150000 -3.930000
v -3.550000 2.450000 -3.930000
v -2.450000 1.150000 -3.930000
v -2.450000 2.450000 -3.930000
v -3.550000 2.450000 -4.000000
v -3.550000 1.150000 -4.000000
v -2.450000 2.450000 -4.000000
v -2.450000 1.150000 -4.000000
v -0.500000 2.500000 -3.940000
v -0.500000 0.150000 -3.940000
v -0.600000 0.150000 -3.940000
v -0.600000 2.600000 -3.940000
v 0.500000 2.500000 -3.940000
v 0.600000 0.150000 -3.940000
v 0.500000 0.150000 -3.940000
v 0.600000 2.600000 -3.940000
v -0.600000 2.600000 -4.000000
v -0.600000 0.150000 -4.000000
v 0.600000 2.600000 -4.000000
v 0.600000 0.150000 -4.000000
v 4.700000 1.150000 0.450000
v 4.700000 1.150000 -0.450000
v 4.700000 2.350000 -0.450000
v 4.700000 0.150000 3.700000
v 4.700000 2.350000 0.450000
v 4.700000 3.750000 3.700000
v 4.930000 1.150000 0.450000
v 4.930000 1.150000 0.550000
v 5.000000 1.150000 0.550000
v 4.930000 1.150000 -0.450000
v 5.000000 1.150000 -0.550000
v 4.930000 1.150000 -0.550000
v 4.930000 2.350000 -0.450000
v 4.930000 2.450000 -0.550000
v 4.930000 2.350000 0.450000
v 4.930000 2.450000 0.550000
v 5.000000 2.450000 0.550000
v 5.000000 2.450000 -0.550000
v 5.000000 0.150000 -4.000000
v 5.000000 3.750000 -4.000000
v 5.000000 0.150000 4.000000
v 5.000000 3.750000 4.000000
v -0.450000 2.350000 3.700000
v -0.450000 1.150000 3.700000
v 0.450000 2.350000 3.700000
v 0.450000 1.150000 3.700000
v -0.450000 2.350000 3.930000
v 0.450000 2.350000 3.930000
v 0.450000 1.150000 3.930000
v 0.550000 1.150000 3.930000
v 0.550000 2.450000 3.930000
v -0.550000 1.150000 3.930000
v -0.450000 1.150000 3.930000
v -0.550000 2.450000 3.930000
v 0.550000 2.450000 4.000000
v 0.550000 1.150000 4.000000
v -0.550000 2.450000 4.000000
v -0.550000 1.150000 4.000000
vn -1.0000 -0.0000 -0.0000
vn -0.0000 -0.0000 -1.0000
vn -0.0000 -1.0000 -0.0000
vn 1.0000 -0.0000 -0.0000
vn -0.0000 -0.0000 1.0000
vn -0.0000 1.0000 -0.0000
s 1
usemtl paint
f 1//1 2//1 3//1
f 4//1 5//1 3//1
f 4//1 3//1 2//1
f 6//1 5//1 4//1
f 7//1 6//1 1//1
f 7//1 1//1 3//1
f 8//1 6//1 7//1
f 8//1 5//1 6//1
f 75//2 89//2 81//2
f 11//1 12//1 13//1
f 11//1 13//1 9//1
f 14//1 15//1 16//1
f 10//1 14//1 11//1
f 10//1 11//1 9//1
f 10//1 15//1 14//1
f 70//3 71//3 73//3
f 19//4 20//4 18//4
f 17//4 20//4 21//4
f 17//4 18//4 20//4
f 22//4 17//4 21//4
f 23//4 19//4 22//4
f 23//4 20//4 19//4
f 24//4 23//4 22//4
f 24//4 22//4 21//4
f 25//5 26//5 20//5
f 27//5 20//5 26//5
f 21//5 20//5 27//5
f 28//5 25//5 20//5
f 29//5 21//5 27//5
f 30//5 29//5 25//5
f 30//5 21//5 29//5
f 30//5 25//5 28//5
f 31//5 32//5 33//5
f 34//5 35//5 31//5
f 34//5 31//5 33//5
f 36//5 32//5 31//5
f 37//5 35//5 34//5
f 38//5 30//5 32//5
f 38//5 36//5 37//5
f 38//5 21//5 30//5
f 38//5 32//5 36//5
f 38//5 37//5 34//5
f 39//6 40//6 41//6
f 98//4 101//4 107//4
f 43//6 44//6 42//6
f 43//6 39//6 41//6
f 43//6 42//6 39//6
f 45//2 42//2 44//2
f 46//2 45//2 44//2
f 47//2 40//2 39//2
f 48//2 47//2 45//2
f 48//2 45//2 46//2
f 48//2 40//2 47//2
f 33//1 67//1 69//1
f 76//6 81//6 84//6
f 56//4 60//4 59//4
f 25//1 52//1 51//1
f 36//4 42//4 45//4
f 32//3 63//3 67//3
f 10//3 6//3 4//3
f 53//2 54//2 55//2
f 56//2 53//2 55//2
f 52//2 57//2 51//2
f 58//2 52//2 53//2
f 58//2 53//2 56//2
f 58//2 57//2 52//2
f 18//5 14//5 16//5
f 57//1 61//1 62//1
f 40//1 49//1 41//1
f 68//1 73//1 74//1
f 51//6 57//6 62//6
f 27//4 54//4 53//4
f 60//6 55//6 54//6
f 60//6 51//6 62//6
f 60//6 54//6 51//6
f 48//3 50//3 49//3
f 79//3 87//3 89//3
f 63//2 64//2 65//2
f 63//2 65//2 66//2
f 67//2 68//2 69//2
f 70//2 67//2 63//2
f 70//2 63//2 66//2
f 70//2 68//2 67//2
f 31//6 39//6 42//6
f 37//3 45//3 47//3
f 22//2 12//2 11//2
f 100//6 107//6 103//6
f 35//1 47//1 39//1
f 75//1 76//1 34//1
f 77//1 38//1 34//1
f 77//1 34//1 76//1
f 78//1 79//1 75//1
f 78//1 75//1 34//1
f 80//1 77//1 79//1
f 80//1 38//1 77//1
f 80//1 79//1 78//1
f 81//6 82//6 83//6
f 46//4 43//4 50//4
f 85//6 86//6 84//6
f 85//6 81//6 83//6
f 85//6 84//6 81//6
f 87//4 84//4 86//4
f 87//4 86//4 88//4
f 89//4 82//4 81//4
f 90//4 89//4 87//4
f 90//4 87//4 88//4
f 90//4 82//4 89//4
f 29//3 53//3 52//3
f 9//2 1//2 6//2
f 92//4 93//4 94//4
f 92//4 85//4 93//4
f 91//4 92//4 94//4
f 95//4 85//4 83//4
f 95//4 83//4 91//4
f 95//4 93//4 85//4
f 96//4 95//4 91//4
f 96//4 91//4 94//4
f 90//3 92//3 91//3
f 58//3 59//3 61//3
f 88//5 85//5 92//5
f 82//2 91//2 83//2
f 97//2 23//2 24//2
f 97//2 98//2 23//2
f 99//2 97//2 24//2
f 78//2 100//2 99//2
f 80//2 99//2 24//2
f 80//2 78//2 99//2
f 78//2 23//2 98//2
f 78//2 98//2 100//2
f 19//6 16//6 12//6
f 102//5 103//5 104//5
f 102//5 104//5 105//5
f 101//5 106//5 107//5
f 108//5 101//5 102//5
f 108//5 102//5 105//5
f 108//5 106//5 101//5
f 30//4 64//4 63//4
f 77//5 84//5 87//5
f 105//1 110//1 109//1
f 26//6 51//6 54//6
f 107//6 106//6 112//6
f 106//4 111//4 112//4
f 110//6 104//6 103//6
f 110//6 103//6 112//6
f 103//6 107//6 112//6
f 108//3 109//3 111//3
f 97//3 102//3 101//3
f 99//1 103//1 102//1
f 17//3 11//3 14//3
f 16//6 15//6 2//6
f 1//6 13//6 12//6
f 1//6 12//6 2//6
f 12//6 16//6 2//6
f 66//4 72//4 71//4
f 5//6 24//6 21//6
f 5//6 8//6 24//6
f 80//6 8//6 96//6
f 80//6 24//6 8//6
f 94//6 38//6 80//6
f 94//6 80//6 96//6
f 94//6 5//6 38//6
f 38//6 5//6 21//6
f 62//2 3//2 60//2
f 59//2 3//2 5//2
f 59//2 60//2 3//2
f 72//2 3//2 62//2
f 61//2 59//2 5//2
f 71//2 62//2 61//2
f 71//2 72//2 62//2
f 71//2 61//2 5//2
f 43//2 74//2 73//2
f 50//2 43//2 73//2
f 93//2 43//2 41//2
f 93//2 74//2 43//2
f 49//2 93//2 41//2
f 94//2 49//2 50//2
f 94//2 50//2 73//2
f 94//2 93//2 49//2
f 5//2 94//2 73//2
f 5//2 73//2 71//2
f 3//3 20//3 23//3
f 3//3 23//3 7//3
f 95//3 7//3 23//3
f 78//3 95//3 23//3
f 65//3 28//3 20//3
f 72//3 20//3 3//3
f 72//3 65//3 20//3
f 64//3 28//3 65//3
f 68//3 33//3 69//3
f 34//3 68//3 74//3
f 34//3 33//3 68//3
f 93//3 78//3 34//3
f 93//3 34//3 74//3
f 93//3 95//3 78//3
f 111//5 8//5 7//5
f 111//5 7//5 112//5
f 95//5 109//5 110//5
f 96//5 109//5 95//5
f 95//5 112//5 7//5
f 95//5 110//5 112//5
f 8//5 109//5 96//5
f 8//5 111//5 109//5
f 15//5 4//5 2//5
f 75//2 79//2 89//2
f 70//3 66//3 71//3
f 98//4 97//4 101//4
f 33//1 32//1 67//1
f 76//6 75//6 81//6
f 56//4 55//4 60//4
f 25//1 29//1 52//1
f 36//4 31//4 42//4
f 32//3 30//3 63//3
f 10//3 9//3 6//3
f 18//5 17//5 14//5
f 57//1 58//1 61//1
f 40//1 48//1 49//1
f 68//1 70//1 73//1
f 27//4 26//4 54//4
f 48//3 46//3 50//3
f 79//3 77//3 87//3
f 31//6 35//6 39//6
f 37//3 36//3 45//3
f 22//2 19//2 12//2
f 100//6 98//6 107//6
f 35//1 37//1 47//1
f 46//4 44//4 43//4
f 29//3 27//3 53//3
f 9//2 13//2 1//2
f 90//3 88//3 92//3
f 58//3 56//3 59//3
f 88//5 86//5 85//5
f 82//2 90//2 91//2
f 19//6 18//6 16//6
f 30//4 28//4 64//4
f 77//5 76//5 84//5
f 105//1 104//1 110//1
f 26//6 25//6 51//6
f 106//4 108//4 111//4
f 108//3 105//3 109//3
f 97//3 99//3 102//3
f 99//1 100//1 103//1
f 17//3 22//3 11//3
f 66//4 65//4 72//4
f 15//5 10//5 4//5
