# Blender 5.2.1 LTS
# www.blender.org
mtllib villa_roof.mtl
o villa_roof
v -1.750000 6.220000 -6.925000
v -1.750000 6.100000 -7.775000
v -1.750000 6.100000 -6.925000
v -1.750000 6.220000 -7.775000
v 1.750000 6.220000 -6.925000
v 1.750000 6.100000 -6.925000
v 1.750000 6.100000 -7.775000
v 1.750000 6.220000 -7.775000
v 2.950000 7.350000 1.675375
v 4.300000 8.000000 0.000500
v -4.300000 8.000000 0.000500
v -2.950000 7.350000 1.675375
v -6.225000 6.375000 4.187687
v -7.425000 5.725000 5.862563
v -4.550000 6.050000 5.025125
v -2.475000 5.725000 5.862563
v -10.700000 5.400000 6.700000
v 10.700000 5.400000 6.700000
v -2.075000 6.375000 4.187687
v -1.675000 7.025000 2.512813
v 0.000000 6.700000 3.350250
v 7.425000 5.725000 5.862563
v 1.675000 7.025000 2.512813
v 2.075000 6.375000 4.187687
v 6.225000 6.375000 4.187687
v 4.550000 6.050000 5.025125
v -8.312500 5.887500 5.443844
v -4.437500 6.862500 2.931531
v -5.512500 7.187500 2.094094
v -3.750000 6.700000 3.350250
v 0.000000 6.050000 5.025125
v 3.750000 6.700000 3.350250
v 8.312500 5.887500 5.443844
v 4.437500 6.862500 2.931531
v 5.512500 7.187500 2.094094
v -7.968750 6.293750 4.397047
v -5.931250 6.781250 3.140891
v -4.968750 7.593750 1.047297
v 7.968750 6.293750 4.397047
v 5.931250 6.781250 3.140891
v 4.968750 7.593750 1.047297
v -6.200000 7.146875 2.198773
v 6.200000 7.146875 2.198773
v 9.900000 5.725000 1.465641
v 10.700000 5.400000 -6.700000
v 9.900000 5.725000 -4.396922
v 9.500000 5.887500 4.763363
v 9.500000 5.887500 -0.680480
v 9.100000 6.050000 -2.512563
v 9.100000 6.050000 0.000000
v 7.500000 6.700000 1.675125
v 8.300000 6.375000 3.140766
v 7.900000 6.537500 1.413363
v 8.700000 6.212500 -2.879004
v 8.300000 6.375000 -1.046922
v 7.100000 6.862500 -0.366441
v 7.100000 6.862500 0.366441
v 7.500000 6.700000 0.000000
v 5.500000 7.512500 -0.785410
v 5.500000 7.512500 -0.471246
v 5.900000 7.350000 -0.837687
v 9.500000 5.887500 2.041441
v 9.100000 6.050000 2.512563
v 8.700000 6.212500 2.879004
v 7.300000 6.781250 2.551974
v 7.100000 6.862500 1.832207
v 6.300000 7.187500 1.832332
v 8.500000 6.293750 0.824446
v 8.700000 6.212500 -0.575801
v 8.500000 6.293750 -0.274815
v 7.900000 6.537500 -0.471121
v 7.100000 6.862500 1.099324
v 6.700000 7.025000 0.628203
v 6.700000 7.025000 1.256406
v 5.900000 7.350000 0.837687
v 6.300000 7.187500 0.785285
v 7.900000 6.537500 -1.413363
v 8.300000 6.375000 -3.140766
v 7.500000 6.700000 -1.675125
v 6.300000 7.187500 0.261762
v 5.900000 7.350000 0.418844
v 5.900000 7.350000 0.000000
v 5.500000 7.512500 0.157082
v 8.500000 6.293750 -4.122231
v 7.100000 6.862500 -1.099324
v 6.700000 7.025000 -0.628203
v 7.100000 6.862500 -1.832207
v 6.300000 7.187500 -0.261762
v 6.300000 7.187500 -0.785285
v 6.700000 7.025000 -1.256406
v 7.300000 6.781250 -2.551974
v 5.500000 7.512500 -0.157082
v 5.100000 7.675000 -0.209484
v 5.900000 7.350000 -1.256531
v 4.900000 7.756250 -0.275003
v 5.100000 7.675000 -0.628453
v 4.700000 7.837500 -0.262012
v 5.300000 7.593750 -0.981841
v 6.300000 7.187500 -1.832332
v 4.500000 7.918750 -0.170511
v 4.300000 8.000000 -0.000500
v 8.000000 6.496875 3.752597
v 5.300000 7.593750 0.981841
v 9.000000 6.090625 1.383875
v 8.000000 6.496875 0.363155
v 5.600000 7.471875 0.978460
v 9.200000 6.009375 -4.328273
v 7.500000 6.700000 -0.837563
v 4.900000 7.756250 0.353575
v 5.200000 7.634375 0.324025
v 5.900000 7.350000 -0.418844
v 6.300000 7.187500 -1.308809
v 4.800000 7.796875 -0.016372
v 4.500000 7.918750 0.039349
v 4.700000 7.837500 -0.052402
v 6.400000 7.146875 -2.130062
v 4.400000 7.959375 -0.042729
v 9.950000 5.704688 -5.452801
v 4.600000 7.878125 0.245734
v 4.400000 7.959375 0.062450
v 4.350000 7.979688 0.015687
v 6.850000 6.964063 -2.377819
v 4.625000 7.867969 0.146398
v -2.950000 7.350000 -1.675375
v -4.300000 8.000000 -0.000500
v 2.950000 7.350000 -1.675375
v 6.225000 6.375000 -4.187687
v 7.425000 5.725000 -5.862563
v 4.550000 6.050000 -5.025125
v 2.475000 5.725000 -5.862563
v -10.700000 5.400000 -6.700000
v 2.075000 6.375000 -4.187687
v 1.675000 7.025000 -2.512813
v -0.000000 6.700000 -3.350250
v -7.425000 5.725000 -5.862563
v -1.675000 7.025000 -2.512813
v -2.075000 6.375000 -4.187687
v -6.225000 6.375000 -4.187687
v -4.550000 6.050000 -5.025125
v 8.312500 5.887500 -5.443844
v 4.437500 6.862500 -2.931531
v 5.512500 7.187500 -2.094094
v 3.750000 6.700000 -3.350250
v -0.000000 6.050000 -5.025125
v -3.750000 6.700000 -3.350250
v -8.312500 5.887500 -5.443844
v -4.437500 6.862500 -2.931531
v -5.512500 7.187500 -2.094094
v 7.968750 6.293750 -4.397047
v 5.931250 6.781250 -3.140891
v 4.968750 7.593750 -1.047297
v -7.968750 6.293750 -4.397047
v -5.931250 6.781250 -3.140891
v -4.968750 7.593750 -1.047297
v 6.200000 7.146875 -2.198773
v -6.200000 7.146875 -2.198773
v -9.900000 5.725000 -1.465641
v -9.900000 5.725000 4.396922
v -9.500000 5.887500 -4.763363
v -9.500000 5.887500 0.680480
v -9.100000 6.050000 2.512563
v -9.100000 6.050000 -0.000000
v -7.500000 6.700000 -1.675125
v -8.300000 6.375000 -3.140766
v -7.900000 6.537500 -1.413363
v -8.700000 6.212500 2.879004
v -8.300000 6.375000 1.046922
v -7.100000 6.862500 0.366441
v -7.100000 6.862500 -0.366441
v -7.500000 6.700000 -0.000000
v -5.500000 7.512500 0.785410
v -5.500000 7.512500 0.471246
v -5.900000 7.350000 0.837687
v -9.500000 5.887500 -2.041441
v -9.100000 6.050000 -2.512563
v -8.700000 6.212500 -2.879004
v -7.300000 6.781250 -2.551974
v -7.100000 6.862500 -1.832207
v -6.300000 7.187500 -1.832332
v -8.500000 6.293750 -0.824446
v -8.700000 6.212500 0.575801
v -8.500000 6.293750 0.274815
v -7.900000 6.537500 0.471121
v -7.100000 6.862500 -1.099324
v -6.700000 7.025000 -0.628203
v -6.700000 7.025000 -1.256406
v -5.900000 7.350000 -0.837687
v -6.300000 7.187500 -0.785285
v -7.900000 6.537500 1.413363
v -8.300000 6.375000 3.140766
v -7.500000 6.700000 1.675125
v -6.300000 7.187500 -0.261762
v -5.900000 7.350000 -0.418844
v -5.900000 7.350000 -0.000000
v -5.500000 7.512500 -0.157082
v -8.500000 6.293750 4.122231
v -7.100000 6.862500 1.099324
v -6.700000 7.025000 0.628203
v -7.100000 6.862500 1.832207
v -6.300000 7.187500 0.261762
v -6.300000 7.187500 0.785285
v -6.700000 7.025000 1.256406
v -7.300000 6.781250 2.551974
v -5.500000 7.512500 0.157082
v -5.100000 7.675000 0.209484
v -5.900000 7.350000 1.256531
v -4.900000 7.756250 0.275003
v -5.100000 7.675000 0.628453
v -4.700000 7.837500 0.262012
v -5.300000 7.593750 0.981841
v -6.300000 7.187500 1.832332
v -4.500000 7.918750 0.170511
v -8.000000 6.496875 -3.752597
v -5.300000 7.593750 -0.981841
v -9.000000 6.090625 -1.383875
v -8.000000 6.496875 -0.363155
v -5.600000 7.471875 -0.978460
v -9.200000 6.009375 4.328273
v -7.500000 6.700000 0.837563
v -4.900000 7.756250 -0.353575
v -5.200000 7.634375 -0.324025
v -5.900000 7.350000 0.418844
v -6.300000 7.187500 1.308809
v -4.800000 7.796875 0.016372
v -4.500000 7.918750 -0.039349
v -4.700000 7.837500 0.052402
v -6.400000 7.146875 2.130062
v -4.400000 7.959375 0.042729
v -9.950000 5.704688 5.452801
v -4.600000 7.878125 -0.245734
v -4.400000 7.959375 -0.062450
v -4.350000 7.979688 -0.015687
v -6.850000 6.964063 2.377819
v -4.625000 7.867969 -0.146398
v -4.300000 8.130000 -0.062000
v -4.300000 8.022000 -0.170000
v -4.300000 7.950000 -0.170000
v -4.300000 8.130000 0.062000
v -4.300000 7.950000 0.170000
v -4.300000 8.022000 0.170000
v 4.300000 8.022000 0.170000
v 4.300000 7.950000 0.170000
v 4.300000 8.130000 0.062000
v 4.300000 7.950000 -0.170000
v 4.300000 8.130000 -0.062000
v 4.300000 8.022000 -0.170000
vn -0.0000 1.0000 -0.0000
vn 0.1467 0.9794 -0.1385
vn -0.1467 0.9794 0.1385
vn 0.1467 0.9794 0.1385
vn -0.0000 -0.0000 -1.0000
vn -1.0000 -0.0000 -0.0000
vn 1.0000 -0.0000 -0.0000
vn -0.0000 0.9323 0.3618
vn -0.1899 0.9628 0.1922
vn 0.1899 0.9628 0.1922
vn 0.3764 0.9265 -0.0000
vn 0.1899 0.9628 -0.1922
vn -0.0000 0.9323 -0.3618
vn -0.1467 0.9794 -0.1385
vn -0.1899 0.9628 -0.1922
vn -0.3764 0.9265 -0.0000
vn -0.0000 -0.0000 1.0000
vn -0.0000 -1.0000 -0.0000
vn -0.0000 0.7071 0.7071
vn -0.0000 0.7071 -0.7071
s 1
usemtl paint
f 235//1 243//1 245//1
f 101//2 11//3 10//4
f 4//5 7//5 2//5
f 4//6 3//6 1//6
f 5//1 4//1 1//1
f 8//7 6//7 7//7
f 9//8 10//4 11//3
f 9//8 11//3 12//8
f 13//8 14//8 15//8
f 16//8 17//9 18//10
f 16//8 14//8 17//9
f 16//8 15//8 14//8
f 19//8 15//8 16//8
f 20//8 19//8 21//8
f 22//8 16//8 18//10
f 23//8 20//8 21//8
f 23//8 9//8 12//8
f 23//8 21//8 24//8
f 23//8 12//8 20//8
f 25//8 26//8 22//8
f 27//8 17//9 14//8
f 27//8 14//8 13//8
f 28//8 12//8 29//8
f 30//8 19//8 20//8
f 30//8 13//8 15//8
f 30//8 28//8 13//8
f 30//8 15//8 19//8
f 30//8 20//8 12//8
f 30//8 12//8 28//8
f 31//8 21//8 19//8
f 31//8 24//8 21//8
f 31//8 19//8 16//8
f 31//8 26//8 24//8
f 31//8 16//8 22//8
f 31//8 22//8 26//8
f 32//8 24//8 26//8
f 32//8 9//8 23//8
f 32//8 23//8 24//8
f 32//8 26//8 25//8
f 33//8 25//8 22//8
f 33//8 22//8 18//10
f 34//8 9//8 32//8
f 34//8 32//8 25//8
f 35//8 9//8 34//8
f 36//8 17//9 27//8
f 36//8 27//8 13//8
f 37//8 13//8 28//8
f 37//8 28//8 29//8
f 37//8 36//8 13//8
f 38//8 12//8 11//3
f 38//8 29//8 12//8
f 39//8 33//8 18//10
f 39//8 25//8 33//8
f 40//8 34//8 25//8
f 40//8 35//8 34//8
f 40//8 25//8 39//8
f 41//8 10//4 9//8
f 41//8 9//8 35//8
f 42//8 11//3 17//9
f 42//8 17//9 36//8
f 42//8 37//8 29//8
f 42//8 36//8 37//8
f 42//8 38//8 11//3
f 42//8 29//8 38//8
f 43//8 18//10 10//4
f 43//8 10//4 41//8
f 43//8 39//8 18//10
f 43//8 35//8 40//8
f 43//8 40//8 39//8
f 43//8 41//8 35//8
f 44//11 18//10 45//12
f 46//11 44//11 45//12
f 47//11 18//10 44//11
f 48//11 46//11 49//11
f 48//11 44//11 46//11
f 50//11 44//11 48//11
f 51//11 52//11 53//11
f 54//11 55//11 49//11
f 56//11 57//11 58//11
f 59//11 60//11 61//11
f 62//11 47//11 44//11
f 62//11 63//11 47//11
f 64//11 52//11 47//11
f 64//11 47//11 63//11
f 64//11 53//11 52//11
f 65//11 52//11 51//11
f 65//11 51//11 66//11
f 65//11 66//11 67//11
f 68//11 53//11 64//11
f 69//11 49//11 55//11
f 69//11 48//11 49//11
f 69//11 50//11 48//11
f 70//11 50//11 69//11
f 70//11 68//11 50//11
f 70//11 69//11 55//11
f 70//11 55//11 71//11
f 72//11 51//11 53//11
f 72//11 66//11 51//11
f 72//11 53//11 57//11
f 72//11 57//11 73//11
f 74//11 75//11 67//11
f 74//11 66//11 72//11
f 74//11 73//11 76//11
f 74//11 76//11 75//11
f 74//11 72//11 73//11
f 74//11 67//11 66//11
f 77//11 71//11 55//11
f 77//11 54//11 78//11
f 77//11 55//11 54//11
f 77//11 78//11 79//11
f 80//11 76//11 73//11
f 80//11 73//11 57//11
f 81//11 76//11 80//11
f 81//11 80//11 82//11
f 81//11 75//11 76//11
f 81//11 82//11 83//11
f 84//11 78//11 54//11
f 85//11 86//11 56//11
f 85//11 79//11 87//11
f 88//11 57//11 56//11
f 88//11 82//11 80//11
f 88//11 56//11 86//11
f 88//11 80//11 57//11
f 88//11 86//11 89//11
f 90//11 86//11 85//11
f 90//11 85//11 87//11
f 90//11 89//11 86//11
f 91//11 78//11 84//11
f 91//11 79//11 78//11
f 91//11 87//11 79//11
f 92//11 83//11 82//11
f 92//11 60//11 93//11
f 94//11 59//11 61//11
f 95//11 59//11 96//11
f 95//11 96//11 97//11
f 95//11 60//11 59//11
f 95//11 93//11 60//11
f 98//11 59//11 94//11
f 98//11 96//11 59//11
f 98//11 94//11 99//11
f 100//11 97//11 96//11
f 100//11 98//11 101//2
f 100//11 96//11 98//11
f 102//11 10//4 18//10
f 102//11 103//11 10//4
f 102//11 65//11 67//11
f 102//11 67//11 103//11
f 102//11 18//10 47//11
f 102//11 47//11 52//11
f 102//11 52//11 65//11
f 104//11 62//11 44//11
f 104//11 63//11 62//11
f 104//11 64//11 63//11
f 104//11 68//11 64//11
f 104//11 50//11 68//11
f 104//11 44//11 50//11
f 105//11 71//11 58//11
f 105//11 53//11 68//11
f 105//11 68//11 70//11
f 105//11 70//11 71//11
f 105//11 58//11 57//11
f 105//11 57//11 53//11
f 106//11 67//11 75//11
f 106//11 103//11 67//11
f 107//11 49//11 46//11
f 107//11 84//11 54//11
f 107//11 54//11 49//11
f 108//11 58//11 71//11
f 108//11 77//11 79//11
f 108//11 56//11 58//11
f 108//11 71//11 77//11
f 108//11 79//11 85//11
f 108//11 85//11 56//11
f 109//11 103//11 106//11
f 110//11 81//11 83//11
f 110//11 75//11 81//11
f 110//11 106//11 75//11
f 110//11 109//11 106//11
f 111//11 61//11 60//11
f 111//11 60//11 92//11
f 111//11 88//11 89//11
f 111//11 92//11 82//11
f 111//11 82//11 88//11
f 111//11 89//11 61//11
f 112//11 90//11 87//11
f 112//11 89//11 90//11
f 112//11 99//11 94//11
f 112//11 94//11 61//11
f 112//11 61//11 89//11
f 113//11 114//11 110//11
f 113//11 92//11 93//11
f 113//11 83//11 92//11
f 113//11 110//11 83//11
f 115//11 113//11 93//11
f 115//11 114//11 113//11
f 115//11 93//11 95//11
f 116//11 45//12 101//2
f 116//11 101//2 98//11
f 116//11 98//11 99//11
f 116//11 84//11 45//12
f 117//11 100//11 101//2
f 117//11 95//11 97//11
f 117//11 114//11 115//11
f 117//11 115//11 95//11
f 117//11 97//11 100//11
f 118//11 46//11 45//12
f 118//11 107//11 46//11
f 118//11 84//11 107//11
f 118//11 45//12 84//11
f 119//11 120//11 10//4
f 119//11 109//11 120//11
f 119//11 10//4 103//11
f 119//11 103//11 109//11
f 121//11 10//4 120//11
f 121//11 101//2 10//4
f 121//11 114//11 117//11
f 121//11 117//11 101//2
f 122//11 84//11 116//11
f 122//11 116//11 99//11
f 122//11 87//11 91//11
f 122//11 91//11 84//11
f 122//11 112//11 87//11
f 122//11 99//11 112//11
f 123//11 110//11 114//11
f 123//11 109//11 110//11
f 123//11 120//11 109//11
f 123//11 114//11 121//11
f 123//11 121//11 120//11
f 124//13 125//14 101//2
f 124//13 101//2 126//13
f 127//13 128//13 129//13
f 130//13 45//12 131//15
f 130//13 128//13 45//12
f 130//13 129//13 128//13
f 132//13 129//13 130//13
f 133//13 132//13 134//13
f 135//13 130//13 131//15
f 136//13 133//13 134//13
f 136//13 124//13 126//13
f 136//13 134//13 137//13
f 136//13 126//13 133//13
f 138//13 139//13 135//13
f 140//13 45//12 128//13
f 140//13 128//13 127//13
f 141//13 126//13 142//13
f 143//13 132//13 133//13
f 143//13 127//13 129//13
f 143//13 141//13 127//13
f 143//13 129//13 132//13
f 143//13 133//13 126//13
f 143//13 126//13 141//13
f 144//13 134//13 132//13
f 144//13 137//13 134//13
f 144//13 132//13 130//13
f 144//13 139//13 137//13
f 144//13 130//13 135//13
f 144//13 135//13 139//13
f 145//13 137//13 139//13
f 145//13 124//13 136//13
f 145//13 136//13 137//13
f 145//13 139//13 138//13
f 146//13 138//13 135//13
f 146//13 135//13 131//15
f 147//13 124//13 145//13
f 147//13 145//13 138//13
f 148//13 124//13 147//13
f 149//13 45//12 140//13
f 149//13 140//13 127//13
f 150//13 127//13 141//13
f 150//13 141//13 142//13
f 150//13 149//13 127//13
f 151//13 126//13 101//2
f 151//13 142//13 126//13
f 152//13 146//13 131//15
f 152//13 138//13 146//13
f 153//13 147//13 138//13
f 153//13 148//13 147//13
f 153//13 138//13 152//13
f 154//13 125//14 124//13
f 154//13 124//13 148//13
f 155//13 101//2 45//12
f 155//13 45//12 149//13
f 155//13 150//13 142//13
f 155//13 149//13 150//13
f 155//13 151//13 101//2
f 155//13 142//13 151//13
f 156//13 131//15 125//14
f 156//13 125//14 154//13
f 156//13 152//13 131//15
f 156//13 148//13 153//13
f 156//13 153//13 152//13
f 156//13 154//13 148//13
f 157//16 131//15 17//9
f 158//16 157//16 17//9
f 159//16 131//15 157//16
f 160//16 158//16 161//16
f 160//16 157//16 158//16
f 162//16 157//16 160//16
f 163//16 164//16 165//16
f 166//16 167//16 161//16
f 168//16 169//16 170//16
f 171//16 172//16 173//16
f 174//16 159//16 157//16
f 174//16 175//16 159//16
f 176//16 164//16 159//16
f 176//16 159//16 175//16
f 176//16 165//16 164//16
f 177//16 164//16 163//16
f 177//16 163//16 178//16
f 177//16 178//16 179//16
f 180//16 165//16 176//16
f 181//16 161//16 167//16
f 181//16 160//16 161//16
f 181//16 162//16 160//16
f 182//16 162//16 181//16
f 182//16 180//16 162//16
f 182//16 181//16 167//16
f 182//16 167//16 183//16
f 184//16 163//16 165//16
f 184//16 178//16 163//16
f 184//16 165//16 169//16
f 184//16 169//16 185//16
f 186//16 187//16 179//16
f 186//16 178//16 184//16
f 186//16 185//16 188//16
f 186//16 188//16 187//16
f 186//16 184//16 185//16
f 186//16 179//16 178//16
f 189//16 183//16 167//16
f 189//16 166//16 190//16
f 189//16 167//16 166//16
f 189//16 190//16 191//16
f 192//16 188//16 185//16
f 192//16 185//16 169//16
f 193//16 188//16 192//16
f 193//16 192//16 194//16
f 193//16 187//16 188//16
f 193//16 194//16 195//16
f 196//16 190//16 166//16
f 197//16 198//16 168//16
f 197//16 191//16 199//16
f 200//16 169//16 168//16
f 200//16 194//16 192//16
f 200//16 168//16 198//16
f 200//16 192//16 169//16
f 200//16 198//16 201//16
f 202//16 198//16 197//16
f 202//16 197//16 199//16
f 202//16 201//16 198//16
f 203//16 190//16 196//16
f 203//16 191//16 190//16
f 203//16 199//16 191//16
f 204//16 195//16 194//16
f 204//16 172//16 205//16
f 206//16 171//16 173//16
f 207//16 171//16 208//16
f 207//16 208//16 209//16
f 207//16 172//16 171//16
f 207//16 205//16 172//16
f 210//16 171//16 206//16
f 210//16 208//16 171//16
f 210//16 206//16 211//16
f 212//16 209//16 208//16
f 212//16 210//16 11//3
f 212//16 208//16 210//16
f 213//16 125//14 131//15
f 213//16 214//16 125//14
f 213//16 177//16 179//16
f 213//16 179//16 214//16
f 213//16 131//15 159//16
f 213//16 159//16 164//16
f 213//16 164//16 177//16
f 215//16 174//16 157//16
f 215//16 175//16 174//16
f 215//16 176//16 175//16
f 215//16 180//16 176//16
f 215//16 162//16 180//16
f 215//16 157//16 162//16
f 216//16 183//16 170//16
f 216//16 165//16 180//16
f 216//16 180//16 182//16
f 216//16 182//16 183//16
f 216//16 170//16 169//16
f 216//16 169//16 165//16
f 217//16 179//16 187//16
f 217//16 214//16 179//16
f 218//16 161//16 158//16
f 218//16 196//16 166//16
f 218//16 166//16 161//16
f 219//16 170//16 183//16
f 219//16 189//16 191//16
f 219//16 168//16 170//16
f 219//16 183//16 189//16
f 219//16 191//16 197//16
f 219//16 197//16 168//16
f 220//16 214//16 217//16
f 221//16 193//16 195//16
f 221//16 187//16 193//16
f 221//16 217//16 187//16
f 221//16 220//16 217//16
f 222//16 173//16 172//16
f 222//16 172//16 204//16
f 222//16 200//16 201//16
f 222//16 204//16 194//16
f 222//16 194//16 200//16
f 222//16 201//16 173//16
f 223//16 202//16 199//16
f 223//16 201//16 202//16
f 223//16 211//16 206//16
f 223//16 206//16 173//16
f 223//16 173//16 201//16
f 224//16 225//16 221//16
f 224//16 204//16 205//16
f 224//16 195//16 204//16
f 224//16 221//16 195//16
f 226//16 224//16 205//16
f 226//16 225//16 224//16
f 226//16 205//16 207//16
f 227//16 17//9 11//3
f 227//16 11//3 210//16
f 227//16 210//16 211//16
f 227//16 196//16 17//9
f 228//16 212//16 11//3
f 228//16 207//16 209//16
f 228//16 225//16 226//16
f 228//16 226//16 207//16
f 228//16 209//16 212//16
f 229//16 158//16 17//9
f 229//16 218//16 158//16
f 229//16 196//16 218//16
f 229//16 17//9 196//16
f 230//16 231//16 125//14
f 230//16 220//16 231//16
f 230//16 125//14 214//16
f 230//16 214//16 220//16
f 232//16 125//14 231//16
f 232//16 11//3 125//14
f 232//16 225//16 228//16
f 232//16 228//16 11//3
f 233//16 196//16 227//16
f 233//16 227//16 211//16
f 233//16 199//16 203//16
f 233//16 203//16 196//16
f 233//16 223//16 199//16
f 233//16 211//16 223//16
f 234//16 221//16 225//16
f 234//16 220//16 221//16
f 234//16 231//16 220//16
f 234//16 225//16 232//16
f 234//16 232//16 231//16
f 236//5 244//5 237//5
f 1//17 6//17 5//17
f 235//6 236//6 237//6
f 238//6 239//6 240//6
f 238//6 237//6 239//6
f 238//6 235//6 237//6
f 17//18 45//18 18//18
f 240//17 242//17 241//17
f 242//18 237//18 244//18
f 241//19 238//19 240//19
f 6//18 2//18 7//18
f 245//7 244//7 246//7
f 243//7 241//7 242//7
f 243//7 242//7 244//7
f 243//7 244//7 245//7
f 246//20 235//20 245//20
f 235//1 238//1 243//1
f 101//2 125//14 11//3
f 4//5 8//5 7//5
f 4//6 2//6 3//6
f 5//1 8//1 4//1
f 8//7 5//7 6//7
f 236//5 246//5 244//5
f 1//17 3//17 6//17
f 17//18 131//18 45//18
f 240//17 239//17 242//17
f 242//18 239//18 237//18
f 241//19 243//19 238//19
f 6//18 3//18 2//18
f 246//20 236//20 235//20
