# Blender 5.2.1 LTS
# www.blender.org
mtllib villa_trim.mtl
o villa_trim
v -10.500000 0.500000 -6.950000
v -10.500000 0.200000 -7.850000
v -10.500000 0.200000 -6.950000
v -10.500000 0.500000 -7.850000
v 10.500000 0.500000 -6.950000
v 10.500000 0.200000 -6.950000
v 10.500000 0.200000 -7.850000
v 10.500000 0.500000 -7.850000
v -10.500000 5.650000 -6.950000
v -10.500000 5.100000 -7.850000
v -10.500000 5.100000 -6.950000
v -10.500000 5.650000 -7.850000
v 10.500000 5.650000 -6.950000
v 10.500000 5.100000 -6.950000
v 10.500000 5.100000 -7.850000
v 10.500000 5.650000 -7.850000
v -10.500000 6.000000 -7.340000
v -10.500000 5.650000 -7.460000
v -10.500000 5.650000 -7.340000
v -10.500000 6.000000 -7.460000
v 10.500000 6.000000 -7.340000
v 10.500000 5.650000 -7.340000
v 10.500000 5.650000 -7.460000
v 10.500000 6.000000 -7.460000
v -10.500000 0.500000 7.850000
v -10.500000 0.200000 6.950000
v -10.500000 0.200000 7.850000
v -10.500000 0.500000 6.950000
v 10.500000 0.500000 7.850000
v 10.500000 0.200000 7.850000
v 10.500000 0.200000 6.950000
v 10.500000 0.500000 6.950000
v -10.500000 5.650000 7.850000
v -10.500000 5.100000 6.950000
v -10.500000 5.100000 7.850000
v -10.500000 5.650000 6.950000
v 10.500000 5.650000 7.850000
v 10.500000 5.100000 7.850000
v 10.500000 5.100000 6.950000
v 10.500000 5.650000 6.950000
v -10.500000 6.000000 7.460000
v -10.500000 5.650000 7.340000
v -10.500000 5.650000 7.460000
v -10.500000 6.000000 7.340000
v 10.500000 6.000000 7.460000
v 10.500000 5.650000 7.460000
v 10.500000 5.650000 7.340000
v 10.500000 6.000000 7.340000
v -1.600000 6.100000 -6.975000
v -1.600000 5.650000 -7.725000
v -1.600000 5.650000 -6.975000
v -1.600000 6.100000 -7.725000
v 1.600000 6.100000 -6.975000
v 1.600000 5.650000 -6.975000
v 1.600000 5.650000 -7.725000
v 1.600000 6.100000 -7.725000
v -10.300000 5.600000 6.280000
v -10.300000 0.200000 5.720000
v -10.300000 0.200000 6.280000
v -10.300000 5.600000 5.720000
v -9.720000 5.600000 6.300000
v -10.280000 5.600000 6.300000
v -10.280000 5.600000 5.700000
v -9.700000 5.600000 6.280000
v -9.700000 5.600000 5.720000
v -9.720000 5.600000 5.700000
v -10.280000 0.200000 6.300000
v -10.280000 0.200000 5.700000
v -9.720000 0.200000 6.300000
v -9.700000 0.200000 6.280000
v -9.700000 0.200000 5.720000
v -9.720000 0.200000 5.700000
v -10.300000 5.600000 -5.720000
v -10.300000 0.200000 -6.280000
v -10.300000 0.200000 -5.720000
v -10.300000 5.600000 -6.280000
v -10.280000 5.600000 -6.300000
v -10.280000 5.600000 -5.700000
v -9.700000 5.600000 -6.280000
v -9.720000 5.600000 -5.700000
v -9.700000 5.600000 -5.720000
v -9.720000 5.600000 -6.300000
v -10.280000 0.200000 -5.700000
v -10.280000 0.200000 -6.300000
v -9.700000 0.200000 -6.280000
v -9.720000 0.200000 -5.700000
v -9.700000 0.200000 -5.720000
v -9.720000 0.200000 -6.300000
v 9.700000 5.600000 6.280000
v 9.700000 0.200000 5.720000
v 9.700000 0.200000 6.280000
v 9.700000 5.600000 5.720000
v 9.720000 5.600000 5.700000
v 9.720000 5.600000 6.300000
v 10.300000 5.600000 5.720000
v 10.280000 5.600000 6.300000
v 10.300000 5.600000 6.280000
v 10.280000 5.600000 5.700000
v 9.720000 0.200000 6.300000
v 9.720000 0.200000 5.700000
v 10.300000 0.200000 5.720000
v 10.280000 0.200000 6.300000
v 10.300000 0.200000 6.280000
v 10.280000 0.200000 5.700000
v 9.700000 5.600000 -5.720000
v 9.700000 0.200000 -6.280000
v 9.700000 0.200000 -5.720000
v 9.700000 5.600000 -6.280000
v 10.280000 5.600000 -5.700000
v 9.720000 5.600000 -5.700000
v 9.720000 5.600000 -6.300000
v 10.300000 5.600000 -5.720000
v 10.300000 5.600000 -6.280000
v 10.280000 5.600000 -6.300000
v 9.720000 0.200000 -5.700000
v 9.720000 0.200000 -6.300000
v 10.280000 0.200000 -5.700000
v 10.300000 0.200000 -5.720000
v 10.300000 0.200000 -6.280000
v 10.280000 0.200000 -6.300000
v -10.700000 5.400000 6.700000
v -10.700000 5.250000 -6.700000
v -10.700000 5.250000 6.700000
v -10.700000 5.400000 -6.700000
v 10.700000 5.400000 6.700000
v 10.700000 5.250000 6.700000
v -10.650000 5.200000 -6.650000
v -10.650000 5.200000 6.650000
v -10.420000 5.400000 6.420000
v -10.420000 5.400000 -6.420000
v 10.420000 5.400000 6.420000
v 10.700000 5.400000 -6.700000
v 10.420000 5.400000 -6.420000
v 10.700000 5.250000 -6.700000
v 10.650000 5.200000 6.650000
v -10.470000 5.200000 -6.470000
v -10.470000 5.200000 6.470000
v 10.470000 5.200000 6.470000
v 10.470000 5.200000 -6.470000
v 10.650000 5.200000 -6.650000
v 10.420000 5.250000 6.420000
v -10.420000 5.250000 6.420000
v 10.420000 5.250000 -6.420000
v -10.420000 5.250000 -6.420000
v 4.620000 9.172000 0.380000
v 4.620000 9.100000 -0.380000
v 4.620000 9.100000 0.380000
v 4.620000 9.172000 -0.380000
v 5.380000 9.172000 0.380000
v 5.380000 9.100000 0.380000
v 4.668000 9.220000 -0.332000
v 4.668000 9.220000 0.332000
v 5.380000 9.100000 -0.380000
v 5.380000 9.172000 -0.380000
v 5.332000 9.220000 0.332000
v 5.332000 9.220000 -0.332000
v -5.380000 9.172000 0.380000
v -5.380000 9.100000 -0.380000
v -5.380000 9.100000 0.380000
v -5.380000 9.172000 -0.380000
v -4.620000 9.172000 0.380000
v -4.620000 9.100000 0.380000
v -5.332000 9.220000 -0.332000
v -5.332000 9.220000 0.332000
v -4.620000 9.100000 -0.380000
v -4.620000 9.172000 -0.380000
v -4.668000 9.220000 0.332000
v -4.668000 9.220000 -0.332000
vn 1.0000 -0.0000 -0.0000
vn -1.0000 -0.0000 -0.0000
vn 0.7071 -0.0000 -0.7071
vn -0.0000 1.0000 -0.0000
vn -0.0000 -0.0000 1.0000
vn -0.7071 -0.0000 -0.7071
vn -0.0000 -1.0000 -0.0000
vn -0.0000 -0.0000 -1.0000
vn 0.7071 -0.0000 0.7071
vn -0.7071 -0.0000 0.7071
vn -0.7071 -0.7071 -0.0000
vn -0.0000 -0.7071 0.7071
vn -0.0000 -0.7071 -0.7071
vn 0.7071 -0.7071 -0.0000
vn -0.7071 0.7071 -0.0000
vn -0.0000 0.7071 0.7071
vn -0.0000 0.7071 -0.7071
vn 0.7071 0.7071 -0.0000
s 1
usemtl paint
f 79//1 87//1 85//1
f 160//2 159//2 157//2
f 113//3 120//3 114//3
f 95//3 104//3 98//3
f 65//1 70//1 71//1
f 37//4 36//4 33//4
f 52//2 51//2 49//2
f 130//5 143//5 133//5
f 60//6 68//6 58//6
f 22//7 18//7 23//7
f 24//1 22//1 23//1
f 78//5 86//5 80//5
f 40//1 38//1 39//1
f 8//1 6//1 7//1
f 108//6 116//6 106//6
f 41//5 46//5 45//5
f 4//2 3//2 1//2
f 25//5 30//5 29//5
f 150//7 146//7 153//7
f 54//7 50//7 55//7
f 1//5 6//5 5//5
f 44//2 43//2 41//2
f 29//4 28//4 25//4
f 5//4 4//4 1//4
f 157//5 162//5 161//5
f 6//7 2//7 7//7
f 36//8 39//8 34//8
f 13//4 12//4 9//4
f 76//2 75//2 73//2
f 14//7 10//7 15//7
f 12//2 11//2 9//2
f 92//2 91//2 89//2
f 7//8 4//8 8//8
f 46//7 42//7 47//7
f 17//5 22//5 21//5
f 95//1 103//1 101//1
f 12//8 15//8 10//8
f 49//5 54//5 53//5
f 9//5 14//5 13//5
f 113//1 118//1 119//1
f 16//1 14//1 15//1
f 60//2 59//2 57//2
f 28//2 27//2 25//2
f 61//4 57//4 62//4
f 63//4 60//4 57//4
f 64//4 57//4 61//4
f 65//4 63//4 57//4
f 65//4 57//4 64//4
f 66//4 63//4 65//4
f 130//1 142//1 144//1
f 21//4 20//4 17//4
f 69//7 67//7 59//7
f 68//7 59//7 58//7
f 70//7 69//7 59//7
f 71//7 59//7 68//7
f 71//7 70//7 59//7
f 72//7 71//7 68//7
f 48//1 46//1 47//1
f 36//2 35//2 33//2
f 162//7 158//7 165//7
f 63//8 72//8 68//8
f 30//7 26//7 31//7
f 65//3 72//3 66//3
f 77//4 76//4 73//4
f 77//4 73//4 78//4
f 79//4 78//4 80//4
f 79//4 80//4 81//4
f 79//4 77//4 78//4
f 82//4 77//4 79//4
f 64//9 69//9 70//9
f 160//8 165//8 158//8
f 84//7 75//7 74//7
f 84//7 83//7 75//7
f 85//7 86//7 83//7
f 85//7 87//7 86//7
f 85//7 83//7 84//7
f 88//7 85//7 84//7
f 20//2 19//2 17//2
f 38//7 34//7 39//7
f 73//10 83//10 78//10
f 77//8 88//8 84//8
f 33//5 38//5 37//5
f 79//3 88//3 82//3
f 93//4 92//4 89//4
f 93//4 89//4 94//4
f 95//4 94//4 96//4
f 95//4 96//4 97//4
f 95//4 93//4 94//4
f 98//4 93//4 95//4
f 86//9 81//9 80//9
f 84//6 76//6 77//6
f 100//7 91//7 90//7
f 100//7 99//7 91//7
f 101//7 102//7 99//7
f 101//7 103//7 102//7
f 101//7 99//7 100//7
f 104//7 101//7 100//7
f 166//1 162//1 165//1
f 89//10 99//10 94//10
f 62//5 69//5 61//5
f 31//8 28//8 32//8
f 102//9 97//9 96//9
f 93//8 104//8 100//8
f 109//4 105//4 110//4
f 111//4 108//4 105//4
f 112//4 105//4 109//4
f 113//4 111//4 105//4
f 113//4 105//4 112//4
f 114//4 111//4 113//4
f 100//6 92//6 93//6
f 20//8 23//8 18//8
f 117//7 115//7 107//7
f 116//7 107//7 106//7
f 118//7 117//7 107//7
f 119//7 107//7 116//7
f 119//7 118//7 107//7
f 120//7 119//7 116//7
f 45//4 44//4 41//4
f 108//2 107//2 105//2
f 110//5 117//5 109//5
f 44//8 47//8 42//8
f 112//9 117//9 118//9
f 111//8 120//8 116//8
f 105//10 115//10 110//10
f 127//11 128//11 123//11
f 127//11 123//11 122//11
f 124//4 129//4 130//4
f 124//4 121//4 129//4
f 131//4 121//4 125//4
f 131//4 129//4 121//4
f 132//4 133//4 131//4
f 132//4 131//4 125//4
f 132//4 124//4 130//4
f 132//4 130//4 133//4
f 94//5 102//5 96//5
f 52//8 55//8 50//8
f 126//12 123//12 128//12
f 135//12 126//12 128//12
f 136//7 137//7 128//7
f 127//7 136//7 128//7
f 138//7 135//7 128//7
f 138//7 128//7 137//7
f 139//7 135//7 138//7
f 140//7 135//7 139//7
f 140//7 136//7 127//7
f 140//7 139//7 136//7
f 140//13 127//13 122//13
f 140//13 122//13 134//13
f 124//2 123//2 121//2
f 132//1 126//1 134//1
f 56//1 54//1 55//1
f 133//2 141//2 131//2
f 134//14 126//14 135//14
f 134//14 135//14 140//14
f 142//13 141//13 138//13
f 142//13 138//13 137//13
f 143//11 138//11 141//11
f 143//11 139//11 138//11
f 144//14 142//14 137//14
f 144//14 137//14 136//14
f 144//12 139//12 143//12
f 144//12 136//12 139//12
f 129//8 141//8 142//8
f 121//5 126//5 125//5
f 151//15 145//15 152//15
f 151//15 148//15 145//15
f 32//1 30//1 31//1
f 57//10 67//10 62//10
f 148//2 147//2 145//2
f 155//16 152//16 145//16
f 155//16 145//16 149//16
f 148//8 153//8 146//8
f 156//17 148//17 151//17
f 156//17 154//17 148//17
f 156//18 155//18 149//18
f 156//18 149//18 154//18
f 155//4 151//4 152//4
f 154//1 150//1 153//1
f 163//15 157//15 164//15
f 163//15 160//15 157//15
f 145//5 150//5 149//5
f 124//8 134//8 122//8
f 167//16 164//16 157//16
f 167//16 157//16 161//16
f 53//4 52//4 49//4
f 168//17 160//17 163//17
f 168//17 166//17 160//17
f 168//18 167//18 161//18
f 168//18 161//18 166//18
f 167//4 163//4 164//4
f 79//1 81//1 87//1
f 160//2 158//2 159//2
f 113//3 119//3 120//3
f 95//3 101//3 104//3
f 65//1 64//1 70//1
f 37//4 40//4 36//4
f 52//2 50//2 51//2
f 130//5 144//5 143//5
f 60//6 63//6 68//6
f 22//7 19//7 18//7
f 24//1 21//1 22//1
f 78//5 83//5 86//5
f 40//1 37//1 38//1
f 8//1 5//1 6//1
f 108//6 111//6 116//6
f 41//5 43//5 46//5
f 4//2 2//2 3//2
f 25//5 27//5 30//5
f 150//7 147//7 146//7
f 54//7 51//7 50//7
f 1//5 3//5 6//5
f 44//2 42//2 43//2
f 29//4 32//4 28//4
f 5//4 8//4 4//4
f 157//5 159//5 162//5
f 6//7 3//7 2//7
f 36//8 40//8 39//8
f 13//4 16//4 12//4
f 76//2 74//2 75//2
f 14//7 11//7 10//7
f 12//2 10//2 11//2
f 92//2 90//2 91//2
f 7//8 2//8 4//8
f 46//7 43//7 42//7
f 17//5 19//5 22//5
f 95//1 97//1 103//1
f 12//8 16//8 15//8
f 49//5 51//5 54//5
f 9//5 11//5 14//5
f 113//1 112//1 118//1
f 16//1 13//1 14//1
f 60//2 58//2 59//2
f 28//2 26//2 27//2
f 130//1 129//1 142//1
f 21//4 24//4 20//4
f 48//1 45//1 46//1
f 36//2 34//2 35//2
f 162//7 159//7 158//7
f 63//8 66//8 72//8
f 30//7 27//7 26//7
f 65//3 71//3 72//3
f 64//9 61//9 69//9
f 160//8 166//8 165//8
f 20//2 18//2 19//2
f 38//7 35//7 34//7
f 73//10 75//10 83//10
f 77//8 82//8 88//8
f 33//5 35//5 38//5
f 79//3 85//3 88//3
f 86//9 87//9 81//9
f 84//6 74//6 76//6
f 166//1 161//1 162//1
f 89//10 91//10 99//10
f 62//5 67//5 69//5
f 31//8 26//8 28//8
f 102//9 103//9 97//9
f 93//8 98//8 104//8
f 100//6 90//6 92//6
f 20//8 24//8 23//8
f 45//4 48//4 44//4
f 108//2 106//2 107//2
f 110//5 115//5 117//5
f 44//8 48//8 47//8
f 112//9 109//9 117//9
f 111//8 114//8 120//8
f 105//10 107//10 115//10
f 94//5 99//5 102//5
f 52//8 56//8 55//8
f 124//2 122//2 123//2
f 132//1 125//1 126//1
f 56//1 53//1 54//1
f 133//2 143//2 141//2
f 129//8 131//8 141//8
f 121//5 123//5 126//5
f 32//1 29//1 30//1
f 57//10 59//10 67//10
f 148//2 146//2 147//2
f 148//8 154//8 153//8
f 155//4 156//4 151//4
f 154//1 149//1 150//1
f 145//5 147//5 150//5
f 124//8 132//8 134//8
f 53//4 56//4 52//4
f 167//4 168//4 163//4
