# Blender 5.2.1 LTS
# www.blender.org
mtllib villa_wing_trim.mtl
o villa_wing_trim
v -5.250000 3.750000 4.230000
v -5.250000 0.150000 3.770000
v -5.250000 0.150000 4.230000
v -5.250000 3.750000 3.770000
v -4.750000 3.750000 4.230000
v -5.230000 3.750000 4.250000
v -4.770000 3.750000 4.250000
v -4.770000 3.750000 3.750000
v -4.750000 3.750000 3.770000
v -5.230000 3.750000 3.750000
v -5.230000 0.150000 4.250000
v -5.230000 0.150000 3.750000
v -4.750000 0.150000 4.230000
v -4.770000 0.150000 4.250000
v -4.770000 0.150000 3.750000
v -4.750000 0.150000 3.770000
v -5.250000 3.750000 -3.770000
v -5.250000 0.150000 -4.230000
v -5.250000 0.150000 -3.770000
v -5.250000 3.750000 -4.230000
v -4.750000 3.750000 -3.770000
v -5.230000 3.750000 -3.750000
v -4.770000 3.750000 -3.750000
v -4.750000 3.750000 -4.230000
v -4.770000 3.750000 -4.250000
v -5.230000 3.750000 -4.250000
v -5.230000 0.150000 -3.750000
v -5.230000 0.150000 -4.250000
v -4.750000 0.150000 -3.770000
v -4.770000 0.150000 -3.750000
v -4.750000 0.150000 -4.230000
v -4.770000 0.150000 -4.250000
v 4.750000 3.750000 4.230000
v 4.750000 0.150000 3.770000
v 4.750000 0.150000 4.230000
v 4.750000 3.750000 3.770000
v 5.250000 3.750000 4.230000
v 4.770000 3.750000 4.250000
v 5.230000 3.750000 4.250000
v 5.230000 3.750000 3.750000
v 5.250000 3.750000 3.770000
v 4.770000 3.750000 3.750000
v 4.770000 0.150000 4.250000
v 4.770000 0.150000 3.750000
v 5.250000 0.150000 4.230000
v 5.230000 0.150000 4.250000
v 5.230000 0.150000 3.750000
v 5.250000 0.150000 3.770000
v 4.750000 3.750000 -3.770000
v 4.750000 0.150000 -4.230000
v 4.750000 0.150000 -3.770000
v 4.750000 3.750000 -4.230000
v 5.250000 3.750000 -3.770000
v 4.770000 3.750000 -3.750000
v 5.230000 3.750000 -3.750000
v 5.250000 3.750000 -4.230000
v 5.230000 3.750000 -4.250000
v 4.770000 3.750000 -4.250000
v 4.770000 0.150000 -3.750000
v 4.770000 0.150000 -4.250000
v 5.250000 0.150000 -3.770000
v 5.230000 0.150000 -3.750000
v 5.250000 0.150000 -4.230000
v 5.230000 0.150000 -4.250000
v -3.401005 0.150000 -5.448995
v -3.360000 3.600000 -5.350000
v -3.360000 0.150000 -5.350000
v -3.401005 3.600000 -5.448995
v -3.500000 0.150000 -5.490000
v -3.500000 3.600000 -5.490000
v -3.598995 0.150000 -5.448995
v -3.598995 3.600000 -5.448995
v -3.640000 0.150000 -5.350000
v -3.640000 3.600000 -5.350000
v -3.598995 0.150000 -5.251005
v -3.598995 3.600000 -5.251005
v -3.500000 0.150000 -5.210000
v -3.500000 3.600000 -5.210000
v -3.401005 0.150000 -5.251005
v -3.401005 3.600000 -5.251005
v -1.101005 0.150000 -5.448995
v -1.060000 3.600000 -5.350000
v -1.060000 0.150000 -5.350000
v -1.101005 3.600000 -5.448995
v -1.200000 0.150000 -5.490000
v -1.200000 3.600000 -5.490000
v -1.298995 0.150000 -5.448995
v -1.298995 3.600000 -5.448995
v -1.340000 0.150000 -5.350000
v -1.340000 3.600000 -5.350000
v -1.298995 0.150000 -5.251005
v -1.298995 3.600000 -5.251005
v -1.200000 0.150000 -5.210000
v -1.200000 3.600000 -5.210000
v -1.101005 0.150000 -5.251005
v -1.101005 3.600000 -5.251005
v 1.298995 0.150000 -5.448995
v 1.340000 3.600000 -5.350000
v 1.340000 0.150000 -5.350000
v 1.298995 3.600000 -5.448995
v 1.200000 0.150000 -5.490000
v 1.200000 3.600000 -5.490000
v 1.101005 0.150000 -5.448995
v 1.101005 3.600000 -5.448995
v 1.060000 0.150000 -5.350000
v 1.060000 3.600000 -5.350000
v 1.101005 0.150000 -5.251005
v 1.101005 3.600000 -5.251005
v 1.200000 0.150000 -5.210000
v 1.200000 3.600000 -5.210000
v 1.298995 0.150000 -5.251005
v 1.298995 3.600000 -5.251005
v 3.598995 0.150000 -5.448995
v 3.640000 3.600000 -5.350000
v 3.640000 0.150000 -5.350000
v 3.598995 3.600000 -5.448995
v 3.500000 0.150000 -5.490000
v 3.500000 3.600000 -5.490000
v 3.401005 0.150000 -5.448995
v 3.401005 3.600000 -5.448995
v 3.360000 0.150000 -5.350000
v 3.360000 3.600000 -5.350000
v 3.401005 0.150000 -5.251005
v 3.401005 3.600000 -5.251005
v 3.500000 0.150000 -5.210000
v 3.500000 3.600000 -5.210000
v 3.598995 0.150000 -5.251005
v 3.598995 3.600000 -5.251005
v -5.200000 3.600000 -5.275000
v -5.200000 3.350000 -5.425000
v -5.200000 3.350000 -5.275000
v -5.200000 3.600000 -5.425000
v 5.200000 3.600000 -5.275000
v 5.200000 3.350000 -5.275000
v 5.200000 3.350000 -5.425000
v 5.200000 3.600000 -5.425000
v -5.550000 3.600000 4.550000
v -5.550000 3.490000 -6.000000
v -5.550000 3.490000 4.550000
v -5.550000 3.600000 -6.000000
v 5.550000 3.600000 4.550000
v 5.550000 3.490000 4.550000
v -5.500000 3.440000 -5.950000
v -5.500000 3.440000 4.500000
v -5.330000 3.600000 -5.780000
v -5.330000 3.600000 4.330000
v 5.330000 3.600000 4.330000
v 5.330000 3.600000 -5.780000
v 5.550000 3.600000 -6.000000
v 5.550000 3.490000 -6.000000
v 5.500000 3.440000 4.500000
v -5.380000 3.440000 -5.830000
v -5.380000 3.440000 4.380000
v 5.380000 3.440000 4.380000
v 5.500000 3.440000 -5.950000
v 5.380000 3.440000 -5.830000
v 5.330000 3.490000 4.330000
v -5.330000 3.490000 4.330000
v 5.330000 3.490000 -5.780000
v -5.330000 3.490000 -5.780000
vn 1.0000 -0.0000 -0.0000
vn -0.0000 1.0000 -0.0000
vn -1.0000 -0.0000 -0.0000
vn -0.0000 -1.0000 -0.0000
vn -0.0000 -0.0000 1.0000
vn -0.9239 -0.0000 -0.3827
vn -0.7071 -0.0000 -0.7071
vn 0.9239 -0.0000 -0.3827
vn -0.0000 -0.0000 -1.0000
vn 0.3827 -0.0000 0.9239
vn -0.9239 -0.0000 0.3827
vn 0.9239 -0.0000 0.3827
vn -0.7071 -0.0000 0.7071
vn 0.7071 -0.0000 0.7071
vn 0.7071 -0.0000 -0.7071
vn -0.3827 -0.0000 -0.9239
vn -0.3827 -0.0000 0.9239
vn 0.3827 -0.0000 -0.9239
vn -0.7071 -0.7071 -0.0000
vn -0.0000 -0.7071 0.7071
vn -0.0000 -0.7071 -0.7071
vn 0.7071 -0.7071 -0.0000
s 1
usemtl paint
f 9//1 13//1 16//1
f 5//2 1//2 6//2
f 5//2 6//2 7//2
f 8//2 4//2 1//2
f 8//2 5//2 9//2
f 8//2 10//2 4//2
f 8//2 1//2 5//2
f 36//3 35//3 33//3
f 132//3 131//3 129//3
f 13//4 11//4 3//4
f 13//4 14//4 11//4
f 15//4 3//4 2//4
f 15//4 16//4 13//4
f 15//4 2//4 12//4
f 15//4 13//4 3//4
f 145//5 159//5 148//5
f 90//6 87//6 89//6
f 52//7 60//7 50//7
f 68//8 67//8 65//8
f 140//9 150//9 138//9
f 80//10 77//10 79//10
f 21//2 17//2 22//2
f 21//2 22//2 23//2
f 124//11 121//11 123//11
f 24//2 25//2 26//2
f 24//2 26//2 20//2
f 22//5 30//5 23//5
f 82//12 95//12 83//12
f 29//4 27//4 19//4
f 29//4 30//4 27//4
f 41//1 45//1 48//1
f 31//4 28//4 32//4
f 31//4 18//4 28//4
f 1//13 11//13 6//13
f 56//1 61//1 63//1
f 6//5 14//5 7//5
f 66//12 79//12 67//12
f 36//7 44//7 34//7
f 54//5 62//5 55//5
f 37//2 33//2 38//2
f 37//2 38//2 39//2
f 40//2 36//2 33//2
f 40//2 37//2 41//2
f 40//2 42//2 36//2
f 40//2 33//2 37//2
f 149//1 142//1 150//1
f 4//7 12//7 2//7
f 45//4 43//4 35//4
f 45//4 46//4 43//4
f 47//4 35//4 34//4
f 47//4 48//4 45//4
f 47//4 34//4 44//4
f 47//4 45//4 35//4
f 61//4 50//4 63//4
f 37//14 46//14 45//14
f 5//14 14//14 13//14
f 76//11 73//11 75//11
f 10//9 15//9 12//9
f 53//2 52//2 49//2
f 53//2 49//2 54//2
f 53//2 54//2 55//2
f 20//7 28//7 18//7
f 56//2 57//2 58//2
f 56//2 58//2 52//2
f 92//11 89//11 91//11
f 17//13 27//13 22//13
f 61//4 59//4 51//4
f 61//4 62//4 59//4
f 9//15 15//15 8//15
f 63//4 60//4 64//4
f 63//4 50//4 60//4
f 4//3 3//3 1//3
f 120//16 117//16 119//16
f 56//15 64//15 57//15
f 26//9 32//9 28//9
f 21//14 30//14 29//14
f 21//2 20//2 17//2
f 72//16 69//16 71//16
f 20//3 19//3 17//3
f 136//1 134//1 135//1
f 33//13 43//13 38//13
f 148//3 157//3 147//3
f 24//1 29//1 31//1
f 122//6 119//6 121//6
f 69//4 73//4 71//4
f 69//4 75//4 73//4
f 118//2 126//2 116//2
f 65//4 79//4 77//4
f 65//4 67//4 79//4
f 70//2 72//2 74//2
f 70//2 74//2 76//2
f 77//4 69//4 65//4
f 68//2 78//2 80//2
f 68//2 80//2 66//2
f 41//15 47//15 40//15
f 78//17 75//17 77//17
f 84//8 83//8 81//8
f 42//9 47//9 44//9
f 88//16 85//16 87//16
f 86//18 81//18 85//18
f 70//2 78//2 68//2
f 29//4 18//4 31//4
f 93//4 91//4 89//4
f 85//4 89//4 87//4
f 81//4 95//4 93//4
f 81//4 83//4 95//4
f 81//4 93//4 89//4
f 81//4 89//4 85//4
f 94//2 90//2 92//2
f 86//2 88//2 90//2
f 84//2 94//2 96//2
f 84//2 96//2 82//2
f 84//2 90//2 94//2
f 84//2 86//2 90//2
f 49//13 59//13 54//13
f 94//17 91//17 93//17
f 100//8 99//8 97//8
f 52//3 51//3 49//3
f 104//16 101//16 103//16
f 102//18 97//18 101//18
f 96//10 93//10 95//10
f 112//10 109//10 111//10
f 109//4 107//4 105//4
f 101//4 105//4 103//4
f 97//4 111//4 109//4
f 97//4 99//4 111//4
f 97//4 109//4 105//4
f 97//4 105//4 101//4
f 110//2 106//2 108//2
f 102//2 104//2 106//2
f 100//2 110//2 112//2
f 100//2 112//2 98//2
f 100//2 106//2 110//2
f 100//2 102//2 106//2
f 106//6 103//6 105//6
f 132//9 135//9 130//9
f 24//15 32//15 25//15
f 108//11 105//11 107//11
f 116//8 115//8 113//8
f 58//9 64//9 60//9
f 110//17 107//17 109//17
f 126//17 123//17 125//17
f 117//4 121//4 119//4
f 117//4 123//4 121//4
f 113//4 127//4 125//4
f 113//4 115//4 127//4
f 118//2 120//2 122//2
f 118//2 122//2 124//2
f 125//4 117//4 113//4
f 116//2 126//2 128//2
f 116//2 128//2 114//2
f 53//14 62//14 61//14
f 114//12 127//12 115//12
f 118//18 113//18 117//18
f 128//10 125//10 127//10
f 38//5 46//5 39//5
f 74//6 71//6 73//6
f 129//5 134//5 133//5
f 133//2 132//2 129//2
f 143//19 144//19 139//19
f 143//19 139//19 138//19
f 145//2 137//2 146//2
f 140//2 137//2 145//2
f 141//2 147//2 146//2
f 141//2 146//2 137//2
f 148//2 147//2 141//2
f 149//2 148//2 141//2
f 149//2 140//2 145//2
f 149//2 145//2 148//2
f 137//5 142//5 141//5
f 140//3 139//3 137//3
f 151//20 139//20 144//20
f 151//20 142//20 139//20
f 143//4 152//4 153//4
f 143//4 153//4 144//4
f 154//4 144//4 153//4
f 151//4 144//4 154//4
f 155//4 154//4 156//4
f 155//4 151//4 154//4
f 155//4 152//4 143//4
f 155//4 156//4 152//4
f 155//21 143//21 138//21
f 155//21 138//21 150//21
f 98//12 111//12 99//12
f 146//9 157//9 158//9
f 134//4 130//4 135//4
f 70//18 65//18 69//18
f 155//22 142//22 151//22
f 150//22 142//22 155//22
f 158//21 157//21 154//21
f 158//21 154//21 153//21
f 159//19 154//19 157//19
f 159//19 156//19 154//19
f 160//22 158//22 153//22
f 160//22 153//22 152//22
f 160//20 156//20 159//20
f 160//20 152//20 156//20
f 145//1 158//1 160//1
f 9//1 5//1 13//1
f 36//3 34//3 35//3
f 132//3 130//3 131//3
f 145//5 160//5 159//5
f 90//6 88//6 87//6
f 52//7 58//7 60//7
f 68//8 66//8 67//8
f 140//9 149//9 150//9
f 80//10 78//10 77//10
f 124//11 122//11 121//11
f 22//5 27//5 30//5
f 82//12 96//12 95//12
f 41//1 37//1 45//1
f 1//13 3//13 11//13
f 56//1 53//1 61//1
f 6//5 11//5 14//5
f 66//12 80//12 79//12
f 36//7 42//7 44//7
f 54//5 59//5 62//5
f 149//1 141//1 142//1
f 4//7 10//7 12//7
f 61//4 51//4 50//4
f 37//14 39//14 46//14
f 5//14 7//14 14//14
f 76//11 74//11 73//11
f 10//9 8//9 15//9
f 53//2 56//2 52//2
f 20//7 26//7 28//7
f 92//11 90//11 89//11
f 17//13 19//13 27//13
f 9//15 16//15 15//15
f 4//3 2//3 3//3
f 120//16 118//16 117//16
f 56//15 63//15 64//15
f 26//9 25//9 32//9
f 21//14 23//14 30//14
f 21//2 24//2 20//2
f 72//16 70//16 69//16
f 20//3 18//3 19//3
f 136//1 133//1 134//1
f 33//13 35//13 43//13
f 148//3 159//3 157//3
f 24//1 21//1 29//1
f 122//6 120//6 119//6
f 118//2 124//2 126//2
f 77//4 75//4 69//4
f 41//15 48//15 47//15
f 78//17 76//17 75//17
f 84//8 82//8 83//8
f 42//9 40//9 47//9
f 88//16 86//16 85//16
f 86//18 84//18 81//18
f 70//2 76//2 78//2
f 29//4 19//4 18//4
f 49//13 51//13 59//13
f 94//17 92//17 91//17
f 100//8 98//8 99//8
f 52//3 50//3 51//3
f 104//16 102//16 101//16
f 102//18 100//18 97//18
f 96//10 94//10 93//10
f 112//10 110//10 109//10
f 106//6 104//6 103//6
f 132//9 136//9 135//9
f 24//15 31//15 32//15
f 108//11 106//11 105//11
f 116//8 114//8 115//8
f 58//9 57//9 64//9
f 110//17 108//17 107//17
f 126//17 124//17 123//17
f 125//4 123//4 117//4
f 53//14 55//14 62//14
f 114//12 128//12 127//12
f 118//18 116//18 113//18
f 128//10 126//10 125//10
f 38//5 43//5 46//5
f 74//6 72//6 71//6
f 129//5 131//5 134//5
f 133//2 136//2 132//2
f 137//5 139//5 142//5
f 140//3 138//3 139//3
f 98//12 112//12 111//12
f 146//9 147//9 157//9
f 134//4 131//4 130//4
f 70//18 68//18 65//18
f 145//1 146//1 158//1
