# Blender 5.2.1 LTS
# www.blender.org
mtllib water_tower_trim.mtl
o water_tower_trim
v 3.141421 0.000000 -3.141421
v 3.200000 7.500000 -3.000000
v 3.200000 0.000000 -3.000000
v 3.141421 7.500000 -3.141421
v 3.000000 0.000000 -3.200000
v 3.000000 7.500000 -3.200000
v 2.858579 0.000000 -3.141421
v 2.858579 7.500000 -3.141421
v 2.800000 0.000000 -3.000000
v 2.800000 7.500000 -3.000000
v 2.858579 0.000000 -2.858579
v 2.858579 7.500000 -2.858579
v 3.000000 0.000000 -2.800000
v 3.000000 7.500000 -2.800000
v 3.141421 0.000000 -2.858579
v 3.141421 7.500000 -2.858579
v 3.141421 0.000000 2.858579
v 3.200000 7.500000 3.000000
v 3.200000 0.000000 3.000000
v 3.141421 7.500000 2.858579
v 3.000000 0.000000 2.800000
v 3.000000 7.500000 2.800000
v 2.858579 0.000000 2.858579
v 2.858579 7.500000 2.858579
v 2.800000 0.000000 3.000000
v 2.800000 7.500000 3.000000
v 2.858579 0.000000 3.141421
v 2.858579 7.500000 3.141421
v 3.000000 0.000000 3.200000
v 3.000000 7.500000 3.200000
v 3.141421 0.000000 3.141421
v 3.141421 7.500000 3.141421
v -2.858579 0.000000 -3.141421
v -2.800000 7.500000 -3.000000
v -2.800000 0.000000 -3.000000
v -2.858579 7.500000 -3.141421
v -3.000000 0.000000 -3.200000
v -3.000000 7.500000 -3.200000
v -3.141421 0.000000 -3.141421
v -3.141421 7.500000 -3.141421
v -3.200000 0.000000 -3.000000
v -3.200000 7.500000 -3.000000
v -3.141421 0.000000 -2.858579
v -3.141421 7.500000 -2.858579
v -3.000000 0.000000 -2.800000
v -3.000000 7.500000 -2.800000
v -2.858579 0.000000 -2.858579
v -2.858579 7.500000 -2.858579
v -2.858579 0.000000 2.858579
v -2.800000 7.500000 3.000000
v -2.800000 0.000000 3.000000
v -2.858579 7.500000 2.858579
v -3.000000 0.000000 2.800000
v -3.000000 7.500000 2.800000
v -3.141421 0.000000 2.858579
v -3.141421 7.500000 2.858579
v -3.200000 0.000000 3.000000
v -3.200000 7.500000 3.000000
v -3.141421 0.000000 3.141421
v -3.141421 7.500000 3.141421
v -3.000000 0.000000 3.200000
v -3.000000 7.500000 3.200000
v -2.858579 0.000000 3.141421
v -2.858579 7.500000 3.141421
v 4.249846 7.220000 -1.760344
v 4.600000 7.500000 0.000000
v 4.600000 7.220000 0.000000
v 4.249846 7.500000 -1.760344
v 3.252691 7.220000 -3.252691
v 3.252691 7.500000 -3.252691
v 1.760344 7.220000 -4.249846
v 1.760344 7.500000 -4.249846
v 0.000000 7.220000 -4.600000
v 0.000000 7.500000 -4.600000
v -1.760344 7.220000 -4.249846
v -1.760344 7.500000 -4.249846
v -3.252691 7.220000 -3.252691
v -3.252691 7.500000 -3.252691
v -4.249846 7.220000 -1.760344
v -4.249846 7.500000 -1.760344
v -4.600000 7.220000 -0.000000
v -4.600000 7.500000 -0.000000
v -4.249846 7.220000 1.760344
v -4.249846 7.500000 1.760344
v -3.252691 7.220000 3.252691
v -3.252691 7.500000 3.252691
v -1.760344 7.220000 4.249846
v -1.760344 7.500000 4.249846
v -0.000000 7.220000 4.600000
v -0.000000 7.500000 4.600000
v 1.760344 7.220000 4.249846
v 1.760344 7.500000 4.249846
v 3.252691 7.220000 3.252691
v 3.252691 7.500000 3.252691
v 4.249846 7.220000 1.760344
v 4.249846 7.500000 1.760344
vn -0.3827 -0.0000 -0.9239
vn -0.7071 -0.0000 0.7071
vn -0.9239 -0.0000 0.3827
vn 0.7071 -0.0000 -0.7071
vn 0.9239 -0.0000 -0.3827
vn -0.3827 -0.0000 0.9239
vn 0.3827 -0.0000 0.9239
vn 0.3827 -0.0000 -0.9239
vn -0.7071 -0.0000 -0.7071
vn -0.0000 -1.0000 -0.0000
vn -0.0000 1.0000 -0.0000
vn 0.9239 -0.0000 0.3827
vn -0.9239 -0.0000 -0.3827
vn -0.0000 -0.0000 1.0000
vn 1.0000 -0.0000 -0.0000
vn 0.7071 -0.0000 0.7071
vn -0.0000 -0.0000 -1.0000
vn -1.0000 -0.0000 -0.0000
s 1
usemtl paint
f 56//1 53//1 55//1
f 86//2 83//3 85//2
f 70//4 65//5 69//4
f 46//6 43//6 45//6
f 48//7 45//7 47//7
f 24//1 21//1 23//1
f 22//8 17//8 21//8
f 78//9 75//1 77//9
f 1//10 7//10 5//10
f 1//10 9//10 7//10
f 1//10 11//10 9//10
f 1//10 13//10 11//10
f 1//10 15//10 13//10
f 1//10 3//10 15//10
f 4//11 6//11 8//11
f 4//11 8//11 10//11
f 4//11 10//11 12//11
f 4//11 12//11 14//11
f 4//11 14//11 16//11
f 4//11 16//11 2//11
f 38//8 33//8 37//8
f 4//5 3//5 1//5
f 30//6 27//6 29//6
f 28//3 25//3 27//3
f 12//3 9//3 11//3
f 88//6 85//2 87//6
f 18//12 31//12 19//12
f 10//13 7//13 9//13
f 17//10 23//10 21//10
f 17//10 25//10 23//10
f 17//10 27//10 25//10
f 17//10 29//10 27//10
f 17//10 31//10 29//10
f 17//10 19//10 31//10
f 20//11 22//11 24//11
f 20//11 24//11 26//11
f 20//11 26//11 28//11
f 20//11 28//11 30//11
f 20//11 30//11 32//11
f 20//11 32//11 18//11
f 58//13 55//13 57//13
f 8//1 5//1 7//1
f 42//13 39//13 41//13
f 2//12 15//12 3//12
f 72//8 69//4 71//8
f 16//7 13//7 15//7
f 14//6 11//6 13//6
f 52//5 51//5 49//5
f 33//10 39//10 37//10
f 33//10 41//10 39//10
f 33//10 43//10 41//10
f 33//10 45//10 43//10
f 33//10 47//10 45//10
f 33//10 35//10 47//10
f 36//11 38//11 40//11
f 36//11 40//11 42//11
f 36//11 42//11 44//11
f 36//11 44//11 46//11
f 36//11 46//11 48//11
f 36//11 48//11 34//11
f 90//14 87//6 89//14
f 34//12 47//12 35//12
f 26//13 23//13 25//13
f 54//8 49//8 53//8
f 62//6 59//6 61//6
f 92//7 89//14 91//7
f 36//5 35//5 33//5
f 60//3 57//3 59//3
f 49//10 55//10 53//10
f 49//10 57//10 55//10
f 49//10 59//10 57//10
f 49//10 61//10 59//10
f 49//10 63//10 61//10
f 49//10 51//10 63//10
f 52//11 54//11 56//11
f 52//11 56//11 58//11
f 52//11 58//11 60//11
f 52//11 60//11 62//11
f 52//11 62//11 64//11
f 52//11 64//11 50//11
f 64//7 61//7 63//7
f 32//7 29//7 31//7
f 68//5 67//15 65//5
f 50//12 63//12 51//12
f 96//12 93//16 95//12
f 20//5 19//5 17//5
f 44//3 41//3 43//3
f 74//17 71//8 73//17
f 80//13 77//9 79//13
f 40//1 37//1 39//1
f 84//3 81//18 83//3
f 82//18 79//13 81//18
f 76//1 73//17 75//1
f 94//16 91//7 93//16
f 6//8 1//8 5//8
f 83//10 87//10 85//10
f 79//10 83//10 81//10
f 79//10 87//10 83//10
f 95//10 93//10 91//10
f 73//10 77//10 75//10
f 73//10 79//10 77//10
f 69//10 65//10 67//10
f 69//10 73//10 71//10
f 69//10 89//10 87//10
f 69//10 91//10 89//10
f 69//10 67//10 95//10
f 69//10 87//10 79//10
f 69//10 95//10 91//10
f 69//10 79//10 73//10
f 84//11 86//11 88//11
f 80//11 82//11 84//11
f 80//11 84//11 88//11
f 96//11 92//11 94//11
f 74//11 76//11 78//11
f 74//11 78//11 80//11
f 70//11 66//11 68//11
f 70//11 72//11 74//11
f 70//11 88//11 90//11
f 70//11 90//11 92//11
f 70//11 96//11 66//11
f 70//11 80//11 88//11
f 70//11 92//11 96//11
f 70//11 74//11 80//11
f 66//15 95//12 67//15
f 56//1 54//1 53//1
f 86//2 84//3 83//3
f 70//4 68//5 65//5
f 46//6 44//6 43//6
f 48//7 46//7 45//7
f 24//1 22//1 21//1
f 22//8 20//8 17//8
f 78//9 76//1 75//1
f 38//8 36//8 33//8
f 4//5 2//5 3//5
f 30//6 28//6 27//6
f 28//3 26//3 25//3
f 12//3 10//3 9//3
f 88//6 86//2 85//2
f 18//12 32//12 31//12
f 10//13 8//13 7//13
f 58//13 56//13 55//13
f 8//1 6//1 5//1
f 42//13 40//13 39//13
f 2//12 16//12 15//12
f 72//8 70//4 69//4
f 16//7 14//7 13//7
f 14//6 12//6 11//6
f 52//5 50//5 51//5
f 90//14 88//6 87//6
f 34//12 48//12 47//12
f 26//13 24//13 23//13
f 54//8 52//8 49//8
f 62//6 60//6 59//6
f 92//7 90//14 89//14
f 36//5 34//5 35//5
f 60//3 58//3 57//3
f 64//7 62//7 61//7
f 32//7 30//7 29//7
f 68//5 66//15 67//15
f 50//12 64//12 63//12
f 96//12 94//16 93//16
f 20//5 18//5 19//5
f 44//3 42//3 41//3
f 74//17 72//8 71//8
f 80//13 78//9 77//9
f 40//1 38//1 37//1
f 84//3 82//18 81//18
f 82//18 80//13 79//13
f 76//1 74//17 73//17
f 94//16 92//7 91//7
f 6//8 4//8 1//8
f 66//15 96//12 95//12
