# Blender 5.2.1 LTS
# www.blender.org
mtllib water_tower_dark.mtl
o water_tower_dark
v 0.056569 0.000000 3.293432
v 0.080000 7.500000 3.350000
v 0.080000 0.000000 3.350000
v 0.056569 7.500000 3.293432
v 0.000000 0.000000 3.270000
v 0.000000 7.500000 3.270000
v -0.056569 0.000000 3.293432
v -0.056569 7.500000 3.293432
v -0.080000 0.000000 3.350000
v -0.080000 7.500000 3.350000
v -0.056569 0.000000 3.406569
v -0.056569 7.500000 3.406569
v -0.000000 0.000000 3.430000
v -0.000000 7.500000 3.430000
v 0.056569 0.000000 3.406569
v 0.056569 7.500000 3.406569
vn -0.9239 -0.0000 0.3827
vn -0.3827 -0.0000 -0.9239
vn -0.3827 -0.0000 0.9239
vn 0.9239 -0.0000 -0.3827
vn 0.3827 -0.0000 -0.9239
vn -0.0000 -1.0000 -0.0000
vn -0.9239 -0.0000 -0.3827
vn 0.3827 -0.0000 0.9239
vn -0.0000 1.0000 -0.0000
vn 0.9239 -0.0000 0.3827
s 1
usemtl paint
f 12//1 9//1 11//1
f 8//2 5//2 7//2
f 14//3 11//3 13//3
f 4//4 3//4 1//4
f 6//5 1//5 5//5
f 7//6 15//6 11//6
f 10//7 7//7 9//7
f 16//8 13//8 15//8
f 7//6 11//6 9//6
f 15//6 13//6 11//6
f 1//6 7//6 5//6
f 1//6 3//6 15//6
f 8//9 16//9 4//9
f 8//9 10//9 12//9
f 16//9 12//9 14//9
f 4//9 6//9 8//9
f 4//9 16//9 2//9
f 2//10 15//10 3//10
f 12//1 10//1 9//1
f 8//2 6//2 5//2
f 14//3 12//3 11//3
f 4//4 2//4 3//4
f 6//5 4//5 1//5
f 7//6 1//6 15//6
f 10//7 8//7 7//7
f 16//8 14//8 13//8
f 8//9 12//9 16//9
f 2//10 16//10 15//10
