# Blender 5.2.1 LTS
# www.blender.org
mtllib water_tower_band.mtl
o water_tower_band
v 2.226550 8.250000 -0.922267
v 2.410000 8.400000 0.000000
v 2.410000 8.250000 0.000000
v 2.226550 8.400000 -0.922267
v 1.704127 8.250000 -1.704127
v 1.704127 8.400000 -1.704127
v 0.922267 8.250000 -2.226550
v 0.922267 8.400000 -2.226550
v 0.000000 8.250000 -2.410000
v 0.000000 8.400000 -2.410000
v -0.922267 8.250000 -2.226550
v -0.922267 8.400000 -2.226550
v -1.704127 8.250000 -1.704127
v -1.704127 8.400000 -1.704127
v -2.226550 8.250000 -0.922267
v -2.226550 8.400000 -0.922267
v -2.410000 8.250000 -0.000000
v -2.410000 8.400000 -0.000000
v -2.226550 8.250000 0.922267
v -2.226550 8.400000 0.922267
v -1.704127 8.250000 1.704127
v -1.704127 8.400000 1.704127
v -0.922267 8.250000 2.226550
v -0.922267 8.400000 2.226550
v -0.000000 8.250000 2.410000
v -0.000000 8.400000 2.410000
v 0.922267 8.250000 2.226550
v 0.922267 8.400000 2.226550
v 1.704127 8.250000 1.704127
v 1.704127 8.400000 1.704127
v 2.226550 8.250000 0.922267
v 2.226550 8.400000 0.922267
v 2.226550 9.350000 -0.922267
v 2.410000 9.500000 0.000000
v 2.410000 9.350000 0.000000
v 2.226550 9.500000 -0.922267
v 1.704127 9.350000 -1.704127
v 1.704127 9.500000 -1.704127
v 0.922267 9.350000 -2.226550
v 0.922267 9.500000 -2.226550
v 0.000000 9.350000 -2.410000
v 0.000000 9.500000 -2.410000
v -0.922267 9.350000 -2.226550
v -0.922267 9.500000 -2.226550
v -1.704127 9.350000 -1.704127
v -1.704127 9.500000 -1.704127
v -2.226550 9.350000 -0.922267
v -2.226550 9.500000 -0.922267
v -2.410000 9.350000 -0.000000
v -2.410000 9.500000 -0.000000
v -2.226550 9.350000 0.922267
v -2.226550 9.500000 0.922267
v -1.704127 9.350000 1.704127
v -1.704127 9.500000 1.704127
v -0.922267 9.350000 2.226550
v -0.922267 9.500000 2.226550
v -0.000000 9.350000 2.410000
v -0.000000 9.500000 2.410000
v 0.922267 9.350000 2.226550
v 0.922267 9.500000 2.226550
v 1.704127 9.350000 1.704127
v 1.704127 9.500000 1.704127
v 2.226550 9.350000 0.922267
v 2.226550 9.500000 0.922267
v 2.226550 10.450000 -0.922267
v 2.410000 10.600000 0.000000
v 2.410000 10.450000 0.000000
v 2.226550 10.600000 -0.922267
v 1.704127 10.450000 -1.704127
v 1.704127 10.600000 -1.704127
v 0.922267 10.450000 -2.226550
v 0.922267 10.600000 -2.226550
v 0.000000 10.450000 -2.410000
v 0.000000 10.600000 -2.410000
v -0.922267 10.450000 -2.226550
v -0.922267 10.600000 -2.226550
v -1.704127 10.450000 -1.704127
v -1.704127 10.600000 -1.704127
v -2.226550 10.450000 -0.922267
v -2.226550 10.600000 -0.922267
v -2.410000 10.450000 -0.000000
v -2.410000 10.600000 -0.000000
v -2.226550 10.450000 0.922267
v -2.226550 10.600000 0.922267
v -1.704127 10.450000 1.704127
v -1.704127 10.600000 1.704127
v -0.922267 10.450000 2.226550
v -0.922267 10.600000 2.226550
v -0.000000 10.450000 2.410000
v -0.000000 10.600000 2.410000
v 0.922267 10.450000 2.226550
v 0.922267 10.600000 2.226550
v 1.704127 10.450000 1.704127
v 1.704127 10.600000 1.704127
v 2.226550 10.450000 0.922267
v 2.226550 10.600000 0.922267
vn -0.9239 -0.0000 0.3827
vn -1.0000 -0.0000 -0.0000
vn -0.7071 -0.0000 -0.7071
vn -0.3827 -0.0000 -0.9239
vn 1.0000 -0.0000 -0.0000
vn 0.9239 -0.0000 0.3827
vn -0.0000 -0.0000 -1.0000
vn 0.3827 -0.0000 -0.9239
vn 0.7071 -0.0000 0.7071
vn 0.3827 -0.0000 0.9239
vn -0.0000 -0.0000 1.0000
vn -0.3827 -0.0000 0.9239
vn -0.7071 -0.0000 0.7071
vn 0.7071 -0.0000 -0.7071
vn 0.9239 -0.0000 -0.3827
vn -0.0000 1.0000 -0.0000
vn -0.0000 -1.0000 -0.0000
vn -0.9239 -0.0000 -0.3827
s 1
usemtl paint
f 52//1 49//2 51//1
f 78//3 75//4 77//3
f 34//5 63//6 35//5
f 42//7 39//8 41//7
f 94//9 91//10 93//9
f 58//11 55//12 57//11
f 22//13 19//1 21//13
f 70//14 65//15 69//14
f 8//16 24//16 6//16
f 4//15 3//5 1//15
f 30//9 27//10 29//9
f 28//10 25//11 27//10
f 12//4 9//7 11//4
f 6//14 1//15 5//14
f 2//5 31//6 3//5
f 10//7 7//8 9//7
f 3//17 29//17 27//17
f 3//17 31//17 29//17
f 1//17 25//17 23//17
f 1//17 27//17 25//17
f 1//17 3//17 27//17
f 7//17 11//17 9//17
f 7//17 13//17 11//17
f 7//17 15//17 13//17
f 7//17 17//17 15//17
f 7//17 19//17 17//17
f 7//17 21//17 19//17
f 54//13 51//1 53//13
f 5//17 1//17 23//17
f 2//16 28//16 30//16
f 2//16 30//16 32//16
f 4//16 24//16 26//16
f 4//16 26//16 28//16
f 4//16 28//16 2//16
f 8//16 10//16 12//16
f 8//16 12//16 14//16
f 8//16 14//16 16//16
f 8//16 16//16 18//16
f 8//16 18//16 20//16
f 8//16 20//16 22//16
f 8//8 5//14 7//8
f 6//16 24//16 4//16
f 38//14 33//15 37//14
f 18//2 15//18 17//2
f 55//17 39//17 37//17
f 16//18 13//3 15//18
f 46//3 43//4 45//3
f 14//3 11//4 13//3
f 80//18 77//3 79//18
f 96//6 93//9 95//6
f 26//11 23//12 25//11
f 50//2 47//18 49//2
f 66//5 95//6 67//5
f 24//12 21//13 23//12
f 23//17 7//17 5//17
f 56//12 53//13 55//12
f 60//10 57//11 59//10
f 32//6 29//9 31//6
f 35//17 61//17 59//17
f 35//17 63//17 61//17
f 33//17 57//17 55//17
f 33//17 59//17 57//17
f 33//17 35//17 59//17
f 39//17 43//17 41//17
f 39//17 45//17 43//17
f 39//17 47//17 45//17
f 39//17 49//17 47//17
f 39//17 51//17 49//17
f 39//17 53//17 51//17
f 64//6 61//9 63//6
f 37//17 33//17 55//17
f 34//16 60//16 62//16
f 34//16 62//16 64//16
f 36//16 56//16 58//16
f 36//16 58//16 60//16
f 36//16 60//16 34//16
f 40//16 42//16 44//16
f 40//16 44//16 46//16
f 40//16 46//16 48//16
f 40//16 48//16 50//16
f 40//16 50//16 52//16
f 40//16 52//16 54//16
f 62//9 59//10 61//9
f 38//16 56//16 36//16
f 87//17 71//17 69//17
f 20//1 17//2 19//1
f 40//8 37//14 39//8
f 40//16 56//16 38//16
f 72//8 69//14 71//8
f 36//15 35//5 33//15
f 76//4 73//7 75//4
f 74//7 71//8 73//7
f 68//15 67//5 65//15
f 48//18 45//3 47//18
f 82//2 79//18 81//2
f 88//12 85//13 87//12
f 92//10 89//11 91//10
f 90//11 87//12 89//11
f 84//1 81//2 83//1
f 67//17 93//17 91//17
f 67//17 95//17 93//17
f 65//17 89//17 87//17
f 65//17 91//17 89//17
f 65//17 67//17 91//17
f 71//17 75//17 73//17
f 71//17 77//17 75//17
f 71//17 79//17 77//17
f 71//17 81//17 79//17
f 71//17 83//17 81//17
f 71//17 85//17 83//17
f 86//13 83//1 85//13
f 69//17 65//17 87//17
f 66//16 92//16 94//16
f 66//16 94//16 96//16
f 68//16 88//16 90//16
f 68//16 90//16 92//16
f 68//16 92//16 66//16
f 72//16 74//16 76//16
f 72//16 76//16 78//16
f 72//16 78//16 80//16
f 72//16 80//16 82//16
f 72//16 82//16 84//16
f 72//16 84//16 86//16
f 44//4 41//7 43//4
f 70//16 88//16 68//16
f 72//16 88//16 70//16
f 52//1 50//2 49//2
f 78//3 76//4 75//4
f 34//5 64//6 63//6
f 42//7 40//8 39//8
f 94//9 92//10 91//10
f 58//11 56//12 55//12
f 22//13 20//1 19//1
f 70//14 68//15 65//15
f 8//16 22//16 24//16
f 4//15 2//5 3//5
f 30//9 28//10 27//10
f 28//10 26//11 25//11
f 12//4 10//7 9//7
f 6//14 4//15 1//15
f 2//5 32//6 31//6
f 10//7 8//8 7//8
f 54//13 52//1 51//1
f 8//8 6//14 5//14
f 38//14 36//15 33//15
f 18//2 16//18 15//18
f 55//17 53//17 39//17
f 16//18 14//3 13//3
f 46//3 44//4 43//4
f 14//3 12//4 11//4
f 80//18 78//3 77//3
f 96//6 94//9 93//9
f 26//11 24//12 23//12
f 50//2 48//18 47//18
f 66//5 96//6 95//6
f 24//12 22//13 21//13
f 23//17 21//17 7//17
f 56//12 54//13 53//13
f 60//10 58//11 57//11
f 32//6 30//9 29//9
f 64//6 62//9 61//9
f 62//9 60//10 59//10
f 87//17 85//17 71//17
f 20//1 18//2 17//2
f 40//8 38//14 37//14
f 40//16 54//16 56//16
f 72//8 70//14 69//14
f 36//15 34//5 35//5
f 76//4 74//7 73//7
f 74//7 72//8 71//8
f 68//15 66//5 67//5
f 48//18 46//3 45//3
f 82//2 80//18 79//18
f 88//12 86//13 85//13
f 92//10 90//11 89//11
f 90//11 88//12 87//12
f 84//1 82//2 81//2
f 86//13 84//1 83//1
f 44//4 42//7 41//7
f 72//16 86//16 88//16
