# Blender 5.2.1 LTS
# www.blender.org
mtllib water_tower_metal.mtl
o water_tower_metal
v -3.014230 1.642691 -2.955000
v -2.985770 1.557309 -3.045000
v -2.985770 1.557309 -2.955000
v -3.014230 1.642691 -3.045000
v 2.985770 3.642691 -2.955000
v 3.014230 3.557309 -2.955000
v 3.014230 3.557309 -3.045000
v 2.985770 3.642691 -3.045000
v -2.985770 3.642691 -2.955000
v -3.014230 3.557309 -3.045000
v -3.014230 3.557309 -2.955000
v -2.985770 3.642691 -3.045000
v 3.014230 1.642691 -2.955000
v 2.985770 1.557309 -2.955000
v 2.985770 1.557309 -3.045000
v 3.014230 1.642691 -3.045000
v -3.014230 1.642691 3.045000
v -2.985770 1.557309 2.955000
v -2.985770 1.557309 3.045000
v -3.014230 1.642691 2.955000
v 2.985770 3.642691 3.045000
v 3.014230 3.557309 3.045000
v 3.014230 3.557309 2.955000
v 2.985770 3.642691 2.955000
v -2.985770 3.642691 3.045000
v -3.014230 3.557309 2.955000
v -3.014230 3.557309 3.045000
v -2.985770 3.642691 2.955000
v 3.014230 1.642691 3.045000
v 2.985770 1.557309 3.045000
v 2.985770 1.557309 2.955000
v 3.014230 1.642691 2.955000
v -2.955000 1.642691 3.014230
v -3.045000 1.557309 2.985770
v -2.955000 1.557309 2.985770
v -3.045000 1.642691 3.014230
v -2.955000 3.642691 -2.985770
v -2.955000 3.557309 -3.014230
v -3.045000 3.557309 -3.014230
v -3.045000 3.642691 -2.985770
v -2.955000 3.642691 2.985770
v -3.045000 3.557309 3.014230
v -2.955000 3.557309 3.014230
v -3.045000 3.642691 2.985770
v -2.955000 1.642691 -3.014230
v -2.955000 1.557309 -2.985770
v -3.045000 1.557309 -2.985770
v -3.045000 1.642691 -3.014230
v 3.045000 1.642691 3.014230
v 2.955000 1.557309 2.985770
v 3.045000 1.557309 2.985770
v 2.955000 1.642691 3.014230
v 3.045000 3.642691 -2.985770
v 3.045000 3.557309 -3.014230
v 2.955000 3.557309 -3.014230
v 2.955000 3.642691 -2.985770
v 3.045000 3.642691 2.985770
v 2.955000 3.557309 3.014230
v 3.045000 3.557309 3.014230
v 2.955000 3.642691 2.985770
v 3.045000 1.642691 -3.014230
v 3.045000 1.557309 -2.985770
v 2.955000 1.557309 -2.985770
v 2.955000 1.642691 -3.014230
v -3.014230 4.442691 -2.955000
v -2.985770 4.357309 -3.045000
v -2.985770 4.357309 -2.955000
v -3.014230 4.442691 -3.045000
v 2.985770 6.442691 -2.955000
v 3.014230 6.357309 -2.955000
v 3.014230 6.357309 -3.045000
v 2.985770 6.442691 -3.045000
v -2.985770 6.442691 -2.955000
v -3.014230 6.357309 -3.045000
v -3.014230 6.357309 -2.955000
v -2.985770 6.442691 -3.045000
v 3.014230 4.442691 -2.955000
v 2.985770 4.357309 -2.955000
v 2.985770 4.357309 -3.045000
v 3.014230 4.442691 -3.045000
v -3.014230 4.442691 3.045000
v -2.985770 4.357309 2.955000
v -2.985770 4.357309 3.045000
v -3.014230 4.442691 2.955000
v 2.985770 6.442691 3.045000
v 3.014230 6.357309 3.045000
v 3.014230 6.357309 2.955000
v 2.985770 6.442691 2.955000
v -2.985770 6.442691 3.045000
v -3.014230 6.357309 2.955000
v -3.014230 6.357309 3.045000
v -2.985770 6.442691 2.955000
v 3.014230 4.442691 3.045000
v 2.985770 4.357309 3.045000
v 2.985770 4.357309 2.955000
v 3.014230 4.442691 2.955000
v -2.955000 4.442691 3.014230
v -3.045000 4.357309 2.985770
v -2.955000 4.357309 2.985770
v -3.045000 4.442691 3.014230
v -2.955000 6.442691 -2.985770
v -2.955000 6.357309 -3.014230
v -3.045000 6.357309 -3.014230
v -3.045000 6.442691 -2.985770
v -2.955000 6.442691 2.985770
v -3.045000 6.357309 3.014230
v -2.955000 6.357309 3.014230
v -3.045000 6.442691 2.985770
v -2.955000 4.442691 -3.014230
v -2.955000 4.357309 -2.985770
v -3.045000 4.357309 -2.985770
v -3.045000 4.442691 -3.014230
v 3.045000 4.442691 3.014230
v 2.955000 4.357309 2.985770
v 3.045000 4.357309 2.985770
v 2.955000 4.442691 3.014230
v 3.045000 6.442691 -2.985770
v 3.045000 6.357309 -3.014230
v 2.955000 6.357309 -3.014230
v 2.955000 6.442691 -2.985770
v 3.045000 6.442691 2.985770
v 2.955000 6.357309 3.014230
v 3.045000 6.357309 3.014230
v 2.955000 6.442691 2.985770
v 3.045000 4.442691 -3.014230
v 3.045000 4.357309 -2.985770
v 2.955000 4.357309 -2.985770
v 2.955000 4.442691 -3.014230
v 4.317500 7.500000 -0.030311
v 4.335000 8.350000 0.000000
v 4.335000 7.500000 0.000000
v 4.317500 8.350000 -0.030311
v 4.282500 7.500000 -0.030311
v 4.282500 8.350000 -0.030311
v 4.265000 7.500000 -0.000000
v 4.265000 8.350000 -0.000000
v 4.282500 7.500000 0.030311
v 4.282500 8.350000 0.030311
v 4.317500 7.500000 0.030311
v 4.317500 8.350000 0.030311
v 3.990182 7.500000 -1.675850
v 4.007682 8.350000 -1.645539
v 4.007682 7.500000 -1.645539
v 3.990182 8.350000 -1.675850
v 3.955182 7.500000 -1.675850
v 3.955182 8.350000 -1.675850
v 3.937682 7.500000 -1.645539
v 3.937682 8.350000 -1.645539
v 3.955182 7.500000 -1.615228
v 3.955182 8.350000 -1.615228
v 3.990182 7.500000 -1.615228
v 3.990182 8.350000 -1.615228
v 3.058059 7.500000 -3.070870
v 3.075559 8.350000 -3.040559
v 3.075559 7.500000 -3.040559
v 3.058059 8.350000 -3.070870
v 3.023059 7.500000 -3.070870
v 3.023059 8.350000 -3.070870
v 3.005559 7.500000 -3.040559
v 3.005559 8.350000 -3.040559
v 3.023059 7.500000 -3.010248
v 3.023059 8.350000 -3.010248
v 3.058059 7.500000 -3.010248
v 3.058059 8.350000 -3.010248
v -3.023059 7.500000 -3.070870
v -3.005559 8.350000 -3.040559
v -3.005559 7.500000 -3.040559
v -3.023059 8.350000 -3.070870
v -3.058059 7.500000 -3.070870
v -3.058059 8.350000 -3.070870
v -3.075559 7.500000 -3.040559
v -3.075559 8.350000 -3.040559
v -3.058059 7.500000 -3.010248
v -3.058059 8.350000 -3.010248
v -3.023059 7.500000 -3.010248
v -3.023059 8.350000 -3.010248
v -3.955182 7.500000 -1.675850
v -3.937682 8.350000 -1.645539
v -3.937682 7.500000 -1.645539
v -3.955182 8.350000 -1.675850
v -3.990182 7.500000 -1.675850
v -3.990182 8.350000 -1.675850
v -4.007682 7.500000 -1.645539
v -4.007682 8.350000 -1.645539
v -3.990182 7.500000 -1.615228
v -3.990182 8.350000 -1.615228
v -3.955182 7.500000 -1.615228
v -3.955182 8.350000 -1.615228
v -4.282500 7.500000 -0.030311
v -4.265000 8.350000 -0.000000
v -4.265000 7.500000 -0.000000
v -4.282500 8.350000 -0.030311
v -4.317500 7.500000 -0.030311
v -4.317500 8.350000 -0.030311
v -4.335000 7.500000 -0.000000
v -4.335000 8.350000 -0.000000
v -4.317500 7.500000 0.030311
v -4.317500 8.350000 0.030311
v -4.282500 7.500000 0.030311
v -4.282500 8.350000 0.030311
v -3.955182 7.500000 1.615228
v -3.937682 8.350000 1.645539
v -3.937682 7.500000 1.645539
v -3.955182 8.350000 1.615228
v -3.990182 7.500000 1.615228
v -3.990182 8.350000 1.615228
v -4.007682 7.500000 1.645539
v -4.007682 8.350000 1.645539
v -3.990182 7.500000 1.675850
v -3.990182 8.350000 1.675850
v -3.955182 7.500000 1.675850
v -3.955182 8.350000 1.675850
v -3.023059 7.500000 3.010248
v -3.005559 8.350000 3.040559
v -3.005559 7.500000 3.040559
v -3.023059 8.350000 3.010248
v -3.058059 7.500000 3.010248
v -3.058059 8.350000 3.010248
v -3.075559 7.500000 3.040559
v -3.075559 8.350000 3.040559
v -3.058059 7.500000 3.070870
v -3.058059 8.350000 3.070870
v -3.023059 7.500000 3.070870
v -3.023059 8.350000 3.070870
v -1.628039 7.500000 3.942371
v -1.610539 8.350000 3.972682
v -1.610539 7.500000 3.972682
v -1.628039 8.350000 3.942371
v -1.663039 7.500000 3.942371
v -1.663039 8.350000 3.942371
v -1.680539 7.500000 3.972682
v -1.680539 8.350000 3.972682
v -1.663039 7.500000 4.002993
v -1.663039 8.350000 4.002993
v -1.628039 7.500000 4.002993
v -1.628039 8.350000 4.002993
v 0.017500 7.500000 4.269689
v 0.035000 8.350000 4.300000
v 0.035000 7.500000 4.300000
v 0.017500 8.350000 4.269689
v -0.017500 7.500000 4.269689
v -0.017500 8.350000 4.269689
v -0.035000 7.500000 4.300000
v -0.035000 8.350000 4.300000
v -0.017500 7.500000 4.330311
v -0.017500 8.350000 4.330311
v 0.017500 7.500000 4.330311
v 0.017500 8.350000 4.330311
v 1.663039 7.500000 3.942371
v 1.680539 8.350000 3.972682
v 1.680539 7.500000 3.972682
v 1.663039 8.350000 3.942371
v 1.628039 7.500000 3.942371
v 1.628039 8.350000 3.942371
v 1.610539 7.500000 3.972682
v 1.610539 8.350000 3.972682
v 1.628039 7.500000 4.002993
v 1.628039 8.350000 4.002993
v 1.663039 7.500000 4.002993
v 1.663039 8.350000 4.002993
v 3.058059 7.500000 3.010248
v 3.075559 8.350000 3.040559
v 3.075559 7.500000 3.040559
v 3.058059 8.350000 3.010248
v 3.023059 7.500000 3.010248
v 3.023059 8.350000 3.010248
v 3.005559 7.500000 3.040559
v 3.005559 8.350000 3.040559
v 3.023059 7.500000 3.070870
v 3.023059 8.350000 3.070870
v 3.058059 7.500000 3.070870
v 3.058059 8.350000 3.070870
v 3.990182 7.500000 1.615228
v 4.007682 8.350000 1.645539
v 4.007682 7.500000 1.645539
v 3.990182 8.350000 1.615228
v 3.955182 7.500000 1.615228
v 3.955182 8.350000 1.615228
v 3.937682 7.500000 1.645539
v 3.937682 8.350000 1.645539
v 3.955182 7.500000 1.675850
v 3.955182 8.350000 1.675850
v 3.990182 7.500000 1.675850
v 3.990182 8.350000 1.675850
v 4.324520 8.375000 -0.004877
v 4.275480 8.325000 0.004877
v 4.324520 8.325000 -0.004877
v 4.275480 8.375000 0.004877
v 3.997202 8.375000 -1.650416
v 3.997202 8.325000 -1.650416
v 3.948162 8.325000 -1.640661
v 3.948162 8.375000 -1.640661
v 3.993469 8.375000 -1.659428
v 3.951895 8.325000 -1.631649
v 3.993469 8.325000 -1.659428
v 3.951895 8.375000 -1.631649
v 3.061346 8.375000 -3.054448
v 3.061346 8.325000 -3.054448
v 3.019773 8.325000 -3.026670
v 3.019773 8.375000 -3.026670
v -3.061346 8.375000 -3.054448
v -3.019773 8.325000 -3.026670
v -3.061346 8.325000 -3.054448
v -3.019773 8.375000 -3.026670
v -3.993469 8.375000 -1.659428
v -3.993469 8.325000 -1.659428
v -3.951895 8.325000 -1.631649
v -3.951895 8.375000 -1.631649
v -3.997202 8.375000 -1.650416
v -3.948162 8.325000 -1.640661
v -3.997202 8.325000 -1.650416
v -3.948162 8.375000 -1.640661
v -4.324520 8.375000 -0.004877
v -4.324520 8.325000 -0.004877
v -4.275480 8.325000 0.004877
v -4.275480 8.375000 0.004877
v -4.324520 8.375000 0.004877
v -4.275480 8.325000 -0.004877
v -4.324520 8.325000 0.004877
v -4.275480 8.375000 -0.004877
v -3.997202 8.375000 1.650416
v -3.997202 8.325000 1.650416
v -3.948162 8.325000 1.640661
v -3.948162 8.375000 1.640661
v -3.993469 8.375000 1.659428
v -3.951895 8.325000 1.631649
v -3.993469 8.325000 1.659428
v -3.951895 8.375000 1.631649
v -3.061346 8.375000 3.054448
v -3.061346 8.325000 3.054448
v -3.019773 8.325000 3.026670
v -3.019773 8.375000 3.026670
v -3.054448 8.375000 3.061346
v -3.026670 8.325000 3.019773
v -3.054448 8.325000 3.061346
v -3.026670 8.375000 3.019773
v -1.659428 8.375000 3.993469
v -1.659428 8.325000 3.993469
v -1.631649 8.325000 3.951895
v -1.631649 8.375000 3.951895
v -1.650416 8.375000 3.997202
v -1.640661 8.325000 3.948162
v -1.650416 8.325000 3.997202
v -1.640661 8.375000 3.948162
v -0.004877 8.375000 4.324520
v -0.004877 8.325000 4.324520
v 0.004877 8.325000 4.275480
v 0.004877 8.375000 4.275480
v 0.004877 8.375000 4.324520
v -0.004877 8.325000 4.275480
v 0.004877 8.325000 4.324520
v -0.004877 8.375000 4.275480
v 1.650416 8.375000 3.997202
v 1.650416 8.325000 3.997202
v 1.640661 8.325000 3.948162
v 1.640661 8.375000 3.948162
v 1.659428 8.375000 3.993469
v 1.631649 8.325000 3.951895
v 1.659428 8.325000 3.993469
v 1.631649 8.375000 3.951895
v 3.054448 8.375000 3.061346
v 3.054448 8.325000 3.061346
v 3.026670 8.325000 3.019773
v 3.026670 8.375000 3.019773
v 3.061346 8.375000 3.054448
v 3.019773 8.325000 3.026670
v 3.061346 8.325000 3.054448
v 3.019773 8.375000 3.026670
v 3.993469 8.375000 1.659428
v 3.993469 8.325000 1.659428
v 3.951895 8.325000 1.631649
v 3.951895 8.375000 1.631649
v 2.765000 7.500000 -3.255000
v 2.765000 0.000000 -3.305000
v 2.765000 0.000000 -3.255000
v 2.765000 7.500000 -3.305000
v 2.815000 7.500000 -3.255000
v 2.815000 0.000000 -3.255000
v 2.815000 0.000000 -3.305000
v 2.815000 7.500000 -3.305000
v 3.185000 7.500000 -3.255000
v 3.185000 0.000000 -3.305000
v 3.185000 0.000000 -3.255000
v 3.185000 7.500000 -3.305000
v 3.235000 7.500000 -3.255000
v 3.235000 0.000000 -3.255000
v 3.235000 0.000000 -3.305000
v 3.235000 7.500000 -3.305000
v 2.790000 0.335000 -3.262500
v 2.790000 0.300000 -3.297500
v 2.790000 0.300000 -3.262500
v 2.790000 0.335000 -3.297500
v 3.210000 0.335000 -3.262500
v 3.210000 0.300000 -3.262500
v 3.210000 0.300000 -3.297500
v 3.210000 0.335000 -3.297500
v 2.790000 0.635000 -3.262500
v 2.790000 0.600000 -3.297500
v 2.790000 0.600000 -3.262500
v 2.790000 0.635000 -3.297500
v 3.210000 0.635000 -3.262500
v 3.210000 0.600000 -3.262500
v 3.210000 0.600000 -3.297500
v 3.210000 0.635000 -3.297500
v 2.790000 0.935000 -3.262500
v 2.790000 0.900000 -3.297500
v 2.790000 0.900000 -3.262500
v 2.790000 0.935000 -3.297500
v 3.210000 0.935000 -3.262500
v 3.210000 0.900000 -3.262500
v 3.210000 0.900000 -3.297500
v 3.210000 0.935000 -3.297500
v 2.790000 1.235000 -3.262500
v 2.790000 1.200000 -3.297500
v 2.790000 1.200000 -3.262500
v 2.790000 1.235000 -3.297500
v 3.210000 1.235000 -3.262500
v 3.210000 1.200000 -3.262500
v 3.210000 1.200000 -3.297500
v 3.210000 1.235000 -3.297500
v 2.790000 1.535000 -3.262500
v 2.790000 1.500000 -3.297500
v 2.790000 1.500000 -3.262500
v 2.790000 1.535000 -3.297500
v 3.210000 1.535000 -3.262500
v 3.210000 1.500000 -3.262500
v 3.210000 1.500000 -3.297500
v 3.210000 1.535000 -3.297500
v 2.790000 1.835000 -3.262500
v 2.790000 1.800000 -3.297500
v 2.790000 1.800000 -3.262500
v 2.790000 1.835000 -3.297500
v 3.210000 1.835000 -3.262500
v 3.210000 1.800000 -3.262500
v 3.210000 1.800000 -3.297500
v 3.210000 1.835000 -3.297500
v 2.790000 2.135000 -3.262500
v 2.790000 2.100000 -3.297500
v 2.790000 2.100000 -3.262500
v 2.790000 2.135000 -3.297500
v 3.210000 2.135000 -3.262500
v 3.210000 2.100000 -3.262500
v 3.210000 2.100000 -3.297500
v 3.210000 2.135000 -3.297500
v 2.790000 2.435000 -3.262500
v 2.790000 2.400000 -3.297500
v 2.790000 2.400000 -3.262500
v 2.790000 2.435000 -3.297500
v 3.210000 2.435000 -3.262500
v 3.210000 2.400000 -3.262500
v 3.210000 2.400000 -3.297500
v 3.210000 2.435000 -3.297500
v 2.790000 2.735000 -3.262500
v 2.790000 2.700000 -3.297500
v 2.790000 2.700000 -3.262500
v 2.790000 2.735000 -3.297500
v 3.210000 2.735000 -3.262500
v 3.210000 2.700000 -3.262500
v 3.210000 2.700000 -3.297500
v 3.210000 2.735000 -3.297500
v 2.790000 3.035000 -3.262500
v 2.790000 3.000000 -3.297500
v 2.790000 3.000000 -3.262500
v 2.790000 3.035000 -3.297500
v 3.210000 3.035000 -3.262500
v 3.210000 3.000000 -3.262500
v 3.210000 3.000000 -3.297500
v 3.210000 3.035000 -3.297500
v 2.790000 3.335000 -3.262500
v 2.790000 3.300000 -3.297500
v 2.790000 3.300000 -3.262500
v 2.790000 3.335000 -3.297500
v 3.210000 3.335000 -3.262500
v 3.210000 3.300000 -3.262500
v 3.210000 3.300000 -3.297500
v 3.210000 3.335000 -3.297500
v 2.790000 3.635000 -3.262500
v 2.790000 3.600000 -3.297500
v 2.790000 3.600000 -3.262500
v 2.790000 3.635000 -3.297500
v 3.210000 3.635000 -3.262500
v 3.210000 3.600000 -3.262500
v 3.210000 3.600000 -3.297500
v 3.210000 3.635000 -3.297500
v 2.790000 3.935000 -3.262500
v 2.790000 3.900000 -3.297500
v 2.790000 3.900000 -3.262500
v 2.790000 3.935000 -3.297500
v 3.210000 3.935000 -3.262500
v 3.210000 3.900000 -3.262500
v 3.210000 3.900000 -3.297500
v 3.210000 3.935000 -3.297500
v 2.790000 4.235000 -3.262500
v 2.790000 4.200000 -3.297500
v 2.790000 4.200000 -3.262500
v 2.790000 4.235000 -3.297500
v 3.210000 4.235000 -3.262500
v 3.210000 4.200000 -3.262500
v 3.210000 4.200000 -3.297500
v 3.210000 4.235000 -3.297500
v 2.790000 4.535000 -3.262500
v 2.790000 4.500000 -3.297500
v 2.790000 4.500000 -3.262500
v 2.790000 4.535000 -3.297500
v 3.210000 4.535000 -3.262500
v 3.210000 4.500000 -3.262500
v 3.210000 4.500000 -3.297500
v 3.210000 4.535000 -3.297500
v 2.790000 4.835000 -3.262500
v 2.790000 4.800000 -3.297500
v 2.790000 4.800000 -3.262500
v 2.790000 4.835000 -3.297500
v 3.210000 4.835000 -3.262500
v 3.210000 4.800000 -3.262500
v 3.210000 4.800000 -3.297500
v 3.210000 4.835000 -3.297500
v 2.790000 5.135000 -3.262500
v 2.790000 5.100000 -3.297500
v 2.790000 5.100000 -3.262500
v 2.790000 5.135000 -3.297500
v 3.210000 5.135000 -3.262500
v 3.210000 5.100000 -3.262500
v 3.210000 5.100000 -3.297500
v 3.210000 5.135000 -3.297500
v 2.790000 5.435000 -3.262500
v 2.790000 5.400000 -3.297500
v 2.790000 5.400000 -3.262500
v 2.790000 5.435000 -3.297500
v 3.210000 5.435000 -3.262500
v 3.210000 5.400000 -3.262500
v 3.210000 5.400000 -3.297500
v 3.210000 5.435000 -3.297500
v 2.790000 5.735000 -3.262500
v 2.790000 5.700000 -3.297500
v 2.790000 5.700000 -3.262500
v 2.790000 5.735000 -3.297500
v 3.210000 5.735000 -3.262500
v 3.210000 5.700000 -3.262500
v 3.210000 5.700000 -3.297500
v 3.210000 5.735000 -3.297500
v 2.790000 6.035000 -3.262500
v 2.790000 6.000000 -3.297500
v 2.790000 6.000000 -3.262500
v 2.790000 6.035000 -3.297500
v 3.210000 6.035000 -3.262500
v 3.210000 6.000000 -3.262500
v 3.210000 6.000000 -3.297500
v 3.210000 6.035000 -3.297500
v 2.790000 6.335000 -3.262500
v 2.790000 6.300000 -3.297500
v 2.790000 6.300000 -3.262500
v 2.790000 6.335000 -3.297500
v 3.210000 6.335000 -3.262500
v 3.210000 6.300000 -3.262500
v 3.210000 6.300000 -3.297500
v 3.210000 6.335000 -3.297500
v 2.790000 6.635000 -3.262500
v 2.790000 6.600000 -3.297500
v 2.790000 6.600000 -3.262500
v 2.790000 6.635000 -3.297500
v 3.210000 6.635000 -3.262500
v 3.210000 6.600000 -3.262500
v 3.210000 6.600000 -3.297500
v 3.210000 6.635000 -3.297500
v 2.790000 6.935000 -3.262500
v 2.790000 6.900000 -3.297500
v 2.790000 6.900000 -3.262500
v 2.790000 6.935000 -3.297500
v 3.210000 6.935000 -3.262500
v 3.210000 6.900000 -3.262500
v 3.210000 6.900000 -3.297500
v 3.210000 6.935000 -3.297500
v 2.790000 7.235000 -3.262500
v 2.790000 7.200000 -3.297500
v 2.790000 7.200000 -3.262500
v 2.790000 7.235000 -3.297500
v 3.210000 7.235000 -3.262500
v 3.210000 7.200000 -3.262500
v 3.210000 7.200000 -3.297500
v 3.210000 7.235000 -3.297500
v 2.765000 8.400000 -3.255000
v 2.765000 8.400000 -3.305000
v 2.815000 8.400000 -3.255000
v 2.815000 8.400000 -3.305000
v 3.185000 8.400000 -3.255000
v 3.185000 8.400000 -3.305000
v 3.235000 8.400000 -3.255000
v 3.235000 8.400000 -3.305000
vn -0.0000 0.9487 -0.3162
vn -0.0000 -0.0000 1.0000
vn -1.0000 -0.0000 -0.0000
vn -0.0000 -0.0000 -1.0000
vn 0.8660 -0.0000 -0.5000
vn -0.9487 0.3162 -0.0000
vn -0.0000 -1.0000 -0.0000
vn -0.9487 -0.3162 -0.0000
vn 0.9808 -0.0000 0.1951
vn 1.0000 -0.0000 -0.0000
vn -0.0000 1.0000 -0.0000
vn -0.0000 -0.9487 -0.3162
vn -0.8315 -0.0000 -0.5556
vn 0.5556 -0.0000 -0.8315
vn -0.8660 -0.0000 -0.5000
vn 0.8660 -0.0000 0.5000
vn -0.3162 -0.9487 -0.0000
vn -0.0000 0.3162 0.9487
vn 0.9487 -0.3162 -0.0000
vn -0.8660 -0.0000 0.5000
vn -0.3162 0.9487 -0.0000
vn -0.8315 -0.0000 0.5556
vn 0.9487 0.3162 -0.0000
vn -0.0000 -0.9487 0.3162
vn -0.5556 -0.0000 0.8315
vn -0.5556 -0.0000 -0.8315
vn -0.1951 -0.0000 0.9808
vn 0.8315 -0.0000 0.5556
vn -0.0001 1.0000 -0.0000
vn 0.3162 -0.9487 -0.0000
vn 0.3162 0.9487 -0.0000
vn -0.9808 -0.0000 0.1951
vn -0.0000 0.3162 -0.9487
vn -0.0000 -0.3162 -0.9487
vn -0.0000 -0.3162 0.9487
vn -0.0000 0.9487 0.3162
vn 0.5556 -0.0000 0.8315
vn -0.9808 -0.0000 -0.1951
vn 0.1951 -0.0000 -0.9808
vn 0.8315 -0.0000 -0.5556
vn 0.1951 -0.0000 0.9808
vn -0.1951 -0.0000 -0.9808
vn 0.9808 -0.0000 -0.1951
s 1
usemtl paint
f 61//1 60//1 57//1
f 461//2 466//2 465//2
f 21//2 19//2 22//2
f 424//3 423//3 421//3
f 432//4 435//4 430//4
f 132//5 131//5 129//5
f 92//6 91//6 89//6
f 501//2 506//2 505//2
f 482//7 478//7 483//7
f 192//5 191//5 189//5
f 125//1 124//1 121//1
f 84//8 83//8 81//8
f 348//9 346//9 347//9
f 45//1 44//1 41//1
f 37//10 35//10 38//10
f 429//2 434//2 433//2
f 28//6 27//6 25//6
f 393//11 392//11 389//11
f 525//2 530//2 529//2
f 54//12 50//12 55//12
f 260//2 257//2 259//2
f 410//7 406//7 411//7
f 444//10 442//10 443//10
f 301//13 306//13 305//13
f 38//12 34//12 39//12
f 372//14 370//14 371//14
f 240//11 246//11 238//11
f 73//2 78//2 77//2
f 436//10 434//10 435//10
f 582//3 373//3 581//3
f 216//5 215//5 213//5
f 200//2 197//2 199//2
f 232//15 229//15 231//15
f 226//16 235//16 227//16
f 94//17 90//17 95//17
f 196//15 193//15 195//15
f 496//3 495//3 493//3
f 12//4 15//4 10//4
f 5//2 3//2 6//2
f 108//18 107//18 105//18
f 96//19 94//19 95//19
f 218//4 213//4 217//4
f 116//3 119//3 114//3
f 113//10 118//10 117//10
f 258//20 255//20 257//20
f 109//1 108//1 105//1
f 136//15 133//15 135//15
f 81//2 86//2 85//2
f 68//4 71//4 66//4
f 440//3 439//3 437//3
f 146//4 141//4 145//4
f 5//21 4//21 1//21
f 562//7 558//7 563//7
f 432//3 431//3 429//3
f 162//20 159//20 161//20
f 336//13 335//13 333//13
f 476//10 474//10 475//10
f 380//10 378//10 379//10
f 166//16 175//16 167//16
f 360//22 359//22 357//22
f 246//20 243//20 245//20
f 138//20 135//20 137//20
f 546//7 542//7 547//7
f 397//2 402//2 401//2
f 413//2 418//2 417//2
f 208//15 205//15 207//15
f 412//10 410//10 411//10
f 392//3 391//3 389//3
f 92//4 95//4 90//4
f 400//4 403//4 398//4
f 4//4 7//4 2//4
f 24//23 22//23 23//23
f 240//5 239//5 237//5
f 404//10 402//10 403//10
f 244//15 241//15 243//15
f 220//15 217//15 219//15
f 517//2 522//2 521//2
f 21//21 20//21 17//21
f 8//23 6//23 7//23
f 110//24 106//24 111//24
f 108//3 111//3 106//3
f 400//3 399//3 397//3
f 9//2 14//2 13//2
f 121//10 126//10 125//10
f 282//20 279//20 281//20
f 32//19 30//19 31//19
f 16//19 14//19 15//19
f 308//25 306//25 307//25
f 300//26 298//26 299//26
f 533//2 538//2 537//2
f 528//4 531//4 526//4
f 296//22 299//22 294//22
f 25//2 30//2 29//2
f 4//8 3//8 1//8
f 545//11 544//11 541//11
f 469//2 474//2 473//2
f 472//3 471//3 469//3
f 584//10 377//10 380//10
f 564//10 562//10 563//10
f 20//8 19//8 17//8
f 30//17 26//17 31//17
f 142//16 151//16 143//16
f 129//7 135//7 133//7
f 129//7 137//7 135//7
f 129//7 139//7 137//7
f 129//7 131//7 139//7
f 132//11 134//11 136//11
f 132//11 136//11 138//11
f 132//11 138//11 140//11
f 132//11 140//11 130//11
f 316//27 314//27 315//27
f 328//26 327//26 325//26
f 150//20 147//20 149//20
f 72//23 70//23 71//23
f 340//28 338//28 339//28
f 144//5 143//5 141//5
f 141//7 147//7 145//7
f 141//7 149//7 147//7
f 141//7 151//7 149//7
f 141//7 143//7 151//7
f 144//11 146//11 148//11
f 144//11 148//11 150//11
f 144//11 150//11 152//11
f 144//11 152//11 142//29
f 70//30 66//30 71//30
f 160//15 157//15 159//15
f 80//19 78//19 79//19
f 13//31 12//31 9//31
f 69//21 68//21 65//21
f 352//32 351//32 349//32
f 153//7 159//7 157//7
f 153//7 161//7 159//7
f 153//7 163//7 161//7
f 153//7 155//7 163//7
f 156//11 158//11 160//11
f 156//11 160//11 162//11
f 156//11 162//11 164//11
f 156//11 164//11 154//29
f 188//2 185//2 187//2
f 388//10 386//10 387//10
f 174//20 171//20 173//20
f 36//3 39//3 34//3
f 77//31 76//31 73//31
f 40//33 38//33 39//33
f 165//7 171//7 169//7
f 165//7 173//7 171//7
f 165//7 175//7 173//7
f 165//7 167//7 175//7
f 168//11 170//11 172//11
f 168//11 172//11 174//11
f 168//11 174//11 176//11
f 168//11 176//11 166//29
f 182//4 177//4 181//4
f 76//4 79//4 74//4
f 365//28 370//28 369//28
f 341//27 346//27 345//27
f 158//4 153//4 157//4
f 385//11 384//11 381//11
f 177//7 183//7 181//7
f 177//7 185//7 183//7
f 177//7 187//7 185//7
f 177//7 179//7 187//7
f 180//11 182//11 184//11
f 180//11 184//11 186//11
f 180//11 186//11 188//11
f 180//11 188//11 178//29
f 112//34 110//34 111//34
f 20//4 23//4 18//4
f 214//16 223//16 215//16
f 52//35 51//35 49//35
f 389//2 394//2 393//2
f 204//5 203//5 201//5
f 189//7 195//7 193//7
f 189//7 197//7 195//7
f 189//7 199//7 197//7
f 189//7 191//7 199//7
f 192//11 194//11 196//11
f 192//11 196//11 198//11
f 192//11 198//11 200//11
f 192//11 200//11 190//11
f 44//18 43//18 41//18
f 12//6 11//6 9//6
f 28//4 31//4 26//4
f 212//2 209//2 211//2
f 86//30 82//30 87//30
f 416//4 419//4 414//4
f 201//7 207//7 205//7
f 201//7 209//7 207//7
f 201//7 211//7 209//7
f 201//7 203//7 211//7
f 204//11 206//11 208//11
f 204//11 208//11 210//11
f 204//11 210//11 212//11
f 204//11 212//11 202//29
f 84//4 87//4 82//4
f 48//34 46//34 47//34
f 41//10 46//10 45//10
f 76//6 75//6 73//6
f 230//4 225//4 229//4
f 228//5 227//5 225//5
f 213//7 219//7 217//7
f 213//7 221//7 219//7
f 213//7 223//7 221//7
f 213//7 215//7 223//7
f 216//11 218//11 220//11
f 216//11 220//11 222//11
f 216//11 222//11 224//11
f 216//11 224//11 214//29
f 89//2 94//2 93//2
f 440//4 443//4 438//4
f 46//24 42//24 47//24
f 236//2 233//2 235//2
f 44//3 47//3 42//3
f 93//31 92//31 89//31
f 225//7 231//7 229//7
f 225//7 233//7 231//7
f 225//7 235//7 233//7
f 225//7 227//7 235//7
f 228//11 230//11 232//11
f 228//11 232//11 234//11
f 228//11 234//11 236//11
f 228//11 236//11 226//29
f 394//7 390//7 395//7
f 445//2 450//2 449//2
f 453//2 458//2 457//2
f 434//7 430//7 435//7
f 124//3 127//3 122//3
f 464//4 467//4 462//4
f 239//7 247//7 245//7
f 237//7 243//7 241//7
f 237//7 245//7 243//7
f 238//11 246//11 248//11
f 240//11 242//11 244//11
f 474//7 470//7 475//7
f 256//15 253//15 255//15
f 57//10 62//10 61//10
f 101//36 100//36 97//36
f 52//3 55//3 50//3
f 56//33 54//33 55//33
f 249//7 255//7 253//7
f 249//7 257//7 255//7
f 249//7 259//7 257//7
f 249//7 251//7 259//7
f 252//11 254//11 256//11
f 252//11 256//11 258//11
f 252//11 258//11 260//11
f 252//11 260//11 250//29
f 276//5 275//5 273//5
f 481//11 480//11 477//11
f 500//10 498//10 499//10
f 272//2 269//2 271//2
f 105//10 110//10 109//10
f 268//15 265//15 267//15
f 261//7 267//7 265//7
f 261//7 269//7 267//7
f 261//7 271//7 269//7
f 261//7 263//7 271//7
f 264//11 266//11 268//11
f 264//11 268//11 270//11
f 264//11 270//11 272//11
f 264//11 272//11 262//29
f 266//4 261//4 265//4
f 238//16 247//16 239//16
f 504//4 507//4 502//4
f 102//12 98//12 103//12
f 513//11 512//11 509//11
f 64//34 62//34 63//34
f 273//7 279//7 277//7
f 273//7 281//7 279//7
f 273//7 283//7 281//7
f 273//7 275//7 283//7
f 276//11 278//11 280//11
f 276//11 280//11 282//11
f 276//11 282//11 284//11
f 276//11 284//11 274//29
f 60//18 59//18 57//18
f 532//10 530//10 531//10
f 124//18 123//18 121//18
f 296//37 295//37 293//37
f 329//11 328//11 325//11
f 323//7 319//7 318//7
f 118//12 114//12 119//12
f 53//36 52//36 49//36
f 514//7 510//7 515//7
f 280//15 277//15 279//15
f 349//11 356//11 352//11
f 361//11 360//11 357//11
f 473//11 472//11 469//11
f 22//30 18//30 23//30
f 126//24 122//24 127//24
f 569//11 568//11 565//11
f 370//7 366//7 371//7
f 369//11 368//11 365//11
f 460//10 458//10 459//10
f 309//38 314//38 313//38
f 581//2 377//2 583//2
f 14//17 10//17 15//17
f 317//11 324//11 320//11
f 345//11 344//11 341//11
f 549//2 554//2 553//2
f 312//39 311//39 309//39
f 332//37 330//37 331//37
f 140//2 137//2 139//2
f 347//7 343//7 342//7
f 355//7 351//7 350//7
f 130//16 139//16 131//16
f 333//25 338//25 337//25
f 317//32 322//32 321//32
f 65//2 70//2 69//2
f 299//7 295//7 294//7
f 297//11 296//11 293//11
f 328//40 331//40 326//40
f 386//7 382//7 387//7
f 152//2 149//2 151//2
f 325//22 330//22 329//22
f 306//7 302//7 307//7
f 305//11 304//11 301//11
f 516//10 514//10 515//10
f 408//3 407//3 405//3
f 357//37 362//37 361//37
f 170//4 165//4 169//4
f 338//7 334//7 339//7
f 53//10 51//10 54//10
f 168//5 167//5 165//5
f 344//38 343//38 341//38
f 364//40 362//40 363//40
f 164//2 161//2 163//2
f 288//11 289//11 292//11
f 315//7 311//7 310//7
f 154//16 163//16 155//16
f 384//4 387//4 382//4
f 349//41 354//41 353//41
f 344//39 347//39 342//39
f 331//7 327//7 326//7
f 313//11 312//11 309//11
f 176//2 173//2 175//2
f 172//15 169//15 171//15
f 368//25 367//25 365//25
f 186//20 183//20 185//20
f 337//11 336//11 333//11
f 291//7 287//7 286//7
f 381//2 386//2 385//2
f 78//17 74//17 79//17
f 184//15 181//15 183//15
f 368//13 371//13 366//13
f 373//2 378//2 377//2
f 180//5 179//5 177//5
f 378//7 374//7 379//7
f 376//4 379//4 374//4
f 456//3 455//3 453//3
f 376//3 375//3 373//3
f 360//26 363//26 358//26
f 29//31 28//31 25//31
f 401//11 400//11 397//11
f 120//33 118//33 119//33
f 288//41 287//41 285//41
f 248//2 245//2 247//2
f 458//7 454//7 459//7
f 60//3 63//3 58//3
f 198//20 195//20 197//20
f 450//7 446//7 451//7
f 426//7 422//7 427//7
f 194//4 189//4 193//4
f 104//33 102//33 103//33
f 274//16 283//16 275//16
f 392//4 395//4 390//4
f 416//3 415//3 413//3
f 206//4 201//4 205//4
f 409//11 408//11 405//11
f 190//16 199//16 191//16
f 424//4 427//4 422//4
f 408//4 411//4 406//4
f 405//2 410//2 409//2
f 85//21 84//21 81//21
f 421//2 426//2 425//2
f 202//16 211//16 203//16
f 428//10 426//10 427//10
f 210//20 207//20 209//20
f 377//11 376//11 373//11
f 417//11 416//11 413//11
f 418//7 414//7 419//7
f 420//10 418//10 419//10
f 156//5 155//5 153//5
f 222//20 219//20 221//20
f 6//30 2//30 7//30
f 100//3 103//3 98//3
f 442//7 438//7 443//7
f 36//35 35//35 33//35
f 352//42 355//42 350//42
f 224//2 221//2 223//2
f 437//2 442//2 441//2
f 68//8 67//8 65//8
f 320//43 323//43 318//43
f 148//15 145//15 147//15
f 433//11 432//11 429//11
f 548//10 546//10 547//10
f 556//10 554//10 555//10
f 97//10 102//10 101//10
f 449//11 448//11 445//11
f 234//20 231//20 233//20
f 465//11 464//11 461//11
f 544//3 543//3 541//3
f 572//10 570//10 571//10
f 448//4 451//4 446//4
f 134//4 129//4 133//4
f 402//7 398//7 403//7
f 242//4 237//4 241//4
f 466//7 462//7 467//7
f 457//11 456//11 453//11
f 100//35 99//35 97//35
f 468//10 466//10 467//10
f 560//3 559//3 557//3
f 464//3 463//3 461//3
f 456//4 459//4 454//4
f 441//11 440//11 437//11
f 570//7 566//7 571//7
f 278//4 273//4 277//4
f 472//4 475//4 470//4
f 488//4 491//4 486//4
f 304//14 303//14 301//14
f 252//5 251//5 249//5
f 485//2 490//2 489//2
f 484//10 482//10 483//10
f 254//4 249//4 253//4
f 480//4 483//4 478//4
f 452//10 450//10 451//10
f 363//7 359//7 358//7
f 509//2 514//2 513//2
f 477//2 482//2 481//2
f 480//3 479//3 477//3
f 493//2 498//2 497//2
f 250//16 259//16 251//16
f 264//5 263//5 261//5
f 505//11 504//11 501//11
f 489//11 488//11 485//11
f 506//7 502//7 507//7
f 262//16 271//16 263//16
f 512//3 511//3 509//3
f 488//3 487//3 485//3
f 270//20 267//20 269//20
f 497//11 496//11 493//11
f 553//11 552//11 549//11
f 498//7 494//7 499//7
f 448//3 447//3 445//3
f 508//10 506//10 507//10
f 496//4 499//4 494//4
f 490//7 486//7 491//7
f 520//3 519//3 517//3
f 128//34 126//34 127//34
f 529//11 528//11 525//11
f 384//3 383//3 381//3
f 396//10 394//10 395//10
f 284//2 281//2 283//2
f 530//7 526//7 531//7
f 520//4 523//4 518//4
f 356//43 354//43 355//43
f 528//3 527//3 525//3
f 116//35 115//35 113//35
f 521//11 520//11 517//11
f 554//7 550//7 555//7
f 522//7 518//7 523//7
f 524//10 522//10 523//10
f 285//43 290//43 289//43
f 540//10 538//10 539//10
f 293//40 298//40 297//40
f 552//4 555//4 550//4
f 117//36 116//36 113//36
f 568//3 567//3 565//3
f 492//10 490//10 491//10
f 536//4 539//4 534//4
f 537//11 536//11 533//11
f 288//32 291//32 286//32
f 544//4 547//4 542//4
f 504//3 503//3 501//3
f 552//3 551//3 549//3
f 541//2 546//2 545//2
f 586//4 388//4 384//4
f 538//7 534//7 539//7
f 536//3 535//3 533//3
f 512//4 515//4 510//4
f 312//9 315//9 310//9
f 320//42 319//42 317//42
f 580//10 578//10 579//10
f 88//23 86//23 87//23
f 178//16 187//16 179//16
f 324//41 322//41 323//41
f 292//42 290//42 291//42
f 557//2 562//2 561//2
f 561//11 560//11 557//11
f 425//11 424//11 421//11
f 568//4 571//4 566//4
f 565//2 570//2 569//2
f 586//3 381//3 585//3
f 560//4 563//4 558//4
f 304//28 307//28 302//28
f 576//3 575//3 573//3
f 576//4 579//4 574//4
f 62//24 58//24 63//24
f 577//11 576//11 573//11
f 578//7 574//7 579//7
f 583//11 582//11 581//11
f 336//14 339//14 334//14
f 582//4 380//4 376//4
f 573//2 578//2 577//2
f 588//10 385//10 388//10
f 585//2 385//2 587//2
f 37//36 36//36 33//36
f 587//11 586//11 585//11
f 61//1 64//1 60//1
f 461//2 463//2 466//2
f 21//2 17//2 19//2
f 424//3 422//3 423//3
f 432//4 436//4 435//4
f 132//5 130//5 131//5
f 92//6 90//6 91//6
f 501//2 503//2 506//2
f 482//7 479//7 478//7
f 192//5 190//5 191//5
f 125//1 128//1 124//1
f 84//8 82//8 83//8
f 348//9 345//9 346//9
f 45//1 48//1 44//1
f 37//10 33//10 35//10
f 429//2 431//2 434//2
f 28//6 26//6 27//6
f 393//11 396//11 392//11
f 525//2 527//2 530//2
f 54//12 51//12 50//12
f 260//2 258//2 257//2
f 410//7 407//7 406//7
f 444//10 441//10 442//10
f 301//13 303//13 306//13
f 38//12 35//12 34//12
f 372//14 369//14 370//14
f 240//11 244//11 246//11
f 73//2 75//2 78//2
f 436//10 433//10 434//10
f 582//3 376//3 373//3
f 216//5 214//5 215//5
f 200//2 198//2 197//2
f 232//15 230//15 229//15
f 226//16 236//16 235//16
f 94//17 91//17 90//17
f 196//15 194//15 193//15
f 496//3 494//3 495//3
f 12//4 16//4 15//4
f 5//2 1//2 3//2
f 108//18 106//18 107//18
f 96//19 93//19 94//19
f 218//4 216//4 213//4
f 116//3 120//3 119//3
f 113//10 115//10 118//10
f 258//20 256//20 255//20
f 109//1 112//1 108//1
f 136//15 134//15 133//15
f 81//2 83//2 86//2
f 68//4 72//4 71//4
f 440//3 438//3 439//3
f 146//4 144//4 141//4
f 5//21 8//21 4//21
f 562//7 559//7 558//7
f 432//3 430//3 431//3
f 162//20 160//20 159//20
f 336//13 334//13 335//13
f 476//10 473//10 474//10
f 380//10 377//10 378//10
f 166//16 176//16 175//16
f 360//22 358//22 359//22
f 246//20 244//20 243//20
f 138//20 136//20 135//20
f 546//7 543//7 542//7
f 397//2 399//2 402//2
f 413//2 415//2 418//2
f 208//15 206//15 205//15
f 412//10 409//10 410//10
f 392//3 390//3 391//3
f 92//4 96//4 95//4
f 400//4 404//4 403//4
f 4//4 8//4 7//4
f 24//23 21//23 22//23
f 240//5 238//5 239//5
f 404//10 401//10 402//10
f 244//15 242//15 241//15
f 220//15 218//15 217//15
f 517//2 519//2 522//2
f 21//21 24//21 20//21
f 8//23 5//23 6//23
f 110//24 107//24 106//24
f 108//3 112//3 111//3
f 400//3 398//3 399//3
f 9//2 11//2 14//2
f 121//10 123//10 126//10
f 282//20 280//20 279//20
f 32//19 29//19 30//19
f 16//19 13//19 14//19
f 308//25 305//25 306//25
f 300//26 297//26 298//26
f 533//2 535//2 538//2
f 528//4 532//4 531//4
f 296//22 300//22 299//22
f 25//2 27//2 30//2
f 4//8 2//8 3//8
f 545//11 548//11 544//11
f 469//2 471//2 474//2
f 472//3 470//3 471//3
f 584//10 583//10 377//10
f 564//10 561//10 562//10
f 20//8 18//8 19//8
f 30//17 27//17 26//17
f 142//16 152//16 151//16
f 316//27 313//27 314//27
f 328//26 326//26 327//26
f 150//20 148//20 147//20
f 72//23 69//23 70//23
f 340//28 337//28 338//28
f 144//5 142//5 143//5
f 70//30 67//30 66//30
f 160//15 158//15 157//15
f 80//19 77//19 78//19
f 13//31 16//31 12//31
f 69//21 72//21 68//21
f 352//32 350//32 351//32
f 188//2 186//2 185//2
f 388//10 385//10 386//10
f 174//20 172//20 171//20
f 36//3 40//3 39//3
f 77//31 80//31 76//31
f 40//33 37//33 38//33
f 182//4 180//4 177//4
f 76//4 80//4 79//4
f 365//28 367//28 370//28
f 341//27 343//27 346//27
f 158//4 156//4 153//4
f 385//11 388//11 384//11
f 112//34 109//34 110//34
f 20//4 24//4 23//4
f 214//16 224//16 223//16
f 52//35 50//35 51//35
f 389//2 391//2 394//2
f 204//5 202//5 203//5
f 44//18 42//18 43//18
f 12//6 10//6 11//6
f 28//4 32//4 31//4
f 212//2 210//2 209//2
f 86//30 83//30 82//30
f 416//4 420//4 419//4
f 84//4 88//4 87//4
f 48//34 45//34 46//34
f 41//10 43//10 46//10
f 76//6 74//6 75//6
f 230//4 228//4 225//4
f 228//5 226//5 227//5
f 89//2 91//2 94//2
f 440//4 444//4 443//4
f 46//24 43//24 42//24
f 236//2 234//2 233//2
f 44//3 48//3 47//3
f 93//31 96//31 92//31
f 394//7 391//7 390//7
f 445//2 447//2 450//2
f 453//2 455//2 458//2
f 434//7 431//7 430//7
f 124//3 128//3 127//3
f 464//4 468//4 467//4
f 237//7 239//7 245//7
f 474//7 471//7 470//7
f 256//15 254//15 253//15
f 57//10 59//10 62//10
f 101//36 104//36 100//36
f 52//3 56//3 55//3
f 56//33 53//33 54//33
f 276//5 274//5 275//5
f 481//11 484//11 480//11
f 500//10 497//10 498//10
f 272//2 270//2 269//2
f 105//10 107//10 110//10
f 268//15 266//15 265//15
f 266//4 264//4 261//4
f 238//16 248//16 247//16
f 504//4 508//4 507//4
f 102//12 99//12 98//12
f 513//11 516//11 512//11
f 64//34 61//34 62//34
f 60//18 58//18 59//18
f 532//10 529//10 530//10
f 124//18 122//18 123//18
f 296//37 294//37 295//37
f 329//11 332//11 328//11
f 323//7 322//7 319//7
f 118//12 115//12 114//12
f 53//36 56//36 52//36
f 514//7 511//7 510//7
f 280//15 278//15 277//15
f 349//11 353//11 356//11
f 361//11 364//11 360//11
f 473//11 476//11 472//11
f 22//30 19//30 18//30
f 126//24 123//24 122//24
f 569//11 572//11 568//11
f 370//7 367//7 366//7
f 369//11 372//11 368//11
f 460//10 457//10 458//10
f 309//38 311//38 314//38
f 581//2 373//2 377//2
f 14//17 11//17 10//17
f 317//11 321//11 324//11
f 345//11 348//11 344//11
f 549//2 551//2 554//2
f 312//39 310//39 311//39
f 332//37 329//37 330//37
f 140//2 138//2 137//2
f 347//7 346//7 343//7
f 355//7 354//7 351//7
f 130//16 140//16 139//16
f 333//25 335//25 338//25
f 317//32 319//32 322//32
f 65//2 67//2 70//2
f 299//7 298//7 295//7
f 297//11 300//11 296//11
f 328//40 332//40 331//40
f 386//7 383//7 382//7
f 152//2 150//2 149//2
f 325//22 327//22 330//22
f 306//7 303//7 302//7
f 305//11 308//11 304//11
f 516//10 513//10 514//10
f 408//3 406//3 407//3
f 357//37 359//37 362//37
f 170//4 168//4 165//4
f 338//7 335//7 334//7
f 53//10 49//10 51//10
f 168//5 166//5 167//5
f 344//38 342//38 343//38
f 364//40 361//40 362//40
f 164//2 162//2 161//2
f 288//11 285//11 289//11
f 315//7 314//7 311//7
f 154//16 164//16 163//16
f 384//4 388//4 387//4
f 349//41 351//41 354//41
f 344//39 348//39 347//39
f 331//7 330//7 327//7
f 313//11 316//11 312//11
f 176//2 174//2 173//2
f 172//15 170//15 169//15
f 368//25 366//25 367//25
f 186//20 184//20 183//20
f 337//11 340//11 336//11
f 291//7 290//7 287//7
f 381//2 383//2 386//2
f 78//17 75//17 74//17
f 184//15 182//15 181//15
f 368//13 372//13 371//13
f 373//2 375//2 378//2
f 180//5 178//5 179//5
f 378//7 375//7 374//7
f 376//4 380//4 379//4
f 456//3 454//3 455//3
f 376//3 374//3 375//3
f 360//26 364//26 363//26
f 29//31 32//31 28//31
f 401//11 404//11 400//11
f 120//33 117//33 118//33
f 288//41 286//41 287//41
f 248//2 246//2 245//2
f 458//7 455//7 454//7
f 60//3 64//3 63//3
f 198//20 196//20 195//20
f 450//7 447//7 446//7
f 426//7 423//7 422//7
f 194//4 192//4 189//4
f 104//33 101//33 102//33
f 274//16 284//16 283//16
f 392//4 396//4 395//4
f 416//3 414//3 415//3
f 206//4 204//4 201//4
f 409//11 412//11 408//11
f 190//16 200//16 199//16
f 424//4 428//4 427//4
f 408//4 412//4 411//4
f 405//2 407//2 410//2
f 85//21 88//21 84//21
f 421//2 423//2 426//2
f 202//16 212//16 211//16
f 428//10 425//10 426//10
f 210//20 208//20 207//20
f 377//11 380//11 376//11
f 417//11 420//11 416//11
f 418//7 415//7 414//7
f 420//10 417//10 418//10
f 156//5 154//5 155//5
f 222//20 220//20 219//20
f 6//30 3//30 2//30
f 100//3 104//3 103//3
f 442//7 439//7 438//7
f 36//35 34//35 35//35
f 352//42 356//42 355//42
f 224//2 222//2 221//2
f 437//2 439//2 442//2
f 68//8 66//8 67//8
f 320//43 324//43 323//43
f 148//15 146//15 145//15
f 433//11 436//11 432//11
f 548//10 545//10 546//10
f 556//10 553//10 554//10
f 97//10 99//10 102//10
f 449//11 452//11 448//11
f 234//20 232//20 231//20
f 465//11 468//11 464//11
f 544//3 542//3 543//3
f 572//10 569//10 570//10
f 448//4 452//4 451//4
f 134//4 132//4 129//4
f 402//7 399//7 398//7
f 242//4 240//4 237//4
f 466//7 463//7 462//7
f 457//11 460//11 456//11
f 100//35 98//35 99//35
f 468//10 465//10 466//10
f 560//3 558//3 559//3
f 464//3 462//3 463//3
f 456//4 460//4 459//4
f 441//11 444//11 440//11
f 570//7 567//7 566//7
f 278//4 276//4 273//4
f 472//4 476//4 475//4
f 488//4 492//4 491//4
f 304//14 302//14 303//14
f 252//5 250//5 251//5
f 485//2 487//2 490//2
f 484//10 481//10 482//10
f 254//4 252//4 249//4
f 480//4 484//4 483//4
f 452//10 449//10 450//10
f 363//7 362//7 359//7
f 509//2 511//2 514//2
f 477//2 479//2 482//2
f 480//3 478//3 479//3
f 493//2 495//2 498//2
f 250//16 260//16 259//16
f 264//5 262//5 263//5
f 505//11 508//11 504//11
f 489//11 492//11 488//11
f 506//7 503//7 502//7
f 262//16 272//16 271//16
f 512//3 510//3 511//3
f 488//3 486//3 487//3
f 270//20 268//20 267//20
f 497//11 500//11 496//11
f 553//11 556//11 552//11
f 498//7 495//7 494//7
f 448//3 446//3 447//3
f 508//10 505//10 506//10
f 496//4 500//4 499//4
f 490//7 487//7 486//7
f 520//3 518//3 519//3
f 128//34 125//34 126//34
f 529//11 532//11 528//11
f 384//3 382//3 383//3
f 396//10 393//10 394//10
f 284//2 282//2 281//2
f 530//7 527//7 526//7
f 520//4 524//4 523//4
f 356//43 353//43 354//43
f 528//3 526//3 527//3
f 116//35 114//35 115//35
f 521//11 524//11 520//11
f 554//7 551//7 550//7
f 522//7 519//7 518//7
f 524//10 521//10 522//10
f 285//43 287//43 290//43
f 540//10 537//10 538//10
f 293//40 295//40 298//40
f 552//4 556//4 555//4
f 117//36 120//36 116//36
f 568//3 566//3 567//3
f 492//10 489//10 490//10
f 536//4 540//4 539//4
f 537//11 540//11 536//11
f 288//32 292//32 291//32
f 544//4 548//4 547//4
f 504//3 502//3 503//3
f 552//3 550//3 551//3
f 541//2 543//2 546//2
f 586//4 588//4 388//4
f 538//7 535//7 534//7
f 536//3 534//3 535//3
f 512//4 516//4 515//4
f 312//9 316//9 315//9
f 320//42 318//42 319//42
f 580//10 577//10 578//10
f 88//23 85//23 86//23
f 178//16 188//16 187//16
f 324//41 321//41 322//41
f 292//42 289//42 290//42
f 557//2 559//2 562//2
f 561//11 564//11 560//11
f 425//11 428//11 424//11
f 568//4 572//4 571//4
f 565//2 567//2 570//2
f 586//3 384//3 381//3
f 560//4 564//4 563//4
f 304//28 308//28 307//28
f 576//3 574//3 575//3
f 576//4 580//4 579//4
f 62//24 59//24 58//24
f 577//11 580//11 576//11
f 578//7 575//7 574//7
f 583//11 584//11 582//11
f 336//14 340//14 339//14
f 582//4 584//4 380//4
f 573//2 575//2 578//2
f 588//10 587//10 385//10
f 585//2 381//2 385//2
f 37//36 40//36 36//36
f 587//11 588//11 586//11
