# Blender 5.2.1 LTS
# www.blender.org
mtllib water_tower_wall.mtl
o water_tower_wall
v 2.350000 7.600000 -0.000000
v 2.171117 11.150000 -0.899306
v 2.350000 11.150000 0.000000
v 2.171117 7.600000 -0.899306
v 2.171117 11.150000 0.899306
v 2.171117 7.600000 0.899306
v 2.076919 7.500000 -0.860288
v 2.248041 7.500000 -0.000000
v 0.899306 11.150000 2.171117
v -0.899306 11.150000 2.171117
v -0.000000 11.150000 2.350000
v -1.661701 11.150000 -1.661701
v -2.171117 11.150000 -0.899306
v -2.350000 11.150000 -0.000000
v -2.171117 11.150000 0.899306
v -1.661701 11.150000 1.661701
v 0.899306 11.150000 -2.171117
v 0.000000 11.150000 -2.350000
v -0.899306 11.150000 -2.171117
v 1.661701 11.150000 -1.661701
v 1.661701 11.150000 1.661701
v 1.661701 7.600000 -1.661701
v 1.661701 7.600000 1.661701
v 2.076919 7.500000 0.860288
v -2.248041 7.500000 -0.000000
v -1.589605 7.500000 1.589605
v -2.076919 7.500000 0.860288
v -0.860288 7.500000 2.076919
v -0.000000 7.500000 2.248041
v -1.589605 7.500000 -1.589605
v -2.076919 7.500000 -0.860288
v 1.589605 7.500000 1.589605
v 0.860288 7.500000 2.076919
v -0.860288 7.500000 -2.076919
v 1.589605 7.500000 -1.589605
v 0.000000 7.500000 -2.248041
v 0.860288 7.500000 -2.076919
v 0.899306 7.600000 -2.171117
v 0.000000 7.600000 -2.350000
v -0.899306 7.600000 -2.171117
v -1.661701 7.600000 -1.661701
v -2.171117 7.600000 -0.899306
v -2.350000 7.600000 -0.000000
v -2.171117 7.600000 0.899306
v -1.661701 7.600000 1.661701
v -0.899306 7.600000 2.171117
v -0.000000 7.600000 2.350000
v 0.899306 7.600000 2.171117
vn -0.7071 -0.0000 0.7071
vn -0.9239 -0.0000 0.3827
vn -0.7071 -0.0000 -0.7071
vn -0.3827 -0.0000 -0.9239
vn 0.6469 -0.7139 -0.2680
vn 0.7002 -0.7139 -0.0000
vn -0.0000 1.0000 -0.0000
vn 0.9239 -0.0000 0.3827
vn 0.7071 -0.0000 0.7071
vn -0.0000 -0.0000 -1.0000
vn 0.6469 -0.7139 0.2680
vn -0.0000 -1.0000 -0.0000
vn 0.4951 -0.7139 -0.4951
vn 0.3827 -0.0000 -0.9239
vn 1.0000 -0.0000 -0.0000
vn -0.3827 -0.0000 0.9239
vn 0.7071 -0.0000 -0.7071
vn 0.9239 -0.0000 -0.3827
vn -1.0000 -0.0000 -0.0000
vn -0.9239 -0.0000 -0.3827
vn -0.0000 -0.0000 1.0000
vn 0.3827 -0.0000 0.9239
vn 0.4951 -0.7139 0.4951
vn 0.2680 -0.7139 -0.6469
vn 0.2680 -0.7139 0.6469
vn -0.0000 -0.7139 -0.7002
vn -0.0000 -0.7139 0.7002
vn -0.2680 -0.7139 -0.6469
vn -0.2680 -0.7139 0.6469
vn -0.4951 -0.7139 -0.4951
vn -0.4951 -0.7139 0.4951
vn -0.6469 -0.7139 -0.2680
vn -0.6469 -0.7139 0.2680
vn -0.7002 -0.7139 -0.0000
s 1
usemtl paint
f 16//1 44//2 45//1
f 12//3 40//4 41//3
f 7//5 1//6 8//6
f 7//5 4//5 1//6
f 9//7 10//7 11//7
f 12//7 13//7 14//7
f 12//7 14//7 15//7
f 12//7 15//7 16//7
f 12//7 16//7 10//7
f 12//7 10//7 9//7
f 17//7 18//7 19//7
f 17//7 19//7 12//7
f 20//7 3//7 2//7
f 20//7 9//7 21//7
f 20//7 21//7 5//7
f 20//7 5//7 3//7
f 20//7 12//7 9//7
f 20//7 17//7 12//7
f 5//8 23//9 6//8
f 19//4 39//10 40//4
f 8//6 6//11 24//11
f 8//6 1//6 6//11
f 25//12 26//12 27//12
f 25//12 28//12 26//12
f 25//12 29//12 28//12
f 30//12 25//12 31//12
f 24//12 32//12 33//12
f 34//12 33//12 29//12
f 34//12 29//12 25//12
f 34//12 25//12 30//12
f 35//12 7//12 8//12
f 35//12 36//12 37//12
f 35//12 34//12 36//12
f 35//12 8//12 24//12
f 35//12 33//12 34//12
f 35//12 24//12 33//12
f 22//13 4//5 7//5
f 35//13 22//13 7//5
f 18//10 38//14 39//10
f 3//15 6//8 1//15
f 10//16 45//1 46//16
f 20//17 4//18 22//17
f 14//19 42//20 43//19
f 11//21 46//16 47//21
f 13//20 41//3 42//20
f 17//14 22//17 38//14
f 15//2 43//19 44//2
f 9//22 47//21 48//22
f 2//18 1//15 4//18
f 6//11 23//23 32//23
f 24//11 6//11 32//23
f 38//24 22//13 35//13
f 37//24 38//24 35//13
f 32//23 48//25 33//25
f 32//23 23//23 48//25
f 36//26 38//24 37//24
f 36//26 39//26 38//24
f 33//25 47//27 29//27
f 33//25 48//25 47//27
f 34//28 39//26 36//26
f 34//28 40//28 39//26
f 29//27 46//29 28//29
f 29//27 47//27 46//29
f 30//30 40//28 34//28
f 30//30 41//30 40//28
f 46//29 45//31 26//31
f 28//29 46//29 26//31
f 42//32 41//30 30//30
f 31//32 42//32 30//30
f 26//31 44//33 27//33
f 26//31 45//31 44//33
f 25//34 42//32 31//32
f 25//34 43//34 42//32
f 27//33 43//34 25//34
f 27//33 44//33 43//34
f 21//9 48//22 23//9
f 16//1 15//2 44//2
f 12//3 19//4 40//4
f 5//8 21//9 23//9
f 19//4 18//10 39//10
f 18//10 17//14 38//14
f 3//15 5//8 6//8
f 10//16 16//1 45//1
f 20//17 2//18 4//18
f 14//19 13//20 42//20
f 11//21 10//16 46//16
f 13//20 12//3 41//3
f 17//14 20//17 22//17
f 15//2 14//19 43//19
f 9//22 11//21 47//21
f 2//18 3//15 1//15
f 21//9 9//22 48//22
