mtllib cad_lamp_post.mtl
v -40.000 0.000 -40.000
v 40.000 0.000 -40.000
v 40.000 1800.000 -40.000
v -40.000 1800.000 -40.000
v -40.000 0.000 40.000
v 40.000 0.000 40.000
v 40.000 1800.000 40.000
v -40.000 1800.000 40.000
v -160.000 1700.000 -160.000
v 160.000 1700.000 -160.000
v 160.000 1760.000 -160.000
v -160.000 1760.000 -160.000
v -160.000 1700.000 160.000
v 160.000 1700.000 160.000
v 160.000 1760.000 160.000
v -160.000 1760.000 160.000
v -120.000 1760.000 -120.000
v 120.000 1760.000 -120.000
v 120.000 2000.000 -120.000
v -120.000 2000.000 -120.000
v -120.000 1760.000 120.000
v 120.000 1760.000 120.000
v 120.000 2000.000 120.000
v -120.000 2000.000 120.000
v -140.000 2000.000 -140.000
v 140.000 2000.000 -140.000
v 140.000 2060.000 -140.000
v -140.000 2060.000 -140.000
v -140.000 2000.000 140.000
v 140.000 2000.000 140.000
v 140.000 2060.000 140.000
v -140.000 2060.000 140.000
usemtl wood
f 1 4 3 2
f 5 6 7 8
f 1 2 6 5
f 3 4 8 7
f 2 3 7 6
f 1 5 8 4
usemtl iron
f 9 12 11 10
f 13 14 15 16
f 9 10 14 13
f 11 12 16 15
f 10 11 15 14
f 9 13 16 12
usemtl glass
f 17 20 19 18
f 21 22 23 24
f 17 18 22 21
f 19 20 24 23
f 18 19 23 22
f 17 21 24 20
usemtl iron
f 25 28 27 26
f 29 30 31 32
f 25 26 30 29
f 27 28 32 31
f 26 27 31 30
f 25 29 32 28
